<?xml version="1.0" encoding="utf-8"?><!DOCTYPE svg PUBLIC "-//W3C//DTD SVG 1.1//EN" "http://www.w3.org/Graphics/SVG/1.1/DTD/svg11.dtd"><svg viewBox="0 0 500 640" xmlns="http://www.w3.org/2000/svg"><path d="m.5.5v474.25c0 68.898 55.852 124.75 124.75 124.75h62.375c27.289 0 50.92 17.163 62.375 40 11.455-22.837 35.086-40 62.375-40h62.375c68.898 0 124.75-55.852 124.75-124.75v-474.25z" fill="#ed1c24" stroke="#000" stroke-linecap="round" stroke-linejoin="round"/><g stroke="#000" stroke-linecap="round" stroke-linejoin="round"><path d="m254.702 134.4999h-9.404v-52.6946h-14.798v-9.4374l14.798.0001v-11.868h9.404l.0001 11.868 14.7979-.0001v9.4375l-14.7979.0001z" fill="#eac102"/><path d="m269.5 122.71c0 10.7696-8.7305 19.5-19.5 19.5s-19.5-8.7305-19.5-19.5 8.7305-19.5 19.5-19.5 19.5 8.7304 19.5 19.5z" fill="#eac102" fill-rule="evenodd"/><path d="m169.2225 206.6772c5.5362 0 9.9931 4.4551 9.9931 9.9891v24.9726h-19.9862v-24.9726c0-5.5339 4.4569-9.9891 9.9931-9.9891zm27.8974 86.1557h-55.7948v-91.5663l-11.6586-7.4918v-20.8105h15.8224v10.4053h15.8224v-10.4053h15.8224v10.4053h15.8224v-10.4053h15.8224v20.8105l-11.6586 7.4918z" fill="#eac102" fill-rule="evenodd"/><path d="m141.3251 216.5277h17.9043" fill="none"/><path d="m129.6665 193.7748h79.112" fill="none"/><path d="m141.3251 262.3108h55.7948" fill="none"/><path d="m141.3251 247.0498h55.7948" fill="none"/><path d="m141.3251 277.5719h55.7948" fill="none"/><path d="m169.2225 262.3105v15.2613" fill="none"/><path d="m141.3251 231.7887h17.9043" fill="none"/><path d="m176.995 193.7748v7.4918" fill="none"/><path d="m145.9053 193.7748v7.4918" fill="none"/><path d="m192.5397 193.7748v7.4918" fill="none"/><path d="m161.4501 193.7748v7.4918" fill="none"/><path d="m169.2225 206.6772c5.5362 0 9.9931 4.4551 9.9931 9.9891v24.9726h-19.9862v-24.9726c0-5.5339 4.4569-9.9891 9.9931-9.9891z"/><path d="m141.3251 201.2666h55.7948" fill="none"/><path d="m151.7345 277.5716v15.2613" fill="none"/><path d="m186.7104 277.5716v15.2613" fill="none"/><path d="m151.7345 247.0495v15.2613" fill="none"/><path d="m186.7104 247.0495v15.2613" fill="none"/><path d="m151.7345 216.5274v15.2613" fill="none"/><path d="m186.7104 216.5274v15.2613" fill="none"/><path d="m169.2225 241.639v5.4107" fill="none"/><path d="m169.2225 201.2666v5.4107" fill="none"/><path d="m179.2156 216.5277h17.9043" fill="none"/><path d="m179.2156 231.7887h17.9043" fill="none"/><path d="m330.7775 206.6772c-5.5362 0-9.9931 4.4551-9.9931 9.9891v24.9726h19.9862v-24.9726c0-5.5339-4.457-9.9891-9.9931-9.9891zm-27.8974 86.1557h55.7948v-91.5663l11.6586-7.4918v-20.8105h-15.8224v10.4053h-15.8224v-10.4053h-15.8225v10.4053h-15.8223v-10.4053h-15.8224v20.8105l11.6586 7.4918z" fill="#eac102" fill-rule="evenodd"/><path d="m358.6749 216.5277h-17.9043" fill="none"/><path d="m370.3335 193.7748h-79.112" fill="none"/><path d="m358.6749 262.3108h-55.7948" fill="none"/><path d="m358.6749 247.0498h-55.7948" fill="none"/><path d="m358.6749 277.5719h-55.7948" fill="none"/><path d="m330.7775 262.3105v15.2613" fill="none"/><path d="m358.6749 231.7887h-17.9043" fill="none"/><path d="m323.0051 193.7748v7.4918" fill="none"/><path d="m354.0947 193.7748v7.4918" fill="none"/><path d="m307.4603 193.7748v7.4918" fill="none"/><path d="m338.5499 193.7748v7.4918" fill="none"/><path d="m330.7775 206.6772c-5.5362 0-9.9931 4.4551-9.9931 9.9891v24.9726h19.9862v-24.9726c0-5.5339-4.457-9.9891-9.9931-9.9891z"/><path d="m358.6749 201.2666h-55.7948" fill="none"/><path d="m348.2654 277.5716v15.2613" fill="none"/><path d="m313.2895 277.5716v15.2613" fill="none"/><path d="m348.2654 247.0495v15.2613" fill="none"/><path d="m313.2895 247.0495v15.2613" fill="none"/><path d="m348.2654 216.5274v15.2613" fill="none"/><path d="m313.2895 216.5274v15.2613" fill="none"/><path d="m330.7775 241.639v5.4107" fill="none"/><path d="m330.7775 201.2666v5.4107" fill="none"/><path d="m320.7844 216.5277h-17.9043" fill="none"/><path d="m320.7844 231.7887h-17.9043" fill="none"/><path d="m250 174.2128c5.5362 0 9.9931 4.4551 9.9931 9.9891v24.9726h-19.9862v-24.9726c0-5.5339 4.4569-9.9891 9.9931-9.9891zm27.8974 86.1557h-55.7948v-91.5663l-11.6586-7.4918v-20.8105h15.8224v10.4053h15.8224v-10.4053h15.8224v10.4053h15.8224v-10.4053h15.8224v20.8105l-11.6586 7.4918z" fill="#eac102" fill-rule="evenodd"/><path d="m222.1026 184.0632h17.9043" fill="none"/><path d="m210.444 161.3104h79.112" fill="none"/><path d="m222.1026 229.8464h55.7948" fill="none"/><path d="m222.1026 214.5854h55.7948" fill="none"/><path d="m222.1026 245.1075h55.7948" fill="none"/><path d="m250 229.8461v15.2613" fill="none"/><path d="m222.1026 199.3243h17.9043" fill="none"/><path d="m257.7725 161.3104v7.4918" fill="none"/><path d="m226.6828 161.3104v7.4918" fill="none"/><path d="m273.3172 161.3104v7.4918" fill="none"/><path d="m242.2276 161.3104v7.4918" fill="none"/><path d="m250 174.2128c5.5362 0 9.9931 4.4551 9.9931 9.9891v24.9726h-19.9862v-24.9726c0-5.5339 4.4569-9.9891 9.9931-9.9891z"/><path d="m222.1026 168.8022h55.7948" fill="none"/><path d="m232.512 245.1072v15.2613" fill="none"/><path d="m267.4879 245.1072v15.2613" fill="none"/><path d="m232.512 214.5851v15.2613" fill="none"/><path d="m267.4879 214.5851v15.2613" fill="none"/><path d="m232.512 184.063v15.2613" fill="none"/><path d="m267.4879 184.063v15.2613" fill="none"/><path d="m250 209.1746v5.4107" fill="none"/><path d="m250 168.8022v5.4108" fill="none"/><path d="m259.9931 184.0632h17.9043" fill="none"/><path d="m259.9931 199.3243h17.9043" fill="none"/><path d="m309.8 333.6823c8.5362 0 15.4081 6.8718 15.4081 15.4077v42.0588h-30.8162v-42.0588c0-8.5359 6.8721-15.4077 15.4081-15.4077zm-119.6 0c8.5361 0 15.4081 6.8718 15.4081 15.4077v42.0588h-30.8162v-42.0588c0-8.5359 6.872-15.4077 15.4081-15.4077zm209.3 205.8176v-70.8338l-29.9-23.6112-.0002-141.6675 19.9058-9.1613v-40.3932h-49.8059v20.1966h-55.5521v-20.1966h-68.2952v20.1966h-55.552v-20.1966h-49.806v40.3932l19.9058 9.1613-.0002 141.6675-29.9 23.6112v70.8338h125.7632v-54.5516c0-13.1499 10.5866-23.7362 23.7368-23.7362s23.7368 10.5863 23.7368 23.7362v54.5516z" fill="#eac102"/><path d="m209.6058 539.4999v-54.5516c0-22.3778 18.0158-40.3931 40.3942-40.3931s40.3941 18.0153 40.3941 40.3931v54.5516" fill="none"/><path d="m100.5 515.8886h109.1058" fill="none"/><path d="m100.5 492.2774h109.1058" fill="none"/><path d="m100.5 468.6661h112.414" fill="none"/><path d="m130.4004 445.0549h113.1449" fill="none"/><path d="m130.4004 421.4436h239.1997" fill="none"/><path d="m130.4004 397.8324h239.1997" fill="none"/><path d="m190.2 421.4437v23.6112" fill="none"/><path d="m250 421.4437v23.1115" fill="none"/><path d="m309.8 421.4437v23.6112" fill="none"/><path d="m130.4004 326.9986h239.1997" fill="none"/><path d="m209.6058 484.9483h16.6574" fill="none"/><path d="m130.4004 350.6099h44.3915" fill="none"/><path d="m130.4004 374.2211h44.3915" fill="none"/><path d="m290.3941 515.8886h109.1059" fill="none"/><path d="m290.3941 492.2774h109.1059" fill="none"/><path d="m130.4 468.6661v23.6113" fill="none"/><path d="m369.6001 468.6661v23.6113" fill="none"/><path d="m190.2 468.6661v23.6113" fill="none"/><path d="m309.8 468.6661v23.6113" fill="none"/><path d="m130.4 515.8886v23.6113" fill="none"/><path d="m369.6001 515.8886v23.6113" fill="none"/><path d="m190.2 515.8886v23.6113" fill="none"/><path d="m309.8 515.8886v23.6113" fill="none"/><path d="m160.3 492.2774v23.6112" fill="none"/><path d="m339.7 492.2774v23.6112" fill="none"/><path d="m160.3 445.0549v23.6112" fill="none"/><path d="m339.7 445.0549v23.6112" fill="none"/><path d="m220.1 445.0549v12.6059" fill="none"/><path d="m160.3 397.8324v23.6113" fill="none"/><path d="m339.7 397.8324v23.6113" fill="none"/><path d="m279.9001 397.8324v23.6113" fill="none"/><path d="m220.1 397.8324v23.6113" fill="none"/><path d="m325.2081 350.6099h44.392" fill="none"/><path d="m325.2081 374.2211h44.392" fill="none"/><path d="m205.6081 350.6099h88.7838" fill="none"/><path d="m205.6081 374.2211h88.7838" fill="none"/><path d="m160.3 350.6099v23.6113" fill="none"/><path d="m339.7 350.6099v23.6113" fill="none"/><path d="m279.9001 350.6099v23.6113" fill="none"/><path d="m220.1 350.6099v23.6113" fill="none"/><path d="m190.2 391.1488v6.6836" fill="none"/><path d="m250 374.2211v23.6113" fill="none"/><path d="m309.8 391.1488v6.6836" fill="none"/><path d="m190.2 326.9986v6.6836" fill="none"/><path d="m250 326.9986v23.6112" fill="none"/><path d="m309.8 326.9986v6.6836" fill="none"/><path d="m110.4944 294.2261h279.0112" fill="none"/><path d="m250 303.3874v-9.1613" fill="none"/><path d="m198.3621 303.3874v-9.1613" fill="none"/><path d="m146.7242 303.3874v-9.1613" fill="none"/><path d="m301.6379 303.3874v-9.1613" fill="none"/><path d="m353.2758 303.3874v-9.1613" fill="none"/><path d="m130.4 303.3874h239.2" fill="none"/><path d="m160.3 303.3874v23.6112" fill="none"/><path d="m339.7 303.3874v23.6112" fill="none"/><path d="m279.9001 303.3874v23.6112" fill="none"/><path d="m220.1 303.3874v23.6112" fill="none"/><path d="m273.7368 484.9483h16.6573" fill="none"/><path d="m269.2035 470.9965 13.476-9.7907" fill="none"/><path d="m217.3205 461.2058 13.476 9.7907" fill="none"/><path d="m237.5175 446.5321 5.1475 15.8417" fill="none"/><path d="m257.3351 462.3739 5.1474-15.8417" fill="none"/><path d="m209.6058 503.1322h16.6574" fill="none"/><path d="m209.6058 521.3161h16.6574" fill="none"/><path d="m273.7368 503.1322h16.6573" fill="none"/><path d="m273.7368 521.3161h16.6573" fill="none"/><path d="m399.5 468.6661h-112.414" fill="none"/><path d="m369.5997 445.0549h-113.145" fill="none"/><path d="m279.9 445.0549v12.6059" fill="none"/><path d="m190.2 333.6823c8.5361 0 15.4081 6.8718 15.4081 15.4077v42.0588h-30.8162v-42.0588c0-8.5359 6.872-15.4077 15.4081-15.4077z"/><path d="m309.8 333.6823c8.5362 0 15.4081 6.8718 15.4081 15.4077v42.0588h-30.8162v-42.0588c0-8.5359 6.8721-15.4077 15.4081-15.4077z"/><path d="m250 461.2121c13.1502 0 23.7368 10.5863 23.7368 23.7362v54.5516h-47.4736v-54.5516c0-13.1499 10.5866-23.7362 23.7368-23.7362z" fill="#eac102"/><path d="m250 461.212v78.2879" fill="none"/></g><path d="m1.5 1.5v473.25c0 68.35 55.4 123.75 123.75 123.75h62.375c27.18 0 50.966 17.254 62.375 40 11.409-22.746 35.195-40 62.375-40h62.375c68.35 0 123.75-55.4 123.75-123.75v-473.25z" fill="none" stroke="#000" stroke-linecap="round" stroke-linejoin="round" stroke-width="3"/></svg>