<?xml version="1.0" encoding="utf-8"?><!DOCTYPE svg PUBLIC "-//W3C//DTD SVG 1.1//EN" "http://www.w3.org/Graphics/SVG/1.1/DTD/svg11.dtd"><svg viewBox="0 0 500 640" xmlns="http://www.w3.org/2000/svg"><path d="m.5.5v474.25c0 68.898 55.852 124.75 124.75 124.75h62.375c27.289 0 50.92 17.163 62.375 40 11.455-22.837 35.086-40 62.375-40h62.375c68.898 0 124.75-55.852 124.75-124.75v-474.25z" fill="#e5e5e5" stroke="#000" stroke-linecap="round" stroke-linejoin="round"/><g stroke="#000" stroke-linecap="round" stroke-linejoin="round"><g><path d="m186.1563 338.2188c-14.0086 11.8572-33.2479 20.9819-38.75 31.4375-4.3722 8.3084-20.4913 14.4906-39.25 26.5938-21.482 13.8603-37.4388 34.3016-50.6563 54.4688-11.0838 16.9116-34.3178 25.1246-56.5938 34.0313 5.0963 64.2196 58.8138 114.75 124.3438 114.75h62.375c27.289 0 50.92 17.1628 62.375 39.9998 11.455-22.837 35.086-39.9998 62.375-39.9998h62.375c58.7158 0 107.9469-40.5546 121.2188-95.1875-11.1326-3.9638-17.6542-7.2103-27.4688-12.6563-13.0198-7.2245-18.6313-16.172-21.5625-23.8125-2.9478-7.684-24.4192-10.9238-37.4638-8.8448-.8478-6.8413-7.0278-27.8469-22.3175-39.5303-9.1938-7.0254-5.8877-13.5147-18.75-28.2813-3.9907-4.5815-11.607-1.623-19.3077.943-5.1259-5.042-7.5256-19.6101-11.7236-23.7555-6.4828-6.4017-21.0065-24.5029-32.4375-29.5938-9.0917-4.0491-22.0864-31.5343-33.9361-31.6572-11.2619-.1168-16.2792-7.1241-29.1867-7.1241-21.7079.0001-33.8003 19.7177-55.6584 38.2189z" fill="#c87137"/><path d="m349.0986 392.1305c-4.6082 1.7132-7.6022 6.3298-9.8105 11.0872" fill="none"/><path d="m409.4737 458.999c1.673 8.5708 5.4222 9.5464 8.2372 13.9302" fill="none"/><path d="m257.5224 311.933c-9.2268 1.9601-7.8224 12.2155-5.6227 20.3621 6.2568 23.1717 29.7566 27.4399 38.6282 44.9599 10.1115 19.9685 21.5995 35.6971 32.2957 43.6933 10.6398 7.9543 5.6709 37.0844 12.1074 46.1747 9.3108 13.1494 31.3968 37.8853 44.2517 42.4786" fill="none"/><path d="m239.868 350.0258c-2.2275 14.3867-3.5596 29.4897-13.9315 37.361" fill="none"/><path d="m206.7543 410.6194c-14.9037 11.6934-49.8063 19.754-63.1401 36.925" fill="none"/><path d="m131.5825 427.2808c-21.9501 6.6874-43.6856 13.6611-55.7259 33.5616" fill="none"/><path d="m156.2792 385.4871c14.7206-10.6823 22.188-10.4848 30.3959-11.3983" fill="none"/><path d="m46.0939 507.7019c15.4762-16.4931 38.839-13.9317 58.2589-29.7621" fill="none"/><path d="m47.9937 544.4297c9.6716-.8634 34.828-9.8156 44.3274-20.8969" fill="none"/><path d="m128.4162 499.4698c12.8642-12.1831 24.9196-20.3227 36.0952-24.063" fill="none"/><path d="m241.1673 447.9367c-5.0397 23.9234-22.9981 19.3143-22.1637 75.3553" fill="none"/><path d="m328.4584 473.7352c-6.8747 13.6628 11.8847 38.0698 16.0049 63.942 4.308 27.0514 30.0235 32.9373 42.3196 37.8267" fill="none"/><path d="m412.1117 496.9369c17.1796 15.245 32.8796 9.7928 64.5695 47.9431" fill="none"/><path d="m297.4937 432.9799c-8.101-11.6126-21.2454-19.6229-41.1612-22.7965" fill="none"/><path d="m174.1466 525.3348c-24.9742 20.8566-14.8266 50.7318-37.3628 74.1652" fill="none"/><path d="m272.7655 498.5666c21.8546 23.3352 11.6875 57.4638 23.6062 80.2859" fill="none"/></g><g><path d="m235.7355 228.3259c-9.8108 5.27-22.9253 9.261-33.847 8.414 12.4702-9.344 25.0627-18.248 25.0627-38.586 0-22.201-26.9291-44.1521-36.621-34.466-5.402 5.3989-.9707 16.149 7.8564 24.608-50.4294-5.177-55.4701-50.3242-39.8442-65.941 21.801-21.7882 78.0413 5.551 78.0413 69.718h4.5703c0-43.529-24.9197-60.097-24.94-95.075-.0112-19.217 8.8247-38.049 33.9856-66.248 25.1611 28.199 33.998 47.031 33.9866 66.248-.021 34.978-24.9401 51.546-24.9401 95.075h4.5703c0-64.167 56.2403-91.5062 78.0413-69.718 15.6259 15.6168 10.5851 60.764-39.8443 65.941 8.8272-8.459 13.2585-19.2091 7.8565-24.608-9.6919-9.6861-36.621 12.265-36.621 34.466 0 20.338 12.5923 29.242 25.0628 38.586-10.9218.847-24.0364-3.144-33.8471-8.414 0 15.974-3.2437 31.564-14.2646 41.424-11.0209-9.86-14.2645-25.45-14.2645-41.424z" fill="#ed1c24"/><path d="m249.9996 30.7499.0004 239" fill="none"/><path d="m207 191.1539h86v14h-86z" fill="#ed1c24"/></g></g><path d="m1.5 1.5v473.25c0 68.35 55.4 123.75 123.75 123.75h62.375c27.18 0 50.966 17.254 62.375 40 11.409-22.746 35.195-40 62.375-40h62.375c68.35 0 123.75-55.4 123.75-123.75v-473.25z" fill="none" stroke="#000" stroke-linecap="round" stroke-linejoin="round" stroke-width="3"/></svg>