<?xml version="1.0" encoding="utf-8"?><!DOCTYPE svg PUBLIC "-//W3C//DTD SVG 1.1//EN" "http://www.w3.org/Graphics/SVG/1.1/DTD/svg11.dtd"><svg viewBox="0 0 580 680" xmlns="http://www.w3.org/2000/svg"><g stroke="#000" stroke-linecap="round" stroke-linejoin="round"><path d="m70.5.5 20 20c13 13 30 20 50 20h299c20 0 37-7 50-20l20-20 70 70-20 20c-13 13-20 30-20 50v374.25c0 68.898-55.852 124.75-124.75 124.75h-62.375c-27.289 0-50.92 17.163-62.375 40-11.455-22.837-35.086-40-62.375-40h-62.375c-68.898 0-124.75-55.852-124.75-124.75v-374.25c0-20-7-37-20-50l-20-20z" fill="#e5e5e5"/><path d="m290 514.9171c-105.333 0-210.3561 35.1912-240.5938 46.1768 18.3962 45.9508 63.3218 78.4063 115.8438 78.4063h62.375c27.289 0 50.92 17.1629 62.375 39.9999 11.455-22.837 35.086-39.9999 62.375-39.9999h62.375c52.522 0 97.4475-32.4554 115.8438-78.4063-30.2376-10.9856-135.2608-46.1768-240.5938-46.1768z" fill="#c87137"/></g><g stroke-linecap="round" stroke-linejoin="round"><g><path d="m193.9473 385.4945c15.3041-26.4046.6863-34.9946-10.7703-34.9946-1.9911 0-3.8867.2935-5.5132.7849-11.8282 3.5739-27.1279 14.4238-26.5211 15.2888-13.1275 7.9313-37.7667 19.4306-38.3117 20.4317-.5833 1.0714 2.3519 1.5005 6.0955.1777.7153.8052 3.5153 2.199 7.7747.3815 1.392.4551 3.9159 1.4273 9.3807-.8682 4.1928.4682 8.8689-.4318 12.6924-2.2458 2.3823.5706 12.733-2.303 19.3662-5.5788-2.8861 2.769-.7091 4.8244 1.0663 4.1804-2.3884 1.6789-1.3755 5.6845 1.1727 4.735-3.1043 3.7479 1.348 6.9944 15.3865-4.3689" stroke="#e5e5e5"/><path d="m168.1405 378.8718c4.344-2.3511 10.2962-5.3743 16.0155-10.0408" fill="none" stroke="#e5e5e5"/><path d="m148.7744 384.4506c8.1808-3.5472 23.2855-11.6542 32.0774-18.4687" fill="none" stroke="#e5e5e5"/><path d="m136.0819 386.6964c8.2703-3.3161 27.2878-13.0218 37.8556-20.516" fill="none" stroke="#e5e5e5"/><path d="m126.7013 387.5646c7.3768-3.4887 27.2753-12.6966 40.4762-21.6922" fill="none" stroke="#e5e5e5"/><path d="m118.9265 387.1831c4.8135-1.7712 26.5063-12.6008 41.1518-21.652" fill="none" stroke="#e5e5e5"/><path d="m169.2068 383.0522c4.1148-1.7435 12.8429-7.1809 17.6134-10.9713" fill="none" stroke="#e5e5e5"/><path d="m170.3795 387.7872c3.3991-1.3986 17.5472-11.1796 21.2378-14.5653" fill="none" stroke="#e5e5e5"/><path d="m151.1428 366.5737c.5929.7021 5.8782.3254 11.1099-1.9487-2.3498 2.5437.7679 4.6919 10.5018-2.0363-3.4225 3.9234 1.3792 5.7061 10.0288-.3738-3.2772 3.7833-3.4971 9.4761 7.0969 4.9619-4.5757 2.4419-5.1733 9.1815 5.2932 4.8509" fill="none" stroke="#e5e5e5"/><path d="m230.1733 361.3297c-6.5776-3.9521-13.9048-.6718-18.0171 2.0174-9.3306 6.1018-10.6606 11.8485-19.2745 14.7962-11.026 3.7733-19.2313 7.4398-38.9289 23.6771-25.4071 20.9439-59.7256 22.6764-63.4528 26.2041 7.169 2.5953 24.8568 2.5284 38.9327-.3827-12.7206 11.1229-27.5401 29.32-32.4249 39.671 2.7974 1.5231 29.9124-29.5261 56.3021-43.7566 12.2849-6.6245 21.5653 4.0168 40.6836-4.9042 10.6454-4.9675 24.1343-17.9905 29.6526-33.8856 4.1527-4.3245 9.653-11.4651 9.2027-18.1467z" stroke="#e5e5e5"/><path d="m193.9938 418.652c10.6454-4.9675 24.1343-17.9905 29.6526-33.8856 4.1527-4.3245 9.653-11.4651 9.179-18.1365-3.18 2.1307-5.7645 2.0602-9.28 4.1437-4.3685 2.589-6.7726 6.8345-8.0775 16.3176-.3633 2.6398-7.6814 17.2146-17.0356 23.4186-15.8233 10.4944-33.7395 5.715-46.0305 12.3652 12.2849-6.6245 22.4736 4.698 41.5919-4.223z" fill="#e5e5e5" stroke="#000"/><path d="m230.1733 361.3297c1.6368-.843 6.2303-1.3966 9.3269-1.2433-2.1732 2.5537-5.2108 5.8047-6.6512 6.5333-.8826.5358-2.2199-.5442-2.5713-1.5326-.3492-.9823-.5792-3.2127-.1044-3.7574z" fill="#e5e5e5" stroke="#000"/><path d="m217.6219 369.9022a2.0134 2.2645 28.5636 0 0 2.1655-3.9777 2.0134 2.2645 28.5636 1 0 -2.1655 3.9777z" fill="#e5e5e5" stroke="#e5e5e5"/><path d="m202.0699 397.5174c14.4178.1386 18.0709 18.2978 9.9639 33.1891-8.095 14.8696-20.7641 28.153-21.643 27.2599-12.8136 14.0547-33.1351 41.5336-34.2601 41.5336-.9813-.5344-1.0865-3.0752 1.4461-7.2687-.7799-1.0101-1.7324-4.6175 1.5223-9.327-.1895-1.7464-.7086-4.9417 3.4236-10.9911.5074-5.0817 2.7722-10.4684 5.9117-14.66-.0755-2.9477 3.4275-11.5189 9.028-18.7649-2.0925.6552-1.866-3.9144-.6451-5.9-1.4233-.3769-2.4236-3.3913.2538-7.6946-3.6884 1.7241-.8553-9.1425 1.7215-11.9947" stroke="#e5e5e5"/><path d="m177.4625 438.4883c3.9135-4.7047 11.6021-14.3685 18.6312-20.2525" fill="none" stroke="#e5e5e5"/><path d="m168.4345 457.2532c6.3185-9.0341 19.8451-25.4065 30.2217-34.5225" fill="none" stroke="#e5e5e5"/><path d="m162.5228 471.9132c6.0652-9.1863 22.4969-29.8994 34.1372-40.9938" fill="none" stroke="#e5e5e5"/><path d="m159.0992 482.9043c6.0439-8.0888 22.1051-29.9483 36.2089-43.8802" fill="none" stroke="#e5e5e5"/><path d="m157.5769 492.2313c3.3402-5.3777 21.7951-29.0522 36.3327-44.6918" fill="none" stroke="#e5e5e5"/><path d="m176.8174 432.5884c3.1295-4.5518 10.3308-13.2369 16.0722-18.1647" fill="none" stroke="#e5e5e5"/><path d="m177.0712 424.8937c2.5354-3.7685 10.6928-12.6811 15.6759-16.404" fill="none" stroke="#e5e5e5"/><path d="m190.3908 457.9664c-.6877-.8443 1.1068-7.0591 5.1542-12.8352-3.6362 2.2934-5.409-1.8408 5.1042-12.0945-5.5572 3.2974-6.4649-2.7686 2.998-11.8603-5.3528 3.1525-12.2087 2.2896-4.1213-9.4252-4.081 4.9626-12.2834 4.3422-4.4478-7.2571" fill="none" stroke="#e5e5e5"/><path d="m230.2777 365.0871c2.5681-1.5579 6.1002-3.7618 9.2225-5.0007" fill="none" stroke="#000"/><path d="m218.9007 369.0915a1.1802 1.2839 28.5634 0 0 1.2278-2.2553 1.1802 1.2839 28.5634 1 0 -1.2278 2.2553z" fill="#e5e5e5" stroke="#000"/></g><g><path d="m386.0527 385.4945c-15.3041-26.4046-.6863-34.9946 10.7703-34.9946 1.9911 0 3.8867.2935 5.5132.7849 11.8282 3.5739 27.1279 14.4238 26.5211 15.2888 13.1275 7.9313 37.7667 19.4306 38.3117 20.4317.5833 1.0714-2.3519 1.5005-6.0955.1777-.7153.8052-3.5153 2.199-7.7747.3815-1.392.4551-3.9159 1.4273-9.3807-.8682-4.1928.4682-8.8689-.4318-12.6924-2.2458-2.3823.5706-12.733-2.303-19.3662-5.5788 2.8861 2.769.7091 4.8244-1.0663 4.1804 2.3884 1.6789 1.3755 5.6845-1.1727 4.735 3.1043 3.7479-1.348 6.9944-15.3865-4.3689" stroke="#e5e5e5"/><path d="m411.8596 378.8718c-4.344-2.3511-10.2962-5.3743-16.0155-10.0408" fill="none" stroke="#e5e5e5"/><path d="m431.2257 384.4506c-8.1808-3.5472-23.2855-11.6542-32.0774-18.4687" fill="none" stroke="#e5e5e5"/><path d="m443.9181 386.6964c-8.2703-3.3161-27.2878-13.0218-37.8556-20.516" fill="none" stroke="#e5e5e5"/><path d="m453.2988 387.5646c-7.3768-3.4887-27.2753-12.6966-40.4762-21.6922" fill="none" stroke="#e5e5e5"/><path d="m461.0735 387.1831c-4.8135-1.7712-26.5063-12.6008-41.1518-21.652" fill="none" stroke="#e5e5e5"/><path d="m410.7933 383.0522c-4.1148-1.7435-12.8429-7.1809-17.6134-10.9713" fill="none" stroke="#e5e5e5"/><path d="m409.6206 387.7872c-3.3991-1.3986-17.5472-11.1796-21.2378-14.5653" fill="none" stroke="#e5e5e5"/><path d="m428.8573 366.5737c-.5929.7021-5.8782.3254-11.1099-1.9487 2.3498 2.5437-.7679 4.6919-10.5018-2.0363 3.4225 3.9234-1.3792 5.7061-10.0288-.3738 3.2772 3.7833 3.4971 9.4761-7.0969 4.9619 4.5757 2.4419 5.1733 9.1815-5.2932 4.8509" fill="none" stroke="#e5e5e5"/><path d="m349.8267 361.3297c6.5776-3.9521 13.9048-.6718 18.0171 2.0174 9.3306 6.1018 10.6606 11.8485 19.2745 14.7962 11.026 3.7733 19.2313 7.4398 38.9289 23.6771 25.4071 20.9439 59.7256 22.6764 63.4528 26.2041-7.169 2.5953-24.8568 2.5284-38.9327-.3827 12.7206 11.1229 27.5401 29.32 32.4249 39.671-2.7974 1.5231-29.9124-29.5261-56.3021-43.7566-12.2849-6.6245-21.5653 4.0168-40.6836-4.9042-10.6454-4.9675-24.1343-17.9905-29.6526-33.8856-4.1527-4.3245-9.653-11.4651-9.2027-18.1467z" stroke="#e5e5e5"/><path d="m386.0063 418.652c-10.6454-4.9675-24.1343-17.9905-29.6526-33.8856-4.1527-4.3245-9.653-11.4651-9.179-18.1365 3.18 2.1307 5.7645 2.0602 9.28 4.1437 4.3685 2.589 6.7726 6.8345 8.0775 16.3176.3633 2.6398 7.6814 17.2146 17.0356 23.4186 15.8233 10.4944 33.7395 5.715 46.0305 12.3652-12.2849-6.6245-22.4736 4.698-41.5919-4.223z" fill="#e5e5e5" stroke="#000"/><path d="m349.8267 361.3297c-1.6368-.843-6.2303-1.3966-9.3269-1.2433 2.1732 2.5537 5.2108 5.8047 6.6512 6.5333.8826.5358 2.2199-.5442 2.5713-1.5326.3492-.9823.5792-3.2127.1044-3.7574z" fill="#e5e5e5" stroke="#000"/><path d="m362.3781 369.9022a2.2645 2.0134 61.4364 0 1 -2.1655-3.9777 2.2645 2.0134 61.4364 1 1 2.1655 3.9777z" fill="#e5e5e5" stroke="#e5e5e5"/><path d="m377.9301 397.5174c-14.4178.1386-18.0709 18.2978-9.9639 33.1891 8.095 14.8696 20.7641 28.153 21.643 27.2599 12.8136 14.0547 33.1351 41.5336 34.2601 41.5336.9813-.5344 1.0865-3.0752-1.4461-7.2687.7799-1.0101 1.7324-4.6175-1.5223-9.327.1895-1.7464.7086-4.9417-3.4236-10.9911-.5074-5.0817-2.7722-10.4684-5.9117-14.66.0755-2.9477-3.4275-11.5189-9.028-18.7649 2.0925.6552 1.866-3.9144.6451-5.9 1.4233-.3769 2.4236-3.3913-.2538-7.6946 3.6884 1.7241.8553-9.1425-1.7215-11.9947" stroke="#e5e5e5"/><path d="m402.5376 438.4883c-3.9135-4.7047-11.6021-14.3685-18.6312-20.2525" fill="none" stroke="#e5e5e5"/><path d="m411.5656 457.2532c-6.3185-9.0341-19.8451-25.4065-30.2217-34.5225" fill="none" stroke="#e5e5e5"/><path d="m417.4772 471.9132c-6.0652-9.1863-22.4969-29.8994-34.1372-40.9938" fill="none" stroke="#e5e5e5"/><path d="m420.9009 482.9043c-6.0439-8.0888-22.1051-29.9483-36.2089-43.8802" fill="none" stroke="#e5e5e5"/><path d="m422.4232 492.2313c-3.3402-5.3777-21.7951-29.0522-36.3327-44.6918" fill="none" stroke="#e5e5e5"/><path d="m403.1826 432.5884c-3.1295-4.5518-10.3308-13.2369-16.0722-18.1647" fill="none" stroke="#e5e5e5"/><path d="m402.9289 424.8937c-2.5354-3.7685-10.6928-12.6811-15.6759-16.404" fill="none" stroke="#e5e5e5"/><path d="m389.6092 457.9664c.6877-.8443-1.1068-7.0591-5.1542-12.8352 3.6362 2.2934 5.409-1.8408-5.1042-12.0945 5.5572 3.2974 6.4649-2.7686-2.998-11.8603 5.3528 3.1525 12.2087 2.2896 4.1213-9.4252 4.081 4.9626 12.2834 4.3422 4.4478-7.2571" fill="none" stroke="#e5e5e5"/><path d="m349.7223 365.0871c-2.5681-1.5579-6.1002-3.7618-9.2225-5.0007" fill="none" stroke="#000"/><path d="m361.0993 369.0915a1.2839 1.1802 61.4366 0 1 -1.2278-2.2553 1.2839 1.1802 61.4366 1 1 1.2278 2.2553z" fill="#e5e5e5" stroke="#000"/></g><g stroke="#000"><path d="m276.006 265.0737c-5.0525 3.1583-8.1092 8.2595-11.0795 13.6814-.411-3.7659-.3288-6.9111.6195-9.5357-5.3071 5.0171-7.7611 11.7561-10.3979 19.9931-1.9815-3.7571-2.2892-8.7656-1.3623-13.1928-4.6503 5.3994-5.5578 11.9871-7.0875 21.9809-1.6802-3.9914-2.9686-8.3045-2.549-12.6213-3.9239 5.4895-4.444 9.3199-4.8807 19.8887l-4.2412-9.7022c-2.7248 6.9725-2.9688 13.0639-3.6094 24.7777-.8175-4.6567-2.9766-7.0454-3.5853-11.1218-2.155 5.9002-2.6638 9.432-4.2103 18.2785-2.3675-6.6215-2.666-12.3918.025-20.2903-3.4035 3.4655-6.2072 7.2686-8.1168 11.1087-2.3178-9.2748 8.306-19.3787 12.4342-24.5135-4.5598 3.397-10.4509 6.8338-15.2731 14.0054 2.1654-10.0975 14.0279-21.6703 23.9771-28.8113-4.48 1.1488-11.5792 5.1259-18.8743 10.7184 6.327-14.4241 23.2982-18.0554 30.475-21.5951-4.7989-.038-9.1916-.2653-17.9654 4.6434 5.9227-10.8738 23.9768-12.2559 30.8104-12.5328-4.8175-1.4156-8.6951-1.4396-14.0832-.5176 11.2776-4.4354 21.4181-2.9534 27.9584-2.1952.019-.301.2679-2.7871.2794-3.0887-11.6441-3.3014-29.451-1.8688-52.6874 17.7113 2.3435-7.6932 5.9459-11.2796 11.9503-15.6285-13.8733 4.4641-18.9458 7.7038-25.4046 20.016.9395-6.9608 2.2243-11.1065 6.3339-15.7509-9.3623 5.4984-15.6137 9.2264-20.7919 21.5084-.291-5.7959.6626-9.6973 4.3519-15.7204-8.1379 5.8291-13.7596 11.1846-17.2081 24.5248-1.2159-6.3856-1.7082-10.4553 1.2356-16.8772-7.807 8.4472-9.3716 15.8917-12.6965 28.7873-2.5275-5.6225-2.2286-12.0502.496-18.5514-4.76 6.109-8.1731 13.748-12.2636 28.4871-.2148-6.1785-2.2294-10.5381.082-15.9954-7.0126 8.5049-9.4415 13.6625-12.7367 30.5575-1.3533-17.3057 2.6151-25.3182 9.4413-34.336-4.6905 4.0801-12.8568 11.011-17.8989 19.3753 2.9303-16.0231 21.1638-28.9514 29.3222-34.9124-7.6476 2.3745-15.3131 7.1402-24.1146 15.3109 3.6936-11.3517 28.3106-26.5985 41.8918-31.8833-9.9511 1.6863-19.0506 3.4875-29.1154 10.8574 9.9544-16.546 38.5126-19.2013 52.5484-21.7637-6.7041-.6482-16.2086-.9021-26.0643 1.8797 15.4254-11.4345 38.265-7.1666 49.8416-7.6156-7.2684-2.5506-14.2182-3.2921-20.7609-3.7195 21.697-5.8168 42.5105 3.8521 55.7586 6.0591 2.3082.3848 6.4232-.7254 8.8678-.6071l.03-4.1417c-13.744-7.231-37.0146-14.8333-71.5384-.1106 7.7829-6.6947 12.6224-7.2879 20.6687-10.0853-12.0339.1564-23.443 3.6426-35.9459 12.2927 2.8072-6.6981 7.0305-9.8779 14.1717-12.7205-12.2297 3.0838-20.4245 5.1996-29.4666 16.1165 1.0908-5.8524 3.4899-9.6244 9.2598-14.6844-10.8893 3.7274-19.04 7.5401-26.3338 19.9552.1619-6.6768.3282-9.7386 5.3304-15.3864-11.15 6.4214-15.3632 13.2516-22.4038 25.2561.4571-7.0982-.2143-11.4022 6.1123-18.6441-7.0343 4.8708-13.594 11.4005-21.9783 25.0451 1.2734-6.2143 1.0707-10.1442 5.1003-14.9923-10.2417 6.6818-20.162 16.8762-28.1541 32.8741 2.6941-17.598 16.8944-30.1568 24.8336-38.1439-6.6986 1.397-18.9043 8.1668-24.8336 15.6517 5.4684-16.7727 32.0296-26.0925 43.5215-29.2062-12.3266.2693-18.6521 1.4161-29.4266 7.436 9.712-11.5456 29.4883-15.6304 53.8273-18.8914-9.3906-.8002-20.095-1.0394-35.0702 2.2597 20.3185-12.2549 44.4273-8.2508 64.3844-7.3164-7.5553-3.8549-16.6035-4.8062-29.6041-4.5183 23.1898-7.6802 44.7625.3996 58.0578 5.0967-5.3456-5.4007-18.7005-8.1143-24.6327-10.756 36.8393 4.4679 60.509 21.1741 75.3529 26.7663l.4647-5.2241c-10.5473-11.1453-29.2245-22.8413-63.8875-21.6617 8.4555-3.8719 12.9532-3.9179 21.4891-2.9381-9.8839-4.2867-24.9058-3.2524-39.1775 2.5684 5.4263-4.8283 9.6963-6.004 16.71-7.2512-12.6852-1.0724-18.2275-.6548-33.0119 4.6005 3.4723-4.6277 7.2697-6.4319 14.7676-8.0728-8.8594-1.9864-20.4001-2.0368-32.9088 6.6107.7518-4.8716 4.8609-7.9123 11.8907-9.4747-12.6852-.4536-19.0075 1.7086-30.6039 9.7543 1.448-4.4032 4.9039-8.6061 12.1238-12.344-8.5964 2.0058-16.9407 6.2706-30.4773 15.3017 3.7944-4.8795 5.2348-9.3012 11.0228-12.1933-12.3439 3.479-20.6526 7.6855-34.8119 18.8283 9.8962-14.0937 22.6521-20.0285 33.3993-24.402-5.9912-.251-14.7798-.1488-25.1566 3.9145 14.1268-12.1676 33.5034-10.447 47.5766-9.641-10.2095-2.4879-18.4016-5.6251-30.952-4.6962 13.0336-5.6262 35.8865-1.5373 60.0506 5.9146-6.3308-4.4401-22.5004-11.6862-36.8383-12.9415 24.665-2.0866 44.9325 7.5415 65.6996 17.6033-5.5484-5.3314-9.7805-11.1081-24.2106-15.4218 26.2075 1.9289 40.1528 16.0294 50.5644 24.0133-4.4918-6.3661-7.8914-11.021-16.8569-16.7268 30.6566 12.5305 42.6504 31.2986 54.1283 40.5083l1.5579-5.0342c-14.5736-18.0608-42.0678-38.3874-68.4475-40.6873 8.2428-1.2233 17.4563-2.3785 29.6479 2.65-13.6567-7.61-35.1957-9.0868-48.4832-9.4434 6.5462-1.2336 12.4741-2.8972 24.283-1.1267-13.5716-4.7275-27.6244-7.4595-43.5457-4.2957 8.2348-3.8619 12.4733-5.0293 23.5799-3.9613-12.7477-3.7647-28.548-3.0505-40.895-1.9798 5.4155-1.5188 9.2518-4.4809 23.649-4.052-11.035-3.5437-20.7315-5.3351-36.0756-3.4426 5.7406-3.0903 9.4003-4.1276 17.6433-4.721-7.7933-3.1459-19.8838-3.7148-36.3354-2.2844 14.7486-4.6209 24.2306-5.0915 34.2223-3.7156-6.2874-4.0305-14.5783-7.4576-23.1174-7.7765 13.3566-3.3022 38.3734 6.5805 46.1507 11.4336-7.0561-5.3172-14.6117-11.0151-22.7286-13.9016 11.9892-.2072 31.0563 10.8784 44.4115 20.7257-6.8987-8.5733-12.1125-12.0106-21.5403-18.4118 14.3984 2.5656 36.3243 22.8629 46.5712 30.3539-3.4245-4.8326-12.0344-14.7599-20.5162-21.3036 12.9326 3.2873 31.9736 23.8359 38.6084 31.4791-4.0564-6.4224-9.7786-15.5213-19.3733-24.1045 11.9272 1.972 27.9714 24.7901 38.8611 40.9198 4.6326 6.862 10.2242 15.4116 15.3114 20.9073l1.5836-4.1431c-4.9158-11.3336-11.0449-30.9069-31.1082-41.9697 6.9789.9433 10.7508 2.5138 15.5271 6.9448-3.9787-8.2458-14.6674-17.4227-26.1494-19.5254 5.4544-1.0613 9.0937-.078 14.0645 2.1019-7.6049-6.3119-12.5649-9.927-24.1371-12.6556 4.1309-1.7732 8.2787.2467 13.7213 2.3585-4.7965-5.288-14.0285-12.475-25.5686-11.7957 4.2088-2.6962 6.4487-1.5728 12.275-.8298-7.8624-5.8713-14.4042-9.3573-25.1149-8.7057 4.6071-2.69 6.0989-2.9107 13.5284-2.0107-6.2916-2.3332-13.6721-4.6454-26.0241-4.1435 4.4398-1.8102 7.5994-3.833 12.722-1.8885-9.2834-2.9247-16.1717-5.2802-29.7981-3.5482 12.394-6.9212 22.0897-2.7933 30.7317-1.2017-4.7803-2.8124-11.7657-5.681-18.5216-8.6413 16.0442 0 26.8133 9.5635 35.193 14.4297-4.8634-4.7666-11.1588-10.8194-16.2435-14.4297 11.1603 2.2051 22.7649 12.0969 36.0391 28.2601-2.6717-4.6218-7.9741-15.4079-15.5049-22.2991 11.9375 4.1997 24.9336 24.0077 32.7025 40.249-1.3021-6.2188-2.6721-12.9839-8.078-22.119 12.1617 10.3852 17.0233 31.4139 20.3077 41.6472-.2004-6.4933.158-11.0621-3.1564-19.0432l-.0002.0008c12.0417 19.8476 12.4329 40.1688 15.4051 51.613 1.1791-11.205 2.5696-38.5236-10.2027-49.4109 5.086-.8082 8.2854 6.1598 9.1514 7.7687.8483-2.7141-.4095-10.4724-10.7401-18.2184 4.6095.2275 8.3838 2.9153 11.4337 7.0667.08-5.2113-6.5751-13.7217-13.1497-16.9385 4.3084-1.3601 8.805 1.6347 13.0267 5.5149-.4055-7.8626-8.8564-14.7073-14.0447-14.0745 4.1004-2.7127 8.562-2.9586 14.0792 2.014-.4381-11.4038 1.886-15.9723 4.7062-22.0301 2.8204 6.0578 5.1443 10.6263 4.7063 22.0301 5.5172-4.9726 9.9787-4.7267 14.0791-2.014-5.1884-.6328-13.6392 6.2119-14.0446 14.0745 4.2217-3.8802 8.7181-6.875 13.0267-5.5149-6.5746 3.2168-13.2292 11.7272-13.1498 16.9385 3.0499-4.1514 6.8245-6.8392 11.4338-7.0667-10.3307 7.746-11.5884 15.5043-10.7401 18.2184.8659-1.6089 4.0653-8.5769 9.1514-7.7687-12.7723 10.8873-11.3816 38.2059-10.2027 49.4109 2.972-11.4442 3.3633-31.7654 15.405-51.613l-.0001-.0008c-3.3149 7.9811-2.9561 12.5499-3.1564 19.0432 3.2843-10.2333 8.146-31.262 20.3077-41.6472-5.406 9.1351-6.7759 15.9002-8.078 22.119 7.7689-16.2413 20.7649-36.0493 32.7025-40.249-7.5311 6.8912-12.8332 17.6773-15.5049 22.2991 13.2741-16.1632 24.8787-26.055 36.039-28.2601-5.0847 3.6103-11.3801 9.6631-16.2434 14.4297 8.3795-4.8662 19.1488-14.4297 35.193-14.4297-6.7557 2.9603-13.7411 5.8289-18.5216 8.6413 8.6421-1.5916 18.3378-5.7195 30.7317 1.2017-13.6267-1.732-20.5149.6235-29.7981 3.5482 5.1225-1.9445 8.2821.08 12.722 1.8885-12.352-.5019-19.7328 1.8103-26.0242 4.1435 7.4298-.9 8.9216-.6793 13.5284 2.0107-10.7106-.6516-17.2524 2.8344-25.1149 8.7057 5.8261-.743 8.0662-1.8664 12.275.8298-11.54-.6793-20.7722 6.5077-25.5685 11.7957 5.4425-2.1118 9.5904-4.1317 13.7213-2.3585-11.5723 2.7286-16.5322 6.3437-24.1371 12.6556 4.9709-2.1808 8.6103-3.1632 14.0645-2.1019-11.482 2.1027-22.1707 11.2796-26.1495 19.5254 4.7764-4.431 8.5483-6.0015 15.5272-6.9448-20.0634 11.0628-26.1925 30.6361-31.1082 41.9697l1.5836 4.1431c5.0871-5.4957 10.6788-14.0453 15.3114-20.9073 10.8896-16.1297 26.9339-38.9478 38.8611-40.9198-9.595 8.5832-15.3169 17.6821-19.3733 24.1045 6.6347-7.6432 25.6757-28.1918 38.6084-31.4791-8.4818 6.5437-17.0918 16.471-20.5163 21.3036 10.2469-7.491 32.1729-27.7883 46.5712-30.3539-9.4277 6.4012-14.6415 9.8385-21.5403 18.4118 13.3553-9.8473 32.4224-20.9329 44.4115-20.7257-8.1169 2.8865-15.6726 8.5844-22.7285 13.9016 7.7773-4.8531 32.7941-14.7358 46.1507-11.4336-8.5393.3189-16.8301 3.746-23.1175 7.7765 9.9917-1.3759 19.4738-.9053 34.2224 3.7156-16.4519-1.4304-28.5421-.8615-36.3354 2.2844 8.2429.5934 11.9027 1.6307 17.6433 4.721-15.3442-1.8925-25.041-.1011-36.0756 3.4426 14.3972-.4289 18.2334 2.5332 23.6489 4.052-12.347-1.0707-28.1472-1.7849-40.8951 1.9798 11.1069-1.068 15.3453.1011 23.58 3.9613-15.9212-3.1638-29.9741-.4318-43.5457 4.2957 11.809-1.7705 17.7368-.1069 24.283 1.1267-13.2874.3566-34.8264 1.8334-48.4831 9.4434 12.1916-5.0285 21.4051-3.8733 29.6478-2.65-26.3797 2.2999-53.8739 22.6265-68.4475 40.6873l1.5579 5.0342c11.478-9.2097 23.4719-27.9778 54.1284-40.5083-8.9655 5.7058-12.3651 10.3607-16.8569 16.7268 10.4116-7.9839 24.3569-22.0844 50.5644-24.0133-14.4302 4.3137-18.6622 10.0904-24.2106 15.4218 20.767-10.0618 41.0346-19.6899 65.6996-17.6033-14.338 1.2553-30.5075 8.5014-36.8384 12.9415 24.1644-7.4519 47.0173-11.5408 60.0507-5.9146-12.5504-.9289-20.7425 2.2083-30.9523 4.6962 14.0735-.806 33.4501-2.5266 47.5768 9.641-10.3769-4.0638-19.1653-4.1655-25.1566-3.9145 10.747 4.3735 23.5031 10.3083 33.3992 24.402-14.1591-11.1428-22.4678-15.3493-34.8118-18.8283 5.7881 2.8921 7.2283 7.3138 11.0228 12.1933-13.5365-9.0311-21.8808-13.2959-30.4772-15.3017 7.2198 3.7379 10.6756 7.9408 12.1238 12.344-11.5965-8.0457-17.9187-10.2079-30.604-9.7543 7.0298 1.5624 11.139 4.6031 11.8907 9.4747-12.5087-8.6475-24.0495-8.5971-32.9087-6.6107 7.4979 1.6409 11.2953 3.4451 14.7676 8.0728-14.7844-5.2553-20.3269-5.6729-33.012-4.6005 7.0138 1.2472 11.2837 2.4229 16.7101 7.2512-14.2717-5.8208-29.2936-6.8551-39.1775-2.5684 8.5361-.9798 13.0336-.9338 21.4891 2.9381-34.6632-1.1796-53.3403 10.5164-63.8875 21.6617l.4647 5.2241c14.8438-5.5922 38.5136-22.2984 75.3529-26.7663-5.9322 2.6417-19.2873 5.3553-24.6327 10.756 13.2953-4.6971 34.8679-12.7769 58.0577-5.0967-13.0006-.2879-22.0488.6634-29.604 4.5183 19.9571-.9344 44.0658-4.9385 64.3844 7.3164-14.9751-3.2991-25.6796-3.0599-35.0702-2.2597 24.339 3.261 44.1153 7.3458 53.8272 18.8914-10.7744-6.0199-17.0999-7.1667-29.4265-7.436 11.492 3.1137 38.0532 12.4335 43.5215 29.2062-5.9295-7.4849-18.135-14.2547-24.8336-15.6517 7.9392 7.9871 22.1396 20.5459 24.8336 38.1439-7.9921-15.9979-17.9124-26.1923-28.1541-32.8741 4.0293 4.8481 3.8267 8.778 5.1003 14.9923-8.3841-13.6446-14.9439-20.1743-21.9784-25.0451 6.3264 7.2419 5.6553 11.5459 6.1124 18.6441-7.0406-12.0045-11.2538-18.8347-22.4038-25.2561 5.0022 5.6478 5.1686 8.7096 5.3303 15.3864-7.2939-12.4151-15.4445-16.2278-26.3338-19.9552 5.77 5.06 8.1693 8.832 9.2598 14.6844-9.0421-10.9169-17.2368-13.0327-29.4665-16.1165 7.1412 2.8426 11.3644 6.0224 14.1717 12.7205-12.503-8.6501-23.912-12.137-35.9459-12.2927 8.0462 2.7974 12.8858 3.3906 20.6686 10.0853-34.5238-14.7223-57.7945-7.1202-71.5383.1106l.03 4.1417c2.4446-.1183 6.5595.9919 8.8678.6071 13.248-2.207 34.0616-11.8759 55.7586-6.0591-6.5428.4274-13.4924 1.1689-20.761 3.7195 11.5766.449 34.4162-3.8189 49.8417 7.6156-9.8557-2.7818-19.3602-2.5279-26.0643-1.8797 14.0357 2.5624 42.594 5.2177 52.5483 21.7637-10.0648-7.3699-19.1642-9.1711-29.1153-10.8574 13.5811 5.2848 38.1982 20.5316 41.8918 31.8833-8.8017-8.1707-16.4672-12.9364-24.1146-15.3109 8.1582 5.961 26.3916 18.8893 29.3221 34.9124-5.042-8.3643-13.2082-15.2952-17.8988-19.3753 6.8263 9.0178 10.7946 17.0303 9.4412 34.336-3.2952-16.895-5.724-22.0526-12.7366-30.5575 2.3111 5.4573.2965 9.8169.082 15.9954-4.0904-14.7391-7.5036-22.3781-12.2636-28.4871 2.7246 6.5012 3.0234 12.9289.4959 18.5514-3.3247-12.8956-4.8894-20.3401-12.6965-28.7873 2.9437 6.4219 2.4515 10.4916 1.2357 16.8772-3.4485-13.3402-9.0703-18.6957-17.2081-24.5248 3.6894 6.0231 4.6428 9.9245 4.3518 15.7204-5.1782-12.282-11.4296-16.01-20.7918-21.5084 4.1096 4.6444 5.3944 8.7901 6.3339 15.7509-6.4586-12.3122-11.5313-15.5519-25.4046-20.016 6.0046 4.3489 9.6068 7.9353 11.9503 15.6285-23.2365-19.5801-41.0434-21.0127-52.6874-17.7113.019.3016.2685 2.7877.2794 3.0887 6.5403-.7582 16.6807-2.2402 27.9583 2.1952-5.388-.922-9.2656-.898-14.0831.5176 6.8336.2769 24.8879 1.659 30.8103 12.5328-8.7737-4.9087-13.1663-4.6831-17.9653-4.6434 7.1768 3.5397 24.148 7.171 30.475 21.5951-7.2951-5.5925-14.3944-9.5696-18.8744-10.7184 9.949 7.141 21.8117 18.7138 23.9772 28.8113-4.8223-7.1716-10.7135-10.6084-15.2731-14.0054 4.1282 5.1348 14.752 15.2387 12.4342 24.5135-1.9099-3.8401-4.7133-7.6432-8.1169-11.1087 2.6898 7.8985 2.3911 13.6688.023 20.2903-1.5465-8.8465-2.0554-12.3783-4.2104-18.2785-.6084 4.0764-2.7678 6.4651-3.5854 11.1218-.6407-11.7138-.8847-17.8052-3.6091-24.7777l-4.2413 9.7022c-.4371-10.5688-.9571-14.3992-4.8807-19.8887.4191 4.3168-.8689 8.6299-2.5491 12.6213-1.53-9.9938-2.4372-16.5815-7.0874-21.9809.9269 4.4272.6191 9.4357-1.3623 13.1928-2.6368-8.237-5.0908-14.976-10.3981-19.9931.9484 2.6246 1.0307 5.7698.6195 9.5357-2.9703-5.4219-6.0267-10.5231-11.0793-13.6814z" fill="#008f4c"/><path d="m243.4347 228.0693c-45.4662-9.3421-89.5857 1.3411-113.5912 20.641" fill="none"/><path d="m250.2243 206.9676c-37.0425-16.2625-78.6722-22.6812-112.0575-15.7074" fill="none"/><path d="m255.812 187.3462c-32.2904-28.4884-65.3084-38.3724-89.9811-43.2856" fill="none"/><path d="m243.7358 248.7553c-36.8421 2.7929-69.2769 20.4107-84.6938 43.3799" fill="none"/><path d="m258.0513 267.0885c-15.5685 7.9995-26.9325 22.2102-31.0002 37.37" fill="none"/><path d="m275.0726 177.0062c-13.3853-28.4484-41.0504-56.4334-62.9148-64.3814" fill="none"/><path d="m336.5644 228.0693c45.466-9.3421 89.5855 1.3411 113.5912 20.641" fill="none"/><path d="m329.775 206.9676c37.0425-16.2625 78.6722-22.6812 112.0575-15.7074" fill="none"/><path d="m324.1873 187.3462c32.2904-28.4884 65.3084-38.3724 89.9811-43.2856" fill="none"/><path d="m336.2635 248.7553c36.8421 2.7929 69.2769 20.4107 84.6938 43.3799" fill="none"/><path d="m321.9478 267.0885c15.5683 7.9995 26.9325 22.2102 31.0002 37.37" fill="none"/><path d="m304.9267 177.0062c13.3852-28.4484 41.0508-56.4334 62.915-64.3814" fill="none"/><path d="m289.9996 113.8316v68.4608" fill="none"/><path d="m244.8996 536.5001h22.9931c2.9922 0 5.9788-2.518 8.9682-3.1419.5029.5499 1.6474 3.1419 3.5736 3.1419h18.8014c2.6329 0 3.6744-2.5515 5.4772-3.1419 2.2022.9815 6.5189 3.1419 10.4659 3.1419h19.9213c-13.0102-3.5618-25.9083-9.3127-25.9083-26.6716 0-6.7935-1.0051-18.4639-.822-26.8899.1824-8.4262-.4346-17.6508-.4617-26.8862-.025-8.5354-.6945-17.0662-.7284-25.6017-.042-10.6683.6932-21.328.6246-31.9948-.046-7.2919-.4952-14.5937-.694-21.8833-.4558-16.7085-.5875-33.4258-.5339-50.138.023-7.1144.399-14.2329.5897-21.3441l.6938-25.8542c.066-2.3047-.1961-5.8793-.68-7.5748h-33.9535c-.6801 1.9666-1.3432 5.2703-1.277 7.575l.6938 25.8542c.1899 7.1112.5669 14.2295.5898 21.3439.053 16.7123.1132 33.4295-.3418 50.1382-.1988 7.2896-.647 14.5912-.694 21.8833-.07 10.6668.6667 21.3263.6243 31.9948-.034 8.5355-.7032 17.0663-.7283 25.6017-.027 9.2354-.8368 18.46-.6362 27.6922.1631 7.5092-.648 18.1213-.648 26.0837 0 17.2191-11.2528 22.9191-25.9096 26.6716z" fill="#c87137"/><path d="m271.7635 471.3291c8.6858 4.918 14.6635 2.791 28.0931 9.3118" fill="none"/><path d="m271.4796 492.4406c9.8258 1.6967 24.2591-14.6063 36.7768-12.8098" fill="none"/><path d="m272.6332 442.0839c10.4643 5.5472 19.8092 11.996 31.4632 11.9395" fill="none"/><path d="m272.166 459.0517c11.7356-.1314 24.9542-.9079 35.4832-6.7227" fill="none"/><path d="m307.0632 434.3506c-11.0758-1.7803-21.7253 7.7262-30.825 9.6538" fill="none"/><path d="m272.6829 417.9391c7.7512-1.8613 22.9258-10.0467 34.7805-7.4694" fill="none"/><path d="m306.8226 371.4223c-7.747-5.9494-21.2677-8.4781-33.5229-8.4564" fill="none"/><path d="m273.4126 341.7542c7.5533 2.8781 24.53 3.8567 33.0635 6.9213" fill="none"/><path d="m272.933 379.186c7.1764-4.0752 23.7512-4.5084 34.0349-.7672" fill="none"/><path d="m307.4411 391.307c-16.1187-2.9555-22.3559 11.2722-29.9591 11.5254" fill="none"/><path d="m307.0349 429.1353c-11.5507-5.8188-22.6138-2.9282-34.1645-4.6713" fill="none"/><path d="m293.5652 411.0912c-7.1432-5.2352-14.1227-8.0849-21.2659-9.4949" fill="none"/><path d="m297.2602 391.7129c-8.9772-3.9397-18.4504-8.4011-24.5032-7.3822" fill="none"/><path d="m280.2359 363.1907c9.1538-3.5585 14.8998-6.7524 26.2666-8.2637" fill="none"/><path d="m271.0701 503.9216c13.0039-2.656 24.6975-2.943 37.701-2.7901" fill="none"/><path d="m306.3978 331.0435c-10.938-.486-24.9348-1.6559-32.9751 2.0492" fill="none"/><path d="m273.2256 317.6471c6.7969 6.7332 14.0905 8.2897 24.9431 12.9848" fill="none"/><path d="m307.0832 301.3087c-10.671-.7214-21.4286 1.4792-34.3564-2.7512" fill="none"/><path d="m272.1919 283.1063c14.9318 5.5052 26.3231 8.2577 35.2817 4.7453" fill="none"/><path d="m277.189 320.8126c15.0712-1.9499 22.9277-5.8873 29.6075-10.0991" fill="none"/><path d="m299.6289 314.6319c-10.1842 1.3745-18.8701-6.4525-26.845-12.1706" fill="none"/><path d="m299.6681 213.0737c.7252-6.1242-3.9571-13.7736-9.7187-13.7736-3.2352 0-6.3422 3.2639-5.877 6.399l8.5396 8.4465z" fill="#c87137"/><path d="m293.2807 212.2921c-.4379-8.603-15.3453-12.3845-13.4158 5.5707l7.7679 1.485z" fill="#c87137"/><path d="m302.8013 225.1875c3.1575-11.1038-4.8643-19.2149-17.4707-6.4815l7.7142 9.2094z" fill="#c87137"/><path d="m293.3242 225.945c-6.4391-10.8755-21.8918-15.4209-16.533 6.1139l12.7441-.572z" fill="#c87137"/><path d="m288.1995 230.1106c15.0134-13.6383 19.0605-3.2046 16.0674 7.4661l-8.3124-.046z" fill="#c87137"/><path d="m297.6644 235.9246c-11.6498-9.6734-27.7139-8.9802-22.5821 4.0887l16.5782 1.4311z" fill="#c87137"/><path d="m305.4908 246.7165c5.002-9.6706-4.7346-17.6945-17.9572-6.5996l7.1882 5.6z" fill="#c87137"/><path d="m295.5993 244.8733c-12.1209-13.7614-27.9585-6.8609-20.3156 6.283l9.5416.4755z" fill="#c87137"/><path d="m283.4483 250.7892c13.0952-11.666 30.3159-8.4625 21.4435 6.0285l-14.3931-.4762z" fill="#c87137"/><path d="m292.0205 254.4858c-7.2238-5.9718-24.5816-9.351-18.2101 8.6164l11.9117-1.0831z" fill="#c87137"/><path d="m284.9752 260.766c13.115-15.4094 28.0768-6.1855 21.8244 2.3992l-16.2846 3.0141z" fill="#c87137"/><path d="m291.4849 266.3708c-2.3751-4.3275-10.472-8.28-16.4624-5.7485-2.6918 1.1378-4.7633 7.3787-1.7957 11.0394 4.4739 1.3344 8.9491 2.944 13.4229 2.4983z" fill="#c87137"/><path d="m286.6497 274.16c.6758-8.9542 10.5287-16.9731 19.1377-11.5137 2.7636 1.752 2.1902 6.8455 1.3929 9.0154-6.5883 2.6161-13.6997 4.1281-20.5306 2.4983z" fill="#c87137"/></g></g><path d="m165.25 638.5h62.375c27.18 0 50.966 17.254 62.375 40 11.409-22.746 35.195-40 62.375-40h62.375c68.35 0 123.75-55.4 123.75-123.75v-374.25c0-20 7-37 20-50l20-20-69-69-20 20c-13 13-30 20-50 20h-299c-20 0-37-7-50-20l-20-20-69 69 20 20c13 13 20 30 20 50v374.25c0 68.35 55.4 123.75 123.75 123.75z" fill="none" stroke="#000" stroke-linecap="round" stroke-linejoin="round" stroke-width="3"/></svg>