<?xml version="1.0" encoding="utf-8"?><!DOCTYPE svg PUBLIC "-//W3C//DTD SVG 1.1//EN" "http://www.w3.org/Graphics/SVG/1.1/DTD/svg11.dtd"><svg viewBox="0 0 550 1000" xmlns="http://www.w3.org/2000/svg"><g stroke="#000" stroke-linecap="round" stroke-linejoin="round"><path d="m101.1929 353c0-7.0122 38.1058-21.2714 173.8071-21.2714 135.7012 0 173.8071 14.2592 173.8071 21.2714s-38.1058 21.2714-173.8071 21.2714-173.8071-14.2592-173.8071-21.2713z" fill="#ed1c24"/><g fill="none"><path d="m122.422 343.829v18.341" stroke-width="5.5"/><path d="m128.859 342.34v21.319" stroke-width="5.25"/><path d="m135.296 341.363v23.273" stroke-width="5"/><path d="m141.733 340.154v25.692" stroke-width="4.75"/><path d="m148.171 339.084v27.832" stroke-width="4.5"/><path d="m154.608 338.153v29.693" stroke-width="4.25"/><path d="m161.045 337.223v31.553" stroke-width="4"/><path d="m167.482 336.432v33.135" stroke-width="3.75"/><path d="m173.92 335.92v34.159" stroke-width="3.5"/><path d="m180.357 335.316v35.368" stroke-width="3.25"/><path d="m186.794 334.385v37.229" stroke-width="3"/><path d="m193.232 333.873v38.253" stroke-width="2.75"/><path d="m199.669 333.641v38.718" stroke-width="2.5"/><path d="m206.106 333.082v39.834" stroke-width="2.25"/><path d="m212.543 332.617v40.765" stroke-width="2"/><path d="m218.981 332.338v41.323" stroke-width="1.75"/><path d="m225.418 331.92v42.16" stroke-width="1.5"/><path d="m231.855 331.64v42.719" stroke-width="1.25"/><path d="m238.292 330.803v44.394"/><path d="m244.73 330.803v44.394" stroke-width=".75"/><path d="m251.167 330.803v44.394" stroke-width=".5"/><path d="m257.604 330.803v44.394" stroke-width=".25"/><path d="m109.547 348.248v9.502" stroke-width="6"/><path d="m115.984 345.876v14.248" stroke-width="5.75"/><path d="m427.579 343.829v18.341" stroke-width="5.5"/><path d="m421.142 342.34v21.319" stroke-width="5.25"/><path d="m414.704 341.363v23.273" stroke-width="5"/><path d="m408.267 340.154v25.692" stroke-width="4.75"/><path d="m401.83 339.084v27.832" stroke-width="4.5"/><path d="m395.393 338.153v29.693" stroke-width="4.25"/><path d="m388.955 337.223v31.553" stroke-width="4"/><path d="m382.518 336.432v33.135" stroke-width="3.75"/><path d="m376.081 335.92v34.159" stroke-width="3.5"/><path d="m369.643 335.316v35.368" stroke-width="3.25"/><path d="m363.206 334.385v37.229" stroke-width="3"/><path d="m356.769 333.873v38.253" stroke-width="2.75"/><path d="m350.332 333.641v38.718" stroke-width="2.5"/><path d="m343.894 333.082v39.834" stroke-width="2.25"/><path d="m337.457 332.617v40.765" stroke-width="2"/><path d="m331.02 332.338v41.323" stroke-width="1.75"/><path d="m324.583 331.92v42.16" stroke-width="1.5"/><path d="m318.145 331.64v42.719" stroke-width="1.25"/><path d="m311.708 330.803v44.394"/><path d="m305.271 330.803v44.394" stroke-width=".75"/><path d="m298.834 330.803v44.394" stroke-width=".5"/><path d="m292.396 330.803v44.394" stroke-width=".25"/><path d="m440.453 348.248v9.502" stroke-width="6"/><path d="m434.016 345.876v14.248" stroke-width="5.75"/></g><g><path d="m119.0771 314.4093-46.9074-30.9858-50.536-74.1847c16.7216-26.9465 57.8206-48.7937 105.2703-46.7123l-.001-.001c49.777 2.1838 74.619-24.025 148.097-24.025 73.4779 0 98.32 26.2088 148.0969 24.025l-.001.001c47.4497-2.0814 88.5487 19.7658 105.2703 46.7123l-50.536 74.1847-46.9073 30.9858-155.9229-11.745z" fill="#ed1c24"/><path d="m511.8256 210.012 14.8362-37.0388-19.4107-41.7457c34.5966 28.1238 37.7896 59.493 16.5004 95.3926z" fill="#eac102"/><path d="m320.176 101.7599c0 4.363 3.537 7.9 7.9 7.9s7.9-3.537 7.9-7.9c0-4.3631-3.537-7.9-7.9-7.9s-7.9 3.5369-7.9 7.9z" fill="#e5e5e5" fill-rule="evenodd"/><path d="m284.62 97.8108c32.416 9.9067 67.7551 21.0545 99.77 16.2838 63.6159-9.4797 101.981.1871 122.8611 17.1329 28.0226 22.7426 24.5544 58.5613 8.3899 78.4713l8.1105 16.9212-7.6257 2.4534-9.7328-19.8185c32.728-34.8265 17.7717-108.4102-120.838-87.7334-33.376 4.9787-70.105-6.3944-103.326-16.5473z" fill="#eac102"/><path d="m515.641 209.6989-9.248-.4439" fill="none"/><path d="m397.676 103.6853c0 4.363 3.537 7.9 7.9 7.9s7.9-3.537 7.9-7.9c0-4.3631-3.537-7.9-7.9-7.9s-7.9 3.5369-7.9 7.9z" fill="#e5e5e5" fill-rule="evenodd"/><path d="m378.426 105.9654c0 4.363 3.537 7.9 7.9 7.9s7.9-3.537 7.9-7.9c0-4.3631-3.537-7.9-7.9-7.9s-7.9 3.5369-7.9 7.9z" fill="#e5e5e5" fill-rule="evenodd"/><path d="m301.176 96.8957c0 4.363 3.537 7.9 7.9 7.9s7.9-3.537 7.9-7.9c0-4.3631-3.537-7.9-7.9-7.9s-7.9 3.5369-7.9 7.9z" fill="#e5e5e5" fill-rule="evenodd"/><path d="m522.6301 215.5151c0 4.3631 3.537 7.9 7.9 7.9s7.9-3.5369 7.9-7.9-3.537-7.9-7.9-7.9-7.9 3.5369-7.9 7.9z" fill="#e5e5e5" fill-rule="evenodd"/><path d="m530.1286 197.6768c0 4.3631 3.537 7.9 7.9 7.9s7.9-3.5369 7.9-7.9-3.537-7.9-7.9-7.9-7.9 3.5369-7.9 7.9z" fill="#e5e5e5" fill-rule="evenodd"/><path d="m533.7 179.0298c0 4.3631 3.537 7.9 7.9 7.9s7.9-3.5369 7.9-7.9-3.537-7.9-7.9-7.9-7.9 3.5369-7.9 7.9z" fill="#e5e5e5" fill-rule="evenodd"/><path d="m530.4256 160.2819c0 4.3631 3.537 7.9 7.9 7.9s7.9-3.5369 7.9-7.9-3.537-7.9-7.9-7.9-7.9 3.5369-7.9 7.9z" fill="#e5e5e5" fill-rule="evenodd"/><path d="m520.9255 143.5614c0 4.363 3.537 7.9 7.9 7.9s7.9-3.537 7.9-7.9c0-4.3631-3.537-7.9-7.9-7.9s-7.9 3.5369-7.9 7.9z" fill="#e5e5e5" fill-rule="evenodd"/><path d="m508.4255 128.6142c0 4.363 3.537 7.9 7.9 7.9s7.9-3.537 7.9-7.9c0-4.3631-3.537-7.9-7.9-7.9s-7.9 3.5369-7.9 7.9z" fill="#e5e5e5" fill-rule="evenodd"/><path d="m492.9255 117.4671c0 4.363 3.537 7.9 7.9 7.9s7.9-3.537 7.9-7.9c0-4.3631-3.537-7.9-7.9-7.9s-7.9 3.5369-7.9 7.9z" fill="#e5e5e5" fill-rule="evenodd"/><path d="m475.1755 109.3602c0 4.363 3.537 7.9 7.9 7.9s7.9-3.537 7.9-7.9c0-4.3631-3.537-7.9-7.9-7.9s-7.9 3.5369-7.9 7.9z" fill="#e5e5e5" fill-rule="evenodd"/><path d="m456.1757 104.8c0 4.363 3.537 7.9 7.9 7.9s7.9-3.537 7.9-7.9c0-4.3631-3.537-7.9-7.9-7.9s-7.9 3.5369-7.9 7.9z" fill="#e5e5e5" fill-rule="evenodd"/><path d="m436.676 102.7733c0 4.363 3.537 7.9 7.9 7.9s7.9-3.537 7.9-7.9c0-4.3631-3.537-7.9-7.9-7.9s-7.9 3.5369-7.9 7.9z" fill="#e5e5e5" fill-rule="evenodd"/><path d="m417.176 102.5199c0 4.363 3.537 7.9 7.9 7.9s7.9-3.537 7.9-7.9c0-4.3631-3.537-7.9-7.9-7.9s-7.9 3.5369-7.9 7.9z" fill="#e5e5e5" fill-rule="evenodd"/><path d="m358.926 107.3334c0 4.363 3.537 7.9 7.9 7.9s7.9-3.537 7.9-7.9c0-4.3631-3.537-7.9-7.9-7.9s-7.9 3.5369-7.9 7.9z" fill="#e5e5e5" fill-rule="evenodd"/><path d="m339.426 105.56c0 4.363 3.537 7.9 7.9 7.9s7.9-3.537 7.9-7.9c0-4.3631-3.537-7.9-7.9-7.9s-7.9 3.5369-7.9 7.9z" fill="#e5e5e5" fill-rule="evenodd"/><path d="m408.3868 202.8059-14.4112-18.7074 16.443-41.7405-8.3272-32.7136-42.073-25.2277c91.8894 13.3007 65.4057 75.463 65.7776 106.4466z" fill="#eac102"/><path d="m360.0182 84.4168c58.7299 8.3752 65.2021 63.3784 33.9573 99.6817l14.4112 18.7074-7.2401 1.1725-15.274-19.9907c37.5392-41.9535 16.695-85.7168-27.063-91.0026-31.409-3.7941-51.936 13.8578-83.81 10.6525v-8.5903c24.666 3.6836 57.2934-14.5844 85.0184-10.6305z" fill="#eac102"/><path d="m393.9755 184.0985-8.1028-.1109" fill="none"/><path d="m276.8498 87.5168c0 4.363 3.537 7.9 7.9 7.9s7.9-3.537 7.9-7.9c0-4.3631-3.537-7.9-7.9-7.9s-7.9 3.5369-7.9 7.9z" fill="#e5e5e5" fill-rule="evenodd"/><path d="m286.5063 86.7001c0 4.363 3.537 7.9 7.9 7.9s7.9-3.537 7.9-7.9c0-4.3631-3.537-7.9-7.9-7.9s-7.9 3.5369-7.9 7.9z" fill="#e5e5e5" fill-rule="evenodd"/><path d="m294.5698 84.9378c0 4.363 3.537 7.9 7.9 7.9s7.9-3.537 7.9-7.9c0-4.3631-3.537-7.9-7.9-7.9s-7.9 3.5369-7.9 7.9z" fill="#e5e5e5" fill-rule="evenodd"/><path d="m302.6618 82.6821c0 4.363 3.537 7.9 7.9 7.9s7.9-3.537 7.9-7.9c0-4.3631-3.537-7.9-7.9-7.9s-7.9 3.5369-7.9 7.9z" fill="#e5e5e5" fill-rule="evenodd"/><path d="m403.6597 185.5969c0 4.363 3.537 7.9 7.9 7.9s7.9-3.537 7.9-7.9c0-4.3631-3.537-7.9-7.9-7.9s-7.9 3.5369-7.9 7.9z" fill="#e5e5e5" fill-rule="evenodd"/><path d="m411.3848 167.3279c0 4.363 3.537 7.9 7.9 7.9s7.9-3.537 7.9-7.9c0-4.3631-3.537-7.9-7.9-7.9s-7.9 3.5369-7.9 7.9z" fill="#e5e5e5" fill-rule="evenodd"/><path d="m415.6028 148.1752c0 4.363 3.537 7.9 7.9 7.9s7.9-3.537 7.9-7.9c0-4.3631-3.537-7.9-7.9-7.9s-7.9 3.5369-7.9 7.9z" fill="#e5e5e5" fill-rule="evenodd"/><path d="m415.0268 129.1979c0 4.363 3.537 7.9 7.9 7.9s7.9-3.537 7.9-7.9c0-4.3631-3.537-7.9-7.9-7.9s-7.9 3.5369-7.9 7.9z" fill="#e5e5e5" fill-rule="evenodd"/><path d="m311.0863 80.7739c0 4.363 3.537 7.9 7.9 7.9s7.9-3.537 7.9-7.9c0-4.3631-3.537-7.9-7.9-7.9s-7.9 3.5369-7.9 7.9z" fill="#e5e5e5" fill-rule="evenodd"/><path d="m319.7868 78.8081c0 4.363 3.537 7.9 7.9 7.9s7.9-3.537 7.9-7.9c0-4.3631-3.537-7.9-7.9-7.9s-7.9 3.5369-7.9 7.9z" fill="#e5e5e5" fill-rule="evenodd"/><path d="m329.0188 77.2376c0 4.363 3.537 7.9 7.9 7.9s7.9-3.537 7.9-7.9c0-4.3631-3.537-7.9-7.9-7.9s-7.9 3.5369-7.9 7.9z" fill="#e5e5e5" fill-rule="evenodd"/><path d="m338.4842 76.1452c0 4.363 3.537 7.9 7.9 7.9s7.9-3.537 7.9-7.9c0-4.3631-3.537-7.9-7.9-7.9s-7.9 3.5369-7.9 7.9z" fill="#e5e5e5" fill-rule="evenodd"/><path d="m349.1798 76.1766c0 4.363 3.537 7.9 7.9 7.9s7.9-3.537 7.9-7.9c0-4.3631-3.537-7.9-7.9-7.9s-7.9 3.5369-7.9 7.9z" fill="#e5e5e5" fill-rule="evenodd"/><path d="m361.1148 78.0827c0 4.363 3.537 7.9 7.9 7.9s7.9-3.537 7.9-7.9c0-4.3631-3.537-7.9-7.9-7.9s-7.9 3.5369-7.9 7.9z" fill="#e5e5e5" fill-rule="evenodd"/><path d="m373.9278 81.7132c0 4.363 3.537 7.9 7.9 7.9s7.9-3.537 7.9-7.9c0-4.3631-3.537-7.9-7.9-7.9s-7.9 3.5369-7.9 7.9z" fill="#e5e5e5" fill-rule="evenodd"/><path d="m387.6538 87.8939c0 4.363 3.537 7.9 7.9 7.9s7.9-3.537 7.9-7.9c0-4.3631-3.537-7.9-7.9-7.9s-7.9 3.5369-7.9 7.9z" fill="#e5e5e5" fill-rule="evenodd"/><path d="m400.0347 98.3347c0 4.363 3.537 7.9 7.9 7.9s7.9-3.537 7.9-7.9c0-4.3631-3.537-7.9-7.9-7.9s-7.9 3.5369-7.9 7.9z" fill="#e5e5e5" fill-rule="evenodd"/><path d="m409.4453 112.4307c0 4.363 3.537 7.9 7.9 7.9s7.9-3.537 7.9-7.9c0-4.3631-3.537-7.9-7.9-7.9s-7.9 3.5369-7.9 7.9z" fill="#e5e5e5" fill-rule="evenodd"/><path d="m38.1744 210.012-14.8362-37.0388 19.4107-41.7457c-34.5966 28.1238-37.7896 59.493-16.5004 95.3926z" fill="#eac102"/><path d="m229.824 101.7599c0 4.363-3.537 7.9-7.9 7.9s-7.9-3.537-7.9-7.9c0-4.3631 3.537-7.9 7.9-7.9s7.9 3.5369 7.9 7.9z" fill="#e5e5e5" fill-rule="evenodd"/><path d="m265.38 97.8108c-32.416 9.9067-67.7551 21.0545-99.77 16.2838-63.6159-9.4797-101.981.1871-122.8611 17.1329-28.0226 22.7426-24.5544 58.5613-8.3899 78.4713l-8.1105 16.9212 7.6257 2.4534 9.7328-19.8185c-32.728-34.8265-17.7717-108.4102 120.838-87.7334 33.376 4.9787 70.105-6.3944 103.326-16.5473z" fill="#eac102"/><path d="m34.359 209.6989 9.248-.4439" fill="none"/><path d="m152.324 103.6853c0 4.363-3.537 7.9-7.9 7.9s-7.9-3.537-7.9-7.9c0-4.3631 3.537-7.9 7.9-7.9s7.9 3.5369 7.9 7.9z" fill="#e5e5e5" fill-rule="evenodd"/><path d="m171.574 105.9654c0 4.363-3.537 7.9-7.9 7.9s-7.9-3.537-7.9-7.9c0-4.3631 3.537-7.9 7.9-7.9s7.9 3.5369 7.9 7.9z" fill="#e5e5e5" fill-rule="evenodd"/><path d="m248.824 96.8957c0 4.363-3.537 7.9-7.9 7.9s-7.9-3.537-7.9-7.9c0-4.3631 3.537-7.9 7.9-7.9s7.9 3.5369 7.9 7.9z" fill="#e5e5e5" fill-rule="evenodd"/><path d="m27.3699 215.5151c0 4.3631-3.537 7.9-7.9 7.9s-7.9-3.5369-7.9-7.9 3.537-7.9 7.9-7.9 7.9 3.5369 7.9 7.9z" fill="#e5e5e5" fill-rule="evenodd"/><path d="m19.8714 197.6768c0 4.3631-3.537 7.9-7.9 7.9s-7.9-3.5369-7.9-7.9 3.537-7.9 7.9-7.9 7.9 3.5369 7.9 7.9z" fill="#e5e5e5" fill-rule="evenodd"/><path d="m16.3 179.0298c0 4.3631-3.537 7.9-7.9 7.9s-7.9-3.5369-7.9-7.9 3.537-7.9 7.9-7.9 7.9 3.5369 7.9 7.9z" fill="#e5e5e5" fill-rule="evenodd"/><path d="m19.5744 160.2819c0 4.3631-3.537 7.9-7.9 7.9s-7.9-3.5369-7.9-7.9 3.537-7.9 7.9-7.9 7.9 3.5369 7.9 7.9z" fill="#e5e5e5" fill-rule="evenodd"/><path d="m29.0745 143.5614c0 4.363-3.537 7.9-7.9 7.9s-7.9-3.537-7.9-7.9c0-4.3631 3.537-7.9 7.9-7.9s7.9 3.5369 7.9 7.9z" fill="#e5e5e5" fill-rule="evenodd"/><path d="m41.5745 128.6142c0 4.363-3.537 7.9-7.9 7.9s-7.9-3.537-7.9-7.9c0-4.3631 3.537-7.9 7.9-7.9s7.9 3.5369 7.9 7.9z" fill="#e5e5e5" fill-rule="evenodd"/><path d="m57.0745 117.4671c0 4.363-3.537 7.9-7.9 7.9s-7.9-3.537-7.9-7.9c0-4.3631 3.537-7.9 7.9-7.9s7.9 3.5369 7.9 7.9z" fill="#e5e5e5" fill-rule="evenodd"/><path d="m74.8245 109.3602c0 4.363-3.537 7.9-7.9 7.9s-7.9-3.537-7.9-7.9c0-4.3631 3.537-7.9 7.9-7.9s7.9 3.5369 7.9 7.9z" fill="#e5e5e5" fill-rule="evenodd"/><path d="m93.8243 104.8c0 4.363-3.537 7.9-7.9 7.9s-7.9-3.537-7.9-7.9c0-4.3631 3.537-7.9 7.9-7.9s7.9 3.5369 7.9 7.9z" fill="#e5e5e5" fill-rule="evenodd"/><path d="m113.324 102.7733c0 4.363-3.537 7.9-7.9 7.9s-7.9-3.537-7.9-7.9c0-4.3631 3.537-7.9 7.9-7.9s7.9 3.5369 7.9 7.9z" fill="#e5e5e5" fill-rule="evenodd"/><path d="m132.824 102.5199c0 4.363-3.537 7.9-7.9 7.9s-7.9-3.537-7.9-7.9c0-4.3631 3.537-7.9 7.9-7.9s7.9 3.5369 7.9 7.9z" fill="#e5e5e5" fill-rule="evenodd"/><path d="m191.074 107.3334c0 4.363-3.537 7.9-7.9 7.9s-7.9-3.537-7.9-7.9c0-4.3631 3.537-7.9 7.9-7.9s7.9 3.5369 7.9 7.9z" fill="#e5e5e5" fill-rule="evenodd"/><path d="m210.574 105.56c0 4.363-3.537 7.9-7.9 7.9s-7.9-3.537-7.9-7.9c0-4.3631 3.537-7.9 7.9-7.9s7.9 3.5369 7.9 7.9z" fill="#e5e5e5" fill-rule="evenodd"/><path d="m141.6133 202.8059 14.4112-18.7074-16.443-41.7405 8.3272-32.7136 42.073-25.2277c-91.8894 13.3007-65.4057 75.463-65.7776 106.4466z" fill="#eac102"/><path d="m189.9818 84.4168c-58.7299 8.3752-65.2021 63.3784-33.9573 99.6817l-14.4112 18.7074 7.2401 1.1725 15.274-19.9907c-37.5392-41.9535-16.695-85.7168 27.063-91.0026 31.409-3.7941 51.936 13.8578 83.81 10.6525v-8.5903c-24.666 3.6836-57.2934-14.5844-85.0184-10.6305z" fill="#eac102"/><path d="m156.0245 184.0985 8.1028-.1109" fill="none"/><path d="m273.1502 87.5168c0 4.363-3.537 7.9-7.9 7.9s-7.9-3.537-7.9-7.9c0-4.3631 3.537-7.9 7.9-7.9s7.9 3.5369 7.9 7.9z" fill="#e5e5e5" fill-rule="evenodd"/><path d="m263.4938 86.7001c0 4.363-3.537 7.9-7.9 7.9s-7.9-3.537-7.9-7.9c0-4.3631 3.537-7.9 7.9-7.9s7.9 3.5369 7.9 7.9z" fill="#e5e5e5" fill-rule="evenodd"/><path d="m255.4303 84.9378c0 4.363-3.537 7.9-7.9 7.9s-7.9-3.537-7.9-7.9c0-4.3631 3.537-7.9 7.9-7.9s7.9 3.5369 7.9 7.9z" fill="#e5e5e5" fill-rule="evenodd"/><path d="m247.3382 82.6821c0 4.363-3.537 7.9-7.9 7.9s-7.9-3.537-7.9-7.9c0-4.3631 3.537-7.9 7.9-7.9s7.9 3.5369 7.9 7.9z" fill="#e5e5e5" fill-rule="evenodd"/><path d="m146.3403 185.5969c0 4.363-3.537 7.9-7.9 7.9s-7.9-3.537-7.9-7.9c0-4.3631 3.537-7.9 7.9-7.9s7.9 3.5369 7.9 7.9z" fill="#e5e5e5" fill-rule="evenodd"/><path d="m138.6153 167.3279c0 4.363-3.537 7.9-7.9 7.9s-7.9-3.537-7.9-7.9c0-4.3631 3.537-7.9 7.9-7.9s7.9 3.5369 7.9 7.9z" fill="#e5e5e5" fill-rule="evenodd"/><path d="m134.3972 148.1752c0 4.363-3.537 7.9-7.9 7.9s-7.9-3.537-7.9-7.9c0-4.3631 3.537-7.9 7.9-7.9s7.9 3.5369 7.9 7.9z" fill="#e5e5e5" fill-rule="evenodd"/><path d="m134.9732 129.1979c0 4.363-3.537 7.9-7.9 7.9s-7.9-3.537-7.9-7.9c0-4.3631 3.537-7.9 7.9-7.9s7.9 3.5369 7.9 7.9z" fill="#e5e5e5" fill-rule="evenodd"/><path d="m238.9137 80.7739c0 4.363-3.537 7.9-7.9 7.9s-7.9-3.537-7.9-7.9c0-4.3631 3.537-7.9 7.9-7.9s7.9 3.5369 7.9 7.9z" fill="#e5e5e5" fill-rule="evenodd"/><path d="m230.2132 78.8081c0 4.363-3.537 7.9-7.9 7.9s-7.9-3.537-7.9-7.9c0-4.3631 3.537-7.9 7.9-7.9s7.9 3.5369 7.9 7.9z" fill="#e5e5e5" fill-rule="evenodd"/><path d="m220.9812 77.2376c0 4.363-3.537 7.9-7.9 7.9s-7.9-3.537-7.9-7.9c0-4.3631 3.537-7.9 7.9-7.9s7.9 3.5369 7.9 7.9z" fill="#e5e5e5" fill-rule="evenodd"/><path d="m211.5158 76.1452c0 4.363-3.537 7.9-7.9 7.9s-7.9-3.537-7.9-7.9c0-4.3631 3.537-7.9 7.9-7.9s7.9 3.5369 7.9 7.9z" fill="#e5e5e5" fill-rule="evenodd"/><path d="m200.8202 76.1766c0 4.363-3.537 7.9-7.9 7.9s-7.9-3.537-7.9-7.9c0-4.3631 3.537-7.9 7.9-7.9s7.9 3.5369 7.9 7.9z" fill="#e5e5e5" fill-rule="evenodd"/><path d="m188.8852 78.0827c0 4.363-3.537 7.9-7.9 7.9s-7.9-3.537-7.9-7.9c0-4.3631 3.537-7.9 7.9-7.9s7.9 3.5369 7.9 7.9z" fill="#e5e5e5" fill-rule="evenodd"/><path d="m176.0723 81.7132c0 4.363-3.537 7.9-7.9 7.9s-7.9-3.537-7.9-7.9c0-4.3631 3.537-7.9 7.9-7.9s7.9 3.5369 7.9 7.9z" fill="#e5e5e5" fill-rule="evenodd"/><path d="m162.3463 87.8939c0 4.363-3.537 7.9-7.9 7.9s-7.9-3.537-7.9-7.9c0-4.3631 3.537-7.9 7.9-7.9s7.9 3.5369 7.9 7.9z" fill="#e5e5e5" fill-rule="evenodd"/><path d="m149.9653 98.3347c0 4.363-3.537 7.9-7.9 7.9s-7.9-3.537-7.9-7.9c0-4.3631 3.537-7.9 7.9-7.9s7.9 3.5369 7.9 7.9z" fill="#e5e5e5" fill-rule="evenodd"/><path d="m140.5547 112.4307c0 4.363-3.537 7.9-7.9 7.9s-7.9-3.537-7.9-7.9c0-4.3631 3.537-7.9 7.9-7.9s7.9 3.5369 7.9 7.9z" fill="#e5e5e5" fill-rule="evenodd"/><path d="m271.0505 46.5759v-26.8902h-12.191v-7.9764h12.191v-11.2093h7.8991v11.2093h12.191v7.9764h-12.191v26.8902z" fill="#eac102"/><path d="m296.75 58.6988c0 12.0122-9.7378 21.75-21.75 21.75s-21.75-9.7378-21.75-21.75c0-12.0123 9.7378-21.75 21.75-21.75s21.75 9.7378 21.75 21.75z" fill="#0071bc" fill-rule="evenodd"/><path d="m288.3606 90.93c6.0445 22.5757 2.666 64.7046 11.893 89.4744l-25.2536 26.3162-25.2536-26.3162c9.227-24.7698 5.8485-66.8987 11.893-89.4744 2.4425-9.1228 8.6686-13.4459 13.3606-13.4459s10.9181 4.3231 13.3606 13.4459z" fill="#eac102"/><path d="m294.5329 178.9472c-8.811-28.1332-4.5017-58.3255-10.2998-85.5344-1.0169-4.772-4.6871-10.8304-9.2331-10.8304s-8.2162 6.0584-9.2331 10.8304c-5.7981 27.209-1.4888 57.4013-10.2998 85.5344l19.5329 20.8065z" fill="none"/><path d="m249.7464 180.4044 5.7208-1.4572" fill="none"/><path d="m300.2536 180.4044-5.7208-1.4572" fill="none"/><path d="m282.9 73.1932c0 4.363-3.537 7.9-7.9 7.9s-7.9-3.537-7.9-7.9c0-4.3631 3.537-7.9 7.9-7.9s7.9 3.5369 7.9 7.9z" fill="#e5e5e5" fill-rule="evenodd"/><path d="m282.9 75.7489c0 4.363-3.537 7.9-7.9 7.9s-7.9-3.537-7.9-7.9c0-4.3631 3.537-7.9 7.9-7.9s7.9 3.5369 7.9 7.9z" fill="#e5e5e5" fill-rule="evenodd"/><path d="m282.9 79.5463c0 4.363-3.537 7.9-7.9 7.9s-7.9-3.537-7.9-7.9c0-4.3631 3.537-7.9 7.9-7.9s7.9 3.5369 7.9 7.9z" fill="#e5e5e5" fill-rule="evenodd"/><path d="m282.9 86.3931c0 4.363-3.537 7.9-7.9 7.9s-7.9-3.537-7.9-7.9c0-4.3631 3.537-7.9 7.9-7.9s7.9 3.5369 7.9 7.9z" fill="#e5e5e5" fill-rule="evenodd"/><path d="m282.9 179.5613c0 4.3631-3.537 7.9-7.9 7.9s-7.9-3.5369-7.9-7.9 3.537-7.9 7.9-7.9 7.9 3.5369 7.9 7.9z" fill="#e5e5e5" fill-rule="evenodd"/><path d="m282.9 162.0736c0 4.3631-3.537 7.9-7.9 7.9s-7.9-3.5369-7.9-7.9 3.537-7.9 7.9-7.9 7.9 3.5369 7.9 7.9z" fill="#e5e5e5" fill-rule="evenodd"/><path d="m282.9 143.6627c0 4.363-3.537 7.9-7.9 7.9s-7.9-3.537-7.9-7.9c0-4.3631 3.537-7.9 7.9-7.9s7.9 3.5369 7.9 7.9z" fill="#e5e5e5" fill-rule="evenodd"/><path d="m282.9 95.1193c0 4.363-3.537 7.9-7.9 7.9s-7.9-3.537-7.9-7.9c0-4.3631 3.537-7.9 7.9-7.9s7.9 3.5369 7.9 7.9z" fill="#e5e5e5" fill-rule="evenodd"/><path d="m282.9 107.5584c0 4.363-3.537 7.9-7.9 7.9s-7.9-3.537-7.9-7.9c0-4.3631 3.537-7.9 7.9-7.9s7.9 3.5369 7.9 7.9z" fill="#e5e5e5" fill-rule="evenodd"/><path d="m282.9 124.9336c0 4.363-3.537 7.9-7.9 7.9s-7.9-3.537-7.9-7.9c0-4.3631 3.537-7.9 7.9-7.9s7.9 3.5369 7.9 7.9z" fill="#e5e5e5" fill-rule="evenodd"/><path d="m240.6322 212.8437c12.0687 5.0404 17.0921 2.3487 22.1737 7.1857l5.9561 5.6694v12.5745l-5.9561 5.6704c-5.0807 4.837-10.1051 2.1442-22.1737 7.1856-.4947-3.8079-.279-6.9575 2.3269-9.7609-7.8194-.4714-14.0504-4.5216-19.1324-9.3824 5.0821-4.8598 11.3132-8.911 19.1324-9.3825-2.6058-2.8035-2.8215-5.9522-2.3269-9.76z" fill="#eac102"/><path d="m265.8552 231.9859h-34.8042" fill="none"/><path d="m267.3653 235.9967c-10.2044 6.3639-14.4016 4.4882-21.9439 9.7922" fill="none"/><path d="m267.3653 227.9752c-10.2044-6.3639-14.4016-4.4883-21.9439-9.7922" fill="none"/><path d="m281.2492 225.7099 5.636-5.9925c4.8076-5.1117 2.1312-10.1657 7.1421-22.3081-3.7847-.4977-6.9153-.2807-9.7017 2.341-.4686-7.8671-4.4944-14.1362-9.3256-19.2503-4.8312 5.1141-8.857 11.3832-9.3256 19.2503-2.7864-2.6217-5.9169-2.8387-9.7017-2.341 5.0109 12.1424 2.3345 17.1964 7.1421 22.3081l5.636 5.9925z" fill="#eac102"/><path d="m275 222.7863v-35.0168" fill="none"/><path d="m271.0135 224.3046c-6.3263-10.2667-4.4611-14.4895-9.7328-22.0769" fill="none"/><path d="m100.0938 302.7813c-8.0052-3.422-21.7351-20.1327-28.1498-28.8125l-8 6c10.3764 13.7807 18.7019 22.4544 25.0248 27.5313 3.1615 2.5384 5.9207 4.2391 8.8125 5.0938z" fill="#eac102"/><path d="m449.9063 302.7813c8.0052-3.422 21.735-20.1327 28.1497-28.8125l8 6c-10.3764 13.7807-18.7018 22.4544-25.0247 27.5313-3.1615 2.5384-5.9207 4.2391-8.8125 5.0938z" fill="#eac102"/><path d="m156.7809 276.4252c16.5868 19.1241 46.8885 16.5073 56-5.1827 17.3933 22.7946 49.8176 19.2712 62.2188-1.0875 12.4011 20.3586 44.8255 23.8821 62.219 1.0875 9.1116 21.6899 39.4134 24.3067 56.0002 5.1826 6.5468 20.5193 29.4543 22.3677 46.4063 10.0019 1.2867 21.8645 26.5663 20.4608 46.0313-5.8937l11.25-15.2319c1.5707-2.1266 1.0875-5.5064-1.0153-7.095s-5.4481-1.1012-7.016 1.0275l-11.2188 15.2319c-15.5164 21.0668-40.551 27.499-21.2188-6.6995 1.3022-2.3035.5314-5.5875-1.7186-6.9526-2.25-1.3652-5.5457-.5491-6.8752 1.7384-16.7022 28.737-52.3584 30.6613-45.3438-5.5303 0 0 2.0417-10.5338 3.0625-15.8007.4934-2.5457-1.4648-5.2753-3.983-5.77s-5.3352 1.2968-5.8296 3.8423l-3.0625 15.7692c-6.5936 33.951-52.3233 31.9995-48.1875-2.4966.3013-2.513-1.9136-4.9736-4.399-5.2749s-5.2597 1.5551-5.5072 4.074c-3.4093 34.7024-54.5938 33.6565-54.5938.2213v-16.654c0-2.6584-2.3504-5.1511-5-5.1511s-5 2.4927-5 5.1511v16.654c0 33.4354-51.1844 34.4812-54.5938-.2213-.2475-2.5189-3.0219-4.3753-5.5072-4.074-2.4854.3013-4.7003 2.7619-4.399 5.2749 4.1358 34.496-41.5939 36.4475-48.1875 2.4966l-3.0625-15.7692c-.4944-2.5455-3.3114-4.337-5.8296-3.8423s-4.4764 3.2244-3.983 5.77c1.0209 5.2669 3.0625 15.8007 3.0625 15.8007 7.0147 36.1916-28.6416 34.2673-45.3438 5.5303-1.3295-2.2875-4.6253-3.1036-6.8752-1.7384-2.25 1.3652-3.0207 4.6491-1.7185 6.9526 19.3323 34.1985-5.7024 27.7663-21.2188 6.6995l-11.2188-15.2319c-1.5678-2.1287-4.9132-2.6161-7.016-1.0275-2.1027 1.5885-2.5859 4.9685-1.0153 7.095 3.75 5.0773 11.25 15.2319 11.25 15.2319 19.4649 26.3545 44.7446 27.7583 46.0313 5.8937 16.952 12.3658 39.8595 10.5176 46.4063-10.0019z" fill="#eac102"/><path d="m275.0001 332.2117c-139.8158 0-182.5692-15.8896-182.5692-18.2644s42.7534-18.2645 182.5692-18.2645 182.5693 15.8897 182.5693 18.2645c0 2.3747-42.7535 18.2644-182.5693 18.2644zm-137.8858 3.1594c-32.5558-4.273-56.6142-10.9941-56.6142-21.4237 0-24.2391 129.9445-28.4474 194.5-28.4474s194.5 4.2083 194.5 28.4474c0 10.4296-24.0585 17.1507-56.6143 21.4237z" fill="#eac102" fill-rule="evenodd"/><path d="m171.4966 335.3715-69.0588 14.6048c-2.583-12.3267-5.022-23.5271-10.9304-35.0537-3.1408-6.1274 59.7743-20.0364 183.4926-20.0364 123.7184 0 186.6334 13.9091 183.4926 20.0364-5.9084 11.5267-8.3474 22.7269-10.9304 35.0537l-69.0588-14.6048z" fill="#eac102"/><path d="m90.9821 331.6525 3.9988-8.9213 13.0006 2.2327-8.6657 11.4659z" fill="#ed1c24"/><path d="m90.9821 331.6525 16.9994-6.6887" fill="none"/><path d="m152.7763 310.281 35.8427-3.3618c3.5853-.3363 6.7423 2.2793 7.0786 5.8646s-2.2793 6.7423-5.8646 7.0786l-35.8427 3.3618c-3.5853.3363-6.7423-2.2793-7.0786-5.8646s2.2793-6.7423 5.8646-7.0786z" fill="#008f4c" fill-rule="evenodd"/><path d="m133.8496 320.5115c0 4.363-3.537 7.9-7.9 7.9s-7.9-3.537-7.9-7.9c0-4.3631 3.537-7.9 7.9-7.9s7.9 3.5369 7.9 7.9z" fill="#e5e5e5" fill-rule="evenodd"/><path d="m228.4747 311.9843c0 4.363-3.537 7.9-7.9 7.9s-7.9-3.537-7.9-7.9c0-4.3631 3.537-7.9 7.9-7.9s7.9 3.5369 7.9 7.9z" fill="#e5e5e5" fill-rule="evenodd"/><path d="m443.4893 353c0 2.2122-39.4563 17.0141-168.4893 17.0141s-168.4893-14.8019-168.4893-17.0141c0-2.2123 39.4563-17.0142 168.4893-17.0142s168.4893 14.8018 168.4893 17.0142zm11.0107 0c0 22.5798-119.923 26.5-179.5 26.5s-179.5-3.9202-179.5-26.5 119.923-26.5 179.5-26.5 179.5 3.9203 179.5 26.5z" fill="#eac102" fill-rule="evenodd"/><path d="m181.1138 244.3475c3.0001 2.5329 3.849 5.6411 4.1701 9.4732-10.8666-3.6675-16.1972-.5282-22.1095-4.985l-6.7066-5.0556-2.5897-12.524 4.3828-6.1852c3.722-5.2528 11.1566-3.9421 19.1506-9.3239 1.2432 3.7362 1.6887 6.8869-.1595 9.9255 7.3728-.2918 14.0092 3.1557 19.7375 7.4916-3.7307 5.3241-8.6974 9.9548-15.8755 11.1834z" fill="#eac102"/><path d="m121.4839 250.5771c-1.8482 3.0386-1.4027 6.1893-.1585 9.9244 9.9214-5.9602 15.4605-4.0498 19.1555-9.2955l4.3767-6.2136-2.5897-12.5239-6.7006-5.0274c-5.7701-4.3292-11.6041-1.4315-22.1155-5.0122.3221 3.8311 1.1699 6.9404 4.1711 9.4722-7.1792 1.2286-12.1399 5.8875-15.8705 11.2116 5.7284 4.3359 12.3587 7.755 19.7315 7.4643z" fill="#eac102"/><path d="m140.9023 239.2272c-15.1089-.1817-19.3803 1.7677-32.6861 3.2355" fill="none"/><path d="m140.4337 234.3179c-9.5934-6.0026-16.3391-3.4828-22.4567-7.7702" fill="none"/><path d="m142.2127 244.4161c-6.5421 6.4094-11.5489 4.1592-17.225 9.5822" fill="none"/><path d="m134.9994 207.9414c-3.1325-2.333-7.0387-3.1698-10.4602-2.3077 6.7829 10.4423 5.3053 16.519 11.2309 21.4622l6.4778 5.4039 11.6623-1.2185 3.9894-6.4972c3.3736-5.4942-.0903-11.6639 2.0941-22.8533-3.6263-.1272-6.4959.3927-8.5518 3.2678-2.0519-7.7682-7.7902-14.2613-14.3895-17.7805-1.9616 6.7355-4.9647 12.8249-2.0529 20.5234z" fill="#eac102"/><path d="m151.6465 228.9383c3.0603-7.2776.3392-14.3017 4.2524-22.4535" fill="none"/><path d="m143.6355 230.4393c-7.7692-7.8954-7.3217-15.0861-13.062-20.9019" fill="none"/><path d="m147.4785 228.9867c-4.9266-13.1903-3.7406-23.2591-8.2709-34.8472" fill="none"/><path d="m155.1975 232.9925c6.507-7.2059 12.167-5.2071 18.702-11.1874" fill="none"/><path d="m156.7958 241.5319c9.3414 3.7311 12.4249 1.4638 22.4216 7.3886" fill="none"/><path d="m157.9206 237.4494c14.1337-3.8877 19.9613-1.2185 32.8597-3.5717" fill="none"/><path d="m159.1427 238.1086c0 5.5781-4.5219 10.1-10.1 10.1s-10.1-4.5219-10.1-10.1 4.5219-10.1 10.1-10.1 10.1 4.5219 10.1 10.1z" fill="#ed1c24" fill-rule="evenodd"/><path d="m44.2421 251.7354c-6.9071-9.8558-12.6261-16.1839-33.7421-18.0121 7.2242-10.9269 22.2693-14.0897 32.055-4.1188.9257-2.7287 1.4965-3.6181 4.084-6.1389 2.3071 7.1161 12.5812 12.4927 8.5051 25.2347l-4.0056 12.5219z" fill="#eac102"/><path d="m75.2127 262.2136c2.4529 1.9554 3.5641 4.8396 4.4484 8.5182 0 0-10.5557-.8543-15.1514.2019-5.2482 1.2062-9.2341-1.0487-10.0958-1.8998l-4.9847-9.8469c3.8096-6.8364 4.5595-10.5908 7.4141-14.3119 2.8499-3.715 7.5109-6.9787 10.8958-9.8962 1.4854 3.4273 2.3343 6.4215 1.6259 9.6984 4.8897-1.5425 9.9387.6844 14.5341 3.931-1.5709 5.8239-4.09 11.1833-8.6864 13.6052z" fill="#eac102"/><path d="m48.319 257.3831c-.6153-5.2111 1.1682-9.9124.8501-14.0958-.5819-7.6541-3.075-10.1759-2.7454-14.1846" fill="none"/><path d="m52.0298 263.6723c8.2134-6.6819 15.7327-7.9014 25.62-13.5456" fill="none"/><path d="m50.6091 259.9715c3.5924-6.0782 10.9851-9.4662 14.9751-18.9212" fill="none"/><path d="m53.1785 267.1097c7.0653.9722 11.3499-3.1477 19.8024-.0606" fill="none"/><path d="m54.4139 269.034c-1.3223.6355-2.7727 1.0058-4.3378 1.0058-5.5781 0-10.1-4.5219-10.1-10.1 0-3.4008 1.6898-6.3742 4.266-8.2044 5.0748 3.2253 9.3857 11.0399 10.1718 17.2986z" fill="#ed1c24" fill-rule="evenodd"/><path d="m368.8862 244.3475c-3.0001 2.5329-3.849 5.6411-4.1701 9.4732 10.8666-3.6675 16.1972-.5282 22.1095-4.985l6.7066-5.0556 2.5897-12.524-4.3828-6.1852c-3.722-5.2528-11.1566-3.9421-19.1506-9.3239-1.2432 3.7362-1.6887 6.8869.1595 9.9255-7.3728-.2918-14.0092 3.1557-19.7375 7.4916 3.7307 5.3241 8.6974 9.9548 15.8755 11.1834z" fill="#eac102"/><path d="m428.5161 250.5771c1.8482 3.0386 1.4027 6.1893.1585 9.9244-9.9214-5.9602-15.4605-4.0498-19.1555-9.2955l-4.3767-6.2136 2.5897-12.5239 6.7006-5.0274c5.7701-4.3292 11.6041-1.4315 22.1155-5.0122-.3221 3.8311-1.1699 6.9404-4.1711 9.4722 7.1792 1.2286 12.1399 5.8875 15.8705 11.2116-5.7284 4.3359-12.3587 7.755-19.7315 7.4643z" fill="#eac102"/><path d="m409.0977 239.2272c15.1089-.1817 19.3803 1.7677 32.6861 3.2355" fill="none"/><path d="m409.5663 234.3179c9.5934-6.0026 16.3391-3.4828 22.4567-7.7702" fill="none"/><path d="m407.7873 244.4161c6.5421 6.4094 11.5489 4.1592 17.225 9.5822" fill="none"/><path d="m415.0006 207.9414c3.1325-2.333 7.0387-3.1698 10.4602-2.3077-6.7829 10.4423-5.3053 16.519-11.2309 21.4622l-6.4778 5.4039-11.6623-1.2185-3.9894-6.4972c-3.3736-5.4942.0903-11.6639-2.0941-22.8533 3.6263-.1272 6.4959.3927 8.5518 3.2678 2.0519-7.7682 7.7902-14.2613 14.3895-17.7805 1.9616 6.7355 4.9647 12.8249 2.0529 20.5234z" fill="#eac102"/><path d="m398.3535 228.9383c-3.0603-7.2776-.3392-14.3017-4.2524-22.4535" fill="none"/><path d="m406.3645 230.4393c7.7692-7.8954 7.3217-15.0861 13.062-20.9019" fill="none"/><path d="m402.5215 228.9867c4.9266-13.1903 3.7406-23.2591 8.2709-34.8472" fill="none"/><path d="m394.8025 232.9925c-6.507-7.2059-12.167-5.2071-18.702-11.1874" fill="none"/><path d="m393.2042 241.5319c-9.3414 3.7311-12.4249 1.4638-22.4216 7.3886" fill="none"/><path d="m392.0794 237.4494c-14.1337-3.8877-19.9613-1.2185-32.8597-3.5717" fill="none"/><path d="m390.8573 238.1086c0 5.5781 4.5219 10.1 10.1 10.1s10.1-4.5219 10.1-10.1-4.5219-10.1-10.1-10.1-10.1 4.5219-10.1 10.1z" fill="#ed1c24" fill-rule="evenodd"/><path d="m505.7579 251.7354c6.9071-9.8558 12.6261-16.1839 33.7421-18.0121-7.2242-10.9269-22.2693-14.0897-32.055-4.1188-.9257-2.7287-1.4965-3.6181-4.084-6.1389-2.3071 7.1161-12.5812 12.4927-8.5051 25.2347l4.0056 12.5219z" fill="#eac102"/><path d="m474.7873 262.2136c-2.4529 1.9554-3.5641 4.8396-4.4484 8.5182 0 0 10.5557-.8543 15.1514.2019 5.2482 1.2062 9.2341-1.0487 10.0958-1.8998l4.9847-9.8469c-3.8096-6.8364-4.5595-10.5908-7.4141-14.3119-2.8499-3.715-7.5109-6.9787-10.8958-9.8962-1.4854 3.4273-2.3343 6.4215-1.6259 9.6984-4.8897-1.5425-9.9388.6844-14.5341 3.931 1.5709 5.8239 4.09 11.1833 8.6864 13.6052z" fill="#eac102"/><path d="m501.681 257.3831c.6153-5.2111-1.1682-9.9124-.8501-14.0958.5819-7.6541 3.075-10.1759 2.7454-14.1846" fill="none"/><path d="m497.9702 263.6723c-8.2134-6.6819-15.7327-7.9014-25.62-13.5456" fill="none"/><path d="m499.3909 259.9715c-3.5924-6.0782-10.9851-9.4662-14.9751-18.9212" fill="none"/><path d="m496.8215 267.1097c-7.0653.9722-11.3499-3.1477-19.8024-.0606" fill="none"/><path d="m495.5861 269.034c1.3223.6355 2.7727 1.0058 4.3378 1.0058 5.5781 0 10.1-4.5219 10.1-10.1 0-3.4008-1.6898-6.3742-4.266-8.2044-5.0748 3.2253-9.3857 11.0399-10.1718 17.2986z" fill="#ed1c24" fill-rule="evenodd"/><path d="m309.3678 212.8437c-12.0687 5.0404-17.0921 2.3487-22.1737 7.1857l-5.9561 5.6694v12.5745l5.9561 5.6704c5.0807 4.837 10.1051 2.1442 22.1737 7.1856.4947-3.8079.279-6.9575-2.3269-9.7609 7.8194-.4714 14.0504-4.5216 19.1324-9.3824-5.0821-4.8598-11.3132-8.911-19.1324-9.3825 2.6058-2.8035 2.8215-5.9522 2.3269-9.76z" fill="#eac102"/><path d="m284.1448 231.9859h34.8042" fill="none"/><path d="m282.6347 235.9967c10.2044 6.3639 14.4016 4.4882 21.9439 9.7922" fill="none"/><path d="m282.6347 227.9752c10.2044-6.3639 14.4016-4.4883 21.9439-9.7922" fill="none"/><path d="m278.9865 224.3046c6.3263-10.2667 4.4611-14.4895 9.7328-22.0769" fill="none"/><path d="m285.1 231.9859c0 5.5781-4.5219 10.1-10.1 10.1s-10.1-4.5219-10.1-10.1 4.5219-10.1 10.1-10.1 10.1 4.5219 10.1 10.1z" fill="#ed1c24" fill-rule="evenodd"/><path d="m218.046 249.192c0 4.363-3.537 7.9-7.9 7.9s-7.9-3.537-7.9-7.9c0-4.3631 3.537-7.9 7.9-7.9 4.3631 0 7.9 3.5369 7.9 7.9z" fill="#e5e5e5" fill-rule="evenodd"/><path d="m104.7531 262.3266c0 4.363-3.537 7.9-7.9 7.9s-7.9-3.537-7.9-7.9c0-4.3631 3.537-7.9 7.9-7.9s7.9 3.5369 7.9 7.9z" fill="#e5e5e5" fill-rule="evenodd"/><path d="m331.954 249.192c0 4.363 3.537 7.9 7.9 7.9s7.9-3.537 7.9-7.9c0-4.3631-3.537-7.9-7.9-7.9-4.3631 0-7.9 3.5369-7.9 7.9z" fill="#e5e5e5" fill-rule="evenodd"/><path d="m445.2469 262.3266c0 4.363 3.537 7.9 7.9 7.9s7.9-3.537 7.9-7.9c0-4.3631-3.537-7.9-7.9-7.9s-7.9 3.5369-7.9 7.9z" fill="#e5e5e5" fill-rule="evenodd"/><path d="m296.89 63.0594c.853-2.1495.321-8.4285 0-8.7305 0-1.4306-7.563-2.6022-17.598-2.8715v-15.0824c-1.436-.2456-2.863-.3771-4.2921-.3771s-2.8561.1314-4.2921.3771v15.0824c-10.035.2693-17.598 1.4409-17.598 2.8715-.321.302-.853 6.581 0 8.7305 0-1.629 9.796-2.9585 21.8901-2.9585s21.8901 1.3295 21.8901 2.9585z" fill="#eac102"/><path d="m459.0179 331.6525-3.9988-8.9213-13.0006 2.2327 8.6657 11.4659z" fill="#ed1c24"/><path d="m459.0179 331.6525-16.9994-6.6887" fill="none"/><path d="m397.2237 310.281-35.8427-3.3618c-3.5853-.3363-6.7423 2.2793-7.0786 5.8646s2.2793 6.7423 5.8646 7.0786l35.8427 3.3618c3.5853.3363 6.7423-2.2793 7.0786-5.8646s-2.2793-6.7423-5.8646-7.0786z" fill="#008f4c" fill-rule="evenodd"/><path d="m416.1505 320.5115c0 4.363 3.537 7.9 7.9 7.9s7.9-3.537 7.9-7.9c0-4.3631-3.537-7.9-7.9-7.9s-7.9 3.5369-7.9 7.9z" fill="#e5e5e5" fill-rule="evenodd"/><path d="m321.5253 311.9843c0 4.363 3.537 7.9 7.9 7.9s7.9-3.537 7.9-7.9c0-4.3631-3.537-7.9-7.9-7.9s-7.9 3.5369-7.9 7.9z" fill="#e5e5e5" fill-rule="evenodd"/><path d="m255.5889 304.2484-10.0858 6.7241 10.0858 6.7232h38.8224l10.0858-6.7232-10.0858-6.7241z" fill="#ed1c24"/><path d="m255.5889 304.2484 9.3228 6.018-9.3228 7.4293" fill="none"/><path d="m245.503 310.9725 19.4086-.7061h20.1771l19.4085.7061" fill="none"/><path d="m294.4113 304.2484-9.3227 6.018 9.3227 7.4293" fill="none"/></g></g><g stroke="#000" stroke-linecap="round" stroke-linejoin="round"><path d="m25.5 360.5v474.25c0 68.898 55.852 124.75 124.75 124.75h62.375c27.289 0 50.92 17.163 62.375 40 11.455-22.837 35.086-40 62.375-40h62.375c68.898 0 124.75-55.852 124.75-124.75v-474.25z" fill="#eac102"/><path d="m25.5 360.5v299.5h499v-299.5z" fill="#e5e5e5"/><path d="m25.5 360.5v474.25c0 68.898 55.852 124.75 124.75 124.75h62.375c27.289 0 50.92 17.163 62.375 40 11.455-22.837 35.086-40 62.375-40h62.375c68.898 0 124.75-55.852 124.75-124.75v-474.25zm41.583 41.583v422.261c0 51.679 41.89 93.573 93.564 93.573h62.373c22.741 0 42.434 13.471 51.98 32.503 9.546-19.032 29.239-32.503 51.98-32.503h62.373c51.674 0 93.564-41.894 93.564-93.573v-422.261z" fill="#0071bc" fill-rule="evenodd"/></g><g stroke="#000" stroke-linecap="round" stroke-linejoin="round"><g><path d="m261.9613 848.2461c3.1205 12.2851-9.2599 35.3826-4.648 38.1145 2.2981 1.3612 7.5871.089 8.4111 1.7418l-.6427 2.6135s-.5291.9426-1.4816.9426c-2.8692 0-5.3768-1.1189-7.9992-1.8544 0 0-2.0256 1.6751-5.2769 1.0626-5.0577-.9527-13.2877-1.0547-14.3169-.2548-.7381.5736-1.3531 1.0466-2.1082 1.0466-.8883 0-1.0421-.7952-1.0421-.7952l.5073-2.6989s.318-.9979 2.5788-1.556c2.9875-.7374 5.6384 1.3195 9.5588-.034 7.4987-2.589 10.4895-32.6776 8.317-38.3279z" fill="#ed1c24"/><path d="m268.5425 891.6585-3.4608-.9426c-.2422-.7367-.233-2.0982.6427-2.6135 2.285 1.0615 2.8181 3.5561 2.8181 3.5561z" fill="#ed1c24"/><path d="m229.275 890.7713c.5004-1.9197 2.3022-2.3259 4.0891-2.6071.719.8533.3402 2.1413-.5073 2.699z" fill="#ed1c24"/><path d="m220.4886 714.5727c-2.0594 3.1871-6.6252 3.5779-8.2475 1.2072-2.0856-3.0882-.6042-10.8416.8112-11.3469 1.435-.5124 1.4507 1.7502 4.1104 1.1881-2.3433-3.0539-1.7469-9.2158-.0573-9.2381 1.0723-.014 1.1945 3.3587 4.3455 3.7756-.4873-4.7623.8738-11.3632 2.7186-11.2459 1.3686.087 1.2715 4.6478 4.6567 7.409 2.8065-3.6189.9261-10.0632 2.8189-10.0632 2.721 0 4.6695 5.0426 4.6738 9.3668 3.102-2.6627 2.6965-9.3668 4.0342-9.3668 2.0215 0 2.8205 5.4475 3.0541 8.344 2.4809-1.6174 3.4915-6.6045 4.7191-6.0696 1.1983.5221.7083 4.4806 1.1856 5.4583.4358.8925 3.0555-6.6825 7.8007-3.226 4.9083 3.5754 2.7089 20.5503-13.6997 17.7665z" fill="#ed1c24"/><path d="m276.3288 848.2461c3.1205 12.2851.7292 35.3826 5.3412 38.1145 2.2981 1.3612 7.5871.089 8.4111 1.7418l-.6427 2.6135s-.5291.9426-1.4816.9426c-2.8691 0-5.3768-1.1189-7.9991-1.8544 0 0-2.0256 1.6751-5.2769 1.0626-5.0576-.9527-13.2877-1.0547-14.3169-.2548-.7381.5736-1.3531 1.0466-2.1082 1.0466-.8883 0-1.0421-.7952-1.0421-.7952l.5073-2.6989s.318-.9979 2.5788-1.556c2.9875-.7374 5.6384 1.3195 9.5588-.034 7.4987-2.589.5004-32.6776-1.6722-38.3279z" fill="#ed1c24"/><path d="m291.7993 832.5756c-1.2647 5.0558-10.6581 6.8619-10.6332 9.5574.0589 6.3662.893 16.4492-7.0764 16.4492-4.2165 0-5.4648-1.4251-8.2541-3.3512-1.0272 1.4688-4.5605 3.3512-9.7249 3.3512-2.9644 0-4.7677-2.1997-5.5217-4.1861-1.368-3.6042-2.2891-8.6127-7.7911-12.562-11.194-8.035-18.1198-13.2148-26.4992-21.6778-7.7649-7.8423-15.7986-18.0377-15.7986-32.0607 0-6.4776 1.7849-13.2636 4.3689-19.8936 5.6974-14.6186 15.3957-28.5739 19.2338-37.4669l-3.614-16.1624c2.4443-8.9474 15.7732-10.7854 22.9242-6.041 15.0451 9.9818 12.4985 32.2316 15.9376 44.4038 1.4938 5.2868 2.2385 11.393 4.6333 14.6702 3.4356 4.7016 19.681 10.1489 25.6653 17.4971 18.6527-45.8597 81.8511-49.8726 81.8511 3.6744 0 14.7739-7.0216 33.2134-17.0929 40.3813 6.2187-10.5128 9.924-32.0985 8.5131-42.9977 1.9337 14.9169-8.5063 38.289-21.2527 50.9061 8.781-15.4281 13.1465-30.7443 12.868-44.9983-.1213 3.7655-2.3058 9.2108-6.9267 8.3009.4901 10.2603-1.1593 20.0656-6.8257 27.3923 2.3713-8.098.8112-16.3085-1.1033-20.6625.2089 5.4769-.3365 13.9716-4.72 19.3315-.4526-5.4138-4.312-10.6825-4.312-10.6825-.7006 5.1802-2.8516 10.1694-6.7816 13.161.0321-3.7832-1.0115-7.7836-2.2944-11.2808-.4178 5.2997-3.4026 9.9062-7.6342 12.0359.652-4.1585-.0103-8.8769-2.628-11.5345.5697 6.4351-1.3578 10.9137-5.2561 13.8341.7607-2.5956.7278-6.1017 1.096-8.9084 0 0-3.7719 6.6607-5.6709 7.7427 1.5339-3.2602 1.8582-7.8041 1.7988-10.1678-1.2324 2.2405-2.9883 3.5458-4.805 5.3333-1.7299 1.5645-.513 7.018-4.9047 10.2758-.4108-1.4-1.0152-2.6063-1.7684-3.664z" fill="#ed1c24"/><path d="m290.081 888.1024c2.285 1.0615 2.8181 3.5561 2.8181 3.5561l-3.4608-.9426c-.2422-.7367-.233-2.0982.6427-2.6135z" fill="#ed1c24"/><path d="m253.6316 890.7713c.5004-1.9197 2.3022-2.3259 4.0891-2.6071.719.8533.3402 2.1413-.5073 2.699z" fill="#ed1c24"/><path d="m230.6586 738.6371c-4.0614 7.6469-15.0188 5.8632-16.4079-2.4549-1.0328-6.1846 4.1724-10.4131 5.0817-14.1701l9.8455 1.346c.201 6.2676 3.985 10.5639 1.4807 15.279z" fill="#ed1c24"/><path d="m209.4528 723.7607c1.4374-5.3184 5.0516-7.8352 11.0357-9.188 2.0531.1032 4.1707 1.8499 4.6722 3.3656 1.5.6644 3.833 3.7737 4.0172 5.4198-6.6121-1.1141-12.6991-1.3163-19.7251.4026z" fill="#ed1c24"/><path d="m228.9629 716.302c.6192 1.115 2.3091 1.3735 3.7746.576 1.4633-.7963 2.1487-2.3489 1.5287-3.4654-.6194-1.1154-2.3107-1.3744-3.7758-.5771-1.4637.7965-2.1478 2.3497-1.5275 3.4665z"/><path d="m204.8689 768.202c3.1883-4.0729 5.7165-7.722 8.6914-10.4218 2.1243 4.7907 1.0914 12.4261 5.1013 16.1646 2.4675-5.353 3.8825-11.2281 4.0799-18.0649.8412.848 2.9251 4.2688 4.081 7.6067 1.129 3.2601 4.2899 6.4156 6.1216 7.6056-.9675-5.6594.2686-10.5271 4.0799-16.1624 4.3335 5.376 6.3832 9.562 6.1205 17.1125 3.4257-2.5933 6.2272-9.3222 6.1216-15.2662 2.1748 1.5262 3.5853 4.2675 4.4196 7.4908.8163 3.1537 1.5275 6.1987 2.7222 7.7754 1.2119-2.513 1.7589-6.4627 1.5321-9.3383-.3402-4.3122.3145-8.1425 1.4105-9.7685" fill="none"/><path d="m248.2469 775.8462c13.4528 1.704 25.3651 3.8672 32.6011 12.3584 10.027 11.7664 14.0447 30.7655 9.809 37.6009-3.6941 5.9611-13.8463 6.1802-25.0679 6.1344-22.223-.091-50.8267-16.4149-47.9477-43.7353" fill="none"/><path d="m209.4528 723.7607c3.5951-3.5162 10.6927-5.7811 15.7079-5.8224" fill="none"/><path d="m232.9441 802.4655c10.042 17.7471 26.614 23.8149 48.9737 24.5563" fill="none"/><path d="m245.1861 798.6639c7.8924 12.7165 21.8536 20.9784 40.2745 25.1885" fill="none"/><path d="m265.8355 855.231c-2.1917-1.4613-5.1632-3.9674-7.7358-6.6017" fill="none"/><path d="m362.9202 786.1608c-4.6606-42.6575-55.1559-28.2594-69.2896 1.5423" fill="none"/><path d="m354.5355 792.0686c-1.5212-39.0753-45.6957-19.7686-59.8309.1821" fill="none"/><path d="m347.6087 800.3695c-1.5896-34.3585-38.1189-17.8009-51.1473-4.3262" fill="none"/><path d="m339.6797 807.0993c-.4874-26.8043-27.5668-16.9396-42.5622-5.9617" fill="none"/><path d="m330.6477 815.7483c2.9359-20.5949-18.5357-17.7469-32.8671-9.5037" fill="none"/><path d="m321.5717 817.6285c1.302-13.8656-17.7582-10.2891-22.1595-5.5289" fill="none"/></g><path d="m87.7857 464.4373 15.9347-11.5677 15.9348 11.5677-6.0866-18.7163 15.9348-11.5677h-19.6964l-6.0866-18.7159-6.0866 18.7159h-19.6968l15.9352 11.5677z" fill="#ed1c24" fill-rule="evenodd"/><g><path d="m242.4837 577.3966c1.6495.4752 3.2024 1.248 4.8517.5565-4.6294-6.7162-5.965-10.2828-7.2728-15.0333 1.9337.2179 3.9583.7713 5.892.06-3.1805-6.2369-7.0245-9.8198-8.4546-14.7817l5.534.2992c.5715-3.7396-4.9536-11.0693-5.534-15.8289 2.792.6729 4.0808-.88 5.7227.212-2.2398-6.2599-4.3465-6.0125-5.7227-14.4062 2.7584 2.9306 6.1747.5017 8.0971 2.0722-2.7574-5.659-5.8644-12.1198-5.883-16.3739 2.7161 2.9954 5.6442 5.2659 8.6452 7.2873-6.2873-6.4819-6.3605-13.835-6.4311-19.1091 2.6204 1.4654 3.5194 2.2939 7.5491 3.0365-3.4011-5.4409-2.0618-13.8587-2.6493-21.0162 2.2847 1.5064 4.7847 3.5025 6.8017 3.6358-.8537-4.1015-2.0455-10.9032-2.0455-15.7345 1.9803 1.2137 4.0683 3.3206 6.0484 3.5564-.9872-3.8823-.7688-6.9784-1.1977-12.5306 1.8875 1.3959 3.7822 2.7798 6.1659 3.345-1.28-3.3442-2.0616-4.9744-1.4051-11.3928 1.629 1.8727 3.3651 3.4226 5.163 4.7862-.2904-4.1798 1.4913-5.6408 1.4845-11.1581 1.5884 1.9671 2.0762 2.967 3.6646 3.223.6145-4.3299 2.3073-5.2605 3.4922-9.1014 1.167 3.7977 1.7924 3.7222 2.0701 7.0005 1.4755-.1234 2.6835-1.9503 4.1802-2.3497.1253 2.1321.9866 4.504.7758 7.0388l2.4803-3.3733c.7645 3.6412 2.6205 5.6839 1.8944 10.2418 1.3693-1.2303 2.5736-2.4272 3.5203-3.5719.9153 3.6042 1.0643 6.8235.9709 9.921 1.6406-.1664 3.1821-.6314 4.4857-1.8136.3349 3.5147-.4138 6.6377-1.1211 9.208 1.319-.4345 2.6304-.8954 4.1154-2.1641.411 4.3696.1424 8.0563-.2849 11.5839 1.0417-.364 2.0033-.7293 3.4757-1.7179-.0918 4.5247-1.0335 8.7648-2.1288 12.9534 1.1815-.2894 2.3922-.5971 4.8978-1.7179.2051 5.0749-.6228 9.3197-1.2143 13.7544 1.5005-.9262 3.2865-.4102 5.5273-.9752-1.0348 3.2207-2.0718 6.4423-4.428 10.1609 1.9595.5142 4.1784-.9939 5.972-1.0751-1.2498 4.4395-2.6747 8.876-5.4844 13.2909 1.8985.068 5.094-2.9434 7.7958-2.2958-3.2949 4.2174-4.935 10.8511-10.4084 15.1322 3.3625-1.7399 6.0548-1.3999 10.4084-3.2855-1.3285 7.183-5.2718 10.2443-6.7491 15.1695 2.9891-.8623 4.7124-2.2135 6.7491-3.5762-1.1318 4.321-2.9572 8.1-5.6117 11.2311 1.4222.3145 2.2104 1.4261 4.3477 1.1561-1.1358 4.8116-3.7483 8.3516-5.9939 12.2076 1.2917.8135 3.4858.7204 5.5941.7136-.9475 5.9694-3.1574 9.2752-5.7869 11.6959.8716 1.5343 1.9257 1.3446 3.3683 2.8362-1.8094 3.1223-4.4143 4.4518-6.8659 6.1224 1.0346.2636 2.0686.815 3.1032 1.414-5.1421 7.1945-7.2543 21.061-29.6548 24.6933-17.7846-2.6496-30.1419-19.612-32.5164-35.213z" fill="#008f4c"/><path d="m272.6035 459.4636c.9354-2.6697 2.9594-11.679 3.1127-10.4198 1.9 3.744 1.9931 8.7541 2.162 12.3432" fill="none"/><path d="m262.6008 456.6434c1.337 3.0755 3.6285 5.4568 6.0773 9.7722" fill="none"/><path d="m280.3575 472.2807c1.4881-.8944 2.286-2.1355 3.3424-3.2468 1.1603 2.5949.2556 4.8989-.152 7.2729 1.2154.093 2.4309-.5814 3.6463-1.6883-.1295 2.2078-.9535 4.4157-2.2788 6.6235 1.4686.4046 2.9372.1477 4.4059-.6495.317 2.8693-.9564 4.8255-2.2789 6.7535" fill="none"/><path d="m253.6297 478.0071c.8416 4.0685 3.9762 6.2922 5.9675 9.3777" fill="none"/><path d="m265.0071 491.0357c-.101-3.9826-.9872-7.9653.9116-11.9481.4985 1.3789 1.4653 2.0522 2.4309 2.7273.1887-4.395 1.5165-6.6041 1.5192-10.0002 2.3849 2.872 2.5957 4.5306 2.8866 6.2339.7597.2833 1.609.1998 2.279-.1298.7297 4.1559.9222 8.3117.4557 12.4676" fill="none"/><path d="m303.1174 497.9937c-.8843 4.8437-2.8192 8.0084-4.9971 9.6944" fill="none"/><path d="m270.8418 505.9254c-2.4766-4.3057-5.0276-4.3058-9.1157-8.8314-.4072 5.2382 2.8342 10.4764 4.558 15.7146-3.1342-3.0685-5.108-2.3887-6.8369-4.4156-.2542 4.238 1.0187 7.456 3.0386 10.9091" fill="none"/><path d="m281.6763 517.6215c2.5428-1.317 3.6119-3.7445 4.2542-6.4935 1.7144 2.1484.9794 5.5275.9115 8.5715 3.0235-3.7057 5.7741-7.529 7.1406-11.9481 2.002 6.7811.9182 12.0122.1519 17.4029" fill="none"/><path d="m277.1185 546.5831c-.1945-5.7962 2.3637-9.9792-.6078-17.4028-.7106 1.5325-1.745 2.6095-3.6461 2.4675.9054-2.8909 1.5245-5.8777.3038-9.4806-1.3167 2.9178-2.6334 5.5267-3.9501 7.0131" fill="none"/><path d="m260.7103 539.4401c-1.1393-3.8529-2.4413-7.7058-2.4309-11.5587-1.0952.609-2.2905 1.3316-2.4309 2.8574-1.6173-2.6841-2.4882-5.3682-2.4309-8.0522-1.0534 1.0842-2.5682 1.6276-2.2789 4.2857" fill="none"/><path d="m247.7965 547.2324c-.4038-2.4392-.3517-4.8131.9115-7.0131.5999 2.2512 1.6988 4.5023 3.4944 6.7534.485-.7949 1.1494-1.4997 2.5828-1.8182.2019 3.0392.8479 4.7395 1.5193 6.3638" fill="none"/><path d="m264.7141 557.6364c.0288-2.0073.663-7.9409 2.1269-10.1886.4948 2.8126 2.8659 10.4338 3.5998 11.3242" fill="none"/><path d="m283.8032 536.3232c2.0824-1.6345 3.2386-4.0663 3.6464-7.1429 1.528 3.0618 3.6066 5.7284 3.5698 9.9131" fill="none"/><path d="m283.5978 557.8486c.6651-1.7387 1.6558-4.241 3.0385-7.6624.7837.8782 1.5751 1.7496 1.2154 3.6365 1.375-2.6785 3.939-4.512 5.4694-8.3119.3463 1.2703.4438 2.6514.4559 3.7663 1.6651-4.1722 4.6212-6.037 6.6848-9.2209-.7071 11.3939-4.1576 19.4256-7.7949 25.8524" fill="none"/><path d="m285.9303 561.6483c-1.8481 4.5022-2.1906 7.9052-.6076 12.0781" fill="none"/><path d="m302.0916 532.2316c-2.3408 1.9737-2.9964 4.1737-4.0071 5.1305" fill="none"/><path d="m278.182 576.5836c-.9116-2.9871-.6077-9.6106-.6077-9.6106-4.5049 2.7222-7.9129 7.2076-11.2428 11.8184-2.1831-2.3422-4.5297-4.6228-4.8616-7.6625-2.1614.8675-2.7294 2.5494-3.1905 4.2858" fill="none"/><path d="m245.9546 562.9801c1.5199 3.174 4.7439 7.2854 6.3997 9.8191" fill="none"/><path d="m247.3354 577.9531c2.6434 3.6339 5.8579 5.1869 9.2164 8.3319" fill="none"/><path d="m290.9439 577.8823c3.1245-3.2464 6.5578-4.9063 10.4829-8.4416-.2649 6.5684-1.7251 8.3332-2.8865 11.2987" fill="none"/><path d="m264.2494 595.5988c1.4614-3.0027 2.8777-6.4121 4.102-11.5587.5839 3.0478 1.104 6.3524 1.2154 11.299 1.2151-2.2287 2.286-3.4446 3.9502-8.8314.9822 2.2497 1.8116 4.4803.9116 6.4936" fill="none"/><path d="m278.9417 596.7138c1.9219-2.372 3.7853-5.3896 5.4693-10.3898 2.3681 2.0999 2.6663 6.0196 3.1905 9.7404 1.8768-.4117 3.0452-1.6629 3.4944-3.7663 1.0541.7511 1.574 1.9046 1.6712 3.3766" fill="none"/><path d="m296.1175 589.2039c2.083-.7946 3.4159-1.4899 5.4343-2.7016" fill="none"/><path d="m292.0358 470.8282c.8339-1.2776 1.5887-3.4522 2.2207-5.5263" fill="none"/><path d="m292.9157 499.8446c-.1813-2.0885-1.3221-3.7486-2.215-5.5195-2.4266 4.7928-6.165 4.8277-5.9252 10.26" fill="none"/><path d="m282.5452 660c-1.2494 0-2.616-.3808-3.3129-.8412-.571.2769-.9014.8412-1.7341.8412h-3.5215c-.61 0-.9723-.5832-1.1314-.8412-.9464.2926-1.8924.8412-2.839.8412h-6.8536c5.2548-1.9559 5.5817-3.0661 5.6464-7.6305.1578-11.1344 1.4186-32.543.0584-37.831-1.36-5.288-6.4977-8.2645-8.9519-10.4758l2.9526-4.0059 8.0014 6.3194.4037-7.5097 6.5252.5937.5486 8.7176 8.5238-8.7332 3.2334 3.9509c-2.7162 2.485-6.502 7.5989-7.8765 11.143-1.364 3.5169-1.7217 27.718-1.0348 37.831.2356 3.4697 1.5458 5.9595 5.6643 7.6305z" fill="#008f4c"/></g><g><path d="m130.4837 577.3966c1.6495.4752 3.2024 1.248 4.8517.5565-4.6294-6.7162-5.965-10.2828-7.2728-15.0333 1.9337.2179 3.9583.7713 5.892.06-3.1805-6.2369-7.0245-9.8198-8.4546-14.7817l5.534.2992c.5715-3.7396-4.9536-11.0693-5.534-15.8289 2.792.6729 4.0808-.88 5.7227.212-2.2398-6.2599-4.3465-6.0125-5.7227-14.4062 2.7584 2.9306 6.1747.5017 8.0971 2.0722-2.7574-5.659-5.8644-12.1198-5.883-16.3739 2.7161 2.9954 5.6442 5.2659 8.6452 7.2873-6.2873-6.4819-6.3605-13.835-6.4311-19.1091 2.6204 1.4654 3.5194 2.2939 7.5491 3.0365-3.4011-5.4409-2.0618-13.8587-2.6493-21.0162 2.2847 1.5064 4.7847 3.5025 6.8017 3.6358-.8537-4.1015-2.0455-10.9032-2.0455-15.7345 1.9803 1.2137 4.0683 3.3206 6.0484 3.5564-.9872-3.8823-.7688-6.9784-1.1977-12.5306 1.8875 1.3959 3.7822 2.7798 6.1659 3.345-1.28-3.3442-2.0616-4.9744-1.4051-11.3928 1.629 1.8727 3.3651 3.4226 5.163 4.7862-.2904-4.1798 1.4913-5.6408 1.4845-11.1581 1.5884 1.9671 2.0762 2.967 3.6646 3.223.6145-4.3299 2.3073-5.2605 3.4922-9.1014 1.167 3.7977 1.7924 3.7222 2.0701 7.0005 1.4755-.1234 2.6835-1.9503 4.1802-2.3497.1253 2.1321.9866 4.504.7758 7.0388l2.4803-3.3733c.7645 3.6412 2.6205 5.6839 1.8944 10.2418 1.3693-1.2303 2.5736-2.4272 3.5203-3.5719.9153 3.6042 1.0643 6.8235.9709 9.921 1.6406-.1664 3.1821-.6314 4.4857-1.8136.3349 3.5147-.4138 6.6377-1.1211 9.208 1.319-.4345 2.6304-.8954 4.1154-2.1641.411 4.3696.1424 8.0563-.2849 11.5839 1.0417-.364 2.0033-.7293 3.4757-1.7179-.0918 4.5247-1.0335 8.7648-2.1288 12.9534 1.1815-.2894 2.3922-.5971 4.8978-1.7179.2051 5.0749-.6228 9.3197-1.2143 13.7544 1.5005-.9262 3.2865-.4102 5.5273-.9752-1.0348 3.2207-2.0718 6.4423-4.428 10.1609 1.9595.5142 4.1784-.9939 5.972-1.0751-1.2498 4.4395-2.6747 8.876-5.4844 13.2909 1.8985.068 5.094-2.9434 7.7958-2.2958-3.2949 4.2174-4.935 10.8511-10.4084 15.1322 3.3625-1.7399 6.0548-1.3999 10.4084-3.2855-1.3285 7.183-5.2718 10.2443-6.7491 15.1695 2.9891-.8623 4.7124-2.2135 6.7491-3.5762-1.1318 4.321-2.9572 8.1-5.6117 11.2311 1.4222.3145 2.2104 1.4261 4.3477 1.1561-1.1358 4.8116-3.7483 8.3516-5.9939 12.2076 1.2917.8135 3.4858.7204 5.5941.7136-.9475 5.9694-3.1574 9.2752-5.7869 11.6959.8716 1.5343 1.9257 1.3446 3.3683 2.8362-1.8094 3.1223-4.4143 4.4518-6.8659 6.1224 1.0346.2636 2.0686.815 3.1032 1.414-5.1421 7.1945-7.2543 21.061-29.6548 24.6933-17.7846-2.6496-30.1419-19.612-32.5164-35.213z" fill="#008f4c"/><path d="m160.6035 459.4636c.9354-2.6697 2.9594-11.679 3.1127-10.4198 1.9 3.744 1.9931 8.7541 2.162 12.3432" fill="none"/><path d="m150.6008 456.6434c1.337 3.0755 3.6285 5.4568 6.0773 9.7722" fill="none"/><path d="m168.3575 472.2807c1.4881-.8944 2.286-2.1355 3.3424-3.2468 1.1603 2.5949.2556 4.8989-.152 7.2729 1.2154.093 2.4309-.5814 3.6463-1.6883-.1295 2.2078-.9535 4.4157-2.2788 6.6235 1.4686.4046 2.9372.1477 4.4059-.6495.317 2.8693-.9564 4.8255-2.2789 6.7535" fill="none"/><path d="m141.6297 478.0071c.8416 4.0685 3.9762 6.2922 5.9675 9.3777" fill="none"/><path d="m153.0071 491.0357c-.101-3.9826-.9872-7.9653.9116-11.9481.4985 1.3789 1.4653 2.0522 2.4309 2.7273.1887-4.395 1.5165-6.6041 1.5192-10.0002 2.3849 2.872 2.5957 4.5306 2.8866 6.2339.7597.2833 1.609.1998 2.279-.1298.7297 4.1559.9222 8.3117.4557 12.4676" fill="none"/><path d="m191.1174 497.9937c-.8843 4.8437-2.8192 8.0084-4.9971 9.6944" fill="none"/><path d="m158.8418 505.9254c-2.4766-4.3057-5.0276-4.3058-9.1157-8.8314-.4072 5.2382 2.8342 10.4764 4.558 15.7146-3.1342-3.0685-5.108-2.3887-6.8369-4.4156-.2542 4.238 1.0187 7.456 3.0386 10.9091" fill="none"/><path d="m169.6763 517.6215c2.5428-1.317 3.6119-3.7445 4.2542-6.4935 1.7144 2.1484.9794 5.5275.9115 8.5715 3.0235-3.7057 5.7741-7.529 7.1406-11.9481 2.002 6.7811.9182 12.0122.1519 17.4029" fill="none"/><path d="m165.1185 546.5831c-.1945-5.7962 2.3637-9.9792-.6078-17.4028-.7106 1.5325-1.745 2.6095-3.6461 2.4675.9054-2.8909 1.5245-5.8777.3038-9.4806-1.3167 2.9178-2.6334 5.5267-3.9501 7.0131" fill="none"/><path d="m148.7103 539.4401c-1.1393-3.8529-2.4413-7.7058-2.4309-11.5587-1.0952.609-2.2905 1.3316-2.4309 2.8574-1.6173-2.6841-2.4882-5.3682-2.4309-8.0522-1.0534 1.0842-2.5682 1.6276-2.2789 4.2857" fill="none"/><path d="m135.7965 547.2324c-.4038-2.4392-.3517-4.8131.9115-7.0131.5999 2.2512 1.6988 4.5023 3.4944 6.7534.485-.7949 1.1494-1.4997 2.5828-1.8182.2019 3.0392.8479 4.7395 1.5193 6.3638" fill="none"/><path d="m152.7141 557.6364c.0288-2.0073.663-7.9409 2.1269-10.1886.4948 2.8126 2.8659 10.4338 3.5998 11.3242" fill="none"/><path d="m171.8032 536.3232c2.0824-1.6345 3.2386-4.0663 3.6464-7.1429 1.528 3.0618 3.6066 5.7284 3.5698 9.9131" fill="none"/><path d="m171.5978 557.8486c.6651-1.7387 1.6558-4.241 3.0385-7.6624.7837.8782 1.5751 1.7496 1.2154 3.6365 1.375-2.6785 3.939-4.512 5.4694-8.3119.3463 1.2703.4438 2.6514.4559 3.7663 1.6651-4.1722 4.6212-6.037 6.6848-9.2209-.7071 11.3939-4.1576 19.4256-7.7949 25.8524" fill="none"/><path d="m173.9303 561.6483c-1.8481 4.5022-2.1906 7.9052-.6076 12.0781" fill="none"/><path d="m190.0916 532.2316c-2.3408 1.9737-2.9964 4.1737-4.0071 5.1305" fill="none"/><path d="m166.182 576.5836c-.9116-2.9871-.6077-9.6106-.6077-9.6106-4.5049 2.7222-7.9129 7.2076-11.2428 11.8184-2.1831-2.3422-4.5297-4.6228-4.8616-7.6625-2.1614.8675-2.7294 2.5494-3.1905 4.2858" fill="none"/><path d="m133.9546 562.9801c1.5199 3.174 4.7439 7.2854 6.3997 9.8191" fill="none"/><path d="m135.3354 577.9531c2.6434 3.6339 5.8579 5.1869 9.2164 8.3319" fill="none"/><path d="m178.944 577.8823c3.1245-3.2464 6.5578-4.9063 10.4829-8.4416-.2649 6.5684-1.7251 8.3332-2.8865 11.2987" fill="none"/><path d="m152.2494 595.5988c1.4614-3.0027 2.8777-6.4121 4.102-11.5587.5839 3.0478 1.104 6.3524 1.2154 11.299 1.2151-2.2287 2.286-3.4446 3.9502-8.8314.9822 2.2497 1.8116 4.4803.9116 6.4936" fill="none"/><path d="m166.9417 596.7138c1.9219-2.372 3.7853-5.3896 5.4693-10.3898 2.3681 2.0999 2.6663 6.0196 3.1905 9.7404 1.8768-.4117 3.0452-1.6629 3.4944-3.7663 1.0541.7511 1.574 1.9046 1.6712 3.3766" fill="none"/><path d="m184.1175 589.2039c2.083-.7946 3.4159-1.4899 5.4343-2.7016" fill="none"/><path d="m180.0358 470.8282c.8339-1.2776 1.5887-3.4522 2.2207-5.5263" fill="none"/><path d="m180.9157 499.8446c-.1813-2.0885-1.3221-3.7486-2.215-5.5195-2.4266 4.7928-6.165 4.8277-5.9252 10.26" fill="none"/><path d="m170.5452 660c-1.2494 0-2.616-.3808-3.3129-.8412-.571.2769-.9014.8412-1.7341.8412h-3.5215c-.61 0-.9723-.5832-1.1314-.8412-.9464.2926-1.8924.8412-2.839.8412h-6.8536c5.2548-1.9559 5.5817-3.0661 5.6464-7.6305.1578-11.1344 1.4186-32.543.0584-37.831-1.36-5.288-6.4977-8.2645-8.9519-10.4758l2.9526-4.0059 8.0014 6.3194.4037-7.5097 6.5252.5937.5486 8.7176 8.5238-8.7332 3.2334 3.9509c-2.7162 2.485-6.502 7.5989-7.8765 11.143-1.364 3.5169-1.7217 27.718-1.0348 37.831.2356 3.4697 1.5458 5.9595 5.6643 7.6305z" fill="#008f4c"/></g><g><path d="m354.4837 577.3966c1.6495.4752 3.2024 1.248 4.8517.5565-4.6294-6.7162-5.965-10.2828-7.2728-15.0333 1.9337.2179 3.9583.7713 5.892.06-3.1805-6.2369-7.0245-9.8198-8.4546-14.7817l5.534.2992c.5715-3.7396-4.9536-11.0693-5.534-15.8289 2.792.6729 4.0808-.88 5.7227.212-2.2398-6.2599-4.3465-6.0125-5.7227-14.4062 2.7584 2.9306 6.1747.5017 8.0971 2.0722-2.7574-5.659-5.8644-12.1198-5.883-16.3739 2.7161 2.9954 5.6442 5.2659 8.6452 7.2873-6.2873-6.4819-6.3605-13.835-6.4311-19.1091 2.6204 1.4654 3.5194 2.2939 7.5491 3.0365-3.4011-5.4409-2.0618-13.8587-2.6493-21.0162 2.2847 1.5064 4.7847 3.5025 6.8017 3.6358-.8537-4.1015-2.0455-10.9032-2.0455-15.7345 1.9803 1.2137 4.0683 3.3206 6.0484 3.5564-.9872-3.8823-.7688-6.9784-1.1977-12.5306 1.8875 1.3959 3.7822 2.7798 6.1659 3.345-1.28-3.3442-2.0616-4.9744-1.4051-11.3928 1.629 1.8727 3.3651 3.4226 5.163 4.7862-.2904-4.1798 1.4913-5.6408 1.4845-11.1581 1.5884 1.9671 2.0762 2.967 3.6646 3.223.6145-4.3299 2.3073-5.2605 3.4922-9.1014 1.167 3.7977 1.7924 3.7222 2.0701 7.0005 1.4755-.1234 2.6835-1.9503 4.1802-2.3497.1253 2.1321.9866 4.504.7758 7.0388l2.4803-3.3733c.7645 3.6412 2.6205 5.6839 1.8944 10.2418 1.3693-1.2303 2.5736-2.4272 3.5203-3.5719.9153 3.6042 1.0643 6.8235.9709 9.921 1.6406-.1664 3.1821-.6314 4.4857-1.8136.3349 3.5147-.4138 6.6377-1.1211 9.208 1.319-.4345 2.6304-.8954 4.1154-2.1641.411 4.3696.1424 8.0563-.2849 11.5839 1.0417-.364 2.0033-.7293 3.4757-1.7179-.0918 4.5247-1.0335 8.7648-2.1288 12.9534 1.1815-.2894 2.3922-.5971 4.8978-1.7179.2051 5.0749-.6228 9.3197-1.2143 13.7544 1.5005-.9262 3.2865-.4102 5.5273-.9752-1.0348 3.2207-2.0718 6.4423-4.428 10.1609 1.9595.5142 4.1784-.9939 5.972-1.0751-1.2498 4.4395-2.6747 8.876-5.4844 13.2909 1.8985.068 5.094-2.9434 7.7958-2.2958-3.2949 4.2174-4.935 10.8511-10.4084 15.1322 3.3625-1.7399 6.0548-1.3999 10.4084-3.2855-1.3285 7.183-5.2718 10.2443-6.7491 15.1695 2.9891-.8623 4.7124-2.2135 6.7491-3.5762-1.1318 4.321-2.9572 8.1-5.6117 11.2311 1.4222.3145 2.2104 1.4261 4.3477 1.1561-1.1358 4.8116-3.7483 8.3516-5.9939 12.2076 1.2917.8135 3.4858.7204 5.5941.7136-.9475 5.9694-3.1574 9.2752-5.7869 11.6959.8716 1.5343 1.9257 1.3446 3.3683 2.8362-1.8094 3.1223-4.4143 4.4518-6.8659 6.1224 1.0346.2636 2.0686.815 3.1032 1.414-5.1421 7.1945-7.2543 21.061-29.6548 24.6933-17.7846-2.6496-30.1419-19.612-32.5164-35.213z" fill="#008f4c"/><path d="m384.6035 459.4636c.9354-2.6697 2.9594-11.679 3.1127-10.4198 1.9 3.744 1.9931 8.7541 2.162 12.3432" fill="none"/><path d="m374.6008 456.6434c1.337 3.0755 3.6285 5.4568 6.0773 9.7722" fill="none"/><path d="m392.3575 472.2807c1.4881-.8944 2.286-2.1355 3.3424-3.2468 1.1603 2.5949.2556 4.8989-.152 7.2729 1.2154.093 2.4309-.5814 3.6463-1.6883-.1295 2.2078-.9535 4.4157-2.2788 6.6235 1.4686.4046 2.9372.1477 4.4059-.6495.317 2.8693-.9564 4.8255-2.2789 6.7535" fill="none"/><path d="m365.6297 478.0071c.8416 4.0685 3.9762 6.2922 5.9675 9.3777" fill="none"/><path d="m377.0071 491.0357c-.101-3.9826-.9872-7.9653.9116-11.9481.4985 1.3789 1.4653 2.0522 2.4309 2.7273.1887-4.395 1.5165-6.6041 1.5192-10.0002 2.3849 2.872 2.5957 4.5306 2.8866 6.2339.7597.2833 1.609.1998 2.279-.1298.7297 4.1559.9222 8.3117.4557 12.4676" fill="none"/><path d="m415.1174 497.9937c-.8843 4.8437-2.8192 8.0084-4.9971 9.6944" fill="none"/><path d="m382.8418 505.9254c-2.4766-4.3057-5.0276-4.3058-9.1157-8.8314-.4072 5.2382 2.8342 10.4764 4.558 15.7146-3.1342-3.0685-5.108-2.3887-6.8369-4.4156-.2542 4.238 1.0187 7.456 3.0386 10.9091" fill="none"/><path d="m393.6763 517.6215c2.5428-1.317 3.6119-3.7445 4.2542-6.4935 1.7144 2.1484.9794 5.5275.9115 8.5715 3.0235-3.7057 5.7741-7.529 7.1406-11.9481 2.002 6.7811.9182 12.0122.1519 17.4029" fill="none"/><path d="m389.1185 546.5831c-.1945-5.7962 2.3637-9.9792-.6078-17.4028-.7106 1.5325-1.745 2.6095-3.6461 2.4675.9054-2.8909 1.5245-5.8777.3038-9.4806-1.3167 2.9178-2.6334 5.5267-3.9501 7.0131" fill="none"/><path d="m372.7103 539.4401c-1.1393-3.8529-2.4413-7.7058-2.4309-11.5587-1.0952.609-2.2905 1.3316-2.4309 2.8574-1.6173-2.6841-2.4882-5.3682-2.4309-8.0522-1.0534 1.0842-2.5682 1.6276-2.2789 4.2857" fill="none"/><path d="m359.7965 547.2324c-.4038-2.4392-.3517-4.8131.9115-7.0131.5999 2.2512 1.6988 4.5023 3.4944 6.7534.485-.7949 1.1494-1.4997 2.5828-1.8182.2019 3.0392.8479 4.7395 1.5193 6.3638" fill="none"/><path d="m376.7141 557.6364c.0288-2.0073.663-7.9409 2.1269-10.1886.4948 2.8126 2.8659 10.4338 3.5998 11.3242" fill="none"/><path d="m395.8032 536.3232c2.0824-1.6345 3.2386-4.0663 3.6464-7.1429 1.528 3.0618 3.6066 5.7284 3.5698 9.9131" fill="none"/><path d="m395.5978 557.8486c.6651-1.7387 1.6558-4.241 3.0385-7.6624.7837.8782 1.5751 1.7496 1.2154 3.6365 1.375-2.6785 3.939-4.512 5.4694-8.3119.3463 1.2703.4438 2.6514.4559 3.7663 1.6651-4.1722 4.6212-6.037 6.6848-9.2209-.7071 11.3939-4.1576 19.4256-7.7949 25.8524" fill="none"/><path d="m397.9303 561.6483c-1.8481 4.5022-2.1906 7.9052-.6076 12.0781" fill="none"/><path d="m414.0916 532.2316c-2.3408 1.9737-2.9964 4.1737-4.0071 5.1305" fill="none"/><path d="m390.182 576.5836c-.9116-2.9871-.6077-9.6106-.6077-9.6106-4.5049 2.7222-7.9129 7.2076-11.2428 11.8184-2.1831-2.3422-4.5297-4.6228-4.8616-7.6625-2.1614.8675-2.7294 2.5494-3.1905 4.2858" fill="none"/><path d="m357.9546 562.9801c1.5199 3.174 4.7439 7.2854 6.3997 9.8191" fill="none"/><path d="m359.3354 577.9531c2.6434 3.6339 5.8579 5.1869 9.2164 8.3319" fill="none"/><path d="m402.9439 577.8823c3.1245-3.2464 6.5578-4.9063 10.4829-8.4416-.2649 6.5684-1.7251 8.3332-2.8865 11.2987" fill="none"/><path d="m376.2494 595.5988c1.4614-3.0027 2.8777-6.4121 4.102-11.5587.5839 3.0478 1.104 6.3524 1.2154 11.299 1.2151-2.2287 2.286-3.4446 3.9502-8.8314.9822 2.2497 1.8116 4.4803.9116 6.4936" fill="none"/><path d="m390.9417 596.7138c1.9219-2.372 3.7853-5.3896 5.4693-10.3898 2.3681 2.0999 2.6663 6.0196 3.1905 9.7404 1.8768-.4117 3.0452-1.6629 3.4944-3.7663 1.0541.7511 1.574 1.9046 1.6712 3.3766" fill="none"/><path d="m408.1175 589.2039c2.083-.7946 3.4159-1.4899 5.4343-2.7016" fill="none"/><path d="m404.0358 470.8282c.8339-1.2776 1.5887-3.4522 2.2207-5.5263" fill="none"/><path d="m404.9157 499.8446c-.1813-2.0885-1.3221-3.7486-2.215-5.5195-2.4266 4.7928-6.165 4.8277-5.9252 10.26" fill="none"/><path d="m394.5452 660c-1.2494 0-2.616-.3808-3.3129-.8412-.571.2769-.9014.8412-1.7341.8412h-3.5215c-.61 0-.9723-.5832-1.1314-.8412-.9464.2926-1.8924.8412-2.839.8412h-6.8536c5.2548-1.9559 5.5817-3.0661 5.6464-7.6305.1578-11.1344 1.4186-32.543.0584-37.831-1.36-5.288-6.4977-8.2645-8.9519-10.4758l2.9526-4.0059 8.0014 6.3194.4037-7.5097 6.5252.5937.5486 8.7176 8.5238-8.7332 3.2334 3.9509c-2.7162 2.485-6.502 7.5989-7.8765 11.143-1.364 3.5169-1.7217 27.718-1.0348 37.831.2356 3.4697 1.5458 5.9595 5.6643 7.6305z" fill="#008f4c"/></g><g fill="#e5e5e5"><path d="m61.0078 556.7718-28.0078-9.6484v-7.1484l28.0078-9.5312v6.7969l-19.4922 5.8398c-1.0547.3125-1.9857.5013-2.793.5664v.1172c.8724.0911 1.8294.293 2.8711.6055l19.4141 5.8008z"/><path d="m61.0078 572.0005h-4.8828v-2.3438h-18.2422v2.3438h-4.8828v-10.9961h4.8828v2.3438h18.2422v-2.3438h4.8828z"/><path d="m34.8848 602.1707c-1.5755-2.7344-2.3633-6.1328-2.3633-10.1953 0-4.5052 1.2467-8.0567 3.7402-10.6543 2.4935-2.5977 5.9277-3.8965 10.3027-3.8965 4.401 0 7.9883 1.4193 10.7617 4.2578s4.1601 6.6146 4.1602 11.3281c0 2.9687-.4102 5.5859-1.2305 7.8516h-5.918c1.25-2.1615 1.875-4.8047 1.875-7.9297 0-2.6172-.8496-4.7494-2.5488-6.3965s-3.9681-2.4707-6.8066-2.4707c-2.8776 0-5.1042.7389-6.6797 2.2168s-2.3633 3.4733-2.3633 5.9863c0 1.5104.2148 2.7083.6445 3.5938h5.4688v-5.6055h5.0391v11.9141z"/><path d="m61.0078 618.3909h-4.8828v-2.3438h-18.2422v2.3438h-4.8828v-10.9961h4.8828v2.3438h18.2422v-2.3438h4.8828z"/><path d="m33 641.1931v-16.6797h28.0078v6.3086h-22.8906v10.3711z"/><path d="m33 673.3187v-6.875l6.2305-1.9922v-9.9609l-6.2305-1.9727v-6.8359l28.0078 10.1953v7.4805zm11.0742-10.3125 9.4141-3.0078c.7031-.2214 1.5429-.3776 2.5195-.4688v-.1563c-.8203-.0651-1.6341-.2279-2.4414-.4883l-9.4922-3.0469z"/><path d="m33 704.6585v-6.3672l17.5977-11.543c1.0286-.6771 1.8034-1.1458 2.3242-1.4063v-.0781c-.9896.1042-2.5.1562-4.5313.1563h-15.3906v-5.957h28.0078v6.7969l-17.0508 11.1133c-.7682.5078-1.53.9765-2.2852 1.4063v.0781c.651-.1042 1.9336-.1563 3.8477-.1563h15.4883v5.957z"/><path d="m55.8711 732.8904v-7.9883h-22.8711v-6.3281h22.8711v-7.9492h5.1367v22.2656z"/><path d="m61.0078 748.4902h-4.8828v-2.3438h-18.2422v2.3438h-4.8828v-10.9961h4.8828v2.3438h18.2422v-2.3438h4.8828z"/><path d="m33 780.301v-6.875l6.2305-1.9922v-9.9609l-6.2305-1.9727v-6.8359l28.0078 10.1953v7.4805zm11.0742-10.3125 9.4141-3.0078c.7031-.2214 1.5429-.3776 2.5195-.4688v-.1563c-.8203-.0651-1.6341-.2279-2.4414-.4883l-9.4922-3.0469z"/><path d="m61.5381 892.7322-7.8661 5.5872-3.6532-5.1432 22.8339-16.2188 5.7229 8.0572c4.0867 5.7536 3.7044 10.3533-1.1468 13.7992-2.293 1.6287-4.7343 2.1209-7.3239 1.4768-2.5897-.6441-4.8647-2.3462-6.8251-5.1062zm11.0189-7.8266-7.1177 5.0557 1.4364 2.0223c1.9453 2.7388 4.1176 3.2562 6.5167 1.5521 2.346-1.6664 2.5463-3.8689.601-6.6077z"/><path d="m82.3073 928.6895c-3.2384-2.3657-5.1074-5.3476-5.6071-8.9458s.487-7.09 2.9602-10.4756c2.6115-3.5748 5.7593-5.7096 9.4436-6.4045 3.6842-.6948 7.2349.2059 10.652 2.7021 3.2278 2.358 5.066 5.3214 5.5146 8.8903s-.5907 7.0829-3.1176 10.542c-2.5961 3.5538-5.7222 5.6642-9.3781 6.3314-3.656.6671-7.1452-.2129-10.4676-2.64zm14.1039-18.843c-1.7874-1.3057-3.6965-1.6724-5.7272-1.0999s-3.8526 1.9627-5.4655 4.1707c-1.636 2.2395-2.4045 4.3952-2.3055 6.467s1.0001 3.7299 2.7034 4.9742c1.7558 1.2827 3.6117 1.6669 5.5677 1.1527 1.9559-.5142 3.7557-1.8964 5.3994-4.1464 1.7128-2.3447 2.546-4.5337 2.4996-6.5671-.0465-2.0334-.9371-3.6838-2.6719-4.9512z"/><path d="m124.6664 948.4187-15.8149-5.3011 8.9013-26.5557 5.9815 2.005-7.275 21.7038 9.8334 3.2961z"/><path d="m156.6663 951.9716-16.6507-.9834 1.6513-27.9591 6.2976.3719-1.3496 22.8508 10.3531.6115z"/><path d="m188.9845 951.5999h-16.7969v-28.0078h16.1523v5.1367h-9.8438v6.2305h9.1602v5.1172h-9.1602v6.4063h10.4883z"/><path d="m225.8249 929.202-7.9817-.3254-.9316 22.8521-6.3229-.2578.9316-22.8521-7.9426-.3238.2092-5.1325 22.2471.9069z"/><path d="m338.1171 923.4135.2002 4.8787-2.3418.0961.748 18.2268 2.3418-.0961.2002 4.8787-10.9868.4509-.2002-4.8787 2.3418-.0961-.748-18.2268-2.3418.0961-.2002-4.8787z"/><path d="m380.188 951.5999h-6.3672l-11.543-17.5977c-.6771-1.0286-1.1458-1.8034-1.4063-2.3242h-.0781c.1042.9896.1562 2.5.1563 4.5313v15.3906h-5.957v-28.0078h6.7969l11.1133 17.0508c.5078.7682.9765 1.53 1.4063 2.2852h.0781c-.1042-.651-.1563-1.9336-.1563-3.8477v-15.4883h5.957z"/><path d="m415.9287 927.3478-7.9567.7101 2.033 22.7806-6.3031.5625-2.033-22.7806-7.9178.7066-.4566-5.1164 22.1775-1.9792z"/><path d="m448.6447 939.9803-15.6492 6.1023-10.1752-26.0941 15.0487-5.8681 1.8662 4.7857-9.1712 3.5762 2.2635 5.8048 8.5343-3.3279 1.8591 4.7675-8.5343 3.3279 2.3274 5.9685 9.7716-3.8104z"/><path d="m481.3489 917.4454-5.7022 4.4712-7.8745-2.9839c-.5936-.2295-1.1408-.4209-1.6416-.5743-.5008-.1533-.966-.256-1.3956-.308s-.8253-.0396-1.187.0372-.6963.2357-1.0037.4768l-1.3372 1.0485 6.6163 8.438-4.9644 3.8927-17.282-22.0402 7.8693-6.1704c5.3487-4.1939 9.5897-4.2928 12.7231-.2968.6026.7685 1.0411 1.5705 1.3157 2.4059.2745.8355.4015 1.6832.3809 2.5432s-.1871 1.7186-.4995 2.5758-.7582 1.6866-1.3375 2.4883l.0482.0615c.4082-.1546.8564-.2372 1.3446-.2477s.9962.0255 1.5241.1079c.5279.0825 1.0611.198 1.5996.3466.5385.1487 1.0479.3077 1.5282.4771zm-27.8909-7.7153 4.8086 6.1325 2.1518-1.6872c1.0656-.8356 1.6802-1.8138 1.8436-2.9348.1657-1.1392-.113-2.1699-.8361-3.0921-1.5105-1.9263-3.4184-1.9856-5.7239-.1779z"/><path d="m515.916 753.5852h-6.25c.9505-1.1328 1.6634-2.3633 2.1387-3.6914s.7129-2.6693.7129-4.0234c0-.7943-.0716-1.4876-.2148-2.0801-.1432-.5924-.3418-1.0872-.5957-1.4844-.2539-.3971-.5534-.6933-.8984-.8887-.3451-.1953-.7194-.293-1.1231-.293-.5469 0-1.0352.1563-1.4648.4688-.4297.3125-.8268.739-1.1914 1.2793-.3646.5404-.7161 1.1817-1.0547 1.9238-.3385.7422-.6836 1.543-1.0352 2.4023-.9115 2.1875-2.0247 3.8184-3.3399 4.8926-1.3151 1.0742-2.9036 1.6113-4.7656 1.6113-1.4583 0-2.7116-.293-3.7598-.8789s-1.9108-1.3835-2.5879-2.3926-1.1751-2.1777-1.4941-3.5059c-.319-1.3281-.4785-2.7344-.4785-4.2188 0-1.4583.0879-2.7506.2637-3.877.1758-1.1263.446-2.1647.8106-3.1152h5.8398c-.3255.4688-.612.9798-.8594 1.5332s-.4525 1.1231-.6152 1.709c-.1627.586-.2832 1.1686-.3613 1.7481-.0781.5794-.1172 1.1296-.1172 1.6504 0 .7162.0684 1.3672.2051 1.9531.1367.586.3288 1.0807.5762 1.4844s.5437.7162.8887.9375c.3451.2214.7324.332 1.1621.332.4688 0 .8887-.1237 1.2598-.3711s.7227-.5989 1.0547-1.0547c.3321-.4557.6576-1.0091.9766-1.6602.319-.651.6478-1.3867.9863-2.207.4688-1.1198.9668-2.1256 1.4941-3.0176.5274-.8919 1.1231-1.6569 1.7871-2.2949.6641-.638 1.4225-1.1263 2.2754-1.4648s1.8457-.5078 2.9785-.5078c1.5625 0 2.8744.2962 3.9355.8887 1.0612.5925 1.9206 1.3965 2.5781 2.4121.6576 1.0156 1.1296 2.1973 1.416 3.5449.2865 1.3477.4297 2.7702.4297 4.2676 0 1.5365-.1302 2.9981-.3906 4.3848s-.651 2.5879-1.1719 3.6035z"/><path d="m488.9922 709.5032h4.8828v2.3438h18.2422v-2.3438h4.8828v10.9961h-4.8828v-2.3438h-18.2422v2.3438h-4.8828z"/><path d="m517 693.7805h-28.0078v-9.9219c0-9.9479 4.5508-14.9218 13.6523-14.9219 4.362 0 7.8451 1.3575 10.4492 4.0723 2.6042 2.7149 3.9063 6.3314 3.9063 10.8496zm-22.8711-6.3086h17.7539v-3.125c0-2.7344-.8203-4.8795-2.4609-6.4356-1.6406-1.556-3.8737-2.334-6.6992-2.334-2.6693 0-4.7689.7715-6.2988 2.3145s-2.2949 3.7077-2.2949 6.4941z"/><path d="m517 635.7337v16.7969h-28.0078v-16.1523h5.1367v9.8438h6.2305v-9.1602h5.1172v9.1602h6.4063v-10.4883z"/><path d="m517 595.9876v7.2461l-7.207 4.3555c-.5469.3255-1.0352.638-1.4649.9375s-.7975.6022-1.1035.9082-.5404.625-.7031.957c-.1628.332-.2441.6934-.2441 1.084v1.6992h10.7227v6.3086h-28.0078v-10c0-6.7969 2.5391-10.1953 7.6172-10.1953.9766 0 1.8783.1498 2.7051.4492.8268.2995 1.5723.7227 2.2363 1.2695.6641.5469 1.237 1.2077 1.7188 1.9824.4818.7748.8594 1.6374 1.1328 2.5879h.0781c.1302-.4167.3418-.8203.6348-1.2109s.6348-.7682 1.0254-1.1328.8106-.7129 1.2598-1.0449.8887-.6348 1.3184-.9082zm-23.2813 17.1875h7.793v-2.7344c0-1.3542-.3906-2.4414-1.1719-3.2617-.7943-.8333-1.7773-1.25-2.9492-1.25-2.4479 0-3.6719 1.4649-3.6719 4.3945z"/><path d="m517 557.0423v6.875l-6.2305 1.9922v9.961l6.2305 1.9727v6.8359l-28.0078-10.1953v-7.4805zm-11.0742 10.3125-9.4141 3.0078c-.7031.2214-1.543.3776-2.5195.4688v.1563c.8203.0651 1.6341.2279 2.4414.4883l9.4922 3.0469z"/></g></g><path d="m26.5 361.5v473.25c0 68.35 55.4 123.75 123.75 123.75h62.375c27.18 0 50.966 17.254 62.375 40 11.409-22.746 35.195-40 62.375-40h62.375c68.35 0 123.75-55.4 123.75-123.75v-473.25z" fill="none" stroke="#000" stroke-linecap="round" stroke-linejoin="round" stroke-width="3"/></svg>