<?xml version="1.0" encoding="utf-8"?><!DOCTYPE svg PUBLIC "-//W3C//DTD SVG 1.1//EN" "http://www.w3.org/Graphics/SVG/1.1/DTD/svg11.dtd"><svg viewBox="0 0 800 750" xmlns="http://www.w3.org/2000/svg"><g stroke="#000" stroke-linecap="round" stroke-linejoin="round"><g><path d="m212.5465 617.9499c3.4039 4.4716 3.5652 9.3374.3602 10.8682-3.2048 1.5309-8.5623-.853-11.9662-5.3245-3.4038-4.4716-3.5651-9.3375-.3602-10.8683s8.5624.8532 11.9662 5.3246z" fill="#ed1c24"/><path d="m209.9667 627.2927c8.9216 8.0289 6.8041 19.6366 4.7291 25.9908l4.3819 4.5951c1.2403-9.2472 2.8411-21.9171-6.6602-31.5929-1.5508-.3392-2.3635.1767-2.4507 1.0071z" fill="#008f4c" fill-rule="evenodd"/><path d="m193.7964 654.7284c9.9536 6.8023 17.5339 5.0393 23.5461 1.7789l5.5485 3.2076c-9.1128 3.0616-17.8742 4.5523-29.6141-2.4622-.6602-1.3979-.3036-2.2722.5196-2.5244z" fill="#008f4c" fill-rule="evenodd"/><path d="m188.6039 663.2268c5.2892 2.035 10.1008.8913 10.747-2.5547.6463-3.4459-3.1175-7.8893-8.4068-9.9244-5.2892-2.0352-10.1008-.8914-10.747 2.5545-.6462 3.446 3.1176 7.8893 8.4068 9.9246z" fill="#ed1c24"/><path d="m193.0329 634.9709c3.5654 3.1647 8.9119 4.4363 11.9416 2.8403 3.0298-1.5961 2.5956-5.4554-.9699-8.62-3.5653-3.1647-8.9118-4.4364-11.9416-2.8404-3.0297 1.596-2.5955 5.4554.9699 8.62z" fill="#ed1c24"/><path d="m219.1608 658.5252c-6.6375-6.5279-12.3828-14.2477-18.0579-22.0612.4855-.7142 1.3325-.6669 2.3405-.279 6.761 9.0172 13.4041 17.0369 21.1945 24.1848z" fill="#008f4c" fill-rule="evenodd"/><path d="m174.4708 681.7708c7.9484-.3214 17.2907-1.388 26.3546-1.2456 9.1043.1428 12.9479-1.3475 19.7118-1.4407 11.0673-.1525 27.0001-18.5631 61.929 3.6939-22.8462 43.4726-74.3172 44.6537-107.9954-1.0076z" fill="#008f4c" fill-rule="evenodd"/><path d="m174.4708 681.7708c33.9702 7.6859 44.4583 26.8666 107.4252-1.1625 5.1449-2.2901 10.6626-2.1251 14.6275-3.8081l4.6865 3.4985c-4.3387 1.7058-10.6774.4492-14.5393 2.0502-72.0281 29.861-73.8473 10.6976-112.1999-.5779z" fill="#008f4c" fill-rule="evenodd"/><path d="m89.8908 381.657c-28.7608 32.7108-23.6358 78.6847-10.8691 114.6294 38.8311-50.1729 4.0785-70.6889 10.8691-114.6294z" fill="#008f4c" fill-rule="evenodd"/><path d="m89.8908 381.657c-14.1771 29.2339-2.7781 69.1857-13.4711 120.7369l3.4383 4.2567c11.8834-71.082-2.1483-96.3776 10.0328-124.9935z" fill="#008f4c" fill-rule="evenodd"/><path d="m42.4137 360.5029c9.2943 84.6914 30.4839 160.178 64.5061 211.7903 45.3443 68.7882 122.6524 103.5377 207.311 114.6978 50.7988 6.6965 162.952 19.2163 181.3035 60.242l12.6036-15.9374c-29.3903-34.2653-127.457-48.068-185.4265-56.292-114.6287-16.2623-164.5402-52.1127-201.3202-101.396-35.308-47.3108-58.7607-124.3617-69.1077-214.1123z" fill="#008f4c" fill-rule="evenodd"/><path d="m54.318 405.3669c33.9687-28.8086 3.8962-64.8042-12.656-104.8668-4.1559 36.2064-28.6553 83.0731 12.656 104.8668z" fill="#008f4c" fill-rule="evenodd"/><path d="m55.7366 423.7837c-10.6437-38.9241-6.2863-79.1335-14.0745-123.2836 8.6052 50.4933 8.5772 86.3167 16.4044 118.828" fill="#008f4c" fill-rule="evenodd"/><path d="m495.9291 737.0717c-2.3946 5.322-1.6085 10.7491 1.7543 12.1142.5118.2077 1.0538.3141 1.6136.3141 3.2027 0 6.7863-2.9699 8.8163-7.4819 2.3944-5.3221 1.6084-10.7493-1.7545-12.1146-3.3627-1.3648-8.0355 1.8466-10.4297 7.1682z" fill="#008f4c" fill-rule="evenodd"/><path d="m4.9088 407.4444c4.926 6.3763 11.2618 13.4658 16.4759 21.0361 5.2375 7.6038 8.6776 9.9027 12.7267 15.4347 6.6252 9.0518 30.5797 11.3916 33.469 53.3228-39.0721 5.4505-67.0804-21.5469-67.0804-61.1579 0-8.963 1.3931-18.5822 4.4088-28.6356z" fill="#008f4c" fill-rule="evenodd"/><path d="m80.8114 510.0444c-3.9017-2.5813-6.835-7.4074-10.4194-9.5862-61.9922-37.6822-53.4431-53.2685-65.4832-93.0137 14.8636 47.7759 16.0563 58.2423 62.4803 87.9596 4.8387 2.9036 9.5269 7.6455 13.1909 9.9312" fill="#008f4c" fill-rule="evenodd"/><path d="m67.1223 474.7369c-38.1675-5.5525-30.8197-45.6875-37.0559-82.4474 19.6718 24.5202 60.8017 47.386 37.0559 82.4474z" fill="#008f4c" fill-rule="evenodd"/><path d="m75.0809 488.2494c-10.0522-33.2396-29.4711-62.4589-45.0145-95.9599 9.8908 27.9957 33.651 69.5093 42.8273 96.7889" fill="#008f4c" fill-rule="evenodd"/><path d="m104.6799 464.7024c-30.1635 43.1256-12.1371 82.0717 13.8519 107.5289 39.2251-63.536-11.9315-65.338-13.8519-107.5289z" fill="#008f4c" fill-rule="evenodd"/><path d="m119.7548 579.5978c-.8869-62.4813-23.4595-82.7795-15.0749-114.8954-12.1811 30.5744 10.475 52.7317 11.5839 110.0803" fill="#008f4c" fill-rule="evenodd"/><path d="m64.8426 534.576c3.3179 4.5242 7.9706 6.094 10.3921 3.506 2.4213-2.5878 1.6945-8.3535-1.6234-12.8776-3.318-4.5243-7.9707-6.094-10.392-3.5061-2.4214 2.5879-1.6945 8.3535 1.6233 12.8777z" fill="#ed1c24"/><path d="m100.2342 552.6427c-9.2972-1.519-20.7504-3.9498-27.3017-15.7614.1283-1.5668.8658-2.1858 1.6936-2.0265 5.131 10.7832 17.4685 11.9881 24.2165 11.8745" fill="#008f4c" fill-rule="evenodd"/><path d="m102.142 556.5307c5.6377-7.7344 9.6549-15.5937 6.3326-28.7492-1.156-1.0321-2.1055-.9491-2.5911-.2433h.0001c3.6428 11.4027-.9598 19.1757-5.8776 23.9173" fill="#008f4c" fill-rule="evenodd"/><path d="m115.6198 525.0979c.4101 5.5994-2.11 9.8208-5.6288 9.4289-3.5187-.3918-6.7035-5.2486-7.1135-10.8479-.41-5.5994 2.1101-9.8209 5.6288-9.429 3.5187.3918 6.7035 5.2486 7.1135 10.848z" fill="#ed1c24"/><path d="m87.0236 521.0616c2.0082 4.2966 1.6637 9.7278-.7692 12.1308-2.4329 2.4033-6.033.8683-8.041-3.4283-2.0081-4.2966-1.6637-9.7277.7692-12.1308s6.0329-.8683 8.041 3.4283z" fill="#ed1c24"/><path d="m100.2509 549.7524c-4.3532-8.184-8.2809-12.9697-14.1588-20.6171-.8327.2516-1.0362 1.0672-.9579 2.1341 6.7213 9.0261 7.2468 9.4696 11.8597 18.9255" fill="#008f4c" fill-rule="evenodd"/><path d="m13.6239 503.6992c12.0031 49.1455 49.9036 58.0578 83.2049 52.8875-20.8052-68.3355-52.6475-29.3382-83.2049-52.8875z" fill="#008f4c" fill-rule="evenodd"/><path d="m106.1396 562.0073c-44.0815-36.4019-76.4917-34.1265-92.5156-58.3081 12.7956 25.0744 54.3496 28.8445 88.964 60.1082" fill="#008f4c" fill-rule="evenodd"/><path d="m138.8249 611.6654c-13.5149 1.615-16.8197 8.6975-31.1412 2.8183-15.4752-6.3528-46.0175-19.8497-73.1913-19.1533 19.485-14.1425 52.7366-32.9032 69.3507-20.6864 12.5707 9.2434 18.888 20.128 34.9818 37.0213z" fill="#008f4c" fill-rule="evenodd"/><path d="m147.5096 612.0756c-23.5564 7.6396-58.3708-34.7055-113.0173-16.7451 58.3195-22.5679 86.8647 24.0591 116.799 12.096" fill="#008f4c" fill-rule="evenodd"/><path d="m181.6709 624.3479c25.6551-37.199-15.2316-58.1022-42.3728-88.6432 5.7052 33.9509-7.2491 85.5059 42.3728 88.6432z" fill="#008f4c" fill-rule="evenodd"/><path d="m186.5739 641.7714c-16.4617-27.6923-35.0003-77.2917-47.3996-106.1673 20.8936 40.0629 34.9968 79.1189 51.5028 105.7651" fill="#008f4c" fill-rule="evenodd"/><path d="m76.7981 618.1561c8.9449 2.0974 19.5728 3.8371 29.6886 6.7651 10.1609 2.9408 14.7081 2.5486 22.29 4.5234 12.4061 3.2312 33.2871-11.2819 68.6644 22.8718-32.7771 38.7984-90.552 24.2678-120.6431-34.1603z" fill="#008f4c" fill-rule="evenodd"/><path d="m218.821 655.4483c-5.137.4672-11.9937-2.6919-16.6051-2.2962-91.9798 7.8938-82.6749-11.1682-125.4178-34.996 38.3799 20.66 45.9414 39.692 120.7864 31.7109 6.1574-.6566 11.86 1.0174 16.5749.459" fill="#008f4c" fill-rule="evenodd"/><path d="m264.1853 673.102c-24.2409 30.6049-54.2246 3.5844-88.3357-9.7995 30.7077-4.668 71.027-28.9915 88.3357 9.7995z" fill="#008f4c" fill-rule="evenodd"/><path d="m279.6296 673.0557c-33.1073-8.2345-80.9386-8.1725-103.78-9.7532 42.9149 6.1197 75.7093 6.1493 103.3556 12.0951" fill="#008f4c" fill-rule="evenodd"/><path d="m203.8124 620.4373c44.0092-12.6835 76.1215 19.3466 95.5087 53.9778-64.053 13.6717-57.184-36.1593-95.5087-53.9778z" fill="#008f4c" fill-rule="evenodd"/><path d="m309.1298 680.8555c-57.0503-24.5058-75.3534-58.139-105.3174-60.4182 31.4004 1.6616 59.6661 38.5259 106.4087 56.4466" fill="#008f4c" fill-rule="evenodd"/></g><g><path d="m587.4535 617.9499c-3.4039 4.4716-3.5652 9.3374-.3602 10.8682 3.2048 1.5309 8.5623-.853 11.9662-5.3245 3.4038-4.4716 3.5651-9.3375.3602-10.8683s-8.5624.8532-11.9662 5.3246z" fill="#ed1c24"/><path d="m590.0333 627.2927c-8.9216 8.0289-6.8041 19.6366-4.7291 25.9908l-4.3819 4.5951c-1.2403-9.2472-2.8411-21.9171 6.6602-31.5929 1.5508-.3392 2.3635.1767 2.4507 1.0071z" fill="#008f4c" fill-rule="evenodd"/><path d="m606.2036 654.7284c-9.9536 6.8023-17.5339 5.0393-23.5461 1.7789l-5.5485 3.2076c9.1128 3.0616 17.8742 4.5523 29.6141-2.4622.6602-1.3979.3036-2.2722-.5196-2.5244z" fill="#008f4c" fill-rule="evenodd"/><path d="m611.3961 663.2268c-5.2892 2.035-10.1008.8913-10.747-2.5547-.6463-3.4459 3.1175-7.8893 8.4068-9.9244 5.2892-2.0352 10.1008-.8914 10.747 2.5545.6462 3.446-3.1176 7.8893-8.4068 9.9246z" fill="#ed1c24"/><path d="m606.9671 634.9709c-3.5654 3.1647-8.9119 4.4363-11.9416 2.8403-3.0298-1.5961-2.5956-5.4554.9699-8.62 3.5653-3.1647 8.9118-4.4364 11.9416-2.8404 3.0297 1.596 2.5955 5.4554-.9699 8.62z" fill="#ed1c24"/><path d="m580.8393 658.5252c6.6375-6.5279 12.3828-14.2477 18.0579-22.0612-.4855-.7142-1.3325-.6669-2.3405-.279-6.761 9.0172-13.4041 17.0369-21.1945 24.1848z" fill="#008f4c" fill-rule="evenodd"/><path d="m625.5292 681.7708c-7.9484-.3214-17.2907-1.388-26.3546-1.2456-9.1043.1428-12.9479-1.3475-19.7118-1.4407-11.0673-.1525-27.0001-18.5631-61.929 3.6939 22.8462 43.4726 74.3172 44.6537 107.9954-1.0076z" fill="#008f4c" fill-rule="evenodd"/><path d="m625.5292 681.7708c-33.9702 7.6859-44.4583 26.8666-107.4252-1.1625-5.1449-2.2901-10.6626-2.1251-14.6275-3.8081l-4.6865 3.4985c4.3387 1.7058 10.6774.4492 14.5393 2.0502 72.0281 29.861 73.8473 10.6976 112.1999-.5779z" fill="#008f4c" fill-rule="evenodd"/><path d="m710.1093 381.657c28.7608 32.7108 23.6358 78.6847 10.8692 114.6294-38.8311-50.1729-4.0785-70.6889-10.8692-114.6294z" fill="#008f4c" fill-rule="evenodd"/><path d="m710.1093 381.657c14.1771 29.2339 2.7781 69.1857 13.4711 120.7369l-3.4383 4.2567c-11.8834-71.082 2.1483-96.3776-10.0328-124.9935z" fill="#008f4c" fill-rule="evenodd"/><path d="m757.5864 360.5029c-9.2944 84.6914-30.4839 160.178-64.5061 211.7903-45.3443 68.7882-122.6524 103.5377-207.311 114.6978-50.7988 6.6965-162.952 19.2163-181.3035 60.242l-12.6036-15.9374c29.3903-34.2653 127.457-48.068 185.4265-56.292 114.6287-16.2623 164.5402-52.1127 201.3202-101.396 35.308-47.3108 58.7607-124.3617 69.1077-214.1123z" fill="#008f4c" fill-rule="evenodd"/><path d="m745.682 405.3669c-33.9687-28.8086-3.8962-64.8042 12.656-104.8668 4.1559 36.2064 28.6553 83.0731-12.656 104.8668z" fill="#008f4c" fill-rule="evenodd"/><path d="m744.2634 423.7837c10.6437-38.9241 6.2863-79.1335 14.0745-123.2836-8.6052 50.4933-8.5772 86.3167-16.4044 118.828" fill="#008f4c" fill-rule="evenodd"/><path d="m304.071 737.0717c2.3946 5.322 1.6085 10.7491-1.7543 12.1142-.5118.2077-1.0538.3141-1.6136.3141-3.2027 0-6.7863-2.9699-8.8163-7.4819-2.3944-5.3221-1.6084-10.7493 1.7545-12.1146 3.3627-1.3648 8.0355 1.8466 10.4297 7.1682z" fill="#008f4c" fill-rule="evenodd"/><path d="m795.0912 407.4444c-4.926 6.3763-11.2618 13.4658-16.4759 21.0361-5.2375 7.6038-8.6776 9.9027-12.7267 15.4347-6.6252 9.0518-30.5797 11.3916-33.469 53.3228 39.0721 5.4505 67.0804-21.5469 67.0804-61.1579 0-8.963-1.3931-18.5822-4.4088-28.6356z" fill="#008f4c" fill-rule="evenodd"/><path d="m719.1886 510.0444c3.9017-2.5813 6.835-7.4074 10.4194-9.5862 61.9922-37.6822 53.4431-53.2685 65.4832-93.0137-14.8636 47.7759-16.0563 58.2423-62.4803 87.9596-4.8387 2.9036-9.5269 7.6455-13.1909 9.9312" fill="#008f4c" fill-rule="evenodd"/><path d="m732.8777 474.7369c38.1675-5.5525 30.8197-45.6875 37.0559-82.4474-19.6718 24.5202-60.8017 47.386-37.0559 82.4474z" fill="#008f4c" fill-rule="evenodd"/><path d="m724.9191 488.2494c10.0522-33.2396 29.4711-62.4589 45.0145-95.9599-9.8908 27.9957-33.651 69.5093-42.8273 96.7889" fill="#008f4c" fill-rule="evenodd"/><path d="m695.3201 464.7024c30.1635 43.1256 12.1371 82.0717-13.8519 107.5289-39.2251-63.536 11.9315-65.338 13.8519-107.5289z" fill="#008f4c" fill-rule="evenodd"/><path d="m680.2452 579.5978c.8869-62.4813 23.4595-82.7795 15.0749-114.8954 12.1811 30.5744-10.475 52.7317-11.5839 110.0803" fill="#008f4c" fill-rule="evenodd"/><path d="m735.1574 534.576c-3.3179 4.5242-7.9707 6.094-10.3921 3.506-2.4213-2.5878-1.6945-8.3535 1.6234-12.8776 3.318-4.5243 7.9707-6.094 10.392-3.5061 2.4214 2.5879 1.6945 8.3535-1.6233 12.8777z" fill="#ed1c24"/><path d="m699.7659 552.6427c9.2972-1.519 20.7504-3.9498 27.3017-15.7614-.1283-1.5668-.8658-2.1858-1.6936-2.0265-5.131 10.7832-17.4686 11.9881-24.2165 11.8745" fill="#008f4c" fill-rule="evenodd"/><path d="m697.858 556.5307c-5.6377-7.7344-9.6549-15.5937-6.3326-28.7492 1.156-1.0321 2.1055-.9491 2.5911-.2433h-.0001c-3.6428 11.4027.9598 19.1757 5.8776 23.9173" fill="#008f4c" fill-rule="evenodd"/><path d="m684.3803 525.0979c-.4101 5.5994 2.11 9.8208 5.6288 9.4289 3.5187-.3918 6.7035-5.2486 7.1135-10.8479.41-5.5994-2.1101-9.8209-5.6288-9.429-3.5187.3918-6.7035 5.2486-7.1135 10.848z" fill="#ed1c24"/><path d="m712.9764 521.0616c-2.0082 4.2966-1.6637 9.7278.7692 12.1308 2.4329 2.4033 6.033.8683 8.041-3.4283 2.0081-4.2966 1.6637-9.7277-.7692-12.1308s-6.0329-.8683-8.041 3.4283z" fill="#ed1c24"/><path d="m699.7491 549.7524c4.3532-8.184 8.2809-12.9697 14.1588-20.6171.8327.2516 1.0361 1.0672.9579 2.1341-6.7213 9.0261-7.2468 9.4696-11.8597 18.9255" fill="#008f4c" fill-rule="evenodd"/><path d="m786.3761 503.6992c-12.0031 49.1455-49.9036 58.0578-83.2049 52.8875 20.8052-68.3355 52.6475-29.3382 83.2049-52.8875z" fill="#008f4c" fill-rule="evenodd"/><path d="m693.8605 562.0073c44.0815-36.4019 76.4917-34.1265 92.5156-58.3081-12.7956 25.0744-54.3496 28.8445-88.964 60.1082" fill="#008f4c" fill-rule="evenodd"/><path d="m661.1752 611.6654c13.5149 1.615 16.8197 8.6975 31.1412 2.8183 15.4752-6.3528 46.0175-19.8497 73.1913-19.1533-19.485-14.1425-52.7366-32.9032-69.3508-20.6864-12.5707 9.2434-18.888 20.128-34.9818 37.0213z" fill="#008f4c" fill-rule="evenodd"/><path d="m652.4904 612.0756c23.5564 7.6396 58.3708-34.7055 113.0173-16.7451-58.3195-22.5679-86.8647 24.0591-116.799 12.096" fill="#008f4c" fill-rule="evenodd"/><path d="m618.3291 624.3479c-25.6551-37.199 15.2316-58.1022 42.3728-88.6432-5.7052 33.9509 7.2491 85.5059-42.3728 88.6432z" fill="#008f4c" fill-rule="evenodd"/><path d="m613.4261 641.7714c16.4617-27.6923 35.0003-77.2917 47.3996-106.1673-20.8936 40.0629-34.9968 79.1189-51.5028 105.7651" fill="#008f4c" fill-rule="evenodd"/><path d="m723.2019 618.1561c-8.9449 2.0974-19.5728 3.8371-29.6886 6.7651-10.1609 2.9408-14.7081 2.5486-22.29 4.5234-12.4061 3.2312-33.2871-11.2819-68.6644 22.8718 32.7771 38.7984 90.552 24.2678 120.6431-34.1603z" fill="#008f4c" fill-rule="evenodd"/><path d="m581.1791 655.4483c5.137.4672 11.9937-2.6919 16.6051-2.2962 91.9798 7.8938 82.6749-11.1682 125.4178-34.996-38.3799 20.66-45.9414 39.692-120.7864 31.7109-6.1574-.6566-11.86 1.0174-16.5749.459" fill="#008f4c" fill-rule="evenodd"/><path d="m535.8147 673.102c24.2409 30.6049 54.2246 3.5844 88.3357-9.7995-30.7077-4.668-71.027-28.9915-88.3357 9.7995z" fill="#008f4c" fill-rule="evenodd"/><path d="m520.3704 673.0557c33.1073-8.2345 80.9386-8.1725 103.78-9.7532-42.9149 6.1197-75.7093 6.1493-103.3556 12.0951" fill="#008f4c" fill-rule="evenodd"/><path d="m596.1876 620.4373c-44.0092-12.6835-76.1215 19.3466-95.5087 53.9778 64.053 13.6717 57.184-36.1593 95.5087-53.9778z" fill="#008f4c" fill-rule="evenodd"/><path d="m490.8702 680.8555c57.0503-24.5058 75.3534-58.139 105.3174-60.4182-31.4004 1.6616-59.6661 38.5259-106.4087 56.4466" fill="#008f4c" fill-rule="evenodd"/></g></g><g stroke="#000" stroke-linecap="round" stroke-linejoin="round"><path d="m150.5.5v474.25c0 68.898 55.852 124.75 124.75 124.75h62.375c27.289 0 50.92 17.163 62.375 40 11.455-22.837 35.086-40 62.375-40h62.375c68.898 0 124.75-55.852 124.75-124.75v-474.25z" fill="#eac102"/><path d="m594.056.5v577.9883c10.4711-7.0093 19.817-15.5635 27.722-25.334v-552.6543z" fill="#ed1c24"/><path d="m538.6113.5v598.2285c9.6131-1.0629 18.8939-3.2173 27.7217-6.3379v-591.8906z" fill="#ed1c24"/><path d="m510.8889 599.5v-599h-27.7222v599z" fill="#ed1c24"/><path d="m427.722.5v608.8731c8.3164-5.05 17.7067-8.4161 27.722-9.4922v-599.3809z" fill="#ed1c24"/><path d="m150.5.5v474.25c0 68.898 55.852 124.75 124.75 124.75h62.375c27.289 0 50.92 17.163 62.375 40v-639z" fill="#0071bc"/></g><g stroke="#000" stroke-linecap="round" stroke-linejoin="round"><g><path d="m273.343 60.5002a51.0293 51.0293 0 0 0 -50.7637 51.0293 51.0293 51.0293 0 0 0 51.0293 51.0293 51.0293 51.0293 0 0 0 24.0742-6.0371 29.8337 29.8337 0 0 0 29.1699 23.5801 29.8337 29.8337 0 0 0 29.834-29.832 29.8337 29.8337 0 0 0 -29.834-29.834 29.8337 29.8337 0 0 0 -3.0273.1543 51.0293 51.0293 0 0 0 .8125-9.0606 51.0293 51.0293 0 0 0 -51.0293-51.0293 51.0293 51.0293 0 0 0 -.2656 0z" fill="#eac102"/><path d="m331.2963 261.8633-8.3321-67.768c-6.8509-11.665-19.5614-24.4409-32.2176-34.995 3.8943-12.531 14.2474-21.664 15.5533-38.3278.9059-11.5597-4.4526-25.4453-18.6795-30.8123-14.7725-5.5728-38.746 5.0443-45.4746 24.2524-3.9888 11.3869-1.2068 28.0387 1.1076 38.4998-8.4605 4.8996-13.9921 8.9717-31.3844 18.6084-7.3541 4.0747-14.6739 9.4165-16.1088 21.108-4.734 38.5724.1025 55.2675 4.4438 77.7666z" fill="#800080" fill-rule="evenodd"/><path d="m269.6386 159.3781c6.761-1.7156 26.3169-10.3536 29.9957-34.1618 1.7887-11.5759-3.7852-24.6611-16.3865-27.7737-8.9953-2.2219-30.9185 7.1157-32.2176 27.7737-.54 8.5872-.967 20.0975 4.4673 28.6007z" fill-rule="evenodd"/><path d="m277.1375 149.3795c-3.7949 7.1843-6.5571 14.5752-6.6657 22.4968-6.8353-6.6726-11.4797-13.0751-14.9744-18.0593l2.1984-18.6021z" fill="#ffb380" fill-rule="evenodd"/><path d="m282.1368 105.6358c-13.4369-3.8854-21.9407 8.2746-24.1632 14.3035-5.1715.9234-3.8278 10.3849-1.9442 13.8869-.619 8.3132 4.7087 22.4968 15.5533 22.4968 10.2546 0 23.2803-16.8952 23.5403-27.8494 3.0272-10.3241 1.2889-18.7099-12.9863-22.8378z" fill="#ffb380" fill-rule="evenodd"/><path d="m243.2535 152.7124c5.32 20.9085 21.5543 39.4751 34.7172 54.7143" fill="none"/><path d="m270.4718 171.8763c9.2874 8.7859 18.673 17.857 31.9398 26.9405" fill="none"/><path d="m259.7111 101.1854c-33.7186 23.0088-1.3431 74.3155 15.2045 94.5763" fill="none"/><path d="m290.7466 159.1003c-3.5701 10.2959-3.0569 21.6566-2.5487 28.8202" fill="none"/><path d="m288.8025 153.8233c-5.4242 7.7767-9.1557 16.1425-12.0087 23.9191" fill="none"/><path d="m212.9801 187.7073c14.9006 9.0746 23.2761 41.423 22.4968 65.5461" fill="none"/><path d="m207.9808 208.5376c13.9314 11.3724 19.8003 25.4323 24.9964 39.7165-8.3694-10.5221-17.3471-20.5228-30.8289-26.6628" fill="none"/><path d="m213.9438 170.2912c14.303 8.5986 45.3259 52.8739 59.0277 74.0746" fill="none"/><path d="m225.6901 163.6086c11.3753 13.2586 27.3933 26.5782 46.1704 39.0965" fill="none"/><path d="m239.0874 191.0402c20.6819 20.0468 31.1287 26.7138 49.1596 38.05" fill="none"/><path d="m323.0138 168.5498c10.6257 2.6976 19.6209 7.3875 21.1483 14.4181 2.4255 11.1646.5876 20.0121 1.9226 33.0013 1.0484 10.2005-10.8344 20.2065-18.2644 26.9137l-46.4621-.9612 19.2257-24.9913c-8.4237.7122-16.7673 1.8247-25.3138 1.9224-2.4526.0281-1.0208-17.3942 1.089-17.5022 4.063-.208 9.171-.8807 13.9261-1.0512 1.6727-4.3334 3.0655-11.4761 5.9038-18.6566 2.5655-6.4902 11.151-9.1409 16.8916-12.7721z" fill="#800080"/><path d="m311.8318 171.4057c-.4309 2.2848-.8823 4.6218-.9457 7.274 2.7159 2.3258 10.7421 4.4799 15.9314 3.4188 1.4594-4.4208 2.3041-8.8692 2.9098-12.8749z" fill="#ffb380" fill-rule="evenodd"/><path d="m330.0633 193.5411c-1.9904 7.9032-2.6364 14.6899-1.2304 22.5931l-9.0232 14.8938" fill="none"/><path d="m313.1242 173.5507c-11.3112-4.5128-8.6648-17.1124-3.8141-25.1235 1.3923-13.1772 10.6159-14.7999 20.3761-11.5021 11.588 3.9153 10.8483 16.3378 5.5432 27.3348-3.6377 7.5405-14.7297 12.2334-22.1052 9.2908z" fill="#ffb380"/><path d="m342.6832 144.4277c3.4844 12.1721-.8008 21.7909-10.1583 25.9761-3.584 2.0869-5.0378 2.2946-4.8768-3.4888 3.4653-.7296 6.7191-5.6909 3.1993-7.9881-1.9761-3.2434 4.2392-7.1496 1.1548-11.8993-1.9207-2.9577-5.8056-4.2562-8.1661-3.671-2.853.7072-7.8492 2.5002-6.4354-3.1722-9.0789 3.8017-5.8372-2.9943-3.2302-4.5194 10.0679-5.8893 25.3565-2.2633 28.5129 8.7627z"/><path d="m316.8448 156.8283c-3.2319 3.2306-4.3819 5.2536-1.0067 5.9467" fill="none"/><path d="m311.5322 164.7453c1.1626.6861 3.3415 1.8137 5.0441 2.1711" fill="none"/><path d="m311.6121 149.7828c1.5853-.2373 3.369-.3126 4.9809 1.5179" fill="none"/><path d="m321.9604 152.5259c2.3028-.4943 3.4337.5458 4.8579 1.2019" fill="none"/><path d="m312.78 154.6789c-.4949-.1233-.7267-.9032-.5178-1.7418.209-.8386.7797-1.4185 1.2747-1.2952.495.1234.7268.9032.5178 1.7418s-.7797 1.4185-1.2747 1.2952z" fill-rule="evenodd"/><path d="m322.4498 158.2117c-.5591-.1393-.824-1.0077-.5918-1.9394.2313-.9319.8737-1.5742 1.4328-1.4349.559.1393.824 1.0075.5917 1.9394-.2324.9317-.8737 1.5742-1.4327 1.435z" fill-rule="evenodd"/><path d="m326.8174 182.0984c-3.6308 10.705-9.0839 24.4055-13.9672 33.242" fill="none"/><path d="m310.8861 178.6797c.0206 9.5003 4.6413 13.7452 9.8207 19.2033" fill="none"/><path d="m290.2851 200.2989c2.7548-.1074 4.2128 1.5814 6.3656 3.1269" fill="none"/><path d="m333.2309 214.5501c-1.3154.1307-2.7649.6151-4.3981 1.5841 2.0394.7671 3.4705 1.8991 4.8346 3.0713" fill="none"/><path d="m324.1986 198.6103c-1.9473 7.105-4.5149 14.552-4.6558 19.0578" fill="none"/><path d="m304.1207 177.2249c.2508 12.5758 2.3626 24.4072 4.5102 36.2244" fill="none"/><path d="m298.883 186.5356c.8344 10.7013 2.316 15.9606 3.9283 23.1312" fill="none"/><path d="m258.557 200.8889c-.4783 2.5338 6.4717.5728 6.0898 2.0511-5.6745 2.2795-10.0289.5226-10.2619 2.2325-.1636 1.1994 1.0424 1.6547 2.0447 1.4233-.9985.9614-.0593 2.3994 2.5685 2.6306-.9945 1.5398 1.1918 2.1863 3.3213 2.2083-.143 1.4198 1.9771 2.1881 4.1377 2.213 1.9446.0225 3.0489-.3567 4.7341-.7047 2.3899-.4935 4.3473-.6599 7.1733-.6466-.0138.3106.7386-6.6854-.4795-9.2987-3.8595-.8615-6.6169-1.8308-8.8927-2.6867-3.6853-1.386-10.2771-.2603-10.4353.5778z" fill="#ffb380"/><path d="m256.427 206.5993c1.0786.0509 3.7233.1763 4.8981-.0125" fill="none"/><path d="m258.9957 209.2299c.819.0187 2.9645-.068 3.963-.3646" fill="none"/><path d="m262.3172 211.438c1.0391-.0871 2.2331-.1406 3.1578-.3772" fill="none"/><path d="m276.359 201.3506c3.4483-.2226 2.8085 17.497-1.089 17.5022" fill="none"/><path d="m292.3542 124.2421c-1.8899-2.0817-4.124-3.6475-6.9037-4.8518" fill="none"/><path d="m276.1016 116.4536c-1.8042-.8875-7.322-1.2226-9.5398-.041" fill="none"/><path d="m291.2285 127.7152c-2.3428.9469-7.6926.727-8.2429-3.1767 2.0506-1.2673 6.9472.6336 8.2429 3.1767z" fill="#e5e5e5"/><path d="m285.8898 126.1107c-.1787.6729.1321 1.3391.6941 1.488.5621.1489 1.1627-.2758 1.3415-.9488.1787-.6729-.1321-1.3391-.6942-1.488-.5619-.1489-1.1627.2758-1.3414.9488z"/><path d="m266.077 119.8311c1.3718 2.1196 5.8758 5.0104 8.5737 2.1324-.9481-2.2141-6.0491-3.4694-8.5737-2.1324z" fill="#e5e5e5"/><path d="m271.757 121.4294c-.1787.6729-.7795 1.0977-1.3415.9488-.5621-.1489-.8729-.8151-.6941-1.488.1787-.6729.7794-1.0977 1.3414-.9488s.8729.8151.6942 1.488z"/><path d="m274.6535 142.7227c.8481.9037 1.3239 1.8577 3.7217 2.6839-3.4477.1712-9.6075-1.5746-11.2108-3.0977 1.4564.4601 3.1332.4952 4.9827-.3428.5115.7224 1.1887 1.2043 2.5065.7566z" fill="none"/><path d="m278.7137 126.9501c-.7835 3.2201-1.2664 6.84-1.5573 9.9606-.3004 3.2242-3.9096 2.3568-3.7027.1737" fill="none"/><path d="m277.4785 135.6481c2.3944 2.1679 1.0791 4.6101-.7917 3.2827" fill="none"/><path d="m273.4279 138.0933c-.7654.4056-1.6803.056-2.1526-.6569-.7431-1.1233.4106-1.6332 1.1435-2.345" fill="none"/></g><g><path d="m300.3184 216.3457c-10.0349.2161-20.3271 4.5799-27.4981 14.0371-12.8308-5.3535-34.4636-1.7597-43.3666 12.2521-38.8063-13.0074-71.4162 29.6957-46.4622 67.2256-9.8812 7.9865-16.4439 23.6835-16.1492 35.5978-6.2504 6.7407-12.4004 17.0696-16.3423 28.7155v100.5762c0 6.3503.4772 12.5885 1.3926 18.6836 7.603 14.3983 22.8402 24.0703 40.4082 24.0703 4.8813.0003 9.7308-.7839 14.3633-2.3223 11.417 15.3035 29.3893 24.3184 48.4824 24.3184 17.1428-.0001 33.4804-7.2741 44.9512-20.0137 6.8559 12.3516 19.8713 20.0137 33.998 20.0137 13.7711-.0001 26.3285-7.7103 33.3176-19.5761 5.0248 2.2667 10.6604 3.8647 16.1727 3.8651 5.8673-.0001 11.4259-1.3078 16.4141-3.6348v-185.707c-4.282-4.6748-9.2093-8.6827-14.8438-11.7617 6.5046-32.7694-11.5506-78.6732-53.2162-83.6533-3.0276-14.4501-16.9553-23.0024-31.6217-22.6866z" fill="#e5e5e5"/><path d="m182.9915 309.8605c7.9137-7.1365 25.7408-12.0607 33.4553-11.7919" fill="none"/><path d="m229.4537 242.6349c-5.8464 9.9691-7.529 22.9656-1.9966 35.2481" fill="none"/><path d="m272.8203 230.3828c11.392 4.6849 19.5653 14.0109 21.0045 21.8095" fill="none"/><path d="m331.94 239.0323c3.3021 10.8778-1.0979 23.1642-6.6135 29.0638" fill="none"/><path d="m385.1563 322.6856c-7.95-5.5242-21.3016-9.0526-33.5273-7.4898" fill="none"/><path d="m225.9279 326.8178c-5.0459-32.5207 31.1576-47.7558 56.3543-38.9608" fill="none"/><path d="m273.0275 299.292c19.3181-34.1747 63.392-14.7783 63.0035 8.5636" fill="none"/><path d="m166.8423 345.4583c-1.7127 27.067 17.064 45.0157 30.8221 51.4621" fill="none"/><path d="m206.6641 515.1816c-6.1302-9.6828-8.7513-20.8696-9.1795-32.9961" fill="none"/><path d="m300.0977 519.4863c-3.1741-7.9888-2.9213-15.7298.4085-25.5203" fill="none"/><path d="m367.4133 519.9239c4.4242-9.1504 3.5047-20.0308-.1249-28.0999" fill="none"/><path d="m150.5 432.3875c5.314-9.7217 15.6987-14.4188 28.1332-14.2734" fill="none"/><path d="m379.0884 430.8443c28.8825 14.1329.3342 72.7565-38.2469 39.6008" fill="none"/><path d="m355.7568 402.8628c2.1144-20.4999 29.5206-25.1635 44.2432-13.3241" fill="none"/></g><g fill-rule="evenodd"><path d="m189.9158 368.2532h111.0916l3.5319 60.6234-3.5319 60.6234h-111.0916z" fill="#c87137"/><path d="m339.1977 320.5h-87.8382l30.5524 51.5422h87.8382z" fill="#ed1c24"/><path d="m362.112 372.042-28.452-47.5515-32.6528 47.5515v117.458l20.5177-5.089 20.1286-4.9925 20.4584-5.0743z" fill="#c87137"/><path d="m211.3024 320.5h127.8953l-30.5525 51.5422h-127.8953z" fill="#ed1c24"/><path d="m212.8764 391.7448h14.5124v18.187h-14.5124z"/><path d="m263.5342 391.7448h14.5124v18.187h-14.5124z"/><path d="m321.5248 438.5696 20.129-2.0961v42.9451l-20.129 4.9924z"/><path d="m325.9806 373.9366 11.1583-.1704v17.2351l-11.1583 1.146z"/></g></g><path d="m151.5 1.5v473.25c0 68.35 55.4 123.75 123.75 123.75h62.375c27.18 0 50.966 17.254 62.375 40 11.409-22.746 35.195-40 62.375-40h62.375c68.35 0 123.75-55.4 123.75-123.75v-473.25z" fill="none" stroke="#000" stroke-linecap="round" stroke-linejoin="round" stroke-width="3"/></svg>