<?xml version="1.0" encoding="utf-8"?><!DOCTYPE svg PUBLIC "-//W3C//DTD SVG 1.1//EN" "http://www.w3.org/Graphics/SVG/1.1/DTD/svg11.dtd"><svg viewBox="0 0 500 640" xmlns="http://www.w3.org/2000/svg"><g stroke="#000" stroke-linecap="round" stroke-linejoin="round"><path d="m.5.5v474.25c0 68.898 55.852 124.75 124.75 124.75h62.375c27.289 0 50.92 17.163 62.375 40 11.455-22.837 35.086-40 62.375-40h62.375c68.898 0 124.75-55.852 124.75-124.75v-474.25z" fill="#808080"/><path d="m.5.5v166.333h499v-166.333z" fill="#0071bc"/></g><g stroke="#000" stroke-linecap="round" stroke-linejoin="round"><path d="m54.1563 166.833.7188 55.8233-54.375 3.0313v5l54.4375-3.0313 1.3438 104.5625-55.7813-4.5v4.9688l40.1875 3.25 31.9688 132.3438-72.1563-1.4063v4.9688l97.5625 1.9063 28.5313 69.0938-75.875 30.5 4.4063 3.4375 67.625-27.125 22.0938 49.8438h5.5l-23-51.6875 116.7188-46.8125 66.125 98.5h5.875l-66.9063-99.9063 126.375-27.0625 94.25 80.8125 3.25-3.7813-73.5625-63.0938 33.4375-97.7813 66.5938 12.4375v-5.2188l-39.25-7.3125-46.4375-93.4688 85.6875-.0625v-4.9688l-88.1563.0625-61.0625-123.3233h-3.0625l-129.2813 78.0108-14.6563-78.0108h-4.9063l8.8438 47.3233-88.0938 4.9063-.8438-52.2295h-5l.8438 52.5108-54.2813 3.0313-.7188-55.542zm293.3125 5.5733 21.6563 43.75-99.125 57-48.4647-24.3005zm-139.3125 46.6875 23.8125 127.2813-59.7813-4.8125-1.5625-120.375zm163.1875 1.5313 35.0313 70.7813-133.8125 60.1875.0312-74.1563zm-205.7188.8438 1.5625 119.6875-46.1563-3.7188-1.8125-113.375zm-51.4063 2.875 1.8125 112.6875-54.75-4.4063-1.375-105.25zm105.375 29.2188 48 23.9688-.0312 75.125-30.3443-5.5579zm189 42.3125 45.5 91.5625-176.5565-32.7816zm-362.6563 40.5 188.875 15.2813 193.1563 36.0938-32.625 95.2188-119.0909-102.3266c-.9017-.7732-1.8011-.7764-2.7188-.3125l-173.914 88.0959-21.4108-.4172zm228 49.0625 96.875 83.0313-124.5625 26.625-44.2813-73.0313zm-76.4375 38.9063 43.875 72.3438-110.1563 44.2813-28.2813-68.5z"/><path d="m89.0554 402.8572c-2.6456-15.2247 82.4379-52.2072 128.7858-88.4996 20.8316-16.312 49.7239-20.729 65.3836-9.9067 40.8846 28.2552 67.1412 61.8864 112.2748 78.5929 18.7942 6.9568 20.7063 22.0797 4.623 31.7013-78.7328 47.1012-212.2522 38.979-269.6598 18.5657-9.0564-3.2203-12.9511-12.6324-5.7081-18.85-13.2444-.6093-34.66-5.6221-35.6994-11.6037z" fill="#e5e5e5"/><path d="m124.7548 414.4609c6.3996-6.45 31.9889-18.7068 38.8971-21.2975" fill="none"/><path d="m273.3182 311.7158c19.3322 16.7758-33.0178 87.3957-23.7758 110.2942" fill="none"/><path d="m321.9819 376.2225c10.6775 19.1319 24.6101 25.2435 38.6512 30.921" fill="none"/></g><path d="m1.5 1.5v473.25c0 68.35 55.4 123.75 123.75 123.75h62.375c27.18 0 50.966 17.254 62.375 40 11.409-22.746 35.195-40 62.375-40h62.375c68.35 0 123.75-55.4 123.75-123.75v-473.25z" fill="none" stroke="#000" stroke-linecap="round" stroke-linejoin="round" stroke-width="3"/></svg>