<?xml version="1.0" encoding="utf-8"?><!DOCTYPE svg PUBLIC "-//W3C//DTD SVG 1.1//EN" "http://www.w3.org/Graphics/SVG/1.1/DTD/svg11.dtd"><svg viewBox="0 0 640 880" xmlns="http://www.w3.org/2000/svg"><g stroke="#000" stroke-linecap="round" stroke-linejoin="round"><path d="m110.4485 227.5001c0-8.4146 45.9425-25.5257 209.5515-25.5257 163.6089 0 209.5515 17.111 209.5515 25.5257s-45.9425 25.5257-209.5515 25.5257-209.5515-17.111-209.5515-25.5256z" fill="#eac102"/><g fill="none"><path d="m135.7538 216.4957v22.0089" stroke-width="6.6"/><path d="m143.5268 214.7089v25.5824" stroke-width="6.3"/><path d="m151.2999 213.5365v27.9272" stroke-width="6"/><path d="m159.0729 212.0851v30.8299" stroke-width="5.7"/><path d="m166.8471 210.8012v33.3979" stroke-width="5.4"/><path d="m174.6201 209.6846v35.631" stroke-width="5.1"/><path d="m182.3932 208.5686v37.863" stroke-width="4.8"/><path d="m190.1662 207.6194v39.7614" stroke-width="4.5"/><path d="m197.9404 207.005v40.9902" stroke-width="4.2"/><path d="m205.7135 206.2796v42.441" stroke-width="3.9"/><path d="m213.4865 205.163v44.6741" stroke-width="3.6"/><path d="m221.2607 204.5487v45.9029" stroke-width="3.3"/><path d="m229.0338 204.2697v46.4609" stroke-width="3"/><path d="m236.8068 203.6001v47.8001" stroke-width="2.7"/><path d="m244.5798 203.0415v48.9172" stroke-width="2.4"/><path d="m252.354 202.7067v49.5868" stroke-width="2.1"/><path d="m260.1271 202.2045v50.5912" stroke-width="1.8"/><path d="m267.9001 201.8691v51.262" stroke-width="1.5"/><path d="m275.6731 200.8641v53.272" stroke-width="1.2"/><path d="m283.4474 200.8641v53.272" stroke-width=".9"/><path d="m291.2204 200.8641v53.272" stroke-width=".6"/><path d="m298.9934 200.8641v53.272" stroke-width=".3"/><path d="m120.2065 221.799v11.4022" stroke-width="7.2"/><path d="m127.9796 218.9514v17.0973" stroke-width="6.9"/><path d="m504.2462 216.4957v22.0089" stroke-width="6.6"/><path d="m496.4732 214.7089v25.5824" stroke-width="6.3"/><path d="m488.7002 213.5365v27.9272" stroke-width="6"/><path d="m480.9272 212.0851v30.8299" stroke-width="5.7"/><path d="m473.1529 210.8012v33.3979" stroke-width="5.4"/><path d="m465.3799 209.6846v35.631" stroke-width="5.1"/><path d="m457.6069 208.5686v37.863" stroke-width="4.8"/><path d="m449.8338 207.6194v39.7614" stroke-width="4.5"/><path d="m442.0596 207.005v40.9902" stroke-width="4.2"/><path d="m434.2866 206.2796v42.441" stroke-width="3.9"/><path d="m426.5136 205.163v44.6741" stroke-width="3.6"/><path d="m418.7393 204.5487v45.9029" stroke-width="3.3"/><path d="m410.9663 204.2697v46.4609" stroke-width="3"/><path d="m403.1933 203.6001v47.8001" stroke-width="2.7"/><path d="m395.4202 203.0415v48.9172" stroke-width="2.4"/><path d="m387.646 202.7067v49.5868" stroke-width="2.1"/><path d="m379.873 202.2045v50.5912" stroke-width="1.8"/><path d="m372.1 201.8691v51.262" stroke-width="1.5"/><path d="m364.3269 200.8641v53.272" stroke-width="1.2"/><path d="m356.5527 200.8641v53.272" stroke-width=".9"/><path d="m348.7797 200.8641v53.272" stroke-width=".6"/><path d="m341.0066 200.8641v53.272" stroke-width=".3"/><path d="m519.7935 221.799v11.4022" stroke-width="7.2"/><path d="m512.0205 218.9514v17.0973" stroke-width="6.9"/></g><g><path d="m108.7239 167.3606c-9.6698-4.1099-25.7718-24.1795-33.5203-34.604l-9.6635 7.206c12.5341 16.5507 22.1078 26.9678 29.7455 33.0652 3.8189 3.0486 7.1519 5.0912 10.645 6.1177z" fill="#eac102"/><path d="m531.2763 167.3606c9.6698-4.1099 25.7718-24.1795 33.5203-34.604l9.6635 7.206c-12.5341 16.5507-22.1078 26.9678-29.7455 33.0652-3.8189 3.0486-7.1519 5.0912-10.645 6.1177z" fill="#eac102"/><path d="m395.1566 128.9284c11.0061 25.76 47.6087 28.8679 67.6446 6.1552 7.9081 24.3699 35.579 26.565 56.056 11.8788 1.5542 25.9674 32.1675 24.3579 55.603-6.9997l42.2863-56.5806c1.891-2.5302 1.3136-6.5398-1.2264-8.4264-2.54-1.8867-6.585-1.3107-8.4749 1.2203l-42.2486 56.5806c-16.045 21.4879-40.5688 30.175-32.4918 6.5604l26.9063-78.6661c1.0218-2.9873-.7066-6.7073-3.7348-7.7431-3.0284-1.0358-6.6728.8466-7.6945 3.8339l-20.817 60.8634c-5.905 17.2646-24.1007 27.1833-36.3347 26.6342-12.2169-.5484-21.0132-10.7561-16.6176-32.2l13.6842-66.7576c.6188-3.0187-1.7694-6.2652-4.8112-6.8527-3.0418-.5876-6.4227 1.5445-7.0418 4.5633l-13.6842 66.7201c-8.2578 40.2627-62.5588 38.0775-58.2076-2.9652l7.4547-70.316c.3329-3.1396-2.1888-6.3794-5.3721-6.7116s-6.3106 2.318-6.6421 5.4577l-7.4066 70.1438c-4.3494 41.1906-65.9461 39.9723-65.9461.2628v-71.7791c0-3.1572-2.8392-6.1177-6.0398-6.1177s-6.0398 2.9605-6.0398 6.1177v71.7791c0 39.7094-61.5967 40.9278-65.9461-.2628l-7.4066-70.1438c-.3315-3.1397-3.4588-5.79-6.6421-5.4577-3.1832.3322-5.7049 3.572-5.3721 6.7116l7.4547 70.316c4.3512 41.0426-49.9498 43.2278-58.2076 2.9652l-13.6842-66.7201c-.6192-3.0188-4-5.1509-7.0418-4.5633-3.0418.5875-5.43 3.834-4.8112 6.8527l13.6842 66.7576c4.3956 21.4439-4.4007 31.6516-16.6176 32.2-12.2339.5491-30.4297-9.3696-36.3347-26.6342l-20.817-60.8634c-1.0217-2.9873-4.6662-4.8697-7.6945-3.8339s-4.7566 4.7558-3.7348 7.7431l26.9063 78.6661c8.0769 23.6147-16.4468 14.9275-32.4918-6.5604l-42.2486-56.5806c-1.8899-2.531-5.9349-3.107-8.4749-1.2203-2.54 1.8866-3.1174 5.8962-1.2264 8.4264l42.2863 56.5806c23.4355 31.3575 54.0488 32.967 55.603 6.9997 20.477 14.6863 48.1479 12.4912 56.056-11.8788 20.0359 22.7127 56.6385 19.6048 67.6446-6.1552 21.0101 27.072 60.1766 22.8874 75.1567-1.2916 14.9801 24.179 54.1466 28.3636 75.1567 1.2916z" fill="#eac102"/><path d="m320.0001 202.1505c-168.5697 0-220.1156-19.2704-220.1156-22.1504 0-2.8801 51.5459-22.1506 220.1156-22.1506s220.1156 19.2705 220.1156 22.1506c0 2.88-51.5459 22.1504-220.1156 22.1504zm-166.2428 3.8316c-39.2511-5.1822-68.2573-13.3333-68.2573-25.982 0-29.3963 156.6683-34.5 234.5-34.5s234.5 5.1037 234.5 34.5c0 12.6487-29.0063 20.7998-68.2573 25.982z" fill="#eac102" fill-rule="evenodd"/><path d="m195.2106 205.9825-83.2611 17.7122c-3.1142-14.9494-6.0548-28.5328-13.1783-42.5119-3.7867-7.4311 72.0672-24.2995 221.2289-24.2995s225.0156 16.8685 221.2289 24.2995c-7.1235 13.9792-10.0641 27.5624-13.1783 42.5119l-83.2611-17.7122z" fill="#eac102"/><path d="m172.6403 175.6149 43.2139-4.0342c4.3226-.4036 8.1289 2.7352 8.5344 7.0375.4055 4.3024-2.748 8.0908-7.0707 8.4943l-43.2139 4.0342c-4.3226.4036-8.1289-2.7352-8.5344-7.0375-.4055-4.3024 2.748-8.0908 7.0707-8.4943z" fill="#008f4c" fill-rule="evenodd"/><path d="m149.7965 187.9609c0 5.2467-4.2533 9.5-9.5 9.5s-9.5-4.2533-9.5-9.5 4.2533-9.5 9.5-9.5 9.5 4.2533 9.5 9.5z" fill="#e5e5e5" fill-rule="evenodd"/><path d="m263.8819 177.6193c0 5.2467-4.2533 9.5-9.5 9.5s-9.5-4.2533-9.5-9.5 4.2533-9.5 9.5-9.5 9.5 4.2533 9.5 9.5z" fill="#e5e5e5" fill-rule="evenodd"/><path d="m98.1378 201.4723 4.8212-10.8194 15.6742 2.7078-10.4478 13.9054z" fill="#ed1c24"/><path d="m98.1378 201.4723 20.4954-8.1118" fill="none"/><path d="m523.689 227.5001c0 2.6713-47.6993 20.5453-203.689 20.5453s-203.689-17.874-203.689-20.5453c0-2.6715 47.6993-20.5455 203.689-20.5455 155.9898 0 203.689 17.8739 203.689 20.5455zm13.311 0c0 27.2662-144.9766 32-217 32s-217-4.7338-217-32 144.9766-32 217-32c72.0235 0 217 4.7339 217 32z" fill="#eac102" fill-rule="evenodd"/><path d="m296.5969 168.2375-12.16 8.1548 12.16 8.1537h46.8064l12.16-8.1537-12.16-8.1548z" fill="#ed1c24"/><path d="m296.5969 168.2375 11.24 7.2984-11.24 9.01" fill="none"/><path d="m284.4368 176.3923 23.4-.8563h24.3266l23.4.8563" fill="none"/><path d="m343.4034 168.2375-11.24 7.2984 11.24 9.01" fill="none"/><path d="m466.8616 175.6149-43.2139-4.0342c-4.3227-.4036-8.1289 2.7352-8.5344 7.0375-.4055 4.3024 2.7481 8.0908 7.0707 8.4943l43.2139 4.0342c4.3227.4036 8.1289-2.7352 8.5344-7.0375s-2.7481-8.0908-7.0707-8.4943z" fill="#008f4c" fill-rule="evenodd"/><path d="m541.3642 201.4723-4.8212-10.8194-15.6743 2.7078 10.4479 13.9054z" fill="#ed1c24"/><path d="m541.3642 201.4723-20.4954-8.1118" fill="none"/><path d="m490.2036 187.9609c0 5.2467 4.2533 9.5 9.5 9.5s9.5-4.2533 9.5-9.5-4.2533-9.5-9.5-9.5-9.5 4.2533-9.5 9.5z" fill="#e5e5e5" fill-rule="evenodd"/><path d="m376.1182 177.6193c0 5.2467 4.2533 9.5 9.5 9.5s9.5-4.2533 9.5-9.5-4.2533-9.5-9.5-9.5-9.5 4.2533-9.5 9.5z" fill="#e5e5e5" fill-rule="evenodd"/><path d="m326.4721 44.8601c1.72-.6745 4.9136-3.9337 4.5568-7.0764-2.7913.4538-6.7554.5685-11.0289.5685-4.2737 0-8.2377-.1147-11.029-.5685-.3568 3.1427 2.8367 6.4019 4.5568 7.0764.8226.3227 3.0939.6369 6.4722.6369 3.3781 0 5.6494-.3142 6.4721-.6369z" fill="#eac102" fill-rule="evenodd"/><path d="m340.25 20.7501c0 11.1838-9.0662 20.25-20.25 20.25s-20.25-9.0662-20.25-20.25 9.0662-20.25 20.25-20.25 20.25 9.0662 20.25 20.25z" fill="#e5e5e5" fill-rule="evenodd"/><path d="m242.483 47.7197c1.6291-.8714 4.4187-4.4825 3.696-7.5617-2.7189.7778-6.6422 1.3564-10.8862 1.8572-4.2443.5009-8.1944.8516-11.0196.7281.014 3.1629 3.5675 6.0253 5.3548 6.4935.8548.2241 3.1472.2699 6.5023-.1261 3.3548-.3959 5.5736-.9742 6.3528-1.3911z" fill="#eac102" fill-rule="evenodd"/><path d="m253.3954 24.4656c0 11.1838-9.0662 20.25-20.25 20.25s-20.25-9.0662-20.25-20.25 9.0662-20.25 20.25-20.25 20.25 9.0662 20.25 20.25z" fill="#e5e5e5" fill-rule="evenodd"/><path d="m167.6017 56.2227c1.5374-1.0246 3.9655-4.888 2.9491-7.8831-2.6311 1.0366-6.4803 1.991-10.6562 2.8991-4.1761.9081-8.074 1.6384-10.8979 1.7881.3192 3.1467 4.1323 5.6529 5.9564 5.9465.8724.1405 3.1586-.0351 6.4597-.7529 3.301-.7178 5.4536-1.5075 6.189-1.9976z" fill="#eac102" fill-rule="evenodd"/><path d="m176.4151 33.9674c0 11.1838-9.0662 20.25-20.25 20.25s-20.25-9.0662-20.25-20.25 9.0662-20.25 20.25-20.25 20.25 9.0662 20.25 20.25z" fill="#e5e5e5" fill-rule="evenodd"/><path d="m97.1886 69.0549c1.3617-1.2486 3.1675-5.4392 1.703-8.2426-2.4406 1.4285-6.0975 2.9629-10.0843 4.5018-3.987 1.5389-7.7264 2.8593-10.4939 3.4411.7988 3.0604 4.9517 4.951 6.7993 4.9608.8836.0049 3.1157-.5199 6.2674-1.7364 3.1515-1.2164 5.1573-2.3274 5.8086-2.9247z" fill="#eac102" fill-rule="evenodd"/><path d="m102.6558 48.7836c0 11.1838-9.0662 20.25-20.25 20.25s-20.25-9.0662-20.25-20.25 9.0662-20.25 20.25-20.25 20.25 9.0662 20.25 20.25z" fill="#e5e5e5" fill-rule="evenodd"/><path d="m41.2595 86.2023c.8955-1.616 1.2791-6.1629-.9989-8.3572-1.8617 2.1287-4.8432 4.7437-8.1362 7.4674-3.2932 2.7239-6.4208 5.162-8.861 6.5913 1.7281 2.6491 6.2662 3.1251 8.0215 2.5486.8396-.2756 2.79-1.4811 5.3932-3.6343 2.6031-2.1531 4.153-3.8428 4.5813-4.6158z" fill="#eac102" fill-rule="evenodd"/><path d="m41 71.7868c0 11.1838-9.0662 20.25-20.25 20.25s-20.25-9.0662-20.25-20.25 9.0662-20.25 20.25-20.25 20.25 9.0662 20.25 20.25z" fill="#e5e5e5" fill-rule="evenodd"/><path d="m397.5168 47.7197c-1.6291-.8714-4.4187-4.4825-3.696-7.5617 2.7189.7778 6.6422 1.3564 10.8862 1.8572 4.2443.5009 8.1944.8516 11.0196.7281-.014 3.1629-3.5675 6.0253-5.3548 6.4935-.8548.2241-3.1472.2699-6.5023-.1261-3.3548-.3959-5.5736-.9742-6.3528-1.3911z" fill="#eac102" fill-rule="evenodd"/><path d="m386.6044 24.4656c0 11.1838 9.0662 20.25 20.25 20.25s20.25-9.0662 20.25-20.25-9.0662-20.25-20.25-20.25-20.25 9.0662-20.25 20.25z" fill="#e5e5e5" fill-rule="evenodd"/><path d="m472.3981 56.2227c-1.5374-1.0246-3.9655-4.888-2.9491-7.8831 2.6311 1.0366 6.4803 1.991 10.6562 2.8991 4.1761.9081 8.074 1.6384 10.8979 1.7881-.3192 3.1467-4.1323 5.6529-5.9564 5.9465-.8724.1405-3.1586-.0351-6.4597-.7529-3.301-.7178-5.4536-1.5075-6.189-1.9976z" fill="#eac102" fill-rule="evenodd"/><path d="m463.5847 33.9674c0 11.1838 9.0662 20.25 20.25 20.25s20.25-9.0662 20.25-20.25-9.0662-20.25-20.25-20.25-20.25 9.0662-20.25 20.25z" fill="#e5e5e5" fill-rule="evenodd"/><path d="m542.8112 69.0549c-1.3617-1.2486-3.1675-5.4392-1.703-8.2426 2.4406 1.4285 6.0975 2.9629 10.0843 4.5018 3.987 1.5389 7.7264 2.8593 10.4939 3.4411-.7988 3.0604-4.9517 4.951-6.7993 4.9608-.8836.0049-3.1157-.5199-6.2674-1.7364-3.1515-1.2164-5.1573-2.3274-5.8086-2.9247z" fill="#eac102" fill-rule="evenodd"/><path d="m537.344 48.7836c0 11.1838 9.0662 20.25 20.25 20.25s20.25-9.0662 20.25-20.25-9.0662-20.25-20.25-20.25-20.25 9.0662-20.25 20.25z" fill="#e5e5e5" fill-rule="evenodd"/><path d="m598.7403 86.2023c-.8955-1.616-1.2791-6.1629.9989-8.3572 1.8617 2.1287 4.8432 4.7437 8.1362 7.4674 3.2932 2.7239 6.4208 5.162 8.861 6.5913-1.7281 2.6491-6.2662 3.1251-8.0215 2.5486-.8396-.2756-2.79-1.4811-5.3932-3.6343-2.6031-2.1531-4.153-3.8428-4.5813-4.6158z" fill="#eac102" fill-rule="evenodd"/><path d="m598.9998 71.7868c0 11.1838 9.0662 20.25 20.25 20.25s20.25-9.0662 20.25-20.25-9.0662-20.25-20.25-20.25-20.25 9.0662-20.25 20.25z" fill="#e5e5e5" fill-rule="evenodd"/></g></g><path d="m70.5 240.5v474.25c0 68.898 55.852 124.75 124.75 124.75h62.375c27.289 0 50.92 17.163 62.375 40 11.455-22.837 35.086-40 62.375-40h62.375c68.898 0 124.75-55.852 124.75-124.75v-474.25z" fill="#ed1c24" stroke="#000" stroke-linecap="round" stroke-linejoin="round"/><path d="m71.5 241.5v473.25c0 68.35 55.4 123.75 123.75 123.75h62.375c27.18 0 50.966 17.254 62.375 40 11.409-22.746 35.195-40 62.375-40h62.375c68.35 0 123.75-55.4 123.75-123.75v-473.25z" fill="none" stroke="#000" stroke-linecap="round" stroke-linejoin="round" stroke-width="3"/><g stroke="#000" stroke-linecap="round" stroke-linejoin="round"><path d="m403.9733 300.4999c.3629 20.6602-8.0009 50.9317-17.307 73.3649 2.5043-12.5403.9913-25.0933-4.2605-36.2126.2434 15.2346-1.6453 32.0385-7.5852 43.4947-12.9759 25.0255-20.7823 24.7353-19.4828 62.6964.464 13.5512-11.0758 22.5929-20.3203 28.3077-11.9277 7.3735-13.3042 13.6657-10.8554 21.0903.8333 2.5259 2.1073 4.4434 3.8645 5.3754 1.917 3.9481 5.3438 7.0499 9.502 8.7116 10.676 14.2562 28.0565 13.7138 38.6529 4.706-5.3851-1.2803-10.7016-3.6366-15.4379-7.0769 9.9714 1.0377 21.1248-2.4262 27.8484-9.5808-5.7446-.0377-12.5465-2.2178-18.6584-6.2774 12.5685.4248 24.6129-4.5076 32.9873-15.5632-6.1624 1.2159-13.557 2.0236-20.2225.831 14.8753-2.192 28.628-14.5065 33.9754-29.9164-4.5969 3.97-10.8139 7.3567-17.1951 9.3244 14.8635-11.7417 28.74-34.6799 33.0939-54.581-5.4557 7.7186-12.3886 14.6392-19.7645 19.9362 12.9667-19.6805 22.7157-43.4363 25.2772-61.1248-4.3876 7.6521-11.9558 19.237-20.5549 30.9545 11.1239-24.1178 19.1161-52.4266 18.0186-68.9528-3.1331 10.1411-9.7833 23.657-17.6025 36.8804 5.889-21.2702 8.0602-42.9579 4.6723-56.3877-1.757 12.3955-7.518 29.315-14.6333 46.1327 2.7667-18.1762 1.6283-35.3478-4.0121-46.1327z" fill="#e5e5e5" fill-rule="evenodd"/><g><path d="m140.9857 439.07c5.1794-2.486 5.6572-4.7284 5.4108-9.2815-4.1404-4.0103-6.0682-8.1817-5.8288-12.3906.2524-4.442 1.2068-9.0408-.8742-12.7519-2.6498-4.727-11.2051-4.7079-13.488-8.2825-4.2976-6.7293 3.7476-12.8506 10.8953-12.3508 5.2923.37 7.5219 10.9147 9.1573 16.1852.4936-2.0313 1.612-3.9852 2.1007-5.7583.2302-.8325-1.2167-1.9425-2.0626-2.6664-4.0269-3.4457-1.2233-10.072 3.6578-10.5292 5.1668-.484 9.2323 2.534 8.1877 7.6655-.893 4.3859-3.0936 8.5287-3.4906 12.8083.4588-1.6921 1.6167-3.0653 2.965-3.9055 3.5932-2.2388.4463-6.6493.9785-8.943.7214-3.1074 3.5611-5.1065 7.1212-4.91 1.9523.1077 4.6561 1.8602 5.4908 4.0076.6194 1.5935.5855 3.4658.1383 5.3486-1.2614 5.3012-7.2201 9.9831-8.9743 13.3849-1.7239 3.3429-3.4609 13.6807-.5185 15.6352 16.6126 11.0351 37.7225 22.1399 48.8446 26.1925l-5.0878 22.1795c-5.739-4.1102-15.1027-9.9446-17.8904-11.9636-9.562-6.9251-23.6525-17.3324-31.3622-25.2344-1.2842-1.3164-2.2775.2543-2.0951 1.1038.8429 3.929 2.7194 8.9798 1.8308 12.1635-1.5419 5.524-7.8633 6.6129-12.6004 5.8898-7.6534-1.1682-7.2325-11.3278-2.5053-13.5968z" fill="#e5e5e5"/><path d="m146.2582 400.1979c.9899 3.2101 2.3435 7.4258 5.0579 12.7367" fill="#e5e5e5"/><path d="m154.6512 401.7179c-.4449 4.9382 2.3202 17.2595 7.2003 20.6177" fill="#e5e5e5"/><path d="m152.6849 450.6076c3.0458 14.0098-12.3411 18.2221-15.8173 8.802 6.8281.3534 7.814-3.4339 5.2327-9.3728 2.876-4.8133 9.6797-3.3897 10.5845.5708z" fill="#e5e5e5" fill-rule="evenodd"/><path d="m137.3845 387.7985c.4387-14.3761-15.1883-14.4812-16.8845-4.5171 6.6338-1.7682 9.2205 2.872 7.4236 7.3129 3.4124 2.1249 8.234 2.5716 9.4609-2.7958z" fill="#e5e5e5" fill-rule="evenodd"/><path d="m157.7468 383.7376c4.6807-11.8906-5.9862-18.8755-12.7899-11.1111 6.4678 1.1215 6.8193 6.4387 3.4533 9.7623 2.2214 3.8498 6.9835 4.1919 9.3366 1.3488z" fill="#e5e5e5" fill-rule="evenodd"/><path d="m171.2059 387.9671c7.0781-9.6842-1.9176-17.935-7.9908-11.1091 5.8064 1.0143 4.1179 5.8836 1.1116 8.8037 1.8885 2.969 4.2615 3.5166 6.8792 2.3054z" fill="#e5e5e5" fill-rule="evenodd"/><path d="m278.3859 470.709c-15.7449-5.3263-34.795-17.9655-39.1662-25.1026-1.8434 1.3948-.9361 5.8696-.6701 7.2713-15.4084-9.2848-9.498-10.0429-21.2306-18.3368.5658 3.0582 1.4548 6.584-1.3059 9.5382-1.2507-4.8224-9.5904-14.7903-15.4106-20.0646 1.6353 6.2079-.5654 8.2638-2.5247 9.227-2.4048-1.8921-7.1533-7.1661-8.6643-15.1568-3.9962 5.37-2.9733 9.6383-.6605 14.6686-3.0194-3.0408-7.9128-5.8932-9.7958-5.0939 1.2363 5.1346 5.0793 10.7853 9.9836 14.1897-5.0234-3.1624-9.4906-3.8822-13.9111-5.4807 1.5102 6.6461 4.2904 10.1053 13.4844 15.0435-3.7422-.8963-13.7509-.5868-18.3953 2.4724 2.2651 1.3147 9.9858 3.2426 12.601 6.4787-5.4511-.1738-9.7641 1.1912-15.4078 7.5075 5.6269.1283 12.5312-.7403 18.418 1.4669-2.717 2.0773-2.855 8.6813.2973 12.0761.02-3.7134 7.2311-8.6003 17.0562-3.5378-3.7105.7537-6.9895 5.1315-4.5985 10.1862 1.099-2.3095 10.5134-2.166 17.1843 1.6139-1.9369 1.7732-2.8123 6.1739-2.1061 8.9139 10.8277-.069 24.2345 13.759 31.3247 21.6477" fill="#e5e5e5"/><path d="m223.774 465.5243c-3.1469-2.1698-7.276-8.3967-4.9119-15.0587 1.8071 3.2134 4.1358 5.8096 7.8826 7.0406" fill="none"/><path d="m204.7482 453.474c-2.7511-3.2819-5.7418-10.0141-2.0118-15.6622 1.0176 3.3646 3.3103 6.1897 6.4478 8.3861" fill="none"/><path d="m210.7011 465.3507c-3.6658-2.972-9.0393-5.681-15.5819-1.8694 3.4711 1.0074 5.7693 3.1906 8.3962 6.4051" fill="none"/><path d="m227.0075 483.3606c-2.9035-2.6196-9.239-6.2269-15.5823-1.8697 2.963.7723 6.3441 3.6081 8.3963 6.4053" fill="none"/></g><g fill="#e5e5e5"><path d="m214.3787 661.0357c4.9259-.826 11.2205 6.5354 12.0919 8.2555l9.0687-4.6055c-2.711-7.6295-17.2651-14.3886-21.1606-3.6499z"/><path d="m194.6803 694.9405c3.5497-4.3703 14.1763-2.019 16.1545-1.0321l2.4903-10.6059c-8.2194-2.8397-18.8288-.141-18.6447 11.638z"/><path d="m205.6504 723.2201c6.1155-4.4768 12.7441-7.3167 15.1263-8.0945l-7.4836-9.0229c-7.6221 3.7081-10.5037 8.1072-7.6428 17.1174z"/><path d="m252.9087 732.8128c3.1192-4.4652 2.2994-15.835 2.0949-17.6587l11.2624 3.7539c2.0578 7.811-4.3349 17.0411-13.3573 13.9048z"/><path d="m301.254 654.9433c2.7276 2.709 2.9867 14.5724-.3848 16.6916-7.6951 4.8366-14.0328 2.6778-19.3615 4.1779-4.4548 1.2541-16.9812 8.7714-22.3382 10.7801-4.3056 1.6144-12.2874 3.1517-12.6471 1.7276.3553 1.4293 8.2775-.103 12.6471-1.7276-4.3533 1.6255-7.8591-3.2842-8.8532-4.2463-3.343-3.2357-5.1487-6.8134-4.232-12.39 1.2952-7.8799-9.3087-12.014-14.6106-4.699-8.8462 1.1039-7.2339 5.1811-6.9957 11.8264.0942 2.6147 4.9985 4.1087 8.4965 5.2418-3.5303-1.1652-8.4115-2.6416-8.4965-5.2418-2.4191-1.8751-9.8439-.3229-13.2787 3.3804-1.7698 1.9074-.02 5.3404-.7258 7.6495-1.4442 4.7261-1.2213 7.4906 4.066 10.3517 1.763-1.1113 6.8688-2.7509 9.9409-3.6796-3.0633.9285-8.1907 2.591-9.9409 3.6796-3.0278 1.883-4.6388 4.3837-3.6325 9.2839.2637 1.2844 1.4272 3.4244 4.4101 4.2329 3.0942 3.9523 5.1248 6.2907 9.4078 5.1068 7.1076-1.9652 8.9065-11.1903 12.2092-11.2392 4.7952-.067 5.7376-4.0085 11.5558-5.6282 4.7537-1.3237 9.9381 2.4311 8.5795 4.536-1.3765 2.132-4.5167 3.2867-5.5148 5.6809-3.4803 8.3467 21.6346 14.4422 24.961 8.6649 2.165-3.7602-4.003-10.9337 3.91-15.401 10.3614-5.8491 9.4306 9.7453 22.7181 9.0374 9.1463-.4872-12.1152-13.9832-2.3816-13.2084 9.1666.7298 16.9812 9.8362 23.8171 3.9974 3.7293-3.1853-13.5393-7.428-3.8473-9.2111 6.4885-1.1936 18.8434 7.7173 22.5347 1.2168 2.5406-4.4747-10.7977-5.8702-8.4277-10.4278 2.5899-4.9803 19.9961 4.7539 23.8171-3.4758 1.6991-3.6594-8.1532-4.402-7.5112-7.1261.463-1.9652 4.4983.5241 7.3282-2.0854 5.7274-5.2805 15.4521-25.705 6.9619-19.9861-5.3524 3.6054-8.144 4.2866-10.9924 6.9516 2.6667-3.6031 3.3707-20.242 3.1144-21.3766-1.1248-4.982 14.7566-7.3913 24.2762-17.1464 7.9323-8.129 13.01-15.6604 16.2132-26.4763l-45.8535-24.7918c-.1424 20.4972-8.4249 22.6-21.7738 23.8268-16.4873 1.5158-44.9711 10.5771-45.9452 28.7843-11.2939 1.2291-14.5888-3.3686-16.61-6.0304-1.3083-1.7228-12.8797-3.5636-17.6137 2.3689-5.2227 6.5447-11.8698 6.3814-14.909 6.9703 1.9962 7.1339 10.1356 8.7077 18.3656 6.714 6.3347-1.5344 10.7993-6.5743 13.7617-6.9472 7.2797-.9172 7.2398 6.7138 17.0351 4.2461 1.7726 7.0379 7.3861 16.116 16.7506 25.4168z"/></g><g><path d="m422.381 573.9028c30.1758 29.1674 63.8751 51.8324 73.802 43.3943 15.8171-13.4451-16.4548-31.4706-28.4204-52.975-25.1378-45.1781-4.1199-63.9373 18.0799-74.7687 21.2003-10.3435 24.5038-9.3849 33.6576-19.3852 0 8.9109-2.8698 15.7-11.3031 19.9611 11.6239 11.9751-11.0338 25.3507-25.4043 49.9563-7.3853 12.6453-7.489 22.098 5.523 36.6333 7.096 7.927 14.19 12.567 20.1317 24.8462 10.5547-19.6585-28.635-39.2923-2.2394-54.2178-4.7938 10.0675 13.2921 29.3989 13.2921 46.6024 0 6.4194-2.6821 12.6154-10.1725 18.0632-5.8463 18.79-27.4662 31.4023-90.8194-31.1223z" fill="#e5e5e5"/><path d="m508.1969 490.1294c-27.9785 13.9926-36.153 29.8579-41.3833 52.8886" fill="none"/><path d="m370.9026 726.5032c8.849-2.3738 19.4612 4.0865 20.8998 5.4204l5.8174-8.9761c-5.2963-6.2907-20.9196-6.8503-26.7172 3.5556z" fill="#e5e5e5"/><path d="m362.7911 757.2358c3.9926-5.0668 17.3703-5.0217 19.0732-4.8168l.1945-10.8229c-7.0256-1.7509-18.6906 4.854-19.2683 15.6398z" fill="#e5e5e5"/><path d="m404.1708 779.4999c-1.7911-8.358 6.7702-13.3614 8.0071-14.6779l-11.4052-6.447c-5.9986 4.9809-6.9007 15.2936 3.3981 21.1249z" fill="#e5e5e5"/><path d="m434.442 779.2644c6.6364-3.3017 6.4043-17.5396 6.5544-19.4428l12.9266-.9432c-.5931 15.2158-7.1305 22.0119-19.481 20.386z" fill="#e5e5e5"/><path d="m388.1153 608.4937c-6.774 8.9704-19.4806 7.6875-21.2178 2.8994-1.3035-3.5937 1.9808-5.7717 3.575-6.7968-18.822-4.7647-16.4522-12.0545-13.3563-16.3126z" fill="none"/><path d="m267.5064 549.9601c59.3935 11.6523 64.0024 25.6718 80.8272 35.1413 76.2962 42.9417 38.5534 33.8493 37.9032 69.2685-.0541 2.8603 1.9645 5.9949 4.4758 9.0592.6063 6.7936-7.8573 9.297-5.987 16.6342 1.7983 7.0564 5.9834 17.8365-1.846 22.6493 30.4644-3.7791 5.4084-21.6148 13.7727-33.1284 3.9172 3.596 8.0165 6.7533 10.4931 8.8403 10.4113 8.7735 34.1279 4.5478 30.3272 16.8803-3.4885 11.3184-4.4295 24.8181-9.3073 31.9463-3.9146 5.7206-12.2417 12.8831-18.5505 13.0509 6.3357-.1616 14.6415-7.3043 18.5505-13.0509-4.9454 7.106-21.2198-7.9044-24.6694-8.4735-6.6056-1.0894-11.1848 2.1574-11.7226 7.452-.1022 1.0205-1.6738 2.2517-2.3717 3.2548-2.6603 3.8232 7.0412 6.5705 12.2593 7.4396-9.9746 1.2022-13.7769-3.521-15.2368-3.6928-9.4623-1.1123-6.9564 7.0627-7.7476 12.1905-.1644 1.0757-1.7967 11.2731 7.0801 11.8113 5.7149.3466 8.3453-5.6277 10.121-5.6443 2.172-.0209 8.0488-1.9179 12.456-4.9585.6412 3.0968-5.3691 3.9678-10.6627 7.2925-9.6285 6.0479 19.4911 20.6549 20.8723 10.0847.5101-3.9037-.6524-6.0342 1.6961-9.3783 3.5224-5.0162 11.0098.2817 17.6942-6.2863.4463 4.1029-4.9538 9.0544-3.3524 15.2606 1.7107 6.6291 24.8447.8037 25.2024-3.18.7513-8.3674-10.3732-12.1525-1.6445-22.6378 2.0193-2.4252 15.5201-1.724 22.3747-12.0962 2.4658-3.7312-12.7245-1.419-13.0124-3.7984-.5392-4.4568 20.0932-12.0668 19.9079-14.981-.2837-4.4604-12.9523-.0462-13.235-2.7429-.396-3.7802 22.6444-14.0855 22.6444-17.5136 0-3.8823-13.9476-.646-15.9712-2.6376-3.4541-3.3985 15.9712-10.3505 15.9712-18.6736 0-3.4884-9.8014 4.2077-10.9663-.4222-1.5607-6.2004 2.3822-15.4965 2.5578-18.1461.2284-3.45-8.9745 7.6228-9.7873 10.128.1484-4.9979-21.6264-6.6474-24.3212-14.3481-2.9356-8.388-5.1794-17.3317-5.6564-31.8816-1.4059-42.9076-68.2328-65.7572-97.1082-121.3068z" fill="#e5e5e5"/></g><g><path d="m186.0326 623.8404c-.639-5.5697-2.6486-6.7717-7.1453-8.1034-5.3015 2.4025-10.0031 2.7338-14.0001 1.077-4.2184-1.7485-8.3489-4.19-12.6565-3.562-5.4868.7993-8.3924 8.6025-12.6369 9.4611-7.9902 1.6165-11.1726-7.8076-8.2451-14.1507 2.1674-4.6965 13.1484-3.1244 18.815-2.8133-1.7997-1.1442-3.3111-2.8312-4.8624-3.8826-.728-.4944-2.2982.4448-3.289.9684-4.7154 2.4919-10.1787-2.3279-8.9534-6.9324 1.2971-4.8742 5.6113-7.5477 10.2272-4.8416 3.9451 2.3129 7.2077 5.7342 11.2195 7.5588-1.4831-.9963-2.4181-2.521-2.7714-4.037-.9416-4.0398-6.2914-2.6794-8.3323-3.9484-2.7647-1.7195-3.7316-4.9908-2.3242-8.168.7717-1.7425 3.3941-3.6075 5.7604-3.6342 1.756-.0198 3.5587.6511 5.2303 1.7029 4.7062 2.9613 7.2069 9.9921 9.904 12.7534 2.6503 2.7136 12.0749 7.8302 14.9747 5.8167 16.3722-11.3678 34.3493-26.8104 42.0781-35.5611l19.7553 12.2175c-5.9449 3.8253-14.7995 10.3645-17.7088 12.215-9.9794 6.3471-24.8814 15.6312-35.1743 19.9563-1.7147.7205-.5319 2.1625.3535 2.2866 4.0959.5748 9.6319.5909 12.4135 2.4891 4.8263 3.2932 3.7207 9.4264 1.4011 13.4962-3.7482 6.5755-13.4499 2.7194-14.033-2.3643z" fill="#e5e5e5"/><path d="m150.1638 605.749c3.4492.1951 7.9974.4025 14.0719-.256" fill="#e5e5e5"/><path d="m154.5056 598.6196c4.6334 2.0935 17.5191 3.7849 22.4416.4854" fill="#e5e5e5"/><path d="m201.2125 617.1222c14.6178 2.0127 13.4409 17.4752 3.1236 17.4233 2.6763-6.102-.6571-8.2949-7.2947-7.9724-3.6814-4.2662.0241-9.9799 4.1711-9.4509z" fill="#e5e5e5" fill-rule="evenodd"/><path d="m135.1146 609.5977c-13.7819-5.3134-19.2252 8.892-10.1486 13.8436.5538-6.65 5.9347-7.4213 9.6241-4.2658 3.2257-2.3835 5.3067-6.625.5245-9.5778z" fill="#e5e5e5" fill-rule="evenodd"/><path d="m137.9523 589.653c-9.9233-8.33-21.3521-.7777-16.1531 8.0766 3.2977-5.5111 9.5844-4.2325 11.6548-.0287 4.4901-.7086 6.4494-4.9315 4.4983-8.0478z" fill="#e5e5e5" fill-rule="evenodd"/><path d="m146.838 578.8329c-6.9657-9.7606-18.036-4.3827-13.4968 3.4852 2.9674-4.9449 7.1092-1.7417 8.9113 1.9962 3.5228-.7065 4.8646-2.6817 4.5855-5.4814z" fill="#e5e5e5" fill-rule="evenodd"/><path d="m263.6574 509.4372c-10.5434 12.5283-26.0511 25.9833-34.4618 27.5274.7216 2.1567 5.3683 2.8594 6.8175 3.0959-14.2644 10.8687-16.2311 4.8092-28.2789 12.6667 3.1569.5298 6.8778.9246 8.7971 4.4504-5.1008-.5086-17.6113 3.6847-24.7119 7.1861 6.5751.6315 7.8152 3.3398 8.079 5.4547-2.6557 1.5447-9.3897 4.0697-17.65 2.7155 3.8382 5.4772 8.3243 6.0039 13.9897 5.6157-3.979 1.7123-8.4157 5.1968-8.2848 7.1861 5.3985.6281 12.1881-.9426 17.1636-4.2485-4.7816 3.4971-7.0062 7.3222-10.066 10.8044 6.9568.8953 11.2594-.4559 19.1875-7.1469-2.1478 3.1039-5.2688 12.3311-3.8916 17.6092 2.0481-1.6148 6.5556-7.9921 10.5855-9.2692-2.0317 4.9084-2.1831 9.3055 2.009 16.6077 2.0475-5.0841 3.5657-11.673 7.7167-16.2834 1.0845 3.186 7.4372 5.569 11.8046 3.8566-3.5916-1.2877-5.8629-9.5297 2.4014-16.7531-.538 3.639 2.5839 8.1237 8.2996 7.6724-1.8625-1.7908 1.4944-10.3215 7.4376-15.109 1.0563 2.3713 5.0218 4.6733 7.9185 4.9662 3.6339-9.8913 23.1943-21.9708 33.2626-25.7359" fill="#e5e5e5"/><path d="m239.9664 557.4347c-3.1784 2.1263-10.624 3.7608-16.2722-.6707 3.7318-.5486 7.0437-1.7834 9.5173-4.7771" fill="none"/><path d="m221.7855 570.6549c-4.1209 1.3855-11.6672 1.8099-15.866-3.5199 3.6084.2228 7.1301-.9012 10.3309-3.0097" fill="#e5e5e5"/><path d="m235.3298 569.2892c-4.133 2.3248-8.5949 6.2961-7.1375 13.5612 2.1628-2.819 5.0641-4.1671 9.0772-5.4624" fill="none"/><path d="m258.3567 560.5844c-3.5309 1.7506-9.1922 6.2915-7.1377 13.5615 1.7612-2.4363 5.665-4.5484 9.0772-5.4625" fill="none"/><path d="m254.5177 547.2014c-3.1782 2.1261-10.6238 3.761-16.272-.6708 3.732-.5485 7.0437-1.7834 9.5173-4.7771" fill="none"/></g><g fill="#e5e5e5" fill-rule="evenodd"><path d="m418.7966 467.6006c14.6323 10.0325 43.4872 6.9774 60.1032-.8785-12.9932 21.5089-48.7468 33.8136-77.9917 20.7423z"/><path d="m367.418 493.5927c5.4449 18.767 24.0655 32.8291 44.2399 39.0513-20.903 9.6962-56.2921 2.9236-65.7295-28.6234z"/><path d="m384.9502 484.7865c7.3218 17.5171 29.8925 29.7849 46.9322 32.0843-20.2899 12.2457-62.9035 7.2162-70.7666-14.0349z"/><path d="m359.2199 501.6362c1.8027 8.4739 6.9837 16.5671 16.2088 21.0855-15.4531 2.2804-30.7797-5.2972-35.0703-15.4156z"/><path d="m371.6791 494.5368c2.7411 7.9326 9.7591 14.0703 18.7312 17.9661-20.5533 8.6843-29.8701.3211-35.3151-8.8275z"/><path d="m404.5154 480.2717c9.2386 13.6994 33.442 15.8143 50.9852 15.5749-19.3477 14.8178-48.5322 14.7234-74.3159 3.8497z"/><path d="m382.4265 489.4743c4.6178 6.335 13.1582 9.6385 23.1614 10.2614-14.6251 9.1845-30.6807 7.216-38.3232.6552z"/><path d="m396.3317 476.8959c5.3328 5.4053 14.3624 7.2731 24.6167 6.3235-12.7177 11.3028-26.5016 14.9289-42.7445 9.9336z"/><path d="m428.067 443.8125c22.9293 5.4932 57.454-5.4212 79.1752-23.3311-13.5393 33.2815-64.231 70.2152-94.0475 54.7268z"/><path d="m416.5259 443.8976c23.8855 1.8539 82.8266-46.6927 102.9741-67.3173-10.1859 34.2724-57.9346 86.0873-101.7628 92.3875z"/><path d="m431.3001 414.207c24.561-8.0826 73.8852-53.2479 88.1999-79.5368 0 33.7527-50.2104 105.4611-85.3571 112.0749z"/><path d="m431.6857 405.2127c23.0229-15.4322 60.8988-64.5138 69.2818-93.1524 7.6231 31.267-21.7593 96.1288-59.2266 111.2526z"/><path d="m427.8581 400.4736c19.8127-21.5309 50.0232-71.1314 51.9486-99.9737 14.9174 26.0598-5.581 82.1987-40.1733 114.9499z"/><path d="m392.0047 458.1421c5.7438 3.215 12.6477 6.5765 21.472 6.6587 8.5252.0794 17.5929-2.4246 27.613-11.0916-10.8478 19.642-20.8745 26.8075-32.6254 28.9557-5.3827.9841-12.7979-.3646-17.3922-1.2708z"/><path d="m399.7786 439.458c5.3925 1.8612 14.5122 2.9097 24.497 1.2516 9.6464-1.6021 20.5587-9.5522 30.6663-20.7886-6.4634 22.413-22.5535 40.1793-35.2592 44.7754-5.9118 2.1385-16.8699 2.8703-20.1154 1.993z"/><path d="m400.8791 425.5497c8.4963-1.2807 18.4254-2.0224 29.1166-7.9103 10.3289-5.6887 20.1577-18.1789 28.0908-33.5681-.4694 24.8629-15.3561 48.6518-28.9652 56.7798-6.5103 3.8883-20.0308 10.6677-26.0417 10.2126z"/><path d="m405.6334 410.7965c8.7219-3.2102 14.5368-5.4016 24.2911-13.764 9.424-8.0793 17.0423-22.3672 22.1792-38.8497 4.2629 23.313-5.438 48.1958-17.7341 59.4312-5.8823 5.3746-17.3535 14.0149-27.4079 18.2524z"/><path d="m403.8048 474.2453c-4.7916 7.5691-20.1242 21.3382-45.1826 32.6151-13.497 6.0739-20.3546 2.4509-22.8443-4.8501-2.9247-8.5771-.2488-15.2265 18.3217-20.9505 14.3929-4.4363 32.4818-12.0456 33.1338-26.9208 1.8268-41.6699 13.488-39.8439 35.3793-64.6229 10.0213-11.3434 14.5641-29.2585 15.7136-45.9274 10.0492 19.5833 7.4471 41.0311-8.8806 58.9276-38.2124 41.8833-6.7072 41.8207-25.6409 71.729z"/></g><g><path d="m218.2061 362.764c-.2837 3.6941.5616 9.6163 11.2753 11.3008 10.1039 1.5887 17.2966-2.5458 36.6785-4.0071 13.5149-1.0141 23.2773 2.3567 30.8401 5.358l-1.6672 8.9125c-5.5451-3.2233-15.4547-8.1414-28.5165-7.2895-15.8056 1.031-27.4993 4.3675-38.38 2.5641-15.6129-2.5875-15.3118-14.4683-10.2302-16.8387z" fill="#e5e5e5" fill-rule="evenodd"/><path d="m262.9699 540.734c-13.6532-18.9464-20.2321-34.87-17.623-53.8984-7.1804 1.7846-7.4659-4.8683-13.6516-3.8064 7.027-7.8553 20.4859-9.9728 17.7874-21.2537-4.9925 1.2442-11.0236 1.9602-11.6833-7.362 12.2303-1.8389 12.8143-9.5209 26.8258-9.6433-6.1175.8244-9.2317-1.1382-14.3061-5.3885 2.9568-.0285 9.8451-1.5303 11.8758-3.9093 7.1878-8.4201 8.0267-1.9721 10.3886-4.8783-.7926-3.8374 9.2658-7.8272 10.5994-10.4391-4.8506-.097-8.1488-2.8676-10.1017-8.862 14.7237 7.612 26.7178-18.192 13.8944-21.5351l4.5634-13.2181-28.9933-17.0395-8.1328-14.4346c5.6488-7.9579 9.8172-11.9159 18.096-12.9624 13.7212-1.7344 32.231 3.3913 46.5928-5.8896-.5259 3.1269-2.0473 6.2378-5.7821 8.4643 10.2697 5.2575 20.1102 13.93 25.2158 22.7159-2.093-.9021-6.2308-2.4273-9.3737-2.1401 2.9556 5.1381 9.8192 12.3091 10.8247 17.9741 2.877 1.5206 6.0853 6.4009 7.0838 9.5927-2.6709-.9176-3.5886-2.1733-6.4895-2.0611 3.0513 6.7247 3.6764 9.0016 3.5698 13.0481-.2793 10.596 5.9758 14.8634 10.548 6.9279-.5702 8.9029-6.8472 16.3261-13.5315 12.7296 1.1308 2.0934 2.009 4.8285 3.0643 7.5211 1.2357 3.1535 2.7144 6.2482 5.1261 8.1858-1.742.691-10.224.9891-11.7637 3.4356 1.5351 5.1345-4.2017 13.5263 3.7181 17.3337.4744 5.7344-8.5175 9.9559-12.1156 9.7173 3.2698 1.5424 10.4191-.1369 11.8244 11.5045-3.8452-3.5143-5.5696-1.2388-8.9452-3.0563-.4339 6.1299 1.9298 13.0073 6.1115 16.4911l13.7579 22.6764c-1.1623 20.9465-31.2788 18.0971-38.4022 32.7669-7.4669-.7886-11.9227-11.6547-30.6967 10.5029z" fill="#e5e5e5"/><path d="m250.3671 381.6174c1.5954 20.966 24.816 5.7678 36.6086 8.1406 1.7504-3.7297 5.2034-8.26 4.5636-13.2186-15.1672-2.0363-17.3513 14.5424-41.172 5.0802z" fill="#e5e5e5" fill-rule="evenodd"/><path d="m254.413 345.0659c-11.1782 2.3709-32.0056 16.9416-15.2306 26.1595 2.2809-13.1065 15.1626-9.72 22.8298-4.4941 5.341 3.6405 22.826 8.7294 29.5268 9.8082-1.7141-13.2871-17.9059-10.0583-37.1261-31.4735z" fill="#e5e5e5" fill-rule="evenodd"/><path d="m247.8682 491.9083c.0722 11.1681-12.6621 18.303-5.6794 34.0281 1.6766-5.1811 4.2727-8.8107 7.8777-10.8544-1.9008 4.2533-6.7243 22.5216 2.2168 28.2825-.1444-2.5385.9319-8.9866 4.2841-18.0912" fill="#e5e5e5" fill-rule="evenodd"/><path d="m284.985 366.8009c12.54-.5317 16.0723 9.8546 16.2862 19.1106" fill="none"/><path d="m314.1391 376.0721c2.3415 1.3955 3.8553 3.0032 4.5424 4.8225 1.5443-3.0906 1.3973-6.28-.4535-9.4208" fill="none"/><path d="m330.5769 382.3741c1.5547 3.8393 1.42 8.0689-.2288 12.4093-1.1184-3.2839-3.2295-5.9663-6.4056-8.1392" fill="none"/><path d="m314.907 400.9546c1.3297.741 2.1909 1.8352 2.5839 3.2832 1.9421-2.3838 2.6565-4.8507 2.2404-7.3833" fill="none"/><path d="m312.9331 473.6843c4.1344 1.4058 7.02 3.4447 8.6577 6.1149 1.5196-5.4985.3262-10.5555-3.5549-14.9311" fill="none"/><path d="m316.1969 487.6683c-1.6207 1.7494-2.5227 3.6638-2.7367 5.8092-1.6159-2.4124-2.2968-4.9626-1.897-7.504" fill="none"/><path d="m298.7618 482.87c-2.2645 3.0842-3.0122 7.3336-2.3377 12.6777-7.6123-7.7572-7.6099-14.9351-3.29-21.7843" fill="none"/><path d="m296.9893 447.4607c-.3407 3.5107-3.0795 11.6376 4.5939 17.6947.0962-2.4932-1.0087-3.0428 2.8961-11.6838" fill="none"/><path d="m290.0535 410.4954c-2.615 8.352 3.6305 16.7637 9.8571 14.1983" fill="none"/><path d="m296.3922 417.769c2.227 4.148 4.1382 10.1308 8.2551 8.7564 1.8077 3.9112 1.6846 7.5999 1.266 10.9727 2.1165-2.0646 6.3321-3.9798 6.8638-7.9343.4632-3.4427-3.0501-6.2852-4.0391-9.1217" fill="none"/><path d="m323.9499 456.5382c-.2412-3.3426-2.2198-6.3436-5.9748-8.8906 2.1528-.8974 4.14-.5787 6.1003.7082-.8481-5.3844-4.2984-9.3978-10.5107-12.0679" fill="none"/><path d="m311.2964 345.2483c3.6121 5.4855 5.2883 12.0316.6939 14.1024" fill="none"/><path d="m301.6087 346.316c3.9992 4.4175 7.4186 11.684-.4387 13.4616" fill="none"/><path d="m279.953 457.5162c-4.5819 5.0786-6.1069 10.2026-4.7156 15.4658 1.267-2.0069 2.9478-3.1448 5.2682-3.2451-2.3938 3.9189-2.9885 7.4941-1.8639 10.6394" fill="none"/><path d="m326.3882 404.0544c1.7217 3.0503 7.4826 9.2802 2.9332 18.0655-1.0631-3.1726-3.047-7.0087-7.3346-9.4012" fill="none"/><path d="m279.2707 435.9034c-.2697 2.7768-2.4355 9.2039 3.6331 13.9946.0782-1.9724-.7976-2.4072 2.2905-9.2409" fill="none"/><path d="m300.8021 391.4113c-.2693 2.7763-2.4353 9.2033 3.6333 13.994-.0622-3.052.6153-6.8189 2.2905-9.2402" fill="none"/><path d="m322.7673 354.9745c1.2934 2.2913 6.451 4.3103 3.0348 10.9073-1.1114-2.1849-4.5007-1.9739-6.3399-4.4003" fill="none"/><path d="m268.8685 347.0695c4.5434-1.5435 13.3569 1.7908 18.8023-1.1109-1.4484 3.4785-2.1905 8.8584-11.9413 8.9591-5.493.0564-8.6449-4.039-6.861-7.8482z" fill="#e5e5e5" fill-rule="evenodd"/><path d="m268.8685 347.0695c-1.1826.41-2.316.987-3.1944 1.4722" fill="none"/><path d="m273.9616 347.1804c-1.3618.1433-2.2887 1.7597-2.0704 3.6086.2163 1.8494 1.499 3.2311 2.8604 3.0874 1.3622-.1433 2.2889-1.7598 2.0706-3.6089-.2164-1.8494-1.4986-3.2309-2.8606-3.0871z" fill-rule="evenodd"/><path d="m259.7743 481.4333c-6.1855 9.144-5.1184 19.9065 4.0339 32.4746.5913-5.2773 1.7229-10.5453 6.5011-15.7481" fill="none"/><path d="m260.4834 530.765c-1.5477 9.3347.022 22.5162 14.7251 28.0134-2.8888-3.4455-4.804-6.3948-4.2198-10.7175 6.1933 8.3653 18.8398 8.9122 22.412 19.6535 1.1142-4.4128-.7192-19.6789-3.9158-24.1503" fill="#e5e5e5" fill-rule="evenodd"/><path d="m331.4762 503.8651c10.137 4.0505 15.1482 13.5821 14.4456 29.2254-3.3815-4.0376-7.8848-10.9781-14.696-12.5641" fill="#e5e5e5"/><path d="m330.8442 481.9749c6.0051-2.1217 15.2037-5.4924 21.5677.7338-4.247-.6305-6.4646 3.6577-10.2268 5.4012 11.9113-2.1311 14.3424 3.0856 19.1442 7.8883-3.6381-.1908-11.1301 2.7413-13.9869 3.2114 6.3541 3.0032 12.7291 9.6903 15.0487 14.3642.8642.9239-12.4294-6.1753-17.8951-3.846" fill="#e5e5e5"/><path d="m249.0955 357.1788c1.107-.7443 2.9644-1.3706 4.5779-.9523 1.772.4594.9752 2.1393-.469 1.2546-1.1144-.683-2.642-.301-4.1089-.3023z"/><path d="m280.0593 536.3625c2.866 9.5991 12.59 14.0793 22.9056 17.4861 3.3841-10.6072 5.5782-21.3511-.2751-29.3804" fill="#e5e5e5"/><path d="m307.7762 526.4221c5.8978 9.509 15.8726 12.6496 30.3936 8.6917-4.4863-2.6152-8.7676-5.7478-11.6656-12.3724" fill="#e5e5e5"/><path d="m282.1393 503.2784c-4.315 9.4966-1.3372 18.5634 9.7717 27.1522-.3844-4.7277-.2458-9.5837 3.4242-15.3054" fill="none"/><path d="m305.3284 500.8508c.2865 7.0085 2.726 11.789 7.2861 14.5125-.4912-2.3676-.1003-4.4215 1.4428-6.2088 1.0135 4.5639 3.0418 7.5523 5.9706 8.9632" fill="none"/><path d="m324.301 493.7523c2.3413 1.3957 3.8551 3.0032 4.5422 4.8226 1.5443-3.0906 1.3973-6.2801-.4531-9.4208" fill="none"/><path d="m262.1743 459.8016c-1.6108 2.2141-6.6701 6.5106-3.811 13.8426 1.0456-1.6344.5067-2.474 6.5637-6.62" fill="none"/></g><g><path d="m271.7293 332.1268-1.2288-9.2228-2.8151-7.8012c7.4203 6.5071 9.0688 6.353 16.9894 2.9007 7.9786 5.2144 9.996 5.6278 19.263 2.5133 7.0564 6.7615 9.0579 7.246 18.4997 5.9236 5.6941 6.4943 7.1198 7.3353 16.6078 4.6059l-5.8733 5.8599-5.0441 7.8214c-8.907-4.5639-17.6971-8.4034-27.057-10.4947s-19.337-2.4448-29.3415-2.1062z" fill="#eac102"/><path d="m268.2076 304.0289 5.3833 6.3065-1.3675 5.1097-3.7344 1.737-2.8454-3.769-3.9514-10.6716 6.5137 1.2849z" fill="#eac102"/><path d="m267.6082 310.2852c.6001 1.595.0271 3.2558-1.2816 3.7099-1.3084.4553-2.857-.4699-3.458-2.0638-.6002-1.5953-.0271-3.2558 1.2816-3.7099 1.3082-.4553 2.857.4698 3.458 2.0639z" fill="#eac102"/><path d="m281.2331 302.8747 3.3877-2.3747 3.5578 2.7067 2.8946 7.5582-4.5189 7.9615-2.1253.8836-2.5062-1.03-4.2686-8.5812 3.5795-7.1229z" fill="#eac102"/><path d="m303.0649 305.9057 4.4896-1.5127 3.7212 3.4588 2.0038 8.0138-6.9047 6.6703-2.9358.2396-2.5539-1.4664-3.4453-9.3271 5.6253-6.0764z" fill="#eac102"/><path d="m285.0697 323.083 4.4458 3.0867-4.3795 2.8827-4.4458-3.0866z" fill="none"/><path d="m307.1419 330.0193c-.3541 1.5812-2.9142 2.3555-5.7183 1.729-2.8039-.6267-4.79-2.4164-4.436-3.9978.354-1.5818 2.914-2.3554 5.7178-1.729 2.8041.6265 4.7902 2.4161 4.4364 3.9978z" fill="none"/><path d="m275.613 325.9394c.0967 1.5697-1.3887 2.972-3.3179 3.1324-1.9288.1604-3.5708-.9826-3.6676-2.552-.0965-1.5703 1.3887-2.9728 3.3177-3.1328 1.929-.1605 3.5711.9827 3.6678 2.5525z" fill="#eac102"/><path d="m319.9143 330.8681-5.3383.9008 2.7332 4.4718 5.3384-.9005-2.7334-4.472z" fill="none"/><path d="m327.2524 337.4768c-.7566 1.3792-.0107 3.2801 1.6661 4.2462 1.6769.9658 3.6499.6307 4.4065-.7482.757-1.3794.0111-3.2807-1.6658-4.2464-1.6771-.9662-3.65-.6304-4.4068.7484z" fill="#eac102"/><path d="m286.8541 310.3055c-.0238 1.7314-1.1579 3.0685-2.533 2.9856-1.3752-.083-2.4704-1.5541-2.4466-3.2861.0238-1.7319 1.158-3.0687 2.5331-2.9855 1.375.0831 2.4704 1.5536 2.4466 3.286z" fill="none"/><path d="m306.1973 310.1802c1.4889.3327 2.3558 2.1206 1.9357 3.9939-.4193 1.8725-1.9659 3.1213-3.4547 2.7885-1.489-.3327-2.356-2.1207-1.9356-3.9937.4192-1.8727 1.9658-3.1215 3.4546-2.7887z" fill="none"/><path d="m278.3469 318.3642c-.2796 1.2481-1.4804 2.0429-2.682 1.7744-1.2018-.2685-1.9492-1.4986-1.6699-2.7468.2794-1.2484 1.4803-2.0432 2.6821-1.7747 1.2015.2685 1.9492 1.4986 1.6698 2.7471z" fill="#eac102"/><path d="m295.7236 320.3476c-.2795 1.2483-1.4802 2.043-2.682 1.7744s-1.9493-1.4985-1.6699-2.7468c.2794-1.2484 1.4802-2.043 2.682-1.7744 1.2016.2686 1.9493 1.4983 1.6699 2.7468z" fill="#eac102"/><path d="m343.2944 320.8052-7.5594 3.4145-.9416 5.2051 2.6353 3.1627 4.1814-2.1991 8.125-7.9733-6.4411-1.6096z" fill="#eac102"/><path d="m341.1692 326.7205c-1.2237 1.1869-1.4127 2.934-.4223 3.9019s2.7852.7905 4.0086-.3956c1.2238-1.1873 1.4128-2.9343.4223-3.9021-.9904-.9679-2.7851-.7907-4.0086.3958z" fill="#eac102"/><path d="m332.002 314.2175-2.0528-3.5901-4.3728.9349-5.8416 5.6064.6942 9.1262 1.5472 1.7029 2.7064.1348 7.5208-5.9473-.2014-7.9677z" fill="#eac102"/><path d="m323.7481 318.5483c-.7168 1.5769-.2607 3.269 1.0185 3.7792 1.2795.5103 2.8979-.3545 3.6147-1.9318.7169-1.5771.2608-3.2692-1.0187-3.7791-1.2793-.5099-2.8975.3543-3.6145 1.9317z" fill="none"/><path d="m328.0088 329.4598c-.2793 1.2482.4681 2.4783 1.6699 2.7468 1.2018.2684 2.4026-.5264 2.6819-1.7745.2794-1.2484-.4681-2.4787-1.6698-2.747-1.2018-.2685-2.4026.5264-2.6821 1.7747z" fill="#eac102"/><path d="m311.4418 323.8592c-.2795 1.2483.4682 2.4785 1.6699 2.7468 1.2018.2685 2.4025-.5262 2.682-1.7744.2794-1.2485-.4683-2.4782-1.6699-2.7468-1.2017-.2684-2.4025.5262-2.682 1.7744z" fill="#eac102"/><path d="m298.1522 343.0732c7.4328-16.8529 25.7255-16.4128 38.8249-28.2734-1.2579 9.5545-6.3265 28.0218-25.9639 34.9361" fill="#e5e5e5"/><path d="m307.9211 343.5728c9.6069-4.5132 13.315-8.5473 14.4785-12.3767" fill="none"/></g></g></svg>