<?xml version="1.0" encoding="utf-8"?><!DOCTYPE svg PUBLIC "-//W3C//DTD SVG 1.1//EN" "http://www.w3.org/Graphics/SVG/1.1/DTD/svg11.dtd"><svg viewBox="0 0 580 680" xmlns="http://www.w3.org/2000/svg"><path d="m.5 69.5c24.083 24.098 40 54.636 40 90.5v354.75c0 68.898 55.852 124.75 124.75 124.75h62.375c27.289 0 50.92 17.163 62.375 40 11.455-22.837 35.086-40 62.375-40h62.375c68.898 0 124.75-55.852 124.75-124.75v-354.75c0-35.864 15.917-66.402 40-90.5l-69-69-18.7 18.7c-13.233 13.233-31.607 21.3-51.8 21.3h-300c-20.193 0-38.567-8.067-51.8-21.3l-18.7-18.7z" fill="#e5e5e5" stroke="#000" stroke-linecap="round" stroke-linejoin="round"/><g stroke="#000" stroke-linecap="round" stroke-linejoin="round"><g><path d="m290 438-37.326 9.5c-20.2725 11.8946-41.1278 36.9135-51.1735 54.8202-16.031 27.0598-70.9015 50.1138-82.7818 77.7423-7.3335 17.0547-17.6683 28.096-23.3125 38.0625 19.9286 13.4897 43.9664 21.375 69.8438 21.375h62.375c27.289 0 50.92 17.163 62.375 40 11.455-22.837 35.086-40 62.375-40h62.375c25.4727 0 49.1633-7.6444 68.9063-20.75-6.1568-7.4642-17.0788-14.2003-27.5625-23.4688-16.7697-14.8256-14.4646-42.7135-35.3441-50.1584-15.9871-24.8184-33.7587-42.8118-61.8383-52.2762-11.3933-11.903-17.4717-33.9351-31.5844-45.3467z" fill="#c87137"/><path d="m358.9114 492.8467c-13.7573-5.5754-29.0321-8.0308-45.1514-16.6718" fill="none"/><path d="m420.7497 545.1229c-11.4274-4.137-22.7521-7.0553-36.3257-5.6569" fill="none"/><path d="m201.5005 502.3202c-9.0607 16.0371-16.1214 32.8175-17.2459 43.8494" fill="none"/><path d="m255.1684 474.7419c-17.9553 18.3494-12.5169 29.8462-27.1344 53.5842" fill="none"/><path d="m285.4933 501.9389c14.4877 4.4156 42.0528 46.6653 49.6618 56.6005" fill="none"/><path d="m223.3679 593.6002c35.8341-27.8125 59.1416 8.0377 72.5262 14.234" fill="none"/><path d="m177.1002 638.4699c7.9097-1.8219 21.6551-15.6888 25.5965-23.3809" fill="none"/><path d="m366.8606 638.3379c-10.323-.0174-30.9173-13.7141-40.6467-27.3241" fill="none"/><path d="m368.6035 575.7771c26.0017 16.9234 15.9327 29.7503 40.9754 37.5766" fill="none"/><path d="m132.5072 617.1114c47.8909-18.9928 65.041-57.624 91.7068-67.6379" fill="none"/></g><g transform="translate(-6235.3229 944.9846)"><path d="m6475.6627-839.9843-7.3461 16.9137-18.1737 5.7241-13.329 8.8233-10.5313 5.5885-22.4185 21.8984-3.8874 17.2927 5.3558 8.2893-7.1659 6.4894-6.7486 9.7296-11.8451 5.8208 1.1128 13.9132 2.6703 15.624-1.1435 12.6522-.1202 8.0549-2.5192 8.3811v13.0466l3.6864 3.6013 3.8888 12.7065-2.5069 8.6412 11.4501 4.6711 1.1497 14.6068 20.7402 3.8775 8.3498 3.6534 8.3303-6.3682 4.3049-11.5888 13.3911 17.957 17.6402-14.1471 11.8425-4.1399 11.7947-8.4138 14.3787-12.46 12.2741-8.2383 8.3438.4095 9.3321-.0216 11.6241 2.4522 11.7504 4.1973 14.7731 20.9712 6.5319-.0808 8.8421 13.7273 14.985 5.7438 20.7253-22.7845 24.0826-12.8349 4.3747-18.8247 15.4201-18.4218v-41.5041l-11.6002-22.389-13.6626-11.2631-6.604-17.6251-13.9271-7.5476-18.8082 4.7792-1.5557-25.2552-16.4135-10.3856-7.712-15.5599-26.4828-.597-10.3294-9.7864-10.4416 2.7324-23.5957 1.0922-9.4448-3.8246-12.7982 3.7221z" fill="#008f4c"/><path d="m6641.7926-738.3986c1.8472-9.449 7.4091-13.8089 3.2264-23.0163-.774-6.4994-6.0888-12.3544-4.4419-16.0625-7.0028 1.9969-11.7923-12.1855-19.4594-4.146-2.2964-10.469-11.8706 8.5118-11.935-1.3188-6.9926-.8053 3.4048-8.7244-3.1135-8.0417 4.4438-7.8266-.023-20.699-6.0798-17.0049-5.1108-3.6676-.2715-6.964-9.6808-4.5177-8.4946 3.0173-12.0682 17.9385-19.4056 6.5886-5.4377 2.1677-13.1129 6.6277-13.02 13.3357l-.7193-.0815-.5015-.0575" fill="#008f4c"/><path d="m6625.6005-746.1471c5.1862-1.5805 7.4415-15.1777 10.1816-11.7124 2.1555 2.7259 9.0247 2.687 12.7658-.4917 5.725 3.6116 9.8251 7.6748 13.9307 16.3091 1.707 3.0148 12.0981 6.0055 5.6855 13.4598 4.3789.9514 5.3491 13.7716 4.1911 18.3882 1.6299 1.7123 1.0348 3.8866 2.4677 6.1332-2.2911 6.192-1.4666 10.6786 0 15.8275-1.3672 6.7486-9.0493 10.8206-5.6254 15.7588-5.4031 7.9377-10.8102 6.9385-13.9753 17.1713 2.2977 3.5084-4.9051 4.7585-1.7548 10.6061-2.9088 9.187-16.127 6.5981-15.964 12.0012-1.1642 10.8297-12.8188-3.2611-14.2593 9.8819-3.156-5.6289-6.8367 16.2486-12.4387 17.3295-2.0819-1.2972-5.1463-2.1011-6.3293-6.1456-2.4249-6.2519 2.9601-11.1074 1.9121-17.9903" fill="#008f4c"/><path d="m6522.5119-771.3598c-5.7459-12.7071-5.3883-23.3667.5842-37.0848 2.8641-11.6073 7.2559-16.5817 6.3873-28.8774 3.4089-6.7392 5.3303.4032 8.247-2.8783 4.1773 2.1752 3.072-2.3775 6.8914-4.2841.9392 2.5787 2.214 1.6682 3.5496 3.3731 3.8213 4.5687 13.9987 18.3586 20.0577 6.0875 1.3083 11.4674 18.8772-2.1348 18.4024 12.0513 10.2865 7.6225-5.5719 31.6811 8.4635 32.3888 1.2678 7.5212.2384 16.9185-4.3062 21.5348l.427.7385.2237.3889" fill="#008f4c"/><path d="m6398.8544-737.7856c-7.7321-2.3991-19.3031 1.584-23.0315 5.7765.7815 5.0108 4.826 13.2673 5.1089 17.7454-1.7138.7363-3.574 6.6837-5.1089 11.1812 2.3582 4.6804 2.8463 9.4007 5.9979 11.2126-2.4582 7.4908-.6426 14.5969-5.9979 14.7353 1.7197 4.172 1.6358 19.6794 4.145 18.5233 2.8193 7.9868 6.9165 11.6325 3.4276 23.679 4.0946 5.8737 6.1573 4.1241 10.3772 5.2799-1.8182 9.7527 3.5084 9.029 1.6307 12.8869-.075 4.4002 11.9224-.1126 10.1383 4.3946 6.5046-1.6847 6.2697 3.2964 8.2129 6.8865 3.3336-3.1618 9.1966-3.0285 13.5809-.0002 1.8918-1.2966 5.4841-3.4659 8.0319-9.7083 3.7816-4.7161 5.3348-9.2099 9.2425-.572 3.619-.969 2.4928 8.9831 6.6649 10.2804 4.0467-2.1619 4.8429-8.3589 11.5827-6.2092 5.0633-10.3599 13.6183-15.3464 20.8011-13.8146-1.8314-7.049 9.3626-.097 11.1557-9.9688 3.1006-3.5299 5.5148-7.9297 13.6586-6.3" fill="#008f4c"/><path d="m6451.1172-663.767c-7.532 6.4681-14.7389-3.832-20.7245.2603-7.9321-2.1499-2.1124-10.8636-8.6686-10.9447 2.3435-10.9437-10.2311-1.3903-9.894-10.9217-6.2229 7.453-4.2908-12.222-9.4274-2.3499-1.497-6.017-5.202-6.8425-3.4674-11.5216-10.044-1.1469 8.1147-10.1968-1.3207-15.9884 1.0124-11.2918-18.4128-3.4043-10.5622-15.9721 2.6234-3.0446 12.6446-5.3991 3.2548-7.352 1.3968-15.3688 9.3423-9.3483 11.0463-14.4875 6.8896.4725-10.7878-8.6049.1082-17.9775-2.0422-4.2362 3.5621-17.282 4.7481-20.6536 3.6599 4.0553 9.1127-6.022 14.0145-6.1089 1.6002-.8922 7.5068 5.4747 9.1069 4.5825" fill="#008f4c"/><path d="m6615.869-676.2435c1.4669 11.3133 12.2222 21.0686 4.5924 28.5693-6.1391.124-7.25 4.0981-6.8247 7.0115-.7895 6.4518-7.9102 9.2693-7.5433 9.6542 8.9288 8.4772-.7271 13.9663-1.593 20.5814-1.5891 3.6727-2.9799 3.6453-5.4304 4.9425-5.3147-1.9469-7.85-5.8718-9.1368-9.0711-6.7688 2.9609-5.1976-15.789-14.4995-11.9289.7723-9.3881-8.3032 4.054-7.2299-8.9194 2.1986-6.7501-7.8095-2.2486-8.5451-6.6404" fill="#008f4c"/><path d="m6485.3382-820.0994c-7.6924-.7378-11.5239-13.1645-17.9935-4.1705-8.7461-4.5299-14.4442 5.5713-22.6009 6.6314-5.1266.4099-4.6734 2.946-9.9125 4.1554-.4687 9.7164-11.1285 6.8266-13.2502 14.8475-5.2968 9.3009 6.1669 26.5285 15.3606 30.2728-7.1034 1.6976-2.8898 5.018-5.1436 7.2923 5.7799-.3172 9.2763 8.87 2.5121 9.4147 5.8358 3.1488 11.1366-1.4479 12.2907 3.7331.4811 3.0977-.6111 7.8039-3.5174 9.9376 5.5868 7.6965 22.1376-5.1697 13.89 6.4162-6.081 8.4657 13.2035 7.1872 17.9205 3.9218 6.1048-12.2942 6.4989 12.633 14.1464 2.7344 7.3625 10.0055 10.7684-9.1049 14.6636-5.2093" fill="#008f4c"/><path d="m6475.7372-793.2593c1.8234-8.4298-6.8579-16.1993-1.3888-19.256 1.1473-4.5143-7.2726-16.9309-4.267-20.0055.2688-9.0246 6.8348-8.3986 9.5811-11.9638 5.9254 4.6221 12.2788 4.5492 13.4252 0 5.5206.6475 7.503 4.4087 10.3925 3.4729 5.1927 6.4719 6.065-6.3123 10.1304 2.9918 1.5925-1.4808 2.5653 1.3897 6.5599-6.4648 3.9653 2.0456 8.8907 2.0629 10.4088 11.4888 11.3344-4.606.281 17.6921 6.1408 13.9141 1.7847 9.0328 2.8946-3.8056 5.8978 3.6245 7.2079-9.8725 4.8614 13.1436 3.9288 17.6586 3.8971-1.756 8.3562-7.9891 10.3259 4.539 1.2727 8.5033-1.9478 18.1719-4.2815 22.0404 3.7448 5.7524 10.5908 6.2171 5.8396 13.2131 3.7274 8.3397-1.0653 14.1415-6.0062 14.2361l1.3056 2.5198" fill="#008f4c"/><path d="m6493.7238-664.9985c4.1313-.2187 9.7272 3.2399 9.7057 4.6825 10.4362.0167 15.2952-11.6438 23.4229-15.6927 5.5079-3.21 1.4057-6.9319 7.7329-7.9117 5.5901-7.0531-5.162-8.7803.7824-13.3816-6.8775-4.9422 2.6633-6.9442 2.1167-13.4729 4.9424-6.069-4.4159-6.7838 3.494-7.8271-.8519-5.1673.075-7.7143-3.2593-10.6729 7.0769-3.8099-12.2202-3.4843-6.7704-11.9215-8.6396-3.6413 8.75-12.5783-3.4979-15.2383-2.5637-.4809-12.0055 5.6443-8.1068-1.2095 12.023-9.9116-14.4402-15.9241-17.347-5.6855-2.7859-7.5377-3.1994-12.7309-9.1596-8.9318-3.9257-9.9546-9.9687 10.5188-11.7178 5.2829" fill="none"/><path d="m6591.1943-751.7732c9.5791-7.8872 17.522 6.5975 21.8835 16.7848 13.2607 1.406-1.4405 12.7021 4.9422 18.508-2.5466 8.0318-6.45 9.1499-4.5493 18.2359-10.3247 1.5516-9.5422 17.1061-17.0729 20.5365-.5265 17.1625-13.9313-8.4018-14.7512 7.011-3.7704 1.5372-9.869-.4308-9.8225-6.6186l-.621.4648-.3471.2592" fill="none"/><path d="m6487.9967-497.4846c8.8727 0 16.8632-.5625 21.2584-2.4819 3.0333-3.0655 5.1848-9.6288 5.9941-11.491-.8143 1.8441-2.9241 8.4192-5.9941 11.491-.3581.3583-1.0791 1.6248-1.7108 2.4819 5.2619-.4873 13.5628.023 17.1763-2.4819 1.5836 2.3994 9.4661 1.9742 14.0002 2.4819-.4859-.9533-.8254-2.1054-.9779-2.4819-.6447-1.5914-4.0183-10.3535-4.9846-12.4158.9559 2.0655 4.3341 10.7946 4.9846 12.4158 1.6537.5053 8.9529 1.9042 12.4454 2.4819h12.462c-12.0247-6.9924-19.7033-18.2489-19.7714-31.7654-.047-9.3235-.224-14.2116-.5444-17.5596-1.5325-16.0133 2.2506-28.0085 1.5805-34.1349-.612-5.5937-2.189-10.1495-1.0358-23.287.5168-5.8872-.6996-10.4549 1.607-13.6654 6.6232-9.2184 23.1509-24.7499 32.8367-21.8688l-1.411-8.1113c-6.2592-4.4158-26.2147 11.1628-33.6135 11.1036.158-15.927-1.537-13.503 1.0437-21.9244 3.4527-11.2683 10.6959-17.8081 22.7523-22.0043l-2.5168-6.2825c-15.7414 2.6207-20.274 9.4382-26.5424 20.3588-4.6653 8.1276-8.2345 18.444-11.7117 26.8602-1.8277 4.4236-3.1696 10.7685-2.5664 17.4819-.5786-6.689.7324-13.04 2.5664-17.4819-4.8748-4.7626-8.6525-12.3254-13.4972-18.5824-3.1005-4.0042-7.4333-2.9422-13.5864-5.2149-6.9201-10.1647-11.6733-17.0071-14.1848-23.4217l-5.8568 1.3762c2.3654 8.8498 3.4497 11.9561 8.9662 20.5873-3.1891 20.063-6.0559 12.214-13.8416 17.8575l1.228 7.398c4.2086-2.3614 9.5181-1.8909 11.2271-3.2575 1.8571-1.4851 5.4564-3.8737 8.1228-8.2073 11.5289 5.1224 10.9974 4.3472 12.629 19.2763.9902 9.0624.7832 12.4205.4249 14.2972-1.5208 1.4434-.9481 5.2092.8133 13.4256.9763 4.5536 3.9212 18.0965 2.8259 36.4395-.5822 9.7507-.7779 12.8046-1.3249 20.2861-2.3102 3.1487-1.0462 13.0106-1.5015 18.2558-1.5051 17.3451 1.6034 20.1133-19.7708 31.7654z" fill="#c87137"/></g></g><path d="m1.5 69.5c24.083 24.098 40 54.636 40 90.5v354.75c0 68.898 54.852 123.75 123.75 123.75h62.375c27.289 0 50.92 17.163 62.375 40 11.455-22.837 35.086-40 62.375-40h62.375c68.898 0 123.75-54.852 123.75-123.75v-354.75c0-35.864 15.917-66.402 40-90.5l-68-68-18.7 18.7c-13.233 13.233-31.607 21.3-51.8 21.3h-300c-20.193 0-38.567-8.067-51.8-21.3l-18.7-18.7z" fill="none" stroke="#000" stroke-linecap="round" stroke-linejoin="round" stroke-width="3"/></svg>