<?xml version="1.0" encoding="utf-8"?><!DOCTYPE svg PUBLIC "-//W3C//DTD SVG 1.1//EN" "http://www.w3.org/Graphics/SVG/1.1/DTD/svg11.dtd"><svg viewBox="0 0 500 640" xmlns="http://www.w3.org/2000/svg"><path d="m.5.5v474.25c0 68.898 55.852 124.75 124.75 124.75h62.375c27.289 0 50.92 17.163 62.375 40 11.455-22.837 35.086-40 62.375-40h62.375c68.898 0 124.75-55.852 124.75-124.75v-474.25z" fill="#008f4c" stroke="#000" stroke-linecap="round" stroke-linejoin="round"/><g stroke="#000" stroke-linecap="round" stroke-linejoin="round"><path d="m333.9732 60.4999c.363 20.6602-8.0008 50.9317-17.3069 73.3649 2.5042-12.5403.9913-25.0933-4.2605-36.2126.2434 15.2346-1.6453 32.0385-7.5852 43.4947-12.9759 25.0255-20.7823 24.7353-19.4829 62.6964.464 13.5512-11.0757 22.5929-20.3203 28.3077-11.9277 7.3735-13.3041 13.6657-10.8554 21.0903.8333 2.5259 2.1073 4.4434 3.8645 5.3754 1.917 3.9481 5.3438 7.0499 9.502 8.7116 10.676 14.2562 28.0565 13.7138 38.6529 4.706-5.3851-1.2803-10.7016-3.6366-15.4379-7.0769 9.9714 1.0376 21.1247-2.4262 27.8484-9.5808-5.7446-.0377-12.5465-2.2178-18.6584-6.2774 12.5685.4248 24.6129-4.5076 32.9873-15.5632-6.1624 1.2159-13.557 2.0236-20.2225.831 14.8753-2.192 28.628-14.5065 33.9754-29.9164-4.5969 3.97-10.8139 7.3567-17.1951 9.3244 14.8634-11.7417 28.74-34.68 33.0939-54.581-5.4557 7.7186-12.3886 14.6393-19.7645 19.9362 12.9667-19.6805 22.7157-43.4363 25.2771-61.1248-4.3876 7.6521-11.9557 19.237-20.5549 30.9546 11.1239-24.1178 19.1161-52.4266 18.0186-68.9528-3.1331 10.1411-9.7833 23.657-17.6025 36.8804 5.8889-21.2702 8.0602-42.9579 4.6723-56.3877-1.757 12.3955-7.5181 29.315-14.6333 46.1327 2.7667-18.1762 1.6283-35.3478-4.0121-46.1327z" fill="#eac102" fill-rule="evenodd"/><path d="m70.9857 188.5941c5.1794-2.5625 5.6572-4.8738 5.4108-9.5671-4.1404-4.1337-6.0682-8.4334-5.8288-12.7719.2524-4.5787 1.2068-9.319-.8742-13.1443-2.6498-4.8724-11.2051-4.8528-13.488-8.5374-4.2976-6.9364 3.7476-13.246 10.8953-12.7308 5.2923.3814 7.5219 11.2506 9.1573 16.6833.4936-2.0938 1.612-4.1079 2.1007-5.9355.2302-.8582-1.2167-2.0023-2.0626-2.7485-4.0269-3.5518-1.2233-10.3819 3.6578-10.8532 5.1668-.4989 9.2323 2.612 8.1877 7.9014-.893 4.5209-3.0936 8.7912-3.4906 13.2025.4588-1.7441 1.6167-3.1597 2.965-4.0256 3.5932-2.3077.4463-6.854.9785-9.2182.7214-3.203 3.5611-5.2637 7.1213-5.0611 1.9523.111 4.6561 1.9174 5.4908 4.1309.6194 1.6425.5855 3.5724.1384 5.5132-1.2614 5.4643-7.2201 10.2903-8.9743 13.7968-1.7239 3.4458-3.4609 14.1016-.5185 16.1163 16.6126 11.3747 37.7226 22.8212 48.8447 26.9985l-5.0878 22.862c-5.739-4.2367-15.1026-10.2506-17.8904-12.3317-9.562-7.1382-23.6525-17.8657-31.3622-26.011-1.2842-1.3569-2.2775.2621-2.0951 1.1377.8429 4.05 2.7194 9.2562 1.8308 12.5379-1.5419 5.694-7.8633 6.8164-12.6004 6.0711-7.6534-1.2042-7.2325-11.6764-2.5053-14.0152z" fill="#eac102"/><path d="m76.2582 148.5258c.9899 3.3089 2.3435 7.6543 5.0579 13.1286" fill="none"/><path d="m84.6512 150.0926c-.4449 5.0902 2.3202 17.7906 7.2003 21.2522" fill="none"/><path d="m82.6849 200.4868c3.0458 14.4409-12.3411 18.7829-15.8173 9.0728 6.8281.3642 7.814-3.5396 5.2327-9.6613 2.876-4.9614 9.6797-3.494 10.5845.5884z" fill="#eac102" fill-rule="evenodd"/><path d="m67.3845 135.7449c.4387-14.8185-15.1883-14.9268-16.8845-4.6561 6.6338-1.8226 9.2205 2.9604 7.4236 7.5379 3.4124 2.1903 8.234 2.6508 9.4609-2.8818z" fill="#eac102" fill-rule="evenodd"/><path d="m87.7468 131.559c4.6807-12.2565-5.9862-19.4564-12.7899-11.453 6.4678 1.156 6.8193 6.6368 3.4533 10.0628 2.2214 3.9683 6.9835 4.3209 9.3366 1.3903z" fill="#eac102" fill-rule="evenodd"/><path d="m101.2059 135.9187c7.0781-9.9822-1.9176-18.4869-7.9908-11.4509 5.8064 1.0455 4.1179 6.0647 1.1116 9.0746 1.8885 3.0603 4.2615 3.6249 6.8793 2.3763z" fill="#eac102" fill-rule="evenodd"/><path d="m208.3859 221.2068c-15.7448-5.4902-34.795-18.5184-39.1661-25.8751-1.8435 1.4377-.9362 6.0503-.6701 7.495-15.4084-9.5705-9.498-10.3519-21.2306-18.901.5658 3.1523 1.4548 6.7866-1.3059 9.8317-1.2507-4.9708-9.5904-15.2454-15.4106-20.682 1.6353 6.399-.5654 8.5181-2.5247 9.511-2.4048-1.9504-7.1533-7.3866-8.6643-15.6233-3.9962 5.5352-2.9733 9.9349-.6605 15.12-3.0194-3.1344-7.9128-6.0746-9.7958-5.2507 1.2363 5.2926 5.0793 11.1172 9.9836 14.6263-5.0234-3.2598-9.4906-4.0017-13.9111-5.6494 1.5102 6.8506 4.2904 10.4163 13.4844 15.5064-3.7422-.9239-13.7509-.6048-18.3953 2.5484 2.2651 1.3552 9.9858 3.3424 12.601 6.6781-5.4511-.1792-9.7641 1.2279-15.4078 7.7385 5.6269.1323 12.5312-.763 18.418 1.5121-2.717 2.1413-2.855 8.9484.2973 12.4477.02-3.8276 7.2311-8.8649 17.0562-3.6466-3.7105.7769-6.9895 5.2894-4.5985 10.4996 1.099-2.3805 10.5133-2.2326 17.1842 1.6636-1.9368 1.8278-2.8122 6.3639-2.1061 9.1882 10.8278-.0713 24.2346 14.1824 31.3248 22.3139" fill="#eac102"/><path d="m153.774 215.8625c-3.1468-2.2366-7.276-8.6551-4.9119-15.5221 1.8072 3.3123 4.1358 5.9884 7.8826 7.2573" fill="none"/><path d="m134.7482 203.4414c-2.7511-3.3829-5.7418-10.3222-2.0119-16.1442 1.0176 3.4681 3.3103 6.3802 6.4478 8.6441" fill="none"/><path d="m140.7011 215.6836c-3.6658-3.0635-9.0393-5.8558-15.5819-1.927 3.4711 1.0384 5.7693 3.2888 8.3963 6.6022" fill="none"/><path d="m157.0075 234.2477c-2.9034-2.7002-9.2389-6.4185-15.5822-1.9272 2.963.7961 6.3441 3.7191 8.3962 6.6024" fill="none"/><path d="m144.3787 417.3903c4.9259-.8514 11.2205 6.7366 12.0919 8.5095l9.0687-4.7473c-2.711-7.8642-17.265-14.8314-21.1606-3.7623z" fill="#eac102"/><path d="m124.6803 452.3385c3.5497-4.5047 14.1764-2.0811 16.1545-1.0638l2.4903-10.9323c-8.2194-2.9271-18.8288-.1453-18.6448 11.9961z" fill="#eac102"/><path d="m135.6504 481.4883c6.1155-4.6145 12.7442-7.5418 15.1263-8.3436l-7.4835-9.3005c-7.6221 3.8222-10.5038 8.3566-7.6428 17.6442z" fill="#eac102"/><path d="m182.9087 491.3762c3.1192-4.6026 2.2993-16.3222 2.0948-18.2021l11.2624 3.8694c2.0578 8.0513-4.3348 17.5656-13.3572 14.3327z" fill="#eac102"/><path d="m231.254 411.1105c2.7276 2.7924 2.9867 15.0209-.3848 17.2052-7.6951 4.9855-14.0327 2.7602-19.3615 4.3064-4.4547 1.2927-16.9811 9.0413-22.3381 11.1118-4.3056 1.6641-12.2874 3.2486-12.6471 1.7808.3552 1.4733 8.2775-.1062 12.6471-1.7808-4.3534 1.6755-7.8591-3.3853-8.8532-4.377-3.343-3.3352-5.1487-7.023-4.232-12.7713 1.2952-8.1223-9.3088-12.3837-14.6107-4.8436-8.8461 1.1379-7.2339 5.3406-6.9957 12.1904.094 2.6952 4.9985 4.2352 8.4965 5.4031-3.5302-1.2011-8.4115-2.7229-8.4965-5.4031-2.4191-1.9328-9.8439-.3328-13.2787 3.4844-1.7698 1.9661-.02 5.5047-.7258 7.8848-1.4442 4.8716-1.2213 7.7211 4.066 10.6703 1.763-1.1455 6.8688-2.8355 9.9409-3.7928-3.0633.9571-8.1907 2.6707-9.9409 3.7928-3.0278 1.941-4.6388 4.5186-3.6325 9.5697.2637 1.3239 1.4272 3.5297 4.41 4.3631 3.0942 4.0739 5.1249 6.4843 9.4078 5.2639 7.1076-2.0257 8.9065-11.5347 12.2092-11.5852 4.7952-.0691 5.7376-4.1319 11.5558-5.8013 4.7537-1.3644 9.9381 2.5059 8.5795 4.6756-1.3765 2.1976-4.5167 3.3879-5.5148 5.8557-3.4804 8.6035 21.6346 14.8866 24.9609 8.9316 2.1651-3.8759-4.003-11.2701 3.91-15.8749 10.3614-6.0291 9.4306 10.0452 22.7181 9.3155 9.1464-.5021-12.1151-14.4135-2.3815-13.6149 9.1665.7522 16.9811 10.1389 23.8171 4.1204 3.7293-3.2833-13.5394-7.6566-3.8473-9.4945 6.4885-1.2304 18.8434 7.9547 22.5347 1.2542 2.5406-4.6124-10.7977-6.0508-8.4277-10.7487 2.5899-5.1335 19.9961 4.9002 23.8171-3.5827 1.699-3.772-8.1533-4.5374-7.5113-7.3454.463-2.0257 4.4983.5403 7.3282-2.1495 5.7274-5.443 15.4521-26.496 6.9619-20.6011-5.3525 3.7164-8.1441 4.4186-10.9924 7.1655 2.6667-3.714 3.3706-20.8649 3.1144-22.0343-1.1248-5.1353 14.7566-7.6187 24.2763-17.674 7.9322-8.3791 13.01-16.1423 16.2132-27.2911l-45.8535-25.5547c-.1424 21.1279-8.425 23.2954-21.7738 24.56-16.4873 1.5625-44.9711 10.9026-45.9451 29.6702-11.2939 1.2669-14.5888-3.4723-16.6101-6.216-1.3082-1.7758-12.8796-3.6733-17.6137 2.4418-5.2227 6.7461-11.8698 6.5778-14.909 7.1848 1.9962 7.3534 10.1356 8.9757 18.3657 6.9206 6.3346-1.5816 10.7992-6.7766 13.7617-7.161 7.2796-.9454 7.2397 6.9204 17.0351 4.3768 1.7726 7.2545 7.386 16.612 16.7505 26.1989z" fill="#eac102"/><path d="m352.381 327.576c30.1758 30.0649 63.8751 53.4275 73.802 44.7297 15.817-13.8588-16.4549-32.439-28.4205-54.6051-25.1378-46.5684-4.1199-65.9049 18.0799-77.0696 21.2004-10.6617 24.5039-9.6737 33.6576-19.9817 0 9.1851-2.8698 16.1831-11.3031 20.5754 11.6239 12.3436-11.0339 26.1308-25.4043 51.4935-7.3853 13.0344-7.489 22.778 5.523 37.7606 7.096 8.171 14.19 12.9537 20.1317 25.6108 10.5546-20.2634-28.635-40.5015-2.2394-55.8862-4.7938 10.3773 13.2921 30.3036 13.2921 48.0364 0 6.6169-2.6821 13.0036-10.1725 18.619-5.8463 19.3683-27.4662 32.3686-90.8194-32.08z" fill="#eac102"/><path d="m438.1969 241.2247c-27.9786 14.4232-36.153 30.7767-41.3834 54.5162" fill="none"/><path d="m300.9026 484.8725c8.8489-2.4468 19.4611 4.2122 20.8997 5.5872l5.8174-9.2522c-5.2963-6.4843-20.9196-7.0611-26.7171 3.665z" fill="#eac102"/><path d="m292.791 516.5507c3.9926-5.2227 17.3704-5.1762 19.0732-4.9651l.1945-11.156c-7.0256-1.8048-18.6906 5.0034-19.2683 16.1211z" fill="#eac102"/><path d="m334.1707 539.4999c-1.7911-8.6152 6.7702-13.7725 8.0071-15.1296l-11.4052-6.6454c-5.9986 5.1342-6.9007 15.7642 3.3981 21.7749z" fill="#eac102"/><path d="m364.442 539.2572c6.6364-3.4033 6.4043-18.0793 6.5544-20.0411l12.9266-.9722c-.5931 15.684-7.1304 22.6893-19.481 21.0134z" fill="#eac102"/><path d="m318.1153 363.2315c-6.774 9.2464-19.4806 7.924-21.2178 2.9886-1.3034-3.7042 1.9808-5.9492 3.575-7.0059-18.822-4.9114-16.4523-12.4255-13.3563-16.8146z" fill="none"/><path d="m197.5064 302.8966c59.3935 12.0109 64.0024 26.4618 80.8272 36.2226 76.2962 44.2632 38.5534 34.891 37.9032 71.4001-.054 2.9483 1.9645 6.1794 4.4758 9.338.6063 7.0027-7.8573 9.5831-5.987 17.1461 1.7983 7.2736 5.9834 18.3853-1.846 23.3463 30.4643-3.8954 5.4083-22.2799 13.7727-34.1478 3.9172 3.7066 8.0165 6.9611 10.4931 9.1123 10.4113 9.0435 34.1279 4.6877 30.3272 17.3997-3.4885 11.6668-4.4295 25.5818-9.3073 32.9294-3.9146 5.8966-12.2417 13.2795-18.5505 13.4525 6.3357-.1666 14.6415-7.5291 18.5505-13.4525-4.9454 7.3247-21.2198-8.1477-24.6695-8.7343-6.6055-1.1229-11.1848 2.2238-11.7225 7.6813-.1023 1.0519-1.6738 2.321-2.3718 3.355-2.6602 3.9409 7.0413 6.7727 12.2593 7.6685-9.9746 1.2392-13.7769-3.6293-15.2367-3.8065-9.4624-1.1465-6.9565 7.28-7.7477 12.5656-.1644 1.1089-1.7967 11.62 7.0802 12.1747 5.7149.3573 8.3453-5.8009 10.121-5.818 2.172-.0216 8.0487-1.9769 12.456-5.111.6412 3.1921-5.3691 4.0899-10.6628 7.5169-9.6285 6.234 19.4911 21.2906 20.8724 10.3951.51-4.0238-.6525-6.2199 1.696-9.6669 3.5224-5.1706 11.0098.2904 17.6942-6.4797.4463 4.2291-4.9539 9.333-3.3524 15.7302 1.7106 6.8331 24.8446.8285 25.2023-3.2779.7513-8.6249-10.3732-12.5264-1.6445-23.3344 2.0193-2.4999 15.5201-1.7771 22.3747-12.4684 2.4658-3.846-12.7245-1.4627-13.0124-3.9153-.5392-4.594 20.0931-12.4381 19.9079-15.442-.2837-4.5976-12.9523-.0477-13.235-2.8273-.396-3.8965 22.6443-14.5189 22.6443-18.0525 0-4.0017-13.9475-.6658-15.9712-2.7188-3.454-3.5031 15.9712-10.669 15.9712-19.2482 0-3.5958-9.8013 4.3371-10.9662-.4352-1.5608-6.3912 2.3821-15.9734 2.5578-18.7045.2283-3.5561-8.9745 7.8573-9.7874 10.4397.1484-5.1517-21.6264-6.852-24.3211-14.7896-2.9356-8.6461-5.1794-17.865-5.6564-32.8627-1.4059-44.2281-68.2328-67.7807-97.1082-125.0397z" fill="#eac102"/><path d="m116.0326 379.0504c-.639-5.7411-2.6486-6.9801-7.1453-8.3527-5.3015 2.4765-10.0031 2.8179-14.0001 1.1101-4.2184-1.8023-8.3489-4.319-12.6565-3.6717-5.4868.8239-8.3924 8.8673-12.6369 9.7523-7.9902 1.6662-11.1726-8.0479-8.2451-14.5861 2.1674-4.8411 13.1484-3.2205 18.815-2.8999-1.7997-1.1794-3.3111-2.9183-4.8624-4.002-.728-.5096-2.2982.4585-3.289.9981-4.7154 2.5686-10.1787-2.3995-8.9534-7.1457 1.2971-5.0242 5.6113-7.78 10.2272-4.9906 3.9451 2.384 7.2077 5.9107 11.2195 7.7914-1.4831-1.027-2.4181-2.5985-2.7714-4.1612-.9416-4.164-6.2914-2.7618-8.3323-4.0699-2.7647-1.7724-3.7316-5.1443-2.3242-8.4193.7717-1.7961 3.3941-3.7185 5.7604-3.746 1.756-.0204 3.5587.6711 5.2303 1.7553 4.7062 3.0525 7.2069 10.2996 9.904 13.1459 2.6503 2.7971 12.0749 8.0711 14.9747 5.9957 16.3722-11.7177 34.3492-27.6354 42.078-36.6555l19.7553 12.5934c-5.9449 3.9431-14.7995 10.6834-17.7088 12.591-9.9794 6.5424-24.8813 16.1122-35.1743 20.5704-1.7147.7427-.5319 2.229.3535 2.357 4.0959.5925 9.632.6091 12.4135 2.5657 4.8263 3.3946 3.7207 9.7165 1.4011 13.9115-3.7482 6.7778-13.4499 2.8031-14.033-2.437z" fill="#eac102"/><path d="m80.1637 360.4024c3.4492.2011 7.9974.4149 14.0719-.2639" fill="none"/><path d="m84.5056 353.0535c4.6334 2.1579 17.5191 3.9015 22.4417.5004" fill="none"/><path d="m131.2125 372.1255c14.6178 2.0747 13.4409 18.013 3.1236 17.9595 2.6763-6.2897-.657-8.5502-7.2947-8.2178-3.6814-4.3975.0241-10.287 4.1711-9.7418z" fill="#eac102" fill-rule="evenodd"/><path d="m65.1146 364.3694c-13.7819-5.4769-19.2252 9.1657-10.1486 14.2696.5538-6.8546 5.9347-7.6497 9.6241-4.3971 3.2257-2.4569 5.3067-6.8289.5245-9.8725z" fill="#eac102" fill-rule="evenodd"/><path d="m67.9523 343.8109c-9.9233-8.5863-21.3521-.8016-16.1531 8.3252 3.2977-5.6807 9.5844-4.3627 11.6548-.0297 4.4901-.7304 6.4494-5.0833 4.4983-8.2955z" fill="#eac102" fill-rule="evenodd"/><path d="m76.838 332.6579c-6.9657-10.0609-18.036-4.5176-13.4968 3.5924 2.9674-5.097 7.1092-1.7953 8.9113 2.0576 3.5228-.7282 4.8646-2.7643 4.5855-5.65z" fill="#eac102" fill-rule="evenodd"/><path d="m193.6574 261.1267c-10.5434 12.9139-26.0511 26.7829-34.4618 28.3745.7216 2.223 5.3683 2.9474 6.8175 3.1912-14.2644 11.2032-16.2311 4.9572-28.2789 13.0565 3.1569.546 6.8779.9531 8.7971 4.5873-5.1008-.5243-17.6114 3.7982-24.712 7.4072 6.5751.651 7.8152 3.4426 8.0791 5.6226-2.6557 1.5923-9.3897 4.1949-17.65 2.799 3.8382 5.6458 8.3243 6.1887 13.9897 5.7885-3.979 1.7649-8.4157 5.3567-8.2848 7.4072 5.3985.6475 12.1882-.9716 17.1637-4.3792-4.7816 3.6047-7.0062 7.5475-10.0661 11.1368 6.9568.9229 11.2595-.4699 19.1875-7.3668-2.1478 3.1994-5.2688 12.7105-3.8915 18.1511 2.0481-1.6645 6.5556-8.238 10.5855-9.5544-2.0317 5.0595-2.1831 9.5919 2.009 17.1188 2.0476-5.2405 3.5658-12.0323 7.7168-16.7845 1.0845 3.284 7.4372 5.7404 11.8046 3.9753-3.5916-1.3274-5.8629-9.8229 2.4014-17.2686-.538 3.751 2.5839 8.3737 8.2996 7.9085-1.8625-1.8459 1.4943-10.6392 7.4376-15.574 1.0563 2.4443 5.0218 4.8171 7.9185 5.119 3.6339-10.1957 23.1943-22.6469 33.2625-26.5279" fill="#eac102"/><path d="m169.9664 310.6013c-3.1784 2.1917-10.624 3.8766-16.2722-.6913 3.7318-.5655 7.0437-1.8383 9.5173-4.9241" fill="none"/><path d="m151.7854 324.2282c-4.1209 1.4281-11.6672 1.8656-15.8659-3.6282 3.6084.2296 7.13-.929 10.3309-3.1023" fill="none"/><path d="m165.3298 322.8206c-4.133 2.3964-8.595 6.4898-7.1375 13.9786 2.1628-2.9058 5.0641-4.2953 9.0771-5.6305" fill="none"/><path d="m188.3567 313.8479c-3.5309 1.8045-9.1922 6.485-7.1377 13.9788 1.7612-2.5113 5.665-4.6884 9.0772-5.6306" fill="none"/><path d="m184.5177 300.053c-3.1782 2.1915-10.6239 3.8767-16.272-.6915 3.7319-.5654 7.0436-1.8382 9.5172-4.9241" fill="none"/><path d="m348.7966 227.6006c14.6323 10.0325 43.4872 6.9774 60.1032-.8785-12.9931 21.5089-48.7467 33.8136-77.9916 20.7423z" fill="#eac102" fill-rule="evenodd"/><path d="m297.418 253.5927c5.4449 18.767 24.0655 32.8291 44.2399 39.0513-20.903 9.6962-56.2921 2.9236-65.7295-28.6234z" fill="#eac102" fill-rule="evenodd"/><path d="m314.9502 244.7864c7.3217 17.5171 29.8925 29.785 46.9322 32.0843-20.2899 12.2457-62.9035 7.2161-70.7666-14.0349z" fill="#eac102" fill-rule="evenodd"/><path d="m289.2199 261.6361c1.8027 8.4739 6.9837 16.5671 16.2088 21.0855-15.4531 2.2803-30.7797-5.2972-35.0703-15.4156z" fill="#eac102" fill-rule="evenodd"/><path d="m301.6791 254.5368c2.7411 7.9326 9.7591 14.0703 18.7311 17.9661-20.5533 8.6843-29.87.3211-35.3151-8.8275z" fill="#eac102" fill-rule="evenodd"/><path d="m334.5154 240.2717c9.2386 13.6994 33.442 15.8143 50.9852 15.5749-19.3477 14.8178-48.5322 14.7234-74.3159 3.8497z" fill="#eac102" fill-rule="evenodd"/><path d="m312.4264 249.4742c4.6178 6.335 13.1582 9.6385 23.1615 10.2614-14.6251 9.1845-30.6807 7.2161-38.3233.6552z" fill="#eac102" fill-rule="evenodd"/><path d="m326.3317 236.8958c5.3328 5.4053 14.3624 7.2731 24.6167 6.3235-12.7177 11.3028-26.5016 14.9289-42.7445 9.9336z" fill="#eac102" fill-rule="evenodd"/><path d="m358.067 203.8124c22.9293 5.4932 57.454-5.4212 79.1753-23.3311-13.5394 33.2815-64.231 70.2152-94.0475 54.7268z" fill="#eac102" fill-rule="evenodd"/><path d="m346.5259 203.8976c23.8855 1.8539 82.8266-46.6927 102.9741-67.3174-10.1859 34.2724-57.9346 86.0873-101.7629 92.3876z" fill="#eac102" fill-rule="evenodd"/><path d="m361.3001 174.207c24.561-8.0826 73.8852-53.2479 88.1999-79.5368 0 33.7527-50.2105 105.4611-85.3571 112.0749z" fill="#eac102" fill-rule="evenodd"/><path d="m361.6857 165.2126c23.0229-15.4322 60.8988-64.5138 69.2818-93.1524 7.6232 31.267-21.7593 96.1288-59.2266 111.2526z" fill="#eac102" fill-rule="evenodd"/><path d="m357.8581 160.4736c19.8127-21.5309 50.0232-71.1315 51.9486-99.9737 14.9174 26.0599-5.581 82.1987-40.1733 114.9499z" fill="#eac102" fill-rule="evenodd"/><path d="m322.0046 218.142c5.7438 3.215 12.6477 6.5765 21.4721 6.6587 8.5251.0794 17.5929-2.4246 27.613-11.0916-10.8478 19.642-20.8745 26.8075-32.6254 28.9557-5.3827.9841-12.7979-.3646-17.3922-1.2708z" fill="#eac102" fill-rule="evenodd"/><path d="m329.7785 199.4579c5.3925 1.8612 14.5122 2.9097 24.497 1.2516 9.6464-1.6021 20.5588-9.5522 30.6663-20.7886-6.4634 22.413-22.5535 40.1793-35.2592 44.7754-5.9118 2.1385-16.8699 2.8703-20.1154 1.993z" fill="#eac102" fill-rule="evenodd"/><path d="m330.8791 185.5496c8.4963-1.2807 18.4254-2.0224 29.1166-7.9103 10.3289-5.6887 20.1577-18.1789 28.0908-33.5681-.4694 24.8629-15.3561 48.6518-28.9652 56.7799-6.5103 3.8883-20.0308 10.6677-26.0417 10.2126z" fill="#eac102" fill-rule="evenodd"/><path d="m335.6334 170.7965c8.7219-3.2102 14.5368-5.4016 24.2911-13.764 9.424-8.0793 17.0423-22.3672 22.1792-38.8497 4.2629 23.313-5.4381 48.1958-17.7341 59.4312-5.8823 5.3746-17.3535 14.0149-27.4079 18.2524z" fill="#eac102" fill-rule="evenodd"/><path d="m333.8048 234.2453c-4.7916 7.5691-20.1242 21.3382-45.1826 32.6151-13.4971 6.0739-20.3546 2.4509-22.8443-4.8501-2.9247-8.577-.2488-15.2265 18.3217-20.9505 14.3929-4.4363 32.4819-12.0456 33.1339-26.9208 1.8268-41.6699 13.488-39.8439 35.3793-64.6229 10.0213-11.3434 14.5641-29.2585 15.7135-45.9274 10.0492 19.5833 7.4471 41.0311-8.8806 58.9276-38.2124 41.8833-6.7072 41.8207-25.6409 71.729z" fill="#eac102" fill-rule="evenodd"/><path d="m220.712 89.3732c1.5198-13.7054 16.7574-17.4723 24.3295-28.8733 1.5812 7.1105 2.4582 21.4424-11.8737 30.7664" fill="#eac102"/><path d="m148.2061 109.94c-.2837 3.8078.5616 9.9123 11.2752 11.6485 10.104 1.6376 17.2966-2.6242 36.6786-4.1305 13.5148-1.0453 23.2773 2.4292 30.84 5.5229l-1.6671 9.1867c-5.5451-3.3225-15.4547-8.3919-28.5165-7.5138-15.8056 1.0627-27.4993 4.5019-38.38 2.643-15.6129-2.6672-15.3118-14.9135-10.2302-17.3569z" fill="#eac102" fill-rule="evenodd"/><path d="m192.9699 293.3866c-13.6532-19.5294-20.2321-35.9431-17.623-55.557-7.1804 1.8395-7.4659-5.0182-13.6516-3.9235 7.027-8.097 20.4859-10.2797 17.7874-21.9077-4.9925 1.2825-11.0237 2.0205-11.6833-7.5885 12.2302-1.8955 12.8143-9.814 26.8258-9.9401-6.1175.8497-9.2317-1.1732-14.306-5.5543 2.9568-.0295 9.845-1.5774 11.8757-4.0296 7.1879-8.6792 8.0268-2.0328 10.3887-5.0284-.7926-3.9555 9.2658-8.0681 10.5993-10.7604-4.8505-.1002-8.1488-2.9558-10.1017-9.1347 14.7237 7.8462 26.7177-18.7518 13.8944-22.1978l4.5634-13.6249-28.9932-17.5638-8.1328-14.8787c5.6488-8.2028 9.8172-12.2826 18.096-13.3613 13.7212-1.7878 32.2309 3.4957 46.5927-6.0709-.5259 3.2232-2.0473 6.4297-5.7821 8.7248 10.2698 5.4192 20.1102 14.3587 25.2158 23.415-2.093-.9299-6.2308-2.502-9.3737-2.2059 2.9556 5.2962 9.8192 12.6879 10.8248 18.5272 2.877 1.5674 6.0852 6.5978 7.0837 9.8879-2.6709-.9458-3.5886-2.2402-6.4894-2.1245 3.0512 6.9316 3.6764 9.2786 3.5697 13.4496-.2793 10.922 5.9758 15.3208 10.548 7.1411-.5702 9.1769-6.8471 16.8285-13.5315 13.1213 1.1309 2.1578 2.0091 4.9771 3.0643 7.7525 1.2357 3.2505 2.7144 6.4405 5.1261 8.4377-1.742.7123-10.2241 1.0195-11.7637 3.5413 1.535 5.2926-4.2018 13.9426 3.7181 17.8671.4744 5.9109-8.5176 10.2623-12.1156 10.0164 3.2698 1.5898 10.4191-.1411 11.8245 11.8585-3.8453-3.6225-5.5696-1.277-8.9453-3.1503-.4338 6.3185 1.9299 13.4076 6.1116 16.9985l13.7578 23.3742c-1.1623 21.5911-31.2788 18.654-38.4022 33.7752-7.4669-.8129-11.9227-12.0134-30.6967 10.8261z" fill="#eac102"/><path d="m180.3671 129.3736c1.5954 21.6112 24.816 5.9453 36.6085 8.3911 1.7504-3.8445 5.2034-8.5142 4.5636-13.6254-15.1671-2.099-17.3512 14.9899-41.1719 5.2365z" fill="#eac102" fill-rule="evenodd"/><path d="m184.413 91.6973c-11.1782 2.4438-32.0056 17.4629-15.2305 26.9645 2.2809-13.5098 15.1626-10.0191 22.8298-4.6324 5.341 3.7525 22.826 8.9981 29.5267 10.11-1.7141-13.696-17.9058-10.3679-37.126-32.4421z" fill="#eac102" fill-rule="evenodd"/><path d="m177.8682 243.0584c.072 11.5118-12.6621 18.8663-5.6794 35.0752 1.6766-5.3405 4.2727-9.0818 7.8777-11.1884-1.9007 4.3842-6.7242 23.2146 2.2168 29.1528-.1444-2.6165.9319-9.2631 4.2841-18.6479" fill="#eac102" fill-rule="evenodd"/><path d="m214.9851 114.1011c12.5399-.548 16.0722 10.1578 16.2861 19.6987" fill="none"/><path d="m244.1391 123.6577c2.3415 1.4384 3.8553 3.0956 4.5424 4.9709 1.5442-3.1857 1.3973-6.4733-.4536-9.7107" fill="none"/><path d="m260.5769 130.1535c1.5547 3.9575 1.4199 8.3172-.2288 12.7912-1.1184-3.385-3.2295-6.1499-6.4056-8.3896" fill="none"/><path d="m244.907 149.3058c1.3297.7638 2.1909 1.8917 2.5839 3.3843 1.9421-2.4572 2.6564-5 2.2404-7.6105" fill="none"/><path d="m242.9331 224.2736c4.1343 1.449 7.02 3.5507 8.6577 6.3031 1.5196-5.6677.3262-10.8804-3.5549-15.3906" fill="none"/><path d="m246.1968 238.688c-1.6206 1.8033-2.5227 3.7766-2.7366 5.988-1.6159-2.4867-2.2968-5.1153-1.897-7.735" fill="none"/><path d="m228.7617 233.742c-2.2644 3.1792-3.0121 7.5593-2.3376 13.0678-7.6123-7.9959-7.6099-15.3947-3.2901-22.4546" fill="none"/><path d="m226.9893 197.2431c-.3406 3.6187-3.0795 11.9957 4.5939 18.2392.096-2.5699-1.0087-3.1364 2.8961-12.0434" fill="none"/><path d="m220.0535 159.1403c-2.6149 8.609 3.6305 17.2795 9.8571 14.6353" fill="none"/><path d="m226.3922 166.6377c2.227 4.2756 4.1382 10.4426 8.2551 9.0258 1.8077 4.0316 1.6846 7.8338 1.266 11.3103 2.1165-2.1281 6.332-4.1023 6.8638-8.1785.4631-3.5487-3.0501-6.4787-4.0391-9.4024" fill="none"/><path d="m253.9499 206.5999c-.2412-3.4455-2.2198-6.5388-5.9748-9.1641 2.1528-.925 4.14-.5966 6.1003.73-.8481-5.5501-4.2984-9.687-10.5108-12.4393" fill="none"/><path d="m241.2964 91.8853c3.612 5.6543 5.2882 12.4019.6939 14.5363" fill="none"/><path d="m231.6087 92.9859c3.9992 4.5534 7.4186 12.0435-.4387 13.8758" fill="none"/><path d="m209.953 207.608c-4.5818 5.2349-6.1069 10.5165-4.7156 15.9417 1.267-2.0686 2.9478-3.2416 5.2682-3.345-2.3938 4.0395-2.9885 7.7247-1.8638 10.9668" fill="none"/><path d="m256.3882 152.501c1.7217 3.1442 7.4825 9.5658 2.9331 18.6214-1.063-3.2703-3.047-7.2244-7.3345-9.6905" fill="none"/><path d="m209.2707 185.3301c-.2696 2.8622-2.4355 9.4872 3.6331 14.4253.078-2.033-.7976-2.4812 2.2906-9.5252" fill="none"/><path d="m230.8021 139.4689c-.2693 2.8618-2.4353 9.4865 3.6333 14.4246-.062-3.1459.6153-7.0288 2.2905-9.5246" fill="none"/><path d="m252.7673 101.9108c1.2935 2.3617 6.451 4.443 3.0348 11.2429-1.1114-2.2521-4.5007-2.0347-6.3399-4.5357" fill="none"/><path d="m198.8685 93.7626c4.5434-1.591 13.3568 1.8459 18.8022-1.1451-1.4483 3.5856-2.1904 9.1309-11.9412 9.2347-5.493.0583-8.6449-4.1633-6.861-8.0897z" fill="#e5e5e5" fill-rule="evenodd"/><path d="m198.8685 93.7626c-1.1826.4226-2.316 1.0174-3.1944 1.5175" fill="none"/><path d="m203.9616 93.8768c-1.3618.1477-2.2887 1.8139-2.0704 3.7197.2164 1.9063 1.499 3.3306 2.8604 3.1824 1.3622-.1477 2.2889-1.8139 2.0706-3.72-.2163-1.9063-1.4986-3.3304-2.8606-3.1821z" fill-rule="evenodd"/><path d="m189.7743 232.261c-6.1855 9.4253-5.1185 20.5191 4.0339 33.4739.5913-5.4397 1.7229-10.8698 6.5011-16.2327" fill="none"/><path d="m190.4834 283.1108c-1.5476 9.622.022 23.2091 14.7252 28.8754-2.8889-3.5515-4.8041-6.5916-4.2198-11.0473 6.1933 8.6227 18.8398 9.1865 22.4119 20.2583 1.1142-4.5486-.7192-20.2845-3.9158-24.8935" fill="#eac102" fill-rule="evenodd"/><path d="m261.4761 255.3831c10.137 4.1752 15.1482 14.0001 14.4456 30.1247-3.3814-4.1618-7.8847-11.3159-14.696-12.9507" fill="#eac102"/><path d="m260.8442 232.8193c6.005-2.187 15.2037-5.6614 21.5676.7564-4.247-.6499-6.4646 3.7703-10.2268 5.5673 11.9112-2.1967 14.3423 3.1806 19.1442 8.131-3.6382-.1966-11.1301 2.8257-13.9869 3.3102 6.3541 3.0957 12.7291 9.9885 15.0487 14.8062.8642.9523-12.4293-6.3654-17.895-3.9644" fill="#eac102"/><path d="m179.0955 104.1829c1.107-.7672 2.9644-1.4127 4.5779-.9816 1.772.4736.9752 2.2052-.469 1.2932-1.1144-.704-2.642-.3103-4.1089-.3116z"/><path d="m210.0593 288.8806c2.866 9.8945 12.5899 14.5125 22.9056 18.0242 3.3841-10.9336 5.5782-22.0082-.2751-30.2845" fill="#eac102"/><path d="m237.7761 278.6343c5.8978 9.8016 15.8726 13.0389 30.3936 8.9592-4.4862-2.6957-8.7676-5.9247-11.6656-12.7531" fill="#eac102"/><path d="m212.1393 254.7784c-4.315 9.7888-1.3371 19.1347 9.7717 27.9878-.3844-4.8732-.2458-9.8786 3.4242-15.7764" fill="none"/><path d="m235.3284 252.2761c.2865 7.2241 2.726 12.1518 7.2861 14.9591-.4913-2.4404-.1003-4.5576 1.4428-6.3999 1.0135 4.7043 3.0418 7.7848 5.9705 9.239" fill="none"/><path d="m254.301 244.9592c2.3412 1.4387 3.855 3.0956 4.5421 4.971 1.5443-3.1857 1.3973-6.4733-.4531-9.7107" fill="none"/><path d="m192.1743 209.9637c-1.6109 2.2823-6.6701 6.7109-3.811 14.2686 1.0457-1.6847.5067-2.5501 6.5637-6.8238" fill="none"/><path d="m228.1522 89.6433c7.4328-17.3715 25.7255-16.9179 38.8249-29.1434-1.2579 9.8486-6.3264 28.8841-25.9638 36.0112" fill="#eac102"/><path d="m237.9211 90.1583c9.6069-4.6521 13.315-8.8103 14.4785-12.7576" fill="none"/></g><path d="m1.5 1.5v473.25c0 68.35 55.4 123.75 123.75 123.75h62.375c27.18 0 50.966 17.254 62.375 40 11.409-22.746 35.195-40 62.375-40h62.375c68.35 0 123.75-55.4 123.75-123.75v-473.25z" fill="none" stroke="#000" stroke-linecap="round" stroke-linejoin="round" stroke-width="3"/></svg>