<?xml version="1.0" encoding="utf-8"?><!DOCTYPE svg PUBLIC "-//W3C//DTD SVG 1.1//EN" "http://www.w3.org/Graphics/SVG/1.1/DTD/svg11.dtd"><svg viewBox="0 0 500 640" xmlns="http://www.w3.org/2000/svg"><path d="m.5.5v474.25c0 68.898 55.852 124.75 124.75 124.75h62.375c27.289 0 50.92 17.163 62.375 40 11.455-22.837 35.086-40 62.375-40h62.375c68.898 0 124.75-55.852 124.75-124.75v-474.25z" fill="#0071bc" stroke="#000" stroke-linecap="round" stroke-linejoin="round"/><g stroke="#000" stroke-linecap="round" stroke-linejoin="round"><g><path d="m292.32 412.7107c5.8246 1.6982 13.4264 4.8928 17.2652 7.2 5.7878-4.759 21.2231-8.2462 30.6158-9.6757-3.5165-1.3366-8.0472-5.044-9.6739-6.7652-11.6426 1.3459-27.1621 5.3098-38.207 9.2408z" fill="#e5e5e5"/><path d="m303.4258 409.335c3.3294 1.8647 9.0135 4.952 12.6144 6.9696" fill="none"/><path d="m312.1272 406.884c1.814 1.3573 8.8089 5.5454 11.1395 6.8888" fill="none"/><path d="m322.1977 404.7688c1.5851 1.4441 6.8298 5.3355 9.6276 6.9905" fill="none"/><path d="m231.7677 423.7849c7.2355 9.7956 25.8896 17.396 34.3139 19.465-3.2239-3.1759-6.4943-10.0459-7.1591-13.4639-8.7694.7924-16.6051-3.4113-21.0062-6.8808-1.6571.3281-3.9504.6638-6.1486.8797z" fill="#e5e5e5"/><path d="m261.3066 436.4277c-8.797-1.854-17.447-5.4078-26.014-13.085" fill="none"/><path d="m168.2655 360.6008c15.3994-7.7637 36.4969-21.6419 50.9651-30.3509-4.4226 13.3558 8.4028 21.3205 20.4299 27.9176l-8.6581 7.779z" fill="#e5e5e5"/><path d="m183.1836 361.8396c9.4113-5.7227 23.8154-14.6316 35.501-22.9638" fill="none"/><path d="m194.962 362.8232c8.4399-4.5351 17.6502-10.9948 27.0248-17.5184" fill="none"/><path d="m206.4633 363.8343c6.3745-3.7378 13.3318-8.0714 20.6811-13.4546" fill="none"/><path d="m217.6806 364.7503c5.1631-2.8353 10.3912-6.0574 15.5543-10.2112" fill="none"/><path d="m71.3109 383.5532c20.1698-11.0185 63.4974-25.8253 104.2598-25.8253 75.6485 0 134.1621 23.3908 186.7356 23.3908 18.0329 0 55.9299-30.0163 77.1937-34.858-12.8031 10.3661-37.803 32.5552-37.803 43.4242 0 9.9118 34.2393 24.7797 37.803 34.9924-34.6815 0-57.6788-21.3125-77.1937-21.3125-57.983 0-87.7853 25.8631-166.3039 25.8631-40.5757 0-110.0781-10.7611-130.7052-28.369-3.251-2.7752-4.7973-5.0196-4.7973-7.7577 0-2.7147 3.7367-5.6835 10.8109-9.548z" fill="#e5e5e5"/><path d="m375.4467 380.0852c20.3059-6.749 40.6462-19.6805 48.8131-20.7127" fill="none"/><path d="m378.4577 382.858c11.6165-2.0555 25.6301-10.3507 35.5297-13.2799" fill="none"/><path d="m382.6 385.4949c7.6534-1.271 17.0049-3.8477 23.4207-6.1189" fill="none"/><path d="m372.1244 402.2741c17.8724 2.8786 41.6162 14.865 61.6677 15.5154" fill="none"/><path d="m376.5235 399.9872c12.0293.9483 35.8323 8.9458 45.2286 8.8799" fill="none"/><path d="m380.592 396.9342c9.5818.5102 22.0602 3.3901 30.7835 4.5539" fill="none"/><path d="m383.9125 393.0993c5.6532.0304 12.4405.6198 20.0556 1.6437" fill="none"/><path d="m60.5 393.1012c5.9746-4.5113 8.1827 4.727 14.3109 6.2745 6.4791 1.6362 10.8677 3.5103 14.5429 5.7943" fill="none"/><path d="m98.7409 380.8149c7.7121 1.0571 3.8312 6.7383 3.8339 12.7954.003 7.1714 22.2157 15.1009 1.4638 18.9668" fill="none"/><path d="m213.8212 408.542c9.802-5.0259 1.0489-10.9301-.826-10.5839" fill="none"/><path d="m207.3063 423.8787c9.802-5.0263 1.0489-10.9304-.826-10.584" fill="none"/><path d="m220.7425 394.2594c9.802-5.026 1.0489-10.9304-.826-10.5839" fill="none"/><path d="m235.0829 408.1495c9.802-5.0259 1.0489-10.9303-.826-10.584" fill="none"/><path d="m245.1926 400.1808c9.802-5.0263 1.0489-10.9303-.826-10.5841" fill="none"/><path d="m253.0977 413.3872c9.802-5.0259 1.0489-10.9303-.826-10.5839" fill="none"/><path d="m252.581 387.3983c9.802-5.0259 1.0489-10.9302-.8261-10.5838" fill="none"/><path d="m266.9525 397.4402c9.802-5.0258 1.0489-10.93-.826-10.584" fill="none"/><path d="m272.7022 381.2571c9.802-5.026 1.0489-10.9305-.826-10.5842" fill="none"/><path d="m282.9228 393.9106c9.802-5.0261 1.0489-10.9302-.826-10.5839" fill="none"/><path d="m295.6381 385.7659c9.802-5.0259 1.0489-10.9301-.826-10.5838" fill="none"/><path d="m307.8716 399.7254c9.802-5.0259 1.0489-10.93-.826-10.5837" fill="none"/><path d="m320.5054 392.909c9.802-5.026 1.0489-10.9301-.826-10.5837" fill="none"/><path d="m337.7047 398.0373c9.802-5.0259 1.0489-10.9303-.826-10.5838" fill="none"/><path d="m277.2086 410.2438c9.802-5.0258 1.0489-10.9302-.826-10.584" fill="none"/><path d="m294.834 409.812c9.802-5.0263 1.0489-10.9304-.826-10.584" fill="none"/><path d="m176.7186 408.3497c9.802-5.0261 1.0489-10.9303-.826-10.5839" fill="none"/><path d="m167.0612 391.2228c9.802-5.0262 1.0489-10.9303-.826-10.584" fill="none"/><path d="m143.4343 406.8538c9.802-5.0257 1.0489-10.93-.826-10.5838" fill="none"/><path d="m155.7481 400.241c9.802-5.0261 1.0489-10.9303-.826-10.584" fill="none"/><path d="m193.249 409.9581c9.802-5.0259 1.0489-10.9302-.826-10.584" fill="none"/><path d="m124.3033 407.5151c9.802-5.0259 1.0489-10.9301-.826-10.5839" fill="none"/><path d="m186.8414 394.1482c9.802-5.0263 1.0489-10.9303-.826-10.5842" fill="none"/><path d="m204.5182 397.1037c9.802-5.0258 1.0489-10.9303-.826-10.5839" fill="none"/><path d="m222.852 418.2215c9.802-5.0258 1.0489-10.9301-.826-10.584" fill="none"/><path d="m237.8329 423.4615c9.802-5.0259 1.0489-10.9301-.826-10.584" fill="none"/><path d="m194.4085 426.3825c9.802-5.026 1.0489-10.9301-.826-10.5841" fill="none"/><path d="m265.5513 418.125c9.802-5.0257 1.0489-10.93-.826-10.5838" fill="none"/><path d="m401.7588 388.2142c-4.5737.4463-10.691 1.6259-17.8357 1.0956" fill="none"/><path d="m164.1524 415.1291c9.802-5.0262 1.0489-10.9303-.826-10.5842" fill="none"/><path d="m117.7891 381.302c9.802-5.0258 1.0489-10.9303-.8261-10.5838" fill="none"/><path d="m183.335 377.0224c9.802-5.026 1.0489-10.9303-.826-10.584" fill="none"/><path d="m199.3445 380.8636c9.802-5.0259 1.0489-10.9302-.826-10.5838" fill="none"/><path d="m216.4888 377.6709c9.802-5.026 1.0489-10.93-.8261-10.5837" fill="none"/><path d="m231.8282 385.8109c9.802-5.026 1.0489-10.9303-.826-10.5839" fill="none"/><path d="m244.9507 376.5378c9.802-5.0259 1.0489-10.9303-.826-10.5839" fill="none"/><path d="m142.2265 378.7769c9.802-5.0259 1.0489-10.9302-.826-10.5839" fill="none"/><path d="m107.4917 381.3421c2.8423 1.5158 4.3674 8.1162 3.893 10.7196 2.4803.6968 13.7768-.7057 19.3686-.7057 7.9189 0 27.4036-5.9543 27.4036-7.1981 0-3.5307-33.0997-6.8237-50.6652-2.8158z" fill="#e5e5e5"/><path d="m110.1149 384.638c15.9021-2.3752 38.8809-.7651 48.042-.4801" fill="none"/><path d="m111.5039 388.623c11.343-1.0384 24.685-.9192 34.4912-.0475" fill="none"/><path d="m92.6869 386.3592c0 3.0852-2.5683 5.5894-5.7329 5.5894s-5.7329-2.5042-5.7329-5.5894 2.5683-5.5894 5.7329-5.5894 5.7329 2.5042 5.7329 5.5894z" fill="#e5e5e5"/><path d="m88.2163 386.568c0 1.8425-1.4894 3.3382-3.3245 3.3382s-3.3245-1.4957-3.3245-3.3382 1.4894-3.338 3.3245-3.338 3.3245 1.4955 3.3245 3.338z"/><path d="m149.2568 420.6792c9.802-5.0261 1.0489-10.9301-.826-10.584" fill="none"/><path d="m135.1663 420.3527c9.802-5.0261 1.0489-10.9302-.826-10.584" fill="none"/><path d="m157.6494 420.9645c.1061-1.4053-.1637-6.0746-.4185-7.4123 16.8052.2799 32.1448-4.2359 47.1954-11.064-17.1212 18.175-26.1284 23.0721-46.7768 18.4764z" fill="#e5e5e5"/><path d="m157.5976 417.371c13.8746 1.599 25.965-2.3677 38.2554-6.4986" fill="none"/><path d="m161.2815 371.1797c9.802-5.0262 1.0489-10.9303-.826-10.584" fill="none"/></g><g><path d="m207.68 538.7108c-5.8246 1.6982-13.4264 4.8928-17.2652 7.2-5.7878-4.759-21.2231-8.2462-30.6158-9.6757 3.5165-1.3366 8.0472-5.044 9.6739-6.7652 11.6426 1.3459 27.1621 5.3098 38.207 9.2408z" fill="#e5e5e5"/><path d="m196.5742 535.3351c-3.3294 1.8647-9.0135 4.952-12.6144 6.9696" fill="none"/><path d="m187.8728 532.8841c-1.814 1.3573-8.8089 5.5454-11.1395 6.8888" fill="none"/><path d="m177.8023 530.7688c-1.5851 1.4441-6.8298 5.3355-9.6276 6.9905" fill="none"/><path d="m268.2323 549.7849c-7.2355 9.7956-25.8896 17.396-34.3139 19.465 3.2239-3.1759 6.4943-10.0459 7.1591-13.4639 8.7694.7924 16.6051-3.4113 21.0062-6.8808 1.6571.3281 3.9504.6638 6.1486.8797z" fill="#e5e5e5"/><path d="m238.6934 562.4278c8.797-1.854 17.447-5.4078 26.014-13.085" fill="none"/><path d="m331.7345 486.6008c-15.3994-7.7637-36.4969-21.6419-50.9651-30.3509 4.4226 13.3558-8.4028 21.3205-20.4299 27.9176l8.6581 7.779z" fill="#e5e5e5"/><path d="m316.8164 487.8397c-9.4113-5.7227-23.8154-14.6316-35.501-22.9638" fill="none"/><path d="m305.038 488.8232c-8.4399-4.5351-17.6502-10.9948-27.0248-17.5184" fill="none"/><path d="m293.5367 489.8344c-6.3745-3.7378-13.3318-8.0714-20.6811-13.4546" fill="none"/><path d="m282.3194 490.7504c-5.1631-2.8353-10.3912-6.0574-15.5543-10.2112" fill="none"/><path d="m428.6891 509.5532c-20.1698-11.0185-63.4974-25.8253-104.2598-25.8253-75.6485 0-134.1621 23.3908-186.7356 23.3908-18.0329 0-55.9299-30.0163-77.1937-34.858 12.8031 10.3661 37.803 32.5552 37.803 43.4242 0 9.9118-34.2393 24.7797-37.803 34.9924 34.6815 0 57.6788-21.3125 77.1937-21.3125 57.983 0 87.7853 25.8631 166.3039 25.8631 40.5757 0 110.0781-10.7611 130.7052-28.369 3.251-2.7752 4.7973-5.0196 4.7973-7.7577 0-2.7147-3.7367-5.6835-10.8109-9.548z" fill="#e5e5e5"/><path d="m124.5533 506.0853c-20.3059-6.749-40.6462-19.6805-48.8131-20.7127" fill="none"/><path d="m121.5423 508.8581c-11.6165-2.0555-25.6301-10.3507-35.5297-13.2799" fill="none"/><path d="m117.4 511.495c-7.6534-1.271-17.0049-3.8477-23.4207-6.1189" fill="none"/><path d="m127.8756 528.2742c-17.8724 2.8786-41.6162 14.865-61.6677 15.5154" fill="none"/><path d="m123.4765 525.9872c-12.0293.9483-35.8323 8.9458-45.2286 8.8799" fill="none"/><path d="m119.4081 522.9343c-9.5818.5102-22.0602 3.3901-30.7835 4.5539" fill="none"/><path d="m116.0875 519.0994c-5.6532.0304-12.4405.6198-20.0556 1.6437" fill="none"/><path d="m439.5 519.1013c-5.9746-4.5113-8.1827 4.727-14.3109 6.2745-6.4791 1.6362-10.8677 3.5103-14.5429 5.7943" fill="none"/><path d="m401.2591 506.815c-7.7121 1.0571-3.8312 6.7383-3.834 12.7954-.003 7.1714-22.2157 15.1009-1.4638 18.9668" fill="none"/><path d="m286.1788 534.5421c-9.802-5.0259-1.0489-10.9301.826-10.5839" fill="none"/><path d="m292.6937 549.8788c-9.802-5.0263-1.0489-10.9304.826-10.584" fill="none"/><path d="m279.2575 520.2595c-9.802-5.026-1.0489-10.9304.826-10.5839" fill="none"/><path d="m264.9171 534.1496c-9.802-5.0259-1.0489-10.9303.826-10.584" fill="none"/><path d="m254.8074 526.1809c-9.802-5.0263-1.0489-10.9303.826-10.5841" fill="none"/><path d="m246.9023 539.3873c-9.802-5.0259-1.0489-10.9303.826-10.5839" fill="none"/><path d="m247.419 513.3984c-9.802-5.0259-1.0489-10.9302.8261-10.5838" fill="none"/><path d="m233.0475 523.4403c-9.802-5.0258-1.0489-10.93.826-10.584" fill="none"/><path d="m227.2978 507.2572c-9.802-5.026-1.0489-10.9305.826-10.5842" fill="none"/><path d="m217.0772 519.9107c-9.802-5.0261-1.0489-10.9302.826-10.5839" fill="none"/><path d="m204.362 511.766c-9.802-5.0259-1.0489-10.9301.826-10.5838" fill="none"/><path d="m192.1284 525.7255c-9.802-5.0259-1.0489-10.93.826-10.5837" fill="none"/><path d="m179.4946 518.9091c-9.802-5.026-1.0489-10.9301.826-10.5837" fill="none"/><path d="m162.2953 524.0374c-9.802-5.0259-1.0489-10.9303.826-10.5838" fill="none"/><path d="m222.7914 536.2439c-9.802-5.0258-1.0489-10.9302.826-10.584" fill="none"/><path d="m205.166 535.8121c-9.802-5.0263-1.0489-10.9304.826-10.584" fill="none"/><path d="m323.2814 534.3498c-9.802-5.0261-1.0489-10.9303.826-10.5839" fill="none"/><path d="m332.9389 517.2229c-9.802-5.0262-1.0489-10.9303.826-10.584" fill="none"/><path d="m356.5657 532.8539c-9.802-5.0257-1.0489-10.93.826-10.5838" fill="none"/><path d="m344.2519 526.2411c-9.802-5.0261-1.0489-10.9303.826-10.584" fill="none"/><path d="m306.751 535.9582c-9.802-5.0259-1.0489-10.9302.826-10.584" fill="none"/><path d="m375.6967 533.5152c-9.802-5.0259-1.0489-10.9301.826-10.5839" fill="none"/><path d="m313.1586 520.1483c-9.802-5.0263-1.0489-10.9303.826-10.5842" fill="none"/><path d="m295.4818 523.1038c-9.802-5.0258-1.0489-10.9303.826-10.5839" fill="none"/><path d="m277.148 544.2216c-9.802-5.0258-1.0489-10.9301.826-10.584" fill="none"/><path d="m262.1671 549.4616c-9.802-5.0259-1.0489-10.9301.826-10.584" fill="none"/><path d="m305.5915 552.3826c-9.802-5.026-1.0489-10.9301.826-10.5841" fill="none"/><path d="m234.4487 544.1251c-9.802-5.0257-1.0489-10.93.826-10.5838" fill="none"/><path d="m98.2412 514.2142c4.5737.4463 10.691 1.6259 17.8357 1.0956" fill="none"/><path d="m335.8476 541.1292c-9.802-5.0262-1.0489-10.9303.826-10.5842" fill="none"/><path d="m382.2109 507.3021c-9.802-5.0258-1.0489-10.9303.8261-10.5838" fill="none"/><path d="m316.665 503.0225c-9.802-5.026-1.0489-10.9303.826-10.584" fill="none"/><path d="m300.6555 506.8637c-9.802-5.0259-1.0489-10.9302.826-10.5838" fill="none"/><path d="m283.5112 503.671c-9.802-5.026-1.0489-10.93.8261-10.5837" fill="none"/><path d="m268.1718 511.811c-9.802-5.026-1.0489-10.9303.826-10.5839" fill="none"/><path d="m255.0493 502.5379c-9.802-5.0259-1.0489-10.9303.826-10.5839" fill="none"/><path d="m357.7735 504.7769c-9.802-5.0259-1.0489-10.9302.826-10.5839" fill="none"/><path d="m392.5083 507.3422c-2.8423 1.5158-4.3674 8.1162-3.893 10.7196-2.4803.6968-13.7768-.7057-19.3686-.7057-7.9189 0-27.4036-5.9543-27.4036-7.1981 0-3.5307 33.0997-6.8237 50.6652-2.8158z" fill="#e5e5e5"/><path d="m389.8851 510.6381c-15.9021-2.3752-38.8809-.7651-48.042-.4801" fill="none"/><path d="m388.4961 514.623c-11.343-1.0384-24.685-.9192-34.4912-.0475" fill="none"/><path d="m407.3132 512.3593c0 3.0852 2.5683 5.5894 5.7329 5.5894s5.7329-2.5042 5.7329-5.5894-2.5683-5.5894-5.7329-5.5894-5.7329 2.5042-5.7329 5.5894z" fill="#e5e5e5"/><path d="m411.7837 512.5681c0 1.8425 1.4894 3.3382 3.3245 3.3382s3.3245-1.4957 3.3245-3.3382-1.4894-3.338-3.3245-3.338c-1.8352 0-3.3245 1.4955-3.3245 3.338z"/><path d="m350.7433 546.6793c-9.802-5.0261-1.0489-10.9301.826-10.584" fill="none"/><path d="m364.8337 546.3528c-9.802-5.0261-1.0489-10.9302.826-10.584" fill="none"/><path d="m342.3506 546.9646c-.1061-1.4053.1637-6.0746.4185-7.4123-16.8052.2799-32.1448-4.2359-47.1954-11.064 17.1212 18.175 26.1284 23.0721 46.7768 18.4764z" fill="#e5e5e5"/><path d="m342.4024 543.3711c-13.8746 1.599-25.965-2.3677-38.2554-6.4986" fill="none"/><path d="m338.7185 497.1798c-9.802-5.0262-1.0489-10.9303.826-10.584" fill="none"/></g><g><path d="m75.1247 266.3571c16.5679 3.4587 68.2044 5.124 97.4316.8163 12.612-1.8588 26.9436-10.0476 26.9436-21.6828 0-13.9286-10.6959-22.5935-19.7171-26.4659-1.5374.2108-3.9942 1.3099-5.4248 2.2362-1.2032-1.9868-2.7115-3.7064-4.8185-4.8413-7.0059-3.7734-17.3989-5.0019-30.1202-4.5659-1.3592.7246-3.6704 2.5466-4.9793 3.5842-1.0103-1.6602-3.1818-2.8598-5.867-3.5599-8.8899-2.3178-26.6198-.4689-29.7364.2957-2.3942 1.1501-4.9196 3.2858-6.3248 4.5571-2.8082-.54-5.8901-.9145-8.9621-.7339-18.7018 1.1001-33.0499 17.8539-33.0499 30.0862 0 12.2542 12.2259 17.6856 24.6247 20.2739z" fill="#eac102"/><path d="m174.3581 221.2609c-5.4068 3.6071-11.7932 11.1183-13.5849 17.9666-3.8227-13.8968 2.8218-25.9456 8.7664-22.8079" fill="none"/><path d="m134.4402 215.438c-5.8594 4.6893-11.8558 13.3336-15.3071 20.3262-1.4842-8.1245-.008-26.3038 9.44-23.8861" fill="none"/><path d="m92.512 216.7309c-5.4143 4.5297-12.4729 13.1951-15.9242 20.1878-2.0405-6.1024-1.1758-20.1974 6.9621-20.9217" fill="none"/></g><g><path d="m325.1247 266.3571c16.5679 3.4587 68.2044 5.124 97.4316.8163 12.612-1.8588 26.9436-10.0476 26.9436-21.6828 0-13.9286-10.6959-22.5935-19.7171-26.4659-1.5374.2108-3.9942 1.3099-5.4248 2.2362-1.2032-1.9868-2.7115-3.7064-4.8185-4.8413-7.0059-3.7734-17.3989-5.0019-30.1202-4.5659-1.3592.7246-3.6704 2.5466-4.9793 3.5842-1.0103-1.6602-3.1818-2.8598-5.867-3.5599-8.8899-2.3178-26.6198-.4689-29.7364.2957-2.3942 1.1501-4.9196 3.2858-6.3248 4.5571-2.8082-.54-5.8901-.9145-8.9621-.7339-18.7018 1.1001-33.0499 17.8539-33.0499 30.0862 0 12.2542 12.2259 17.6856 24.6247 20.2739z" fill="#eac102"/><path d="m424.3581 221.2609c-5.4068 3.6071-11.7932 11.1183-13.5849 17.9666-3.8227-13.8968 2.8218-25.9456 8.7664-22.8079" fill="none"/><path d="m384.4402 215.438c-5.8594 4.6893-11.8558 13.3336-15.3071 20.3262-1.4842-8.1245-.008-26.3038 9.44-23.8861" fill="none"/><path d="m342.512 216.7309c-5.4143 4.5297-12.4729 13.1951-15.9242 20.1878-2.0405-6.1024-1.1758-20.1974 6.9621-20.9217" fill="none"/></g><g><path d="m75.1247 176.357c16.5679 3.4587 68.2044 5.124 97.4316.8163 12.612-1.8588 26.9436-10.0476 26.9436-21.6828 0-13.9286-10.6959-22.5935-19.7171-26.4659-1.5374.2108-3.9942 1.3099-5.4248 2.2362-1.2032-1.9868-2.7115-3.7064-4.8185-4.8413-7.0059-3.7734-17.3989-5.0019-30.1202-4.5659-1.3592.7246-3.6704 2.5466-4.9793 3.5842-1.0103-1.6602-3.1818-2.8598-5.867-3.5599-8.8899-2.3178-26.6198-.4689-29.7364.2957-2.3942 1.1501-4.9196 3.2858-6.3248 4.5571-2.8082-.54-5.8901-.9146-8.9621-.7339-18.7018 1.1001-33.0499 17.8539-33.0499 30.0862 0 12.2542 12.2259 17.6856 24.6247 20.2739z" fill="#eac102"/><path d="m174.3581 131.2609c-5.4068 3.6071-11.7932 11.1183-13.5849 17.9666-3.8227-13.8968 2.8218-25.9456 8.7664-22.8079" fill="none"/><path d="m134.4402 125.438c-5.8594 4.6893-11.8558 13.3336-15.3071 20.3262-1.4842-8.1245-.008-26.3038 9.44-23.8861" fill="none"/><path d="m92.512 126.7309c-5.4143 4.5297-12.4729 13.1951-15.9242 20.1877-2.0405-6.1024-1.1758-20.1974 6.9621-20.9216" fill="none"/></g><g><path d="m325.1247 176.357c16.5679 3.4587 68.2044 5.124 97.4316.8163 12.612-1.8588 26.9436-10.0476 26.9436-21.6828 0-13.9286-10.6959-22.5935-19.7171-26.4659-1.5374.2108-3.9942 1.3099-5.4248 2.2362-1.2032-1.9868-2.7115-3.7064-4.8185-4.8413-7.0059-3.7734-17.3989-5.0019-30.1202-4.5659-1.3592.7246-3.6704 2.5466-4.9793 3.5842-1.0103-1.6602-3.1818-2.8598-5.867-3.5599-8.8899-2.3178-26.6198-.4689-29.7364.2957-2.3942 1.1501-4.9196 3.2858-6.3248 4.5571-2.8082-.54-5.8901-.9146-8.9621-.7339-18.7018 1.1001-33.0499 17.8539-33.0499 30.0862 0 12.2542 12.2259 17.6856 24.6247 20.2739z" fill="#eac102"/><path d="m424.3581 131.2609c-5.4068 3.6071-11.7932 11.1183-13.5849 17.9666-3.8227-13.8968 2.8218-25.9456 8.7664-22.8079" fill="none"/><path d="m384.4402 125.438c-5.8594 4.6893-11.8558 13.3336-15.3071 20.3262-1.4842-8.1245-.008-26.3038 9.44-23.8861" fill="none"/><path d="m342.512 126.7309c-5.4143 4.5297-12.4729 13.1951-15.9242 20.1877-2.0405-6.1024-1.1758-20.1974 6.9621-20.9216" fill="none"/></g><g><path d="m200.1247 86.357c16.5679 3.4586 68.2044 5.124 97.4316.8163 12.612-1.8588 26.9436-10.0476 26.9436-21.6828 0-13.9286-10.6959-22.5935-19.7171-26.4659-1.5374.2108-3.9942 1.3099-5.4248 2.2362-1.2032-1.9868-2.7115-3.7064-4.8185-4.8413-7.0059-3.7734-17.3989-5.0019-30.1202-4.5659-1.3592.7246-3.6704 2.5466-4.9793 3.5842-1.0103-1.6602-3.1818-2.8598-5.867-3.5599-8.8899-2.3178-26.6198-.4689-29.7364.2957-2.3942 1.1501-4.9196 3.2858-6.3248 4.5571-2.8082-.54-5.8901-.9145-8.9621-.7339-18.7018 1.1001-33.0499 17.8539-33.0499 30.0862 0 12.2542 12.2259 17.6856 24.6247 20.2739z" fill="#eac102"/><path d="m299.3581 41.2609c-5.4068 3.6071-11.7932 11.1183-13.5849 17.9666-3.8227-13.8968 2.8218-25.9456 8.7664-22.8079" fill="none"/><path d="m259.4402 35.4379c-5.8594 4.6893-11.8558 13.3336-15.3071 20.3262-1.4842-8.1245-.008-26.3038 9.44-23.8861" fill="none"/><path d="m217.512 36.7309c-5.4143 4.5297-12.4729 13.1951-15.9242 20.1877-2.0405-6.1024-1.1758-20.1974 6.9621-20.9216" fill="none"/></g></g><path d="m1.5 1.5v473.25c0 68.35 55.4 123.75 123.75 123.75h62.375c27.18 0 50.966 17.254 62.375 40 11.409-22.746 35.195-40 62.375-40h62.375c68.35 0 123.75-55.4 123.75-123.75v-473.25z" fill="none" stroke="#000" stroke-linecap="round" stroke-linejoin="round" stroke-width="3"/></svg>