<?xml version="1.0" encoding="utf-8"?><!DOCTYPE svg PUBLIC "-//W3C//DTD SVG 1.1//EN" "http://www.w3.org/Graphics/SVG/1.1/DTD/svg11.dtd"><svg viewBox="0 0 820 860" xmlns="http://www.w3.org/2000/svg"><g stroke="#000" stroke-linecap="round" stroke-linejoin="round"><path d="m819.5 702.3915c-37.8275 2.8312-65.0934 33.3443-135.9999 39.8089-2.9523.2692-4.3363 2.147-4.336 3.9063l20.7942 73.2298c53.4486-7.664 87.7508-20.8911 119.5417-23.3518-18.6871-12.529-44.8417-26.2715-61.8317-30.3565 25.5824-18.3578 33.5334-39.9084 61.8317-63.2368z" fill="#e5c04e"/><path d="m.5 702.3915c37.8275 2.8312 65.0934 33.3443 135.9999 39.8089 2.9523.2692 4.3363 2.147 4.336 3.9063l-20.7942 73.2298c-53.4486-7.664-87.7508-20.8911-119.5417-23.3518 18.6871-12.529 44.8417-26.2715 61.8317-30.3565-25.5823-18.3578-33.5334-39.9084-61.8317-63.2368z" fill="#e5c04e"/><path d="m136.4999 742.2004c2.9523.2692 4.336 2.147 4.336 3.9063 0 14.7833.3368 28.2882 1.2649 42.0986-14.1288-5.9031-31.5108-18.0194-34.4732-32.0951-.4869-2.3136 1.5412-4.9613 4.769-5.2738 7.5921-.735 16.4484.4704 24.1965-.3819 2.7403-.3014 4.2229-2.3551 4.2429-4.3479" fill="#c79d1e"/><path d="m683.5001 742.2004c-2.9523.2692-4.336 2.147-4.336 3.9063 0 14.7833-.3368 28.2882-1.2649 42.0986 14.1288-5.9031 31.5108-18.0194 34.4732-32.0951.4869-2.3136-1.5412-4.9613-4.769-5.2738-7.5921-.735-16.4484.4704-24.1965-.3819-2.7403-.3014-4.2229-2.3551-4.2429-4.3479" fill="#c79d1e"/><path d="m702.4082 835.8939c1.6718-28.4438 3.8866-51.3396 9.9642-79.7836-.3302 1.674-1.7288 3.1523-4.788 3.1523-131.1652 0-193.4504 20.1358-297.5844 20.1358s-166.4192-20.1358-297.5844-20.1358c-3.0592 0-4.4578-1.4783-4.788-3.1523 6.0777 28.4441 8.2924 51.3398 9.9642 79.7836.1063 1.8094 1.53 3.4703 4.6563 3.4703 130.5247 0 177.9575 20.1358 287.7518 20.1358s157.2271-20.1358 287.7518-20.1358c3.1263 0 4.55-1.661 4.6563-3.4703z" fill="#e5c04e"/><path d="m168.022 813.9506c.3796 2.1703.9525 3.8981 1.7189 5.1834s1.7929 2.2598 3.0795 2.9235 2.9662 1.0478 5.0387 1.1522c2.8528.1437 5.0787-.4897 6.6776-1.9003s2.4701-3.5423 2.6139-6.3952c.0921-1.8287-.1475-3.3808-.7188-4.6563-.5714-1.2755-1.5487-2.4981-2.932-3.6678-1.3834-1.1697-3.5134-2.5604-6.39-4.172-2.7816-1.5579-4.9673-3.0553-6.5572-4.4921s-2.7533-2.9682-3.4903-4.5943c-.737-1.626-1.0582-3.3778-.9636-5.2553.1376-2.7309.8971-5.0699 2.2785-7.0171 1.3814-1.9471 3.3372-3.4069 5.8674-4.3796 2.5301-.9725 5.3923-1.3784 8.5865-1.2175 1.8531.0934 3.6586.2821 5.4166.5662 1.7579.2842 3.9486.8345 6.572 1.6511l-.4975 9.8752-3.6209-.1824c-.4528-2.1739-1.0757-3.8798-1.8689-5.1176-.7933-1.2377-1.7509-2.1232-2.8729-2.6565-1.1221-.5332-2.5975-.8458-4.4262-.938-1.5849-.0798-3.02.1413-4.3052.6632-1.2852.522-2.3234 1.3558-3.1144 2.5015-.7911 1.1458-1.2278 2.5355-1.31 4.1691-.0872 1.7312.15 3.2099.7116 4.4359.5616 1.2261 1.4749 2.3844 2.74 3.4748s3.158 2.3347 5.6788 3.7328c3.0424 1.7178 5.3894 3.2905 7.0408 4.7181 1.6514 1.4277 2.9154 3.0253 3.792 4.7928.8765 1.7676 1.2571 3.7973 1.1416 6.0893-.129 2.5602-.6403 4.704-1.534 6.4312-.8937 1.7273-2.0817 3.1097-3.564 4.1472-1.4823 1.0376-3.2297 1.7562-5.2421 2.156s-4.2012.5401-6.5664.4209c-3.8282-.1928-8.209-1.0613-13.1424-2.6054l.5048-10.0215z"/><path d="m220.6712 829.4552c-2.9178-.2636-5.5309-.9838-7.8391-2.1606-2.3083-1.1768-4.2278-2.8578-5.7586-5.043s-2.6215-4.9005-3.2721-8.146-.7771-7.0688-.3795-11.4698c.4898-5.4222 1.7372-10.0039 3.7421-13.7449s4.6369-6.4877 7.8962-8.2402c3.2593-1.7524 6.9192-2.4452 10.9798-2.0784 4.3281.391 7.883 1.6743 10.6649 3.8499 2.7818 2.1757 4.7529 5.185 5.9134 9.0281 1.1604 3.8432 1.5 8.4272 1.019 13.7522-.514 5.6897-1.7989 10.4151-3.8546 14.176-2.0557 3.761-4.7215 6.474-7.9974 8.1392-3.2759 1.6651-6.9807 2.311-11.1142 1.9376zm-9.6436-27.1619c-.6744 7.4647-.0992 13.2406 1.7256 17.3276 1.8247 4.087 4.8282 6.3194 9.0104 6.6972 2.6503.2394 4.9758-.4023 6.9764-1.9253s3.61-3.8718 4.8284-7.0466c1.2183-3.1747 2.024-6.9383 2.4173-11.2907.4788-5.3007.3348-9.7445-.4319-13.3315-.7669-3.5869-2.015-6.2552-3.7444-8.0049-1.7295-1.7496-3.8343-2.7364-6.3144-2.9605-2.1884-.1977-4.1129.1433-5.7734 1.0228-1.6606.8796-3.0927 2.2149-4.2963 4.0059-1.2036 1.7911-2.1633 4.0025-2.8791 6.6343-.7158 2.6319-1.2219 5.589-1.5185 8.8715z"/><path d="m281.6498 815.6165c.7017 1.5575 1.2854 2.9168 1.7511 4.0778s.9338 2.4575 1.4046 3.8895l.4728.0556c.0527-1.4933.2895-4.4461.7103-8.8583.4207-4.4122.8393-8.3883 1.2558-11.9284l.8985-7.6378c.1968-1.673.2923-2.9032.2867-3.6905-.006-.7873-.1117-1.402-.3177-1.8442-.2061-.4421-.5185-.8169-.9371-1.1243-.4187-.3073-1.1671-.6842-2.2453-1.1307l.2097-1.7821 13.0933 1.5403-.2097 1.7821c-1.1254.1626-1.9266.3388-2.4037.5285s-.8779.4622-1.2024.8173c-.3245.3552-.6052.9122-.8419 1.6709-.2368.7588-.4593 2.0232-.6675 3.7932l-4.7965 40.7711-4.5463-.5348-16.2619-36.3531c-1.0127-2.2578-1.7287-3.903-2.148-4.9357-.4194-1.0326-.8037-2.0488-1.1532-3.0487l-.6183-.0727c-.0499 1.887-.3259 5.2777-.8279 10.1719-.5021 4.8943-1.0383 9.7662-1.6088 14.6155l-.8729 7.4195c-.1911 1.6245-.2763 2.8191-.2556 3.5835.0207.7645.1326 1.3799.3359 1.8463.2032.4664.5363.8743.9991 1.2237s1.2348.7353 2.3159 1.1574l-.2097 1.7821-13.2752-1.5617.2097-1.7821c1.5489-.2111 2.6058-.5231 3.1706-.936s.9774-1.0465 1.2377-1.9009.496-2.1787.7071-3.9729l3.7011-31.4603c.1968-1.673.2795-2.8985.2482-3.6766-.0314-.778-.1615-1.3956-.3905-1.8527-.2289-.4571-.5588-.84-.9895-1.1489-.4308-.3087-1.1853-.6864-2.2635-1.1328l.2097-1.7821 11.3839 1.3392z"/><path d="m342.7032 830.2678c.3314 2.1782.866 3.9182 1.6038 5.2202.7377 1.302 1.7424 2.299 3.014 2.991s2.9422 1.1132 5.012 1.2634c2.8489.2068 5.0883-.3772 6.718-1.7521s2.548-3.4868 2.7548-6.3357c.1326-1.8262-.0726-3.3833-.6155-4.6711-.543-1.2878-1.493-2.5317-2.8501-3.7318-1.3571-1.2-3.4558-2.6375-6.2961-4.3124-2.7464-1.6191-4.8985-3.1645-6.4562-4.6361s-2.687-3.0284-3.3878-4.6704c-.7008-1.6419-.9832-3.4004-.8471-5.2754.198-2.7272 1.0091-5.0488 2.4333-6.9649 1.4242-1.916 3.4119-3.3322 5.9629-4.2486 2.5511-.9163 5.4215-1.2587 8.6114-1.0271 1.8506.1344 3.6515.3631 5.4027.686 1.7512.323 3.9291.9217 6.5338 1.7962l-.716 9.8618-3.616-.2625c-.4045-2.1834-.9896-3.9027-1.7552-5.1577-.7657-1.255-1.7035-2.1615-2.8134-2.7194-1.11-.5579-2.5781-.9031-4.4043-1.0357-1.5828-.1149-3.0224.0744-4.3188.5677-1.2965.4934-2.3528 1.3041-3.169 2.432-.8163 1.128-1.2836 2.5077-1.402 4.1391-.1255 1.7289.0789 3.2124.6132 4.4506.5343 1.2383 1.4218 2.4165 2.6624 3.5346 1.2406 1.1182 3.1055 2.4041 5.5947 3.8576 3.0036 1.7847 5.3152 3.409 6.9347 4.8728 1.6194 1.4639 2.8477 3.0891 3.685 4.8756.8372 1.7865 1.1727 3.8242 1.0065 6.1131-.1857 2.5568-.7443 4.6886-1.676 6.3957-.9317 1.707-2.15 3.0628-3.6549 4.0673s-3.2678 1.6843-5.2885 2.0394c-2.0208.3551-4.2121.4469-6.5741.2754-3.823-.2775-8.1835-1.2428-13.0815-2.8957l.7266-10.0078z"/><path d="m412.4916 794.8172-.2718 11.0562-3.5878-.0882c-.3367-1.2049-.6893-2.2637-1.0575-3.1764-.3683-.9126-.7524-1.6791-1.1523-2.2995-.3999-.6203-.8456-1.1197-1.3369-1.4982-.4914-.3784-1.0771-.6431-1.7571-.7942-.6801-.151-1.4961-.2382-2.4479-.2617l-11.5688-.2844-.4716 19.1837 7.8346.1926c1.0739.0264 1.9196-.1054 2.5373-.3955.6176-.29 1.1368-.7963 1.5576-1.5186.4207-.7223.8333-1.8599 1.2378-3.413l3.4413.0846-.3456 14.0583-3.4413-.0846c-.3057-1.4728-.6569-2.5865-1.0535-3.3411s-.8778-1.2976-1.4436-1.629-1.4222-.5112-2.5693-.5394l-7.8345-.1926-.5193 21.124 11.3857.2799c1.1959.0294 2.1686-.0505 2.9181-.2396.7495-.1892 1.3989-.5273 1.9481-1.0145.5492-.4871 1.0412-1.1283 1.4759-1.9235s.803-1.6226 1.105-2.4821c.3019-.8595.7174-2.1131 1.2464-3.7608l3.6244.0891-1.0115 12.833-33.9009-.8333.0441-1.7939c1.5228-.3533 2.5463-.7616 3.0706-1.225.5242-.4633.8765-1.1324 1.0567-2.0071s.2925-2.2152.337-4.0213l.7784-31.6677c.0414-1.684.0105-2.912-.0926-3.6838s-.2898-1.3747-.56-1.8087-.634-.7848-1.0914-1.0525c-.4574-.2676-1.2436-.5739-2.3585-.9188l.0441-1.7939z"/><path d="m431.4692 822.8009.3558 12.4461c.0502 1.7571.1538 3.0303.3107 3.8196s.3753 1.3815.6553 1.7764c.2799.395.6554.714 1.1264.957s1.2723.5071 2.404.7922l.0513 1.7937-15.4478.4416-.0513-1.7937c1.5019-.4337 2.5023-.8958 3.0012-1.3864.4989-.4905.8151-1.1773.9486-2.0604s.1745-2.2276.1229-4.0335l-.9051-31.6643c-.0481-1.6838-.1442-2.9084-.2882-3.6737-.144-.7652-.3624-1.3573-.6553-1.7764-.2929-.419-.6748-.75-1.1458-.9931-.471-.243-1.2723-.507-2.404-.7922l-.0513-1.7937 18.12-.5179c5.7105-.1632 10.0109.7519 12.9011 2.7453 2.8901 1.9935 4.3976 5.1744 4.5225 9.5427.0955 3.3434-.7445 6.2128-2.52 8.6082-1.7756 2.3955-4.487 4.3048-8.1344 5.7279l.008.2928c1.5061.5676 2.8061 1.4036 3.9002 2.508 1.094 1.1045 2.3219 2.834 3.6837 5.1886l3.4662 5.9092c1.0019 1.7299 1.8578 3.0488 2.5677 3.9566.7098.9078 1.4255 1.5957 2.1472 2.0635.7216.4679 1.671.7827 2.848.9444l.0513 1.7937-10.1399.2898c-.9644-1.2669-1.8827-2.6328-2.7549-4.0978-.8723-1.4649-1.7331-2.9546-2.5824-4.4691l-3.3961-6.0211c-1.0292-1.8268-1.8675-3.1706-2.5149-4.0314-.6474-.8607-1.2386-1.4606-1.7733-1.7994-.5348-.3388-1.1031-.5668-1.7048-.684-.6018-.1171-1.5005-.1586-2.6963-.1244zm-.7115-24.8922.6215 21.7441 4.1365-.1182c2.1231-.0607 3.8393-.2624 5.1484-.6051s2.5127-.9572 3.6109-1.8434 1.961-2.1015 2.5885-3.646c.6275-1.5444.9095-3.427.8461-5.6478-.0663-2.3183-.518-4.2349-1.355-5.7498-.8371-1.5147-2.0725-2.6518-3.7062-3.4111s-3.8172-1.0998-6.5504-1.0218c-2.1964.0628-3.9765.1626-5.3403.2992z"/><path d="m477.6031 792.3149.1479 1.7883c-1.1031.2873-1.9346.601-2.4944.9413s-.9636.7902-1.2112 1.3496c-.2477.5595-.3343 1.2893-.2598 2.1895.0684.8273.2397 1.7134.5139 2.6583.2741.945.643 1.9985 1.1066 3.1605l11.0036 29.0747 7.9929-30.8665c.1077-.4743.2135-.973.3172-1.4961.1037-.523.1902-1.0323.2594-1.528.0692-.4956.107-.9275.1133-1.2955.006-.3679-.004-.7101-.0298-1.0264-.1208-1.4598-.5434-2.4966-1.2678-3.1104-.7245-.6137-1.8997-.9758-3.5256-1.0863l-.1479-1.7883 15.3285-1.268.1479 1.7883c-.9775.3259-1.7512.7451-2.3212 1.2577-.5701.5127-1.1109 1.3046-1.6224 2.3757-.5116 1.0713-1.1006 2.7613-1.767 5.0702l-11.8011 41.6909-4.781.3955-15.6654-39.6762c-.8401-2.1597-1.5422-3.6879-2.1063-4.5844-.5641-.8964-1.1578-1.5578-1.7809-1.984-.6232-.4261-1.4558-.7186-2.4978-.8774l-.1479-1.7883z"/><path d="m546.939 785.5446 1.2694 10.9865-3.5652.4119c-.5011-1.1463-.9975-2.1457-1.4892-2.9983-.4918-.8525-.9788-1.5581-1.4611-2.1168-.4824-.5586-.9932-.9911-1.5324-1.2975-.5392-.3063-1.1561-.4869-1.8506-.5419-.6945-.0549-1.5147-.0277-2.4605.0815l-11.4958 1.3283 2.2025 19.0626 7.7851-.8995c1.0671-.1233 1.8863-.3715 2.4576-.7448.5713-.3732 1.015-.9467 1.3311-1.7205s.5664-1.9578.7508-3.552l3.4196-.3951 1.6141 13.9696-3.4196.3951c-.5077-1.4159-1.0104-2.4699-1.5082-3.162-.4978-.692-1.0499-1.1628-1.6562-1.4123-.6064-.2494-1.4795-.3083-2.6194-.1766l-7.7851.8995 2.4253 20.9907 11.3139-1.3072c1.1884-.1373 2.1405-.3518 2.8564-.6434s1.3119-.7168 1.788-1.2757c.4761-.5588.8741-1.2622 1.1939-2.1102s.5694-1.7186.7489-2.6118c.1794-.8932.4164-2.1924.7109-3.8976l3.6015-.4161.7842 12.8489-33.687 3.8923-.206-1.7826c1.4588-.5618 2.4156-1.1086 2.8702-1.6403.4547-.5318.7104-1.2433.7671-2.1346.0568-.8913-.0185-2.2343-.2259-4.029l-3.6359-31.4679c-.1934-1.6734-.3948-2.8851-.6043-3.6351-.2095-.7499-.4783-1.321-.8062-1.7132s-.737-.689-1.2273-.8904c-.4902-.2014-1.3114-.3953-2.4634-.5817l-.206-1.7826z"/><path d="m570.96 811.1648 1.3663 12.376c.1929 1.7472.3996 3.0078.6201 3.7817s.4864 1.3464.7975 1.7173.7113.6584 1.2005.8622c.4892.2039 1.3093.402 2.4604.5942l.1969 1.7836-15.3608 1.6958-.1969-1.7836c1.4617-.5544 2.4212-1.0963 2.8785-1.6257.4574-.5295.7167-1.2397.778-2.1307s-.007-2.2344-.2054-4.0301l-3.476-31.486c-.1849-1.6744-.3802-2.8871-.5859-3.6381s-.4716-1.3234-.7975-1.7173c-.326-.3938-.7335-.6927-1.2227-.8966s-1.3093-.4019-2.4604-.5942l-.1969-1.7836 18.018-1.9892c5.6784-.6268 10.0389-.0643 13.0816 1.6875 3.0426 1.752 4.8037 4.7998 5.2833 9.1434.367 3.3246-.237 6.2528-1.8119 8.7846-1.575 2.5319-4.1222 4.6553-7.6418 6.3702l.0322.2912c1.5472.4433 2.9109 1.1708 4.0911 2.1827 1.1801 1.0119 2.5446 2.6359 4.0933 4.872l3.935 5.6079c1.1392 1.6427 2.0995 2.8877 2.8808 3.7348.7812.8471 1.5505 1.4745 2.3079 1.8821.7573.4077 1.729.6442 2.9153.7098l.1969 1.7836-10.0828 1.1131c-1.0642-1.1843-2.0905-2.4711-3.0789-3.8603-.9885-1.3892-1.9676-2.804-2.9371-4.2444l-3.8743-5.7252c-1.1743-1.7371-2.1191-3.0083-2.8343-3.8136-.7153-.8053-1.3532-1.355-1.9137-1.6493-.5606-.2942-1.1455-.4753-1.7548-.5432-.6093-.0678-1.5085-.0361-2.6975.0952zm-2.7326-24.752 2.387 21.6216 4.1132-.4541c2.1112-.233 3.8052-.5736 5.0822-1.0216 1.2769-.448 2.4266-1.1583 3.4491-2.1309 1.0225-.9725 1.7837-2.254 2.2836-3.8444.4999-1.5903.6279-3.4896.3842-5.6979-.2545-2.3053-.8605-4.1788-1.8179-5.6206-.9575-1.4417-2.2812-2.4745-3.9712-3.0986-1.69-.6239-3.894-.7859-6.6118-.4859-2.184.2412-3.9501.4853-5.2983.7323z"/><path d="m639.3049 827.0679-.1337-1.7895c1.1991-.3344 2.086-.67 2.6607-1.0067.5746-.3367.9885-.7777 1.2416-1.323.253-.5453.3468-1.2561.2814-2.1326-.0619-.8278-.2261-1.7152-.4927-2.6624-.2666-.9471-.6271-2.0035-1.0814-3.1692l-1.7032-4.6101-17.018 1.2713-.9743 3.6717c-.4984 1.8489-.8105 3.2432-.9361 4.1829-.1257.9397-.1603 1.7869-.1039 2.5417.1091 1.4608.5604 2.5043 1.3539 3.1305s1.9653.9916 3.5155 1.0961l.1337 1.7894-15.5938 1.1649-.1337-1.7894c1.347-.321 2.4748-1.2009 3.3833-2.6398s1.7429-3.4598 2.5033-6.0627l12.2084-41.5646 5.7701-.4311 15.4585 39.7915c.7261 1.8554 1.3517 3.2653 1.8767 4.2299.5249.9646 1.1248 1.7032 1.7997 2.2158.6748.5127 1.57.862 2.6856 1.048l.1337 1.7895zm-15.4967-18.6728 15.2651-1.1404-8.6984-23.0366z"/><path d="m439.9485 723.1114 38.4422 5.3188 55.3675 2.1421 80.3027-51.7341 20.4627.6969c1.7874 31.0043 56.0068 65.6647 77.9467 17.8919 26.8643-58.4953 46.2107-99.8231 95.7935-153.7952l-7.5457-67.0541-68.1442-11.1678c-9.3094 17.68-14.9839 30.0764-24.6052 45.9271l-6.5815-32.3572c2.0082-15.896 6.8824-36.486 30.9878-42.7261v-125.9649c-44.3085 0-56.6265-25.6599-44.6217-64.36 3.4664 14.4652 76.7229 52.5275 87.8888 2.3519 5.0392-22.6442 17.8118-80.6823 39.0667-124.865l-22.8774-58.0125-43.1834-14.8409-36.7773 15.2723c-3.7545 22.4356-7.5281 44.729-11.0139 56.7698l-67.805-93.0808-40.0871 16.7147-127.2503-40.4981-55.7143 28.9978-55.7143-28.9978-127.2503 40.4981-40.0871-16.7147-67.805 93.0808c-3.4857-12.0408-7.2594-34.3342-11.0139-56.7698l-36.7772-15.2723-43.1834 14.8409-22.8774 58.0125c21.2549 44.1828 34.0274 102.2208 39.0667 124.865 11.1659 50.1755 84.4224 12.1133 87.8888-2.3519 12.0048 38.7001-.3132 64.36-44.6217 64.36v125.9649c24.1053 6.2401 28.9796 26.8302 30.9878 42.7261l-6.5815 32.3572c-9.6213-15.8508-15.2958-28.2472-24.6052-45.9271l-68.1442 11.1678-7.5457 67.0541c49.5827 53.9721 68.9292 95.2999 95.7935 153.7952 21.9399 47.7728 76.1593 13.1124 77.9467-17.8919l20.4627-.6969 80.3027 51.7341 55.3675-2.1421 38.4422-5.3188 29.9485 19.6001z" fill="#e5c04e"/><path d="m84.3235 128.9445c-1.6389-5.8977-4.0112-13.8587-6.9392-21.6812l-3.3183-7.6026-8.9396-6.0828c3.7867 11.2074 8.4256 26.2846 11.4206 38.1552z" fill="#c79d1e"/><path d="m175.2393 12.5354c-10.2699-5.6208-22.0196-.517-26.3499 8.4794-4.5496 9.4517 4.4245 26.4617 19.0325 22.9294-21.3146 57.7281-113.5454 104.4257-140.497 76.5045-31.4182-32.5484 43.3279-73.3647 59.096-56.0224 9.8555 10.8394-8.5853 26.4375-21.3944 29.1516l12.2579 13.6855c22.014-6.7753 33.7857-25.7674 30.7452-41.4285-.8628-4.444-2.9073-10.1295-6.2628-13.7192-27.3503-29.2591-101.3667 9.5048-101.3667 52.4209 0 5.7451 1.5664 13.1687 4.7914 18.8793 2.0896 3.7001 4.8559 7.4344 8.4134 11.013 33.6029 33.8028 127.3527-2.9267 165.1141-68.3793 6.1217-10.6109 10.4474-24.976 8.1294-36.5257-1.3964-6.9579-4.6636-13.1324-11.709-16.9884z" fill="#c79d1e"/><path d="m361.737.5c-49.5278 0-102.7864 32.0922-140.4788 34.918-4.7511.3562-7.1463-2.4656-7.1819-4.6508 6.748-1.3351 10.7878-8.6029 9.7969-16.5503-1.1065-8.8745-8.3532-13.7169-16.9392-13.7169-16.2014 0-22.8152 14.8232-19.9857 29.0238 2.4166 12.1281 13.5285 25.8797 32.081 25.8797 36.8521 0 119.2188-41.5254 157.1268-33.5983 4.3894.9179 6.5753 4.0523 6.6109 6.2376-6.748 1.3351-11.8562 7.0852-10.8139 16.3809 1.0925 9.7436 8.1838 14.025 16.7697 14.025 12.9916 0 21.2772-11.3628 21.2772-23.7104 0-26.7196-26.5593-34.2383-48.2631-34.2383z" fill="#c79d1e"/><path d="m87.6253 436.2538c38.3655 10.0117 29.1183 68.7224 3.3233 88.8808-17.5459 13.7119-57.587 22.1845-68.986-.0737-16.492-32.2029 37.9575-67.0855 48.7747-50.6507 6.9645 10.5813-12.0227 28.0363-23.3562 28.4481l.9638 19.9712c25.3318-1.3639 52.0013-32.8968 39.0814-57.4194-.5784-1.0978-1.2485-2.1745-1.9898-3.241-22.7093-32.6699-84.9364 6.6248-84.9364 50.6798 0 7.4071 1.5122 14.9287 5.3688 22.236 1.7016 3.2241 3.6284 6.1023 5.8675 8.547 21.9238 23.938 64.6708 14.4078 85.9591-4.831 15.5861-14.0855 24.6052-35.0046 24.6052-55.1162 0-23.0644-10.5567-41.2612-34.6754-47.4309z" fill="#c79d1e"/><path d="m48.3448 522.8294 10.7007 15.0907" fill="none"/><path d="m185.4765 667.5618v11.9734c59.3615 11.3909 65.9866 64.3062 129.1039 64.3062 16.3122 0 23.9415-7.5225 27.0295-15.4114 1.3829-3.5329 1.9005-7.1264 1.9005-10.1236 0-11.7872-8.6181-21.2082-20.1811-21.2082-11.6191 0-23.8691 13.6619-14.6393 26.091-42.661 0-71.9337-48.1507-123.2135-55.6275z" fill="#c79d1e"/><path d="m445.6068 733.7989c-9.1508 12.4292 2.832 25.7011 14.514 25.7011 11.4641 0 20.0084-9.0311 20.0084-20.8182 0-3.0096-.3359-6.713-1.7385-10.2518-3.1123-7.8521-10.8011-15.2832-26.9438-15.2832-17.2246 0-33.2383 9.6487-41.4468 20.1496-8.2086-10.501-24.2222-20.1496-41.4468-20.1496-16.1427 0-23.8315 7.4311-26.9438 15.2832-1.4027 3.5388-1.7385 7.2423-1.7385 10.2518 0 11.7872 8.5443 20.8182 20.0084 20.8182 11.682 0 23.6648-13.2719 14.514-25.7011 11.7015 1.3298 29.2512 12.4157 35.6068 25.7011 6.3556-13.2853 23.9053-24.3713 35.6068-25.7011z" fill="#c79d1e"/><path d="m735.6766 128.9445c1.6389-5.8977 4.0112-13.8587 6.9392-21.6812l3.3183-7.6026 8.9396-6.0828c-3.7867 11.2074-8.4256 26.2846-11.4206 38.1552z" fill="#c79d1e"/><path d="m644.7607 12.5354c10.2699-5.6208 22.0196-.517 26.3499 8.4794 4.5495 9.4517-4.4245 26.4617-19.0325 22.9294 21.3146 57.7281 113.5454 104.4257 140.497 76.5045 31.4181-32.5484-43.328-73.3647-59.096-56.0224-9.8555 10.8394 8.5853 26.4375 21.3944 29.1516l-12.2579 13.6855c-22.014-6.7753-33.7857-25.7674-30.7452-41.4285.8628-4.444 2.9073-10.1295 6.2628-13.7192 27.3503-29.2591 101.3666 9.5048 101.3666 52.4209 0 5.7451-1.5664 13.1687-4.7914 18.8793-2.0896 3.7001-4.8559 7.4344-8.4134 11.013-33.6028 33.8028-127.3527-2.9267-165.1141-68.3793-6.1217-10.6109-10.4474-24.976-8.1294-36.5257 1.3964-6.9579 4.6636-13.1324 11.709-16.9884z" fill="#c79d1e"/><path d="m458.2631.5c49.5278 0 102.7864 32.0922 140.4788 34.918 4.7511.3562 7.1463-2.4656 7.1819-4.6508-6.748-1.3351-10.7879-8.6029-9.797-16.5503 1.1065-8.8745 8.3532-13.7169 16.9392-13.7169 16.2014 0 22.8152 14.8232 19.9857 29.0238-2.4166 12.1281-13.5285 25.8797-32.081 25.8797-36.8521 0-119.2188-41.5254-157.1268-33.5983-4.3894.9179-6.5753 4.0523-6.6109 6.2376 6.748 1.3351 11.8562 7.0852 10.8139 16.3809-1.0925 9.7436-8.1838 14.025-16.7697 14.025-12.9916 0-21.2772-11.3628-21.2772-23.7104 0-26.7196 26.5593-34.2383 48.2631-34.2383z" fill="#c79d1e"/><path d="m732.3749 436.2538c-38.3655 10.0117-29.1183 68.7224-3.3234 88.8808 17.5459 13.7119 57.587 22.1845 68.986-.0737 16.492-32.2029-37.9575-67.0855-48.7747-50.6507-6.9645 10.5813 12.0227 28.0363 23.3562 28.4481l-.9639 19.9712c-25.3318-1.3639-52.0013-32.8968-39.0814-57.4194.5784-1.0978 1.2485-2.1745 1.9898-3.241 22.7093-32.6699 84.9364 6.6248 84.9364 50.6798 0 7.4071-1.5122 14.9287-5.3688 22.236-1.7016 3.2241-3.6284 6.1023-5.8675 8.547-21.9238 23.938-64.6708 14.4078-85.9591-4.831-15.5861-14.0855-24.6052-35.0046-24.6052-55.1162 0-23.0644 10.5567-41.2612 34.6754-47.4309z" fill="#c79d1e"/><path d="m771.6552 522.8294-10.7007 15.0907" fill="none"/><path d="m634.5236 667.5618v11.9734c-59.3615 11.3909-65.9866 64.3062-129.1039 64.3062-16.3121 0-23.9415-7.5225-27.0295-15.4114-1.3829-3.5329-1.9005-7.1264-1.9005-10.1236 0-11.7872 8.6181-21.2082 20.1811-21.2082 11.6191 0 23.8691 13.6619 14.6393 26.091 42.661 0 71.9337-48.1507 123.2135-55.6275z" fill="#c79d1e"/></g><g stroke="#000" stroke-linecap="round" stroke-linejoin="round"><path d="m630.5 70.5 69 69c-23.959 14.341-40 40.547-40 70.5v334.75c0 68.898-55.852 124.75-124.75 124.75h-62.375c-27.289 0-50.92 17.163-62.375 40-11.455-22.837-35.086-40-62.375-40h-62.375c-68.898 0-124.75-55.852-124.75-124.75v-334.75c0-29.953-16.041-56.159-40-70.5l69-69z" fill="#e5e5e5"/><path d="m160.5 459.1875v85.5625c0 68.898 55.852 124.75 124.75 124.75h62.375c27.289 0 50.92 17.163 62.375 40 11.455-22.837 35.086-40 62.375-40h62.375c68.0932 0 123.4349-54.5576 124.7188-122.3438l-498.9688-87.9688z" fill="#c87137" fill-rule="evenodd"/></g><g stroke="#000" stroke-linecap="round" stroke-linejoin="round"><path d="m350.4962 161.5427-63.5707 22.227-15.2645-2.5899-23.1609 20.4477v21.4l15.797 28.6841-.7568 27.0612-15.0403 25.8029v36.8802l23.2322 40.745 22.6253 9.6328h31.9288l35.5112-44.3073 69.9788 14.4083 48.5195 29.899h40.1637l18.9007-4.8522 32.1398-22.7914v-21.4494l-23.2298-28.0102-4.7404-25.9723 15.098-21.5779v-41.7447l-15.1422-12.021-11.5219-22.0309-53.8733 11.2067-22.536-56.6239-18.6367 3.058-15.3142-8.1907h-35.2056z" fill="#008f4c"/><path d="m491.6322 203.7614c2.7024-.9352-8.1489-5.0648-3.6528-8.6451 5.148-4.0993-4.4862-9.3113-.4059-13.4691 5.0293-5.1246-11.3478-4.329-4.3459-7.7136 4.9403-2.388.7617-3.4368-2.1599-6.7217-2.3728-2.6682-1.0494-8.9122-5.6085-5.1963-5.8308 4.7523 1.4806-9.4137-1.1077-9.0873-2.6099.3293-4.1088-2.8346-2.8296-8.3807.5923-2.5691-8.1969-1.0962-2.3887-4.2508 4.455-2.4198-6.8811-6.595-6.7229-6.8332 3.6973-5.5665-9.7309 1.5983-14.5794 4.9231-1.7055 1.1695 6.2802-8.7893-.3686-7.4921-4.5451.8868-2.0232-.4682-2.9698-3.1057-1.9577-5.456-10.9789 6.1974-6.9534-.0397 3.7457-5.8045-7.2706-4.9908-8.0968-.273-.3525 2.0145-.5387 2.2885-4.117 1.0757-3.1016-1.0511-2.8951 3.248-3.3226-1.1706-.4586-4.737-3.4904.0195-6.3383.785-4.0316 1.0838-.3269-5.223-1.8655-6.2496-3.1071-2.0728-8.3411-.7099-5.3065-5.3331 3.7704-5.7444-6.3837-.7463-9.1846-.4952-5.6621.5074.8053 6.1695-2.1311 10.3418-2.1605 3.07-9.4852.9609-3.6257-1.7632 3.9008-1.8136-8.2427-1.3237-2.3349-5.5266 2.821-2.0068-4.8433-7.3173-7.0586-3.0398-1.6384 3.1637-4.9217-5.4934-5.391.4403-.2659 3.3617-.5251 3.1469-5.0384 4.6702-3.1594 1.0664 3.2072 6.185-1.6195 8.0874-3.4895 1.3755-.1624 4.2156 2.5935 6.6578 1.806 1.6003 1.6667 4.4646-2.4015 2.24-2.9479-1.612-6.0732-5.8131-7.1861-4.0974-3.1799 4.9026-3.9833-2.2529-6.7263-1.4611-3.454.997 5.9334 11.6634-1.4661 7.1445-6.133-3.7455.3604 4.9924-5.495 7.8603-4.5442 2.2256 9.0186 7.9365 6.9881 10.2219-.8061.9072-2.4776.25-3.5666.7604" fill="#008f4c" fill-rule="evenodd"/><path d="m543.2096 314.7712c-1.2749-7.612 5.8723.1281 9.2777-9.5301 5.0303-14.265 17.1438-2.2226 18.3058-1.9768 2.1239.4487 5.7465 1.425 4.952 4.5922-1.9346 7.7112 5.6908 2.7682 7.7035 9.767 1.1199 3.8944-6.0072 5.9348 2.275 8.0037 7.5625 1.8894-7.3108 1.1979.3114 4.4836 8.415 3.6278-6.582 5.2242 2.8307 9.6318 3.4695 1.6247-8.6956 3.1605-2.9534 8.295 4.824 4.3134-.3677 7.0184.1515 11.1273.6697 5.2998 6.1649 8.1884-1.324 7.8482-9.3935-.4269 10.978 7.3324 1.0337 8.511-5.8759.6961.1941 12.2814-7.9922 5.8799-9.49-7.4213-.1768 9.9636-7.6582 4.175-3.1928-2.4705-6.1508-4.7409-3.8702.3435 1.1531 2.5706-9.2727-.1989-2.4174 3.895 6.3397 3.7858-6.3601 6.0033-6.2417 6.1374 4.7211 5.3535.6563 9.5462-6.5304 5.4505-3.9889-2.2734 9.4886 9.2262.9128 7.8729-4.621-.729-4.5656-4.2433-3.5685 2.3234.7696 5.071-11.7036-3.8561-10.9105-3.1833 7.0434 5.9762-.5551 8.5132-5.4324 3.2417-2.765-2.9883-2.9034-5.4075-7.4818-5.0934-5.4209.3716-2.6463-3.2891-3.5121 1.3158-1.2955 6.8931-13.6775-7.431-10.8144.2252 3.4699 9.2774-10.9971-.5367-3.3445 7.8945 6.0994 6.7198-8.0097-.4726-11.4943-1.679-5.656-1.958.6105-6.3618-3.9003-11.4053-3.242-3.6247-10.9179-2.8147-3.2981 1.6815 3.3558 1.98-9.5849-.4969-2.2161 5.079 2.7071 2.0485-3.7668 7.3377-7.3456 2.2077-3.2097-4.6005-5.5533 4.3055-7.2038-2.4515-.9256-3.7893-2.4371-3.8976-6.8491-6.0249-2.9012-1.3991 1.9278-5.8692-3.5949-9.0041-7.5224-4.2694 7.405-7.3993 1.0629-10.7921-2.6225-1.4029-8.419-.556-8.9268 1.1476-1.6377 5.4949-2.513-1.3235-5.3633-.321-2.6066.9171-3.6245 5.7212-4.2443.1715-.4129-3.6975 4.0477-7.9071-1.9718-4.9957-7.3465 3.5532-2.7872-5.6699-8.9268-9.9371-4.4751-3.1104 4.4518-5.8099 3.4704-8.7453-.2686-.8041-4.0455-.8922-5.6583-4.1895-1.7835-3.6452 1.6868-10.0633.8474-10.5192" fill="#008f4c" fill-rule="evenodd"/><path d="m389.2778 169.2707c.3998-3.5157-5.2863-2.4323-6.3534-9.8354-1.2201-8.4661-9.3277-6.4241-11.0825-13.7479-2.1643-9.0337-8.881 9.7287-8.645-.3593.1642-7.0412-2.4798-3.1942-6.7965-2.121-3.4132.8486-8.1935-4.8315-7.0366 2.7356 1.477 9.662-7.1024-.6806-7.9312 2.2082-.9338 3.2547 2.0247 10.8489-2.3685 5.4929-1.7707-2.1587-4.6591 8.1296-4.7612-.2057-.0793-6.539-8.8233 3.2063-8.9584 2.8697-3.1493-7.8504-9.625-3.1895-8.9346 4.4304.2425 2.6745-4.8434-12.5635-6.6534-4.6278-1.3328 5.8441-.8385 2.0596-4.0325 1.2092-5.4471-1.4503.4517 16.4766-3.1715 7.7026-3.2687-7.9165-7.4526 4.8906-3.8963 8.8094 1.7221 1.8976 1.5152 2.4009-.9305 5.2953-2.7309 3.232 1.8372 5.6069-2.5161 2.9033-4.0435-2.5113-1.5991 4.1121-2.1861 7.5665-.7525 4.4279-4.3731-3.3402-6.2558-2.1299-3.6849 2.3686-4.3549 8.8647-7.0173 2.3089-3.2306-7.9543-3.5316 6.584-4.5819 9.8671-2.1197 6.6261 5.6506 3.1069 7.9911 9.32 1.5134 4.0181-3.4489 10.9491-3.1668 2.8403.1938-5.5713-4.8858 8.1331-5.8409-1.1216-.4359-4.2233-8.4513.6067-5.8241 5.7946 2.056 4.0602-6.8847 1.8618-2.057 6.2831 2.8886 2.6456 2.3653 3.7219 1.7658 8.7358-.4147 3.4687 6.779.9327 6.2708 7.2357-.3898 4.8325 1.3523.7069 4.9964-.8313 2.2386-.9448 4.3715 1.35.8535 4.1736-3.255 2.6127-5.6562 5.7084-4.8573 7.6521 2.6629 6.4792-3.8577 3.5939-4.3067 6.4875-.7045 4.5405 12.6557 1.3418 5.5226 6.4316-6.1613 4.3963 4.4693 3.9226 4.3233 11.3897-.1173 5.9715 10.9823-4.5626 12.0106-.8892.4129 1.4748 9.6253 12.5882 9.5759 14.1414" fill="#008f4c" fill-rule="evenodd"/><path d="m269.9152 259.2088c-.6778-2.5324-5.1775 2.4472-6.2017-2.0863-1.39-6.1531-6.2782 6.0968-9.5624 1.5712-1.863-2.5671 1.5942-5.8251-3.9609-4.6578-5.928 1.2458 4.1413-3.2595-2.5179-3.0005-6.2782.2442 2.3656-5.7517-5.1039-5.7037-2.8444.018 4.2339-5.423-1.5116-6.7661-6.598-1.5423-1.1567-7.4205-6.8672-9.2605-7.0387-2.2678 7.4371-5.6897-.4194-6.3007-5.418-.4213-2.508-2.0823-1.7553-5.0952.6301-2.522-3.8664-6.3159 2.0057-4.8953 7.5316 1.822-5.4274-6.4337-3.2761-6.7989 2.5832-.4384 8.4618 2.3194 4.2221-1.2943-1.6548-1.4106 6.0725-2.7694-.2378-3.4703-5.1842-.5758 7.2017-4.9392 6.9394-5.0628-6.1391-2.8922-2.6508-7.2314 3.2891-6.1399 2.0954.3851-9.6888-4.5018-3.6964-5.1869 4.6344-.5299 1.6366-.2982.8879-2.8269-1.147-3.8734 12.7644 1.5906 5.9212-1.7066-6.2031-2.9887 3.7019-4.9993 6.7682-2.1456 1.5071 1.4025 1.7578 1.3744 4.0919-.2654 2.7592-1.9384 4.4289 1.8457 2.2103-1.6011-1.9361-3.0079 3.0239-.8343 5.8322-1.0017 3.17-.1891-2.7991-3.2385-1.7539-4.7037 1.8636-2.6128 6.7902-2.4821 1.6765-4.9134-6.2307-2.9623 5.0473-2.0539 7.5773-2.5621 5.103-1.025 2.5861 4.378 7.3581 6.5185 3.1264 1.4023 8.298-1.6617 2.1515-2.0786-4.4222-.2999 6.0799-2.9453-.9657-4.3247-3.3502-.6559.3332-6.0837 4.3991-3.778 3.17 1.7976 1.3521-4.8302 4.8393-1.0069 2.1132 2.3172 3.2496 2.0001 6.8028 1.9557 2.7064-.0338.9958 4.9947 5.715 5.1104 3.8608.0948 2.4964 2.6046 1.351 5.1562-.7521 1.6757 1.0671 3.3331 3.25.9432 2.1251-2.3268 2.4885-5.2264 3.9407-4.5293 5.0736 2.4355 2.9171-2.5307 4.9611-2.6238 3.6741-.1675 1.2534 9.2792 5.078 4.5044 3.3259-4.1528 3.5106 3.5777 8.9027 4.0168 4.7756.3889-3.3777 7.6095-.4934 8.6462 1.0983.3948 2.2491-.431 3.4531-.3469" fill="#008f4c" fill-rule="evenodd"/><path d="m502.6482 363.6815c-2.012-3.0742 5.6652-1.6159 1.5643-7.0149-5.516-7.2618 10.849.5008 7.2688-6.0566-2.3402-4.2864-6.0305-4.7983-1.7378-7.8423 3.9918-2.8308-6.149.2958-1.9846-4.6022 3.936-4.6291-6.6469-3.4533-2.4998-9.9859 1.9321-3.0436-14.8088.641-13.0568-5.6493 1.9105-6.8584-5.8927-5.5161-4.253-13.0765 1.04-4.7966-10.3818-4.5481-5.6128-11.6375 4.2948-6.3852-.1028-3.2838-1.6994-10.3216-1.2915-5.6936-4.938 9.3388-7.2803 1.1342-1.0721-3.7547-2.6335-6.7536-4.2726-1.9957-1.4008 4.0664-1.1371 2.4486-2.8256-1.2372-.7721-1.6849-5.9684 1.5645-3.3356-2.7638 3.0376-4.9942-7.5049-4.9207-7.4778-5.1077.8742-6.0085-3.8231-10.0394-7.3698-4.3689-1.8856 3.0144 2.8312-10.819-3.0732-8.0043-3.042 1.4501-1.858 3.5411-3.7266-1.6972-1.8381-5.1536-6.7943 5.9843-6.4398 4.8971 2.207-6.7701-4.4247-8.5773-5.508-2.3683-.5661 3.2426 2.0396 5.6914-3.0188 6.2816-4.3917.5123-.6904 3.3198-3.1969-.7408-3.7792-6.1231-6.3839 10.344-7.8753.8845-1.1297-7.1663-7.6822 2.6514-6.3029-6.155 1.3822-8.8242-8.1253.1009-7.5329 2.8757 4.4067 20.65-5.5815 10.4277-4.7388 6.2546.6637-3.2875-6.2389-6.7145-6.403-1.0332-.1479 5.1106-6.1299-3.5382-4.0883 3.5765 1.0667 3.7177-.227 3.5588-2.1203 7.1156-1.9866 3.7324 3.7524 5.9966 1.5996 10.0525-3.2278 6.0821 10.6948 5.55 6.0206 9.9472-3.2532 3.061-5.6197 2.0084-8.8056-2.1755-.9542-1.2527-.0919 6.1927-4.2073 1.9886-4.9019-5.0077 3.789 8.6878 2.309 7.937-3.2381-1.6433-7.2006-1.7014-3.8904 3.8418 2.1702 3.6343-.3577 4.4195-.2493 7.1308.2243 5.6083 9.0409 4.2315 9.3468 7.5698.1173 1.2884-1.9866 1.5482-2.7364 2.6756" fill="#008f4c" fill-rule="evenodd"/><path d="m462.118 194.9536c3.3315.1967-.1083-7.0824 5.6545-6.5179 8.0615.7897-4.0161-9.8099 3.0816-11.9363 3.7085-1.1111 6.0433 4.1476 7.5264-2.8519 1.5984-7.5416 10.2844 11.6725 13.4114 3.6962 2.9539-7.5336 8.7141 10.7358 12.4357 2.0432 1.4843-3.4675 5.5802 12.8042 10.1186 6.5423 5.2244-7.2085 9.3313 1.5565 14.4437-4.48 6.2984-7.4363 2.8493 11.0701 7.6343 1.9863 3.2756-6.2182 3.7805-2.1242 6.904-.069 2.7374 1.8009 9.4226-2.0779 4.7285 4.3031-6.0352 8.204 6.421 1.4472 5.7577 4.0738-.8309 3.2913-7.1028 9.1063-.654 5.5066 2.4762-1.3822.1911 8.1702 4.2088 1.0865 3.3957-5.9868 6.0377 5.1977 6.3177 4.9366 6.571-6.1251 9.8877-.3009 5.5326 6.3127-1.5417 2.3409 10.2623-9.5845 8.0122-2.332-1.797 5.7926-.6265 2.0416 2.8841 2.1488 4.9731.1518-8.4419 14.4664-1.0443 7.6794 6.7261-6.1707 3.9508 6.3654-.9642 8.8564-2.4324 1.2328-2.5596 1.3826-1.7975 4.9469.9296 4.3483-4.5218 4.5304.746 3.2471 4.4318-1.0796-.5365 3.7984-1.8284 7.2974-1.3375 3.6225 5.1357-2.2209 6.4422-.2233 2.1932 3.3536-.5704 9.0058 4.9212 3.9193 6.7072-6.2124-.1855 6.7822-.8914 9.9778-1.4236 6.4425-6.5399 1.3853-11.4694 6.1399-3.2595 3.1438-2.2677 10.3798 1.3377 3.3649 2.6685-5.1917.3981 8.259 5.5898.5615 2.5316-3.7533 6.9917 2.7905 2.1793 6.6948-3.7415 3.0357 4.969 3.5119-1.3108 6.1239-3.8316 1.5935-4.1379 3.3135-5.8115 7.2808-1.3682 3.2435-6.4499-.6712-8.9636 4.7494-2.1423 4.6198-4.3374 1.9442-6.7671-.4327-1.681-1.6446-4.5113-.1281-2.7861 3.4749 1.7351 3.6229 4.833 5.0396 3.3006 6.449-5.4914 5.0515 1.4149 4.6033.5296 6.9044-1.7459 4.5392-11.5674-2.1659-7.922 4.2352 3.1859 5.5943-6.1753 3.0344-9.3197 8.9537-2.9788 5.6075-7.2058-7.0086-9.9255-3.9911-1.0018 1.1115-.6523 2.8317-1.3721 4.2229" fill="#008f4c" fill-rule="evenodd"/><path d="m375.1971 333.6727c.2026 1.9859-4.5149 3.2828-3.3936 4.9341.8757 1.2896 3.0378-.6961 4.5568-1.0441 4.0603-.9304-2.9234 5.5624-3.1267 9.6438-.1696 3.4104 8.1497 5.4481 4.9216 6.9287-2.3636 1.084-4.7272 2.1681-7.0909 3.2522-2.568 1.178 11.4544 1.7109 7.2518 4.3083-2.0441 1.2634-6.2656 1.3902-6.1326 3.7903.0757 1.3589 3.2646.4554 3.6878 1.7488.4599 1.4051-.8553 3.1174-2.1078 3.9023-1.9626 1.2299-6.7346-2.0024-6.9408.3051-.1389 1.5454 3.358.02 4.5396 1.0263.8506.7242 1.5724 2.0391 1.252 3.1096-.5291 1.7679-2.7226 2.8953-4.5494 3.1536-2.8657.4048-6.0413-4.6727-8.2274-2.7755-.7663.6653 1.223 2.229.5564 2.9944-1.0222 1.1734-3.9503-1.6006-4.6625-.2168-.7321 1.4222 2.7057 2.1942 2.9644 3.7726.2262 1.3787-.1551 3.3193-1.401 3.95-1.4919.7554-3.4125-2.3789-4.8026-1.4492-1.2682.8479-1.2572 3.2582-.4535 4.5554.6385 1.0303 3.1091.1103 3.4004 1.287.5995 2.4215-5.2923 3.1371-4.9531 5.6084.3521 2.5663 6.7157 1.6389 6.5215 4.2217-.1952 2.5957-4.6921 2.2638-7.1143 3.2143-1.7625.6917-3.7156 2.699-5.3855 1.806-1.7302-.925-.3644-4.1137-1.5453-5.6808-1.2323-1.6351-3.2348-3.5253-5.2528-3.1824-1.9173.3256-3.073 2.6853-3.8797 4.4556-.8649 1.8975.8982 5.113-.9008 6.1666-2.2272 1.3043-9.0979-6.8784-7.1497-2.972 2.5513 5.1157 2.8964 9.5354.5789 13.0843-2.3864 3.6551-1.8821-6.856-4.5501-6.6238-2.8729.2498-.7397 8.2737-3.5952 7.8714-2.0257-.2852 1.0382-5.4462-.9096-6.0718-1.9466-.625-2.2328 4.5727-4.2705 4.4042-2.6811-.2212-1.9043-6.715-4.5934-6.6383-1.6828.049-.9505 4.3772-2.6328 4.3119-2.8814-.1114-1.3171-6.4807-3.9248-7.7122-2.55-1.2039-5.5766 2.6991-8.259 1.8299-2.2664-.7349-2.4684-4.6476-4.7464-5.3459-2.1758-.6671-4.7114 2.935-6.6155 1.688-2.6766-1.7527 1.4907-8.4715-1.5471-9.475-2.4109-.7962-3.012 4.6443-5.462 5.3103-3.6214.984-7.3716-1.5014-10.9331-2.6837-2.0993-.6969-5.3738-.5001-6.1111-2.5861-.97-2.7453 5.1034-4.9638 4.1171-7.7033-.9363-2.6005-6.9097-.4837-7.672-3.1409-.7066-2.4635 5.619-3.9432 4.4871-6.2423-.63-1.2797-3.2245.826-4.2757-.1373-1.6458-1.5094 1.3039-5.8942-.7959-6.6535-2.6236-.9487-4.052 3.8372-6.0781 5.7557-3.115 2.9497 1.9413-8.1349-.7526-11.8241-2.0268-2.7759-6.3873-2.5235-4.1671-5.6973 2.1582-3.0851 4.3163-6.1701 6.4743-9.255 1.6552-2.3661-6.2336 6.6517-8.266 1.8792-1.0333-2.4262-.6935-6.2017-3.0998-7.2789-1.2551-.562-2.7102 1.9996-3.9072 1.3227-1.4338-.8107-1.4786-3.2361-1.0563-4.8288.63-2.3767 6.5239-3.5975 4.9398-5.4779-1.0305-1.2229-2.4562 2.5026-4.0536 2.5645-1.1687.0455-2.6112-.5789-3.1017-1.6411-.8656-1.8737.5648-4.133 1.3429-6.0445.6823-1.6766 1.718-3.2113 2.8585-4.6163.7779-.9584 1.7802-1.7103 2.6802-2.5553 1.1917-1.1189 4.0509-1.7571 3.6012-3.3293-.4413-1.5434-4.2441.6276-4.7285-.9028-.5048-1.5952 2.1531-2.601 3.4895-3.6072 1.3671-1.0297 4.1099-.7524 4.5324-2.4113.4068-1.5965-1.1409-3.6604-2.7208-4.1261-1.1822-.3482-2.3483 2.1583-3.3842 1.4904-2.3494-1.5152 2.0663-6.6115-.0919-8.3882-1.9839-1.6329-5.9313 3.3735-7.5791 1.4016-1.8334-2.1938 1.8827-5.4059 3.0289-8.0253.8299-1.8967.7703-5.0575 2.7796-5.5542 1.974-.4883 2.9664 3.1437 4.9574 3.5562 2.0138.4171 4.7715.3179 6.0289-1.3099 1.3326-1.7252 1.7414-5.6928-.2688-6.5354-1.7427-.7302-2.4138 4.4239-4.1998 3.8076-2.3916-.8253 1.1483-6.793-1.2859-7.4824-1.4943-.4231-1.528 3.5775-3.0787 3.4977-2.3795-.1227-4.2573-3.4427-4.1478-5.8237.101-2.2191 4.2052-2.833 4.347-5.05.1046-1.6443-3.4662-2.657-2.7208-4.1264 1.3041-2.5707 6.7701 1.7788 8.6355-.4187 1.0117-1.192-1.854-3.8214-.5349-4.6607 2.1426-1.3635 4.0329 4.6506 6.4869 3.997 1.4003-.3731.8816-3.0015 2.0777-3.8197 1.2091-.8271-.3841-1.812.9267-1.1581 3.697 1.8439 2.695 1.5438 2.8065-2.4093.0559-1.952 1.7939-.8197 1.8028-2.3878.018-1.5992-2.2662-2.5268-2.0385-4.1098.341-2.3698-2.1176-4.8094 1.3523-3.8508 3.1284.8643 6.0615-.4572 9.5772 4.9923 1.952 3.0256-4.2416-6.3314-2.2162-8.4007 2.0025-2.046 5.8845 3.4756 8.3472 2.0162 1.0573-.6266-.2002-3.1633.9628-3.5598 1.1663-.3976-.2549.2093 2.9434 2.2377 3.3472 2.1227 3.7509 13.747 5.2248 10.0915.7673-1.9027 1.3808-3.8748 2.3018-5.7082.018-.0361.027.0469.0487.0595" fill="#008f4c" fill-rule="evenodd"/><path d="m461.5467 257.1483c-1.8591-2.148 8.2121-.373 4.3352-4.5037-4.428-4.718 12.6799 1.2668 11.5306-3.5039-1.0016-4.1581-7.7028-3.3738-.5968-5.266 7.2662-1.9347-7.6417-.3196-.4196-3.3756 6.7353-2.85-9.0524-2.6355-.466-6.5717 2.252-1.0325-9.9506-1.7961-5.2771-5.5945 5.2382-4.2574-6.298-5.9043-2.2343-9.9825 5.0332-5.0509-13.3258-.5756-5.9395-4.7305 5.3686-3.0201.7593-2.5898-3.3326-4.5123-2.6956-1.2664-2.3037-6.4672-7.0382-2.5455-5.9186 4.9027-4.4323-4.1034-7.2971-3.246-2.8141.8423-6.4598 5.8356-5.6986 1.1153.3202-1.985-9.7276 1.3244-3.2655-2.6085 4.2319-2.5757-8.662-3.2902-8.5164-3.5033 3.4572-5.0535-4.6533-6.415-9.6342-2.8187-1.7012 1.2282 6.004-8.0982-1.4046-5.5177-4.8138 1.6768-2.3584.1281-3.7733-1.6127-3.2862-4.0425-11.7772 7.5072-7.8816 1.6425 3.3272-5.0089-8.9023-1.8977-9.2084 1.7368-.1533 1.819-1.4916 1.8278-4.5223 1.7919-3.2266-.038-2.8217 3.2132-3.918-.0811-1.2103-3.6372-4.8631 1.217-7.0765 2.1061-4.265 1.7133-1.434-3.9109-2.9371-4.2306-4.2133-.896-9.6511 1.628-6.714-2.7191 3.408-5.0442-7.3303.9709-10.4702 1.8298-6.3476 1.7364 2.1093 3.8943-1.0516 8.2491-1.7102 2.3564-10.8447 3.1151-4.3398-.4512 3.7796-2.0721-9.9062 1.2881-3.373-3.5759 2.3633-1.7595-6.5529-4.1193-8.3968-.5837-1.5534 2.979-6.2973-2.8974-6.0492 1.6208.1461 2.6495-.3742 2.5691-5.0922 4.7018-2.3292 1.0528 4.6161 3.7769-.7692 6.4402-3.3181 1.6409-.0198 3.0609 3.8148 4.3609 1.8205.6172 1.6799 2.8293-2.4253 2.2514-3.8375-.5403-7.797-2.6685-8.6801-1.3455-2.6562 3.9799-5.05-.6307-7.8125.5185-3.1318 1.3028 8.0378 7.2662-.7194 5.6969-7.6418-1.3694 1.298 3.519-5.1896 7.1995-3.5265 2.0007 11.0796 3.9785 9.2633 5.9746-.9343 1.0267-2.774.7795-3.9405 1.4232" fill="#008f4c" fill-rule="evenodd"/><path d="m293.8591 260.6826s1.1672.7852.9612 1.2761c-.7218 1.7183-4.5781-.8719-5.5425.7228-1.3159 2.1752 1.7568 4.7717 2.6351 7.1578 1.8062 4.9068-8.4975-2.9157-11.6675-.6044-3.1471 2.2947 6.1301 2.0892 5.8974 4.5648-.2457 2.6184-7.4237.9815-7.0274 3.5815.2758 1.81 4.8227-.8116 5.4128.9215.6233 1.8315-4.0944 2.3353-3.9369 4.2637.2033 2.4903 5.9899 2.1104 5.9103 4.6078-.0487 1.5531-3.9113 1.0725-3.8512 2.6256.1028 2.6386 5.7777 1.5368 6.8695 3.9408 1.1607 2.5558-2.4632 5.5719-1.6496 8.2586.65 2.1468 4.1379 2.602 4.7572 4.758.6246 2.1746-2.7605 4.7236-1.5197 6.615 1.5713 2.3946 7.5038-1.1391 8.4466 1.5657.7936 2.2762-5.2073 3.0876-4.7473 5.454.4797 2.4675 5.0457 1.5432 6.7209 3.4171 1.4513 1.6237.2383 5.3978 2.2931 6.1184 2.5195.8834 4.3641-5.0012 6.8785-4.1041 2.5642.9146.1624 6.9455 2.7847 7.6807 2.2949.6437 3.4143-5.4792 5.5768-4.4767 1.2937.5997-.8382 3.2155.1137 4.2775 1.3323 1.4863 5.4655-1.1321 5.9322.809.3642 1.5156-2.5587 1.7797-3.8381 2.6693-3.4204 2.3789 6.0797 1.5794 9.2351 4.1752 2.6364 2.1691-1.4551 9.6968 1.8122 8.3043 2.3921-1.0196 4.7843-2.0392 7.1764-3.059 2.5991-1.1078-4.8008 4.4237-1.6938 8.2655 1.7683 2.1863 5.2441-3.7011 6.9292-1.9877.9542.9699-1.8599 2.722-1.1883 3.9058.7299 1.2855 2.881 1.4644 4.304 1.0657 2.23-.6245 3.0508-6.3309 4.8961-4.931 1.2361.9378-2.2444 2.499-2.2958 4.0503-.0361 1.1167.4498 2.5354 1.4571 3.0187 1.6635.798 3.9732-.067 5.3931-1.2448 2.2278-1.8482.6098-7.6146 3.4836-7.9557 1.0081-.1194.8255 2.4048 1.8403 2.4264 1.5552.033 1.4744-4 2.9768-3.5961 1.5442.4152-.1979 3.4784.795 4.7322.8672 1.0949 2.559 2.119 3.8637 1.6211 1.5623-.5961.5369-4.1262 2.1599-4.5294 1.4806-.3678 3.2555 1.2622 3.6739 2.7297.3323 1.1659-2.0104 2.3752-1.3362 3.3824 1.3875 2.0728 5.8809-1.8056 7.4804.108 1.6606 1.9874-3.3073 6.0724-1.2666 7.6668 2.051 1.6021 4.8312-1.9488 7.1641-3.1019 1.6974-.8387 4.4956-.9337 4.9592-2.7701.4803-1.9028-2.797-3.0377-3.161-4.9661-.3799-2.0123-.4304-4.7658 1.1811-6.0286 1.5309-1.1996 5.0341-1.4947 5.8275.2814.7348 1.6444-4.0186 2.5012-3.4045 4.1941.7726 2.1301 6.0177-.8691 6.67 1.3008.4205 1.3996-3.1992 1.6137-3.1258 3.0732.1119 2.2135 2.9712 4.2597 5.1848 4.1604 2.0844-.093 2.4307-4.2068 4.5129-4.3388 1.5222-.097 2.296 3.3844 3.6741 2.7298 2.6027-1.2363-1.8161-6.7862.3918-8.6379 1.0707-.8977 3.3661 1.6972 4.1554.544 1.3936-2.0365-4.1909-4.113-3.5505-6.4969.3449-1.2849 2.6925-.9514 3.4109-2.0712.7894-1.2312 1.2859-3.1217.5062-4.3592-.8429-1.3373-3.3977-.3903-4.4853-1.5372-1.1116-1.1727-.8847-3.1087-1.327-4.6631-.9412-3.3076 6.6563-1.8708 8.3548 1.081.758 1.3174.7548 3.9571 2.2743 3.9522 1.5511 0 .7588-3.8372 2.2956-4.0499 2.2301-.3086 5.6367 8.1733 4.8019 4.7517-.7642-3.1315.4205-6.0628-4.4318-9.5905-2.8476-2.0705 5.5735 4.0006 7.4871 2.2334 2.0914-1.9315-3.2294-5.9038-1.78-8.3544.563-.9521 2.8053.0847 3.1767-.9564.398-1.117-1.3261-1.9658-1.9891-2.9486-2.1511-3.1886-12.2361-3.7863-8.9887-5.2462 1.6987-.7636 3.3842-1.5571 5.0958-2.2909.0252-.018-.0415-.0265-.0523-.0487" fill="#008f4c" fill-rule="evenodd"/><path d="m425.5698 416.0891c.4947-3.7934-.3152-6.3126 2.186-9.1887 3.8319-4.4069 19.1592-18.7383 30.9482-24.0716 9.0644-4.1008 35.1688-3.9852 40.7961-5.819l-1.3722-4.0155c-1.5425-1.4893-27.5682 1.0115-32.5196-.8971-6.3787-2.459 10.7133-19.9138 12.7392-21.8978l-5.0525-1.8911c-12.4696 5.6865-22.2815 27.1969-24.7327 29.26-7.0316 5.9181-18.893 12.8742-22.5524 12.8503.354-6.6326-.2703-11.2553.9077-15.073 3.6357-11.7831 20.7824-34.8487 28.3975-42.0292l-4.7808-4.0657c-4.6084 2.8617-8.7968 10.9672-15.4423 16.6437-1.2107-.4144-4.2613-7.2629-6.2082-9.4433l-4.722 2.3375c-.018 1.9494 4.0698 14.4023 3.8606 15.8073-3.4988 4.996-6.6436 9.8917-8.569 13.4216-2.199 4.031-6.6292 13.3279-9.4534 20.4264-1.9692 4.9499-4.3244 10.0264-4.0043 16.5467-.3188-6.5332 2.0469-11.5946 4.0043-16.5467-3.0531-2.8215-8.0409-7.0139-10.8951-10.9686-1.0624-1.4722.038-16.4402 1.0651-17.892 1.8316-2.5893 1.3884-10.4609 2.4265-19.3291.5202-4.4453 16.703-15.0683 17.5986-15.7587l-2.5026-3.662c-4.6126.1301-17.949 8.3121-22.2371 14.1701-1.7415.2012-16.8994-10.6553-20.4192-14.1701l-3.6145 2.2762c2.6998 3.1149 5.6682 5.6256 8.4698 8.0497 2.5508 2.2075 13.7403 11.7105 12.5877 15.5356-2.5704 8.5302-3.8754 23.5996-4.6988 25.0236-4.5378-1.63-20.1932-11.3659-27.9089-12.9705-4.4542-6.6478-8.9276-20.1513-14.0539-25.872l-4.5685 1.4899c2.4633 8.7216 5.0182 16.6002 8.8023 25.0496-3.2432 13.5415-12.5698 15.9792-29.5514 23.3466l1.1687 5.1693c15.3938-4.1642 25.8613-7.1983 36.1734-18.8344 12.5849 4.5686 27.8228 13.3974 29.604 26.7117.9151 6.8408 1.8175 11.4294 1.5723 15.9549.9273 3.5332 2.2831 5.0993 3.5375 9.2369.9391 3.0975 1.6291 9.5096 1.3922 15.3472-.4095 10.0954 1.0623 36.2791.2972 46.8546-2.7011 7.1033-.8176 23.9289-1.2143 30.5253-.554 9.2135-1.0286 12.752-15.3743 16.7058h18.7105c2.5859 0 5.167-2.3874 7.7505-2.9792.4345.5217 1.4237 2.9792 3.0884 2.9792h9.6145c2.2753 0 3.1754-2.4191 4.7335-2.9792 1.9032.9309 5.634 2.9792 9.0449 2.9792h11.7442c-11.2439-3.3781-15.1184-9.6663-15.3743-16.7058-.2647-7.2831.6735-29.6823.0976-34.1957-1.6486-12.9415-.4829-36.762-1.1447-43.1842-.4021-3.9014-1.2053-13.7165-.352-20.2588z" fill="#c87137"/></g><path d="m189.5 71.5-68 68c23.959 14.341 40 40.547 40 70.5v334.75c0 68.898 54.852 123.75 123.75 123.75h62.375c27.289 0 50.92 17.163 62.375 40 11.455-22.837 35.086-40 62.375-40h62.375c68.898 0 123.75-54.852 123.75-123.75v-334.75c0-29.953 16.041-56.159 40-70.5l-68-68z" fill="none" stroke="#000" stroke-linecap="round" stroke-linejoin="round" stroke-width="3"/></svg>