<?xml version="1.0" encoding="utf-8"?><!DOCTYPE svg PUBLIC "-//W3C//DTD SVG 1.1//EN" "http://www.w3.org/Graphics/SVG/1.1/DTD/svg11.dtd"><svg viewBox="0 0 660 670" xmlns="http://www.w3.org/2000/svg"><g stroke="#000" stroke-linecap="round" stroke-linejoin="round"><path d="m646.2536 59.6842c9.6163 4.8298 13.2465 14.5886 13.2465 25.1158 0 29.0783-28.7219 67.3049-49.9599 52.0806-15.4178-11.0521-29.1112-21.2184-38.994-27.6598l38.8351-62.0789c10.8429 2.3101 24.4217 6.3058 36.8723 12.5422z" fill="#e5e5e5"/><path d="m13.7465 59.6842c-9.6163 4.8298-13.2465 14.5886-13.2465 25.1158 0 29.0783 28.7219 67.3049 49.9599 52.0806 15.4178-11.0521 29.1112-21.2184 38.994-27.6598l-38.8351-62.0789c-10.8428 2.3101-24.4216 6.3058-36.8723 12.5422z" fill="#e5e5e5"/><path d="m80.5 504.75c0 68.898 55.852 124.75 124.75 124.75h62.375c27.289 0 50.92 17.163 62.375 40 11.455-22.837 35.086-40 62.375-40h62.375c68.898 0 124.75-55.852 124.75-124.75v-354.75c0-85.644 42.4743-102.5102 66.7536-90.3158-31.611-16.0213-69.2991-36.3687-96.2535-54.6842-4.7486-3.2267-12.8192-4.5-20-4.5-7.4295 0-15.4411 1.3886-20 4.5-51.2751 34.9944-113.2365 55.5-180 55.5s-128.7249-20.5056-180-55.5c-4.5589-3.1114-12.5705-4.5-20-4.5-7.1808 0-15.2514 1.2733-20 4.5-26.9545 18.3155-64.6426 38.6629-96.2536 54.6842 24.2792-12.1944 66.7536 4.6718 66.7536 90.3158z" fill="#e5e5e5"/><path d="m80.5 504.75c0 68.898 55.852 124.75 124.75 124.75h62.375c27.289 0 50.92 17.163 62.375 40 11.455-22.837 35.086-40 62.375-40h62.375c68.898 0 124.75-55.852 124.75-124.75v-174.75h-498.9999z" fill="#eac102"/></g><g stroke="#000" stroke-linecap="round" stroke-linejoin="round"><g fill="none"><path d="m267.625 629.5h124.75"/><path d="m80.5 379.9167h499"/><path d="m80.5 429.8333h499"/><path d="m80.5 479.75h499"/><path d="m83.7622 529.6667h492.4757"/><path d="m106.4716 579.5833h447.0569"/><path d="m330.0001 629.5v40"/><path d="m454.75 329.9997v49.917"/><path d="m205.25 429.833v49.917"/><path d="m330 429.833v49.917"/><path d="m454.75 429.833v49.917"/><path d="m205.25 529.6663v49.917"/><path d="m330 529.6663v49.917"/><path d="m454.75 529.6663v49.917"/><path d="m142.875 379.9163v49.917"/><path d="m267.625 379.9163v49.917"/><path d="m517.125 379.9163v49.917"/><path d="m392.375 379.9163v49.917"/><path d="m142.875 479.7497v49.917"/><path d="m267.625 479.7497v49.917"/><path d="m517.125 479.7497v49.917"/><path d="m392.375 479.7497v49.917"/><path d="m142.875 579.583v31.8498"/><path d="m267.625 579.583v49.917"/><path d="m392.375 579.583v49.917"/><path d="m517.125 579.583v31.8498"/><path d="m330 329.9997v49.917"/><path d="m205.25 329.9997v49.917"/></g><g><path d="m375.9443 127.1901c0-5.8035-3.3096-10.2213 0-16.326-3.2253 1.051-8.3262 5.9362-9.7514 7.6378-2.1752-7.6066-1.4329-15.62-.3828-22.8262-4.8005.8007-10.2529 6.1475-12.2779 8.7997-3.7449-10.3752-2.3175-19.6918-.8483-26.1145-4.8755.3504-10.4378 5.4393-12.9809 9.1475-5.4869-7.461 3.4478-12.7654-4.7208-20.2825-5.6539 11.677-14.4825 12.0338-16.7764 24.6666-2.0253-3.0025-3.9255-6.1753-3.4004-10.2788-6.6006 2.5521-14.0746 16.3395-13.8183 25.2377-2.9252-1.4569-6.444-5.0567-7.0336-8.6735-12.5551 12.2884-2.565 19.786.1585 28.6584-4.3117-1.9019-6.5558-4.4019-8.1308-6.6038-1.6768 2.6518-1.9255 7.7053-1.9255 10.0792 0 15.7959 28.9587 21.3736 47.9697 21.3736 22.1563.0604 43.9186-9.7195 43.9186-24.4952z" fill="#ed1c24"/><path d="m350.4127 148.6304c6.0498-5.8796-1.081-14.8393 3.7172-20.5257-6.792.4799-7.715 7.5138-12.8519 8.3359 5.1106-6.7667.8907-12.1775 3.3248-18.9948-3.9236 2.3336-6.2526 5.1388-7.728 8.4364-3.4102-7.7323-1.6742-16.9429-6.8114-22.868-.006 7.4246-4.6464 10.2075-6.0111 16.1891-2.6454-2.7163-1.988-7.6169-4.2292-9.6178-.6312 8.1979-5.2119 9.1936-3.6735 21.7568-2.8585-2.0256-4.6796-8.8727-6.1391-10.0454-4.4501 7.9324-5.321 20.9881-2.0909 27.3335 14.0833-2.0693 29.8389-1.7161 42.4932 0z" fill="#eac102"/><path d="m318.2061 91.8924c1.5683 2.7355 5.0658 8.9244 3.1954 13.538" fill="none"/><path d="m339.7032 87.5083c-2.1416 3.0493-3.5245 7.7102-3.7005 12.0992" fill="none"/><path d="m353.5323 104.4753c1.0626 4.0395.3467 10.1527-1.5463 13.0398" fill="none"/><path d="m300.9874 106.8513c4.2798 2.1987 6.6411 5.7568 7.0972 7.9203" fill="none"/><path d="m366.1929 118.5018c.625 3.5252-1.5439 8.0066-4.0612 9.5326" fill="none"/><path d="m294.1123 126.8362c1.8231.8158 4.1562 1.9352 7.0893 2.9353" fill="none"/><path d="m367.31 148.0285v29.7437c0 48.9581 87.4401 60.9211 87.4401 152.2278h-249.5c0-91.3067 87.44-103.2697 87.44-152.2278v-29.7437z" fill="#ed1c24"/><path d="m330.0001 264.1702v32.5769" fill="none"/><path d="m330.0001 150.1526v32.5769" fill="none"/><path d="m289.1897 143h81.6208c2.3592 0 4.2585 1.8951 4.2585 4.2491v8.4982c0 2.354-1.8993 4.2491-4.2585 4.2491h-81.6208c-2.3592 0-4.2585-1.8951-4.2585-4.2491v-8.4982c0-2.354 1.8993-4.2491 4.2585-4.2491z" fill="#ed1c24"/><path d="m209.9114 296.7471h240.1773" fill="none"/><path d="m330.0001 274.3542c-32.5079 0-59.3335 24.282-63.2581 55.6458h126.5161c-3.9246-31.3638-30.7502-55.6458-63.2581-55.6458z" fill="#eac102"/><path d="m330.0001 292.0972c-22.6667 0-41.4922 16.3736-45.2699 37.9028h90.5397c-3.7777-21.5293-22.6032-37.9028-45.2699-37.9028z"/><path d="m372.4704 320.4076 16.4287-6.7875" fill="none"/><path d="m362.5055 305.5324 12.574-12.5417" fill="none"/><path d="m347.5919 295.5931 6.805-16.3865" fill="none"/><path d="m330.0002 292.1029v-17.7366" fill="none"/><path d="m271.1014 313.6201 16.4284 6.7874" fill="none"/><path d="m284.921 292.9907 12.5737 12.5414" fill="none"/><path d="m305.6035 279.2066 6.8049 16.3862" fill="none"/><path d="m225.6015 264.1706h208.797" fill="none"/><path d="m252.3605 235.0155h155.2792" fill="none"/><path d="m280.717 207.5159h98.5662" fill="none"/><path d="m292.5165 182.7295h74.9671" fill="none"/><path d="m239.7093 296.7474v33.2527" fill="none"/><path d="m269.0891 264.1702-8.1292 32.5769" fill="none"/><path d="m307.4161 235.0155-4.5168 29.1551" fill="none"/><path d="m263.6067 235.0155-16.5364 29.1551" fill="none"/><path d="m330.0001 207.5162v27.4994" fill="none"/><path d="m296.375 207.5162-12.5467 27.4994" fill="none"/><path d="m313.4385 182.7298-3.0112 24.7861" fill="none"/><path d="m420.2908 296.7474v33.2527" fill="none"/><path d="m390.911 264.1702 8.1292 32.5769" fill="none"/><path d="m352.584 235.0155 4.5168 29.1551" fill="none"/><path d="m396.3934 235.0155 16.5364 29.1551" fill="none"/><path d="m363.6251 207.5162 12.5467 27.4994" fill="none"/><path d="m346.5616 182.7298 3.0112 24.7861" fill="none"/><path d="m309.549 143.0005v16.996" fill="none"/><path d="m350.4511 143.0005v16.996" fill="none"/></g><g><path d="m436.9925 273.6068c2.0456-.3934 4.6587 3.1104 5.0203 3.9293l3.7654-2.1919c-1.1254-3.6323-7.1677-6.8499-8.7857-1.7374z" fill="#ed1c24"/><path d="m428.8147 289.7461c1.4743-2.0803 5.8859-.9604 6.7072-.4909l1.0333-5.0493c-3.412-1.3515-7.8161-.064-7.7405 5.5402z" fill="#ed1c24"/><path d="m433.3693 303.208c2.5382-2.1307 5.2914-3.4823 6.2797-3.8531l-3.1065-4.2948c-3.1642 1.7653-4.3607 3.8596-3.1732 8.1479z" fill="#ed1c24"/><path d="m452.9894 307.775c1.2946-2.1255.9539-7.5381.8693-8.4062l4.6759 1.7867c.8543 3.7181-1.8 8.1126-5.5452 6.6195z" fill="#ed1c24"/><path d="m473.0601 270.7064c1.1321 1.2895 1.2392 6.9368-.1595 7.9454-3.1956 2.3033-5.826 1.2754-8.0385 1.9893-1.8494.597-7.0502 4.1758-9.2732 5.1318-1.788.7685-5.1019 1.5006-5.2517.8221.1475.6806 3.4367-.054 5.2517-.8221-1.809.7738-3.263-1.5637-3.6763-2.0214-1.3882-1.5402-2.1369-3.2433-1.7565-5.8981.5368-3.7514-3.8643-5.7192-6.0663-2.2369-3.6726.5252-3.0032 2.4662-2.9036 5.6291.0449 1.2454 2.0755 1.956 3.5266 2.4962-1.4653-.5552-3.4914-1.2583-3.5266-2.4962-1.0048-.8918-4.0874-.1533-5.513 1.6098-.7353.9078-.007 2.5423-.301 3.641-.6005 2.2497-.5077 3.5659 1.6877 4.9281.7315-.5294 2.852-1.3097 4.1271-1.7513-1.2721.4416-3.4008 1.2326-4.1271 1.7513-1.2571.8961-1.9258 2.0869-1.508 4.4191.1093.612.5915 1.6302 1.8307 2.015 1.2848 1.8821 2.1272 2.9947 3.9054 2.4308 2.9508-.9345 3.698-5.3268 5.069-5.3493 1.9909-.032 2.3817-1.909 4.7972-2.6795 1.9729-.6303 4.1256 1.1575 3.5618 2.1586-.5713 1.015-1.8749 1.5648-2.2897 2.7052-1.4451 3.9732 8.9819 6.8746 10.3626 4.1244.8992-1.79-1.6615-5.2048 1.624-7.3312 4.3015-2.7846 3.9144 4.6388 9.4312 4.3022 3.7976-.2326-5.03-6.657-.9883-6.2884 3.8051.3474 7.0502 4.6828 9.8871 1.9036 1.5492-1.5165-5.6201-3.5359-1.5971-4.3847 2.694-.5681 7.8229 3.6731 9.3555.5787 1.055-2.1296-4.4827-2.7941-3.4981-4.9635 1.0744-2.3708 8.3006 2.2626 9.8871-1.6549.7053-1.7416-3.3851-2.0954-3.1185-3.3922.1924-.9357 1.8674.2498 3.0421-.9925 2.378-2.5145 6.416-12.2368 2.8916-9.5144-2.2238 1.7159-3.3821 2.0407-4.5643 3.3096 1.1074-1.7159 1.3994-9.6366 1.2923-10.1767-.4665-2.3709 6.1277-3.5177 10.0788-8.1619 3.2937-3.8692 5.4014-7.4544 6.7312-12.6033l-19.036-11.8018c-.0674 9.7567-3.4981 10.7578-9.0396 11.3419-6.845.7213-18.6706 5.0354-19.0742 13.702-4.6886.5852-6.0566-1.6033-6.8959-2.8702-.5436-.82-5.3468-1.6967-7.313 1.1275-2.1684 3.1157-4.9275 3.0375-6.1891 3.3183.8289 3.3954 4.2072 4.1446 7.6244 3.1961 2.6296-.731 4.4827-3.1297 5.7137-3.3076 3.0219-.4362 3.0055 3.1961 7.0711 2.0215.7368 3.3505 3.0669 7.6719 6.9551 12.0995z" fill="#ed1c24"/><path d="m431.4368 131.0005c.8588 2.6142-1.4892 6.6452-1.5836 7.8778l3.5633 4.4822c2.2986-2.8434 4.2566-11.2111-1.9797-12.3601z" fill="#ed1c24"/><path d="m408.3014 133.2599c2.6992.3484 6.2483 3.9807 6.5335 7.3602l4.6295-4.3119c-1.4892-3.3226-7.3534-8.2325-11.163-3.0482z" fill="#ed1c24"/><path d="m405.9182 156.5417c2.0388-1.6828 4.4168-2.2283 7.8229-2.2412l-1.0602-5.3291c-3.1118-.33-9.5068 3.297-6.7626 7.5703z" fill="#ed1c24"/><path d="m412.1859 168.9501c2.655-.8295 4.5119-2.5948 6.5006-5.5563l4.0417 3.9228c-1.5162 2.8971-8.3986 6.4287-10.5423 1.6334z" fill="#ed1c24"/><path d="m462.6107 181.7411c-24.7115-12.8029-25.452-28.3784-32.2086-30.448-1.0692-.3268-1.8614-.6945-2.5315-1.1768-1.8195-1.3129-2.6071-2.6184-2.7097-4.3976.0966 1.7803.8888 3.0911 2.7097 4.3976-2.9568-2.7567 5.4583-3.3397 7.3429-5.6259 2.8213-3.4234-1.8269-6.1822-2.4476-6.6848-.7151-.5788-4.041-3.4288-6.1442-2.4566-2.0733.9571-.1812 5.6216-2.3174 7.3847-1.6338-3.2787-.6087-7.8113-3.7422-9.18-2.0358-.8896-4.8391 1.2422-6.0738 3.5445-.286.5347-2.22 1.7706-1.8404 3.254.9951 3.8929 4.9163 3.9046 7.3796 5.074.8086.3837.6357 1.9561-.7413 2.4084-1.8659.6142-4.1503-1.3044-5.9076-.9743-2.834.5327-3.0646 7.4695 0 8.9657 2.5944 1.2691 9.1818-3.6945 9.4978-.6784.2291 2.1896.6484 4.2593-.9007 5.1885-1.1718.7031-3.7834-.3043-4.5232 2.5938-.3871 1.5198 1.5222 2.5616 2.3219 3.597.9786 1.2669 1.2429 4.269 3.2421 3.9154 1.7446-.3099 2.6071-6.0976 5.2711-1.2187 1.5342 2.8093-2.4798 6.4662.6739 10.567.9599 1.2465 1.1194-4.6452 3.1911-5.8789 1.3447-.8007-.4927 10.2164 2.1631 10.449 1.952.1716 1.5828-7.0836 2.4671-4.8939 1.2197 3.0225-.045 8.5316 1.5806 8.9433.9052.2294 2.8609-4.5402 3.099-4.0804.8955 1.7395.2396 7.3247 1.8696 8.3107.9284.5617 2.5225-4.3601 3.1769-3.1328.7607 1.4244-.9719 5.732.3744 6.7664.8468.6494 3.4644-3.9679 3.737-3.3505.9621 2.1854 3.0279 6.642 3.0279 6.642l8.8052-5.5659z" fill="#ed1c24"/><path d="m530.3756 240.5061c5.0241 5.6817 12.6717 8.9807 15.4286 5.2561 6.1592-8.3225-8.6989-22.6933-14.6918-35.2292-12.5894-26.3365-5.489-45.0738 3.0421-52.5883 8.1478-7.1768 9.4476-6.7256 12.6829-13.1811.569 4.6271-.2733 9.6356-3.5064 12.5788 5.367 6.7706-3.9908 18.8048-7.304 37.8488-1.4616 8.3924-4.1548 11.7846 5.2127 25.1297 3.2308 4.6024 5.7226 8.1801 8.7797 15.3761 3.3169-12.374-14.0816-26.9195-4.0417-37.0963-1.9812 8.6323 15.3013 29.9195 4.935 43.3965-1.3627 10.0588-9.4424 13.1532-21.7659 2.9121z" fill="#ed1c24"/><path d="m543.3311 157.3424c-10.7347 9.6785-12.7271 26.1147-13.693 40.3074" fill="none"/><path d="m501.9743 304.7717c3.6741-1.1306 8.0797 1.9443 8.6779 2.58l2.4147-4.2734c-2.1998-2.9946-8.6847-3.2605-11.0926 1.6934z" fill="#ed1c24"/><path d="m498.608 319.401c1.657-2.4117 7.2104-2.3902 7.918-2.2927l.0861-5.1522c-2.9171-.8338-7.76 2.3108-8.0003 7.4449z" fill="#ed1c24"/><path d="m515.7864 330c-.7435-3.9796 2.8108-6.3612 3.3244-6.9872l-4.735-3.0695c-2.4911 2.3719-2.8654 7.2807 1.4106 10.0567z" fill="#ed1c24"/><path d="m528.354 329.8875c2.7546-1.5713 2.658-8.3494 2.7202-9.2551l5.3677-.4491c-.2471 7.2433-2.9613 10.478-8.0879 9.7042z" fill="#ed1c24"/><path d="m509.1211 248.595c-2.8123 4.2702-8.0879 3.6593-8.809 1.3795-.5413-1.7106.8221-2.7471 1.4848-3.2347-7.8146-2.2691-6.8308-5.7385-5.5452-7.7653z" fill="none"/><path d="m459.0489 220.7313c24.6576 5.5466 26.5714 12.2197 33.5556 16.7277 31.6748 20.4415 16.0066 16.1136 15.7363 32.9741-.0224 1.3624.8154 2.8543 1.8584 4.313.2508 3.2337-3.2615 4.4256-2.4858 7.9186.7465 3.359 2.4843 8.4908-.766 10.7813 12.6478-1.7985 2.2447-10.2893 5.7174-15.7706 1.6263 1.7127 3.3289 3.2154 4.3562 4.209 4.3225 4.1757 14.1692 2.165 12.5901 8.0353-1.4481 5.388-1.8382 11.8145-3.8628 15.2079-1.6255 2.7224-5.0825 6.1329-7.7023 6.2122 2.6303-.075 6.079-3.4769 7.7023-6.2122-2.0538 3.3826-8.8105-3.7631-10.2428-4.0343-2.7419-.5187-4.6422 1.0268-4.8668 3.5478-.0449.4855-.6941 1.0718-.9838 1.5497-1.1052 1.82 2.9231 3.1276 5.09 3.5413-4.1413.5723-5.7204-1.6763-6.3261-1.7577-3.9287-.5296-2.8887 3.3622-3.2166 5.8028-.0674.5122-.7458 5.3665 2.9396 5.6226 2.372.1651 3.4644-2.6794 4.2019-2.6871.9015-.01 3.3409-.9131 5.1708-2.3601.2658 1.4738-2.2283 1.8885-4.4273 3.4717-3.9968 2.8789 8.0924 9.8317 8.6659 4.8005.2119-1.8585-.271-2.8724.7038-4.4651 1.4623-2.388 4.5711.1351 7.3459-2.9924.1857 1.9539-2.0568 4.3108-1.3919 7.2647.7106 3.1564 10.3154.3826 10.4629-1.5134.3122-3.9828-4.306-5.7845-.6829-10.7759.8386-1.1555 6.4437-.8211 9.2897-5.7589 1.0235-1.776-5.2824-.6753-5.4029-1.8081-.2224-2.1212 8.3417-5.7439 8.2646-7.1319-.1168-2.1232-5.3767-.022-5.4935-1.3055-.1647-1.7995 9.4012-6.7052 9.4012-8.3364 0-1.8489-5.7908-.3077-6.6309-1.2562-1.4346-1.6174 6.6309-4.9272 6.6309-8.8885 0-1.6613-4.0694 2.0022-4.5539-.2016-.6477-2.9517.9891-7.3772 1.0625-8.6376.0966-1.6431-3.7265 3.628-4.0627 4.821.0674-2.3794-8.9789-3.164-10.0975-6.8307-1.219-3.9924-2.1504-8.2507-2.3488-15.1767-.5833-20.4255-28.3272-31.3022-40.3145-57.7459z" fill="#ed1c24"/><path d="m461.0601 141.5707c-.1505 1.8982 1.5941 4.8896 3.0968 4.2197 1.2848-.5734 1.5282-5.0021-.4245-7.2336-1.4601-1.6688-4.6137-2.1576-6.2969-.508-4.2663 4.1833-.3107 11.9603 6.672 13.8875 4.178 1.1533 7.5743 1.4727 11.5583 1.8885 3.6621.3816 8.502.1608 15.66 4.3547-3.8703-3.836-7.6941-6.7705-14.3549-7.5744-3.7078-.4481-7.9779-.0109-11.0484-1.747-4.3779-2.4845-4.9657-5.3794-4.8616-7.2873z" fill="#ed1c24"/><path d="m474.649 153.3467c-2.545.1555-1.9894 6.3269-2.0194 7.7138l3.2548-.0965c-.5002-1.374-1.4705-5.3333-1.2354-7.6195z" fill="#e5e5e5"/><path d="m473.6913 145.6575c-.6686 3.6634-.7772 7.1243 1.6532 8.2787-.0749-1.3816.3774-3.9785 1.9699-7.0204z" fill="#e5e5e5"/><path d="m412.6015 227.8246c2.6071.1671 4.154 3.166 5.2023 3.7255l4.8271-3.0482c-1.8741-2.6549-7.3002-4.583-10.0294-.6773z" fill="#ed1c24"/><path d="m405.272 243.9573c2.0695-1.8456 5.0271-.6109 6.2108.3034l1.314-5.7341c-3.0728-.6324-7.9075.3483-7.5249 5.4307z" fill="#ed1c24"/><path d="m421.5946 259.3946c-.6432-2.3107.4156-6.643.5945-7.3879l-5.1409-.91c-1.1695 3.9057 1.3889 7.6656 4.5464 8.2979z" fill="#ed1c24"/><path d="m436.5395 258.7162c.5968-1.8328.7053-7.612.5264-8.3569l5.0121-1.4223c.73 5.2069-1.5102 9.8789-5.5385 9.7792z" fill="#ed1c24"/><path d="m479.0359 195.2726-16.1346-6.6689c-9.5293 23.7298-12.8874 19.4565-24.0152 38.3794-2.1504 3.6559-5.1132 6.8412-8.4196 8.5852-2.1961 1.1596-4.2094 1.8595-5.966 2.0589 1.7536-.1994 3.7677-.896 5.966-2.0589-1.955 1.0107-2.7381-.4406-3.5438-1.7461-1.4091-2.2851.3392-5.643-2.5307-6.9581-2.089-.9571-4.5344 1.6709-5.0241 1.9046-.721.343-3.6756 1.3312-4.163 4.2444-.3115 1.8552.0449 3.3301 1.0086 3.7663.8244.2958 2.0321.8028 3.4592 1.6227-1.4226-.8188-2.6363-1.3322-3.4592-1.6227-.8768-.3086-1.6907-.5531-2.3758-.6882-3.2578-.6431-2.4364 4.0643-2.4244 4.8501.007.6194-2.4559 5.2303 1.8734 6.1778 2.9777.6517 5.2038-.716 6.4811-2.0032-2.9209 2.8061-4.7336 1.0547-5.0016 4.6795-.2583 3.4984 4.4925 3.1725 5.1633 3.2133.5885.032 5.1821 1.6141 5.5392-.8736.301-2.0921-2.0703-5.2293.5818-6.3407 4.1495-1.7385 4.0582 4.5412 9.4791-.1544-.8094 1.6099-1.9595 3.6785-1.1254 5.1833.9292 1.6774 2.6228.6399 4.786.7031 3.4225.096 4.786-1.6441 4.8773-3.1575.2186-3.611-1.9639-6.3184-1.3882-7.1147.6155-.85 9.2282 1.0781 10.2188-.8789.1857-.3676-1.6607-.9272-3.0055-1.7299-1.207-.7192-1.9557-1.6967-1.4256-1.866 4.1061-1.3151 8.1478 1.657 11.2693-1.1662 1.5312-1.3847-6.9753-2.6259-6.3583-3.3214 2.0845-2.3505 10.1762 1.1522 11.6804-2.6271.6087-1.5295-6.5365-1.2112-6.2655-2.7803.4051-2.3483 10.433 1.1748 12.7354-3.1992.6896-1.3109-5.3572-2.6004-5.1214-3.0419.2516-.4694 6.6601 2.5348 11.1555-2.3077 1.0797-1.1628-3.3843-.9346-3.9556-2.4661z" fill="#ed1c24"/><path d="m490.383 132.2589c-3.6344-.2937-7.5728-.359-11.3622-1.1607-2.7329-.5788-4.0934 1.6077-3.6831 3.6163-2.1594 2.165-2.2859 6.7792-2.6423 9.7159-.435 3.5874 3.3888 5.2722 5.2053 3.9539 2.4611-1.7856 5.3535-3.0161 7.0277-1.3848l2.1729 2.119c1.5671 1.5273 1.6907 3.3612.4785 4.4888-3.3551 3.1189-4.1847 3.5573-3.9451 5.4715.3601 2.8725-7.0629 1.0804-7.9247-.6055-.5788-1.1318-2.8602-1.8713-3.7198 1.283-2.2507 8.2648 5.0083 6.6528 9.9725 5.9025 3.999-.6045 3.6404 1.3784.4799 2.4041-3.2892 1.0686-7.5331 1.313-10.8246 1.4716-3.3888.1628-7.4283 3.6967-9.685 4.9593-4.1608 2.33-5.3048 3.7041-8.5664 4.0825-.5878 1.0321-.045 2.3333.3264 2.6751-7.6791 6.7653-9.3338 12.2209-17.8156 11.7235-.1078 6.6334 9.506 5.7984 12.8874 3.6142 2.3645-1.5274 6.5216-4.1137 9.387-5.2048-1.1935 1.7621-4.5291 1.9368-8.8382 9.1886-2.3578 3.9668-7.0277 10.3719-10.8186 9.9303.2471 5.4631 8.037 8.0997 16.3076-1.5733 3.9698-4.6432 6.8458-8.5028 9.1856-10.0837-1.6884 1.4662-4.6362 5.9775-5.3498 10.8071-.9996 6.7513-4.5269 9.0878-5.6298 9.927 3.1455 3.3034 9.4873.3344 12.525-6.7512 1.7378-4.0525 5.0533-10.6227 8.1141-12.7964-.6866 1.8456-1.9632 4.239-1.794 11.2583.1078 4.3837-2.9178 9.1822-5.9061 9.3311 2.4634.7868 7.3886-.4962 10.6711-5.0889 1.7004-2.3816 3.9848-8.24 5.2195-12.0492 1.7161 4.8585 2.6371 14.434.3257 17.3697 12.1304-1.6281 6.6893-12.0214 10.6561-18.6173-.2433 6.4876 5.349 7.0449 3.0526 15.3955 10.245-3.2937 4.0267-18.2422 5.9959-20.5734.0524 4.9978 4.6003 7.434 4.5906 13.9024 5.656-8.1586.5885-9.7384 1.3148-21.8831.7884 3.2594 3.9773 5.9346 4.3165 10.7213 4.4775-9.269-1.8891-15.5401-1.2833-22.2646 1.2804 2.5669 2.6416 3.6109 4.3158 9.3601.3676-12.0257-1.317-12.014-3.0549-21.1414 1.5799 1.6035 2.1758 3.1758 3.278 5.5016-.143-3.4459-1.4353-10.3504-1.4353-10.3504s.73-8.2187-1.0527-12.6645c-3.457-8.6281-18.19-21.2883-22.475-15.9807z" fill="#ed1c24"/><path d="m453.6932 181.2523c1.0797 1.3965 5.7466 1.777 10.0174-.5992 2.6146-1.4555 5.7219-3.3913 8.8906-4.074-2.861 3.7921-4.5059 5.2476-7.5451 7.2132 7.5174 8.8285 13.0184-8.2153 25.2948-8.7298-3.1777 3.0557-2.7763 8.2968-6.568 12.0976 12.0637 1.8702 10.9369-13.209 19.212-16.656" fill="none"/><path d="m491.0217 134.9416c1.3515.8264 2.6221 1.8756 4.0859 2.2111 1.663.3816 2.4911 1.3998 3.8643 2.8124-.8925 2.7642-.6469 6.1714-3.3873 6.1757-2.2799 0-3.1223-2.4062-3.3634-4.8842-.158-1.6205-1.788-2.3569-1.1995-6.315z" fill="#e5e5e5"/><path d="m495.1076 137.1527c-.1243 1.0664-1.8 4.1233-2.7524 5.1286-.0861-.2346-.0674-.6527-.134-1.0246-.4238-2.2669-1.6839-2.2915-1.1785-6.3365 1.4578.9259 2.4806 1.8563 4.0649 2.2325z"/><path d="m475.3378 134.7144c.9734-.9528 2.4551-.3976 3.6224-.6173" fill="#ed1c24"/><path d="m507.6925 148.3145c2.5682.1533 5.1364.0854 7.7053-.1415-1.8734 5.0451-4.0492 9.3955-6.7918 12.9261" fill="#ed1c24"/></g><g><path d="m223.0076 273.6068c-2.0456-.3934-4.6587 3.1104-5.0203 3.9293l-3.7654-2.1919c1.1254-3.6323 7.1677-6.8499 8.7857-1.7374z" fill="#ed1c24"/><path d="m231.1853 289.7461c-1.4743-2.0803-5.8859-.9604-6.7072-.4909l-1.0333-5.0493c3.412-1.3515 7.8161-.064 7.7405 5.5402z" fill="#ed1c24"/><path d="m226.6307 303.208c-2.5382-2.1307-5.2914-3.4823-6.2797-3.8531l3.1065-4.2948c3.1642 1.7653 4.3607 3.8596 3.1732 8.1479z" fill="#ed1c24"/><path d="m207.0107 307.775c-1.2946-2.1255-.9539-7.5381-.8693-8.4062l-4.6759 1.7867c-.8543 3.7181 1.8 8.1126 5.5452 6.6195z" fill="#ed1c24"/><path d="m186.9399 270.7064c-1.1321 1.2895-1.2392 6.9368.1595 7.9454 3.1956 2.3033 5.826 1.2754 8.0385 1.9893 1.8494.597 7.0502 4.1758 9.2732 5.1318 1.788.7685 5.1019 1.5006 5.2517.8221-.1475.6806-3.4367-.054-5.2517-.8221 1.809.7738 3.263-1.5637 3.6763-2.0214 1.3882-1.5402 2.1369-3.2433 1.7565-5.8981-.5368-3.7514 3.8643-5.7192 6.0663-2.2369 3.6726.5252 3.0032 2.4662 2.9036 5.6291-.0449 1.2454-2.0755 1.956-3.5266 2.4962 1.4653-.5552 3.4914-1.2583 3.5266-2.4962 1.0048-.8918 4.0874-.1533 5.513 1.6098.7353.9078.007 2.5423.301 3.641.6005 2.2497.5077 3.5659-1.6877 4.9281-.7315-.5294-2.852-1.3097-4.1271-1.7513 1.2721.4416 3.4008 1.2326 4.1271 1.7513 1.2571.8961 1.9258 2.0869 1.508 4.4191-.1093.612-.5915 1.6302-1.8307 2.015-1.2848 1.8821-2.1272 2.9947-3.9054 2.4308-2.9508-.9345-3.698-5.3268-5.069-5.3493-1.9909-.032-2.3817-1.909-4.7972-2.6795-1.9729-.6303-4.1256 1.1575-3.5618 2.1586.5713 1.015 1.8749 1.5648 2.2897 2.7052 1.4451 3.9732-8.9819 6.8746-10.3626 4.1244-.8992-1.79 1.6615-5.2048-1.624-7.3312-4.3015-2.7846-3.9144 4.6388-9.4312 4.3022-3.7976-.2326 5.03-6.657.9883-6.2884-3.8051.3474-7.0502 4.6828-9.8871 1.9036-1.5492-1.5165 5.6201-3.5359 1.5971-4.3847-2.694-.5681-7.8229 3.6731-9.3555.5787-1.055-2.1296 4.4827-2.7941 3.4981-4.9635-1.0744-2.3708-8.3006 2.2626-9.8871-1.6549-.7053-1.7416 3.3851-2.0954 3.1185-3.3922-.1924-.9357-1.8674.2498-3.0421-.9925-2.378-2.5145-6.416-12.2368-2.8916-9.5144 2.2238 1.7159 3.3821 2.0407 4.5643 3.3096-1.1074-1.7159-1.3994-9.6366-1.2923-10.1767.4665-2.3709-6.1277-3.5177-10.0788-8.1619-3.2937-3.8692-5.4014-7.4544-6.7312-12.6033l19.036-11.8018c.0674 9.7567 3.4981 10.7578 9.0396 11.3419 6.845.7213 18.6706 5.0354 19.0742 13.702 4.6886.5852 6.0566-1.6033 6.8959-2.8702.5436-.82 5.3468-1.6967 7.313 1.1275 2.1684 3.1157 4.9275 3.0375 6.1891 3.3183-.8289 3.3954-4.2072 4.1446-7.6244 3.1961-2.6296-.731-4.4827-3.1297-5.7137-3.3076-3.0219-.4362-3.0055 3.1961-7.0711 2.0215-.7368 3.3505-3.0669 7.6719-6.9551 12.0995z" fill="#ed1c24"/><path d="m228.5632 131.0005c-.8588 2.6142 1.4892 6.6452 1.5836 7.8778l-3.5633 4.4822c-2.2986-2.8434-4.2566-11.2111 1.9797-12.3601z" fill="#ed1c24"/><path d="m251.6986 133.2599c-2.6992.3484-6.2483 3.9807-6.5335 7.3602l-4.6295-4.3119c1.4892-3.3226 7.3534-8.2325 11.163-3.0482z" fill="#ed1c24"/><path d="m254.0819 156.5417c-2.0388-1.6828-4.4168-2.2283-7.8229-2.2412l1.0602-5.3291c3.1118-.33 9.5068 3.297 6.7626 7.5703z" fill="#ed1c24"/><path d="m247.8142 168.9501c-2.655-.8295-4.5119-2.5948-6.5006-5.5563l-4.0417 3.9228c1.5162 2.8971 8.3986 6.4287 10.5423 1.6334z" fill="#ed1c24"/><path d="m197.3894 181.7411c24.7115-12.8029 25.452-28.3784 32.2086-30.448 1.0692-.3268 1.8614-.6945 2.5315-1.1768 1.8195-1.3129 2.6071-2.6184 2.7097-4.3976-.0966 1.7803-.8888 3.0911-2.7097 4.3976 2.9568-2.7567-5.4583-3.3397-7.3429-5.6259-2.8213-3.4234 1.8269-6.1822 2.4476-6.6848.7151-.5788 4.041-3.4288 6.1442-2.4566 2.0733.9571.1812 5.6216 2.3174 7.3847 1.6338-3.2787.6087-7.8113 3.7422-9.18 2.0358-.8896 4.8391 1.2422 6.0738 3.5445.286.5347 2.22 1.7706 1.8404 3.254-.9951 3.8929-4.9163 3.9046-7.3796 5.074-.8086.3837-.6357 1.9561.7413 2.4084 1.8659.6142 4.1503-1.3044 5.9076-.9743 2.834.5327 3.0646 7.4695 0 8.9657-2.5944 1.2691-9.1818-3.6945-9.4978-.6784-.2291 2.1896-.6484 4.2593.9007 5.1885 1.1718.7031 3.7834-.3043 4.5232 2.5938.3871 1.5198-1.5222 2.5616-2.3219 3.597-.9786 1.2669-1.2429 4.269-3.2421 3.9154-1.7446-.3099-2.6071-6.0976-5.2711-1.2187-1.5342 2.8093 2.4798 6.4662-.6739 10.567-.9599 1.2465-1.1194-4.6452-3.1911-5.8789-1.3447-.8007.4927 10.2164-2.1631 10.449-1.952.1716-1.5828-7.0836-2.4671-4.8939-1.2197 3.0225.045 8.5316-1.5806 8.9433-.9052.2294-2.8609-4.5402-3.099-4.0804-.8955 1.7395-.2396 7.3247-1.8696 8.3107-.9284.5617-2.5225-4.3601-3.1769-3.1328-.7607 1.4244.9719 5.732-.3744 6.7664-.8468.6494-3.4644-3.9679-3.737-3.3505-.9621 2.1854-3.0279 6.642-3.0279 6.642l-8.8052-5.5659z" fill="#ed1c24"/><path d="m129.6244 240.5061c-5.0241 5.6817-12.6717 8.9807-15.4286 5.2561-6.1592-8.3225 8.6989-22.6933 14.6918-35.2292 12.5894-26.3365 5.489-45.0738-3.0421-52.5883-8.1478-7.1768-9.4476-6.7256-12.6829-13.1811-.569 4.6271.2733 9.6356 3.5064 12.5788-5.367 6.7706 3.9908 18.8048 7.304 37.8488 1.4616 8.3924 4.1548 11.7846-5.2127 25.1297-3.2308 4.6024-5.7226 8.1801-8.7797 15.3761-3.3169-12.374 14.0816-26.9195 4.0417-37.0963 1.9812 8.6323-15.3013 29.9195-4.935 43.3965 1.3627 10.0588 9.4424 13.1532 21.7659 2.9121z" fill="#ed1c24"/><path d="m116.669 157.3424c10.7347 9.6785 12.7271 26.1147 13.693 40.3074" fill="none"/><path d="m158.0257 304.7717c-3.6741-1.1306-8.0797 1.9443-8.6779 2.58l-2.4147-4.2734c2.1998-2.9946 8.6847-3.2605 11.0926 1.6934z" fill="#ed1c24"/><path d="m161.3921 319.401c-1.657-2.4117-7.2104-2.3902-7.918-2.2927l-.0861-5.1522c2.9171-.8338 7.76 2.3108 8.0003 7.4449z" fill="#ed1c24"/><path d="m144.2137 330c.7435-3.9796-2.8108-6.3612-3.3244-6.9872l4.735-3.0695c2.4911 2.3719 2.8654 7.2807-1.4106 10.0567z" fill="#ed1c24"/><path d="m131.6461 329.8875c-2.7546-1.5713-2.658-8.3494-2.7202-9.2551l-5.3677-.4491c.2471 7.2433 2.9613 10.478 8.0879 9.7042z" fill="#ed1c24"/><path d="m150.879 248.595c2.8123 4.2702 8.0879 3.6593 8.809 1.3795.5413-1.7106-.8221-2.7471-1.4848-3.2347 7.8146-2.2691 6.8308-5.7385 5.5452-7.7653z" fill="none"/><path d="m200.9511 220.7313c-24.6576 5.5466-26.5714 12.2197-33.5556 16.7277-31.6748 20.4415-16.0066 16.1136-15.7363 32.9741.0224 1.3624-.8154 2.8543-1.8584 4.313-.2508 3.2337 3.2615 4.4256 2.4858 7.9186-.7465 3.359-2.4843 8.4908.766 10.7813-12.6478-1.7985-2.2447-10.2893-5.7174-15.7706-1.6263 1.7127-3.3289 3.2154-4.3562 4.209-4.3225 4.1757-14.1692 2.165-12.5901 8.0353 1.4481 5.388 1.8382 11.8145 3.8628 15.2079 1.6255 2.7224 5.0825 6.1329 7.7023 6.2122-2.6303-.075-6.079-3.4769-7.7023-6.2122 2.0538 3.3826 8.8105-3.7631 10.2428-4.0343 2.7419-.5187 4.6422 1.0268 4.8668 3.5478.0449.4855.6941 1.0718.9838 1.5497 1.1052 1.82-2.9231 3.1276-5.09 3.5413 4.1413.5723 5.7204-1.6763 6.3261-1.7577 3.9287-.5296 2.8887 3.3622 3.2166 5.8028.0674.5122.7458 5.3665-2.9396 5.6226-2.372.1651-3.4644-2.6794-4.2019-2.6871-.9015-.01-3.3409-.9131-5.1708-2.3601-.2658 1.4738 2.2283 1.8885 4.4273 3.4717 3.9968 2.8789-8.0924 9.8317-8.6659 4.8005-.2119-1.8585.271-2.8724-.7038-4.4651-1.4623-2.388-4.5711.1351-7.3459-2.9924-.1857 1.9539 2.0568 4.3108 1.3919 7.2647-.7106 3.1564-10.3154.3826-10.4629-1.5134-.3122-3.9828 4.306-5.7845.6829-10.7759-.8386-1.1555-6.4437-.8211-9.2897-5.7589-1.0235-1.776 5.2824-.6753 5.4029-1.8081.2224-2.1212-8.3417-5.7439-8.2646-7.1319.1168-2.1232 5.3767-.022 5.4935-1.3055.1647-1.7995-9.4012-6.7052-9.4012-8.3364 0-1.8489 5.7908-.3077 6.6309-1.2562 1.4346-1.6174-6.6309-4.9272-6.6309-8.8885 0-1.6613 4.0694 2.0022 4.5539-.2016.6477-2.9517-.9891-7.3772-1.0625-8.6376-.0966-1.6431 3.7265 3.628 4.0627 4.821-.0674-2.3794 8.9789-3.164 10.0975-6.8307 1.219-3.9924 2.1504-8.2507 2.3488-15.1767.5833-20.4255 28.3272-31.3022 40.3145-57.7459z" fill="#ed1c24"/><path d="m198.94 141.5707c.1505 1.8982-1.5941 4.8896-3.0968 4.2197-1.2848-.5734-1.5282-5.0021.4245-7.2336 1.4601-1.6688 4.6137-2.1576 6.2969-.508 4.2663 4.1833.3107 11.9603-6.672 13.8875-4.178 1.1533-7.5743 1.4727-11.5583 1.8885-3.6621.3816-8.502.1608-15.66 4.3547 3.8703-3.836 7.6941-6.7705 14.3549-7.5744 3.7078-.4481 7.9779-.0109 11.0484-1.747 4.3779-2.4845 4.9657-5.3794 4.8616-7.2873z" fill="#ed1c24"/><path d="m185.3511 153.3467c2.545.1555 1.9894 6.3269 2.0194 7.7138l-3.2548-.0965c.5002-1.374 1.4705-5.3333 1.2354-7.6195z" fill="#e5e5e5"/><path d="m186.3087 145.6575c.6686 3.6634.7772 7.1243-1.6532 8.2787.0749-1.3816-.3774-3.9785-1.9699-7.0204z" fill="#e5e5e5"/><path d="m247.3986 227.8246c-2.6071.1671-4.154 3.166-5.2023 3.7255l-4.8271-3.0482c1.8741-2.6549 7.3002-4.583 10.0294-.6773z" fill="#ed1c24"/><path d="m254.728 243.9573c-2.0695-1.8456-5.0271-.6109-6.2108.3034l-1.314-5.7341c3.0728-.6324 7.9075.3483 7.5249 5.4307z" fill="#ed1c24"/><path d="m238.4055 259.3946c.6432-2.3107-.4156-6.643-.5945-7.3879l5.1409-.91c1.1695 3.9057-1.3889 7.6656-4.5464 8.2979z" fill="#ed1c24"/><path d="m223.4606 258.7162c-.5968-1.8328-.7053-7.612-.5264-8.3569l-5.0121-1.4223c-.73 5.2069 1.5102 9.8789 5.5385 9.7792z" fill="#ed1c24"/><path d="m180.9642 195.2726 16.1346-6.6689c9.5293 23.7298 12.8874 19.4565 24.0152 38.3794 2.1504 3.6559 5.1132 6.8412 8.4196 8.5852 2.1961 1.1596 4.2094 1.8595 5.966 2.0589-1.7536-.1994-3.7677-.896-5.966-2.0589 1.955 1.0107 2.7381-.4406 3.5438-1.7461 1.4091-2.2851-.3392-5.643 2.5307-6.9581 2.089-.9571 4.5344 1.6709 5.0241 1.9046.721.343 3.6756 1.3312 4.163 4.2444.3115 1.8552-.0449 3.3301-1.0086 3.7663-.8244.2958-2.0321.8028-3.4592 1.6227 1.4226-.8188 2.6363-1.3322 3.4592-1.6227.8768-.3086 1.6907-.5531 2.3758-.6882 3.2578-.6431 2.4364 4.0643 2.4244 4.8501-.007.6194 2.4559 5.2303-1.8734 6.1778-2.9777.6517-5.2038-.716-6.4811-2.0032 2.9209 2.8061 4.7336 1.0547 5.0016 4.6795.2583 3.4984-4.4925 3.1725-5.1633 3.2133-.5885.032-5.1821 1.6141-5.5392-.8736-.301-2.0921 2.0703-5.2293-.5818-6.3407-4.1495-1.7385-4.0582 4.5412-9.4791-.1544.8094 1.6099 1.9595 3.6785 1.1254 5.1833-.9292 1.6774-2.6228.6399-4.786.7031-3.4225.096-4.786-1.6441-4.8773-3.1575-.2186-3.611 1.9639-6.3184 1.3882-7.1147-.6155-.85-9.2282 1.0781-10.2188-.8789-.1857-.3676 1.6607-.9272 3.0055-1.7299 1.207-.7192 1.9557-1.6967 1.4256-1.866-4.1061-1.3151-8.1478 1.657-11.2693-1.1662-1.5312-1.3847 6.9753-2.6259 6.3583-3.3214-2.0845-2.3505-10.1762 1.1522-11.6804-2.6271-.6087-1.5295 6.5365-1.2112 6.2655-2.7803-.4051-2.3483-10.433 1.1748-12.7354-3.1992-.6896-1.3109 5.3572-2.6004 5.1214-3.0419-.2516-.4694-6.6601 2.5348-11.1555-2.3077-1.0797-1.1628 3.3843-.9346 3.9556-2.4661z" fill="#ed1c24"/><path d="m169.617 132.2589c3.6344-.2937 7.5728-.359 11.3622-1.1607 2.7329-.5788 4.0934 1.6077 3.6831 3.6163 2.1594 2.165 2.2859 6.7792 2.6423 9.7159.435 3.5874-3.3888 5.2722-5.2053 3.9539-2.4611-1.7856-5.3535-3.0161-7.0277-1.3848l-2.1729 2.119c-1.5671 1.5273-1.6907 3.3612-.4785 4.4888 3.3551 3.1189 4.1847 3.5573 3.9451 5.4715-.3601 2.8725 7.0629 1.0804 7.9247-.6055.5788-1.1318 2.8602-1.8713 3.7198 1.283 2.2507 8.2648-5.0083 6.6528-9.9725 5.9025-3.999-.6045-3.6404 1.3784-.4799 2.4041 3.2892 1.0686 7.5331 1.313 10.8246 1.4716 3.3888.1628 7.4283 3.6967 9.685 4.9593 4.1608 2.33 5.3048 3.7041 8.5664 4.0825.5878 1.0321.045 2.3333-.3264 2.6751 7.6791 6.7653 9.3338 12.2209 17.8156 11.7235.1078 6.6334-9.506 5.7984-12.8874 3.6142-2.3645-1.5274-6.5216-4.1137-9.387-5.2048 1.1935 1.7621 4.5291 1.9368 8.8382 9.1886 2.3578 3.9668 7.0277 10.3719 10.8186 9.9303-.2471 5.4631-8.037 8.0997-16.3076-1.5733-3.9698-4.6432-6.8458-8.5028-9.1856-10.0837 1.6884 1.4662 4.6362 5.9775 5.3498 10.8071.9996 6.7513 4.5269 9.0878 5.6298 9.927-3.1455 3.3034-9.4873.3344-12.525-6.7512-1.7378-4.0525-5.0533-10.6227-8.1141-12.7964.6866 1.8456 1.9632 4.239 1.794 11.2583-.1078 4.3837 2.9178 9.1822 5.9061 9.3311-2.4634.7868-7.3886-.4962-10.6711-5.0889-1.7004-2.3816-3.9848-8.24-5.2195-12.0492-1.7161 4.8585-2.6371 14.434-.3257 17.3697-12.1304-1.6281-6.6893-12.0214-10.6561-18.6173.2433 6.4876-5.349 7.0449-3.0526 15.3955-10.245-3.2937-4.0267-18.2422-5.9959-20.5734-.0524 4.9978-4.6003 7.434-4.5906 13.9024-5.656-8.1586-.5885-9.7384-1.3148-21.8831-.7884 3.2594-3.9773 5.9346-4.3165 10.7213-4.4775-9.269 1.8891-15.5401 1.2833-22.2646-1.2804 2.5669-2.6416 3.6109-4.3158 9.3601-.3676-12.0257 1.317-12.014 3.0549-21.1414-1.5799 1.6035-2.1758 3.1758-3.278 5.5016.143-3.4459 1.4353-10.3504 1.4353-10.3504s-.73-8.2187 1.0527-12.6645c3.457-8.6281 18.19-21.2883 22.475-15.9807z" fill="#ed1c24"/><path d="m206.3069 181.2523c-1.0797 1.3965-5.7466 1.777-10.0174-.5992-2.6146-1.4555-5.7219-3.3913-8.8906-4.074 2.861 3.7921 4.5059 5.2476 7.5451 7.2132-7.5174 8.8285-13.0184-8.2153-25.2948-8.7298 3.1777 3.0557 2.7763 8.2968 6.568 12.0976-12.0637 1.8702-10.9369-13.209-19.212-16.656" fill="none"/><path d="m168.9783 134.9416c-1.3515.8264-2.6221 1.8756-4.0859 2.2111-1.663.3816-2.4911 1.3998-3.8643 2.8124.8925 2.7642.6469 6.1714 3.3873 6.1757 2.2799 0 3.1223-2.4062 3.3634-4.8842.158-1.6205 1.788-2.3569 1.1995-6.315z" fill="#e5e5e5"/><path d="m164.8925 137.1527c.1243 1.0664 1.8 4.1233 2.7524 5.1286.0861-.2346.0674-.6527.134-1.0246.4238-2.2669 1.6839-2.2915 1.1785-6.3365-1.4578.9259-2.4806 1.8563-4.0649 2.2325z"/><path d="m184.6622 134.7144c-.9734-.9528-2.4551-.3976-3.6224-.6173" fill="#ed1c24"/><path d="m152.3076 148.3145c-2.5682.1533-5.1364.0854-7.7053-.1415 1.8734 5.0451 4.0492 9.3955 6.7918 12.9261" fill="#ed1c24"/></g></g><g stroke="#000" stroke-linecap="round" stroke-linejoin="round" stroke-width="3"><path d="m26.7435 79.8001c8.7838-4.2806 18.1371-9.1822 25.7112-14.7727" fill="#e5e5e5" fill-rule="evenodd"/><path d="m50.4599 136.8806c15.5305-11.0521-6.4745-65.3269-23.7163-57.0806-13.1331 6.2812 3.4391 32.9669 11.3619 35.4851 4.1731-3.2694 9.8825-7.2218 14.3085-9.8463" fill="none"/><path d="m645.2538 59.6842c9.6163 4.8298 13.2465 14.5886 13.2465 25.1158 0 29.0783-27.7222 67.3049-48.9601 52.0806-10.482-7.5139-20.167-14.6184-28.3993-20.4213" fill="none"/><path d="m633.2565 79.8001c-8.7838-4.2806-18.1371-9.1822-25.7112-14.7727" fill="#e5e5e5" fill-rule="evenodd"/><path d="m609.5402 136.8806c-15.5305-11.0521 6.4745-65.3269 23.7163-57.0806 13.1331 6.2812-3.4391 32.9669-11.3619 35.4851-4.1731-3.2694-9.8825-7.2218-14.3085-9.8463" fill="none"/><path d="m14.7465 59.6842c-9.6163 4.8298-13.2465 14.5886-13.2465 25.1158 0 29.0783 27.7221 67.3049 48.9601 52.0806 10.482-7.5139 20.167-14.6184 28.3993-20.4213" fill="none"/><path d="m510 6c4.5589-3.1114 12.5705-4.5 20-4.5 7.1808 0 15.2514 1.2733 20 4.5 26.9545 18.3155 63.6428 37.6629 95.2538 53.6842-24.2792-12.1944-66.7538 4.6718-66.7538 90.3158v354.75c0 68.35-55.4 123.75-123.75 123.75h-62.375c-27.18 0-50.966 17.254-62.375 40-11.409-22.746-35.195-40-62.375-40h-62.375c-68.35 0-123.75-55.4-123.75-123.75v-354.75c0-85.644-42.4746-102.5102-66.7538-90.3158 31.611-16.0213 68.2993-35.3687 95.2538-53.6842 4.7486-3.2267 12.8192-4.5 20-4.5 7.4295 0 15.4411 1.3886 20 4.5 51.2751 34.9944 113.2365 55.5 180 55.5s128.7249-20.5056 180-55.5z" fill="none"/></g></svg>