<?xml version="1.0" encoding="utf-8"?><!DOCTYPE svg PUBLIC "-//W3C//DTD SVG 1.1//EN" "http://www.w3.org/Graphics/SVG/1.1/DTD/svg11.dtd"><svg viewBox="0 0 500 640" xmlns="http://www.w3.org/2000/svg"><path d="m.5.5v474.25c0 68.898 55.852 124.75 124.75 124.75h62.375c27.289 0 50.92 17.163 62.375 40 11.455-22.837 35.086-40 62.375-40h62.375c68.898 0 124.75-55.852 124.75-124.75v-474.25z" fill="#0071bc" stroke="#000" stroke-linecap="round" stroke-linejoin="round"/><g stroke="#000" stroke-linecap="round" stroke-linejoin="round"><g><path d="m499.5 258.416v216.334c0 14.978-2.6294 29.3512-7.4688 42.6563h-137.375v-258.9903z" fill="#c87137"/><path d="m499.5 278.3399h-144.854" fill="none"/><path d="m499.5 298.2629h-144.854" fill="none"/><path d="m499.5 318.186h-144.854" fill="none"/><path d="m499.5 338.109h-144.854" fill="none"/><path d="m499.5 358.0321h-144.854" fill="none"/><path d="m499.5 377.9551h-144.854" fill="none"/><path d="m478.8067 278.3399v19.9231" fill="none"/><path d="m437.4198 278.3399v19.9231" fill="none"/><path d="m396.0328 278.3399v19.9231" fill="none"/><path d="m458.1133 298.2629v19.9231" fill="none"/><path d="m416.7263 298.2629v19.9231" fill="none"/><path d="m375.3393 298.2629v19.9231" fill="none"/><path d="m478.8067 318.186v19.9231" fill="none"/><path d="m437.4198 318.186v19.9231" fill="none"/><path d="m396.0328 318.186v19.9231" fill="none"/><path d="m458.1133 338.109v19.9231" fill="none"/><path d="m416.7263 338.109v19.9231" fill="none"/><path d="m375.3393 338.109v19.9231" fill="none"/><path d="m478.8067 358.0321v19.923" fill="none"/><path d="m437.4198 358.0321v19.923" fill="none"/><path d="m396.0328 358.0321v19.923" fill="none"/><path d="m458.1133 377.9551v19.9231" fill="none"/><path d="m416.7263 377.9551v19.9231" fill="none"/><path d="m375.3393 377.9551v19.9231" fill="none"/><path d="m458.1133 258.416v19.9239" fill="none"/><path d="m416.7263 258.416v19.9239" fill="none"/><path d="m375.3393 258.416v19.9239" fill="none"/><path d="m499.5 397.8782h-144.854" fill="none"/><path d="m478.8067 397.8782v19.9231" fill="none"/><path d="m437.4198 397.8782v19.9231" fill="none"/><path d="m396.0328 397.8782v19.9231" fill="none"/><path d="m499.5 437.7243h-144.854" fill="none"/><path d="m499.5 457.6474h-144.854" fill="none"/><path d="m498.6611 477.5704h-144.0151" fill="none"/><path d="m496.3839 497.4935h-141.7379" fill="none"/><path d="m478.8067 437.7243v19.9231" fill="none"/><path d="m437.4198 437.7243v19.9231" fill="none"/><path d="m396.0328 437.7243v19.9231" fill="none"/><path d="m458.1133 457.6474v19.9231" fill="none"/><path d="m416.7263 457.6474v19.9231" fill="none"/><path d="m375.3393 457.6474v19.9231" fill="none"/><path d="m478.8067 477.5704v19.9231" fill="none"/><path d="m437.4198 477.5704v19.9231" fill="none"/><path d="m396.0328 477.5704v19.9231" fill="none"/><path d="m458.1133 497.4935v19.9231" fill="none"/><path d="m416.7263 497.4935v19.9231" fill="none"/><path d="m375.3393 497.4935v19.9231" fill="none"/><path d="m458.1133 417.8012v19.9231" fill="none"/><path d="m416.7263 417.8012v19.9231" fill="none"/><path d="m375.3393 417.8012v19.9231" fill="none"/><path d="m499.5 417.8012h-144.854" fill="none"/></g><g><path d="m.5 258.416v216.334c0 14.978 2.6294 29.3512 7.4688 42.6563h137.375v-258.9903z" fill="#c87137"/><path d="m.5 278.3399h144.854" fill="none"/><path d="m.5 298.2629h144.854" fill="none"/><path d="m.5 318.186h144.854" fill="none"/><path d="m.5 338.109h144.854" fill="none"/><path d="m.5 358.0321h144.854" fill="none"/><path d="m.5 377.9551h144.854" fill="none"/><path d="m21.1933 278.3399v19.9231" fill="none"/><path d="m62.5802 278.3399v19.9231" fill="none"/><path d="m103.9672 278.3399v19.9231" fill="none"/><path d="m41.8868 298.2629v19.9231" fill="none"/><path d="m83.2737 298.2629v19.9231" fill="none"/><path d="m124.6607 298.2629v19.9231" fill="none"/><path d="m21.1933 318.186v19.9231" fill="none"/><path d="m62.5802 318.186v19.9231" fill="none"/><path d="m103.9672 318.186v19.9231" fill="none"/><path d="m41.8868 338.109v19.9231" fill="none"/><path d="m83.2737 338.109v19.9231" fill="none"/><path d="m124.6607 338.109v19.9231" fill="none"/><path d="m21.1933 358.0321v19.923" fill="none"/><path d="m62.5802 358.0321v19.923" fill="none"/><path d="m103.9672 358.0321v19.923" fill="none"/><path d="m41.8868 377.9551v19.9231" fill="none"/><path d="m83.2737 377.9551v19.9231" fill="none"/><path d="m124.6607 377.9551v19.9231" fill="none"/><path d="m41.8868 258.416v19.9239" fill="none"/><path d="m83.2737 258.416v19.9239" fill="none"/><path d="m124.6607 258.416v19.9239" fill="none"/><path d="m.5 397.8782h144.854" fill="none"/><path d="m21.1933 397.8782v19.9231" fill="none"/><path d="m62.5802 397.8782v19.9231" fill="none"/><path d="m103.9672 397.8782v19.9231" fill="none"/><path d="m.5 437.7243h144.854" fill="none"/><path d="m.5 457.6474h144.854" fill="none"/><path d="m1.3389 477.5704h144.0151" fill="none"/><path d="m3.6161 497.4935h141.7379" fill="none"/><path d="m21.1933 437.7243v19.9231" fill="none"/><path d="m62.5802 437.7243v19.9231" fill="none"/><path d="m103.9672 437.7243v19.9231" fill="none"/><path d="m41.8868 457.6474v19.9231" fill="none"/><path d="m83.2737 457.6474v19.9231" fill="none"/><path d="m124.6607 457.6474v19.9231" fill="none"/><path d="m21.1933 477.5704v19.9231" fill="none"/><path d="m62.5802 477.5704v19.9231" fill="none"/><path d="m103.9672 477.5704v19.9231" fill="none"/><path d="m41.8868 497.4935v19.9231" fill="none"/><path d="m83.2737 497.4935v19.9231" fill="none"/><path d="m124.6607 497.4935v19.9231" fill="none"/><path d="m41.8868 417.8012v19.9231" fill="none"/><path d="m83.2737 417.8012v19.9231" fill="none"/><path d="m124.6607 417.8012v19.9231" fill="none"/><path d="m.5 417.8012h144.854" fill="none"/></g><g fill="#c87137" fill-rule="evenodd"><path d="m105.5 411.4165h289v38.3516h-289z"/><path d="m78.8335 437.6456h342.333v38.3516h-342.333z"/><path d="m52.1665 463.8747h395.667v38.3516h-395.667z"/><path d="m25.5 490.1039h449v38.3516h-449z"/></g><path d="m7.625 516.333c17.1301 48.4441 63.3139 83.167 117.625 83.167h62.375c27.289 0 50.92 17.163 62.375 40 11.455-22.837 35.086-40 62.375-40h62.375c54.3111 0 100.4949-34.723 117.625-83.167z" fill="#e5e5e5"/><g fill="#e5e5e5"><path d="m321.5277 152.3264-71.5278-72.6736-71.5277 72.6736h-26.8069l98.3346-99.9098 98.3347 99.9099z"/><path d="m151.0233 105.3886c1.4869 0 2.684 1.2458 2.684 2.7932v20.111h-5.3679v-20.111c0-1.5474 1.1971-2.7932 2.6839-2.7932z"/><path d="m137.9391 136.4498 13.0843-9.822 13.0842 9.822v15.0219h-26.1685z"/><path d="m138.285 171.9237h25.4768l1.9794 231.9937h-29.4356z"/><path d="m127.8912 393.6914h46.2644v17.7251h-46.2644z"/><path d="m130.8938 160.3343h40.2591v17.7251h-40.2591z"/><path d="m348.9767 105.3886c-1.4869 0-2.684 1.2458-2.684 2.7932v20.111h5.3679v-20.111c0-1.5474-1.1971-2.7932-2.6839-2.7932z"/><path d="m362.0609 136.4498-13.0843-9.822-13.0842 9.822v15.0219h26.1684z"/><path d="m361.7151 171.9237h-25.4768l-1.9794 231.9937h29.4356z"/><path d="m372.1089 393.6914h-46.2644v17.7251h46.2644z"/><path d="m369.1062 160.3343h-40.2591v17.7251h40.2591z"/><path d="m120.5 148.0631h259v17.7251h-259z"/></g><g><path d="m309.5 411.4165v-38.9726c-9.9159-8.7117-19.6116-48.3113-19.6116-78.8021v-52.6776l9.6397-8.5654v-25.6964h-19.8116v12.8483h-19.8107v-12.8483h-19.8115v12.8483h-19.8108v-12.8483h-19.8115v25.6964l9.6397 8.5654v52.6776c0 30.4909-9.6958 70.0905-19.6117 78.8021v38.9726h48.0976l.0002-40.1919c0-6.22 5.0856-11.2275 11.4027-11.2275 6.3162 0 11.4019 5.0075 11.4019 11.2275l.0002 40.1919z" fill="#c87137" fill-rule="evenodd"/><path d="m200.4218 232.3988h99.157" fill="none"/><path d="m190.5 398.4255h40.615" fill="none"/><path d="m190.5 385.4347h40.615" fill="none"/><path d="m190.5 372.4439h40.615" fill="none"/><path d="m198.4392 359.2959h36.8416" fill="none"/><path d="m202.7995 346.148h94.4008" fill="none"/><path d="m240.0284 333-1.33 13.148" fill="none"/><path d="m205.9699 333h88.0601" fill="none"/><path d="m208.2032 319.852h83.5934" fill="none"/><path d="m209.6236 306.7041h80.7527" fill="none"/><path d="m210.1116 293.5562h79.7764" fill="none"/><path d="m210.1116 280.4082h79.7764" fill="none"/><path d="m210.1116 267.2602h79.7767" fill="none"/><path d="m210.1116 254.1122h79.7767" fill="none"/><path d="m269.9443 240.9642v13.148" fill="none"/><path d="m250.0003 240.9642v13.148" fill="none"/><path d="m230.0557 240.9642v13.148" fill="none"/><path d="m211.4416 319.852-1.33 13.148" fill="none"/><path d="m288.5583 319.852 1.33 13.148" fill="none"/><path d="m220.0836 333-1.9938 13.148" fill="none"/><path d="m259.9723 333 1.3292 13.148" fill="none"/><path d="m279.9162 333 1.9938 13.148" fill="none"/><path d="m230.0557 346.148-1.9938 13.148" fill="none"/><path d="m269.9443 346.148 1.9938 13.148" fill="none"/><path d="m210.1116 346.148-3.3237 13.148" fill="none"/><path d="m289.8883 346.148 3.3237 13.148" fill="none"/><path d="m217.4245 359.2959-3.9884 13.148" fill="none"/><path d="m282.5754 359.2959 3.3238 13.148" fill="none"/><path d="m222.7427 372.4439v12.9908" fill="none"/><path d="m210.1116 240.9642h79.7767" fill="none"/><path d="m268.8851 372.4439h40.6148" fill="none"/><path d="m268.8851 398.4255h40.6148" fill="none"/><path d="m268.8851 385.4347h40.6148" fill="none"/><path d="m279.9162 254.1122v13.1481" fill="none"/><path d="m259.9723 254.1122v13.1481" fill="none"/><path d="m220.0836 254.1122v13.1481" fill="none"/><path d="m240.0284 254.1122v13.1481" fill="none"/><path d="m250.0003 267.2602v13.148" fill="none"/><path d="m279.9162 280.4082v13.1481" fill="none"/><path d="m259.9723 280.4082v13.1481" fill="none"/><path d="m220.0836 280.4082v13.1481" fill="none"/><path d="m240.0284 280.4082v13.1481" fill="none"/><path d="m279.9162 306.7041v13.1479" fill="none"/><path d="m259.9723 306.7041v13.1479" fill="none"/><path d="m220.0836 306.7041v13.1479" fill="none"/><path d="m240.0284 306.7041v13.1479" fill="none"/><path d="m250.0003 293.5562v13.1479" fill="none"/><path d="m269.9443 319.852v13.148" fill="none"/><path d="m250.0003 319.852v13.148" fill="none"/><path d="m230.0557 319.852v13.148" fill="none"/><path d="m250.0003 346.148v6.167" fill="none"/><path d="m212.1062 385.4348v12.9908" fill="none"/><path d="m222.7427 398.4255v12.991" fill="none"/><path d="m201.4696 398.4255v12.991" fill="none"/><path d="m201.4696 372.4439v12.9908" fill="none"/><path d="m277.2571 372.4439v12.9908" fill="none"/><path d="m287.8937 385.4348v12.9908" fill="none"/><path d="m277.2571 398.4255v12.991" fill="none"/><path d="m298.5303 398.4255v12.991" fill="none"/><path d="m298.5303 372.4439v12.9908" fill="none"/><path d="m264.7184 359.2959h36.8423" fill="none"/><path d="m231.1149 411.4165v-40.1919c0-10.476 8.4231-18.9097 18.8855-18.9097 10.4616 0 18.8846 8.4337 18.8846 18.9097v40.1919" fill="none"/><path d="m231.1149 371.2248h7.4828" fill="none"/><path d="m261.4023 371.2248h7.4819" fill="none"/><path d="m259.2241 364.5138 6.0539-4.4039" fill="none"/><path d="m234.722 360.1099 6.0539 4.4039" fill="none"/><path d="m244.1647 353.2406 2.3121 7.1259" fill="none"/><path d="m253.5232 360.3664 2.313-7.1258" fill="none"/><path d="m231.1149 381.2726h7.4828" fill="none"/><path d="m231.1149 391.3205h7.4828" fill="none"/><path d="m231.1149 401.3685h7.4828" fill="none"/><path d="m261.4023 381.2726h7.4819" fill="none"/><path d="m261.4023 391.3205h7.4819" fill="none"/><path d="m261.4023 401.3685h7.4819" fill="none"/><path d="m230.0557 267.2602v13.148" fill="none"/><path d="m269.9443 267.2602v13.148" fill="none"/><path d="m230.0557 293.5561v13.148" fill="none"/><path d="m269.9443 293.5561v13.148" fill="none"/></g><g><path d="m75.9966 536.2146h16.4013v2.7389h-1.2567c-1.16.0001-1.8904.043-2.1911.1289-.4296.1289-.7572.3384-.9828.6283-.2256.29-.3383.6176-.3383.9828 0 .5801.2148 1.4178.6445 2.5134l11.9223 31.127 12.0512-31.127c.4296-1.0955.6444-1.9226.6445-2.4811 0-.6229-.2149-1.074-.6445-1.3533-.4297-.2792-1.3104-.4189-2.6423-.4189h-1.4822v-2.7389h13.9524v2.7389c-1.203-.0214-2.0891.086-2.6584.3222-.5693.2363-1.0365.5693-1.4017.9989-.4512.58-.956 1.5575-1.5145 2.9322l-15.2735 37.9582h-4.5756l-15.1124-37.9582c-.4941-1.2459-.8378-2.0192-1.0311-2.32-.3007-.4511-.6391-.8163-1.015-1.0956-.3759-.2792-.8217-.4887-1.3372-.6283-.5156-.1396-1.2352-.2094-2.1589-.2095z"/><path d="m132.5472 534.7646c1.0311.0001 1.9119.3599 2.6423 1.0795.7304.7197 1.0956 1.5951 1.0956 2.6261 0 1.0312-.3652 1.9119-1.0956 2.6422-.7304.7304-1.6111 1.0956-2.6423 1.0956-1.0311 0-1.9119-.3651-2.6423-1.0956-.7304-.7303-1.0956-1.6111-1.0956-2.6422s.3652-1.9065 1.0956-2.6261 1.6111-1.0794 2.6423-1.0795zm-8.2167 19.9458v-2.6745c1.783-.2148 3.2813-.5155 4.495-.9022 1.2137-.3866 2.5939-.9989 4.1406-1.8367h2.3522v25.8425c0 .9022.1289 1.5789.3867 2.03s.6176.7787 1.0795.9828c.4618.2041 1.305.3061 2.5295.3061h1.5145v2.7067h-16.4979v-2.7067h1.3211c1.4393 0 2.4059-.1289 2.9-.3867s.8432-.623 1.0472-1.0956c.2041-.4726.3061-1.5789.3061-3.3189v-18.9469z"/><path d="m144.0828 539.2435v-2.6423c2.9215-.2148 5.7678-1.117 8.539-2.7067h2.3845v39.6659c0 1.6756.1074 2.7282.3222 3.1578.2792.6015.6874 1.0419 1.2245 1.3211.537.2793 1.5682.4189 3.0934.4189h1.0311v2.7067h-16.5946v-2.7067h1.6756c1.0526 0 1.8421-.1611 2.3684-.4833s.9022-.7626 1.1278-1.3211.3383-1.6756.3383-3.3511v-34.0592z"/><path d="m187.4544 562.5082v-3.5123c0-2.3844-.666-4.0869-1.9978-5.1073-1.3319-1.0204-3.2115-1.5305-5.639-1.5306-1.203 0-2.2556.145-3.1578.435-.9023.29-1.6273.6875-2.175 1.1922-.5478.5048-.9506 1.0795-1.2083 1.7239-.1074.2363-.3652 1.1493-.7733 2.7389-.4941 1.9334-1.493 2.9-2.9967 2.9-.8593 0-1.5521-.2846-2.0784-.8539-.5263-.5692-.7895-1.3372-.7895-2.3039 0-1.4178.5263-2.8087 1.5789-4.1728s2.6584-2.4919 4.8173-3.3834 4.7099-1.3372 7.6529-1.3372c2.7496 0 5.1019.4243 7.0567 1.2728 1.9548.8486 3.3941 2.0676 4.3178 3.6573.6444 1.0956.9666 3.0934.9667 5.9934v12.4057c0 1.7615.0537 2.9108.1611 3.4478.2363.9237.6498 1.6165 1.2406 2.0784.5907.4619 1.3587.6928 2.3039.6928.9881 0 2.1696-.2363 3.5445-.7089v2.8034c-1.783.5156-3.3834.7733-4.8012.7733-1.5252 0-2.8088-.2148-3.8506-.6445-1.0419-.4296-1.8958-1.058-2.5617-1.885-.666-.827-1.0956-1.8098-1.2889-2.9484-2.5778 2.0193-4.9086 3.4371-6.9923 4.2534s-4.1889 1.2245-6.3156 1.2245c-2.9645 0-5.3704-.8056-7.2178-2.4167s-2.7712-3.5015-2.7711-5.6712c0-1.3104.3383-2.5563 1.015-3.7378s1.7078-2.2233 3.0934-3.1256c1.3856-.9022 3.5606-1.697 6.5251-2.3845 2.9645-.6874 7.0782-1.3104 12.3412-1.8689zm0 2.8034c-4.9838.7304-8.0664 1.2352-9.2479 1.5145-2.3415.5371-4.0171 1.1278-5.0267 1.7722-1.0097.6445-1.7293 1.3372-2.1589 2.0784-.4296.7411-.6445 1.5306-.6445 2.3684s.2417 1.6487.725 2.4328 1.1654 1.4017 2.0461 1.8528 1.8152.6767 2.8034.6767c1.3963 0 2.9752-.333 4.7367-.9989s4.0171-1.9656 6.7667-3.8989z"/><path d="m202.3734 550.0703h5.5101v-4.8334c0-3.3296 1.1009-6.0524 3.3028-8.1684 2.2019-2.1159 5.075-3.1739 8.6195-3.1739 2.363 0 4.205.4941 5.5262 1.4822 1.3211.9882 1.9817 2.0623 1.9817 3.2223 0 .7734-.2632 1.4232-.7895 1.9495s-1.1869.7895-1.9817.7895c-.7089 0-1.3212-.1289-1.8367-.3867-.5156-.2577-1.3104-.9022-2.3845-1.9334-1.1385-1.074-2.2234-1.6111-3.2545-1.6111-.7089.0001-1.348.2202-1.9172.6606-.5693.4404-1.0097 1.0849-1.3211 1.9334-.3115.8486-.4672 2.1536-.4672 3.915v6.1545h6.0578v3.2867h-6.0578v20.9124c0 1.4393.1074 2.4006.3222 2.8839s.537.8217.9667 1.015c.4296.1933 1.4285.29 2.9967.29h1.3211v2.7067h-16.5946v-2.7067h.9989c1.6971 0 2.7765-.1074 3.2384-.3222.4618-.2148.7948-.5639.9989-1.0472s.2954-1.5843.2739-3.3028v-20.4291h-5.5101z"/><path d="m223.6403 554.6781v-2.6423c1.5682-.1289 2.9645-.392 4.1889-.7895 1.2245-.3974 2.6208-1.0472 4.1889-1.9495h2.4167v6.0901c1.5252-1.8689 3.2974-3.3511 5.3167-4.4467 2.0193-1.0955 3.8345-1.6433 5.4456-1.6434 1.5896 0 2.8463.376 3.77 1.1278.9237.7519 1.3855 1.6649 1.3856 2.7389 0 .7734-.3061 1.4554-.9183 2.0461-.6123.5908-1.348.8862-2.2073.8861-.3867 0-.7197-.0537-.9989-.1611-.2793-.1074-.6874-.3437-1.2245-.7089-1.1815-.7733-2.1697-1.16-2.9645-1.16-1.0741 0-2.2556.4512-3.5445 1.3534-1.6326 1.16-2.9108 2.2986-3.8345 3.4156v14.8546c0 1.2889.0698 2.1643.2095 2.6261.1396.4619.3706.8593.6928 1.1922.3222.333.7196.5746 1.1922.725s1.2996.2256 2.4811.2256h1.0634v2.7067h-16.6591v-2.7067h1.3856c1.3104 0 2.1696-.1181 2.5778-.3545.5585-.3222.972-.768 1.2406-1.3372.2685-.5693.4028-1.595.4028-3.0773v-19.0113z"/><path d="m275.873 562.5082v-3.5123c0-2.3844-.666-4.0869-1.9978-5.1073-1.3319-1.0204-3.2115-1.5305-5.639-1.5306-1.203 0-2.2556.145-3.1578.435-.9023.29-1.6273.6875-2.175 1.1922-.5478.5048-.9506 1.0795-1.2083 1.7239-.1074.2363-.3652 1.1493-.7733 2.7389-.4941 1.9334-1.493 2.9-2.9967 2.9-.8593 0-1.5521-.2846-2.0784-.8539-.5263-.5692-.7895-1.3372-.7895-2.3039 0-1.4178.5263-2.8087 1.5789-4.1728s2.6584-2.4919 4.8173-3.3834 4.7099-1.3372 7.6529-1.3372c2.7496 0 5.1019.4243 7.0567 1.2728 1.9548.8486 3.3941 2.0676 4.3178 3.6573.6444 1.0956.9666 3.0934.9667 5.9934v12.4057c0 1.7615.0537 2.9108.1611 3.4478.2363.9237.6498 1.6165 1.2406 2.0784.5907.4619 1.3587.6928 2.3039.6928.9881 0 2.1696-.2363 3.5445-.7089v2.8034c-1.783.5156-3.3834.7733-4.8012.7733-1.5252 0-2.8088-.2148-3.8506-.6445-1.0419-.4296-1.8958-1.058-2.5617-1.885-.666-.827-1.0956-1.8098-1.2889-2.9484-2.5778 2.0193-4.9086 3.4371-6.9923 4.2534s-4.1889 1.2245-6.3156 1.2245c-2.9645 0-5.3704-.8056-7.2178-2.4167s-2.7711-3.5015-2.7711-5.6712c0-1.3104.3383-2.5563 1.015-3.7378s1.7078-2.2233 3.0934-3.1256c1.3856-.9022 3.5606-1.697 6.5251-2.3845 2.9645-.6874 7.0782-1.3104 12.3412-1.8689zm0 2.8034c-4.9838.7304-8.0664 1.2352-9.2479 1.5145-2.3415.5371-4.0171 1.1278-5.0267 1.7722-1.0097.6445-1.7293 1.3372-2.1589 2.0784-.4296.7411-.6445 1.5306-.6445 2.3684s.2417 1.6487.725 2.4328 1.1654 1.4017 2.0461 1.8528 1.8152.6767 2.8034.6767c1.3963 0 2.9752-.333 4.7367-.9989s4.0171-1.9656 6.7667-3.8989z"/><path d="m291.0176 554.7103v-2.7067c1.9119-.2148 3.3404-.4726 4.2856-.7733s2.3093-.9452 4.0923-1.9334h2.32v6.1223c2.8356-2.3844 5.2576-4.0009 7.2662-4.8495 2.0085-.8485 4.0439-1.2728 6.1062-1.2728 1.7615 0 3.3189.2954 4.6723.8861 1.3533.5908 2.4543 1.391 3.3028 2.4006.8485 1.0097 1.4124 2.1589 1.6917 3.4478.1718.7948.2578 1.9978.2578 3.6089v14.1779c0 1.6971.1235 2.7872.3706 3.2706.247.4833.6391.8324 1.1761 1.0472s1.8581.3222 3.9634.3222v2.7067h-16.5946v-2.7067h.9022c1.5467 0 2.5993-.1396 3.1578-.4189s.9613-.6874 1.2084-1.2245c.247-.537.3705-1.6326.3706-3.2867v-11.8579c0-2.4489-.1987-4.1459-.5961-5.0912-.3974-.9452-1.0741-1.7131-2.03-2.3039-.956-.5907-2.1643-.8861-3.625-.8861-1.74 0-3.5982.4458-5.5745 1.3372-1.9763.8915-3.8882 2.2073-5.7356 3.9473v14.8546c0 1.6756.1235 2.7926.3706 3.3512.247.5585.6498.9774 1.2084 1.2567.3867.2148 1.4178.3222 3.0934.3222h.9345v2.7067h-16.5946v-2.7067h.8056c1.5896 0 2.6745-.1343 3.2545-.4028s.9882-.7465 1.2245-1.4339c.1289-.3437.1933-1.5252.1933-3.5445v-18.3669z"/><path d="m363.035 572.175 2.0622 1.6756c-4.0386 5.3919-8.8827 8.0879-14.5324 8.0879-4.4038 0-8.1201-1.5682-11.149-4.7045s-4.5434-7.0353-4.5434-11.6968c0-3.1148.7035-5.9128 2.1106-8.394 1.407-2.4811 3.3619-4.4091 5.8645-5.784 2.5026-1.3748 5.3758-2.0622 8.6195-2.0622 3.6948 0 6.7775.9076 9.2479 2.7228s3.7056 3.6465 3.7056 5.4939c0 .9882-.29 1.7508-.87 2.2878-.58.5371-1.2352.8056-1.9656.8056-.3867 0-.7626-.0966-1.1278-.29-.3652-.1933-.7412-.5048-1.1278-.9345-.1719-.1933-.4834-.7948-.9345-1.8045-.58-1.2459-1.0311-2.0837-1.3533-2.5134-.666-.8592-1.4876-1.5359-2.465-2.03s-2.0676-.7411-3.2706-.7411c-1.826 0-3.5177.5049-5.0751 1.5145-1.5574 1.0097-2.7926 2.4973-3.7056 4.4628-.913 1.9656-1.3695 4.3125-1.3695 7.0406 0 4.2319 1.1278 7.5938 3.3834 10.0857 1.9548 2.1482 4.2856 3.2223 6.9923 3.2223 1.2459 0 2.508-.2095 3.7862-.6283 1.2781-.4189 2.4865-1.0365 3.625-1.8528.8378-.58 2.2018-1.9011 4.0923-3.9634z"/><path d="m392.003 562.5082v-3.5123c0-2.3844-.666-4.0869-1.9978-5.1073-1.3319-1.0204-3.2115-1.5305-5.6389-1.5306-1.203 0-2.2556.145-3.1578.435s-1.6273.6875-2.175 1.1922c-.5478.5048-.9506 1.0795-1.2084 1.7239-.1074.2363-.3652 1.1493-.7733 2.7389-.4941 1.9334-1.493 2.9-2.9967 2.9-.8593 0-1.5521-.2846-2.0784-.8539-.5263-.5692-.7895-1.3372-.7895-2.3039 0-1.4178.5263-2.8087 1.5789-4.1728s2.6584-2.4919 4.8173-3.3834 4.7098-1.3372 7.6529-1.3372c2.7496 0 5.1019.4243 7.0567 1.2728 1.9548.8486 3.3941 2.0676 4.3178 3.6573.6444 1.0956.9667 3.0934.9667 5.9934v12.4057c0 1.7615.0537 2.9108.1611 3.4478.2363.9237.6498 1.6165 1.2406 2.0784.5907.4619 1.3587.6928 2.3039.6928.9881 0 2.1696-.2363 3.5445-.7089v2.8034c-1.783.5156-3.3834.7733-4.8012.7733-1.5252 0-2.8088-.2148-3.8506-.6445-1.0419-.4296-1.8958-1.058-2.5617-1.885-.666-.827-1.0956-1.8098-1.2889-2.9484-2.5778 2.0193-4.9086 3.4371-6.9923 4.2534-2.0838.8163-4.189 1.2245-6.3156 1.2245-2.9645 0-5.3704-.8056-7.2179-2.4167-1.8474-1.6111-2.7711-3.5015-2.7711-5.6712 0-1.3104.3383-2.5563 1.015-3.7378s1.7078-2.2233 3.0934-3.1256c1.3856-.9022 3.5606-1.697 6.5251-2.3845 2.9645-.6874 7.0782-1.3104 12.3412-1.8689zm0 2.8034c-4.9838.7304-8.0664 1.2352-9.2479 1.5145-2.3415.5371-4.0171 1.1278-5.0267 1.7722-1.0097.6445-1.7293 1.3372-2.1589 2.0784-.4297.7411-.6445 1.5306-.6445 2.3684s.2417 1.6487.725 2.4328 1.1654 1.4017 2.0461 1.8528 1.8152.6767 2.8034.6767c1.3963 0 2.9752-.333 4.7367-.9989s4.0171-1.9656 6.7667-3.8989z"/></g></g><path d="m1.5 1.5v473.25c0 68.35 55.4 123.75 123.75 123.75h62.375c27.18 0 50.966 17.254 62.375 40 11.409-22.746 35.195-40 62.375-40h62.375c68.35 0 123.75-55.4 123.75-123.75v-473.25z" fill="none" stroke="#000" stroke-linecap="round" stroke-linejoin="round" stroke-width="3"/></svg>