<?xml version="1.0" encoding="utf-8"?><!DOCTYPE svg PUBLIC "-//W3C//DTD SVG 1.1//EN" "http://www.w3.org/Graphics/SVG/1.1/DTD/svg11.dtd"><svg viewBox="0 0 500 640" xmlns="http://www.w3.org/2000/svg"><g stroke="#000" stroke-linecap="round" stroke-linejoin="round"><path d="m.5.5v474.25c0 68.898 55.852 124.75 124.75 124.75h62.375c27.289 0 50.92 17.163 62.375 40 11.455-22.837 35.086-40 62.375-40h62.375c68.898 0 124.75-55.852 124.75-124.75v-474.25z" fill="#eac102"/><path d="m157.5928 530v-450h-36.9629v450z" fill="#ed1c24" fill-rule="evenodd"/><path d="m231.5186 530v-450h-36.9629v450z" fill="#ed1c24" fill-rule="evenodd"/><path d="m268.4815 530v-450h36.9629v450z" fill="#ed1c24" fill-rule="evenodd"/><path d="m342.4072 530v-450h36.9629v450z" fill="#ed1c24" fill-rule="evenodd"/><path d="m.5.5v474.25c0 68.898 55.852 124.75 124.75 124.75h62.375c27.289 0 50.92 17.163 62.375 40 11.455-22.837 35.086-40 62.375-40h62.375c68.898 0 124.75-55.852 124.75-124.75v-474.25zm83.167 83.167v370.291c0 34.45 27.925 62.375 62.375 62.375h62.375c18.193 0 33.948 10.778 41.583 26 7.635-15.222 23.39-26 41.583-26h62.375c34.45 0 62.375-27.925 62.375-62.375v-370.291z" fill="#0071bc" fill-rule="evenodd"/></g><g fill="#e3e4e5" stroke="#000" stroke-linecap="round" stroke-linejoin="round"><path d="m22.1789 42.0768-9.9501-17.2501 19.9003.0001 9.9498-17.25 9.9499 17.25h19.8998l-9.95 17.2498 9.9501 17.2501-19.8999.0001-9.9499 17.25-9.9498-17.25h-19.9004z"/><path d="m230.1002 578.9941-9.9501-17.2501 19.9003.0001 9.9498-17.25 9.9499 17.25h19.8998l-9.95 17.2498 9.9501 17.2501-19.8999.0001-9.9499 17.25-9.9498-17.25h-19.9004z"/><path d="m22.1789 335.0518-9.9501-17.2501 19.9003.0001 9.9498-17.25 9.9499 17.25h19.8998l-9.95 17.2498 9.9501 17.2501-19.8999.0001-9.9499 17.25-9.9498-17.25h-19.9004z"/><path d="m477.8211 42.0768 9.9501-17.2501-19.9003.0001-9.9498-17.25-9.9499 17.25h-19.8998l9.95 17.2498-9.9501 17.2501 19.8999.0001 9.9499 17.25 9.9498-17.25h19.9004z"/><path d="m477.8211 335.0518 9.9501-17.2501-19.9003.0001-9.9498-17.25-9.9499 17.25h-19.8998l9.95 17.2498-9.9501 17.2501 19.8999.0001 9.9499 17.25 9.9498-17.25h19.9004z"/></g><path d="m1.5 1.5v473.25c0 68.35 55.4 123.75 123.75 123.75h62.375c27.18 0 50.966 17.254 62.375 40 11.409-22.746 35.195-40 62.375-40h62.375c68.35 0 123.75-55.4 123.75-123.75v-473.25z" fill="none" stroke="#000" stroke-linecap="round" stroke-linejoin="round" stroke-width="3"/></svg>