<?xml version="1.0" encoding="utf-8"?><!DOCTYPE svg PUBLIC "-//W3C//DTD SVG 1.1//EN" "http://www.w3.org/Graphics/SVG/1.1/DTD/svg11.dtd"><svg viewBox="0 0 500 640" xmlns="http://www.w3.org/2000/svg"><g stroke="#000" stroke-linecap="round" stroke-linejoin="round" transform="translate(-70 -220)"><path d="m70.5 220.5v474.25c0 68.898 55.852 124.75 124.75 124.75h62.375c27.289 0 50.92 17.163 62.375 40 11.455-22.837 35.086-40 62.375-40h62.375c68.898 0 124.75-55.852 124.75-124.75v-474.25z" fill="#eac102"/><path d="m514.056 510v288.4688c-16.1972 10.8445-35.0898 17.9958-55.445 20.25v-308.7188z" fill="#ed1c24" fill-rule="evenodd"/><path d="m403.167 510v309.5h-20.792c-12.6144 0-24.4432 3.6752-34.653 9.875v-319.375z" fill="#ed1c24" fill-rule="evenodd"/><path d="m236.833 510v309.5h20.792c12.6144 0 24.4432 3.6752 34.653 9.875v-319.375z" fill="#ed1c24" fill-rule="evenodd"/><path d="m125.944 510v288.4688c16.1972 10.8445 35.0898 17.9958 55.445 20.25v-308.7188z" fill="#ed1c24" fill-rule="evenodd"/><path d="m70.5 220.5v299.5h499v-299.5z" fill="#e5e5e5"/></g><g stroke="#000" stroke-linecap="round" stroke-linejoin="round" transform="translate(-70 -220)"><path d="m294.9663 428.666c20.8732-16.2349 36.3013-26.2109 56.8832-30.9756 13.55-3.1368 11.3047-47.2533 54.142-56.2068 24.93-17.6327 56.0454-39.3976 95.2371-42.0224 24.1024-24.0529 53.795-18.4267 68.2714-18.309v238.8478h-499v-208.5361c.3779-6.6351 17.8898-15.5946 36.4825-14.9907 22.606.7343 71.162 50.8894 78.4585 74.9486 29.4726 6.1151 73.104 24.9326 96.3664 55.7061 4.5251.4115 8.6338.6973 13.1589 1.5381z" fill="#008f4c"/><path d="m296.6912 470.6553c17.0982 21.0869 41.1103 28.7503 52.8996 43.7792" fill="none"/><path d="m106.313 373.2441c20.2755 22.4975 70.6444 45.9076 91.2061 67.4926" fill="none"/><path d="m144.4473 449.9669c.8074 15.4518 55.7298 31.3992 59.2621 44.6858" fill="none"/><path d="m232.8469 476.221c19.8748 14.593 32.4103 29.186 40.1307 43.779" fill="none"/><path d="m70.5 440.1157c31.3781 26.7427 37.842 46.011 45.6031 65.6685" fill="none"/><path d="m410.7041 481.1279c31.8397-32.0133 73.0239-33.8912 82.0855-16.417" fill="none"/><path d="m569.5 311.9565c-9.1206 5.4724-34.6583 52.8996-34.6583 52.8996" fill="none"/><path d="m554.3417 457.4101c-19.2266-2.4531-30.0164 9.1553-34.6583 31.01" fill="none"/><path d="m530.1788 299.1877c-42.1155 15.2884-33.5828 52.2671-74.789 54.7238" fill="none"/><path d="m353.4128 453.4816c23.7262-14.5893 33.9506-29.6319 49.5121-46.6705" fill="none"/><path d="m510.0926 380.358c-34.7178 19.0708-51.0024 36.8248-69.3167 54.7238" fill="none"/><path d="m294.9663 428.666c11.4715 2.0294 29.6205 5.1181 48.8467 17.5897 22.1431 14.3636 36.3551 31.7386 53.1925 56.7952" fill="none"/><path d="m185.4409 371.4218c-11.152-1.6123-23.2518-3.023-32.2403-6.2928" fill="none"/><path d="m281.8073 427.1279c5.3666 7.1412 10.5237 19.3523 12.9202 30.5971" fill="none"/><path d="m405.9915 341.4836c-8.255 5.71-13.5401 11.0485-19.504 16.472" fill="none"/><path d="m501.2286 299.4613c-4.2247 3.7329-8.477 7.4776-9.7654 9.9522" fill="none"/></g><path d="m1.5 1.5v473.25c0 68.35 55.4 123.75 123.75 123.75h62.375c27.18 0 50.966 17.254 62.375 40 11.409-22.746 35.195-40 62.375-40h62.375c68.35 0 123.75-55.4 123.75-123.75v-473.25z" fill="none" stroke="#000" stroke-linecap="round" stroke-linejoin="round" stroke-width="3"/></svg>