<?xml version="1.0" encoding="utf-8"?><!DOCTYPE svg PUBLIC "-//W3C//DTD SVG 1.1//EN" "http://www.w3.org/Graphics/SVG/1.1/DTD/svg11.dtd"><svg viewBox="0 0 500 640" xmlns="http://www.w3.org/2000/svg"><g><g stroke="#000" stroke-linecap="round" stroke-linejoin="round"><path d="m.5.5v474.25c0 68.898 55.852 124.75 124.75 124.75h62.375c27.289 0 50.92 17.163 62.375 40 11.455-22.837 35.086-40 62.375-40h62.375c68.898 0 124.75-55.852 124.75-124.75v-474.25z" fill="#eac102"/><path d="m7.625 516.333c17.1301 48.4441 63.3139 83.167 117.625 83.167h62.375c27.289 0 50.92 17.163 62.375 40 11.455-22.837 35.086-40 62.375-40h62.375c54.3111 0 100.4949-34.723 117.625-83.167z" fill="#0071bc"/></g></g><g><g><path d="m197.8388 106.3596c-5.5759-5.7192-7.0024 5.4345-17.2731-5.8596-.4778 2.7939 2.0469 4.8516 4.4178 6.7261-8.3658-.1542-16.1968-4.2855-20.1569-6.7261-1.6449 3.0612 1.7545 10.0195 16.534 15.5927-8.1464 8.0928-33.6049-10.2436-38.0744-10.429-.6975 4.3684 4.6628 17.4844 34.3947 25.5187-5.6409-.4234-15.579-2.1322-21.062-4.5054 3.501 3.5556 10.1473 6.1504 16.7407 6.8456-20.419 2.2699-40.657-12.1813-47.8596-13.3006 2.1569 14.6509 19.1565 25.4519 54.6598 26.3469-15.7926.2115-26.0682-.9054-36.8315-3.3741.286.924 4.7336 5.165 25.7535 7.5031-15.7076 3.0875-32.6537 2.7406-43.5818-1.2839 0 9.6068 21.6052 26.8757 63.6882 8.933-15.2498 8.7387-33.3554 12.8212-47.4637 13.6329-.1409 5.8287 25.9631.7187 38.6064-2.8849-24.5301 16.1835-44.7733 17.6136-54.8309 17.6427.6154 4.1912 13.938 20.171 59.3855-3.7336-10.3033 9.7833-20.84 16.3772-29.7218 18.8203 7.7699 6.7049 29.2724-10.9332 35.5972-17.0407-12.7697 18.1981-36.6355 33.7221-43.0691 34.6293 1.6873 2.617 4.2963 5.275 8.8594 5.275 7.4219 0 19.4732-6.2426 40.7867-29.142-3.5706 6.8837-12.322 20.3949-19.3307 26.7832 5.6105 3.1611 18.6341-15.1259 24.1049-25.9479-.4495 6.6668-7.1402 22.944-11.3706 27.9052.5872.2567 1.2065.4015 1.8509.4015 7.0248 0 16.961-13.6565 19.5436-34.217.8117 4.5997-3.0569 23.9725-3.9697 25.8653 3.6294-.2749 7.0548-20.2789 7.7883-25.5323 1.285 5.2654-.5711 20.5442-2.3973 24.2293 4.8729.1051 10.6993-9.2763 11.6959-36.2243l11.9538-10.7917v-15.7647c-28.6812-13.8483-22.1322 3.268-33.8178 1.0105-8.3277-1.6088-14.7592-16.9894-9.4045-26.2724.034 1.8682.016 8.6253 4.0555 10.63-5.4008-24.29 7.0849-23.7873-.2014-31.261z" stroke="#000" stroke-linecap="round" stroke-linejoin="round"/><path d="m189.2112 115.1289c-18.1518 35.8084 10.999 55.487 29.0022 46.3752" fill="none" stroke="#eac102" stroke-linecap="round" stroke-linejoin="round"/><path d="m159.5731 118.3369c3.8938 2.8833 13.2394 6.1277 25.302 7.7311" fill="none" stroke="#eac102" stroke-linecap="round" stroke-linejoin="round"/><path d="m142.7207 133.2579c3.8936 3.7183 27.5639 8.7844 40.8517 6.8817" fill="none" stroke="#eac102" stroke-linecap="round" stroke-linejoin="round"/><path d="m146.6939 158.6154c8.8015 2.0457 33.9531-2.3607 40.7628-6.9406" fill="none" stroke="#eac102" stroke-linecap="round" stroke-linejoin="round"/><path d="m153.4157 188.5418c12.0148-2.4694 32.7806-13.8296 40.0504-19.9296" fill="none" stroke="#eac102" stroke-linecap="round" stroke-linejoin="round"/><path d="m191.2154 161.9992c3.5455 17.5428 21.7154 20.2845 30.2805 8.8767" fill="none" stroke="#eac102" stroke-linecap="round" stroke-linejoin="round"/><path d="m175.2392 208.312c10.6966-6.4973 23.7917-24.0376 26.3074-32.0024" fill="none" stroke="#eac102" stroke-linecap="round" stroke-linejoin="round"/><path d="m203.2819 207.0954c3.4329-7.9138 5.4901-22.1614 5.745-29.3648" fill="none" stroke="#eac102" stroke-linecap="round" stroke-linejoin="round"/><path d="m219.1038 201.6813c1.3991-7.6989 3.3341-25.7477 2.3921-31.803" fill="none" stroke="#eac102" stroke-linecap="round" stroke-linejoin="round"/><path d="m302.1616 106.3596c5.5758-5.7192 7.0024 5.4345 17.2729-5.8596.4778 2.7939-2.0468 4.8516-4.4176 6.7261 8.3657-.1542 16.1966-4.2855 20.1566-6.7261 1.6451 3.0612-1.7544 10.0195-16.5337 15.5927 8.146 8.0928 33.6047-10.2436 38.0741-10.429.6974 4.3684-4.6627 17.4844-34.3947 25.5187 5.641-.4234 15.5793-2.1322 21.062-4.5054-3.501 3.5556-10.1472 6.1504-16.7405 6.8456 20.419 2.2699 40.6569-12.1813 47.8593-13.3006-2.1568 14.6509-19.1563 25.4519-54.6597 26.3469 15.7928.2115 26.0682-.9054 36.8317-3.3741-.286.924-4.7337 5.165-25.7535 7.5031 15.7075 3.0875 32.6535 2.7406 43.5815-1.2839 0 9.6068-21.605 26.8757-63.688 8.933 15.2497 8.7387 33.3553 12.8212 47.4637 13.6329.1409 5.8287-25.9633.7187-38.6065-2.8849 24.5301 16.1835 44.7732 17.6136 54.8308 17.6427-.6153 4.1912-13.9376 20.171-59.3854-3.7336 10.3035 9.7833 20.8399 16.3772 29.722 18.8203-7.7701 6.7049-29.2724-10.9332-35.5973-17.0407 12.7695 18.1981 36.6353 33.7221 43.0691 34.6293-1.6873 2.617-4.2964 5.275-8.8594 5.275-7.422 0-19.4731-6.2426-40.7868-29.142 3.5707 6.8837 12.322 20.3949 19.3307 26.7832-5.6105 3.1611-18.634-15.1259-24.1049-25.9479.4496 6.6668 7.1402 22.944 11.3706 27.9052-.5871.2567-1.2064.4015-1.8508.4015-7.0248 0-16.9611-13.6565-19.5436-34.217-.8117 4.5997 3.0568 23.9725 3.9696 25.8653-3.6295-.2749-7.0548-20.2789-7.7882-25.5323-1.2851 5.2654.5711 20.5442 2.3973 24.2293-4.8729.1051-10.6994-9.2763-11.696-36.2243l-11.9536-10.7917v-15.7647c28.6809-13.8483 22.132 3.268 33.8176 1.0105 8.3277-1.6088 14.7592-16.9894 9.4047-26.2724-.034 1.8682-.015 8.6253-4.0557 10.63 5.4008-24.29-7.0848-23.7873.2015-31.261z" stroke="#000" stroke-linecap="round" stroke-linejoin="round"/><path d="m310.7891 115.1289c18.1519 35.8084-10.999 55.487-29.0022 46.3752" fill="none" stroke="#eac102" stroke-linecap="round" stroke-linejoin="round"/><path d="m340.4271 118.3369c-3.8936 2.8833-13.2393 6.1277-25.302 7.7311" fill="none" stroke="#eac102" stroke-linecap="round" stroke-linejoin="round"/><path d="m357.2797 133.2579c-3.8937 3.7183-27.5641 8.7844-40.8518 6.8817" fill="none" stroke="#eac102" stroke-linecap="round" stroke-linejoin="round"/><path d="m353.3063 158.6154c-8.8013 2.0457-33.953-2.3607-40.7627-6.9406" fill="none" stroke="#eac102" stroke-linecap="round" stroke-linejoin="round"/><path d="m346.5846 188.5418c-12.0147-2.4694-32.7808-13.8296-40.0505-19.9296" fill="none" stroke="#eac102" stroke-linecap="round" stroke-linejoin="round"/><path d="m308.785 161.9992c-3.5456 17.5428-21.7156 20.2845-30.2807 8.8767" fill="none" stroke="#eac102" stroke-linecap="round" stroke-linejoin="round"/><path d="m324.761 208.312c-10.6966-6.4973-23.7917-24.0376-26.3073-32.0024" fill="none" stroke="#eac102" stroke-linecap="round" stroke-linejoin="round"/><path d="m296.7182 207.0954c-3.4327-7.9138-5.49-22.1614-5.745-29.3648" fill="none" stroke="#eac102" stroke-linecap="round" stroke-linejoin="round"/><path d="m280.8966 201.6813c-1.3993-7.6989-3.3341-25.7477-2.3923-31.803" fill="none" stroke="#eac102" stroke-linecap="round" stroke-linejoin="round"/><path d="m285.7989 107.2107c.1948 1.0317.1739 2.7319-2.5169 3.5888-2.5378.8083-4.5187-.1001-9.5358.1775-3.4984.1959-5.89 1.4945-7.7295 2.6104l.7223 2.454c1.3151-1.1066 3.6928-2.8468 7.0695-3.0722 4.0863-.2727 7.1947.2514 9.9246-.6449 3.9169-1.2864 3.4469-4.6262 2.0658-5.1134z" fill-rule="evenodd"/><path d="m214.2014 107.2107c-.195 1.0317-.1741 2.7319 2.5169 3.5888 2.5376.8083 4.5181-.1001 9.5358.1775 3.4984.1959 5.8895 1.4945 7.7292 2.6104l-.7222 2.454c-1.3149-1.1066-3.6929-2.8468-7.0697-3.0722-4.0862-.2727-7.1945.2514-9.9243-.6449-3.9172-1.2864-3.447-4.6262-2.0657-5.1134z" fill-rule="evenodd"/><path d="m266.0021 141.3126c-2.0614-1.9648-1.5099-2.5552-1.1912-4.186.3832-1.9625.2674-3.7139-.7625-4.7545 1.1165.893 2.0761.9212 3.2363-.4585-.7592.0976-2.4387-1.4646-2.531-1.819 1.2372-.3695-.531-1.6789-.7847-2.5934 1.2158-1.3125 1.1939-2.458.766-3.147 1.4098.6928 2.1997.5283 2.8924-1.5016-3.3967.6449-1.7433-4.1777 1.4335-5.5778l-1.4821-3.5655 6.7441-5.8383 1.6079-4.3606c-1.7114-2.0428-2.9112-3.0104-5.0682-3.0104-3.5751 0-8.1508 2.1053-12.1395 0 .2378.8632.7308 1.6861 1.7621 2.1809-2.4591 1.8488-4.6951 4.6453-5.7135 7.3051.5068-.329 1.5173-.9066 2.3326-.9377-.5878 1.5543-2.1996 3.0153-2.2701 4.6486-.6876.5314-2.1541 1.6637-2.3049 2.5995.6319-.3093 1.1391-.3825 1.7747-.3648-.5599 2.0053-2.45 3.5858-2.8525 5.537.7788-.1809 1.6629.0238 1.8822.4297-.6289.7914-2.6535 2.7138-2.8723 3.5062.7758-.1064.7073-.1051 1.2429.1076-.2663.762-.9651 1.8926-1.7045 2.9476-.7397-1.055-1.4382-2.1856-1.7046-2.9476.5354-.2125.4671-.2139 1.2429-.1076-.219-.7924-2.2433-2.7148-2.8724-3.5062.2193-.4059 1.1037-.6105 1.8826-.4297-.4031-1.9512-2.2929-3.5317-2.8529-5.537.6356-.0175 1.1429.0551 1.7746.3648-.1504-.9358-1.6172-2.0681-2.3046-2.5995-.07-1.6333-1.6823-3.0943-2.2704-4.6486.8156.0313 1.8259.6086 2.3329.9377-1.0188-2.6597-3.2547-5.4562-5.7136-7.3051 1.0311-.4948 1.5241-1.3177 1.7621-2.1809-3.9887 2.1053-8.5645 0-12.1394 0-2.1572 0-3.3569.9676-5.0681 3.0104l1.6076 4.3606 6.8696 5.8383-1.6077 3.5655c3.1771 1.4 4.8302 6.2227 1.4337 5.5778.6927 2.0299 1.4829 2.1944 2.8925 1.5016-.4282.689-.4501 1.8344.766 3.147-.254.9145-1.0247 2.2239.2126 2.5934-.093.3545-1.7721 1.9164-2.5309 1.819 1.1602 1.3796 2.1191 1.3514 3.2358.4585-1.0297 1.0406-2.1429 2.792-1.7596 4.7545.3186 1.6308.8702 2.2212-1.1913 4.186 2.2479.3217 2.9814.015 3.8732-1.5496-.9397 6.4813-12.88 6.8133-12.88 24.6143 0 7.9117 3.0102 16.7651 5.7851 24.9685 4.0851 12.0747 6.0564 24.9311 7.2015 33.5622.9822 7.4041 8.1254 9.5846 12.0226 14.2488 3.8969-4.6642 11.041-6.8447 12.0229-14.2488 1.145-8.6311 3.1149-21.4875 7.1999-33.5622 2.7754-8.2034 5.7859-17.0568 5.7859-24.9685 0-17.801-11.9406-18.133-12.8798-24.6143.8916 1.5608 1.6251 1.8712 3.8729 1.5496z" stroke="#000" stroke-linecap="round" stroke-linejoin="round"/><path d="m249.6757 143.9535c-.7824.789-1.1633 1.9607-1.1676 3.4918-1.9432-2.459-1.6706-4.4831-.1414-6.2606" fill="none" stroke="#eac102" stroke-linecap="round" stroke-linejoin="round"/><path d="m238.3465 168.9173c-1.5991 1.0006-2.998 2.1761-2.8106 4.7395.6579-1.0855 1.4209-.9755 2.515-1.5288-1.8211 1.9527-1.644 4.4685-1.4793 6.4213.641-.8682 1.282-.8044 1.9228-1.3761-.6436 2.4332.2964 4.2147 1.6272 5.1983" fill="none" stroke="#eac102" stroke-linecap="round" stroke-linejoin="round"/><path d="m233.2363 170.3902c-2.5057 1.2294-2.4626 3.8391-1.621 5.4054" fill="none" stroke="#eac102" stroke-linecap="round" stroke-linejoin="round"/><path d="m243.0896 147.7823c-2.8258 1.5038-3.9373 4.3704-3.1376 8.7569.8407-1.2593 1.8233-2.4451 3.7654-3.1352" fill="none" stroke="#eac102" stroke-linecap="round" stroke-linejoin="round"/><path d="m246.2274 155.8965c-.4979 2.8057 1.4887 5.2289 3.7728 7.4594 2.2836-2.2304 4.271-4.6537 3.7729-7.4594" fill="none" stroke="#eac102" stroke-linecap="round" stroke-linejoin="round"/><path d="m235.229 185.676c-1.0189.6334-1.9102 1.3776-1.7908 3.0001.3596-.2713.744-.7432 1.6021-.9676-1.3187 1.3548-.8489 2.7098-.9423 4.0647.4082-.5496.8165-.6675 1.2249-.8711-.1842 1.4757.2692 2.6402 1.0366 3.2905" fill="none" stroke="#eac102" stroke-linecap="round" stroke-linejoin="round"/><path d="m243.3596 187.2887c-2.8261 1.5039-3.9374 4.3705-3.1376 8.7568.8408-1.2592 1.8234-2.4448 3.7653-3.1351-2.4923 2.8067-1.9275 5.3701-.8368 7.8919" fill="none" stroke="#eac102" stroke-linecap="round" stroke-linejoin="round"/><path d="m246.4975 196.5869c-.4983 2.8058 1.2188 5.2288 3.5029 7.4595 2.2837-2.2307 4.0008-4.6537 3.5027-7.4595" fill="none" stroke="#eac102" stroke-linecap="round" stroke-linejoin="round"/><path d="m246.4975 173.5154c-.4983 2.8059 1.2188 5.229 3.5029 7.4596 2.2837-2.2307 4.0008-4.6537 3.5027-7.4596" fill="none" stroke="#eac102" stroke-linecap="round" stroke-linejoin="round"/><path d="m242.982 163.0712c-1.1421.4966-1.8883 1.414-1.7306 3.2919" fill="none" stroke="#eac102" stroke-linecap="round" stroke-linejoin="round"/><path d="m243.8157 167.5629c-2.0853 2.463-1.0515 4.6116.04 5.659" fill="none" stroke="#eac102" stroke-linecap="round" stroke-linejoin="round"/><path d="m244.6897 207.1014c-.8306 3.7328 3.2682 7.6235 3.6757 11.0633" fill="none" stroke="#eac102" stroke-linecap="round" stroke-linejoin="round"/><path d="m226.7497 173.4461c.1126 3.0666-1.6195 5.3624-3.7842 7.1651 1.9781.404 3.4907.5177 4.3096-.458.5415-.6453.7778-1.7089.9123-3.2127-.132 1.5083-.3694 2.5641-.9123 3.2127-1.9368 2.3137-1.2879 4.2101-1.1942 6.0615.752-.5942 1.3261-1.3173 2.3866-1.6881-.8746 2.0761-1.5494 4.3089-.2057 8.1182.4661-1.0278 1.0129-2.3329 1.7554-3.1018-1.012 3.4358-.1646 6.1902 1.2888 8.7223-.029-1.6349 2.2376-3.2762 1.4765-5.9002" fill-rule="evenodd" stroke="#eac102" stroke-linecap="round" stroke-linejoin="round"/><path d="m246.4193 221.7971c-1.2223 2.1789 3.5811 5.5333 3.5811 7.432 0-1.8986 4.8035-5.2531 3.5811-7.432" fill="none" stroke="#eac102" stroke-linecap="round" stroke-linejoin="round"/><path d="m236.5748 150.2224c-1.8566.3273-3.5925.8921-4.3754 3.3393 1.015-.7595 1.6815-.371 2.9026-.4734-2.4176 1.1271-3.1929 3.5261-3.7689 5.3988.9185-.5642 1.4888-.2645 2.2968-.5538-1.5056 2.0144-1.2986 4.0192-.432 5.431" fill="none" stroke="#eac102" stroke-linecap="round" stroke-linejoin="round"/><path d="m261.654 168.9173c1.5994 1.0006 2.9981 2.1761 2.8105 4.7395-.6577-1.0855-1.4207-.9755-2.5148-1.5288 1.8209 1.9527 1.6441 4.4685 1.4792 6.4213-.6409-.8682-1.2819-.8044-1.923-1.3761.644 2.4332-.296 4.2147-1.6269 5.1983" fill="none" stroke="#eac102" stroke-linecap="round" stroke-linejoin="round"/><path d="m266.764 170.3902c2.5059 1.2294 2.4627 3.8391 1.6214 5.4054" fill="none" stroke="#eac102" stroke-linecap="round" stroke-linejoin="round"/><path d="m256.9109 147.7823c2.8259 1.5038 3.9373 4.3704 3.1377 8.7569-.8405-1.2593-1.8235-2.4451-3.7655-3.1352" fill="none" stroke="#eac102" stroke-linecap="round" stroke-linejoin="round"/><path d="m264.7719 185.676c1.0188.6334 1.9098 1.3776 1.7903 3.0001-.3592-.2713-.7436-.7432-1.6019-.9676 1.3189 1.3548.8489 2.7098.9422 4.0647-.4081-.5496-.8167-.6675-1.225-.8711.1845 1.4757-.269 2.6402-1.0364 3.2905" fill="none" stroke="#eac102" stroke-linecap="round" stroke-linejoin="round"/><path d="m256.6408 187.2887c2.8259 1.5039 3.9376 4.3705 3.1379 8.7568-.841-1.2592-1.8237-2.4448-3.7655-3.1351 2.4924 2.8067 1.9273 5.3701.8367 7.8919" fill="none" stroke="#eac102" stroke-linecap="round" stroke-linejoin="round"/><path d="m257.0185 163.0712c1.142.4966 1.8882 1.414 1.7307 3.2919" fill="none" stroke="#eac102" stroke-linecap="round" stroke-linejoin="round"/><path d="m256.1851 167.5629c2.085 2.463 1.0515 4.6116-.043 5.659" fill="none" stroke="#eac102" stroke-linecap="round" stroke-linejoin="round"/><path d="m255.311 207.1014c.8306 3.7328-3.2683 7.6235-3.6759 11.0633" fill="none" stroke="#eac102" stroke-linecap="round" stroke-linejoin="round"/><path d="m263.4258 150.2224c1.8565.3273 3.5925.8921 4.3753 3.3393-1.0151-.7595-1.6815-.371-2.9026-.4734 2.4177 1.1271 3.1927 3.5261 3.7689 5.3988-.9185-.5642-1.4888-.2645-2.2969-.5538 1.5056 2.0144 1.2992 4.0192.4321 5.431" fill="none" stroke="#eac102" stroke-linecap="round" stroke-linejoin="round"/><path d="m273.2512 173.4461c-.1139 3.0666 1.6191 5.3624 3.7836 7.1651-1.9778.404-3.4903.5177-4.3094-.458-.5416-.6453-.7777-1.7089-.9124-3.2127.1322 1.5083.3695 2.5641.9124 3.2127 1.9371 2.3137 1.2879 4.2101 1.1941 6.0615-.7517-.5942-1.3258-1.3173-2.3867-1.6881.8751 2.0761 1.5496 4.3089.2057 8.1182-.4661-1.0278-1.0128-2.3329-1.7551-3.1018 1.012 3.4358.1645 6.1902-1.2888 8.7223.029-1.6349-2.2378-3.2762-1.4764-5.9002" fill-rule="evenodd" stroke="#eac102" stroke-linecap="round" stroke-linejoin="round"/><path d="m224.0693 103.5104c-2.9446.2702-8.7656 3.6368-4.7701 6.8343 1.0183-3.6149 4.2086-2.2006 6.0017-.4536 1.2487 1.217 5.5632 3.2751 7.2452 3.8182 0-3.8082-4.2577-3.4745-8.4768-10.1989z" fill-rule="evenodd" stroke="#000" stroke-linecap="round" stroke-linejoin="round"/><path d="m238.3556 114.3837c.5541.4769.889.9842 1.0053 1.5219.4978-.8167.5658-1.7213.1953-2.673" fill="none" stroke="#eac102" stroke-linecap="round" stroke-linejoin="round"/><path d="m243.309 116.7467c.2715 1.1383.098 2.3262-.4689 3.4915-.1782-.966-.6307-1.7978-1.3731-2.5238" fill="none" stroke="#eac102" stroke-linecap="round" stroke-linejoin="round"/><path d="m222.3052 106.7367c.3086-.1703.8055-.2807 1.2051-.1051.4392.1927.1793.6382-.1615.3371-.2633-.2323-.6676-.179-1.0436-.2317z" stroke="#eac102" stroke-linecap="round" stroke-linejoin="round"/><path d="m278.1774 113.6741c.2842 5.9695-6.1714 2.5113-9.1165 3.6008-.5718-.9895-1.6068-2.1439-1.6068-3.5651 3.8207-1.1149 4.9292 3.4826 10.7233-.0363z" fill-rule="evenodd" stroke="#000" stroke-linecap="round" stroke-linejoin="round"/><path d="m275.9311 103.5104c2.9443.2702 8.7657 3.6368 4.77 6.8343-1.0184-3.6149-4.2089-2.2006-6.0016-.4536-1.2489 1.217-5.5639 3.2755-7.2458 3.8186 0-3.8082 4.2582-3.4749 8.4774-10.1993z" fill-rule="evenodd" stroke="#000" stroke-linecap="round" stroke-linejoin="round"/><path d="m268.8121 110.7298c-3.2325.2971-3.7946 3.3521-3.5432 5.9699" fill="none" stroke="#eac102" stroke-linecap="round" stroke-linejoin="round"/><path d="m261.6444 114.3837c-.554.4769-.8889.9842-1.0052 1.5219-.4976-.8167-.5655-1.7213-.195-2.673" fill="none" stroke="#eac102" stroke-linecap="round" stroke-linejoin="round"/><path d="m256.6911 116.7467c-.2713 1.1383-.098 2.3262.4691 3.4915.1782-.966.6308-1.7978 1.3732-2.5238" fill="none" stroke="#eac102" stroke-linecap="round" stroke-linejoin="round"/><path d="m263.8727 105.5455c-.8791 1.3882-1.5152 3.5593.558 3.7806" fill="none" stroke="#eac102" stroke-linecap="round" stroke-linejoin="round"/><path d="m272.2914 104.5909c-1.2158-.2733-3.3651.9811-4.857.357.4863.9293.8544 2.4199 3.3574 2.1009 1.4104-.1799 2.0829-1.4474 1.4996-2.4578z" fill="#eac102" fill-rule="evenodd" stroke="#eac102" stroke-linecap="round" stroke-linejoin="round"/><path d="m272.2914 104.5909c.3167.0738.6264.1958.8678.3013" fill="none" stroke="#eac102" stroke-linecap="round" stroke-linejoin="round"/><path d="m270.9895 104.8037c.3537-.015.6448.4146.6499.9438 0 .5292-.2774.9647-.6312.9726-.3539.015-.6451-.4147-.6502-.9438 0-.5293.2775-.9647.6315-.9726z" fill-rule="evenodd" stroke="#000" stroke-linecap="round" stroke-linejoin="round"/><path d="m277.695 106.7367c-.3084-.1703-.8054-.2807-1.2052-.1051-.4391.1927-.1792.6382.1616.3371.2632-.2323.6676-.179 1.0436-.2317z" stroke="#eac102" stroke-linecap="round" stroke-linejoin="round"/><path d="m262.6418 125.51c-.4974 1.2491-.8321 3.0044-2.0943 2.7636-.3829 1.1675-.2071 2.2033.044 3.1395-.7004-.5068-2.012-.8965-2.3183-1.9928-.2668-.9543.658-1.8812.8412-2.7164" fill="none" stroke="#eac102" stroke-linecap="round" stroke-linejoin="round"/><path d="m261.9447 121.4281c-.363.2563-.5742.5956-.6348 1.0182-.6617-.6031-.965-1.2735-.9389-2.0024" fill="none" stroke="#eac102" stroke-linecap="round" stroke-linejoin="round"/><path d="m255.9575 122.7116c-.3902.9217-1.8472 2.8839-.1769 5.1993.1921-.9327.63-2.0853 1.7993-2.9128" fill="none" stroke="#eac102" stroke-linecap="round" stroke-linejoin="round"/><path d="m260.318 133.7755c.1845.7733 1.0647 2.5088-.5374 4.076-.098-.5533.1429-.7073-1.0235-2.5242" fill="none" stroke="#eac102" stroke-linecap="round" stroke-linejoin="round"/><path d="m254.9919 135.3824c1.5392 1.2689 2.1817 2.6595 1.9725 4.1934-.4486-.5209-.9857-.7817-1.6717-.7274.8525 1.0199 1.1627 2.0069.9516 2.9341" fill="none" stroke="#eac102" stroke-linecap="round" stroke-linejoin="round"/><path d="m249.4261 122.7247c1.1503 1.1127.021 3.6632 1.7458 5.7298-.9785.792-.9952 1.4155-2.0599 1.7657.553 1.7015.7703 3.2572 1.7911 4.747-.6108.0914-1.0625.1239-1.7015-.0451.5585 1.6958 1.1768 2.9279 1.5224 4.8366" fill="none" stroke="#eac102" stroke-linecap="round" stroke-linejoin="round"/><path d="m221.823 113.6741c-.2845 5.9695 6.1713 2.5113 9.1162 3.6008.572-.9895 1.6069-2.1439 1.6069-3.5651-3.8208-1.1149-4.9292 3.4826-10.7231-.0363z" fill-rule="evenodd" stroke="#000" stroke-linecap="round" stroke-linejoin="round"/><path d="m231.1879 110.7298c3.2326.2971 3.7947 3.3521 3.5432 5.9699" fill="none" stroke="#eac102" stroke-linecap="round" stroke-linejoin="round"/><path d="m236.1272 105.5455c.8793 1.3882 1.5156 3.5593-.5576 3.7806" fill="none" stroke="#eac102" stroke-linecap="round" stroke-linejoin="round"/><path d="m227.7087 104.5909c1.2162-.2733 3.3653.9811 4.8571.357-.4864.9293-.8542 2.4199-3.3574 2.1009-1.4103-.1799-2.0828-1.4474-1.4997-2.4578z" fill="#eac102" fill-rule="evenodd" stroke="#eac102" stroke-linecap="round" stroke-linejoin="round"/><path d="m227.7087 104.5909c-.3166.0738-.6263.1958-.8678.3013" fill="none" stroke="#eac102" stroke-linecap="round" stroke-linejoin="round"/><path d="m229.0108 104.8037c-.3539-.015-.645.4146-.6501.9438 0 .5292.2773.9647.6314.9726.354.015.6449-.4147.6501-.9438 0-.5293-.2775-.9647-.6314-.9726z" fill-rule="evenodd" stroke="#000" stroke-linecap="round" stroke-linejoin="round"/><path d="m237.3585 125.51c.4974 1.2491.8321 3.0044 2.0943 2.7636.3828 1.1675.207 2.2033-.044 3.1395.7004-.5068 2.0119-.8965 2.318-1.9928.2669-.9543-.6579-1.8812-.841-2.7164" fill="none" stroke="#eac102" stroke-linecap="round" stroke-linejoin="round"/><path d="m238.0561 121.4281c.3628.2563.5743.5956.6348 1.0182.6613-.6031.9649-1.2735.9385-2.0024" fill="none" stroke="#eac102" stroke-linecap="round" stroke-linejoin="round"/><path d="m244.0426 122.7116c.3902.9217 1.8473 2.8839.177 5.1993-.1922-.9327-.6299-2.0853-1.7994-2.9128" fill="none" stroke="#eac102" stroke-linecap="round" stroke-linejoin="round"/><path d="m239.6822 133.7755c-.1843.7733-1.0646 2.5088.5374 4.076.098-.5533-.1429-.7073 1.0237-2.5242" fill="none" stroke="#eac102" stroke-linecap="round" stroke-linejoin="round"/><path d="m245.0087 135.3824c-1.5392 1.2689-2.1819 2.6595-1.9725 4.1934.4484-.5209.9857-.7817 1.6714-.7274-.8521 1.0199-1.1625 2.0069-.9509 2.9341" fill="none" stroke="#eac102" stroke-linecap="round" stroke-linejoin="round"/><path d="m226.0809 186.9652c-.094-1.8515-.7426-4.4983 1.1942-6.8119.5429-.6486.7805-1.7044.9123-3.2127-.135 1.5038-.3708 2.5673-.9123 3.2127-.8189.9756-2.3315.862-4.3096.458 2.1647-1.8028 3.8982-4.0985 3.7842-7.1651l-.3228-3.4299c-1.0257.6219-1.7652 1.804-2.2359 3.5123-1.2012-3.3893-.3107-5.559 1.7658-7.0374l-.3376-3.6237c-.8374 1.3349-2.4966 1.5645-3.7911 1.7077 2.4619-2.0771 2.539-5.6113 4.0823-8.1673-1.2124.2799-1.7861 1.1071-2.3847 2.2527-.1513-4.6044 3.1787-6.3793 5.8281-6.9049l1.066-2.0135c-2.7832.1252-3.312.5139-3.9575.8397.4205-3.067 5.7748-3.8301 7.1156-3.7978" fill="none" stroke="#eac102" stroke-linecap="round" stroke-linejoin="round"/><path d="m273.9195 186.9652c.094-1.8515.743-4.4983-1.1941-6.8119-.5429-.6486-.7804-1.7044-.9124-3.2127.1352 1.5038.3708 2.5673.9124 3.2127.8191.9756 2.3316.862 4.3094.458-2.1645-1.8028-3.898-4.0985-3.7836-7.1651l.3225-3.4299c1.0258.6219 1.7651 1.804 2.2359 3.5123 1.2012-3.3893.3108-5.559-1.766-7.0374l.3377-3.6237c.8372 1.3349 2.4966 1.5645 3.7912 1.7077-2.4619-2.0771-2.5391-5.6113-4.0824-8.1673 1.2122.2799 1.7862 1.1071 2.3845 2.2527.1513-4.6044-3.178-6.3793-5.8277-6.9049l-1.0663-2.0135c2.7834.1252 3.3121.5139 3.9576.8397-.4206-3.067-5.7749-3.8301-7.1159-3.7978" fill="none" stroke="#eac102" stroke-linecap="round" stroke-linejoin="round"/><path d="m232.5461 113.7098c0-3.8082-4.4021-3.3786-9.0539-11.0162" fill="none" stroke="#eac102" stroke-linecap="round" stroke-linejoin="round"/><path d="m230.6027 117.8515c.5719-.9894 1.9434-2.7205 1.9434-4.1417" fill="none" stroke="#eac102" stroke-linecap="round" stroke-linejoin="round"/><path d="m267.4541 113.7098c0-3.8082 4.402-3.3786 9.0541-11.0162" fill="none" stroke="#eac102" stroke-linecap="round" stroke-linejoin="round"/><path d="m269.3977 117.8515c-.5722-.9894-1.9436-2.7205-1.9436-4.1417" fill="none" stroke="#eac102" stroke-linecap="round" stroke-linejoin="round"/><path d="m256.9513 229.8946c3.2337 10.7985 11.5815 13.8479 18.195 16.1679-6.2921 4.3231-14.0846-1.2426-15.9331-3.3278 7.5927 19.0175 17.8607 7.6093 22.3557 15.9517-10.2999.8462-14.3128 3.9621-22.9887-5.1654 6.393 14.111 13.6227 15.482 23.0736 15.5734-.2526 4.3883-6.0074 5.3994-10.9695 4.4165 15.3127 11.261 24.6151-1.2782 18.2414-8.3851 20.3896 5.2181-5.2275 40.8669-31.0866-.3011 19.3101 30.6728 6.3811 33.7488.3242 27.927 8.2414-1.6939 3.5792-10.2781-4.9868-20.2214-2.4657 12.2932 3.2511 16.5928 3.2511 22.7358 0 1.9641-.9457 2.8944-3.9691 1.1686-.3045 1.0431-.9758 2.1691-2.4584 3.0652-1.4828-.8961-2.1541-2.0222-2.4585-3.0652-3.0234 1.7258-3.9693.7955-3.9693-1.1686 0-6.143 5.717-10.4427 3.2513-22.7358-8.566 9.9433-13.2283 18.5276-4.9869 20.2214-6.0568 5.8217-18.9858 2.7458.3244-27.927-25.8591 41.168-51.4763 5.5192-31.0866.3011-6.3738 7.1069 2.9286 19.6461 18.2411 8.3851-4.9621.9829-10.7168-.0279-10.9695-4.4165 9.451-.0914 16.6808-1.4623 23.0738-15.5734-8.6759 9.1275-12.6888 6.0115-22.9888 5.1654 4.4951-8.3424 14.7629 3.0658 22.3558-15.9517-1.8485 2.0852-9.6412 7.6509-15.9331 3.3278 6.6135-2.3201 14.9613-5.3695 18.1949-16.1679" fill-rule="evenodd" stroke="#000" stroke-linecap="round" stroke-linejoin="round"/><path d="m250.0002 232.2877v9.0022" fill="none" stroke="#eac102" stroke-linecap="round" stroke-linejoin="round"/><path d="m250.0001 245.3986-.0002 48.8051" fill="none" stroke="#eac102" stroke-linecap="round" stroke-linejoin="round"/><path d="m246.6686 231.132c-.055 2.9221-1.1571 7.5897-2.4666 10.8861" fill="none" stroke="#eac102" stroke-linecap="round" stroke-linejoin="round"/><path d="m247.6635 246.9099c-.5943 5.1148-2.5567 9.7502-5.5247 13.5969" fill="none" stroke="#eac102" stroke-linecap="round" stroke-linejoin="round"/><path d="m248.0582 261.3334c-.7686 6.6258-5.463 9.9064-8.199 15.8007" fill="none" stroke="#eac102" stroke-linecap="round" stroke-linejoin="round"/><path d="m253.3315 231.132c.055 2.9221 1.1571 7.5897 2.4666 10.8861" fill="none" stroke="#eac102" stroke-linecap="round" stroke-linejoin="round"/><path d="m252.3365 246.9099c.5944 5.1148 2.5568 9.7502 5.5248 13.5969" fill="none" stroke="#eac102" stroke-linecap="round" stroke-linejoin="round"/><path d="m251.9419 261.3334c.7686 6.6258 5.463 9.9064 8.199 15.8007" fill="none" stroke="#eac102" stroke-linecap="round" stroke-linejoin="round"/><path d="m288.9468 249.4585c.1648 2.6611 3.7704 2.8565 4.7259 1.3124 1.0472-1.6914 1.8557-1.7801 3.4573-1.5436 1.2836 1.5526 2.696 2.3526 4.1917 2.4112 1.5789.0626 3.2359-.1114 4.4804.7254 1.5852 1.0657 1.3008 3.9966 2.4906 4.8982 2.2399 1.697 4.665-.8546 4.7204-3.3203.041-1.8257-3.615-2.9419-5.4253-3.6782.7341-.1026 1.4613-.4195 2.104-.5274.3019-.0513.6474.4819.8759.7956 1.0875 1.4949 3.5212.7558 3.8413-.9011.3389-1.7543-.5962-3.2477-2.4444-3.0613-1.5798.1593-3.116.775-4.6418.768.6131-.1001 1.1362-.4516 1.4768-.8855.9083-1.1563 2.3657.0701 3.1939-.0363 1.122-.1424 1.9199-1.0493 1.9669-2.2755.025-.673-.5124-1.6458-1.2386-2.0153-.5489-.2536-1.2063-.3164-1.8864-.2258-1.9155.2548-3.7643 2.1402-5.0238 2.6274-1.2378.4789-3.6598.7059-5.3659-.3501-6.8491-4.2402-15.5882-11.3169-18.8757-14.977l-5.7272 5.683c2.2884.8921 5.8996 2.2517 6.8786 2.9412 4.0306 2.8384 9.384 5.847 12.9579 8.5486-1.3505-.4553-3.0866-1.2319-4.241-1.0337-2.003.3436-2.5935 2.473-2.4915 4.1202z"/><path d="m264.5 207.8956c3.1514 4.2286 7.8584 8.8285 10.4939 9.4488-.2591.6928-1.7375.857-2.199.9137 4.3512 3.74 5.0599 1.7934 8.754 4.5213-1.0053.1289-2.1866.205-2.8438 1.327 1.6192-.0939 5.5121 1.4463 7.7054 2.6861-2.0867.1139-2.5174.9789-2.6313 1.6642.8169.5403 2.9085 1.4567 5.5383 1.1309-1.2915 1.7308-2.7168 1.8398-4.5015 1.6342 1.2326.6134 2.5846 1.8107 2.5147 2.4571-1.715.1288-3.8379-.4775-5.3627-1.6239 1.4608 1.2059 2.1087 2.4832 3.0257 3.6605-2.2112.1948-3.5516-.3058-5.9604-2.5963.6338 1.0412 1.4875 4.0909.9763 5.7912-.624-.5546-1.9565-2.6954-3.2116-3.1674.5714 1.6273.5562 3.0618-.8738 5.3824-.5738-1.6848-.9588-3.8525-2.2042-5.4126-.3885 1.0227-2.4302 1.7104-3.7855 1.0915 1.1534-.3692 1.9896-3.0226-.5179-5.4914.1176 1.1931-.9336 2.6104-2.7333 2.3836 1.5946-1.4464-1.2171-4.301-7.463-7.0315" stroke="#000" stroke-linecap="round" stroke-linejoin="round"/><path d="m289.9733 246.3773c-4.8545-1.5117-6.8154 3.5294-3.5974 5.0352.098-2.3513 1.4398-2.4725 3.4558-1.3897 1.7949-.8247 1.5126-3.2032.1414-3.6455z" fill-rule="evenodd"/><path d="m311.6838 253.7178c5.0972.3303 4.627 5.6878 1.049 5.936.8404-2.2137-.7162-3.2552-2.3446-2.7876-.6405-1.2402-.642-2.9073 1.2956-3.1483z" fill-rule="evenodd"/><path d="m313.7803 246.8772c4.356-1.2065 6.4795 2.6814 3.5135 4.7534-.1866-2.2536-2.0553-2.5517-3.3396-1.5095-1.2891-.8898-1.2554-2.5327-.1739-3.2438z" fill-rule="evenodd"/><path d="m312.7218 242.1246c3.6536-2.1016 6.2789 1.256 3.6683 3.1087-.17-2.023-1.9467-1.6073-3.0766-.6748-.9883-.7462-1.1051-1.5775-.5917-2.4338z" fill-rule="evenodd"/><path d="m271.2958 223.8629c.9739.7371 3.3032 1.3736 5.1517.015-1.1713-.2308-2.2001-.6792-2.9386-1.6893" fill="none" stroke="#eac102" stroke-linecap="round" stroke-linejoin="round"/><path d="m276.8509 228.4236c1.2824.509 3.6608.7526 5.0641-.9249-1.1434.0225-2.2398-.3934-3.221-1.125" fill="none" stroke="#eac102" stroke-linecap="round" stroke-linejoin="round"/><path d="m272.5905 227.7899c1.2726.8149 2.6255 2.171 2.0606 4.5176-.6428-.9486-1.5402-1.4282-2.7897-1.9062" fill="none" stroke="#eac102" stroke-linecap="round" stroke-linejoin="round"/><path d="m266.3408 222.1474c1.0906.6198 2.8142 2.178 2.0605 4.5181-.5215-.8184-1.7249-1.5611-2.7898-1.9065" fill="none" stroke="#eac102" stroke-linecap="round" stroke-linejoin="round"/><path d="m265.6227 197.0514c1.3379 1.8174 2.4599 4.6496 2.6829 8.8049-.8175-1.5936-1.2375-2.3254-2.8998-3.1258 2.6867 3.251.1631 7.2405 1.1312 10.4415-1.3182-.9981-.8387-2.556-2.4161-3.3691 1.4965 2.9053-.8474 5.5436.254 8.9407l-2.322-2.8025" stroke="#eac102" stroke-linecap="round" stroke-linejoin="round"/><path d="m267.8481 210.1924c-.1489 1.209-.6587 2.0552-.83 3.1512-1.3183-.9981-1.3198-2.7276-2.8972-3.5407 1.4965 2.9053-.8474 5.5436.254 8.9407l-2.322-2.8025" fill="none" stroke="#eac102" stroke-linecap="round" stroke-linejoin="round"/><path d="m288.6021 233.9875c-1.715.129-5.1093-.7861-6.6341-1.9326 1.4608 1.2059 2.1087 2.4832 3.0257 3.6605-2.2112.1948-3.5516-.3058-5.9604-2.5963.6338 1.0412 2.7245 4.7087 2.4538 5.9629" fill="none" stroke="#eac102" stroke-linecap="round" stroke-linejoin="round"/><path d="m211.0532 249.4585c-.1648 2.6611-3.7704 2.8565-4.7259 1.3124-1.0472-1.6914-1.8557-1.7801-3.4573-1.5436-1.2836 1.5526-2.696 2.3526-4.1917 2.4112-1.5789.0626-3.2359-.1114-4.4804.7254-1.5852 1.0657-1.3008 3.9966-2.4906 4.8982-2.2399 1.697-4.665-.8546-4.7204-3.3203-.041-1.8257 3.615-2.9419 5.4253-3.6782-.7341-.1026-1.4613-.4195-2.104-.5274-.3019-.0513-.6474.4819-.8759.7956-1.0875 1.4949-3.5212.7558-3.8413-.9011-.3389-1.7543.5962-3.2477 2.4444-3.0613 1.5798.1593 3.116.775 4.6418.768-.6131-.1001-1.1362-.4516-1.4768-.8855-.9083-1.1563-2.3657.0701-3.1939-.0363-1.122-.1424-1.9199-1.0493-1.9669-2.2755-.025-.673.5124-1.6458 1.2386-2.0153.5489-.2536 1.2063-.3164 1.8864-.2258 1.9155.2548 3.7643 2.1402 5.0238 2.6274 1.2378.4789 3.6598.7059 5.3659-.3501 6.8491-4.2402 15.5882-11.3169 18.8757-14.977l5.7272 5.683c-2.2884.8921-5.8996 2.2517-6.8786 2.9412-4.0306 2.8384-9.384 5.847-12.9579 8.5486 1.3505-.4553 3.0866-1.2319 4.241-1.0337 2.003.3436 2.5935 2.473 2.4915 4.1202z"/><path d="m235.5 207.8956c-3.1514 4.2286-7.8584 8.8285-10.4939 9.4488.2591.6928 1.7375.857 2.1989.9137-4.3511 3.74-5.0598 1.7934-8.7539 4.5213 1.0053.1289 2.1866.205 2.8437 1.327-1.6191-.0939-5.512 1.4463-7.7053 2.6861 2.0867.1139 2.5174.9789 2.6312 1.6642-.8168.5403-2.9084 1.4567-5.5383 1.1309 1.2916 1.7308 2.7169 1.8398 4.5016 1.6342-1.2327.6134-2.5846 1.8107-2.5147 2.4571 1.715.1288 3.8379-.4775 5.3626-1.6239-1.4607 1.2059-2.1086 2.4832-3.0256 3.6605 2.2112.1948 3.5515-.3058 5.9603-2.5963-.6337 1.0412-1.4875 4.0909-.9762 5.7912.624-.5546 1.9565-2.6954 3.2116-3.1674-.5714 1.6273-.5562 3.0618.8738 5.3824.5738-1.6848.9588-3.8525 2.2042-5.4126.3885 1.0227 2.4302 1.7104 3.7855 1.0915-1.1534-.3692-1.9896-3.0226.5179-5.4914-.1176 1.1931.9336 2.6104 2.7333 2.3836-1.5946-1.4464 1.2171-4.301 7.463-7.0315" stroke="#000" stroke-linecap="round" stroke-linejoin="round"/><path d="m210.0267 246.3773c4.8545-1.5117 6.8154 3.5294 3.5974 5.0352-.098-2.3513-1.4398-2.4725-3.4558-1.3897-1.7949-.8247-1.5126-3.2032-.1414-3.6455z" fill-rule="evenodd"/><path d="m188.3162 253.7178c-5.0972.3303-4.627 5.6878-1.049 5.936-.8404-2.2137.7162-3.2552 2.3446-2.7876.6405-1.2402.642-2.9073-1.2956-3.1483z" fill-rule="evenodd"/><path d="m186.2197 246.8772c-4.356-1.2065-6.4795 2.6814-3.5135 4.7534.1866-2.2536 2.0553-2.5517 3.3396-1.5095 1.2891-.8898 1.2554-2.5327.1739-3.2438z" fill-rule="evenodd"/><path d="m187.2782 242.1246c-3.6536-2.1016-6.279 1.256-3.6683 3.1087.17-2.023 1.9467-1.6073 3.0766-.6748.9883-.7462 1.1051-1.5775.5917-2.4338z" fill-rule="evenodd"/><path d="m228.7042 223.8629c-.9739.7371-3.3032 1.3736-5.1517.015 1.1713-.2308 2.2001-.6792 2.9386-1.6893" fill="none" stroke="#eac102" stroke-linecap="round" stroke-linejoin="round"/><path d="m223.1491 228.4236c-1.2824.509-3.6608.7526-5.0641-.9249 1.1434.0225 2.2397-.3934 3.221-1.125" fill="none" stroke="#eac102" stroke-linecap="round" stroke-linejoin="round"/><path d="m227.4095 227.7899c-1.2727.8149-2.6255 2.171-2.0606 4.5176.6428-.9486 1.5402-1.4282 2.7897-1.9062" fill="none" stroke="#eac102" stroke-linecap="round" stroke-linejoin="round"/><path d="m233.6591 222.1474c-1.0906.6198-2.8142 2.178-2.0604 4.5181.5215-.8184 1.7249-1.5611 2.7898-1.9065" fill="none" stroke="#eac102" stroke-linecap="round" stroke-linejoin="round"/><path d="m234.3772 197.0514c-1.3378 1.8174-2.4598 4.6496-2.6828 8.8049.8175-1.5936 1.2375-2.3254 2.8998-3.1258-2.6867 3.251-.1632 7.2405-1.1313 10.4415 1.3182-.9981.8388-2.556 2.4162-3.3691-1.4965 2.9053.8474 5.5436-.254 8.9407l2.322-2.8025" stroke="#eac102" stroke-linecap="round" stroke-linejoin="round"/><path d="m232.1519 210.1924c.1489 1.209.6586 2.0552.8299 3.1512 1.3184-.9981 1.3199-2.7276 2.8973-3.5407-1.4965 2.9053.8474 5.5436-.254 8.9407l2.322-2.8025" fill="none" stroke="#eac102" stroke-linecap="round" stroke-linejoin="round"/><path d="m211.3979 233.9875c1.715.129 5.1093-.7861 6.634-1.9326-1.4607 1.2059-2.1086 2.4832-3.0256 3.6605 2.2112.1948 3.5515-.3058 5.9603-2.5963-.6337 1.0412-2.7244 4.7087-2.4537 5.9629" fill="none" stroke="#eac102" stroke-linecap="round" stroke-linejoin="round"/></g><g stroke="#000" stroke-linecap="round" stroke-linejoin="round"><path d="m439.5 516.333v-249.0001h-18.0476v13.0718h-18.0476v-13.0718h-18.0475v13.0718h-18.0476v-13.0718h-18.0475v13.0718h-18.0476v-13.0718h-18.0475v78.759h-126.3337v-78.759h-18.0476v13.0718h-18.0476v-13.0718h-18.0476v13.0718h-18.0476v-13.0718h-18.0476v13.0718h-18.0476v-13.0718h-18.0476v249.0001z" fill="#c87137"/><path d="m60.5 467.6924h155.065" fill="none"/><path d="m60.5 443.3723h155.065" fill="none"/><path d="m60.5 370.4116h379" fill="none"/><path d="m60.5 346.0914h126.5684" fill="none"/><path d="m60.5 321.7712h126.3334" fill="none"/><path d="m60.5 297.451h126.3334" fill="none"/><path d="m215.565 492.0127h-155.065" fill="none"/><path d="m197.107 419.052h-136.607" fill="none"/><path d="m218.016 394.7319h-157.516" fill="none"/><path d="m439.5 346.0914h-126.5684" fill="none"/><path d="m439.5 321.7712h-126.333" fill="none"/><path d="m439.5 297.451h-126.333" fill="none"/><path d="m439.5 467.6924h-155.066" fill="none"/><path d="m439.5 443.3723h-155.066" fill="none"/><path d="m284.434 492.0127h155.066" fill="none"/><path d="m302.894 419.052h136.606" fill="none"/><path d="m281.985 394.7319h157.515" fill="none"/><path d="m250 370.4116v14.8988" fill="none"/><path d="m186.8333 370.4116v24.3201" fill="none"/><path d="m123.6667 370.4116v24.3201" fill="none"/><path d="m155.25 394.7321v24.3199" fill="none"/><path d="m92.0834 394.7321v24.3199" fill="none"/><path d="m155.25 346.0917v24.3199" fill="none"/><path d="m92.0834 346.0917v24.3199" fill="none"/><path d="m218.4167 346.0917v24.3199" fill="none"/><path d="m155.25 297.4513v24.3199" fill="none"/><path d="m92.0834 297.4513v24.3199" fill="none"/><path d="m155.25 443.3725v24.3199" fill="none"/><path d="m92.0834 443.3725v24.3199" fill="none"/><path d="m155.25 492.0129v24.3201" fill="none"/><path d="m92.0834 492.0129v24.3201" fill="none"/><path d="m123.6667 321.7714v24.32" fill="none"/><path d="m123.6667 419.0523v24.32" fill="none"/><path d="m123.6667 467.6927v24.32" fill="none"/><path d="m186.8333 467.6927v24.32" fill="none"/><path d="m313.167 370.4116v24.3201" fill="none"/><path d="m376.3333 370.4116v24.3201" fill="none"/><path d="m344.75 394.7321v24.3199" fill="none"/><path d="m407.9166 394.7321v24.3199" fill="none"/><path d="m344.75 346.0917v24.3199" fill="none"/><path d="m407.9166 346.0917v24.3199" fill="none"/><path d="m281.5833 346.0917v24.3199" fill="none"/><path d="m344.75 297.4513v24.3199" fill="none"/><path d="m407.9166 297.4513v24.3199" fill="none"/><path d="m344.75 443.3725v24.3199" fill="none"/><path d="m407.9166 443.3725v24.3199" fill="none"/><path d="m344.75 492.0129v24.3201" fill="none"/><path d="m407.9166 492.0129v24.3201" fill="none"/><path d="m376.3333 321.7714v24.32" fill="none"/><path d="m376.3333 419.0523v24.32" fill="none"/><path d="m376.3333 467.6927v24.32" fill="none"/><path d="m313.1666 467.6927v24.32" fill="none"/><path d="m249.9999 408.9376c19.0766 0 34.4339 15.3578 34.434 34.4347l.0004 72.9607h-68.8689v-72.9607c0-19.0769 15.3578-34.4347 34.4345-34.4347z"/><path d="m191.8331 443.3723c0-32.1666 25.9423-58.0624 58.1666-58.0624 32.2241 0 58.1672 25.8958 58.1672 58.0624" fill="none"/><path d="m297.0581 409.1824-19.2 13.9496" fill="none"/><path d="m202.9422 409.1824 19.1996 13.9494" fill="none"/><path d="m232.0255 388.0518 7.3336 22.5707" fill="none"/><path d="m267.9746 388.0519-7.3337 22.571" fill="none"/></g><g stroke="#000" stroke-linecap="round" stroke-linejoin="round"><path d="m221.8236 83.6291c0-1.1323 6.1774-3.4349 28.1764-3.4349 21.9989 0 28.1764 2.3025 28.1764 3.4349s-6.1775 3.4348-28.1764 3.4348-28.1764-2.3025-28.1764-3.4348z" fill="#ed1c24"/><path d="m224.7229 77.3975-7.6043-5.0035-8.1925-11.9792c2.7108-4.3513 9.3735-7.8791 17.0657-7.543l-.0002-.0002c8.0695.3526 12.0967-3.8795 24.0084-3.8795s15.9389 4.2321 24.0084 3.8795l-.0002.0002c7.6922-.3361 14.3549 3.1917 17.0657 7.543l-8.1925 11.9792-7.6043 5.0035-25.2771-1.8966z" fill="#ed1c24"/><path d="m251.5466 41.5239c5.2551 1.5997 10.9918 3.386 16.1818 2.6156 10.313-1.5308 16.5347.0464 19.9182 2.7844 5.6099 4.5397 6.1201 10.4874 2.6689 16.2844l-1.2361.4219-1.5732-3.2063c5.3056-5.6237 2.8893-17.5138-19.5811-14.175-5.4107.804-11.3581-1.0324-16.7437-2.6719z" fill="#eac102"/><path d="m259.1226 42.7041c0 .9196.7446 1.665 1.6631 1.665s1.6631-.7454 1.6631-1.665c0-.9195-.7446-1.665-1.6631-1.665s-1.6631.7454-1.6631 1.665z" fill="#e5e5e5" fill-rule="evenodd"/><path d="m264.2102 43.1783c0 .9196.7446 1.665 1.6631 1.665s1.6631-.7454 1.6631-1.665c0-.9195-.7446-1.665-1.6631-1.665s-1.6631.7454-1.6631 1.665z" fill="#e5e5e5" fill-rule="evenodd"/><path d="m271.6334 59.3832-1.1799.1688-2.4722-3.2063c6.0856-6.7746 2.7112-13.8558-4.3826-14.7093-5.0918-.6127-8.43 2.2332-13.5972 1.7156v-2.2781c3.7488.5577 8.6238-2.0042 12.923-1.8.2866.0136.59.0445.8709.0843.2975.0423.5886.0908.8709.1406 13.7921 2.4308 9.7175 13.0468 9.7765 17.9437z" fill="#eac102"/><path d="m271.0429 56.2293c0 .9196.7446 1.665 1.6631 1.665s1.6631-.7454 1.6631-1.665-.7446-1.665-1.6631-1.665-1.6631.7454-1.6631 1.665z" fill="#e5e5e5" fill-rule="evenodd"/><path d="m272.5729 51.8168c0 .9196.7446 1.665 1.6631 1.665s1.6631-.7454 1.6631-1.665c0-.9195-.7446-1.665-1.6631-1.665s-1.6631.7454-1.6631 1.665z" fill="#e5e5e5" fill-rule="evenodd"/><path d="m272.6399 47.3235c0 .9196.7446 1.665 1.6631 1.665s1.6631-.7454 1.6631-1.665c0-.9195-.7446-1.665-1.6631-1.665s-1.6631.7454-1.6631 1.665z" fill="#e5e5e5" fill-rule="evenodd"/><path d="m260.5843 38.6031c0 .9196.7446 1.665 1.6631 1.665s1.6631-.7454 1.6631-1.665c0-.9195-.7446-1.665-1.6631-1.665s-1.6631.7454-1.6631 1.665z" fill="#e5e5e5" fill-rule="evenodd"/><path d="m264.2184 39.0725c0 .9196.7446 1.665 1.6631 1.665s1.6631-.7454 1.6631-1.665-.7446-1.665-1.6631-1.665-1.6631.7454-1.6631 1.665z" fill="#e5e5e5" fill-rule="evenodd"/><path d="m272.2496 42.4048c0 .9196.7446 1.665 1.6631 1.665s1.6631-.7454 1.6631-1.665-.7446-1.665-1.6631-1.665-1.6631.7454-1.6631 1.665z" fill="#e5e5e5" fill-rule="evenodd"/><path d="m267.8661 40.4947c0 .9196.7446 1.665 1.6631 1.665s1.6631-.7454 1.6631-1.665c0-.9195-.7446-1.665-1.6631-1.665s-1.6631.7454-1.6631 1.665z" fill="#e5e5e5" fill-rule="evenodd"/><path d="m270.8831 43.3529c0 .9196.7446 1.665 1.6631 1.665s1.6631-.7454 1.6631-1.665c0-.9195-.7446-1.665-1.6631-1.665s-1.6631.7454-1.6631 1.665z" fill="#e5e5e5" fill-rule="evenodd"/><path d="m256.964 38.9384c0 .9196.7446 1.665 1.6631 1.665s1.6631-.7454 1.6631-1.665-.7446-1.665-1.6631-1.665-1.6631.7454-1.6631 1.665z" fill="#e5e5e5" fill-rule="evenodd"/><path d="m253.464 39.757c0 .9196.7446 1.665 1.6631 1.665s1.6631-.7454 1.6631-1.665-.7446-1.665-1.6631-1.665-1.6631.7454-1.6631 1.665z" fill="#e5e5e5" fill-rule="evenodd"/><path d="m290.1991 49.9181c0 .9196.7446 1.665 1.6631 1.665s1.6631-.7454 1.6631-1.665-.7446-1.665-1.6631-1.665-1.6631.7454-1.6631 1.665z" fill="#e5e5e5" fill-rule="evenodd"/><path d="m286.8471 45.8804c0 .9196.7446 1.665 1.6631 1.665s1.6631-.7454 1.6631-1.665c0-.9195-.7446-1.665-1.6631-1.665s-1.6631.7454-1.6631 1.665z" fill="#e5e5e5" fill-rule="evenodd"/><path d="m277.1947 42.6336c0 .9196.7446 1.665 1.6631 1.665s1.6631-.7454 1.6631-1.665-.7446-1.665-1.6631-1.665-1.6631.7454-1.6631 1.665z" fill="#e5e5e5" fill-rule="evenodd"/><path d="m291.1738 54.8276c0 .9196.7446 1.665 1.6631 1.665s1.6631-.7454 1.6631-1.665-.7446-1.665-1.6631-1.665-1.6631.7454-1.6631 1.665z" fill="#e5e5e5" fill-rule="evenodd"/><path d="m290.1183 59.4136c0 .9196.7446 1.665 1.6631 1.665s1.6631-.7454 1.6631-1.665c0-.9195-.7446-1.665-1.6631-1.665s-1.6631.7454-1.6631 1.665z" fill="#e5e5e5" fill-rule="evenodd"/><path d="m282.1816 43.6534c0 .9196.7446 1.665 1.6631 1.665s1.6631-.7454 1.6631-1.665-.7446-1.665-1.6631-1.665-1.6631.7454-1.6631 1.665z" fill="#e5e5e5" fill-rule="evenodd"/><path d="m248.4534 41.5239c-5.2551 1.5997-10.9918 3.386-16.1818 2.6156-10.313-1.5308-16.5347.0464-19.9182 2.7844-5.6099 4.5397-6.1201 10.4874-2.6689 16.2844l1.2361.4219 1.5732-3.2063c-5.3056-5.6237-2.8893-17.5138 19.5811-14.175 5.4107.804 11.3581-1.0324 16.7437-2.6719z" fill="#eac102"/><path d="m240.8774 42.7041c0 .9196-.7446 1.665-1.6631 1.665s-1.6631-.7454-1.6631-1.665c0-.9195.7446-1.665 1.6631-1.665s1.6631.7454 1.6631 1.665z" fill="#e5e5e5" fill-rule="evenodd"/><path d="m235.7899 43.1783c0 .9196-.7446 1.665-1.6631 1.665s-1.6631-.7454-1.6631-1.665c0-.9195.7446-1.665 1.6631-1.665s1.6631.7454 1.6631 1.665z" fill="#e5e5e5" fill-rule="evenodd"/><path d="m249.3597 34.1484v-4.3422h-1.9763v-1.288h1.9763v-1.8101h1.2806v1.8101h1.9763v1.288h-1.9763v4.3422z" fill="#eac102"/><path d="m253.526 36.106c0 1.9397-1.5786 3.5122-3.526 3.5122-1.9473 0-3.526-1.5724-3.526-3.5122s1.5786-3.5121 3.526-3.5121c1.9473 0 3.526 1.5724 3.526 3.5121z" fill="#0071bc" fill-rule="evenodd"/><path d="m228.3666 59.3832 1.1799.1688 2.4722-3.2063c-6.0856-6.7746-2.7112-13.8558 4.3826-14.7093 5.0918-.6127 8.43 2.2332 13.5972 1.7156v-2.2781c-3.7488.5577-8.6238-2.0042-12.923-1.8-.2866.0136-.59.0445-.8709.0843-.2975.0423-.5886.0908-.8709.1406-13.7921 2.4308-9.7175 13.0468-9.7765 17.9437z" fill="#eac102"/><path d="m228.9571 56.2293c0 .9196-.7446 1.665-1.6631 1.665s-1.6631-.7454-1.6631-1.665.7446-1.665 1.6631-1.665 1.6631.7454 1.6631 1.665z" fill="#e5e5e5" fill-rule="evenodd"/><path d="m252.1659 41.3106c.9799 3.6455.4322 10.4484 1.928 14.4481l-4.0939 4.2495-4.0939-4.2495c1.4958-3.9998.9481-10.8027 1.928-14.4481.396-1.4731 1.4053-2.1712 2.1659-2.1712s1.77.6981 2.1659 2.1712z" fill="#eac102"/><path d="m251.6631 39.8186c0 .9196-.7446 1.665-1.6631 1.665s-1.6631-.7454-1.6631-1.665c0-.9195.7446-1.665 1.6631-1.665s1.6631.7454 1.6631 1.665z" fill="#e5e5e5" fill-rule="evenodd"/><path d="m251.6631 41.1599c0 .9196-.7446 1.665-1.6631 1.665s-1.6631-.7454-1.6631-1.665.7446-1.665 1.6631-1.665 1.6631.7454 1.6631 1.665z" fill="#e5e5e5" fill-rule="evenodd"/><path d="m251.6631 43.0377c0 .9196-.7446 1.665-1.6631 1.665s-1.6631-.7454-1.6631-1.665c0-.9195.7446-1.665 1.6631-1.665s1.6631.7454 1.6631 1.665z" fill="#e5e5e5" fill-rule="evenodd"/><path d="m251.6631 46.2568c0 .9196-.7446 1.665-1.6631 1.665s-1.6631-.7454-1.6631-1.665.7446-1.665 1.6631-1.665 1.6631.7454 1.6631 1.665z" fill="#e5e5e5" fill-rule="evenodd"/><path d="m251.6631 50.683c0 .9196-.7446 1.665-1.6631 1.665s-1.6631-.7454-1.6631-1.665.7446-1.665 1.6631-1.665 1.6631.7454 1.6631 1.665z" fill="#e5e5e5" fill-rule="evenodd"/><path d="m251.6631 55.1092c0 .9196-.7446 1.665-1.6631 1.665s-1.6631-.7454-1.6631-1.665c0-.9195.7446-1.665 1.6631-1.665s1.6631.7454 1.6631 1.665z" fill="#e5e5e5" fill-rule="evenodd"/><path d="m244.4285 60.997c1.9565.8139 2.7709.3793 3.5947 1.1603l.9656.9155v2.0305l-.9656.9156c-.8237.7811-1.6382.3462-3.5947 1.1603-.0802-.6149-.0452-1.1235.3772-1.5762-1.2676-.0761-2.2778-.7301-3.1016-1.5151.8239-.7847 1.834-1.4389 3.1016-1.5151-.4224-.4527-.4574-.9612-.3772-1.576z" fill="#eac102"/><path d="m251.0131 63.0746.9137-.9677c.7794-.8254.3455-1.6415 1.1578-3.6023-.6136-.0803-1.1211-.0453-1.5728.378-.076-1.2704-.7286-2.2827-1.5118-3.1085-.7832.8258-1.4358 1.8381-1.5118 3.1085-.4517-.4234-.9592-.4584-1.5728-.378.8123 1.9607.3785 2.7768 1.1578 3.6023l.9137.9677z" fill="#eac102"/><path d="m230.8352 71.264c2.6889 3.0881 7.6012 2.6656 9.0783-.8369 2.8197 3.6808 8.0761 3.1119 10.0865-.1756 2.0104 3.2875 7.2668 3.8564 10.0865.1756 1.4771 3.5024 6.3894 3.925 9.0784.8369 1.0613 3.3134 4.7749 3.6119 7.5231 1.6151.2086 3.5306 4.3067 3.304 7.4623-.9517l1.8238-2.4596c.2546-.3434.1763-.8892-.1646-1.1457s-.8832-.1778-1.1374.1659l-1.8187 2.4596c-2.5154 3.4018-6.5738 4.4405-3.4398-1.0818.2111-.372.0861-.9022-.2786-1.1227-.3648-.2205-.899-.0887-1.1146.2807-2.7076 4.6404-8.488 4.9511-7.3508-.893 0 0 .331-1.701.4965-2.5515.08-.4111-.2375-.8519-.6457-.9317-.4082-.0799-.8649.2094-.9451.6204l-.4965 2.5464c-1.0689 5.4823-8.4823 5.1672-7.8118-.4031.0488-.4058-.3102-.8031-.7131-.8518-.4029-.0486-.8527.2511-.8928.6579-.5527 5.6037-8.8504 5.4348-8.8504.0358v-2.6892c0-.4293-.381-.8318-.8106-.8318-.4295 0-.8106.4025-.8106.8318v2.6892c0 5.3991-8.2977 5.5679-8.8504-.0358-.0401-.4068-.4899-.7065-.8928-.6579s-.762.446-.7131.8518c.6705 5.5703-6.7429 5.8854-7.8118.4031l-.4965-2.5464c-.0802-.411-.5368-.7003-.9451-.6204-.4082.0799-.7257.5207-.6457.9317.1655.8505.4965 2.5515.4965 2.5515 1.1372 5.8441-4.6432 5.5334-7.3508.893-.2155-.3694-.7498-.5012-1.1146-.2807s-.4897.7507-.2786 1.1227c3.134 5.5223-.9244 4.4836-3.4398 1.0818l-1.8187-2.4596c-.2542-.3437-.7965-.4224-1.1374-.1659s-.4192.8023-.1646 1.1457c.6079.8199 1.8238 2.4596 1.8238 2.4596 3.1555 4.2557 7.2537 4.4824 7.4623.9517 2.7481 1.9968 6.4617 1.6984 7.5231-1.6151z" fill="#eac102"/><path d="m250 72.7207c-10.4653 0-31.5208.6984-31.5208 4.6125 0 .8312.9598 1.4892 2.5565 2.0531.3363.9705.5931 1.9338.8147 2.9531-.6026.3798-.9552.8157-.9552 1.2938 0 3.6461 19.4466 4.275 29.1048 4.275s29.1048-.6289 29.1048-4.275c0-.4781-.3526-.9139-.9552-1.2938.2216-1.0193.4784-1.9826.8147-2.9531 1.5967-.5639 2.5565-1.2219 2.5565-2.0531 0-3.9141-21.0555-4.6125-31.5208-4.6125zm0 8.1563c20.9179 0 27.3068 2.399 27.3068 2.7563 0 .3572-6.3889 2.7562-27.3068 2.7562s-27.3068-2.399-27.3068-2.7562 6.3889-2.7563 27.3068-2.7563z" fill="#eac102" fill-rule="evenodd"/><path d="m229.9875 76.4633 6.2171-.5494c.6984-.0617 1.3038.4879 1.3556 1.2172.0518.7289-.4699 1.3529-1.1684 1.4147l-6.2171.5494c-.6985.0617-1.304-.4879-1.3557-1.2172-.0517-.729.4698-1.3529 1.1684-1.4147z" fill="#008f4c" fill-rule="evenodd"/><path d="m227.5001 78.3829c0 .9196-.7446 1.665-1.6631 1.665s-1.6631-.7454-1.6631-1.665.7446-1.665 1.6631-1.665 1.6631.7454 1.6631 1.665z" fill="#e5e5e5" fill-rule="evenodd"/><path d="m242.8401 77.0059c0 .9196-.7446 1.665-1.6631 1.665s-1.6631-.7454-1.6631-1.665.7446-1.665 1.6631-1.665 1.6631.7454 1.6631 1.665z" fill="#e5e5e5" fill-rule="evenodd"/><path d="m234.7798 66.0841c.4864.409.624.9109.676 1.5297-1.7616-.5922-2.6258-.0853-3.5842-.805l-1.0872-.8164-.4198-2.0224.7105-.9988c.6034-.8482 1.8086-.6365 3.1046-1.5056.2015.6033.2738 1.1121-.0259 1.6027 1.1952-.0471 2.2711.5096 3.1997 1.2097-.6048.8597-1.41 1.6075-2.5736 1.8059z" fill="#eac102"/><path d="m225.1131 67.0901c-.2996.4907-.2274.9994-.0257 1.6026 1.6084-.9624 2.5063-.6539 3.1054-1.501l.7095-1.0034-.4198-2.0223-1.0863-.8118c-.9354-.6991-1.8812-.2312-3.5852-.8094.0522.6186.1897 1.1207.6762 1.5296-1.1639.1984-1.968.9507-2.5728 1.8104.9286.7002 2.0035 1.2523 3.1987 1.2053z" fill="#eac102"/><path d="m227.3041 60.2054c-.5078-.3767-1.1411-.5119-1.6957-.3726 1.0996 1.6862.8601 2.6674 1.8207 3.4657l1.0501.8726 1.8906-.1968.6467-1.0492c.5469-.8872-.0147-1.8835.3395-3.6903-.5879-.0206-1.0531.0634-1.3864.5277-.3326-1.2544-1.2629-2.3029-2.3327-2.8712-.318 1.0876-.8048 2.0709-.3328 3.3141z" fill="#eac102"/><path d="m231.2438 65.0767c0 .9196-.7446 1.665-1.6631 1.665s-1.6631-.7454-1.6631-1.665.7446-1.665 1.6631-1.665 1.6631.7454 1.6631 1.665z" fill="#ed1c24" fill-rule="evenodd"/><path d="m212.5912 67.2771c-1.1197-1.5915-2.0469-2.6133-5.47-2.9086 1.1711-1.7644 3.6102-2.2752 5.1965-.6651.1501-.4406.2426-.5843.6621-.9913.374 1.1491 2.0396 2.0173 1.3788 4.0748l-.6494 2.022z" fill="#eac102"/><path d="m217.6119 68.9691c.3976.3157.5778.7815.7212 1.3755 0 0-1.7112-.1379-2.4562.0326-.8508.1948-1.497-.1694-1.6367-.3068l-.8081-1.5901c.6176-1.1039.7392-1.7102 1.2019-2.3111.462-.5999 1.2176-1.1269 1.7664-1.598.2408.5534.3784 1.0369.2636 1.5661.7927-.2491 1.6112.1105 2.3562.6348-.2547.9404-.663 1.8058-1.4082 2.1969z" fill="#eac102"/><path d="m265.2202 66.0841c-.4864.409-.624.9109-.676 1.5297 1.7616-.5922 2.6258-.0853 3.5842-.805l1.0872-.8164.4198-2.0224-.7105-.9988c-.6034-.8482-1.8086-.6365-3.1046-1.5056-.2015.6033-.2738 1.1121.0259 1.6027-1.1952-.0471-2.2711.5096-3.1997 1.2097.6048.8597 1.41 1.6075 2.5736 1.8059z" fill="#eac102"/><path d="m274.8869 67.0901c.2996.4907.2274.9994.0257 1.6026-1.6084-.9624-2.5064-.6539-3.1054-1.501l-.7095-1.0034.4198-2.0223 1.0863-.8118c.9354-.6991 1.8812-.2312 3.5852-.8094-.0522.6186-.1897 1.1207-.6762 1.5296 1.1638.1984 1.968.9507 2.5728 1.8104-.9286.7002-2.0035 1.2523-3.1987 1.2053z" fill="#eac102"/><path d="m272.6959 60.2054c.5078-.3767 1.1411-.5119 1.6957-.3726-1.0996 1.6862-.8601 2.6674-1.8207 3.4657l-1.0501.8726-1.8906-.1968-.6467-1.0492c-.5469-.8872.0147-1.8835-.3395-3.6903.5879-.0206 1.0531.0634 1.3864.5277.3326-1.2544 1.2629-2.3029 2.3327-2.8712.318 1.0876.8048 2.0709.3328 3.3141z" fill="#eac102"/><path d="m272.0824 65.0767c0 .9196-.7446 1.665-1.6631 1.665s-1.6631-.7454-1.6631-1.665.7446-1.665 1.6631-1.665 1.6631.7454 1.6631 1.665z" fill="#ed1c24" fill-rule="evenodd"/><path d="m287.4088 67.2771c1.1197-1.5915 2.0469-2.6133 5.47-2.9086-1.1711-1.7644-3.6102-2.2752-5.1965-.6651-.1501-.4406-.2426-.5843-.6621-.9913-.374 1.1491-2.0396 2.0173-1.3788 4.0748l.6494 2.022z" fill="#eac102"/><path d="m282.3881 68.9691c-.3976.3157-.5778.7815-.7211 1.3755 0 0 1.7112-.1379 2.4562.0326.8508.1948 1.497-.1694 1.6367-.3068l.8081-1.5901c-.6176-1.1039-.7392-1.7102-1.2019-2.3111-.462-.5999-1.2176-1.1269-1.7664-1.598-.2408.5534-.3784 1.0369-.2636 1.5661-.7927-.2491-1.6112.1105-2.3562.6348.2547.9404.6631 1.8058 1.4082 2.1969z" fill="#eac102"/><path d="m255.5715 60.997c-1.9565.8139-2.7708.3793-3.5946 1.1603l-.9656.9155v2.0305l.9656.9156c.8236.7811 1.6382.3462 3.5946 1.1603.0802-.6149.0452-1.1235-.3772-1.5762 1.2676-.0761 2.2778-.7301 3.1016-1.5151-.8239-.7847-1.834-1.4389-3.1016-1.5151.4224-.4527.4574-.9612.3772-1.576z" fill="#eac102"/><path d="m251.6631 64.088c0 .9196-.7446 1.665-1.6631 1.665s-1.6631-.7454-1.6631-1.665.7446-1.665 1.6631-1.665 1.6631.7454 1.6631 1.665z" fill="#ed1c24" fill-rule="evenodd"/><path d="m241.1495 66.8664c0 .9196-.7446 1.665-1.6631 1.665s-1.6631-.7454-1.6631-1.665.7446-1.665 1.6631-1.665 1.6631.7454 1.6631 1.665z" fill="#e5e5e5" fill-rule="evenodd"/><path d="m222.7832 68.9873c0 .9196-.7446 1.665-1.6631 1.665s-1.6631-.7454-1.6631-1.665.7446-1.665 1.6631-1.665 1.6631.7454 1.6631 1.665z" fill="#e5e5e5" fill-rule="evenodd"/><path d="m262.1768 66.8664c0 .9196-.7446 1.665-1.6631 1.665s-1.6631-.7454-1.6631-1.665.7446-1.665 1.6631-1.665 1.6631.7454 1.6631 1.665z" fill="#e5e5e5" fill-rule="evenodd"/><path d="m280.5431 68.9873c0 .9196-.7446 1.665-1.6631 1.665s-1.6632-.7454-1.6632-1.665.7446-1.665 1.6632-1.665c.9185 0 1.6631.7454 1.6631 1.665z" fill="#e5e5e5" fill-rule="evenodd"/><path d="m253.5487 36.8102c.1383-.3471.052-1.361 0-1.4098 0-.231-1.2261-.4202-2.8529-.4637v-2.4355c-.2328-.0397-.4641-.0608-.6958-.0608s-.463.0212-.6958.0608v2.4355c-1.6268.0435-2.8529.2327-2.8529.4637-.0521.0488-.1383 1.0627 0 1.4098 0-.2631 1.5881-.4777 3.5487-.4777s3.5487.2147 3.5487.4777z" fill="#eac102"/><path d="m275.8262 78.3829c0 .9196-.7446 1.665-1.6631 1.665s-1.6631-.7454-1.6631-1.665.7446-1.665 1.6631-1.665 1.6631.7454 1.6631 1.665z" fill="#e5e5e5" fill-rule="evenodd"/><path d="m260.4862 77.0059c0 .9196-.7446 1.665-1.6631 1.665s-1.6631-.7454-1.6631-1.665.7446-1.665 1.6631-1.665 1.6631.7454 1.6631 1.665z" fill="#e5e5e5" fill-rule="evenodd"/><path d="m246.4005 75.5294h7.1803l1.8846 1.3133-1.8846 1.313h-7.1803l-1.8659-1.313z" fill="#ed1c24"/><path d="m227.4271 51.8168c0 .9196-.7446 1.665-1.6631 1.665s-1.6631-.7454-1.6631-1.665c0-.9195.7446-1.665 1.6631-1.665s1.6631.7454 1.6631 1.665z" fill="#e5e5e5" fill-rule="evenodd"/><path d="m227.3601 47.3235c0 .9196-.7446 1.665-1.6631 1.665s-1.6631-.7454-1.6631-1.665c0-.9195.7446-1.665 1.6631-1.665s1.6631.7454 1.6631 1.665z" fill="#e5e5e5" fill-rule="evenodd"/><path d="m239.4157 38.6031c0 .9196-.7446 1.665-1.6631 1.665s-1.6631-.7454-1.6631-1.665c0-.9195.7446-1.665 1.6631-1.665s1.6631.7454 1.6631 1.665z" fill="#e5e5e5" fill-rule="evenodd"/><path d="m235.7816 39.0725c0 .9196-.7446 1.665-1.6631 1.665s-1.6631-.7454-1.6631-1.665.7446-1.665 1.6631-1.665 1.6631.7454 1.6631 1.665z" fill="#e5e5e5" fill-rule="evenodd"/><path d="m227.7504 42.4048c0 .9196-.7446 1.665-1.6631 1.665s-1.6631-.7454-1.6631-1.665.7446-1.665 1.6631-1.665 1.6631.7454 1.6631 1.665z" fill="#e5e5e5" fill-rule="evenodd"/><path d="m232.1339 40.4947c0 .9196-.7446 1.665-1.6631 1.665s-1.6631-.7454-1.6631-1.665c0-.9195.7446-1.665 1.6631-1.665s1.6631.7454 1.6631 1.665z" fill="#e5e5e5" fill-rule="evenodd"/><path d="m229.1169 43.3529c0 .9196-.7446 1.665-1.6631 1.665s-1.6631-.7454-1.6631-1.665c0-.9195.7446-1.665 1.6631-1.665s1.6631.7454 1.6631 1.665z" fill="#e5e5e5" fill-rule="evenodd"/><path d="m243.036 38.9384c0 .9196-.7446 1.665-1.6631 1.665s-1.6631-.7454-1.6631-1.665.7446-1.665 1.6631-1.665 1.6631.7454 1.6631 1.665z" fill="#e5e5e5" fill-rule="evenodd"/><path d="m246.536 39.757c0 .9196-.7446 1.665-1.6631 1.665s-1.6631-.7454-1.6631-1.665.7446-1.665 1.6631-1.665 1.6631.7454 1.6631 1.665z" fill="#e5e5e5" fill-rule="evenodd"/><path d="m209.8009 49.9181c0 .9196-.7446 1.665-1.6631 1.665s-1.6631-.7454-1.6631-1.665.7446-1.665 1.6631-1.665 1.6631.7454 1.6631 1.665z" fill="#e5e5e5" fill-rule="evenodd"/><path d="m213.1529 45.8804c0 .9196-.7446 1.665-1.6631 1.665s-1.6631-.7454-1.6631-1.665c0-.9195.7446-1.665 1.6631-1.665s1.6631.7454 1.6631 1.665z" fill="#e5e5e5" fill-rule="evenodd"/><path d="m222.8053 42.6336c0 .9196-.7446 1.665-1.6631 1.665s-1.6632-.7454-1.6632-1.665.7446-1.665 1.6632-1.665c.9185 0 1.6631.7454 1.6631 1.665z" fill="#e5e5e5" fill-rule="evenodd"/><path d="m208.8262 54.8276c0 .9196-.7446 1.665-1.6631 1.665s-1.6631-.7454-1.6631-1.665.7446-1.665 1.6631-1.665 1.6631.7454 1.6631 1.665z" fill="#e5e5e5" fill-rule="evenodd"/><path d="m209.8817 59.4136c0 .9196-.7446 1.665-1.6631 1.665s-1.6631-.7454-1.6631-1.665c0-.9195.7446-1.665 1.6631-1.665s1.6631.7454 1.6631 1.665z" fill="#e5e5e5" fill-rule="evenodd"/><path d="m217.8184 43.6534c0 .9196-.7446 1.665-1.6631 1.665s-1.6631-.7454-1.6631-1.665.7446-1.665 1.6631-1.665 1.6631.7454 1.6631 1.665z" fill="#e5e5e5" fill-rule="evenodd"/><path d="m214.3209 70.0527c-.2467.1451-.5342.2282-.841.2282-.9185 0-1.6631-.7454-1.6631-1.665 0-.5777.2939-1.0866.7401-1.3852.7981.4065 1.5885 1.9835 1.764 2.822z" fill="#ed1c24" fill-rule="evenodd"/><path d="m285.6791 70.0527c.2467.1451.5342.2282.841.2282.9185 0 1.6631-.7454 1.6631-1.665 0-.5777-.2939-1.0866-.7401-1.3852-.7981.4065-1.5885 1.9835-1.764 2.822z" fill="#ed1c24" fill-rule="evenodd"/><path d="m220.2247 80.0871.4225-1.9327 2.2614.4341-1.375 2.5744z" fill="#ed1c24"/><path d="m270.0125 76.4633-6.2171-.5494c-.6984-.0617-1.3039.4879-1.3557 1.2172-.0518.7289.4699 1.3529 1.1684 1.4147l6.2171.5494c.6985.0617 1.304-.4879 1.3557-1.2172.0517-.729-.4698-1.3529-1.1684-1.4147z" fill="#008f4c" fill-rule="evenodd"/><path d="m279.7753 80.0871-.4225-1.9327-2.2614.4341 1.375 2.5744z" fill="#ed1c24"/></g><g stroke="#000" stroke-linecap="round" stroke-linejoin="round"><path d="m78.0495 195.5001c-.0709 3.7186 1.5617 9.1671 3.3781 13.2049-.4888-2.2571-.1935-4.5165.8316-6.5179-.0475 2.7421.3212 5.7666 1.4806 7.8285 2.5328 4.5043 4.0565 4.4521 3.8028 11.2847-.0906 2.4391 2.1619 4.0665 3.9663 5.0951 2.3281 1.3271 2.5968 2.4597 2.1188 3.796-.1627.4546-.4113.7998-.7543.9675-.3742.7106-1.043 1.2689-1.8547 1.568-2.0838 2.566-5.4763 2.4683-7.5445.847 1.0511-.2305 2.0888-.6546 3.0133-1.2738-1.9463.1868-4.1233-.4367-5.4357-1.7244 1.1213-.007 2.4489-.3992 3.6419-1.1299-2.4532.0765-4.8042-.8113-6.4387-2.8012 1.2029.2188 2.6462.3642 3.9472.1496-2.9035-.3945-5.5878-2.611-6.6316-5.3846.8972.7146 2.1107 1.3241 3.3563 1.6783-2.9012-2.1134-5.6097-6.242-6.4596-9.824 1.0649 1.3893 2.4181 2.6349 3.8578 3.5883-2.5309-3.5423-4.4338-7.818-4.9338-11.0018.8564 1.3773 2.3336 3.4624 4.0121 5.5715-2.1712-4.3409-3.7313-9.4362-3.517-12.4107.6116 1.8253 1.9096 4.258 3.4358 6.6381-1.1495-3.8284-1.5733-7.7319-.912-10.1492.3429 2.2311 1.4675 5.2764 2.8563 8.3034-.54-3.2715-.3178-6.3622.7831-8.3034z" fill="#ed1c24" fill-rule="evenodd"/><path d="m128.0329 227.1988c-.764-.7052-.7293-1.1286-.4487-1.9265.9244-.5039 1.4753-1.1487 1.6541-1.91.1887-.8035.2644-1.6705.8177-2.2256.7046-.7071 2.1804-.2698 2.7614-.7904 1.0937-.9799.0254-2.4775-1.2349-2.751-.9329-.2025-1.8692 1.5615-2.4271 2.4167.021-.3866-.0699-.7911-.0615-1.1315.004-.1599.3116-.2841.4955-.37.8753-.4092.7378-1.7308-.0808-2.0597-.8666-.3482-1.7262-.0171-1.8142.9493-.0752.826.0881 1.675-.0672 2.457.01-.3245-.1188-.6276-.3076-.8456-.5032-.5807.2707-1.2063.2988-1.6415.0381-.5897-.3477-1.0896-.9725-1.2351-.3426-.0798-.901.095-1.1574.435-.1902.2522-.2823.5872-.3035.9451-.0595 1.0076.7243 2.1432.8492 2.8377.1228.6825-.118 2.6107-.7281 2.8094-3.4447 1.1219-7.6694 2.0282-9.8012 2.1856l-.2816 4.2061c1.2056-.4406 3.127-1.0044 3.7138-1.2224 2.0127-.7478 4.9892-1.8859 6.7333-2.9015.2905-.1692.3798.1608.3039.3027-.3509.6567-.939 1.4606-.9521 2.0723-.0226 1.0615 1.0116 1.5759 1.8671 1.6874 1.3821.1802 1.8408-1.6497 1.1434-2.2933z" fill="#ed1c24"/><path d="m125.4101 228.6594c-1.2584 2.3394 1.1775 3.8695 2.2701 2.3689-1.1972-.2834-1.1692-1.0075-.4131-1.9338-.2448-1.0026-1.4936-1.0942-1.8569-.4351z" fill="#ed1c24" fill-rule="evenodd"/><path d="m131.3356 218.2548c.676-2.5813 3.379-1.8076 3.1508.0521-1.0527-.6512-1.7418.0437-1.6639.9253-.7002.2052-1.5558.0402-1.4869-.9774z" fill="#ed1c24" fill-rule="evenodd"/><path d="m128.033 216.4994c-.1862-2.354 2.0203-3.0564 2.7888-1.3293-1.1751-.1283-1.5139.8003-1.1066 1.5626-.5848.5727-1.4247.3921-1.6822-.2334z" fill="#ed1c24" fill-rule="evenodd"/><path d="m125.4886 216.5698c-.7155-2.0828 1.2688-3.0953 1.9603-1.5723-1.0553-.1139-1.0185.8385-.6523 1.5107-.4812.4327-.9195.4099-1.308.0615z" fill="#ed1c24" fill-rule="evenodd"/><path d="m102.6606 225.8634c2.9964-.1497 6.9457-1.4336 8.0735-2.4823.2453.3418-.1453 1.0923-.2646 1.3283 3.1453-.8714 2.1647-1.3061 4.6236-2.1875-.2576.5157-.5954 1.0982-.2734 1.7641.4681-.795 2.4289-2.1464 3.7094-2.7902-.607 1.0221-.3346 1.4997-.0467 1.7705.514-.2149 1.6095-.9129 2.2882-2.2586.409 1.1585.01 1.8664-.653 2.6446.6802-.3882 1.6741-.6478 1.9573-.41-.4819.8513-1.4408 1.6623-2.4654 2.0196 1.0325-.3082 1.8413-.2098 2.6879-.2702-.6082 1.1065-1.269 1.5813-3.1143 1.994.6929.0303 2.4044.5929 3.0461 1.3729-.4598.1192-1.8933.0708-2.5139.5143.95.2455 1.6232.7072 2.2671 2.1177-.978-.2625-2.1244-.7672-3.256-.6728.3604.5075.0389 1.6901-.6828 2.1345.1907-.662-.7985-1.8976-2.7592-1.4946.6011.3223.9382 1.2679.2611 2.0464-.069-.4668-1.7015-.9187-3.0508-.5841.2416.4139.1626 1.2416-.1025 1.6935-1.8654-.5614-4.9029 1.2203-6.5393 2.265" fill="#ed1c24"/><path d="m112.3587 227.7097c.6567-.2267 1.6951-1.1257 1.6353-2.4315-.48.4804-1.0178.8244-1.7289.8536" fill="none"/><path d="m116.2731 226.5295c.6465-.4447 1.5148-1.4914 1.1663-2.686-.3516.5473-.8951.9339-1.5516 1.1658" fill="none"/><path d="m114.6244 228.3418c.7882-.3432 1.8574-.5529 2.7875.4574-.6519.003-1.1627.2754-1.7843.7144" fill="none"/><path d="m110.8679 230.7208c.6382-.3191 1.9204-.6399 2.7876.4574-.5518-.0128-1.2838.3206-1.7843.7144" fill="none"/><path d="m105.6009 262.9883c-.8071-.3968-2.2786.5944-2.5189.8563l-1.3246-1.2797c.8669-1.2206 3.7327-1.6858 3.8436.4234z" fill="#ed1c24"/><path d="m107.2283 270.0225c-.3842-.9579-2.3415-1.0783-2.7346-1.0029l.1248-2.0142c1.5673-.0887 3.2576.9297 2.6099 3.0171z" fill="#ed1c24"/><path d="m103.8558 274.5001c-.8216-1.107-1.8173-1.9487-2.1878-2.2079l1.7636-1.2266c1.1218 1.0466 1.3892 1.9758.4242 3.4346z" fill="#ed1c24"/><path d="m95.1965 273.8112c-.3049-.953.4311-2.9353.5618-3.2496l-2.1404.0971c-.7636 1.286-.1428 3.2532 1.5786 3.1525z" fill="#ed1c24"/><path d="m90.9231 257.4985c-.6125.3439-1.2775 2.4425-.8064 2.9907 1.0754 1.2511 2.2823 1.1882 3.1237 1.7255.7034.4492 2.4726 2.4225 3.2923 3.0517.6588.5057 1.9562 1.1841 2.0928.9488-.1361.2364-1.4235-.4381-2.0928-.9488.6665.5101 1.5284-.1861 1.7503-.3069.7462-.4064 1.245-.9517 1.3784-1.9909.1885-1.4684 2.2351-1.6666 2.7678-.0956 1.4693.6451.9778 1.2891.5892 2.4599-.153.4607-1.0777.4779-1.7408.5023.6704-.0286 1.5902-.0437 1.7408-.5023.5157-.2111 1.7162.4417 2.1154 1.2751.2058.4293-.2758.9517-.2748 1.3985.004.9145-.1809 1.3953-1.2431 1.6365-.2463-.2872-1.0419-.838-1.5236-1.1591.4802.3206 1.2784.8765 1.5236 1.1591.4242.4887.5715 1.0156.1415 1.8368-.1126.2153-.4254.5372-.9826.5298-.7408.5466-1.2136.8599-1.891.432-1.1242-.7103-.9523-2.4436-1.5198-2.6198-.8242-.2551-.7808-1.0045-1.7005-1.5878-.7514-.4767-1.8426-.0712-1.7182.3724.1261.4493.6078.8141.6549 1.2909.1643 1.6623-4.4898 1.4737-4.7618.2767-.1771-.7792 1.2627-1.7433.1304-2.9398-1.4827-1.5666-2.1375 1.2565-4.3942.4567-1.5534-.5505 2.8225-1.8748 1.1018-2.2305-1.6205-.3349-3.4456.8898-4.3203-.4962-.4771-.7561 2.7256-.6357 1.1458-1.4445-1.0576-.5415-3.6563.4182-3.9535-.9262-.2046-.9253 2.1708-.4974 2.0001-1.4288-.1866-1.0179-3.7003-.1678-3.9296-1.8265-.1019-.7376 1.6376-.3701 1.6692-.8876.0226-.3733-.8039-.1349-1.1559-.7428-.7125-1.2304-1.3232-5.3592-.1567-3.9107.7354.9132 1.1817 1.176 1.534 1.7949-.2719-.7766.4766-3.7741.5802-3.9631.4547-.8298-2.1608-2.064-3.2939-4.2832-.9442-1.8492-1.4269-3.4473-1.4142-5.5351l9.2116-2.0879c-1.0473 3.6559.2725 4.4501 2.5126 5.3454 2.7668 1.1059 7.2098 4.1633 6.4258 7.4536 1.8852.7915 2.6944.1402 3.1825-.2312.3159-.2403 2.4096.0187 2.9166 1.3149.5593 1.4298 1.7153 1.7378 2.2091 1.9968-.7177 1.1686-2.205 1.0361-3.5214.2638-1.0132-.5943-1.5204-1.7179-2.0122-1.9345-1.2087-.5324-1.6008.828-3.1627-.108-.674 1.1629-2.1177 2.4942-4.2205 3.6749z" fill="#ed1c24"/><path d="m72.1624 237.728c-5.4291 3.7818-10.624 7.1152-12.2381 6.279-2.9632-1.5351 2.7312-3.6792 4.8839-6.4674 4.5226-5.8577.7412-8.29-3.2528-9.6944-3.8142-1.3411-4.4086-1.2168-6.0555-2.5135 0 1.1554.5163 2.0356 2.0336 2.5881-2.0913 1.5527 1.9851 3.2869 4.5706 6.4772 1.3287 1.6396 1.3474 2.8652-.9937 4.7498-1.2767 1.0278-2.553 1.6294-3.6219 3.2215-1.8989-2.5489 5.1518-5.0946.4029-7.0298.8625 1.3053-2.3914 3.8118-2.3914 6.0424 0 .8323.7118 1.7503 2.0594 2.4567 1.4817 2.7229 5.1913 2.8458 15.2997-5.2037z" fill="#ed1c24"/><path d="m57.5336 227.9198c5.0337 1.8143 6.5044 3.8713 7.4454 6.8575" fill="none"/><path d="m75.1585 266.7534c-1.4033-.8713-3.5731-.2595-3.8911-.095l-.5348-1.8928c1.2432-.8512 3.9693-.1586 4.4259 1.9877z" fill="#ed1c24"/><path d="m74.9516 272.6353c-.4242-1.1044-2.7358-1.7747-3.0405-1.8246l.5324-1.9364c1.3043.0446 2.9726 1.8118 2.5082 3.761z" fill="#ed1c24"/><path d="m66.6445 274.5001c.7463-1.3969-.47-2.7217-.6146-3.0188l2.3059-.5692c.775 1.1908.3915 3.0723-1.6913 3.588z" fill="#ed1c24"/><path d="m61.4314 272.9232c-.9729-.9243-.1883-3.4469-.1148-3.7933l-2.182-.8234c-.6933 2.7386.0798 4.2798 2.2968 4.6167z" fill="#ed1c24"/><path d="m78.3581 244.8742c.7003 1.9403 2.9608 2.3563 3.511 1.5921.4129-.5736-.0401-1.1278-.2617-1.3912 3.4982.1063 3.4704-1.3115 3.1586-2.2265z" fill="none"/><path d="m102.2383 240.5708c-10.8618-.9376-12.3905 1.3242-15.7899 2.1567-15.4157 3.775-8.4251 4.0704-10.165 10.4081-.1402.5119-.6526.9675-1.2463 1.3856-.4599 1.1786.8702 2.0534.1637 3.2646-.6794 1.1648-1.9656 2.8716-.8657 4.1253-5.0611-2.2175.1967-4.1218-.6451-6.5955-.8643.4415-1.737.7956-2.2737 1.0415-2.2559 1.0338-6.1289-.921-6.1177 1.4669.0103 2.1916-.5332 4.6424-.0639 6.1586.3766 1.2168 1.4395 2.914 2.5197 3.2638-1.0852-.3501-2.1454-2.0426-2.5197-3.2638.4821 1.5157 4.0763-.331 4.7015-.2574 1.1972.1411 1.8179.9512 1.6338 1.9209-.0357.1869.1712.4857.2392.6996.2593.8155-1.559.8126-2.5052.7027 1.6589.7198 2.5623.0719 2.8232.1153 1.6916.2818.8315 1.6099.7 2.5628-.0278.1998-.2793 2.0978-1.8398 1.7435-1.0046-.2281-1.1463-1.425-1.4519-1.518-.3739-.1139-1.2891-.7496-1.8909-1.5143-.2726.5187.7193.9786 1.4593 1.8388 1.3458 1.5648-4.4446 2.6883-4.1303.7367.116-.7208.4282-1.0411.1976-1.7554-.3457-1.0716-1.9153-.5082-2.7256-2.0163-.2916.7077.3817 1.863-.2193 2.8865-.6419 1.0933-4.3307-1.1168-4.1841-1.8441.3079-1.5276 2.4261-1.6372 1.4677-3.9462-.2218-.5341-2.5889-1.0939-3.2298-3.2878-.2305-.7892 2.2707.3927 2.4448-.0163.3261-.766-2.8375-3.1668-2.6531-3.6762.2822-.7796 2.2382.6486 2.428.1829.266-.6528-3.1723-3.6556-2.993-4.2658.203-.6911 2.4414.5923 2.8949.3404.774-.4298-2.2157-2.6523-1.7804-4.1339.1824-.621 1.4718 1.246 1.915.4809.5937-1.0245.3992-2.8793.5074-3.3598.141-.6257 1.1505 1.812 1.1599 2.2991.2357-.8972 4.0807-.0866 4.9485-1.3207.9454-1.3443 1.8004-2.8225 2.6436-5.3883 2.4864-7.5665 17.8108-9.38 25.7-17.8039z" fill="#ed1c24"/><path d="m118.5138 252.8357c.115-1.0334.4765-1.2564 1.2856-1.5034.9538.4457 1.7997.5072 2.5188.1998.759-.3244 1.5021-.7774 2.2771-.6609.9872.1483 1.5099 1.596 2.2736 1.7553 1.4375.2999 2.0101-1.4486 1.4834-2.6253-.39-.8713-2.3656-.5796-3.3851-.522.3238-.2123.5957-.5253.8748-.7203.131-.0917.4135.0825.5918.1796.8484.4623 1.8313-.4319 1.6108-1.2861-.2333-.9043-1.0095-1.4003-1.84-.8983-.7098.4291-1.2968 1.0639-2.0185 1.4024.2668-.1848.435-.4677.4986-.749.1694-.7495 1.1319-.4971 1.4991-.7326.4974-.319.6714-.9259.4182-1.5154-.1389-.3233-.6107-.6693-1.0364-.6742-.3159-.004-.6403.1208-.941.316-.8467.5494-1.2966 1.8538-1.7819 2.3661-.4768.5034-2.1725 1.4527-2.6942 1.0792-2.9456-2.1091-6.1799-4.9741-7.5704-6.5976l-3.5543 2.2667c1.0696.7097 2.6626 1.9229 3.186 2.2662 1.7955 1.1775 4.4765 2.9 6.3283 3.7024.3085.1337.0957.4012-.0636.4243-.7369.1066-1.7329.1097-2.2334.4618-.8683.611-.6694 1.7489-.2521 2.504.6744 1.2199 2.4198.5045 2.5247-.4386z" fill="#ed1c24"/><path d="m115.7827 251.5892c-2.6299.3735-2.4182 3.2421-.562 3.2325-.4815-1.1321.1182-1.539 1.3124-1.4791.6623-.7915-.004-1.8515-.7505-1.7534z" fill="#ed1c24" fill-rule="evenodd"/><path d="m127.6746 250.1932c2.4796-.9858 3.4589 1.6498 1.8259 2.5684-.0996-1.2337-1.0677-1.3768-1.7315-.7914-.5804-.4422-.9548-1.2291-.0944-1.777z" fill="#ed1c24" fill-rule="evenodd"/><path d="m127.1641 246.4929c1.7853-1.5454 3.8415-.1443 2.9062 1.4985-.5933-1.0225-1.7244-.7852-2.0969-.006-.8078-.1314-1.1603-.9149-.8093-1.4931z" fill="#ed1c24" fill-rule="evenodd"/><path d="m125.5654 244.4855c1.2532-1.8109 3.2449-.8131 2.4283.6466-.5339-.9174-1.279-.3231-1.6033.3704-.6338-.1311-.8752-.4976-.825-1.017z" fill="#ed1c24" fill-rule="evenodd"/><path d="m104.5481 231.6107c1.8969 2.3244 4.6869 4.8206 6.2001 5.1071-.1298.4001-.9658.5305-1.2266.5744 2.5664 2.0164 2.9202.8922 5.0878 2.35-.568.0983-1.2374.1715-1.5827.8257.9177-.0944 3.1685.6836 4.446 1.3332-1.1829.1172-1.406.6197-1.4535 1.012.4778.2866 1.6893.7551 3.1755.5038-.6906 1.0162-1.4977 1.1139-2.5169 1.0419.7158.3177 1.5141.9642 1.4905 1.3332-.9713.1166-2.1928-.1749-3.088-.7882.8603.6488 1.2605 1.3584 1.811 2.0045-1.2516.1661-2.0257-.0846-3.4521-1.3259.3864.5759.948 2.2877.7002 3.267-.3685-.2996-1.1795-1.4827-1.9045-1.7197.3656.9106.3928 1.7264-.3615 3.0812-.3684-.9432-.6415-2.1657-1.3883-3.021-.1951.5911-1.338 1.0332-2.1238.7155.6462-.2389 1.0548-1.768-.432-3.1082.0968.6751-.4649 1.5072-1.4932 1.4234.3351-.3322-.2688-1.9149-1.3381-2.8032-.19.44-.9035.867-1.4247.9214-.6538-1.8351-4.173-4.0762-5.9844-4.7747" fill="#ed1c24"/><path d="m108.8104 240.5156c.5718.3945 1.9114.6977 2.9276-.1245-.6714-.1018-1.2672-.3309-1.7123-.8863" fill="none"/><path d="m112.0814 242.9683c.7414.2571 2.0991.3358 2.8545-.653-.6492.0413-1.2828-.1672-1.8587-.5584" fill="none"/><path d="m109.6446 242.7149c.7436.4313 1.5463 1.1681 1.2841 2.516-.3891-.523-.9111-.7731-1.6331-1.0134" fill="none"/><path d="m105.5017 241.0999c.6353.3248 1.6538 1.1672 1.2842 2.516-.3169-.452-1.0192-.8438-1.6331-1.0134" fill="none"/><path d="m75.1561 225.5764c-2.8561 1.8057-8.4882 1.2558-11.7315-.1581 2.5361 3.8714 9.5148 6.0861 15.2231 3.7334z" fill="#ed1c24" fill-rule="evenodd"/><path d="m85.1846 230.2547c-1.0628 3.3778-4.6973 5.9089-8.6351 7.0288 4.08 1.7452 10.9876.5262 12.8296-5.1519z" fill="#ed1c24" fill-rule="evenodd"/><path d="m81.7626 228.6696c-1.4291 3.1529-5.8347 5.361-9.1606 5.7748 3.9603 2.2041 12.278 1.2988 13.8128-2.5261z" fill="#ed1c24" fill-rule="evenodd"/><path d="m86.7848 231.7024c-.3519 1.5252-1.3631 2.9819-3.1637 3.7952 3.0163.4104 6.0078-.9534 6.8453-2.7746z" fill="#ed1c24" fill-rule="evenodd"/><path d="m84.3529 230.4246c-.535 1.4278-1.9049 2.5325-3.6561 3.2337 4.0117 1.5631 5.8303.0578 6.8931-1.5889z" fill="#ed1c24" fill-rule="evenodd"/><path d="m77.9436 227.857c-1.8033 2.4658-6.5275 2.8464-9.9517 2.8033 3.7764 2.667 9.4729 2.65 14.5056.6929z" fill="#ed1c24" fill-rule="evenodd"/><path d="m82.2551 229.5134c-.9014 1.1402-2.5683 1.7348-4.5208 1.8469 2.8546 1.6531 5.9885 1.2988 7.4802.1179z" fill="#ed1c24" fill-rule="evenodd"/><path d="m79.541 227.2494c-1.0409.9729-2.8034 1.3091-4.8049 1.1382 2.4824 2.0344 5.1728 2.687 8.3432 1.7879z" fill="#ed1c24" fill-rule="evenodd"/><path d="m73.3466 221.2948c-4.4755.9887-11.2143-.9758-15.4541-4.1993 2.6427 5.9903 12.5371 12.6379 18.357 9.8502z" fill="#ed1c24" fill-rule="evenodd"/><path d="m75.5993 221.3101c-4.6622.3337-16.1668-8.4042-20.0993-12.1164 1.9882 6.1686 11.3082 15.4948 19.8629 16.6287z" fill="#ed1c24" fill-rule="evenodd"/><path d="m72.7155 215.9661c-4.794-1.4548-14.4215-9.584-17.2155-14.3157 0 6.0751 9.8005 18.9818 16.6607 20.1722z" fill="#ed1c24" fill-rule="evenodd"/><path d="m72.6403 214.3473c-4.4938-2.7776-11.8867-11.6118-13.523-16.7664-1.4879 5.6277 4.2472 17.3021 11.5604 20.0242z" fill="#ed1c24" fill-rule="evenodd"/><path d="m73.3874 213.4943c-3.8672-3.8753-9.7639-12.8029-10.1398-17.9941-2.9117 4.6905 1.0894 14.7948 7.8414 20.6897z" fill="#ed1c24" fill-rule="evenodd"/><path d="m80.3856 223.8739c-1.1211.5787-2.4687 1.1837-4.1911 1.1985-1.664.0143-3.434-.4364-5.3897-1.9964 2.1173 3.5353 4.0745 4.8251 6.3681 5.2117 1.0506.1771 2.498-.0656 3.3948-.2287z" fill="#ed1c24" fill-rule="evenodd"/><path d="m78.8682 220.511c-1.0526.335-2.8326.5237-4.7815.2253-1.8829-.2884-4.0128-1.7193-5.9857-3.7417 1.2616 4.0341 4.4022 7.2318 6.8822 8.0591 1.1539.3849 3.2928.5166 3.9263.3587z" fill="#ed1c24" fill-rule="evenodd"/><path d="m78.6534 218.0077c-1.6584-.2305-3.5964-.364-5.6832-1.4238-2.0161-1.0239-3.9346-3.272-5.483-6.0419.0916 4.475 2.9973 8.7568 5.6537 10.2197 1.2708.6999 3.9097 1.9201 5.083 1.8382z" fill="#ed1c24" fill-rule="evenodd"/><path d="m77.7254 215.3523c-1.7024-.5778-2.8374-.9722-4.7413-2.4774-1.8395-1.4542-3.3265-4.0258-4.3292-6.9925-.832 4.1961 1.0615 8.6747 3.4615 10.6969 1.1481.9674 3.3872 2.5225 5.3497 3.2852z" fill="#ed1c24" fill-rule="evenodd"/><path d="m78.0824 226.7724c.9353 1.3624 3.928 3.8406 8.8191 5.8704 2.6345 1.0932 3.973.4411 4.4589-.873.5709-1.5438.0485-2.7406-3.5762-3.7709-2.8093-.7985-6.3401-2.1681-6.4673-4.8454-.3566-7.5001-2.6327-7.1715-6.9056-11.6314-1.956-2.0417-2.8427-5.2662-3.0671-8.2664-1.9615 3.5248-1.4536 7.3851 1.7334 10.6063 7.4586 7.5385 1.3092 7.5273 5.0048 12.9104z" fill="#ed1c24" fill-rule="evenodd"/><path d="m99.6806 200.697c-.2734-2.4668-3.0149-3.1448-4.3772-5.1969-.2845 1.2798-.4422 3.8594 2.1363 5.5376" fill="#ed1c24"/><path d="m112.7254 204.3988c.051.6854-.1011 1.7841-2.0286 2.0966-1.8178.2948-3.1119-.4723-6.599-.7434-2.4315-.1881-4.1879.4372-5.5485.9941l.3 1.6535c.9976-.598 2.7805-1.5104 5.1305-1.3524 2.8436.1913 4.9475.8103 6.9051.4757 2.809-.4801 2.7548-2.6843 1.8406-3.124z" fill="#ed1c24" fill-rule="evenodd"/><path d="m104.6718 237.4171c2.4564-3.5151 3.64-6.4694 3.1706-9.9996 1.2918.3311 1.3432-.9032 2.4561-.7062-1.2643-1.4574-3.6857-1.8502-3.2002-3.9431.8982.2308 1.9833.3637 2.102-1.3659-2.2004-.3412-2.3055-1.7664-4.8263-1.7891 1.1006.1529 1.6609-.2112 2.5739-.9997-.532-.005-1.7712-.2839-2.1366-.7253-1.2932-1.5622-1.4441-.3659-1.8691-.9051.1426-.712-1.667-1.4522-1.907-1.9368.8727-.018 1.4661-.532 1.8174-1.6441-2.649 1.4122-4.8069-3.3751-2.4998-3.9954l-.8211-2.4523 5.2163-3.1613 1.4632-2.678c-1.0163-1.4764-1.7662-2.2107-3.2557-2.4049-2.4686-.3218-5.7988.6292-8.3827-1.0927.0946.5801.3684 1.1573 1.0403 1.5704-1.8477.9754-3.6181 2.5844-4.5367 4.2144.3766-.1674 1.121-.4503 1.6864-.397-.5317.9533-1.7666 2.2837-1.9475 3.3347-.5176.2821-1.0949 1.1875-1.2745 1.7797.4806-.1702.6456-.4032 1.1675-.3824-.549 1.2476-.6614 1.67-.6422 2.4208.0503 1.9658-1.0751 2.7576-1.8977 1.2853.1026 1.6517 1.2319 3.0289 2.4345 2.3617-.2035.3884-.3615.8958-.5513 1.3954-.2223.5851-.4883 1.1592-.9222 1.5187.3134.1282 1.8394.1835 2.1165.6374-.2762.9526.7559 2.5095-.669 3.2159-.0853 1.0639 1.5324 1.8471 2.1798 1.8028-.5883.2862-1.8745-.0254-2.1274 2.1344.6918-.652 1.002-.2298 1.6094-.567.078 1.1373-.3472 2.4132-1.0996 3.0595l-2.4752 4.2071c.2091 3.8862 5.6274 3.3575 6.909 6.0792 1.3434-.1463 2.1451-2.1623 5.5228 1.9486z" fill="#ed1c24"/><path d="m106.9392 207.8966c-.287 3.8898-4.4647 1.0701-6.5863 1.5103-.3149-.692-.9362-1.5325-.8211-2.4524 2.7288-.3778 3.1217 2.698 7.4074.9425z" fill="#ed1c24" fill-rule="evenodd"/><path d="m106.2113 201.1153c2.0111.4399 5.7582 3.1431 2.7402 4.8533-.4104-2.4316-2.728-1.8033-4.1074-.8338-.9609.6754-4.1067 1.6196-5.3123 1.8197.3084-2.4651 3.2215-1.8661 6.6795-5.8392z" fill="#ed1c24" fill-rule="evenodd"/><path d="m107.3888 228.3586c-.0131 2.072 2.2781 3.3957 1.0218 6.3132-.3016-.9612-.7687-1.6346-1.4173-2.0138.342.7891 1.2098 4.1784-.3988 5.2472.0258-.471-.1676-1.6673-.7708-3.3564" fill="#ed1c24" fill-rule="evenodd"/><path d="m95.4658 206.8678c-.4213.2589-.6936.5572-.8172.8947-.2779-.5734-.2514-1.1651.0816-1.7478" fill="none"/><path d="m92.5084 208.037c-.2797.7123-.2555 1.497.0412 2.3023.2012-.6093.581-1.1069 1.1524-1.51" fill="none"/><path d="m95.3276 211.4842c-.2393.1375-.3942.3405-.4649.6091-.3494-.4423-.4779-.8999-.4031-1.3698" fill="none"/><path d="m95.6828 224.9776c-.7438.2608-1.263.6391-1.5577 1.1345-.2734-1.0201-.0587-1.9583.6396-2.7701" fill="none"/><path d="m95.0955 227.572c.2916.3246.4539.6797.4924 1.0778.2907-.4476.4132-.9207.3413-1.3922" fill="none"/><path d="m98.2323 226.6818c.4074.5722.5419 1.3606.4206 2.3521 1.3696-1.4392 1.3691-2.7709.5919-4.0416" fill="none"/><path d="m98.5512 220.1124c.0613.6513.554 2.1591-.8265 3.2829-.0175-.4626.1815-.5645-.521-2.1677" fill="none"/><path d="m98.6587 214.6038c-.4007.7696-.7446 1.8795-1.4852 1.6245-.3253.7256-.3031 1.41-.2278 2.0357-.3808-.383-1.1392-.7384-1.2349-1.472-.0833-.6387.5487-1.1661.7267-1.6923" fill="none"/><path d="m93.7007 221.7965c.0434-.6202.3993-1.1769 1.0749-1.6494-.3873-.1665-.7448-.1074-1.0975.1314.1526-.999.7733-1.7436 1.891-2.2389" fill="none"/><path d="m95.9772 201.1492c-.6499 1.0177-.9514 2.2322-.1249 2.6164" fill="none"/><path d="m101.6163 221.9779c.8243.9422 1.0987 1.8929.8484 2.8693-.228-.3723-.5303-.5835-.9478-.6021.4307.7271.5376 1.3904.3353 1.9739" fill="none"/><path d="m93.262 212.0593c-.3098.5659-1.3462 1.7217-.5277 3.3517.1913-.5886.5482-1.3003 1.3196-1.7442" fill="none"/><path d="m101.739 217.9682c.0485.5152.4382 1.7076-.6536 2.5964-.0139-.3659.1435-.4466-.4121-1.7144" fill="none"/><path d="m97.8653 209.7137c.0485.5151.4382 1.7075-.6537 2.5963.0111-.5662-.1107-1.2651-.4121-1.7143" fill="none"/><path d="m103.6105 201.4871c-.8174-.2864-2.4031.3322-3.3828-.2061.2606.6454.3941 1.6435 2.1484 1.6622.9883.0105 1.5554-.7494 1.2344-1.4561z" fill="#e5e5e5" fill-rule="evenodd"/><path d="m102.6942 201.5076c.245.0266.4118.3265.3725.6695-.0389.3431-.2697.5995-.5146.5728-.2451-.0266-.4118-.3265-.3725-.6696.0389-.3431.2696-.5994.5147-.5728z" fill-rule="evenodd"/><path d="m105.2467 226.4152c1.1129 1.6964.9209 3.6932-.7258 6.0249-.1064-.9791-.31-1.9564-1.1696-2.9217" fill="none"/><path d="m105.1191 235.5676c.2784 1.7319-.004 4.1774-2.6492 5.1973.5197-.6392.8643-1.1864.7592-1.9884-1.1143 1.552-3.3895 1.6535-4.0322 3.6463-.2004-.8187.1294-3.651.7045-4.4806" fill="#ed1c24" fill-rule="evenodd"/><path d="m92.3466 230.5769c-1.8238.7515-2.7254 2.5199-2.599 5.4221.6084-.7491 1.4186-2.0367 2.644-2.331" fill="#ed1c24"/><path d="m92.4603 226.5157c-1.0804-.3936-2.7353-1.019-3.8803.1361.7641-.117 1.1631.6786 1.84 1.0021-2.143-.3954-2.5804.5725-3.4443 1.4635.6546-.0354 2.0024.5086 2.5164.5958-1.1432.5572-2.2901 1.7978-2.7074 2.665-.1555.1714 2.2362-1.1457 3.2196-.7135" fill="#ed1c24"/><path d="m107.168 203.3626c-.1992-.1381-.5334-.2543-.8236-.1767-.3188.0852-.1755.3969.0844.2328.2005-.1267.4753-.0559.7392-.0561z"/><path d="m101.5972 236.6061c-.5156 1.7809-2.2651 2.6121-4.121 3.2442-.6088-1.9679-1.0036-3.9612.0495-5.4509" fill="#ed1c24"/><path d="m96.6105 234.7619c-1.0611 1.7642-2.8557 2.3469-5.4682 1.6126.8072-.4852 1.5774-1.0664 2.0988-2.2954" fill="#ed1c24"/><path d="m101.223 230.4681c.7763 1.7619.2406 3.444-1.7581 5.0375.0691-.8771.0442-1.778-.6161-2.8396" fill="none"/><path d="m97.0509 230.0177c-.0516 1.3003-.4904 2.1872-1.3109 2.6925.0884-.4393.0179-.8203-.2596-1.1519-.1824.8467-.5473 1.4012-1.0742 1.6629" fill="none"/><path d="m104.8149 222.4019c.2898.4108 1.2 1.2079.6856 2.5682-.1881-.3032-.0912-.459-1.1809-1.2282" fill="none"/><path d="m98.342 200.7456c-1.3372-3.1267-4.6283-3.045-6.9851-5.2455.2263 1.7726 1.1382 5.1988 4.6712 6.4816" fill="#ed1c24"/></g><g stroke="#000" stroke-linecap="round" stroke-linejoin="round"><path d="m421.9505 195.5001c.0709 3.7186-1.5617 9.1671-3.3781 13.2049.4888-2.2571.1935-4.5165-.8316-6.5179.0475 2.7421-.3212 5.7666-1.4806 7.8285-2.5328 4.5043-4.0565 4.4521-3.8028 11.2847.0906 2.4391-2.1619 4.0665-3.9663 5.0951-2.3281 1.3271-2.5968 2.4597-2.1188 3.796.1627.4546.4113.7998.7543.9675.3742.7106 1.043 1.2689 1.8547 1.568 2.0838 2.566 5.4763 2.4683 7.5445.847-1.0511-.2305-2.0888-.6546-3.0133-1.2738 1.9463.1868 4.1233-.4367 5.4357-1.7244-1.1213-.007-2.4489-.3992-3.6419-1.1299 2.4532.0765 4.8042-.8113 6.4387-2.8012-1.2029.2188-2.6462.3642-3.9472.1496 2.9035-.3945 5.5878-2.611 6.6316-5.3846-.8972.7146-2.1107 1.3241-3.3563 1.6783 2.9012-2.1134 5.6097-6.242 6.4596-9.824-1.0649 1.3893-2.4181 2.6349-3.8578 3.5883 2.5309-3.5423 4.4338-7.818 4.9338-11.0018-.8564 1.3773-2.3336 3.4624-4.0121 5.5715 2.1712-4.3409 3.7313-9.4362 3.517-12.4107-.6116 1.8253-1.9096 4.258-3.4358 6.6381 1.1495-3.8284 1.5733-7.7319.912-10.1492-.3429 2.2311-1.4675 5.2764-2.8563 8.3034.54-3.2715.3178-6.3622-.7831-8.3034z" fill="#ed1c24" fill-rule="evenodd"/><path d="m371.9671 227.1988c.764-.7052.7293-1.1286.4487-1.9265-.9244-.5039-1.4753-1.1487-1.6541-1.91-.1887-.8035-.2644-1.6705-.8177-2.2256-.7046-.7071-2.1804-.2698-2.7614-.7904-1.0937-.9799-.0254-2.4775 1.2349-2.751.9329-.2025 1.8692 1.5615 2.4271 2.4167-.021-.3866.0699-.7911.0615-1.1315-.004-.1599-.3116-.2841-.4955-.37-.8753-.4092-.7378-1.7308.0808-2.0597.8666-.3482 1.7262-.0171 1.8142.9493.0752.826-.0881 1.675.0672 2.457-.01-.3245.1188-.6276.3076-.8456.5032-.5807-.2707-1.2063-.2988-1.6415-.0381-.5897.3477-1.0896.9725-1.2351.3426-.0798.901.095 1.1574.435.1902.2522.2823.5872.3035.9451.0595 1.0076-.7243 2.1432-.8492 2.8377-.1228.6825.118 2.6107.7281 2.8094 3.4447 1.1219 7.6694 2.0282 9.8012 2.1856l.2816 4.2061c-1.2056-.4406-3.127-1.0044-3.7138-1.2224-2.0127-.7478-4.9892-1.8859-6.7333-2.9015-.2905-.1692-.3798.1608-.3039.3027.3509.6567.939 1.4606.9521 2.0723.0226 1.0615-1.0116 1.5759-1.8671 1.6874-1.3821.1802-1.8408-1.6497-1.1434-2.2933z" fill="#ed1c24"/><path d="m374.5899 228.6594c1.2584 2.3394-1.1775 3.8695-2.2701 2.3689 1.1972-.2834 1.1692-1.0075.4131-1.9338.2448-1.0026 1.4936-1.0942 1.8569-.4351z" fill="#ed1c24" fill-rule="evenodd"/><path d="m368.6644 218.2548c-.676-2.5813-3.379-1.8076-3.1508.0521 1.0527-.6512 1.7418.0437 1.6639.9253.7002.2052 1.5558.0402 1.4869-.9774z" fill="#ed1c24" fill-rule="evenodd"/><path d="m371.967 216.4994c.1862-2.354-2.0203-3.0564-2.7888-1.3293 1.1751-.1283 1.5139.8003 1.1066 1.5626.5848.5727 1.4247.3921 1.6822-.2334z" fill="#ed1c24" fill-rule="evenodd"/><path d="m374.5114 216.5698c.7155-2.0828-1.2688-3.0953-1.9603-1.5723 1.0553-.1139 1.0185.8385.6523 1.5107.4812.4327.9195.4099 1.308.0615z" fill="#ed1c24" fill-rule="evenodd"/><path d="m397.3395 225.8634c-2.9964-.1497-6.9457-1.4336-8.0735-2.4823-.2453.3418.1453 1.0923.2646 1.3283-3.1453-.8714-2.1647-1.3061-4.6236-2.1875.2576.5157.5954 1.0982.2734 1.7641-.4681-.795-2.4289-2.1464-3.7094-2.7902.607 1.0221.3346 1.4997.0467 1.7705-.514-.2149-1.6095-.9129-2.2882-2.2586-.409 1.1585-.01 1.8664.653 2.6446-.6802-.3882-1.6741-.6478-1.9573-.41.4819.8513 1.4408 1.6623 2.4654 2.0196-1.0325-.3082-1.8413-.2098-2.6879-.2702.6082 1.1065 1.269 1.5813 3.1143 1.994-.6929.0303-2.4044.5929-3.0461 1.3729.4598.1192 1.8933.0708 2.5139.5143-.95.2455-1.6232.7072-2.2671 2.1177.978-.2625 2.1244-.7672 3.256-.6728-.3604.5075-.0389 1.6901.6828 2.1345-.1907-.662.7985-1.8976 2.7592-1.4946-.6011.3223-.9382 1.2679-.2611 2.0464.069-.4668 1.7015-.9187 3.0508-.5841-.2416.4139-.1626 1.2416.1025 1.6935 1.8654-.5614 4.9029 1.2203 6.5393 2.265" fill="#ed1c24"/><path d="m387.6413 227.7097c-.6567-.2267-1.6951-1.1257-1.6353-2.4315.48.4804 1.0178.8244 1.7289.8536" fill="none"/><path d="m383.7269 226.5295c-.6465-.4447-1.5148-1.4914-1.1663-2.686.3516.5473.8951.9339 1.5516 1.1658" fill="none"/><path d="m385.3756 228.3418c-.7882-.3432-1.8574-.5529-2.7875.4574.6519.003 1.1627.2754 1.7843.7144" fill="none"/><path d="m389.1322 230.7208c-.6382-.3191-1.9204-.6399-2.7876.4574.5518-.0128 1.2838.3206 1.7843.7144" fill="none"/><path d="m394.3991 262.9883c.8071-.3968 2.2786.5944 2.5189.8563l1.3246-1.2797c-.8669-1.2206-3.7327-1.6858-3.8436.4234z" fill="#ed1c24"/><path d="m392.7717 270.0225c.3842-.9579 2.3415-1.0783 2.7346-1.0029l-.1248-2.0142c-1.5673-.0887-3.2576.9297-2.6099 3.0171z" fill="#ed1c24"/><path d="m396.1442 274.5001c.8216-1.107 1.8173-1.9487 2.1878-2.2079l-1.7636-1.2266c-1.1218 1.0466-1.3892 1.9758-.4242 3.4346z" fill="#ed1c24"/><path d="m404.8035 273.8112c.3049-.953-.4311-2.9353-.5618-3.2496l2.1404.0971c.7636 1.286.1428 3.2532-1.5786 3.1525z" fill="#ed1c24"/><path d="m409.0769 257.4985c.6125.3439 1.2775 2.4425.8064 2.9907-1.0754 1.2511-2.2823 1.1882-3.1237 1.7255-.7034.4492-2.4726 2.4225-3.2923 3.0517-.6588.5057-1.9562 1.1841-2.0928.9488.1361.2364 1.4235-.4381 2.0928-.9488-.6665.5101-1.5284-.1861-1.7503-.3069-.7462-.4064-1.245-.9517-1.3784-1.9909-.1885-1.4684-2.2351-1.6666-2.7678-.0956-1.4693.6451-.9778 1.2891-.5892 2.4599.153.4607 1.0777.4779 1.7408.5023-.6704-.0286-1.5902-.0437-1.7408-.5023-.5157-.2111-1.7162.4417-2.1154 1.2751-.2058.4293.2758.9517.2748 1.3985-.004.9145.1809 1.3953 1.2431 1.6365.2463-.2872 1.0419-.838 1.5236-1.1591-.4802.3206-1.2784.8765-1.5236 1.1591-.4242.4887-.5715 1.0156-.1415 1.8368.1126.2153.4254.5372.9826.5298.7408.5466 1.2136.8599 1.891.432 1.1242-.7103.9523-2.4436 1.5198-2.6198.8242-.2551.7808-1.0045 1.7005-1.5878.7514-.4767 1.8426-.0712 1.7182.3724-.1261.4493-.6078.8141-.6549 1.2909-.1643 1.6623 4.4898 1.4737 4.7618.2767.1771-.7792-1.2627-1.7433-.1304-2.9398 1.4827-1.5666 2.1375 1.2565 4.3942.4567 1.5534-.5505-2.8225-1.8748-1.1018-2.2305 1.6205-.3349 3.4456.8898 4.3203-.4962.4771-.7561-2.7256-.6357-1.1458-1.4445 1.0576-.5415 3.6563.4182 3.9535-.9262.2046-.9253-2.1708-.4974-2.0001-1.4288.1866-1.0179 3.7003-.1678 3.9296-1.8265.1019-.7376-1.6376-.3701-1.6692-.8876-.0226-.3733.8039-.1349 1.1559-.7428.7125-1.2304 1.3232-5.3592.1567-3.9107-.7354.9132-1.1817 1.176-1.534 1.7949.2719-.7766-.4766-3.7741-.5802-3.9631-.4547-.8298 2.1608-2.064 3.2939-4.2832.9442-1.8492 1.4269-3.4473 1.4142-5.5351l-9.2116-2.0879c1.0473 3.6559-.2725 4.4501-2.5126 5.3454-2.7668 1.1059-7.2098 4.1633-6.4258 7.4536-1.8852.7915-2.6944.1402-3.1825-.2312-.3159-.2403-2.4096.0187-2.9166 1.3149-.5593 1.4298-1.7153 1.7378-2.2091 1.9968.7177 1.1686 2.205 1.0361 3.5214.2638 1.0132-.5943 1.5204-1.7179 2.0122-1.9345 1.2087-.5324 1.6008.828 3.1627-.108.674 1.1629 2.1177 2.4942 4.2205 3.6749z" fill="#ed1c24"/><path d="m427.8376 237.728c5.4291 3.7818 10.624 7.1152 12.2381 6.279 2.9632-1.5351-2.7312-3.6792-4.8839-6.4674-4.5226-5.8577-.7412-8.29 3.2528-9.6944 3.8142-1.3411 4.4086-1.2168 6.0555-2.5135 0 1.1554-.5163 2.0356-2.0336 2.5881 2.0913 1.5527-1.9851 3.2869-4.5706 6.4772-1.3287 1.6396-1.3474 2.8652.9937 4.7498 1.2767 1.0278 2.553 1.6294 3.6219 3.2215 1.8989-2.5489-5.1518-5.0946-.4029-7.0298-.8625 1.3053 2.3914 3.8118 2.3914 6.0424 0 .8323-.7118 1.7503-2.0594 2.4567-1.4817 2.7229-5.1913 2.8458-15.2997-5.2037z" fill="#ed1c24"/><path d="m442.4664 227.9198c-5.0337 1.8143-6.5044 3.8713-7.4454 6.8575" fill="none"/><path d="m424.8415 266.7534c1.4033-.8713 3.5731-.2595 3.8911-.095l.5348-1.8928c-1.2432-.8512-3.9693-.1586-4.4259 1.9877z" fill="#ed1c24"/><path d="m425.0484 272.6353c.4242-1.1044 2.7358-1.7747 3.0405-1.8246l-.5324-1.9364c-1.3043.0446-2.9726 1.8118-2.5082 3.761z" fill="#ed1c24"/><path d="m433.3555 274.5001c-.7463-1.3969.47-2.7217.6146-3.0188l-2.3059-.5692c-.775 1.1908-.3915 3.0723 1.6913 3.588z" fill="#ed1c24"/><path d="m438.5686 272.9232c.9729-.9243.1883-3.4469.1148-3.7933l2.182-.8234c.6933 2.7386-.0798 4.2798-2.2968 4.6167z" fill="#ed1c24"/><path d="m421.6419 244.8742c-.7003 1.9403-2.9608 2.3563-3.511 1.5921-.4129-.5736.0401-1.1278.2617-1.3912-3.4982.1063-3.4704-1.3115-3.1586-2.2265z" fill="none"/><path d="m397.7617 240.5708c10.8618-.9376 12.3905 1.3242 15.7899 2.1567 15.4157 3.775 8.4251 4.0704 10.165 10.4081.1402.5119.6526.9675 1.2463 1.3856.4599 1.1786-.8702 2.0534-.1637 3.2646.6794 1.1648 1.9656 2.8716.8657 4.1253 5.0611-2.2175-.1967-4.1218.6451-6.5955.8643.4415 1.737.7956 2.2737 1.0415 2.2559 1.0338 6.1289-.921 6.1177 1.4669-.0103 2.1916.5332 4.6424.0639 6.1586-.3766 1.2168-1.4395 2.914-2.5197 3.2638 1.0852-.3501 2.1454-2.0426 2.5197-3.2638-.4821 1.5157-4.0763-.331-4.7015-.2574-1.1972.1411-1.8179.9512-1.6338 1.9209.0357.1869-.1712.4857-.2392.6996-.2593.8155 1.559.8126 2.5052.7027-1.6589.7198-2.5623.0719-2.8232.1153-1.6916.2818-.8315 1.6099-.7 2.5628.0278.1998.2793 2.0978 1.8398 1.7435 1.0046-.2281 1.1463-1.425 1.4519-1.518.3739-.1139 1.2891-.7496 1.8909-1.5143.2726.5187-.7193.9786-1.4593 1.8388-1.3458 1.5648 4.4446 2.6883 4.1303.7367-.116-.7208-.4282-1.0411-.1976-1.7554.3457-1.0716 1.9153-.5082 2.7256-2.0163.2916.7077-.3817 1.863.2193 2.8865.6419 1.0933 4.3307-1.1168 4.1841-1.8441-.3079-1.5276-2.4261-1.6372-1.4677-3.9462.2218-.5341 2.5889-1.0939 3.2298-3.2878.2305-.7892-2.2707.3927-2.4448-.0163-.3261-.766 2.8375-3.1668 2.6531-3.6762-.2822-.7796-2.2382.6486-2.428.1829-.266-.6528 3.1723-3.6556 2.993-4.2658-.203-.6911-2.4414.5923-2.8949.3404-.774-.4298 2.2157-2.6523 1.7804-4.1339-.1824-.621-1.4718 1.246-1.915.4809-.5937-1.0245-.3992-2.8793-.5074-3.3598-.141-.6257-1.1505 1.812-1.1599 2.2991-.2357-.8972-4.0807-.0866-4.9485-1.3207-.9454-1.3443-1.8004-2.8225-2.6436-5.3883-2.4864-7.5665-17.8108-9.38-25.7-17.8039z" fill="#ed1c24"/><path d="m381.4862 252.8357c-.115-1.0334-.4765-1.2564-1.2856-1.5034-.9538.4457-1.7997.5072-2.5188.1998-.759-.3244-1.5021-.7774-2.2771-.6609-.9872.1483-1.5099 1.596-2.2736 1.7553-1.4375.2999-2.0101-1.4486-1.4834-2.6253.39-.8713 2.3656-.5796 3.3851-.522-.3238-.2123-.5957-.5253-.8748-.7203-.131-.0917-.4135.0825-.5918.1796-.8484.4623-1.8313-.4319-1.6108-1.2861.2333-.9043 1.0095-1.4003 1.84-.8983.7098.4291 1.2968 1.0639 2.0185 1.4024-.2668-.1848-.435-.4677-.4986-.749-.1694-.7495-1.1319-.4971-1.4991-.7326-.4974-.319-.6714-.9259-.4182-1.5154.1389-.3233.6107-.6693 1.0364-.6742.3159-.004.6403.1208.941.316.8467.5494 1.2966 1.8538 1.7819 2.3661.4768.5034 2.1725 1.4527 2.6942 1.0792 2.9456-2.1091 6.1799-4.9741 7.5704-6.5976l3.5543 2.2667c-1.0696.7097-2.6626 1.9229-3.186 2.2662-1.7955 1.1775-4.4765 2.9-6.3283 3.7024-.3085.1337-.0957.4012.0636.4243.7369.1066 1.7329.1097 2.2334.4618.8683.611.6694 1.7489.2521 2.504-.6744 1.2199-2.4198.5045-2.5247-.4386z" fill="#ed1c24"/><path d="m384.2173 251.5892c2.6299.3735 2.4182 3.2421.562 3.2325.4815-1.1321-.1182-1.539-1.3124-1.4791-.6623-.7915.004-1.8515.7505-1.7534z" fill="#ed1c24" fill-rule="evenodd"/><path d="m372.3254 250.1932c-2.4796-.9858-3.4589 1.6498-1.8259 2.5684.0996-1.2337 1.0677-1.3768 1.7315-.7914.5804-.4422.9548-1.2291.0944-1.777z" fill="#ed1c24" fill-rule="evenodd"/><path d="m372.8359 246.4929c-1.7853-1.5454-3.8415-.1443-2.9062 1.4985.5933-1.0225 1.7244-.7852 2.0969-.006.8078-.1314 1.1603-.9149.8093-1.4931z" fill="#ed1c24" fill-rule="evenodd"/><path d="m374.4346 244.4855c-1.2532-1.8109-3.2449-.8131-2.4283.6466.5339-.9174 1.279-.3231 1.6033.3704.6338-.1311.8752-.4976.825-1.017z" fill="#ed1c24" fill-rule="evenodd"/><path d="m395.4519 231.6107c-1.8969 2.3244-4.6869 4.8206-6.2001 5.1071.1298.4001.9658.5305 1.2266.5744-2.5664 2.0164-2.9202.8922-5.0878 2.35.568.0983 1.2374.1715 1.5827.8257-.9177-.0944-3.1685.6836-4.446 1.3332 1.1829.1172 1.406.6197 1.4535 1.012-.4778.2866-1.6893.7551-3.1755.5038.6906 1.0162 1.4977 1.1139 2.5169 1.0419-.7158.3177-1.5141.9642-1.4905 1.3332.9713.1166 2.1928-.1749 3.088-.7882-.8603.6488-1.2605 1.3584-1.811 2.0045 1.2516.1661 2.0257-.0846 3.4521-1.3259-.3864.5759-.948 2.2877-.7002 3.267.3685-.2996 1.1795-1.4827 1.9045-1.7197-.3656.9106-.3928 1.7264.3615 3.0812.3684-.9432.6415-2.1657 1.3883-3.021.1951.5911 1.338 1.0332 2.1238.7155-.6462-.2389-1.0548-1.768.432-3.1082-.0968.6751.4649 1.5072 1.4932 1.4234-.3351-.3322.2688-1.9149 1.3381-2.8032.19.44.9035.867 1.4247.9214.6538-1.8351 4.173-4.0762 5.9844-4.7747" fill="#ed1c24"/><path d="m391.1896 240.5156c-.5718.3945-1.9114.6977-2.9276-.1245.6714-.1018 1.2672-.3309 1.7123-.8863" fill="none"/><path d="m387.9186 242.9683c-.7414.2571-2.0991.3358-2.8545-.653.6492.0413 1.2828-.1672 1.8587-.5584" fill="none"/><path d="m390.3554 242.7149c-.7436.4313-1.5463 1.1681-1.2841 2.516.3891-.523.9111-.7731 1.6331-1.0134" fill="none"/><path d="m394.4983 241.0999c-.6353.3248-1.6538 1.1672-1.2842 2.516.3169-.452 1.0192-.8438 1.6331-1.0134" fill="none"/><path d="m424.8439 225.5764c2.8561 1.8057 8.4882 1.2558 11.7315-.1581-2.5361 3.8714-9.5148 6.0861-15.2231 3.7334z" fill="#ed1c24" fill-rule="evenodd"/><path d="m414.8154 230.2547c1.0628 3.3778 4.6973 5.9089 8.6351 7.0288-4.08 1.7452-10.9876.5262-12.8296-5.1519z" fill="#ed1c24" fill-rule="evenodd"/><path d="m418.2375 228.6696c1.4291 3.1529 5.8347 5.361 9.1606 5.7748-3.9603 2.2041-12.278 1.2988-13.8128-2.5261z" fill="#ed1c24" fill-rule="evenodd"/><path d="m413.2152 231.7024c.3519 1.5252 1.3631 2.9819 3.1637 3.7952-3.0163.4104-6.0078-.9534-6.8453-2.7746z" fill="#ed1c24" fill-rule="evenodd"/><path d="m415.6471 230.4246c.535 1.4278 1.9049 2.5325 3.6561 3.2337-4.0117 1.5631-5.8303.0578-6.8931-1.5889z" fill="#ed1c24" fill-rule="evenodd"/><path d="m422.0564 227.857c1.8033 2.4658 6.5275 2.8464 9.9517 2.8033-3.7764 2.667-9.4729 2.65-14.5056.6929z" fill="#ed1c24" fill-rule="evenodd"/><path d="m417.7449 229.5134c.9014 1.1402 2.5683 1.7348 4.5208 1.8469-2.8546 1.6531-5.9885 1.2988-7.4802.1179z" fill="#ed1c24" fill-rule="evenodd"/><path d="m420.459 227.2494c1.0409.9729 2.8034 1.3091 4.8049 1.1382-2.4824 2.0344-5.1728 2.687-8.3432 1.7879z" fill="#ed1c24" fill-rule="evenodd"/><path d="m426.6534 221.2948c4.4755.9887 11.2143-.9758 15.4541-4.1993-2.6427 5.9903-12.5371 12.6379-18.357 9.8502z" fill="#ed1c24" fill-rule="evenodd"/><path d="m424.4007 221.3101c4.6622.3337 16.1668-8.4042 20.0993-12.1164-1.9882 6.1686-11.3082 15.4948-19.8629 16.6287z" fill="#ed1c24" fill-rule="evenodd"/><path d="m427.2845 215.9661c4.794-1.4548 14.4215-9.584 17.2155-14.3157 0 6.0751-9.8005 18.9818-16.6607 20.1722z" fill="#ed1c24" fill-rule="evenodd"/><path d="m427.3597 214.3473c4.4938-2.7776 11.8867-11.6118 13.523-16.7664 1.4879 5.6277-4.2472 17.3021-11.5604 20.0242z" fill="#ed1c24" fill-rule="evenodd"/><path d="m426.6126 213.4943c3.8672-3.8753 9.7639-12.8029 10.1398-17.9941 2.9117 4.6905-1.0894 14.7948-7.8414 20.6897z" fill="#ed1c24" fill-rule="evenodd"/><path d="m419.6144 223.8739c1.1211.5787 2.4687 1.1837 4.1911 1.1985 1.664.0143 3.434-.4364 5.3897-1.9964-2.1173 3.5353-4.0745 4.8251-6.3681 5.2117-1.0506.1771-2.498-.0656-3.3948-.2287z" fill="#ed1c24" fill-rule="evenodd"/><path d="m421.1318 220.511c1.0526.335 2.8326.5237 4.7815.2253 1.8829-.2884 4.0128-1.7193 5.9857-3.7417-1.2616 4.0341-4.4022 7.2318-6.8822 8.0591-1.1539.3849-3.2928.5166-3.9263.3587z" fill="#ed1c24" fill-rule="evenodd"/><path d="m421.3466 218.0077c1.6584-.2305 3.5964-.364 5.6832-1.4238 2.0161-1.0239 3.9346-3.272 5.483-6.0419-.0916 4.475-2.9973 8.7568-5.6537 10.2197-1.2708.6999-3.9097 1.9201-5.083 1.8382z" fill="#ed1c24" fill-rule="evenodd"/><path d="m422.2746 215.3523c1.7024-.5778 2.8374-.9722 4.7413-2.4774 1.8395-1.4542 3.3265-4.0258 4.3292-6.9925.832 4.1961-1.0615 8.6747-3.4615 10.6969-1.1481.9674-3.3872 2.5225-5.3497 3.2852z" fill="#ed1c24" fill-rule="evenodd"/><path d="m421.9177 226.7724c-.9353 1.3624-3.928 3.8406-8.8191 5.8704-2.6345 1.0932-3.973.4411-4.4589-.873-.5709-1.5438-.0485-2.7406 3.5762-3.7709 2.8093-.7985 6.3401-2.1681 6.4673-4.8454.3566-7.5001 2.6327-7.1715 6.9056-11.6314 1.956-2.0417 2.8427-5.2662 3.0671-8.2664 1.9615 3.5248 1.4536 7.3851-1.7334 10.6063-7.4586 7.5385-1.3092 7.5273-5.0048 12.9104z" fill="#ed1c24" fill-rule="evenodd"/><path d="m400.3194 200.697c.2734-2.4668 3.0149-3.1448 4.3772-5.1969.2845 1.2798.4422 3.8594-2.1363 5.5376" fill="#ed1c24"/><path d="m387.2746 204.3988c-.051.6854.1011 1.7841 2.0286 2.0966 1.8178.2948 3.1119-.4723 6.599-.7434 2.4315-.1881 4.1879.4372 5.5485.9941l-.3 1.6535c-.9976-.598-2.7805-1.5104-5.1305-1.3524-2.8436.1913-4.9475.8103-6.9051.4757-2.809-.4801-2.7548-2.6843-1.8406-3.124z" fill="#ed1c24" fill-rule="evenodd"/><path d="m395.3282 237.4171c-2.4564-3.5151-3.64-6.4694-3.1706-9.9996-1.2918.3311-1.3432-.9032-2.4561-.7062 1.2643-1.4574 3.6857-1.8502 3.2002-3.9431-.8982.2308-1.9833.3637-2.102-1.3659 2.2004-.3412 2.3055-1.7664 4.8263-1.7891-1.1006.1529-1.6609-.2112-2.5739-.9997.532-.005 1.7712-.2839 2.1366-.7253 1.2932-1.5622 1.4441-.3659 1.8691-.9051-.1426-.712 1.667-1.4522 1.907-1.9368-.8727-.018-1.4661-.532-1.8174-1.6441 2.649 1.4122 4.8069-3.3751 2.4998-3.9954l.8211-2.4523-5.2163-3.1613-1.4632-2.678c1.0163-1.4764 1.7662-2.2107 3.2557-2.4049 2.4686-.3218 5.7988.6292 8.3827-1.0927-.0946.5801-.3684 1.1573-1.0403 1.5704 1.8477.9754 3.6181 2.5844 4.5367 4.2144-.3766-.1674-1.121-.4503-1.6864-.397.5317.9533 1.7666 2.2837 1.9475 3.3347.5176.2821 1.0949 1.1875 1.2745 1.7797-.4806-.1702-.6456-.4032-1.1675-.3824.549 1.2476.6614 1.67.6422 2.4208-.0503 1.9658 1.0751 2.7576 1.8977 1.2853-.1026 1.6517-1.2319 3.0289-2.4345 2.3617.2035.3884.3615.8958.5513 1.3954.2223.5851.4883 1.1592.9222 1.5187-.3134.1282-1.8394.1835-2.1165.6374.2762.9526-.7559 2.5095.669 3.2159.0853 1.0639-1.5324 1.8471-2.1798 1.8028.5883.2862 1.8745-.0254 2.1274 2.1344-.6918-.652-1.002-.2298-1.6094-.567-.078 1.1373.3472 2.4132 1.0996 3.0595l2.4752 4.2071c-.2091 3.8862-5.6274 3.3575-6.909 6.0792-1.3434-.1463-2.1451-2.1623-5.5228 1.9486z" fill="#ed1c24"/><path d="m393.0608 207.8966c.287 3.8898 4.4647 1.0701 6.5863 1.5103.3149-.692.9362-1.5325.8211-2.4524-2.7288-.3778-3.1217 2.698-7.4074.9425z" fill="#ed1c24" fill-rule="evenodd"/><path d="m393.7887 201.1153c-2.0111.4399-5.7582 3.1431-2.7402 4.8533.4104-2.4316 2.728-1.8033 4.1074-.8338.9609.6754 4.1067 1.6196 5.3123 1.8197-.3084-2.4651-3.2215-1.8661-6.6795-5.8392z" fill="#ed1c24" fill-rule="evenodd"/><path d="m392.6112 228.3586c.0131 2.072-2.2781 3.3957-1.0218 6.3132.3016-.9612.7687-1.6346 1.4173-2.0138-.342.7891-1.2098 4.1784.3988 5.2472-.0258-.471.1676-1.6673.7708-3.3564" fill="#ed1c24" fill-rule="evenodd"/><path d="m404.5342 206.8678c.4213.2589.6936.5572.8172.8947.2779-.5734.2514-1.1651-.0816-1.7478" fill="none"/><path d="m407.4916 208.037c.2797.7123.2555 1.497-.0412 2.3023-.2012-.6093-.581-1.1069-1.1524-1.51" fill="none"/><path d="m404.6724 211.4842c.2393.1375.3942.3405.4649.6091.3494-.4423.4779-.8999.4031-1.3698" fill="none"/><path d="m404.3173 224.9776c.7438.2608 1.263.6391 1.5577 1.1345.2734-1.0201.0587-1.9583-.6396-2.7701" fill="none"/><path d="m404.9045 227.572c-.2916.3246-.4539.6797-.4924 1.0778-.2907-.4476-.4132-.9207-.3413-1.3922" fill="none"/><path d="m401.7677 226.6818c-.4074.5722-.5419 1.3606-.4206 2.3521-1.3696-1.4392-1.3691-2.7709-.5919-4.0416" fill="none"/><path d="m401.4488 220.1124c-.0613.6513-.554 2.1591.8265 3.2829.0175-.4626-.1815-.5645.521-2.1677" fill="none"/><path d="m401.3413 214.6038c.4007.7696.7446 1.8795 1.4852 1.6245.3253.7256.3031 1.41.2278 2.0357.3808-.383 1.1392-.7384 1.2349-1.472.0833-.6387-.5487-1.1661-.7267-1.6923" fill="none"/><path d="m406.2993 221.7965c-.0434-.6202-.3993-1.1769-1.0749-1.6494.3873-.1665.7448-.1074 1.0975.1314-.1526-.999-.7733-1.7436-1.891-2.2389" fill="none"/><path d="m404.0228 201.1492c.6499 1.0177.9514 2.2322.1249 2.6164" fill="none"/><path d="m398.3837 221.9779c-.8243.9422-1.0987 1.8929-.8484 2.8693.228-.3723.5303-.5835.9478-.6021-.4307.7271-.5376 1.3904-.3353 1.9739" fill="none"/><path d="m406.738 212.0593c.3098.5659 1.3462 1.7217.5277 3.3517-.1913-.5886-.5482-1.3003-1.3196-1.7442" fill="none"/><path d="m398.261 217.9682c-.0485.5152-.4382 1.7076.6536 2.5964.0139-.3659-.1435-.4466.4121-1.7144" fill="none"/><path d="m402.1348 209.7137c-.0485.5151-.4382 1.7075.6537 2.5963-.0111-.5662.1107-1.2651.4121-1.7143" fill="none"/><path d="m396.3895 201.4871c.8174-.2864 2.4031.3322 3.3828-.2061-.2606.6454-.3941 1.6435-2.1484 1.6622-.9883.0105-1.5554-.7494-1.2344-1.4561z" fill="#e5e5e5" fill-rule="evenodd"/><path d="m397.3058 201.5076c-.245.0266-.4118.3265-.3725.6695.0389.3431.2697.5995.5146.5728.2451-.0266.4118-.3265.3725-.6696-.0389-.3431-.2696-.5994-.5147-.5728z" fill-rule="evenodd"/><path d="m394.7533 226.4152c-1.1129 1.6964-.9209 3.6932.7258 6.0249.1064-.9791.31-1.9564 1.1696-2.9217" fill="none"/><path d="m394.8809 235.5676c-.2784 1.7319.004 4.1774 2.6492 5.1973-.5197-.6392-.8643-1.1864-.7592-1.9884 1.1143 1.552 3.3895 1.6535 4.0322 3.6463.2004-.8187-.1294-3.651-.7045-4.4806" fill="#ed1c24" fill-rule="evenodd"/><path d="m407.6534 230.5769c1.8238.7515 2.7254 2.5199 2.599 5.4221-.6084-.7491-1.4186-2.0367-2.644-2.331" fill="#ed1c24"/><path d="m407.5397 226.5157c1.0804-.3936 2.7353-1.019 3.8803.1361-.7641-.117-1.1631.6786-1.84 1.0021 2.143-.3954 2.5804.5725 3.4443 1.4635-.6546-.0354-2.0024.5086-2.5164.5958 1.1432.5572 2.2901 1.7978 2.7074 2.665.1555.1714-2.2362-1.1457-3.2196-.7135" fill="#ed1c24"/><path d="m392.832 203.3626c.1992-.1381.5334-.2543.8236-.1767.3188.0852.1755.3969-.0844.2328-.2005-.1267-.4753-.0559-.7392-.0561z"/><path d="m398.4029 236.6061c.5156 1.7809 2.2651 2.6121 4.121 3.2442.6088-1.9679 1.0036-3.9612-.0495-5.4509" fill="#ed1c24"/><path d="m403.3895 234.7619c1.0611 1.7642 2.8557 2.3469 5.4682 1.6126-.8072-.4852-1.5774-1.0664-2.0988-2.2954" fill="#ed1c24"/><path d="m398.777 230.4681c-.7763 1.7619-.2406 3.444 1.7581 5.0375-.0691-.8771-.0442-1.778.6161-2.8396" fill="none"/><path d="m402.9491 230.0177c.0516 1.3003.4904 2.1872 1.3109 2.6925-.0884-.4393-.0179-.8203.2596-1.1519.1824.8467.5473 1.4012 1.0742 1.6629" fill="none"/><path d="m395.1851 222.4019c-.2898.4108-1.2 1.2079-.6856 2.5682.1881-.3032.0912-.459 1.1809-1.2282" fill="none"/><path d="m401.658 200.7456c1.3372-3.1267 4.6283-3.045 6.9851-5.2455-.2263 1.7726-1.1382 5.1988-4.6712 6.4816" fill="#ed1c24"/></g></g><path d="m1.5 1.5v473.25c0 68.35 55.4 123.75 123.75 123.75h62.375c27.18 0 50.966 17.254 62.375 40 11.409-22.746 35.195-40 62.375-40h62.375c68.35 0 123.75-55.4 123.75-123.75v-473.25z" fill="none" stroke="#000" stroke-linecap="round" stroke-linejoin="round" stroke-width="3"/></svg>