<?xml version="1.0" encoding="utf-8"?><!DOCTYPE svg PUBLIC "-//W3C//DTD SVG 1.1//EN" "http://www.w3.org/Graphics/SVG/1.1/DTD/svg11.dtd"><svg viewBox="0 0 580 680" xmlns="http://www.w3.org/2000/svg"><g stroke="#000" stroke-linecap="round" stroke-linejoin="round"><path d="m.5 69.5c24.083 24.098 40 54.636 40 90.5v354.75c0 68.898 55.852 124.75 124.75 124.75h62.375c27.289 0 50.92 17.163 62.375 40 11.455-22.837 35.086-40 62.375-40h62.375c68.898 0 124.75-55.852 124.75-124.75v-354.75c0-35.864 15.917-66.402 40-90.5l-69-69-18.7 18.7c-13.233 13.233-31.607 21.3-51.8 21.3h-300c-20.193 0-38.567-8.067-51.8-21.3l-18.7-18.7z" fill="#eac102"/><path d="m290 40.5v639" fill="none"/><path d="m317.722 40.5v608.875c8.3117-5.0472 17.7131-8.4218 27.722-9.5v-599.375z" fill="#ed1c24"/><path d="m373.167 40.5v599h27.722v-599z" fill="#ed1c24"/><path d="m456.3438 38.6563c-5.2653 1.1866-10.7253 1.8438-16.3438 1.8438h-11.389v598.2188c9.6094-1.0642 18.9083-3.2234 27.7328-6.3438z" fill="#ed1c24"/><path d="m510.5.5-18.7 18.7c-2.4134 2.4134-5.0087 4.6541-7.744 6.7063v592.5625c10.4677-7.0085 19.8192-15.5444 27.722-25.3125v-591.375z" fill="#ed1c24"/></g><g fill="#c87137" stroke="#000" stroke-linecap="round" stroke-linejoin="round"><path d="m254.5485 304.5354c14.0419 37.3324 12.5101 55.2576 1.9507 70.7266l-5.0499 8.7879c-13.6769 28.613-28.4205 35.9971-52.519 45.2361-33.2314 12.7404-50.428 13.0148-68.4754 3.8592l-8.5843-3.7571c-18.2282-4.9462-31.8246-16.9651-46.5582-56.1365-12.7266-33.8355-12.5718-51.5909-.5971-71.406l4.8011-10.1392c8.8486-18.1303 12.9687-28.4659 56.608-45.1965 21.9423-8.4123 48.0667-7.7305 60.8447.4024l10.5445 5.4083c16.9034 7.3376 31.7131 11.4787 47.0351 52.2148z"/><path d="m196.9689 246.9123c-42.3379 19.995-80.7327 37.5781-117.4527 44.7941l-4.8011 10.1392c10.9255 45.235 34.2538 84.8657 47.1554 127.5425l8.5843 3.7571c32.4868-22.4942 76.3061-36.2388 120.9944-49.0952l5.0499-8.7879c-26.2167-33.1539-32.1642-79.1863-48.9858-122.9414z"/><path d="m201.2064 252.9636c-1.4983 43.727 20.656 99.8112 49.0263 125.4168-44.3855-2.3771-84.7718 11.4302-123.5173 49.8244-.2281-52.4956-22.0581-85.0347-47.9525-131.1991 57.9615-3.0508 82.7524-14.1373 122.4435-44.0421z"/></g><path d="m1.5 69.5c24.083 24.098 40 54.636 40 90.5v354.75c0 68.898 54.852 123.75 123.75 123.75h62.375c27.289 0 50.92 17.163 62.375 40 11.455-22.837 35.086-40 62.375-40h62.375c68.898 0 123.75-54.852 123.75-123.75v-354.75c0-35.864 15.917-66.402 40-90.5l-68-68-18.7 18.7c-13.233 13.233-31.607 21.3-51.8 21.3h-300c-20.193 0-38.567-8.067-51.8-21.3l-18.7-18.7z" fill="none" stroke="#000" stroke-linecap="round" stroke-linejoin="round" stroke-width="3"/></svg>