<?xml version="1.0" encoding="utf-8"?><!DOCTYPE svg PUBLIC "-//W3C//DTD SVG 1.1//EN" "http://www.w3.org/Graphics/SVG/1.1/DTD/svg11.dtd"><svg viewBox="0 0 600 600" xmlns="http://www.w3.org/2000/svg"><g stroke="#000" stroke-linecap="round" stroke-linejoin="round"><path d="m.5 300 299.5 299.5 299.5-299.5-299.5-299.5z" fill="#eac102"/><path d="m67.056 290v76.5625l66.555 66.5625v-143.125z" fill="#ed1c24"/><path d="m200.167 290v209.6563l66.555 66.5625v-276.2188z" fill="#ed1c24"/><path d="m399.833 290v209.6563l-66.555 66.5625v-276.2188z" fill="#ed1c24"/><path d="m532.944 290v76.5625l-66.555 66.5625v-143.125z" fill="#ed1c24"/><path d="m.5 300h599l-299.5-299.5z" fill="#e5e5e5"/></g><g stroke="#000" stroke-linecap="round" stroke-linejoin="round"><g><path d="m380.1275 219.565c0 20.4633-4.7461 42.0994-11.0983 42.9393-6.225.8231-11.6407-22.476-11.6407-42.9393s5.0803-37.0585 11.3595-37.0585 11.3795 16.5953 11.3795 37.0585z" fill-rule="evenodd"/><path d="m459.8493 238.6541v-52.7042c-31.0852 1.7571-91.7585 2.4422-102.231-1.2505l-45.8997-12.4934-29.6608 10.4093 5.9579 52.6791c2.4588 5.6855 10.8676 6.7243 13.9069 7.3457 4.1859.8559 24.9296 3.2041 35.3603 2.2182 5.9673-.564 16.7405-5.2641 24.1275-9.5067 22.7091-.6006 68.9407 2.7627 98.4388 3.3025z" fill="#ffb380" fill-rule="evenodd"/><path d="m359.9334 224.3839c-1.5243-7.4337-2.671-16.7749 1.93-23.4368" fill="none"/><path d="m480.25 180.75-111.502 1.7565c9.47.033 10.3136 77.8563.2813 79.9979 40.134-5.3502 149.7033 3.6971 196.2706 4.3179z" fill="#0071bc" fill-rule="evenodd"/><path d="m414.6701 181.7718c15.3027-.3486 18.5097 28.5241 17.8702 39.8849" fill="none"/><path d="m396.7619 260.8617c14.8645-.8619 15.4503-35.985 12.888-51.9787" fill="none"/></g><g><path d="m316.608 158.9745c0 55.6742-5.5167 130.5255-16.608 130.5255s-16.608-74.8513-16.608-130.5255z" fill="#c87137"/><path d="m332 124.7166c0-6.215-2.3051-10.9461 0-17.4838-2.2464 1.1255-5.7992 6.3572-6.7918 8.1794-1.515-8.146-.998-16.7277-.2666-24.4449-3.3435.8575-7.1411 6.5834-8.5515 9.4237-2.6083-11.111-1.6141-21.0883-.5908-27.9664-3.3958.3752-7.2699 5.825-9.0412 9.7962-3.8216-7.9901 2.4014-13.6707-3.288-21.7208-3.9379 12.5051-10.087 12.8872-11.6847 26.4158-1.4106-3.2154-2.7341-6.6132-2.3684-11.0077-4.5973 2.7331-9.8029 17.4982-9.6244 27.0274-2.0374-1.5602-4.4882-5.4153-4.8989-9.2886-8.7446 13.1598-1.7865 21.1891.1104 30.6907-3.0031-2.0368-4.5661-4.7141-5.6631-7.0721-1.1679 2.8399-1.3411 8.2517-1.3411 10.794 0 16.9161 20.1697 22.8893 33.4108 22.8893 15.4318.0647 30.5892-10.4088 30.5892-26.2323z" fill="#ed1c24"/><path d="m314.2173 147.6774c4.2137-6.2965-.7529-15.8916 2.589-21.9813-4.7306.5139-5.3735 8.0466-8.9513 8.927 3.5595-7.2466.6204-13.0411 2.3157-20.3418-2.7328 2.4991-4.3549 5.5032-5.3825 9.0347-2.3752-8.2806-1.1661-18.1444-4.7441-24.4897-.004 7.9511-3.2362 10.9314-4.1867 17.3371-1.8425-2.9089-1.3846-8.157-2.9456-10.2998-.4396 8.7792-3.6301 9.8456-2.5586 23.2997-1.9909-2.1692-3.2593-9.5019-4.2759-10.7578-3.0995 8.4949-3.7061 22.4765-1.4563 29.2719 9.809-2.216 20.7827-1.8378 29.5964 0z" fill="#eac102"/><path d="m291.7855 86.9158c1.0923 2.9295 3.5283 9.5573 2.2256 14.4981" fill="none"/><path d="m306.7582 82.2208c-1.4916 3.2655-2.4548 8.257-2.5774 12.9572" fill="none"/><path d="m316.3901 100.391c.7401 4.326.2415 10.8727-1.077 13.9645" fill="none"/><path d="m279.7927 102.9355c2.9809 2.3546 4.6255 6.165 4.9432 8.482" fill="none"/><path d="m325.2082 115.4122c.4353 3.7752-1.0753 8.5744-2.8286 10.2086" fill="none"/><path d="m275.0042 124.3376c1.2698.8737 2.8948 2.0724 4.9377 3.1434" fill="none"/><path d="m280.5281 146.6758c-4.1335.8807-.1127 18.8696 2.3597 19.1872 5.9738.7674 11.7513.5618 17.1122.5618s11.1384.2055 17.1122-.5618c2.4723-.3176 6.4932-18.3065 2.3597-19.1872-6.8905-1.4681-13.1702-2.0711-19.4718-2.0711s-12.5813.603-19.4718 2.0711z" fill="#c87137"/></g><g><path d="m306.6694 235.3918c10.116-2.1075 7.0441-12.9132-.789-11.4354-12.8059 2.4162-16.5983 2.9704-26.3583 1.1718-7.6869-1.4165-5.8012 12.8141 2.6985 13.1343 9.1425.3443 14.7878-.8581 24.4488-2.8707z" fill="#ffb380"/><path d="m308.5703 223.7187c9.651-2.6224 6.4277-13.4421-1.0498-11.4084-24.2277 6.5896-22.1866 2.6479-31.6319.0399-7.1762-1.9815-6.4271 10.7385 1.56 13.4277 9.1814 3.0912 14.5137 2.4536 31.1217-2.0592z" fill="#ffb380"/><path d="m309.7373 212.3487c10.0582-2.122 5.9275-13.7107-1.8528-12.3494-25.3495 4.4357-18.2143 2.8833-31.2199-.691-7.3571-2.022-12.4668 10.6887 1.9252 15.4884 9.3472 3.1173 12.1105 1.5683 31.1476-2.4481z" fill="#ffb380"/><path d="m276.1651 200.2405c12.4232 5.7256 13.6764 3.8469 30.8804.0892 9.5795-2.0923 6.7683-13.1199-.708-11.9374-19.8954 3.1471-19.8128 1.3366-31.8003-1.4297-3.6561-.8437-7.2107 9.2044 1.6278 13.2779z" fill="#ffb380"/><path d="m357.2747 189.5259c-8.8332-11.5-12.7171-19.2142-30.9396-22.1293-10.7211-1.715-24.1363-5.0083-35.3067-.5227-4.2744 1.7165-5.9708 5.936-10.1565 7.8922-1.5016.7018-2.8493 1.3297-4.0863 1.9036l-8.8017 4.5358c-.4267.3558-.6152.6568-.6365.9521.8187 10.2902 14.793 8.9842 28.0245.8511 4.2587 2.1138 13.5215 3.0965 19.78 3.3945-.5797 13.739 8.9783 19.549 21.6386 23.2292" fill="#ffb380"/><path d="m276.7855 176.6698c2.3995 1.6162 2.2681 4.0323 2.7152 4.9889-2.521 1.4351-5.1641 3.6546-7.7046 3.0134-2.3017-.5809-3.0365-1.8834-3.8123-3.4665 2.1351-1.5344 5.8993-3.2318 8.8017-4.5358z" fill="#e5e5e5"/><path d="m297.6585 177.2502c1.2186 1.9186-.4842 4.5006-2.2867 5.7586" fill="none"/><path d="m310.5658 191.645c1.6629 1.8996 1.005 4.3631.0559 5.579-3.3695 1.3636-5.4168.9073-6.5632.1934-.2859-1.5389-.3417-4.334.9095-5.2115 2.0895-.6762 3.421-.8762 5.598-.5609z" fill="#e5e5e5"/><path d="m313.0895 203.5456c1.3198 1.909.9325 3.9063.1151 5.2086-3.3518 1.7126-5.0756 1.7793-6.3958 1.2015-.5367-1.4853-1.0224-4.2335.1657-5.2352 2.2447-.8006 4.1466-1.2305 6.1151-1.1748z" fill="#e5e5e5"/><path d="m312.457 215.6522c1.4405 1.875.8537 3.8247.4175 4.9402-3.1891 1.7981-4.8824 1.7128-6.2117 1.2317-.6137-1.383-1.251-3.9678-.1437-4.9799 2.0131-.9571 3.6293-1.1403 5.9379-1.192z" fill="#e5e5e5"/><path d="m310.9309 227.1597c1.2672 1.3863 1.0625 3.6312.4787 4.7206-2.6288 1.4859-4.4679 1.3523-5.5841.9082-.5344-1.2087-1.1572-3.8982-.2509-4.7492 1.8136-.7038 3.7499-.8797 5.3563-.8796z" fill="#e5e5e5"/></g></g><path d="m1.5 300 298.5 298.5 298.5-298.5-298.5-298.5z" fill="none" stroke="#000" stroke-linecap="round" stroke-linejoin="round" stroke-width="3"/></svg>