<?xml version="1.0" encoding="utf-8"?><!DOCTYPE svg PUBLIC "-//W3C//DTD SVG 1.1//EN" "http://www.w3.org/Graphics/SVG/1.1/DTD/svg11.dtd"><svg viewBox="0 0 900 800" xmlns="http://www.w3.org/2000/svg"><g stroke="#000" stroke-linecap="round" stroke-linejoin="round"><path d="m419.4967 707.3774c-3.7696 37.4012-19.2139 69.0988-38.6559 83.7263-7.1169 5.3545-16.917 8.3964-26.9969 8.3964-19.5038 0-37.4915-19.4044-36.0155-40.5493 1.2991-18.6092 17.3289-33.9463 36.0154-32.4395 5.1842.418 10.0751 2.1805 14.2794 4.9326 1.0112-2.4202 2.1234-6.7074 2.1234-9.8429 0-10.7086-11.4806-15.0816-18.6799-23.6101-13.3084-15.7655-23.3929-19.6979-35.4608-19.6979-17.5564 0-17.8735 11.7593-35.6577 11.7593-14.1962 0-21.5409-10.45-32.8513-13.7909-10.2561-3.0293-16.0754-1.3622-22.9996.3894-8.6592 2.1904-18.2229 1.218-26.2745-3.8519s-14.2387-14.1333-16.5459-25.9856c-2.8691-14.7387 6.6395-27.4037 18.3101-30.9125 12.0062-3.6097 23.0665 1.1111 28.9412 11.5917-35.5251-64.5286-86.833-55.9074-106.7114-52.0641-7.4921 8.9255-18.6804 7.6148-26.0011-1.159-63.1185-75.6471-95.8156-188.6585-95.8156-290.3017 0-69.8502 39.2512-106.7545 81.5008-106.7545 42.521-51.0101 172.6875-141.3166 247.1678-141.3166 6.4112 0 12.5181 2.0373 18.047 4.7977 25.477-3.1523 59.4804-5.1943 102.7844-5.1943s77.3074 2.042 102.7844 5.1943c5.5289-2.7603 11.6358-4.7977 18.047-4.7977 74.4803 0 204.6468 90.3065 247.1678 141.3166 42.2496 0 81.5008 36.9043 81.5008 106.7545 0 101.6431-32.6971 214.6545-95.8156 290.3017-7.3207 8.7738-18.5091 10.0844-26.0011 1.159-19.8784-3.8433-71.1864-12.4645-106.7114 52.0641 5.8747-10.4807 16.935-15.2014 28.9412-11.5917 11.6706 3.5087 21.1792 16.1738 18.3101 30.9125-2.3072 11.8522-8.4942 20.9157-16.5458 25.9856s-17.6153 6.0423-26.2745 3.8519c-6.9242-1.7515-12.7435-3.4187-22.9996-.3894-11.3105 3.3408-18.6552 13.7909-32.8513 13.7909-17.7841 0-18.1013-11.7593-35.6577-11.7593-12.0678 0-22.1524 3.9324-35.4608 19.6979-7.1993 8.5285-18.6799 12.9014-18.6799 23.6101 0 3.1355 1.1121 7.4228 2.1234 9.8429 4.2043-2.7521 9.0952-4.5146 14.2794-4.9326 18.6865-1.5068 34.7163 13.8303 36.0154 32.4395 1.476 21.1449-16.5117 40.5493-36.0155 40.5493-10.0799 0-19.88-3.0419-26.9969-8.3964-19.442-14.6275-34.8863-46.3251-38.6559-83.7263z" fill="#fed460" fill-rule="evenodd"/><path d="m310.7008 95.3247c3.1413 7.3158 10.2968 12.6821 18.4681 13.5606 14.3232 1.54 26.7382-10.1377 28.0119-24.3296 1.501-16.7248-11.8267-31.1344-28.012-32.4395-18.6865-1.5068-34.7163 13.8303-36.0154 32.4395-1.476 21.1449 15.4708 39.224 36.0155 40.5493 23.048 1.4868 42.7037-17.5227 44.0188-40.5494 1.0848-18.9924-9.9927-35.8832-25.972-43.8612" fill="none"/><path d="m63.5329 236.6413c3.1413 7.3158 10.2968 12.6821 18.4681 13.5606 14.3232 1.54 26.7382-10.1377 28.0119-24.3297 1.501-16.7248-11.8267-31.1344-28.012-32.4395-18.6865-1.5068-34.7163 13.8303-36.0154 32.4395-1.4761 21.1449 15.4708 39.224 36.0155 40.5493 23.048 1.4868 42.7036-17.5227 44.0188-40.5494 1.4601-25.564-19.6352-48.6592-44.0189-48.6592" fill="none"/><path d="m335.3757 769.7196c3.1413 7.3158 10.2967 12.6821 18.4681 13.5606 14.3232 1.54 26.7383-10.1377 28.012-24.3296 1.0202-11.3679-4.8103-21.666-13.7325-27.5067" fill="none"/><path d="m229.0042 627.5098c1.1101 1.8388 2.0856 3.8527 2.9103 6.0264 3.9746 10.4761-.872 22.5734-10.077 25.2659-14.8134 4.3329-22.6354-7.7274-22.897-17.206-.1206-4.3704 2.6672-8.1834 6.1836-9.1771 3.2805-.9271 10.2387.2428 11.6297 9.7377" fill="none"/><path d="m273.0001 82.0434c-1.6041 21.528 9.1862 43.32 30.0465 53.7837-59.6318 15.0484-102.9797 54.7327-140.8061 99.7986-3.7005-23.4117-16.6031-47.0902-35.3488-57.9669 45.7223-36.4055 99.5736-71.3689 146.1084-95.6153z" fill="#cfa15f" fill-rule="evenodd"/><path d="m245.6048 111.0268c1.5736 10.8533 8.6877 22.5521 17.3798 29.581" fill="none"/><path d="m222.9227 122.68c1.5736 10.8532 8.6877 22.5521 17.3798 29.581" fill="none"/><path d="m199.9843 137.867c2.2023 10.7401 9.9847 21.9926 19.0706 28.4891" fill="none"/><path d="m176.1238 154.8986c2.2023 10.7401 9.9847 21.9926 19.0706 28.4891" fill="none"/><path d="m154.9146 171.9301c2.2023 10.7401 9.9847 21.9926 19.0706 28.4891" fill="none"/><path d="m37.9307 298.3733c42.7926 20.7098 72.1558 10.4604 97.7983-8.3664-35.9716 120.6872-2.3676 194.7455 48.8992 256.9663-18.4936-3.133-37.8817-2.1834-59.5038 8.964-44.6377-63.0375-84.3794-133.2485-87.1937-257.5639z" fill="#cfa15f" fill-rule="evenodd"/><path d="m57.9617 337.8145c16.8889 5.1343 33.7777 6.419 50.6666 3.5856" fill="none"/><path d="m59.0678 370.3951c17.0569 4.5269 33.9799 5.2065 50.7597 1.7705" fill="none"/><path d="m65.523 402.724c17.0657 4.4927 28.0985 4.5408 44.8716 1.0713" fill="none"/><path d="m74.3602 434.9942c18.8761 3.5746 26.4678 3.2763 41.9259.4737" fill="none"/><path d="m84.8225 464.6976c17.6844 2.665 24.7216 2.0028 38.9555-1.5382" fill="none"/><path d="m100.2158 496.9571c17.8493 1.0363 24.799-.2668 38.66-5.0957" fill="none"/><path d="m116.4541 527.5886c17.8621-.7777 24.6486-2.7786 37.9647-8.9878" fill="none"/><path d="m589.2992 95.3247c-3.1413 7.3158-10.2968 12.6821-18.4681 13.5606-14.3232 1.54-26.7381-10.1377-28.0119-24.3296-1.501-16.7248 11.8267-31.1344 28.012-32.4395 18.6865-1.5068 34.7163 13.8303 36.0154 32.4395 1.4761 21.1449-15.4708 39.224-36.0155 40.5493-23.048 1.4868-42.7036-17.5227-44.0188-40.5494-1.0848-18.9924 9.9927-35.8832 25.972-43.8612" fill="none"/><path d="m836.4671 236.6413c-3.1413 7.3158-10.2968 12.6821-18.4681 13.5606-14.3232 1.54-26.7381-10.1377-28.0119-24.3297-1.501-16.7248 11.8267-31.1344 28.012-32.4395 18.6865-1.5068 34.7163 13.8303 36.0154 32.4395 1.476 21.1449-15.4708 39.224-36.0155 40.5493-23.048 1.4868-42.7036-17.5227-44.0188-40.5494-1.4601-25.564 19.6352-48.6592 44.0189-48.6592" fill="none"/><path d="m564.6243 769.7196c-3.1413 7.3158-10.2967 12.6821-18.4681 13.5606-14.3232 1.54-26.7383-10.1377-28.012-24.3296-1.0202-11.3679 4.8103-21.666 13.7325-27.5067" fill="none"/><path d="m670.9958 627.5098c-1.1101 1.8388-2.0856 3.8527-2.9103 6.0264-3.9746 10.4761.8721 22.5734 10.077 25.2659 14.8134 4.3329 22.6354-7.7274 22.897-17.206.1206-4.3704-2.6672-8.1834-6.1836-9.1771-3.2806-.9271-10.2387.2428-11.6297 9.7377" fill="none"/><path d="m626.9999 82.0434c1.604 21.528-9.1862 43.32-30.0465 53.7837 59.6318 15.0484 102.9797 54.7327 140.8061 99.7986 3.7005-23.4117 16.6031-47.0902 35.3488-57.9669-45.7223-36.4055-99.5736-71.3689-146.1084-95.6153z" fill="#cfa15f" fill-rule="evenodd"/><path d="m654.3952 111.0268c-1.5736 10.8533-8.6877 22.5521-17.3798 29.581" fill="none"/><path d="m677.0773 122.68c-1.5736 10.8532-8.6877 22.5521-17.3798 29.581" fill="none"/><path d="m700.0157 137.867c-2.2023 10.7401-9.9847 21.9926-19.0706 28.4891" fill="none"/><path d="m723.8762 154.8986c-2.2023 10.7401-9.9847 21.9926-19.0706 28.4891" fill="none"/><path d="m745.0854 171.9301c-2.2023 10.7401-9.9847 21.9926-19.0706 28.4891" fill="none"/><path d="m862.0693 298.3733c-42.7926 20.7098-72.1558 10.4604-97.7983-8.3664 35.9716 120.6872 2.3676 194.7455-48.8992 256.9663 18.4936-3.133 37.8817-2.1834 59.5038 8.964 44.6377-63.0375 84.3793-133.2485 87.1937-257.5639z" fill="#cfa15f" fill-rule="evenodd"/><path d="m842.0384 337.8145c-16.8889 5.1343-33.7777 6.419-50.6666 3.5856" fill="none"/><path d="m840.9323 370.3951c-17.0569 4.5269-33.9799 5.2065-50.7597 1.7705" fill="none"/><path d="m834.477 402.724c-17.0657 4.4927-28.0985 4.5408-44.8716 1.0713" fill="none"/><path d="m825.6398 434.9942c-18.8761 3.5746-26.4678 3.2763-41.9259.4737" fill="none"/><path d="m815.1775 464.6976c-17.6844 2.665-24.7216 2.0028-38.9555-1.5382" fill="none"/><path d="m799.7842 496.9571c-17.8493 1.0363-24.799-.2668-38.66-5.0957" fill="none"/><path d="m783.5459 527.5886c-17.8621-.7777-24.6486-2.7786-37.9647-8.9878" fill="none"/><path d="m314.2753 86.4287c5.7141-3.3782 10.0923 1.5335 10.96 3.0277.8688 1.4959 2.3824 2.709 3.9336 3.2094 5.5459 1.7888 10.8829-2.7512 12.0051-8.1099 1.6469-7.864-4.5371-15.0154-12.0052-16.2197-9.9536-1.6052-18.7802 6.4444-20.0085 16.2197-.4777 3.8017.1356 7.4966 1.5405 10.7689-1.4134-3.2305.0408-6.8071 3.5744-8.8962z" fill="#cfa15f" fill-rule="evenodd"/><path d="m67.1074 227.7451c5.7141-3.3782 10.0923 1.5335 10.96 3.0277.8688 1.4959 2.3824 2.709 3.9336 3.2094 5.5459 1.7888 10.8829-2.7512 12.0051-8.1099 1.6469-7.864-4.5371-15.0154-12.0052-16.2197-9.9536-1.6052-18.7802 6.4444-20.0085 16.2197-.4777 3.8017.1355 7.4966 1.5405 10.7689-1.4134-3.2305.0408-6.8072 3.5744-8.8962z" fill="#cfa15f" fill-rule="evenodd"/><path d="m338.9501 760.8235c5.7142-3.3782 10.0924 1.5335 10.9601 3.0277.8689 1.4959 2.3824 2.709 3.9336 3.2094 5.546 1.7888 10.8829-2.7512 12.0051-8.1099 1.6469-7.864-4.5372-15.0154-12.0052-16.2197-9.9536-1.6052-18.7802 6.4444-20.0084 16.2197-.4778 3.8017.1355 7.4966 1.5405 10.7689-1.4133-3.2305.0411-6.8072 3.5744-8.8962z" fill="#cfa15f" fill-rule="evenodd"/><path d="m561.0499 760.8235c-5.7142-3.3782-10.0924 1.5335-10.9601 3.0277-.8689 1.4959-2.3824 2.709-3.9336 3.2094-5.546 1.7888-10.8828-2.7512-12.0051-8.1099-1.6469-7.864 4.5372-15.0154 12.0052-16.2197 9.9536-1.6052 18.7802 6.4444 20.0084 16.2197.4778 3.8017-.1356 7.4966-1.5405 10.7689 1.4133-3.2305-.0411-6.8072-3.5744-8.8962z" fill="#cfa15f" fill-rule="evenodd"/><path d="m832.8927 227.7451c-5.7141-3.3782-10.0923 1.5335-10.96 3.0277-.8688 1.4959-2.3824 2.709-3.9336 3.2094-5.5459 1.7888-10.8829-2.7512-12.0051-8.1099-1.6469-7.864 4.5371-15.0154 12.0052-16.2197 9.9537-1.6052 18.7802 6.4444 20.0085 16.2197.4777 3.8017-.1355 7.4966-1.5405 10.7689 1.4134-3.2305-.0408-6.8072-3.5744-8.8962z" fill="#cfa15f" fill-rule="evenodd"/><path d="m585.7247 86.4287c-5.7141-3.3782-10.0923 1.5335-10.96 3.0277-.8688 1.4959-2.3824 2.709-3.9336 3.2094-5.5459 1.7888-10.8829-2.7512-12.0051-8.1099-1.6469-7.864 4.5371-15.0154 12.0052-16.2197 9.9537-1.6052 18.7802 6.4444 20.0085 16.2197.4777 3.8017-.1355 7.4966-1.5405 10.7689 1.4134-3.2305-.0408-6.8071-3.5744-8.8962z" fill="#cfa15f" fill-rule="evenodd"/><path d="m419.393 755.2753c.2395-1.2382-.147-3.3522-1.0893-4.3481-10.4275-11.021-18.596-26.0004-18.596-50.3935 0-30.0201 30.5901-37.4832 50.2923-37.4832s50.2923 7.4631 50.2923 37.4832c0 24.3932-8.1685 39.3725-18.596 50.3935-.9423.9959-1.3288 3.1099-1.0893 4.3481 6.3358 32.7534-15.6267 44.2247-30.607 44.2247s-36.9428-11.4713-30.607-44.2247z" fill="#cfa15f"/><path d="m446.3276 709.068c0-5.3247-2.6514-8.4853-9.5062-8.4853-7.373 0-13.5816 2.6827-21.1656 8.4853-4.3051 3.2939-2.7302 6.0142 1.3348 5.5297 4.9717-.5926 7.148-2.7557 10.8688-.7627 5.1982 2.7843 2.7524 5.7204 10.4874 5.7204 5.8432 0 7.9808-5.6957 7.9808-10.4874z" fill-rule="evenodd"/><path d="m419.4108 690.7627c16.5713-4.4241 28.6263 2.3529 30.5892 7.4365 1.9629-5.0837 14.0179-11.8606 30.5892-7.4365" fill="none"/><path d="m410.7639 681.9944c-13.2391-16.3054-30.7935-21.6826-33.8401-17.5858-1.8459 2.4821 11.5195 11.9621 25.155 29.1861 3.6399 4.5979 14.1042-4.9261 8.6851-11.6003z" fill="#cfa15f"/><path d="m376.9238 664.4086c11.1184 7.5938 21.1281 19.4784 29.9507 29.6642" fill="#eac102" fill-rule="evenodd"/><path d="m453.6724 709.068c0-5.3247 2.6514-8.4853 9.5062-8.4853 7.373 0 13.5816 2.6827 21.1656 8.4853 4.3051 3.2939 2.7302 6.0142-1.3348 5.5297-4.9717-.5926-7.148-2.7557-10.8688-.7627-5.1982 2.7843-2.7524 5.7204-10.4874 5.7204-5.8432 0-7.9808-5.6957-7.9808-10.4874z" fill-rule="evenodd"/><path d="m459.5341 741.1024c.3283 1.6736-.1858 4.4658-4.5763 4.5763.5781 2.4474-1.1777 5.1484-4.9578 5.1484s-5.5359-2.701-4.9578-5.1484c-4.3905-.1105-4.9046-2.9027-4.5763-4.5763" fill="none"/><path d="m460.9214 765.0322c4.9453-1.4089 7.8026 5.01 12.2697 8.1756-2.9507.919-7.188 1.6354-11.5955.4045-4.0242-1.1238-7.7528-.2853-11.5956 2.036-3.8428-2.3213-7.5714-3.1598-11.5956-2.036-4.4075 1.2309-8.6448.5145-11.5955-.4045 4.4671-3.1656 7.3244-9.5845 12.2697-8.1756 3.9238 1.1179 6.7124 1.7835 10.9214 1.7835s6.9976-.6656 10.9214-1.7835z"/><path d="m489.2361 681.9944c13.2391-16.3054 30.7935-21.6826 33.8401-17.5858 1.8459 2.4821-11.5195 11.9621-25.155 29.1861-3.6399 4.5979-14.1042-4.9261-8.6851-11.6003z" fill="#cfa15f"/><path d="m523.0762 664.4086c-11.1184 7.5938-21.1281 19.4784-29.9507 29.6642" fill="#eac102" fill-rule="evenodd"/><path d="m492.5564 27.7166c-1.2868-11.5649-6.6437-19.5349-17.9496-19.5349-2.6885 0-6.7553 1.4967-9.1652 3.9135-2.6869-7.0225-7.497-11.5951-15.4416-11.5951-7.9445 0-12.7547 4.5727-15.4415 11.5951-2.4099-2.4167-6.4767-3.9135-9.1652-3.9135-11.3059 0-16.6628 7.9701-17.9496 19.5349-42.9435.9905 4.3048 104.4271 42.5563 104.4271 38.2516 0 85.4999-103.4367 42.5564-104.4271z" fill="#fed460" fill-rule="evenodd"/><path d="m434.5585 12.0951c-8.1832 21.3878 3.2601 65.4724 5.2791 72.0901" fill="none"/><path d="m407.4437 27.7166c-2.6954 24.2246 12.4118 64.2155 27.7166 79.7213" fill="none"/><path d="m465.4416 12.0951c8.1831 21.3878-3.2602 65.4724-5.2792 72.0901" fill="none"/><path d="m492.5564 27.7166c2.6953 24.2246-12.4119 64.2155-27.7167 79.7213" fill="none"/></g><g fill-rule="evenodd" stroke="#000" stroke-linecap="round" stroke-linejoin="round"><path d="m605.0292 570.3303c99.4648-26.542 144.4708-103.4967 144.4708-184.034 0-112.2421-83.4108-230.7964-222.778-230.7964-38.7882 0-67.138 14.8808-76.722 46.7462-9.584-31.8653-37.9338-46.7462-76.722-46.7462-139.3672 0-222.778 118.5543-222.778 230.7964 0 80.5373 45.0057 157.492 144.4705 184.034 7.4665 44.1235 95.017 64.1697 155.0295 64.1697s147.5627-20.0462 155.0292-64.1697z" fill="#0071bc"/><path d="m186.8906 500.5195c23.6987 31.6979 59.3492 56.8068 108.0801 69.8106 7.4665 44.1235 95.0168 64.1699 155.0293 64.1699s147.5628-20.0464 155.0293-64.1699c48.7309-13.0038 84.3813-38.1126 108.0801-69.8106z" fill="#c87137"/></g><g stroke="#000" stroke-linecap="round" stroke-linejoin="round"><g><path d="m651.656 475.5c7.813 0 6.2368 23.5719 0 27.1105l-87.0585 51.8895h-286.6562l87.0585-51.8895z" fill="#e5e5e5" fill-rule="evenodd"/><path d="m650.3879 476.2367c4.4431-1.2189 3.9687 21.019.6068 23.0229l-86.2506 51.4096h-276.7885c3.2441-2.5952 3.0553-25.1179-2.7487-23.9501z" fill="#e5e5e5" fill-rule="evenodd"/><path d="m565.7324 526.8c4.5766.8733 2.2558 21.6472-.9883 23.8687" fill="none"/><path d="m653.332 482.6875-85.0051 51.6143h-278.5534" fill="none"/><path d="m653.3556 490.995-85.7368 51.5154h-277.4848" fill="none"/><path d="m364.9998 475.5h286.6562l-87.0586 51.8898-286.6562-.0001z" fill="#e5e5e5" fill-rule="evenodd"/></g><g><path d="m522.0667 275.8214c19.1667 9.7921 41.1659 24.3552 38.4536 63.9911-1.8678 27.2949 14.6963 29.9195 25.6254 48.1404 16.3775 27.3045 28.3762 44.7371 44.7359 61.2312-8.6084-23.0849-4.5654-38.5686-8.2523-60.3866 16.215 9.603 22.4403 22.3072 34.312 30.8267-5.8627-28.5399-4.1724-68.6721-29.5344-95.4362-27.7-29.2313.26-36.6997-14.3329-71.366-7.339-17.4343-17.5557-32.3018-27.7971-45.6067-11.3062 24.7462-36.6623 54.6989-63.2104 68.6062z" fill="#e5e5e5" fill-rule="evenodd"/><path d="m599.6101 227.4495c-5.2566 9.7638-11.3014 18.8344-17.9926 27.4451-3.8888-5.114-9.1168-10.5123-16.1723-16.421-4.9233 6.0919-10.355 11.9833-16.113 17.3943 7.1918 4.7719 12.8042 10.3918 17.1631 16.711-6.4079 6.8755-13.218 13.5416-20.3196 20.1493 5.317 5.6859 9.6993 12.7687 12.2252 21.935 6.4057-5.436 12.6107-11.5236 18.6566-18.1253 2.6919 10.3918 3.843 21.7104 4.3107 33.561 1.0928 27.687 21.3073 32.8473 43.1152 78.9209-.2661-6.3872-.6248-12.9429-1.855-20.2228 4.2292 2.5046 7.7703 5.2215 10.9177 8.0188-8.0438-39.496-32.6428-54.243-37.4112-81.4952-2.5381-14.5058-1.9439-25.8488-3.9409-36.6915 6.8517-8.7114 13.5309-17.9829 20.1112-27.5742-3.6802-8.4335-8.0202-16.2641-12.6951-23.6056z" fill="#ed1c24" fill-rule="evenodd"/><path d="m335.0833 456.4918c-.8545 2.2022-1.7872 4.6569-2.815 7.2134l11.3199 6.553c.7544-1.5173 1.7525-3.3063 3.014-4.5431 1.3694 1.3755 1.5918 6.2336 7.2186 5.7789 1.8079 2.64 3.9158 9.6259 8.8912 7.522 2.1021 1.7378 2.0586 5.1602 9.4999 5.8233 1.6259 1.6989 3.3617 7.4709 7.839 4.8768 3.1258 2.9576 8.6332.8907 9.8167-1.0152l11.4274-30.5012c-1.3645-2.1197-2.0477-5.4959-7.8149-4.0732-2.5997-2.031-5.347-5.8078-9.1192-2.2568-1.068-4.3935-6.3119-2.4258-8.4831-1.6944-2.4159-.8739-2.7809-3.996-8.5082-1.0698-2.1967-1.6662-4.0654-4.1856-7.5104-.8207-4.3359-5.0709-6.7482-1.7129-7.9729-1.133-8.2447-4.5874-13.5505.9573-16.8031 9.3401z" fill="#e5e5e5"/><path d="m300.9693 516.8882c-5.2342 5.8735 2.7221 10.2196 6.6565 5.8046l293.9479-329.8528c1.6216-1.8197 1.4467-4.6088-.3729-6.2307-1.8196-1.6217-4.6088-1.4468-6.2305.3729z" fill="#c87137"/><path d="m420.8667 351.9387a18.2699 18.2699 0 0 1 -18.2699 18.2699 18.2699 18.2699 0 0 1 -18.2699-18.2699 18.2699 18.2699 0 0 1 18.2699-18.2699 18.2699 18.2699 0 0 1 18.2699 18.2699zm19.9308 0a38.2007 38.2007 0 0 1 -38.2007 38.2007 38.2007 38.2007 0 0 1 -38.2007-38.2007 38.2007 38.2007 0 0 1 38.2007-38.2007 38.2007 38.2007 0 0 1 38.2007 38.2007z" fill="#e5e5e5" fill-rule="evenodd"/><path d="m402.5969 351.9387-28.0622-49.0219 14.632 2.377 11.1277-9.7938z" fill="#e5e5e5" fill-rule="evenodd"/><path d="m402.5969 351.9387-49.0219 28.0622 2.377-14.632-9.7938-11.1277z" fill="#e5e5e5" fill-rule="evenodd"/><path d="m402.5969 351.9387 56.4388-2.3025-9.7939-11.1277 2.377-14.632z" fill="#e5e5e5" fill-rule="evenodd"/><path d="m335.0833 456.4918c-3.946 10.1699-9.562 25.7269-18.4949 31.8206-3.0454 2.0775-7.3625 6.8836-7.6292 10.7898-1.5086 1.9997-7.165 5.8816-9.6908 9.8133-1.2175 1.8953-1.7749 3.8245-.9159 5.6194l18.6815.7186c5.2724.2028 5.6491-11.1733 5.9792-17.4107 6.2257 3.3445 7.2019 1.4334 10.4932-5.5946 1.7663-3.7716 6.0728-13.9272 10.0815-21.99.7544-1.5173 1.7525-3.3063 3.014-4.5431" fill="#e5e5e5"/><path d="m308.9357 499.1056c1.5561 3.7534 9.0752 4.3926 13.651 4.5351" fill="none"/><path d="m306.3089 514.8409c-4.0575-1.6467 1.6943-8.9122 5.0495-13.0749" fill="none"/><path d="m566.4439 430.7359c1.8325-1.2263 7.4625-2.711 10.197 2.3469 1.4922-.3421 5.3299.161 4.8873 5.703 1.5518 1.5423 4.7252 1.801 3.8281 7.6143 2.1354 1.0345 2.8948 3.7038 3.021 7.0615 4.2487 3.3246 3.6135 6.0436 3.4558 8.7829 1.8841.1214 2.2438 2.7648 2.0415 6.2236 2.0172 3.4451 2.9789 5.9796 1.6235 10.3486.3573 1.7098 1.4414 3.1649 1.4414 5.339 0 1.1503.127 2.4808-1.2293 4.8709.4141 1.9377 1.1304 5.9501-1.54 7.3356.6936 4.1235-.7255 4.3945-3.5168 4.2026-.6266 1.6173-5.5335 1.7197-7.3814-2.6599-2.7961-.4136-4.6306-2.8697-4.3854-4.5114-3.0858-1.9407-4.8296-4.4889-2.6563-8.18-2.9956-2.3746-3.5299-5.2915-2.3412-9.2784-1.2477-6.0066-2.3033-13.4777-2.7429-22.9548z" fill="#e5e5e5"/><path d="m408.7785 344.9354c-7.5169-2.2911-13.5939-6.9353-22.48-6.9353-7.9459 0-14.0587 1.6331-8.1109 8.9314 3.4163 4.192 6.439 7.2954 10.5989 10.2519 5.2879 3.7581 15.2237 1.3959 22.2056.1416" fill="#e5e5e5" fill-rule="evenodd"/><path d="m377.1452 381.6307c-2.7308-6.2392.8467-13.9451 1.4376-20.6638.8565-9.7367 8.081-11.4432 11.869-13.4742.6078-5.1026 7.4344-8.6412 13.0177-5.4076 1.2094-3.4172 4.1394-5.3805 6.9923-1.5083 2.2178-1.7902 4.4685-2.5768 6.1724-2.5768 2.0197 0 3.144 1.1746 2.8439 3.2396 4.2204-1.2198 6.6027-.1785 9.268 1.9043 1.3336 1.0422 1.9175 2.1679 1.9175 3.3702 3.4269.9938 6.2602 3.0254 9.1337 5.2762 2.9053 2.2757 4.3814 6.2894 7.3838 8.7645 7.7 6.3478 17.1893 15.5546 16.7571 20.006-.2461 2.5349.6637 4.9949-1.76 5.9119-1.6025.6063-3.1445.2622-4.8997-.1666l-8.2512-2.016c5.1832 2.777 10.4567 1.9139 9.6821 5.776-.6275 3.1283-4.5315 4.2731-11.5965 1.9325-5.7545-1.9065-8.6728 1.3348-14.0452 2.6109-3.033.7204-8.5384-.5146-10.614-1.2623 1.3507 5.394 1.9829 8.6006 2.0259 11.473 4.0032 4.9763 5.4135 5.8247 3.1192 9.0321 3.8426-.3688 7.9379 1.3131 8.5753 7.1328 4.5691-4.6499 7.1587 1.8913 8.3363 3.1601 3.1121-1.1873 7.3391-2.1446 10.458 2.1641 3.1138-6.4266 6.2212-3.0312 9.3269-1.1075 7.6605-6.7598 9.621-1.5448 12.8955-.7647 4.8053-5.6707 9.0879-2.678 11.157-1.1656 2.3766-4.8822 7.0723-4.2657 14.5954-1.7882 1.74-5.1763 9.5824-3.2485 12.6234-1.9277 3.3124-2.39 6.1561-2.8386 9.5285-1.7515 5.7569-3.6682 8.6583.0673 11.9566.9814 1.6055-1.3454 4.5548-2.6467 9.6554 1.29 2.9493-1.7143 9.0316-1.3611 12.0359 3.9469 7.1646-2.6293 6.2572 2.6352 8.1814 4.3685 4.8079-.0827 5.6954 2.8213 5.8249 7.4868 3.8556 2.4381 7.0955 4.9971 5.4768 9.8953 3.9543 3.9987 2.0037 7.616.4125 10.7819 3.2661 6.406 3.0379 10.4068-.1563 11.4077 1.2596 1.6089.8749 5.425-2.1338 6.2063 2.6009 4.956-.2157 9.0265-3.591 8.8327.9627 3.7925-3.0953 9.4179-6.8347 7.6042 1.2178 3.1286-1.7202 7.6356-6.3659 6.0554-1.2352 3.804-3.8362 5.8258-9.2886 4.128-2.2341 5.7024-3.4381 7.3253-8.4291 3.4683-2.0857 6.1685-8.1846 6.5111-12.2142 3.5238-1.8728 1.7776-2.2146 6.5181-8.2341 2.8913-2.6716 3.36-8.0746 3.9842-11.3487.0222-.0325 4.6013-6.5245 5.328-9.0289 2.2493-2.5166 3.2295-5.1917 3.3192-9.5735 0-4.0828 6.1256-8.1724 3.9767-12.2487 1.2174-3.6422.286-1.8746 6.2814-10.8022 1.4583-5.4693 2.6573-8.6124 1.9812-10.5987-.3565-3.1929.739-7.942 3.925-11.0597.6271-6.5069 2.7109-5.8066-.6211-8.5177-1.1191-3.8567 1.3849-7.8338 2.0073-11.3169-1.0322-3.6539.7449-9.3397.8196-9.9293-4.163-3.8446 1.7601-10.8006 2.3032-13.1718-4.9264-4.9161 1.8411-7.9511-1.8243-8.5561-6.4861-3.0799 1.7365-7.2397-1.7681-8.1649-8.5542-1.3345-1.7171-7.7433-.6323-5.3068-7.5873-4.0117-.6683-5.7593-3.9121-6.0305-7.7297-1.8662-2.4472-4.2424-4.3822-2.0563-7.9376-3.0709-1.789-4.8856-7.4246-2.7846-9.8923-3.3245-4.2324-3.4618-3.9472-.8019-10.7457-3.6637-2.7438-3.3897-8.296-.1063-11.3185-1.1062-1.8321-3.6435-4.9203-3.6435-7.778 0-1.78.015-6.6185 2.1276-9.2448-1.3361-4.2518-.1284-5.7535 4.2449-12.5555-3.1153-3.437-1.0793-9.732 1.3053-11.6849-1.0001-6.0082-.7415-7.4132 3.1233-11.5043z" fill="#e5e5e5"/><path d="m439.2589 363.9583c-.2234 3.6312-5.7899 8.0971-8.473-.0728" fill="none"/><path d="m428.9502 363.8537c5.7168.5872 8.7529-2.9812 12.6468 2.1186" fill="none"/><path d="m455.7437 376.9274c.4538 1.426 4.5126 3.1725 4.7864 2.1594.2605-.9642.1226-1.659-.1838-2.3032" fill="none"/><path d="m436.523 365.8413c.2777.5673.0413 1.2593-.5303 1.5455-.5709.2858-1.2586.0584-1.5363-.5088-.2777-.5674-.0413-1.2591.5303-1.5453.5709-.2859 1.2585-.0584 1.5363.5087z"/><path d="m394.8374 354.7342c-7.3339 2.7531-13.804 2.7074-21.9829 8.1669-6.5891 4.3984-10.1413 10.0468-.9566 12.0475 4.5723.996 9.2303 1.6045 14.6242 1.7069 6.4761.123 12.8731-8.1584 17.6218-13.4076" fill="#e5e5e5"/><path d="m430.6635 346.5141c0 3.9225-5.564 7.5907-9.4761 8.089-.3191 2.2264 2.7334 8.3725-5.8748 6.6349 1.8355 3.8032 3.9587 9.7049-1.4496 11.0002" fill="none"/><path d="m422.4535 393.347c-3.4022-1.2258-10.3185-1.9318-12.6932-8.1198" fill="none"/><path d="m562.9245 484.5918c2.4806 2.8551 4.8178 3.5912 5.0402 8.5001 2.5167.963 5.7309 2.9807 4.532 7.1396 1.6994 1.2293 3.6562 3.0465 3.147 6.6092 4.6371 13.7802-3.1711 17.6593-12.3704 17.6593-4.0795 0-8.3596-.8578-11.7493-1.9569-7.2661-2.356-33.0663-3.2467-39.1276-1.2397-9.0813 3.007-8.5544-3.8182-6.7564-8.1049-3.3697 4.17-9.1611 11.3014-13.1182 11.3014-.6843 0-1.3286-.2273-1.9166-.6887l-14.7147-11.5464c1.1113-6.0989 14.0961-5.2047 17.6237-6.2858 10.2116-10.5184 20.0025.6249 33.4384 1.3622 1.7114.0938 4.3078.1711 7.298.1671-.9766-.6281-1.7491-1.6251-2.3062-2.9492-2.3758.7583-7.7074-2.3608-7.0821-4.5104-3.1244.2657-9.261-3.5407-7.3359-6.2077-2.0301-.8574-9.2492-2.9072-6.6148-9.0342-3.0433-.9927-2.4085-6.868.0488-8.329-3.3702-2.8212.3059-7.7695 3.4598-8.3998.2606-2.322-.2189-5.0038 5.849-5.8531" fill="#e5e5e5"/><path d="m493.5141 505.9793c-.9405 3.9533 4.7768 8.8842 8.4006 11.6852" fill="none"/><path d="m482.1573 517.1826c-2.3217-3.7151 6.5996-6.224 11.7593-7.6266" fill="none"/><path d="m534.2506 507.5086c3.5189-.004 7.5912-.1043 11.4225-.3344" fill="none"/><path d="m439.5134 476.6679c.9265 1.3001 4.2603 4.7798 3.4963 9.0162 4.6219 2.3301 1.0864 6.8046.4167 8.0613 3.5187 6.5948.3709 7.7178-1.3809 8.9119.7465 1.4459.871 2.8335.3968 3.914l11.0408 15.0996c-.8732 1.7883-3.4792 2.829-5.7318 2.829-4.3162 0-10.4479-1.6242-12.9523-1.5659-1.5888 1.0911-4.1571 1.5659-6.7711 1.5659-2.6266 0-5.4389-.3616-7.2055-1.1663-9.8428-4.484-26.7997-1.9137-37.5809-.2552-1.9588.3013-5.4588 1.4215-7.8877 1.4215-2.7895 0-5.7901-1.4118-7.907-6.056-.7234-1.5868-1.1526-3.5097-1.099-5.5618.1807-6.9164 3.6241-11.69 13.8913-15.1056 2.4601-2.6755 4.5842-3.9034 7.8397-1.5028 2.1348-4.3182 5.6114-5.0982 8.2375-4.2556-.2686-3.3936 2.0552-4.6753 5.51-7.0064-3.9101-2.6743-4.0766-6.5285-2.5666-8.3437" fill="#e5e5e5"/><path d="m434.8163 522.9507c1.9754-3.5511-2.194-9.8457-4.9245-13.5232" fill="none"/><path d="m448.7813 515.2405c1.2295 4.2049-8.0377 4.2048-13.3844 4.1579" fill="none"/><path d="m390.855 508.7965c8.9847-.5913 19.9276-1.9785 24.0755-2.3493 7.7296-.6909 9.8899-.8147 10.1342 6.2515 5.0939-3.6141 14.2617-10.3888 17.3777-6.1275" fill="none"/></g></g><path d="m604.3115 569.5982c99.1326-26.4311 144.1885-103.0645 144.1885-183.2655 0-111.7735-83.1323-229.8327-222.0342-229.8327-38.6587 0-66.9138 14.0137-76.4658 45.746-9.552-31.7323-37.8072-45.746-76.4658-45.746-138.9019 0-222.0342 118.0592-222.0342 229.8327 0 80.201 45.0558 156.8344 144.1885 183.2655 7.4415 43.9393 94.4994 63.9018 154.3115 63.9018s146.87-19.9625 154.3115-63.9018z" fill="none" stroke="#000" stroke-linecap="round" stroke-linejoin="round" stroke-width="3"/></svg>