<?xml version="1.0" encoding="utf-8"?><!DOCTYPE svg PUBLIC "-//W3C//DTD SVG 1.1//EN" "http://www.w3.org/Graphics/SVG/1.1/DTD/svg11.dtd"><svg viewBox="0 0 500 640" xmlns="http://www.w3.org/2000/svg"><path d="m.5.5v474.25c0 68.898 55.852 124.75 124.75 124.75h62.375c27.289 0 50.92 17.163 62.375 40 11.455-22.837 35.086-40 62.375-40h62.375c68.898 0 124.75-55.852 124.75-124.75v-474.25z" fill="#e5e5e5" stroke="#000" stroke-linecap="round" stroke-linejoin="round"/><g stroke="#000" stroke-linecap="round" stroke-linejoin="round"><path d="m449.25 314.2813v22.125h20v219.7813c-22.8764 26.514-56.733 43.3125-94.5 43.3125h-62.375c-11.5859 0-22.5097 3.0981-32.125 8.4063v-271.5h20v-22.125h29.8125v22.5625h29.7813v-22.5625h29.8125v22.5625h29.7813v-22.5625h29.8125z" fill="#c87137" fill-rule="evenodd"/><path d="m469.25 359.397h-188.9997" fill="none"/><path d="m466.6652 558.588h-186.4149" fill="none"/><path d="m469.25 535.5688h-188.9997" fill="none"/><path d="m469.25 512.5496h-188.9997" fill="none"/><path d="m469.25 489.5304h-188.9997" fill="none"/><path d="m469.25 420.4728h-188.9997" fill="none"/><path d="m469.25 397.4536h-188.9997" fill="none"/><path d="m394.7499 374.4347v23.0188" fill="none"/><path d="m469.25 374.4344h-188.9997" fill="none"/><path d="m438.7839 581.6072h-158.5336" fill="none"/><path d="m469.25 466.5112h-188.9997" fill="none"/><path d="m469.25 443.492h-188.9997" fill="none"/><path d="m354.7501 374.4347v23.0188" fill="none"/><path d="m394.7499 420.4734v23.0188" fill="none"/><path d="m354.7501 420.4734v23.0188" fill="none"/><path d="m394.7499 466.5118v23.0188" fill="none"/><path d="m354.7501 466.5118v23.0188" fill="none"/><path d="m394.7499 512.5501v23.0188" fill="none"/><path d="m354.7501 512.5501v23.0188" fill="none"/><path d="m394.7499 558.5885v23.0188" fill="none"/><path d="m354.7501 558.5885v23.0188" fill="none"/><path d="m414.7499 397.4542v23.0188" fill="none"/><path d="m334.7501 397.4542v23.0188" fill="none"/><path d="m374.75 397.4542v23.0188" fill="none"/><path d="m414.7499 443.4926v23.0188" fill="none"/><path d="m334.7501 443.4926v23.0188" fill="none"/><path d="m374.75 443.4926v23.0188" fill="none"/><path d="m414.7499 489.5309v23.0188" fill="none"/><path d="m334.7501 489.5309v23.0188" fill="none"/><path d="m374.75 489.5309v23.0188" fill="none"/><path d="m414.7499 535.5693v23.0188" fill="none"/><path d="m334.7501 535.5693v23.0188" fill="none"/><path d="m374.75 535.5693v23.0188" fill="none"/><path d="m414.7499 581.6077v11.1544" fill="none"/><path d="m334.7501 581.6077v17.8924" fill="none"/><path d="m374.75 581.6077v17.8924" fill="none"/><path d="m50.75 314.2813v22.125h-20v219.7813c22.8764 26.514 56.733 43.3125 94.5 43.3125h62.375c11.5859 0 22.5097 3.0981 32.125 8.4063v-271.5h-20v-22.125h-29.8125v22.5625h-29.7813v-22.5625h-29.8125v22.5625h-29.7813v-22.5625h-29.8125z" fill="#c87137" fill-rule="evenodd"/><path d="m30.75 359.397h188.9997" fill="none"/><path d="m33.3348 558.588h186.4149" fill="none"/><path d="m30.75 535.5688h188.9997" fill="none"/><path d="m30.75 512.5496h188.9997" fill="none"/><path d="m30.75 489.5304h188.9997" fill="none"/><path d="m30.75 420.4728h188.9997" fill="none"/><path d="m30.75 397.4536h188.9997" fill="none"/><path d="m105.2501 374.4347v23.0188" fill="none"/><path d="m30.75 374.4344h188.9997" fill="none"/><path d="m61.2161 581.6072h158.5336" fill="none"/><path d="m30.75 466.5112h188.9997" fill="none"/><path d="m30.75 443.492h188.9997" fill="none"/><path d="m145.2499 374.4347v23.0188" fill="none"/><path d="m105.2501 420.4734v23.0188" fill="none"/><path d="m145.2499 420.4734v23.0188" fill="none"/><path d="m105.2501 466.5118v23.0188" fill="none"/><path d="m145.2499 466.5118v23.0188" fill="none"/><path d="m105.2501 512.5501v23.0188" fill="none"/><path d="m145.2499 512.5501v23.0188" fill="none"/><path d="m105.2501 558.5885v23.0188" fill="none"/><path d="m145.2499 558.5885v23.0188" fill="none"/><path d="m85.2502 397.4542v23.0188" fill="none"/><path d="m165.2499 397.4542v23.0188" fill="none"/><path d="m125.25 397.4542v23.0188" fill="none"/><path d="m85.2502 443.4926v23.0188" fill="none"/><path d="m165.2499 443.4926v23.0188" fill="none"/><path d="m125.25 443.4926v23.0188" fill="none"/><path d="m85.2502 489.5309v23.0188" fill="none"/><path d="m165.2499 489.5309v23.0188" fill="none"/><path d="m125.25 489.5309v23.0188" fill="none"/><path d="m85.2502 535.5693v23.0188" fill="none"/><path d="m165.2499 535.5693v23.0188" fill="none"/><path d="m125.25 535.5693v23.0188" fill="none"/><path d="m85.2502 581.6077v11.1544" fill="none"/><path d="m165.2499 581.6077v17.8924" fill="none"/><path d="m125.25 581.6077v17.8924" fill="none"/><path d="m309.9999 300.2507 14.4999-15.0377v-45.1131h-29.8004v22.5568h-29.7991v-22.5568h-29.8003v22.5568h-29.7992v-22.5568h-29.8003v45.1131l14.4999 15.0377-14.5003 299.2493h12.125c27.289 0 50.92 17.163 62.375 40 11.455-22.837 35.086-40 62.375-40h12.125z" fill="#c87137" fill-rule="evenodd"/><path d="m175.5 285.2131h149" fill="none"/><path d="m181.1976 484.404h137.6049" fill="none"/><path d="m182.2556 461.3848h135.4887" fill="none"/><path d="m183.4159 438.3656h133.1682" fill="none"/><path d="m184.5158 415.3464h130.9685" fill="none"/><path d="m187.8498 346.2889h124.3005" fill="none"/><path d="m188.9493 323.2697h122.1014" fill="none"/><path d="m230.0001 300.2507v23.0188" fill="none"/><path d="m190.0002 300.2505h119.9995" fill="none"/><path d="m180.1096 507.4232h139.7807" fill="none"/><path d="m177.8532 553.4616h144.2936" fill="none"/><path d="m178.9553 530.4424h142.0895" fill="none"/><path d="m176.725 576.4808h146.55" fill="none"/><path d="m185.6352 392.3273h128.7297" fill="none"/><path d="m186.7552 369.308h126.4897" fill="none"/><path d="m269.9999 300.2507v23.0188" fill="none"/><path d="m230.0001 346.2895v23.0188" fill="none"/><path d="m269.9999 346.2895v23.0188" fill="none"/><path d="m230.0001 392.3278v23.0188" fill="none"/><path d="m269.9999 392.3278v23.0188" fill="none"/><path d="m230.0001 438.3662v23.0188" fill="none"/><path d="m269.9999 438.3662v23.0188" fill="none"/><path d="m230.0001 484.4045v23.0188" fill="none"/><path d="m269.9999 484.4045v23.0188" fill="none"/><path d="m210.0001 323.2703v23.0188" fill="none"/><path d="m289.9999 323.2703v23.0188" fill="none"/><path d="m250 323.2703v23.0188" fill="none"/><path d="m210.0001 369.3086v23.0188" fill="none"/><path d="m289.9999 369.3086v23.0188" fill="none"/><path d="m250 369.3086v23.0188" fill="none"/><path d="m210.0001 415.347v23.0188" fill="none"/><path d="m289.9999 415.347v23.0188" fill="none"/><path d="m250 415.347v23.0188" fill="none"/><path d="m210.0001 461.3853v23.0188" fill="none"/><path d="m289.9999 461.3853v23.0188" fill="none"/><path d="m250 461.3853v23.0188" fill="none"/><path d="m210.0001 507.4237v23.0188" fill="none"/><path d="m289.9999 507.4237v23.0188" fill="none"/><path d="m250 507.4237v23.0188" fill="none"/><path d="m210.0001 553.462v23.0188" fill="none"/><path d="m289.9999 553.462v23.0188" fill="none"/><path d="m250 553.462v23.0188" fill="none"/><path d="m230.0001 530.4429v23.0187" fill="none"/><path d="m269.9999 530.4429v23.0187" fill="none"/><path d="m230.0001 576.4813v23.0187" fill="none"/><path d="m269.9999 576.4813v23.0187" fill="none"/><path d="m190.0002 392.3277v23.0188" fill="none"/><path d="m309.9998 392.3277v23.0188" fill="none"/><path d="m190.0002 438.366v23.0188" fill="none"/><path d="m309.9998 438.366v23.0188" fill="none"/><path d="m190.0002 484.4044v23.0188" fill="none"/><path d="m309.9998 484.4044v23.0188" fill="none"/><path d="m190.0002 530.4428v23.0188" fill="none"/><path d="m309.9998 530.4428v23.0188" fill="none"/><path d="m190.0002 576.4812v23.0188" fill="none"/><path d="m309.9998 576.4812v23.0188" fill="none"/><path d="m177.8532 599.5h144.2936" fill="none"/><path d="m239.05 622.5192h21.9" fill="none"/><path d="m250 599.5004v23.0188" fill="none"/><path d="m499.5 240.1v234.65c0 50.8152-30.379 94.5206-73.9688 113.9688l13.9688-288.4678-14.5-15.038v-45.113h29.8125v22.557h29.7813v-22.557z" fill="#c87137" fill-rule="evenodd"/><path d="m499.5 285.2131h-74.5" fill="none"/><path d="m499.0082 484.404h-68.3106" fill="none"/><path d="m499.5 461.3848h-67.7444" fill="none"/><path d="m499.5 438.3656h-66.5841" fill="none"/><path d="m499.5 415.3464h-65.4842" fill="none"/><path d="m499.5 346.2889h-62.1503" fill="none"/><path d="m499.5 323.2697h-61.0507" fill="none"/><path d="m499.5 300.2505h-59.9998" fill="none"/><path d="m495.0571 507.4232h-65.4474" fill="none"/><path d="m471.2926 553.4616h-43.9394" fill="none"/><path d="m486.2472 530.4424h-57.7919" fill="none"/><path d="m446.713 576.4808h-20.4881" fill="none"/><path d="m499.5 392.3273h-64.3649" fill="none"/><path d="m499.5 369.308h-63.2448" fill="none"/><path d="m479.5001 300.2507v23.0188" fill="none"/><path d="m479.5001 346.2895v23.0188" fill="none"/><path d="m479.5001 392.3278v23.0188" fill="none"/><path d="m479.5001 438.3662v23.0188" fill="none"/><path d="m479.5001 484.4045v23.0188" fill="none"/><path d="m459.5001 323.2703v23.0188" fill="none"/><path d="m459.5001 369.3086v23.0188" fill="none"/><path d="m459.5001 415.347v23.0188" fill="none"/><path d="m459.5001 461.3853v23.0188" fill="none"/><path d="m459.5001 507.4237v23.0188" fill="none"/><path d="m459.5001 553.462v12.5706" fill="none"/><path d="m479.5001 530.4429v11.826" fill="none"/><path d="m439.5002 392.3277v23.0188" fill="none"/><path d="m439.5002 438.366v23.0188" fill="none"/><path d="m439.5002 484.4044v23.0188" fill="none"/><path d="m439.5002 530.4428v23.0188" fill="none"/><path d="m.5 240.1v234.65c0 50.8152 30.379 94.5206 73.9688 113.9688l-13.9688-288.4678 14.5-15.038v-45.113h-29.8125v22.557h-29.7813v-22.557z" fill="#c87137" fill-rule="evenodd"/><path d="m.5 285.2131h74.5" fill="none"/><path d="m.9918 484.404h68.3106" fill="none"/><path d="m.5 461.3848h67.7444" fill="none"/><path d="m.5 438.3656h66.5841" fill="none"/><path d="m.5 415.3464h65.4842" fill="none"/><path d="m.5 346.2889h62.1503" fill="none"/><path d="m.5 323.2697h61.0507" fill="none"/><path d="m.5 300.2505h59.9998" fill="none"/><path d="m4.9429 507.4232h65.4474" fill="none"/><path d="m28.7074 553.4616h43.9394" fill="none"/><path d="m13.7528 530.4424h57.7919" fill="none"/><path d="m53.287 576.4808h20.4881" fill="none"/><path d="m.5 392.3273h64.3649" fill="none"/><path d="m.5 369.308h63.2448" fill="none"/><path d="m20.4999 300.2507v23.0188" fill="none"/><path d="m20.4999 346.2895v23.0188" fill="none"/><path d="m20.4999 392.3278v23.0188" fill="none"/><path d="m20.4999 438.3662v23.0188" fill="none"/><path d="m20.4999 484.4045v23.0188" fill="none"/><path d="m40.4999 323.2703v23.0188" fill="none"/><path d="m40.4999 369.3086v23.0188" fill="none"/><path d="m40.4999 415.347v23.0188" fill="none"/><path d="m40.4999 461.3853v23.0188" fill="none"/><path d="m40.4999 507.4237v23.0188" fill="none"/><path d="m40.4999 553.462v12.5706" fill="none"/><path d="m20.4999 530.4429v11.826" fill="none"/><path d="m60.4998 392.3277v23.0188" fill="none"/><path d="m60.4998 438.366v23.0188" fill="none"/><path d="m60.4998 484.4044v23.0188" fill="none"/><path d="m60.4998 530.4428v23.0188" fill="none"/></g><path d="m1.5 1.5v473.25c0 68.35 55.4 123.75 123.75 123.75h62.375c27.18 0 50.966 17.254 62.375 40 11.409-22.746 35.195-40 62.375-40h62.375c68.35 0 123.75-55.4 123.75-123.75v-473.25z" fill="none" stroke="#000" stroke-linecap="round" stroke-linejoin="round" stroke-width="3"/></svg>