<?xml version="1.0" encoding="utf-8"?><!DOCTYPE svg PUBLIC "-//W3C//DTD SVG 1.1//EN" "http://www.w3.org/Graphics/SVG/1.1/DTD/svg11.dtd"><svg viewBox="0 0 500 640" xmlns="http://www.w3.org/2000/svg"><path d="m.5.5v474.25c0 68.898 55.852 124.75 124.75 124.75h62.375c27.289 0 50.92 17.163 62.375 40 11.455-22.837 35.086-40 62.375-40h62.375c68.898 0 124.75-55.852 124.75-124.75v-474.25z" fill="#0071bc" stroke="#000" stroke-linecap="round" stroke-linejoin="round"/><g stroke="#000" stroke-linecap="round" stroke-linejoin="round"><g><path d="m326.3452 75.6859c-42.6524 25.331-21.0307 74.7778-57.8617 104.5124-1.5313-.3123-3.0433-.5986-4.5692-.8608l-13.9475-118.8376-13.8811 118.7713c-1.2272.2099-2.4344.464-3.6528.7305-11.3366-51.7171-57.0746-52.9109-58.8031-104.3055-12.2481 48.0714 38.0295 67.7365 33.0003 114.7662-1.3198.8246-2.6039 1.7169-3.8852 2.6234l-93.8127-74.1537 74.1536 93.8128c-.7226 1.0201-1.422 2.044-2.0836 3.0989-44.5768-28.5428-77.7526 2.93-115.3163-32.1892 25.331 42.6523 74.7777 21.0306 104.4792 57.8287-.352 1.5203-.6286 3.0537-.894 4.6026l-118.7711 13.9141 118.771 13.9143c.2084 1.2148.4341 2.4137.7141 3.6361-51.7004 11.353-52.9046 57.0663-104.2992 58.7948 48.0715 12.2482 67.7468-38.0048 114.7598-33.0252.8249 1.3 1.7123 2.6256 2.64 3.9353l-74.1533 93.8125 93.8125-74.1533c1.0055.7113 2.0254 1.3984 3.0822 2.0666-28.5262 44.5933 2.9466 77.7691-32.1726 115.3328 42.6524-25.331 21.0307-74.7777 57.812-104.4956 1.5015.3352 3.0407.6121 4.586.8775l13.9142 118.804 13.9474-118.8372c1.2052-.2071 2.3901-.4698 3.6195-.6975 11.3695 51.7501 57.0829 52.9542 58.8114 104.3488 12.2481-48.0715-38.0049-67.7468-32.9922-114.7928 1.3023-.8403 2.5884-1.733 3.8691-2.6399l93.8457 74.1865-74.1866-93.8456c.7114-1.0059 1.3982-2.0252 2.0832-3.0658 44.6099 28.5425 77.7857-2.9302 115.3494 32.189-25.331-42.6524-74.7777-21.0307-104.5288-57.8451.2997-1.5271.6137-3.0479.8776-4.5859l118.8375-13.9144-118.8374-13.9141c-.2082-1.2128-.4345-2.4152-.681-3.6362 51.7334-11.3531 52.9376-57.0665 104.3321-58.795-48.0715-12.2481-67.7468 38.0049-114.7928 32.9923-.8395-1.302-1.7346-2.5889-2.6399-3.8687l74.1868-93.846-93.846 74.1868c-1.019-.7217-2.045-1.4232-3.0824-2.1001 28.5592-44.5935-2.9136-77.7693 32.2056-115.333z" fill="#eac102"/><path d="m324.4999 259.9999c0 41.1453-33.3548 74.5-74.5 74.5s-74.5-33.3547-74.5-74.5c0-41.145 33.3544-74.5 74.4996-74.5s74.5004 33.355 74.5004 74.5z" fill="none"/><path d="m241.956 232.6126c-9.2706-13.0041-35.2535-13.6288-51.5412 5.8735 16.8599-13.8143 35.1029-14.2622 51.5412-5.8735z"/><path d="m200.0338 247.9899c12.6167-10.5277 24.4035-8.9577 32.9337.7506-9.3074 6.2725-22.1355 6.1101-32.9337-.7506z" fill="#e5e5e5"/><path d="m223.2563 247.0516c0 3.3423-2.7096 6.0519-6.0519 6.0519-3.3424 0-6.0519-2.7096-6.0519-6.0519 0-3.3426 2.7095-6.0519 6.0519-6.0519s6.0519 2.7093 6.0519 6.0519z"/><path d="m194.1227 247.0985c10.568-12.6301 27.5823-12.0594 33.9984-7.6617 4.2828 2.9356 6.7533 5.8656 11.1329 6.8173" fill="none"/><path d="m198.5326 252.1653c20.0787 10.4235 29.3005 4.96 38.1269-1.1876" fill="none"/><path d="m239.254 273.2766c7.8811-10.3125 8.4626-33.0076 2.702-40.664" fill="none"/><path d="m232.7799 274.9655c-8.6532 7.1467 5.3459 15.2876 7.8491 5.7936.9148 3.0438 5.1114 4.8412 9.3709 4.8412s8.4561-1.7974 9.3709-4.8412c2.5032 9.494 16.5022 1.3531 7.8491-5.7936" fill="none"/><path d="m225.6981 305.1963c19.5695-3.4909 16.4109.051 24.3017.051s4.7322-3.542 24.3017-.051" fill="none"/><path d="m258.0437 232.6126c9.2706-13.0041 35.2535-13.6288 51.5412 5.8735-16.8599-13.8143-35.1029-14.2622-51.5412-5.8735z"/><path d="m299.9659 247.9899c-12.6167-10.5277-24.4035-8.9577-32.9337.7506 9.3074 6.2725 22.1355 6.1101 32.9337-.7506z" fill="#e5e5e5"/><path d="m276.7434 247.0516c0 3.3423 2.7096 6.0519 6.0519 6.0519 3.3424 0 6.0519-2.7096 6.0519-6.0519 0-3.3426-2.7095-6.0519-6.0519-6.0519s-6.0519 2.7093-6.0519 6.0519z"/><path d="m305.8771 247.0985c-10.568-12.6301-27.5823-12.0594-33.9984-7.6617-4.2828 2.9356-6.7533 5.8656-11.1329 6.8173" fill="none"/><path d="m301.4671 252.1653c-20.0787 10.4235-29.3005 4.96-38.1269-1.1876" fill="none"/><path d="m260.7457 273.2766c-7.8811-10.3125-8.4626-33.0076-2.702-40.664" fill="none"/><path d="m274.3016 305.1963c-8.6229-4.5733-11.2093-13.7886-24.3017-7.7761-13.0925-6.0125-15.6788 3.2028-24.3017 7.7761 14.8427.7941 10.8691 9.5612 24.3017 9.5612 13.4327 0 9.4591-8.7671 24.3017-9.5612z" fill="none"/></g><g><path d="m349.1233 471.7714c2.1823-.4724 4.971 3.7364 5.357 4.7197l4.0177-2.633c-1.2011-4.3619-7.6488-8.2262-9.3746-2.0867z" fill="#eac102"/><path d="m340.3965 491.1555c1.5726-2.4986 6.2804-1.1543 7.1568-.59l1.1032-6.0637c-3.6414-1.6236-8.3416-.08-8.26 6.6537z" fill="#eac102"/><path d="m345.2565 507.3235c2.7093-2.5594 5.6459-4.183 6.7013-4.6278l-3.3154-5.1586c-3.3767 2.12-4.6534 4.6351-3.3859 9.7864z" fill="#eac102"/><path d="m366.1929 512.8079c1.3819-2.5529 1.0187-9.0533.9281-10.0959l4.9896 2.1462c.9116 4.4657-1.9205 9.7428-5.9176 7.9497z" fill="#eac102"/><path d="m387.6109 468.2882c1.2084 1.5488 1.3231 8.3314-.1705 9.5429-3.4091 2.7653-6.2168 1.531-8.5775 2.3886-1.9736.7169-7.523 5.0148-9.8963 6.1631-1.9075.9231-5.4436 1.8019-5.6029.9878.1573.8172 3.6671-.059 5.6029-.9878-1.9287.9294-3.4817-1.8775-3.9221-2.4277-1.481-1.8499-2.281-3.8952-1.8749-7.0835.5738-4.5051-4.124-6.8688-6.4728-2.6867-3.9191.6312-3.2048 2.9622-3.0993 6.7615.0416 1.4949 2.2144 2.349 3.7642 2.9969-1.564-.6661-3.7265-1.5102-3.7642-2.9969-1.0716-1.072-4.361-.1846-5.8827 1.9327-.7841 1.0906-.009 3.0532-.3216 4.3733-.6398 2.702-.541 4.2826 1.8014 5.9183.781-.6354 3.043-1.5726 4.404-2.1036-1.3571.5308-3.6287 1.4813-4.404 2.1036-1.3414 1.0767-2.0551 2.5063-1.6093 5.3078.1168.7344.6323 1.9578 1.9537 2.42 1.3709 2.2597 2.2704 3.5967 4.1679 2.9197 3.1489-1.1234 3.9458-6.3977 5.409-6.4256 2.1244-.04 2.5419-2.2919 5.1194-3.2179 2.106-.7567 4.4028 1.39 3.8009 2.5935-.6098 1.2188-2.001 1.8791-2.4431 3.2478-1.5419 4.772 9.5846 8.2569 11.0582 4.9538.9592-2.1497-1.7734-6.2508 1.7322-8.8049 4.5903-3.3442 4.1779 5.5715 10.0646 5.1668 4.0521-.2785-5.3673-7.9945-1.0551-7.5516 4.061.4173 7.523 5.6236 10.5515 2.2855 1.6522-1.8211-5.9982-4.2469-1.7044-5.2662 2.8745-.6824 8.348 4.412 9.9833.6955 1.1256-2.5581-4.7836-3.356-3.7336-5.9618 1.1474-2.8473 8.8587 2.718 10.5515-1.9871.7527-2.0921-3.6121-2.5166-3.3277-4.0741.2052-1.1237 1.9928.2995 3.2466-1.1923 2.5373-3.019 6.8456-14.6961 3.0843-11.4266-2.3713 2.0614-3.608 2.4508-4.8699 3.9744 1.1814-2.0599 1.4933-11.5727 1.3798-12.2213-.4984-2.8483 6.5375-4.2257 10.7548-9.803 3.5142-4.6475 5.7638-8.9533 7.1828-15.1371l-20.3141-14.174c-.0627 11.7186-3.7324 12.9209-9.6462 13.6222-7.3043.8666-19.9232 6.0473-20.3547 16.4566-5.0035.7027-6.4631-1.9258-7.3586-3.4476-.5796-.985-5.7059-2.0375-7.8033 1.3544-2.3137 3.7417-5.2586 3.6484-6.605 3.9849.8844 4.0787 4.4903 4.9785 8.1364 3.8386 2.8064-.8771 4.7843-3.7586 6.0967-3.9718 3.2251-.5244 3.2074 3.8384 7.5469 2.4275.7854 4.0238 3.2722 9.214 7.4209 14.5314z" fill="#eac102"/><path d="m343.194 300.4999c.9165 3.1397-1.589 7.9811-1.6887 9.4612l3.8016 5.3841c2.4525-3.4152 4.5425-13.4643-2.1128-14.8453z" fill="#eac102"/><path d="m318.5063 303.2143c2.8798.4176 6.6667 4.7799 6.9718 8.8384l4.9399-5.1785c-1.5891-3.9904-7.8473-9.8874-11.9118-3.6599z" fill="#eac102"/><path d="m315.9628 331.1759c2.1763-2.0215 4.7131-2.6761 8.3484-2.6919l-1.1318-6.4c-3.3199-.3966-10.1443 3.9593-7.2166 9.0919z" fill="#eac102"/><path d="m322.6517 346.0783c2.8333-.997 4.814-3.1167 6.9362-6.673l4.3141 4.7115c-1.619 3.479-8.9634 7.7208-11.2503 1.9615z" fill="#eac102"/><path d="m376.4608 361.4399c-26.3703-15.3758-27.1604-34.0819-34.3706-36.5678-1.1414-.3935-1.987-.8339-2.7012-1.4137-1.9419-1.5765-2.7821-3.145-2.8927-5.2821.1071 2.1389.9492 3.7133 2.8927 5.2821-3.1552-3.3105 5.8247-4.0115 7.8353-6.7566 3.0109-4.1114-1.9487-7.4247-2.6116-8.0287-.7625-.6949-4.3118-4.1183-6.5572-2.9508-2.2122 1.1503-.1932 6.7526-2.4726 8.869-1.7431-3.9374-.65-9.3806-3.9928-11.0245-2.1722-1.0685-5.164 1.4916-6.4811 4.2572-.3057.6417-2.3691 2.1265-1.9646 3.9079 1.0616 4.6744 5.246 4.6895 7.8749 6.0936.8636.4611.6774 2.3489-.7909 2.8924-1.9918.737-4.4294-1.5661-6.3046-1.1697-3.0238.6391-3.2694 8.9706-.004 10.7678 2.7692 1.5241 9.7976-4.4375 10.1352-.8148.2451 2.6294.6925 5.1153-.9612 6.2314-1.2502.8435-4.0369-.3652-4.8262 3.1149-.414 1.8252 1.6236 3.0771 2.4776 4.3206 1.044 1.5206 1.3267 5.1269 3.4592 4.7013 1.862-.3716 2.7821-7.3225 5.6256-1.4628 1.637 3.3733-2.6465 7.7654.7195 12.6903 1.0233 1.497 1.1937-5.5781 3.405-7.0603 1.4342-.9613-.5259 12.2697 2.3078 12.5499 2.0831.206 1.6886-8.5081 2.6319-5.8779 1.3021 3.6302-.0471 10.2465 1.6872 10.741.9662.2757 3.0537-5.4536 3.307-4.9003.9561 2.0887.2562 8.797 1.9953 9.981.9908.6744 2.6915-5.2372 3.3906-3.7629.8111 1.7108-1.038 6.8841.3998 8.1262.9029.7799 3.697-4.7651 3.987-4.0242 1.0272 2.6254 3.2316 7.9775 3.2316 7.9775l9.3959-6.6845z" fill="#eac102"/><path d="m323.0946 416.7867c2.7824.2003 4.4331 3.8021 5.5523 4.4749l5.1505-3.6608c-1.9995-3.1894-7.7897-5.5044-10.7028-.8141z" fill="#eac102"/><path d="m315.2728 436.162c2.2095-2.2165 5.3649-.7331 6.6274.3649l1.403-6.8876c-3.2791-.7586-8.4385.4183-8.0303 6.5227z" fill="#eac102"/><path d="m332.6909 454.7024c-.6867-2.7744.4437-7.9787.6353-8.873l-5.4868-1.0928c-1.2481 4.6913 1.4835 9.2067 4.8514 9.9658z" fill="#eac102"/><path d="m348.6393 453.8882c.6373-2.2015.7527-9.1426.5612-10.0369l5.3496-1.7082c.7786 6.253-1.6123 11.8644-5.9108 11.7451z" fill="#eac102"/><path d="m448.7731 432.017c5.3618 6.824 13.5222 10.7864 16.4645 6.3125 6.5733-9.9949-9.2831-27.2537-15.6779-42.3099-13.4343-31.6308-5.8575-54.1346 3.2465-63.1597 8.6942-8.6188 10.0818-8.0767 13.5346-15.8301.6066 5.5565-.2918 11.5725-3.7424 15.1079 5.7271 8.1306-4.2582 22.5835-7.7946 45.4566-1.5582 10.0786-4.4335 14.1532 5.5634 30.1805 3.4476 5.5273 6.107 9.8241 9.3695 18.4667 3.5389-14.8614-15.027-32.3304-4.3137-44.5527-2.1138 10.3666 16.3287 35.9335 5.2665 52.1195-1.4536 12.0801-10.0767 15.7974-23.2273 3.4975z" fill="#eac102"/><path d="m462.5985 332.1377c-11.4552 11.6236-13.5815 31.3628-14.6122 48.4093" fill="none"/><path d="m418.4667 509.2006c3.9202-1.3571 8.6217 2.3362 9.259 3.0989l2.5773-5.1318c-2.3464-3.5966-9.2679-3.9164-11.8363 2.0329z" fill="#eac102"/><path d="m414.8731 526.771c1.7688-2.8968 7.6954-2.8709 8.4498-2.7539l.0864-6.1878c-3.1125-1.0009-8.2803 2.7753-8.5363 8.9417z" fill="#eac102"/><path d="m433.2052 539.4999c-.7935-4.7785 2.9993-7.6391 3.5474-8.3917l-5.0528-3.6859c-2.6575 2.8478-3.0571 8.7437 1.5054 12.0776z" fill="#eac102"/><path d="m446.616 539.3653c2.9401-1.8876 2.8373-10.0279 2.9037-11.1159l5.7268-.5393c-.2627 8.6993-3.159 12.5846-8.6305 11.6552z" fill="#eac102"/><path d="m426.0922 441.7319c-3.001 5.1286-8.6303 4.3952-9.3998 1.6576-.5775-2.0544.8774-3.2997 1.5837-3.8857-8.3385-2.7243-7.2886-6.8919-5.9171-9.3263z" fill="none"/><path d="m372.66 408.2671c26.3125 6.6618 28.3544 14.677 35.8081 20.091 33.8009 24.5507 17.08 19.3522 16.7919 39.6023-.0236 1.6352.8704 3.4274 1.9829 5.1793.2686 3.8841-3.4809 5.3152-2.6524 9.5102.7967 4.0342 2.6508 10.1973-.8178 12.949 13.4963-2.1605 2.396-12.3576 6.1016-18.9402 1.7354 2.0558 3.5514 3.8609 4.6486 5.0542 4.6124 5.0159 15.1195 2.6 13.4356 9.6508-1.5454 6.4711-1.9623 14.189-4.1233 18.2644-1.7343 3.2705-5.4233 7.3656-8.2182 7.4614 2.8069-.092 6.4865-4.1759 8.2182-7.4614-2.1909 4.0627-9.4008-4.5192-10.9291-4.8444-2.9264-.623-4.9551 1.2334-5.1933 4.2603-.0456.5835-.7415 1.2875-1.0507 1.8609-1.1786 2.1858 3.1194 3.7565 5.4311 4.2534-4.419.6872-6.1035-2.0131-6.7502-2.1112-4.192-.6361-3.0819 4.0379-3.4323 6.9695-.0733.6151-.796 6.4451 3.1367 6.7528 2.5318.1981 3.6971-3.2175 4.4837-3.227.9624-.011 3.5659-1.0965 5.5184-2.8349.284 1.7706-2.3786 2.2685-4.7239 4.1693-4.2656 3.4577 8.635 11.8089 9.2469 5.7656.226-2.2317-.289-3.4498.7514-5.3618 1.5605-2.8679 4.8776.1611 7.8389-3.594.1977 2.3458-2.1946 5.1767-1.4851 8.7249.7578 3.79 11.0067.4594 11.1652-1.818.3328-4.7839-4.5955-6.9478-.7286-12.9425.8946-1.3866 6.8757-.9858 9.9125-6.9158 1.0923-2.1331-5.6373-.8112-5.7648-2.1715-.2389-2.5482 8.9017-6.8989 8.8196-8.565-.1257-2.5502-5.7381-.027-5.8633-1.5683-.1755-2.1611 10.0319-8.0529 10.0319-10.0128 0-2.2196-6.179-.3693-7.0756-1.508-1.5302-1.943 7.0756-5.9176 7.0756-10.6761 0-1.9944-4.3422 2.4056-4.8583-.2414-.6914-3.5448 1.0554-8.8596 1.1332-10.3745.1012-1.9725-3.9759 4.3581-4.336 5.7905.066-2.8575-9.5809-3.8005-10.7748-8.2032-1.3005-4.7956-2.2946-9.9089-2.5059-18.2274-.6229-24.5313-30.2286-37.5948-43.021-69.3538z" fill="#eac102"/><path d="m393.9886 377.6919-17.2178-8.0094c-10.1693 28.4994-13.7525 23.3674-25.6273 46.0931-2.2945 4.3913-5.4567 8.2167-8.9841 10.3117-2.3446 1.3925-4.4925 2.2328-6.3671 2.4729 1.8714-.2394 4.021-1.0763 6.3671-2.4729-2.0866 1.2137-2.9229-.5299-3.7817-2.0966-1.5047-2.7451.3615-6.778-2.7013-8.3576-2.2296-1.1498-4.839 2.0076-5.3615 2.2876-.7691.4121-3.9225 1.5994-4.443 5.0979-.3315 2.2278.0451 3.9988 1.0767 4.5233.8799.3551 2.1696.9641 3.6914 1.9488-1.5179-.9829-2.8124-1.6001-3.6914-1.9488-.9357-.3713-1.8037-.664-2.5343-.8264-3.4767-.7724-2.6001 4.8813-2.5873 5.8243.0105.7441-2.6215 6.2818 1.999 7.4199 3.1773.7828 5.5525-.8601 6.9159-2.4063-3.1168 3.3711-5.0518 1.2671-5.3376 5.6208-.2758 4.2019 4.7942 3.8096 5.5107 3.8588.6282.043 5.5293 1.939 5.9105-1.0485.3206-2.5132-2.2094-6.2805.6209-7.6155 4.4278-2.0883 4.331 5.4543 10.1158-.1858-.864 1.9339-2.0917 4.4175-1.2014 6.2254.9919 2.0144 2.7984.7682 5.1073.8446 3.6527.1209 5.1072-1.9748 5.2051-3.7926.2331-4.3366-2.0964-7.588-1.482-8.5443.6563-1.0218 9.8484 1.2947 10.9046-1.0564.1981-.441-1.7712-1.1133-3.2071-2.0767-1.2885-.8646-2.0863-2.0384-1.5219-2.2418 4.3828-1.5787 8.6955 1.99 12.0261-1.4003 1.6341-1.6632-7.4437-3.1539-6.7848-3.9897 2.2246-2.8225 10.8597 1.3839 12.4646-3.1541.6498-1.8377-6.976-1.4546-6.6864-3.3399.433-2.8195 11.1334 1.4114 13.5901-3.8416.7363-1.5744-5.7167-3.1234-5.4646-3.6535.2681-.5639 7.1069 3.0442 11.9037-2.7715 1.1522-1.3971-3.6109-1.1228-4.2207-2.962z" fill="#eac102"/><path d="m374.8061 313.1953c-.1605 2.2797 1.7008 5.8728 3.3037 5.0681 1.3716-.6888 1.6315-6.0076-.4524-8.6877-1.5584-2.0044-4.9238-2.5916-6.7192-.6103-4.5529 5.0246-.3324 14.3643 7.1197 16.6786 4.4586 1.3846 8.0821 1.7691 12.3337 2.2684 3.9074.4587 9.0729.1926 16.7114 5.2297-4.1307-4.6062-8.2113-8.1312-15.3188-9.0973-3.9574-.538-8.5132-.01-11.7903-2.0974-4.6717-2.9842-5.2987-6.4604-5.188-8.7521z" fill="#eac102"/><path d="m389.307 327.3382c-2.7162.186-2.1236 7.5982-2.155 9.2641l3.474-.1137c-.5344-1.6503-1.5705-6.4052-1.319-9.1504z" fill="#e5e5e5"/><path d="m388.2845 318.1038c-.7138 4.399-.8282 8.5565 1.7639 9.9429-.0765-1.6592.4036-4.7791 2.1025-8.4322z" fill="#e5e5e5"/><path d="m406.097 302.0116c-3.8784-.3531-8.0804-.4314-12.1246-1.3944-2.9163-.6947-4.3684 1.9316-3.9303 4.3432-2.3053 2.6003-2.4399 8.1415-2.8197 11.6692-.4641 4.309 3.6159 6.3319 5.5543 4.7489 2.6261-2.1445 5.7127-3.6224 7.4991-1.6628l2.3193 2.5443c1.6724 1.8345 1.804 4.0369.5097 5.3911-3.5803 3.7458-4.4655 4.2723-4.2092 6.571.3847 3.4501-7.5365 1.2977-8.4568-.727-.6178-1.3594-3.0519-2.2474-3.9689 1.5405-2.4026 9.9259 5.3442 7.9898 10.641 7.0894 4.2686-.7256 3.8845 1.6548.5131 2.8874-3.5105 1.2831-8.0394 1.5771-11.5515 1.7671-3.6162.1957-7.927 4.4397-10.3344 5.9567-4.4406 2.7982-5.662 4.4476-9.1427 4.9033-.6262 1.2391-.0494 2.8018.3487 3.2129-8.1939 8.1246-9.9601 14.6765-19.0114 14.0798-.1146 7.9659 10.1443 6.9643 13.7525 4.3403 2.5228-1.8348 6.9597-4.9405 10.0167-6.2515-1.2731 2.1172-4.8323 2.3272-9.4312 11.0362-2.5157 4.7641-7.4992 12.4561-11.5441 11.9263.2636 6.5612 8.5763 9.7273 17.4017-1.8901 4.2361-5.576 7.3049-10.2108 9.8021-12.1099-1.8011 1.761-4.9474 7.1795-5.7094 12.9793-1.0654 8.1087-4.8298 10.914-6.0073 11.9223 3.3578 3.9677 10.1244.4013 13.3664-8.1087 1.8542-4.8673 5.3918-12.7578 8.6579-15.3682-.7326 2.2162-2.0943 5.0913-1.9139 13.5216.1126 5.2643-3.1134 11.0274-6.3027 11.2063 2.6284.9445 7.885-.5952 11.387-6.1121 1.815-2.8591 4.2524-9.8959 5.5694-14.4702 1.8322 5.835 2.8142 17.3345.3482 20.861 12.9438-1.9554 7.1378-14.4381 11.3709-22.3595-.2585 7.7915 5.7089 8.4602 3.2581 18.4893 10.9328-3.9553 4.2962-21.9086 6.3983-24.7079.0538 6.0015 4.909 8.928 4.8986 16.6968 6.0351-9.7992.6281-11.6959 1.4023-26.2819.8427 3.9143 4.2456 7.1278 4.6064 12.8755 4.7789-11.1314-2.0148-18.6637-1.3693-26.7389 1.3665 3.082 2.8192 4.3359 4.6056 11.2409.3926-14.4434-1.4051-14.4281-3.2597-25.391 1.686 1.9263 2.3219 3.8138 3.4983 6.608-.1525-4.1388-1.5319-12.4315-1.5319-12.4315s.7784-9.8707-1.1229-15.2106c-3.6894-10.3614-19.4106-25.5672-23.9839-19.1924z" fill="#eac102"/><path d="m366.9442 360.8524c1.153 1.6785 6.1331 2.135 10.6898-.7191 2.7909-1.7481 6.1059-4.073 9.4877-4.8921-3.0534 4.5534-4.8088 6.3022-8.0514 8.6621 8.0213 10.6038 13.8922-9.8659 26.9919-10.4843-3.3904 3.6696-2.9626 9.9646-7.0084 14.5292 12.8734 2.2469 11.6708-15.8641 20.502-20.0035" fill="none"/><path d="m406.7787 305.2329c1.4418.9928 2.7979 2.2535 4.3604 2.6567 1.7738.4577 2.658 1.6805 4.1237 3.3773-.9529 3.3193-.6915 7.4123-3.615 7.4169-2.4326 0-3.3324-2.8901-3.5896-5.8657-.1683-1.9466-1.9081-2.8309-1.2796-7.5852z" fill="#e5e5e5"/><path d="m411.1391 307.8896c-.1333 1.2801-1.9214 4.952-2.9374 6.1584-.0921-.2814-.0692-.7829-.1435-1.2299-.4514-2.7229-1.7975-2.752-1.2576-7.6104 1.5557 1.1128 2.6479 2.2301 4.3384 2.6819z"/><path d="m390.0422 304.9604c1.0384-1.1437 2.6194-.477 3.8647-.7411" fill="#ed1c24"/><path d="m424.5675 321.295c2.7407.1833 5.4816.1009 8.2223-.1706-1.9985 6.0598-4.3198 11.2845-7.2468 15.525" fill="#eac102"/><path d="m410.8343 300.6678 1.6593-3.6948.748-3.5305c1.2488 4.1025 1.8927 4.4218 5.608 4.9513 1.7511 3.7514 2.4012 4.365 6.5363 5.3268 1.0561 4.1138 1.6841 4.75 5.4731 6.4154.6144 3.7037.9481 4.3405 5.0765 5.4954l-3.5111.829-3.6543 1.7441c-2.243-3.7222-4.6072-7.1957-7.5839-10.106-2.9766-2.9105-6.5807-5.2727-10.352-7.4307z" fill="#eac102"/><path d="m416.5142 293.0253-1.6756 1.5795-1.7768-.2076-.1871-2.0449.9861-4.8524 2.1107 1.9622z" fill="#eac102"/><path d="m421.0451 292.0075 1.7949-.1059.6934 1.814-.6629 3.4589-3.4925 1.916-.987-.1587-.6893-.9531.39-4.151z" fill="#eac102"/><path d="m428.4112 298.1122 2.0042.4647.5814 2.1297-1.0962 3.4242-4.0776.8935-1.1387-.5815-.6071-1.1255.865-4.2394z" fill="#eac102"/><path d="m436.2773 312.3489-1.5401 1.7121.2484 1.7722 2.0476.1403 4.8266-1.0975-2.0091-2.0661z" fill="#eac102"/><path d="m437.2553 305.9963-1.8287-.652-3.4412.7422-1.8347 3.5369.1811.9838.9684.6675 4.1393-.4851 1.7512-2.9958z" fill="#eac102"/></g><g><path d="m150.8767 471.7714c-2.1823-.4724-4.971 3.7364-5.357 4.7197l-4.0177-2.633c1.2011-4.3619 7.6488-8.2262 9.3746-2.0867z" fill="#eac102"/><path d="m159.6035 491.1555c-1.5726-2.4986-6.2804-1.1543-7.1568-.59l-1.1032-6.0637c3.6414-1.6236 8.3416-.08 8.26 6.6537z" fill="#eac102"/><path d="m154.7435 507.3235c-2.7093-2.5594-5.6459-4.183-6.7013-4.6278l3.3154-5.1586c3.3767 2.12 4.6534 4.6351 3.3859 9.7864z" fill="#eac102"/><path d="m133.8071 512.8079c-1.3819-2.5529-1.0187-9.0533-.9281-10.0959l-4.9896 2.1462c-.9116 4.4657 1.9205 9.7428 5.9176 7.9497z" fill="#eac102"/><path d="m112.3891 468.2882c-1.2084 1.5488-1.3231 8.3314.1705 9.5429 3.4091 2.7653 6.2168 1.531 8.5775 2.3886 1.9736.7169 7.523 5.0148 9.8963 6.1631 1.9075.9231 5.4436 1.8019 5.6029.9878-.1573.8172-3.6671-.059-5.6029-.9878 1.9287.9294 3.4817-1.8775 3.9221-2.4277 1.481-1.8499 2.281-3.8952 1.8749-7.0835-.5738-4.5051 4.124-6.8688 6.4728-2.6867 3.9191.6312 3.2048 2.9622 3.0993 6.7615-.0416 1.4949-2.2144 2.349-3.7642 2.9969 1.564-.6661 3.7265-1.5102 3.7642-2.9969 1.0716-1.072 4.361-.1846 5.8827 1.9327.7841 1.0906.009 3.0532.3216 4.3733.6398 2.702.541 4.2826-1.8014 5.9183-.781-.6354-3.043-1.5726-4.404-2.1036 1.3571.5308 3.6287 1.4813 4.404 2.1036 1.3414 1.0767 2.0551 2.5063 1.6093 5.3078-.1168.7344-.6323 1.9578-1.9537 2.42-1.3709 2.2597-2.2704 3.5967-4.1679 2.9197-3.1489-1.1234-3.9458-6.3977-5.409-6.4256-2.1244-.04-2.5419-2.2919-5.1194-3.2179-2.106-.7567-4.4028 1.39-3.8009 2.5935.6098 1.2188 2.001 1.8791 2.4431 3.2478 1.5419 4.772-9.5846 8.2569-11.0582 4.9538-.9592-2.1497 1.7734-6.2508-1.7322-8.8049-4.5903-3.3442-4.1779 5.5715-10.0646 5.1668-4.0521-.2785 5.3673-7.9945 1.0551-7.5516-4.061.4173-7.523 5.6236-10.5515 2.2855-1.6522-1.8211 5.9982-4.2469 1.7044-5.2662-2.8745-.6824-8.348 4.412-9.9833.6955-1.1256-2.5581 4.7836-3.356 3.7336-5.9618-1.1474-2.8473-8.8587 2.718-10.5515-1.9871-.7527-2.0921 3.6121-2.5166 3.3277-4.0741-.2052-1.1237-1.9928.2995-3.2466-1.1923-2.5373-3.019-6.8456-14.6961-3.0843-11.4266 2.3713 2.0614 3.608 2.4508 4.8699 3.9744-1.1814-2.0599-1.4933-11.5727-1.3798-12.2213.4984-2.8483-6.5375-4.2257-10.7548-9.803-3.5142-4.6475-5.7638-8.9533-7.1828-15.1371l20.3141-14.174c.0627 11.7186 3.7324 12.9209 9.6462 13.6222 7.3043.8666 19.9232 6.0473 20.3547 16.4566 5.0035.7027 6.4631-1.9258 7.3586-3.4476.5796-.985 5.7059-2.0375 7.8033 1.3544 2.3137 3.7417 5.2586 3.6484 6.605 3.9849-.8844 4.0787-4.4903 4.9785-8.1364 3.8386-2.8064-.8771-4.7843-3.7586-6.0967-3.9718-3.2251-.5244-3.2074 3.8384-7.5469 2.4275-.7854 4.0238-3.2722 9.214-7.4209 14.5314z" fill="#eac102"/><path d="m156.806 300.4999c-.9165 3.1397 1.589 7.9811 1.6887 9.4612l-3.8016 5.3841c-2.4525-3.4152-4.5425-13.4643 2.1128-14.8453z" fill="#eac102"/><path d="m181.4937 303.2143c-2.8798.4176-6.6667 4.7799-6.9718 8.8384l-4.9399-5.1785c1.5891-3.9904 7.8473-9.8874 11.9118-3.6599z" fill="#eac102"/><path d="m184.0372 331.1759c-2.1763-2.0215-4.7131-2.6761-8.3484-2.6919l1.1318-6.4c3.3199-.3966 10.1443 3.9593 7.2166 9.0919z" fill="#eac102"/><path d="m177.3483 346.0783c-2.8333-.997-4.814-3.1167-6.9362-6.673l-4.3141 4.7115c1.619 3.479 8.9634 7.7208 11.2503 1.9615z" fill="#eac102"/><path d="m123.5392 361.4399c26.3703-15.3758 27.1604-34.0819 34.3706-36.5678 1.1414-.3935 1.987-.8339 2.7012-1.4137 1.9419-1.5765 2.7821-3.145 2.8927-5.2821-.1071 2.1389-.9492 3.7133-2.8927 5.2821 3.1552-3.3105-5.8247-4.0115-7.8353-6.7566-3.0109-4.1114 1.9487-7.4247 2.6116-8.0287.7625-.6949 4.3118-4.1183 6.5572-2.9508 2.2122 1.1503.1932 6.7526 2.4726 8.869 1.7431-3.9374.65-9.3806 3.9928-11.0245 2.1722-1.0685 5.164 1.4916 6.4811 4.2572.3057.6417 2.3691 2.1265 1.9646 3.9079-1.0616 4.6744-5.246 4.6895-7.8749 6.0936-.8636.4611-.6774 2.3489.7909 2.8924 1.9918.737 4.4294-1.5661 6.3046-1.1697 3.0238.6391 3.2694 8.9706.004 10.7678-2.7692 1.5241-9.7976-4.4375-10.1352-.8148-.2451 2.6294-.6925 5.1153.9612 6.2314 1.2502.8435 4.0369-.3652 4.8262 3.1149.414 1.8252-1.6236 3.0771-2.4776 4.3206-1.044 1.5206-1.3267 5.1269-3.4592 4.7013-1.862-.3716-2.7821-7.3225-5.6256-1.4628-1.637 3.3733 2.6465 7.7654-.7195 12.6903-1.0233 1.497-1.1937-5.5781-3.405-7.0603-1.4342-.9613.5259 12.2697-2.3078 12.5499-2.0831.206-1.6886-8.5081-2.6319-5.8779-1.3021 3.6302.0471 10.2465-1.6872 10.741-.9662.2757-3.0537-5.4536-3.307-4.9003-.9561 2.0887-.2562 8.797-1.9953 9.981-.9908.6744-2.6915-5.2372-3.3906-3.7629-.8111 1.7108 1.038 6.8841-.3998 8.1262-.9029.7799-3.697-4.7651-3.987-4.0242-1.0272 2.6254-3.2316 7.9775-3.2316 7.9775l-9.3959-6.6845z" fill="#eac102"/><path d="m176.9054 416.7867c-2.7824.2003-4.4331 3.8021-5.5523 4.4749l-5.1505-3.6608c1.9995-3.1894 7.7897-5.5044 10.7028-.8141z" fill="#eac102"/><path d="m184.7272 436.162c-2.2095-2.2165-5.3649-.7331-6.6274.3649l-1.403-6.8876c3.2791-.7586 8.4385.4183 8.0303 6.5227z" fill="#eac102"/><path d="m167.3091 454.7024c.6867-2.7744-.4437-7.9787-.6353-8.873l5.4868-1.0928c1.2481 4.6913-1.4835 9.2067-4.8514 9.9658z" fill="#eac102"/><path d="m151.3607 453.8882c-.6373-2.2015-.7527-9.1426-.5612-10.0369l-5.3496-1.7082c-.7786 6.253 1.6123 11.8644 5.9108 11.7451z" fill="#eac102"/><path d="m51.2269 432.017c-5.3618 6.824-13.5222 10.7864-16.4645 6.3125-6.5733-9.9949 9.2831-27.2537 15.6779-42.3099 13.4343-31.6308 5.8575-54.1346-3.2465-63.1597-8.6942-8.6188-10.0818-8.0767-13.5346-15.8301-.6066 5.5565.2918 11.5725 3.7424 15.1079-5.7271 8.1306 4.2582 22.5835 7.7946 45.4566 1.5582 10.0786 4.4335 14.1532-5.5634 30.1805-3.4476 5.5273-6.107 9.8241-9.3695 18.4667-3.5389-14.8614 15.027-32.3304 4.3137-44.5527 2.1138 10.3666-16.3287 35.9335-5.2665 52.1195 1.4536 12.0801 10.0767 15.7974 23.2273 3.4975z" fill="#eac102"/><path d="m37.4015 332.1377c11.4552 11.6236 13.5815 31.3628 14.6122 48.4093" fill="none"/><path d="m81.5333 509.2006c-3.9202-1.3571-8.6217 2.3362-9.259 3.0989l-2.5773-5.1318c2.3464-3.5966 9.2679-3.9164 11.8363 2.0329z" fill="#eac102"/><path d="m85.1269 526.771c-1.7688-2.8968-7.6954-2.8709-8.4498-2.7539l-.0864-6.1878c3.1125-1.0009 8.2803 2.7753 8.5363 8.9417z" fill="#eac102"/><path d="m66.7948 539.4999c.7935-4.7785-2.9993-7.6391-3.5474-8.3917l5.0528-3.6859c2.6575 2.8478 3.0571 8.7437-1.5054 12.0776z" fill="#eac102"/><path d="m53.384 539.3653c-2.9401-1.8876-2.8373-10.0279-2.9037-11.1159l-5.7268-.5393c.2627 8.6993 3.159 12.5846 8.6305 11.6552z" fill="#eac102"/><path d="m73.9078 441.7319c3.001 5.1286 8.6303 4.3952 9.3998 1.6576.5775-2.0544-.8774-3.2997-1.5837-3.8857 8.3385-2.7243 7.2886-6.8919 5.9171-9.3263z" fill="none"/><path d="m127.34 408.2671c-26.3125 6.6618-28.3544 14.677-35.8081 20.091-33.8009 24.5507-17.08 19.3522-16.7919 39.6023.0236 1.6352-.8704 3.4274-1.9829 5.1793-.2686 3.8841 3.4809 5.3152 2.6524 9.5102-.7967 4.0342-2.6508 10.1973.8178 12.949-13.4963-2.1605-2.396-12.3576-6.1016-18.9402-1.7354 2.0558-3.5514 3.8609-4.6486 5.0542-4.6124 5.0159-15.1195 2.6-13.4356 9.6508 1.5454 6.4711 1.9623 14.189 4.1233 18.2644 1.7343 3.2705 5.4233 7.3656 8.2182 7.4614-2.8069-.092-6.4865-4.1759-8.2182-7.4614 2.1909 4.0627 9.4008-4.5192 10.9291-4.8444 2.9264-.623 4.9551 1.2334 5.1933 4.2603.0456.5835.7415 1.2875 1.0507 1.8609 1.1786 2.1858-3.1194 3.7565-5.4311 4.2534 4.419.6872 6.1035-2.0131 6.7502-2.1112 4.192-.6361 3.0819 4.0379 3.4323 6.9695.0733.6151.796 6.4451-3.1367 6.7528-2.5318.1981-3.6971-3.2175-4.4837-3.227-.9624-.011-3.5659-1.0965-5.5184-2.8349-.284 1.7706 2.3786 2.2685 4.7239 4.1693 4.2656 3.4577-8.635 11.8089-9.2469 5.7656-.226-2.2317.289-3.4498-.7514-5.3618-1.5605-2.8679-4.8776.1611-7.8389-3.594-.1977 2.3458 2.1946 5.1767 1.4851 8.7249-.7578 3.79-11.0067.4594-11.1652-1.818-.3328-4.7839 4.5955-6.9478.7286-12.9425-.8946-1.3866-6.8757-.9858-9.9125-6.9158-1.0923-2.1331 5.6373-.8112 5.7648-2.1715.2389-2.5482-8.9017-6.8989-8.8196-8.565.1257-2.5502 5.7381-.027 5.8633-1.5683.1755-2.1611-10.0319-8.0529-10.0319-10.0128 0-2.2196 6.179-.3693 7.0756-1.508 1.5302-1.943-7.0756-5.9176-7.0756-10.6761 0-1.9944 4.3422 2.4056 4.8583-.2414.6914-3.5448-1.0554-8.8596-1.1332-10.3745-.1012-1.9725 3.9759 4.3581 4.336 5.7905-.066-2.8575 9.5809-3.8005 10.7748-8.2032 1.3005-4.7956 2.2946-9.9089 2.5059-18.2274.6229-24.5313 30.2286-37.5948 43.021-69.3538z" fill="#eac102"/><path d="m106.0114 377.6919 17.2178-8.0094c10.1693 28.4994 13.7525 23.3674 25.6273 46.0931 2.2945 4.3913 5.4567 8.2167 8.9841 10.3117 2.3446 1.3925 4.4925 2.2328 6.3671 2.4729-1.8714-.2394-4.021-1.0763-6.3671-2.4729 2.0866 1.2137 2.9229-.5299 3.7817-2.0966 1.5047-2.7451-.3615-6.778 2.7013-8.3576 2.2296-1.1498 4.839 2.0076 5.3615 2.2876.7691.4121 3.9225 1.5994 4.443 5.0979.3315 2.2278-.0451 3.9988-1.0767 4.5233-.8799.3551-2.1696.9641-3.6914 1.9488 1.5179-.9829 2.8124-1.6001 3.6914-1.9488.9357-.3713 1.8037-.664 2.5343-.8264 3.4767-.7724 2.6001 4.8813 2.5873 5.8243-.0105.7441 2.6215 6.2818-1.999 7.4199-3.1773.7828-5.5525-.8601-6.9159-2.4063 3.1168 3.3711 5.0518 1.2671 5.3376 5.6208.2758 4.2019-4.7942 3.8096-5.5107 3.8588-.6282.043-5.5293 1.939-5.9105-1.0485-.3206-2.5132 2.2094-6.2805-.6209-7.6155-4.4278-2.0883-4.331 5.4543-10.1158-.1858.864 1.9339 2.0917 4.4175 1.2014 6.2254-.9919 2.0144-2.7984.7682-5.1073.8446-3.6527.1209-5.1072-1.9748-5.2051-3.7926-.2331-4.3366 2.0964-7.588 1.482-8.5443-.6563-1.0218-9.8484 1.2947-10.9046-1.0564-.1981-.441 1.7712-1.1133 3.2071-2.0767 1.2885-.8646 2.0863-2.0384 1.5219-2.2418-4.3828-1.5787-8.6955 1.99-12.0261-1.4003-1.6341-1.6632 7.4437-3.1539 6.7848-3.9897-2.2246-2.8225-10.8597 1.3839-12.4646-3.1541-.6498-1.8377 6.976-1.4546 6.6864-3.3399-.433-2.8195-11.1334 1.4114-13.5901-3.8416-.7363-1.5744 5.7167-3.1234 5.4646-3.6535-.2681-.5639-7.1069 3.0442-11.9037-2.7715-1.1522-1.3971 3.6109-1.1228 4.2207-2.962z" fill="#eac102"/><path d="m125.1939 313.1953c.1605 2.2797-1.7008 5.8728-3.3037 5.0681-1.3716-.6888-1.6315-6.0076.4524-8.6877 1.5584-2.0044 4.9238-2.5916 6.7192-.6103 4.5529 5.0246.3324 14.3643-7.1197 16.6786-4.4586 1.3846-8.0821 1.7691-12.3337 2.2684-3.9074.4587-9.0729.1926-16.7114 5.2297 4.1307-4.6062 8.2113-8.1312 15.3188-9.0973 3.9574-.538 8.5132-.01 11.7903-2.0974 4.6717-2.9842 5.2987-6.4604 5.188-8.7521z" fill="#eac102"/><path d="m110.693 327.3382c2.7162.186 2.1236 7.5982 2.155 9.2641l-3.474-.1137c.5344-1.6503 1.5705-6.4052 1.319-9.1504z" fill="#e5e5e5"/><path d="m111.7155 318.1038c.7138 4.399.8282 8.5565-1.7639 9.9429.0765-1.6592-.4036-4.7791-2.1025-8.4322z" fill="#e5e5e5"/><path d="m93.903 302.0116c3.8784-.3531 8.0804-.4314 12.1246-1.3944 2.9163-.6947 4.3684 1.9316 3.9303 4.3432 2.3053 2.6003 2.4399 8.1415 2.8197 11.6692.4641 4.309-3.6159 6.3319-5.5543 4.7489-2.6261-2.1445-5.7127-3.6224-7.4991-1.6628l-2.3193 2.5443c-1.6724 1.8345-1.804 4.0369-.5097 5.3911 3.5803 3.7458 4.4655 4.2723 4.2092 6.571-.3847 3.4501 7.5365 1.2977 8.4568-.727.6178-1.3594 3.0519-2.2474 3.9689 1.5405 2.4026 9.9259-5.3442 7.9898-10.641 7.0894-4.2686-.7256-3.8845 1.6548-.5131 2.8874 3.5105 1.2831 8.0394 1.5771 11.5515 1.7671 3.6162.1957 7.927 4.4397 10.3344 5.9567 4.4406 2.7982 5.662 4.4476 9.1427 4.9033.6262 1.2391.0494 2.8018-.3487 3.2129 8.1939 8.1246 9.9601 14.6765 19.0114 14.0798.1146 7.9659-10.1443 6.9643-13.7525 4.3403-2.5228-1.8348-6.9597-4.9405-10.0167-6.2515 1.2731 2.1172 4.8323 2.3272 9.4312 11.0362 2.5157 4.7641 7.4992 12.4561 11.5441 11.9263-.2636 6.5612-8.5763 9.7273-17.4017-1.8901-4.2361-5.576-7.3049-10.2108-9.8021-12.1099 1.8011 1.761 4.9474 7.1795 5.7094 12.9793 1.0654 8.1087 4.8298 10.914 6.0073 11.9223-3.3578 3.9677-10.1244.4013-13.3664-8.1087-1.8542-4.8673-5.3918-12.7578-8.6579-15.3682.7326 2.2162 2.0943 5.0913 1.9139 13.5216-.1126 5.2643 3.1134 11.0274 6.3027 11.2063-2.6284.9445-7.885-.5952-11.387-6.1121-1.815-2.8591-4.2524-9.8959-5.5694-14.4702-1.8322 5.835-2.8142 17.3345-.3482 20.861-12.9438-1.9554-7.1378-14.4381-11.3709-22.3595.2585 7.7915-5.7089 8.4602-3.2581 18.4893-10.9328-3.9553-4.2962-21.9086-6.3983-24.7079-.0538 6.0015-4.909 8.928-4.8986 16.6968-6.0351-9.7992-.6281-11.6959-1.4023-26.2819-.8427 3.9143-4.2456 7.1278-4.6064 12.8755-4.7789-11.1314 2.0148-18.6637 1.3693-26.7389-1.3665 3.082-2.8192 4.3359-4.6056 11.2409-.3926-14.4434 1.4051-14.4281 3.2597-25.391-1.686 1.9263-2.3219 3.8138-3.4983 6.608.1525-4.1388 1.5319-12.4315 1.5319-12.4315s-.7784-9.8707 1.1229-15.2106c3.6894-10.3614 19.4106-25.5672 23.9839-19.1924z" fill="#eac102"/><path d="m133.0558 360.8524c-1.153 1.6785-6.1331 2.135-10.6898-.7191-2.7909-1.7481-6.1059-4.073-9.4877-4.8921 3.0534 4.5534 4.8088 6.3022 8.0514 8.6621-8.0213 10.6038-13.8922-9.8659-26.9919-10.4843 3.3904 3.6696 2.9626 9.9646 7.0084 14.5292-12.8734 2.2469-11.6708-15.8641-20.502-20.0035" fill="none"/><path d="m93.2213 305.2329c-1.4418.9928-2.7979 2.2535-4.3604 2.6567-1.7738.4577-2.658 1.6805-4.1237 3.3773.9529 3.3193.6915 7.4123 3.615 7.4169 2.4326 0 3.3324-2.8901 3.5896-5.8657.1683-1.9466 1.9081-2.8309 1.2796-7.5852z" fill="#e5e5e5"/><path d="m88.8609 307.8896c.1333 1.2801 1.9214 4.952 2.9374 6.1584.0921-.2814.0692-.7829.1435-1.2299.4514-2.7229 1.7975-2.752 1.2576-7.6104-1.5557 1.1128-2.6479 2.2301-4.3384 2.6819z"/><path d="m109.9578 304.9604c-1.0384-1.1437-2.6194-.477-3.8647-.7411" fill="#ed1c24"/><path d="m75.4325 321.295c-2.7407.1833-5.4816.1009-8.2223-.1706 1.9985 6.0598 4.3198 11.2845 7.2468 15.525" fill="#eac102"/><path d="m89.1657 300.6678-1.6593-3.6948-.748-3.5305c-1.2488 4.1025-1.8927 4.4218-5.608 4.9513-1.7511 3.7514-2.4012 4.365-6.5363 5.3268-1.0561 4.1138-1.6841 4.75-5.4731 6.4154-.6144 3.7037-.9481 4.3405-5.0765 5.4954l3.5111.829 3.6543 1.7441c2.243-3.7222 4.6072-7.1957 7.5839-10.106 2.9766-2.9105 6.5807-5.2727 10.352-7.4307z" fill="#eac102"/><path d="m83.4858 293.0253 1.6756 1.5795 1.7768-.2076.1871-2.0449-.9861-4.8524-2.1107 1.9622z" fill="#eac102"/><path d="m78.9549 292.0075-1.7949-.1059-.6934 1.814.6629 3.4589 3.4925 1.916.987-.1587.6893-.9531-.39-4.151z" fill="#eac102"/><path d="m71.5888 298.1122-2.0042.4647-.5814 2.1297 1.0962 3.4242 4.0776.8935 1.1387-.5815.6071-1.1255-.865-4.2394z" fill="#eac102"/><path d="m63.7227 312.3489 1.5401 1.7121-.2484 1.7722-2.0476.1403-4.8266-1.0975 2.0091-2.0661z" fill="#eac102"/><path d="m62.7447 305.9963 1.8287-.652 3.4412.7422 1.8347 3.5369-.1811.9838-.9684.6675-4.1393-.4851-1.7512-2.9958z" fill="#eac102"/></g></g><path d="m1.5 1.5v473.25c0 68.35 55.4 123.75 123.75 123.75h62.375c27.18 0 50.966 17.254 62.375 40 11.409-22.746 35.195-40 62.375-40h62.375c68.35 0 123.75-55.4 123.75-123.75v-473.25z" fill="none" stroke="#000" stroke-linecap="round" stroke-linejoin="round" stroke-width="3"/></svg>