<?xml version="1.0" encoding="utf-8"?><!DOCTYPE svg PUBLIC "-//W3C//DTD SVG 1.1//EN" "http://www.w3.org/Graphics/SVG/1.1/DTD/svg11.dtd"><svg viewBox="0 0 500 640" xmlns="http://www.w3.org/2000/svg"><path d="m.5.5v474.25c0 68.898 55.852 124.75 124.75 124.75h62.375c27.289 0 50.92 17.163 62.375 40 11.455-22.837 35.086-40 62.375-40h62.375c68.898 0 124.75-55.852 124.75-124.75v-474.25z" fill="#e5e5e5" stroke="#000" stroke-linecap="round" stroke-linejoin="round"/><g fill="#c87137" fill-rule="evenodd" stroke="#000" stroke-linecap="round" stroke-linejoin="round"><path d="m164.5 129.9999c0 13.531-15.4462 24.5-34.5 24.5s-34.5-10.969-34.5-24.5 15.4462-24.5 34.5-24.5 34.5 10.969 34.5 24.5zm45 0c0 38.3838-35.5934 69.5-79.5 69.5s-79.5-31.1162-79.5-69.5 35.5934-69.5 79.5-69.5c43.9067 0 79.5 31.1162 79.5 69.5z"/><path d="m404.5 129.9999c0 13.531-15.4462 24.5-34.5 24.5s-34.5-10.969-34.5-24.5 15.4462-24.5 34.5-24.5 34.5 10.969 34.5 24.5zm45 0c0 38.3838-35.5934 69.5-79.5 69.5-43.9067 0-79.5-31.1162-79.5-69.5s35.5934-69.5 79.5-69.5c43.9067 0 79.5 31.1162 79.5 69.5z"/><path d="m164.5 469.9999c0 13.531-15.4462 24.5-34.5 24.5s-34.5-10.969-34.5-24.5 15.4462-24.5 34.5-24.5 34.5 10.969 34.5 24.5zm45 0c0 38.3838-35.5934 69.5-79.5 69.5s-79.5-31.1162-79.5-69.5 35.5934-69.5 79.5-69.5c43.9067 0 79.5 31.1162 79.5 69.5z"/><path d="m404.5 469.9999c0 13.531-15.4462 24.5-34.5 24.5s-34.5-10.969-34.5-24.5 15.4462-24.5 34.5-24.5 34.5 10.969 34.5 24.5zm45 0c0 38.3838-35.5934 69.5-79.5 69.5-43.9067 0-79.5-31.1162-79.5-69.5s35.5934-69.5 79.5-69.5c43.9067 0 79.5 31.1162 79.5 69.5z"/><path d="m284.5 299.9999c0 13.531-15.4462 24.5-34.5 24.5s-34.5-10.969-34.5-24.5 15.4462-24.5 34.5-24.5 34.5 10.969 34.5 24.5zm45 0c0 38.3838-35.5934 69.5-79.5 69.5s-79.5-31.1162-79.5-69.5 35.5934-69.5 79.5-69.5 79.5 31.1162 79.5 69.5z"/></g><path d="m1.5 1.5v473.25c0 68.35 55.4 123.75 123.75 123.75h62.375c27.18 0 50.966 17.254 62.375 40 11.409-22.746 35.195-40 62.375-40h62.375c68.35 0 123.75-55.4 123.75-123.75v-473.25z" fill="none" stroke="#000" stroke-linecap="round" stroke-linejoin="round" stroke-width="3"/></svg>