<?xml version="1.0" encoding="utf-8"?><!DOCTYPE svg PUBLIC "-//W3C//DTD SVG 1.1//EN" "http://www.w3.org/Graphics/SVG/1.1/DTD/svg11.dtd"><svg viewBox="0 0 500 640" xmlns="http://www.w3.org/2000/svg"><path d="m.5.5v474.25c0 68.898 55.852 124.75 124.75 124.75h62.375c27.289 0 50.92 17.163 62.375 40 11.455-22.837 35.086-40 62.375-40h62.375c68.898 0 124.75-55.852 124.75-124.75v-474.25z" fill="#e5e5e5" stroke="#000" stroke-linecap="round" stroke-linejoin="round"/><g stroke-linecap="round" stroke-linejoin="round"><g stroke="#000"><path d="m314.3842 125.5c.4553 1.5633-.7895 3.9738-.8391 4.7108l1.8888 2.6808c1.2186-1.7004 2.2569-6.704-1.0497-7.3916z" fill="#c87137"/><path d="m302.1179 126.8516c1.4308.2079 3.3124 2.3799 3.464 4.4006l2.4544-2.5784c-.7896-1.9868-3.899-4.923-5.9184-1.8223z" fill="#c87137"/><path d="m300.8541 140.7738c1.0813-1.0065 2.3417-1.3325 4.1479-1.3403l-.5623-3.1866c-1.6495-.1975-5.0403 1.9714-3.5856 4.5269z" fill="#c87137"/><path d="m304.1776 148.1939c1.4077-.4964 2.3918-1.5519 3.4463-3.3225l2.1435 2.3459c-.8044 1.7323-4.4535 3.8443-5.5898.9767z" fill="#c87137"/><path d="m330.9129 155.8425c-13.1022-7.6557-13.4948-16.9696-17.0772-18.2073-.5671-.1959-.9873-.4152-1.3421-.7039-.9648-.785-1.3823-1.5659-1.4372-2.63.0532 1.065.4716 1.8489 1.4372 2.63-1.5677-1.6483 2.894-1.9974 3.893-3.3642 1.496-2.0471-.9682-3.6968-1.2976-3.9976-.3789-.3459-2.1424-2.0505-3.258-1.4692-1.0991.5727-.096 3.3621-1.2286 4.416-.8661-1.9605-.323-4.6707-1.9839-5.4893-1.0793-.532-2.5658.7427-3.2202 2.1197-.1519.3195-1.1771 1.0588-.9761 1.9458.5275 2.3274 2.6065 2.3349 3.9127 3.034.4291.2296.3366 1.1696-.393 1.4401-.9896.367-2.2008-.7797-3.1324-.5823-1.5024.3182-1.6244 4.4665-.002 5.3613 1.3759.7588 4.868-2.2094 5.0357-.4057.1218 1.3092.3441 2.5469-.4776 3.1027-.6212.42-2.0057-.1819-2.3979 1.5509-.2057.9088.8067 1.5321 1.231 2.1513.5187.7571.6592 2.5528 1.7188 2.3408.9251-.185 1.3823-3.6459 2.7951-.7283.8133 1.6795-1.3149 3.8664.3575 6.3186.5084.7454.5931-2.7773 1.6918-3.5154.7126-.4786-.2613 6.1093 1.1467 6.2487 1.035.1025.839-4.2363 1.3077-2.9267.6469 1.8075-.0233 5.1018.8383 5.3481.4801.1373 1.5172-2.7154 1.6431-2.4399.475 1.04.1273 4.3801.9914 4.9696.4923.3359 1.3373-2.6076 1.6846-1.8735.403.8518-.5157 3.4276.1987 4.0461.4486.3882 1.8369-2.3726 1.9809-2.0038.5104 1.3073 1.6057 3.9721 1.6057 3.9721l4.6684-3.3282z" fill="#ffb380"/></g><g stroke="#000"><path d="m185.6159 125.5c-.4553 1.5633.7895 3.9738.8391 4.7108l-1.8888 2.6808c-1.2186-1.7004-2.2569-6.704 1.0497-7.3916z" fill="#c87137"/><path d="m197.8821 126.8516c-1.4308.2079-3.3124 2.3799-3.464 4.4006l-2.4544-2.5784c.7896-1.9868 3.899-4.923 5.9184-1.8223z" fill="#c87137"/><path d="m199.1459 140.7738c-1.0813-1.0065-2.3417-1.3325-4.1479-1.3403l.5623-3.1866c1.6495-.1975 5.0403 1.9714 3.5856 4.5269z" fill="#c87137"/><path d="m195.8224 148.1939c-1.4077-.4964-2.3918-1.5519-3.4463-3.3225l-2.1435 2.3459c.8044 1.7323 4.4535 3.8443 5.5898.9767z" fill="#c87137"/><path d="m169.0871 155.8425c13.1022-7.6557 13.4948-16.9696 17.0772-18.2073.5671-.1959.9873-.4152 1.3421-.7039.9648-.785 1.3823-1.5659 1.4372-2.63-.0532 1.065-.4716 1.8489-1.4372 2.63 1.5677-1.6483-2.894-1.9974-3.893-3.3642-1.496-2.0471.9682-3.6968 1.2976-3.9976.3789-.3459 2.1424-2.0505 3.258-1.4692 1.0991.5727.096 3.3621 1.2286 4.416.8661-1.9605.323-4.6707 1.9839-5.4893 1.0793-.532 2.5658.7427 3.2202 2.1197.1519.3195 1.1771 1.0588.9761 1.9458-.5275 2.3274-2.6065 2.3349-3.9127 3.034-.4291.2296-.3366 1.1696.393 1.4401.9896.367 2.2008-.7797 3.1324-.5823 1.5024.3182 1.6244 4.4665.002 5.3613-1.3759.7588-4.868-2.2094-5.0357-.4057-.1218 1.3092-.3441 2.5469.4776 3.1027.6212.42 2.0057-.1819 2.3979 1.5509.2057.9088-.8067 1.5321-1.231 2.1513-.5187.7571-.6592 2.5528-1.7188 2.3408-.9251-.185-1.3823-3.6459-2.7951-.7283-.8133 1.6795 1.3149 3.8664-.3575 6.3186-.5084.7454-.5931-2.7773-1.6918-3.5154-.7126-.4786.2613 6.1093-1.1467 6.2487-1.035.1025-.839-4.2363-1.3077-2.9267-.6469 1.8075.0233 5.1018-.8383 5.3481-.4801.1373-1.5172-2.7154-1.6431-2.4399-.475 1.04-.1273 4.3801-.9914 4.9696-.4923.3359-1.3373-2.6076-1.6846-1.8735-.403.8518.5157 3.4276-.1987 4.0461-.4486.3882-1.8369-2.3726-1.9809-2.0038-.5104 1.3073-1.6057 3.9721-1.6057 3.9721l-4.6684-3.3282z" fill="#ffb380"/></g><g stroke="#e5e5e5"><path d="m165.3243 82.7866c3.2234-.1181 6.1035.1734 8.4735 1.3091-1.8225-1.8923-3.0026-4.5331-3.9009-7.6281-1.6497-5.6835-10.2403-10.7189-14.1058-5.377-3.8656 5.342 3.614 11.9129 9.5332 11.6961z"/><path d="m283.4198 168.0308 4.5263-6.2551-103.1923-74.5292-4.5263 6.2551z"/><path d="m184.1243 100.549 8.5497-11.8153-10.3885-7.503-8.5497 11.8153z"/><path d="m158.1874 84.2675c3.1134 5.3331 7.8612 2.8483 7.8357-.6783-.0116-1.6081-1.8128-4.1053-3.6739-5.4494-2.8464-2.0558-6.8211-1.9397-9.7423 2.0973-4.6587 6.4382-1.1899 15.405 6.4681 20.9359 7.6579 5.5308 17.2684 6.0103 21.9271-.4278 2.9212-4.0369 1.7852-7.8442-1.0611-9.8999-1.8611-1.3441-4.7994-2.2699-6.3315-1.7768-3.36 1.0815-4.2332 6.3646 1.8119 7.6462-2.8885 4.4772-7.8863 2.0546-11.5122-.4218 3.8082-.4708 2.5444-4.9408.5776-4.3592-3.4018 1.0058-6.4472-.1766-7.309-2.7496-.5223-1.5593-.3582-3.2244 1.0096-4.9165z"/><path d="m186.3009 81.6797c-3.1134-5.333-7.8611-2.8483-7.8357.6783.0117 1.6081 1.8129 4.1053 3.6739 5.4494 2.8465 2.0558 6.8212 1.9397 9.7424-2.0972 4.6587-6.438 1.1899-15.405-6.4681-20.9358-7.6579-5.5308-17.2685-6.0102-21.9271.4278-2.9212 4.0369-1.7853 7.8441 1.0611 9.8999 1.861 1.3441 4.7993 2.2699 6.3314 1.7767 3.36-1.0815 4.2332-6.3645-1.8119-7.6462 2.8884-4.4771 7.8863-2.0545 11.5122.4218-3.8083.4708-2.5444 4.9408-.5776 4.3592 3.4018-1.0058 6.4472.1766 7.3091 2.7495.5223 1.5594.3583 3.2245-1.0097 4.9165z"/><path d="m306.8992 90.3054 6.6818 9.2338 3.5817-2.5868 2.2273 3.078-3.5817 2.5868 6.6817 9.2338 4.2742-3.087-3.3409-4.6169 3.0272-2.1864 3.3409 4.617 4.69-3.3874-6.6817-9.2338-3.582 2.587-2.2273-3.078 3.5819-2.587-2.784-3.8474 3.0271-2.1862 2.7841 3.8474 3.5819-2.587 2.2272 3.078-3.5819 2.587 6.6817 9.2338 4.6901-3.3873-3.3409-4.6169 3.0272-2.1864 3.3409 4.6169 4.2742-3.087-6.6817-9.2338-3.5817 2.5868-2.2273-3.078 3.5817-2.5868-6.6818-9.2338z"/><path d="m333.4198 64.469 4.5263 6.2551-103.1923 74.5292-4.5263-6.2551z"/><path d="m336.7209 74.6821c2.1791-1.5738 9.5244-9.1723 6.8907-12.8119s-12.1591.9466-14.3382 2.5204z"/><path d="m329.9792 65.3666 6.0351 8.3402-1.7314 1.2505-6.0351-8.3402z"/><path d="m303.8348 84.249 6.0351 8.3402-1.7314 1.2505-6.0351-8.3402z"/><path d="m312.5496 77.9549 6.0351 8.3402-1.7314 1.2505-6.0351-8.3402z"/><path d="m321.2644 71.6607 6.0351 8.3402-1.7313 1.2504-6.0351-8.3402z"/></g><g stroke="#000"><path d="m250 66.0576c31.7489 0 40.6641 3.3291 40.6641 4.9663 0 1.6371-8.9153 4.9663-40.6641 4.9663-31.7489 0-40.6642-3.3292-40.6642-4.9663 0-1.6372 8.9153-4.9663 40.6641-4.9663z" fill="#eac102"/><path d="m247.1416 39.9866 1.3962 1.3247v2.9383l-1.3962 1.325c-1.191 1.1303-2.3686.501-5.1976 1.679-.116-.8897-.0655-1.6257.5454-2.2807-1.8329-.1102-3.2934-1.0566-4.4847-2.1924 1.1913-1.1356 2.6519-2.0822 4.4847-2.1924-.6107-.6551-.6614-1.3909-.5454-2.2807 2.829 1.1779 4.0065.549 5.1976 1.6792z" fill="#eac102"/><path d="m251.4649 41.314 1.321-1.4003c1.1269-1.1944.4996-2.3754 1.6741-5.2127-.8871-.1163-1.621-.066-2.2741.547-.1099-1.8383-1.0535-3.3032-2.186-4.4981-1.1325 1.1949-2.0761 2.6598-2.186 4.4981-.6531-.6127-1.3869-.6633-2.2741-.547 1.1746 2.8373.5472 4.0183 1.6741 5.2127l1.3211 1.4003z" fill="#eac102"/><path d="m209.0012 59.3231c-1.8765-.7996-5.0011-4.7043-6.5047-6.7326l-1.8752 1.402c2.4323 3.2202 4.2901 5.2469 5.7722 6.4332.7411.5931 1.3879.9906 2.0657 1.1903z" fill="#eac102"/><path d="m290.9988 59.3231c1.8765-.7996 5.0012-4.7043 6.5048-6.7326l1.8752 1.402c-2.4323 3.2202-4.29 5.2469-5.7722 6.4332-.741.593-1.3878.9906-2.0656 1.1903z" fill="#eac102"/><path d="m299.3789 53.9925 2.637-3.5196c.3682-.4914.2548-1.2724-.238-1.6394-.4929-.3672-1.2771-.2546-1.6446.2374l-2.6297 3.5196c-3.6372 4.8679-9.5054 6.3541-4.9739-1.5481.3053-.5323.1246-1.2911-.4028-1.6065-.5275-.3154-1.3-.1269-1.6116.4017-3.915 6.6402-12.273 7.085-10.6288-1.2779.2393-1.217.4786-2.4341.7179-3.651.1157-.5883-.3434-1.2191-.9336-1.3333-.5903-.1144-1.2506.2997-1.3665.8878-.1052.5339-.4786 2.4291-.7178 3.6437-1.5456 7.8451-12.2649 7.3943-11.2954-.5768.0702-.5806-.4486-1.1492-1.0311-1.2188-.5826-.069-1.2329.3592-1.2909.9413-.7992 8.0186-12.7971 7.777-12.7971.052v-3.8483c0-.6142-.5509-1.1903-1.172-1.1903s-1.1721.5761-1.1721 1.1903v3.8483c0 7.7259-11.9979 7.9675-12.7971-.052-.058-.5821-.7083-1.0109-1.2909-.9413-.5826.069-1.1018.6382-1.0311 1.2188.9694 7.9711-9.7498 8.4219-11.2953.5768l-.7179-3.6437c-.1159-.5882-.7762-1.0022-1.3665-.8878-.5902.1142-1.0493.7451-.9336 1.3333.2393 1.2169.7179 3.651.7179 3.651 1.6443 8.3628-6.7138 7.9181-10.6288 1.2779-.3116-.5286-1.0842-.7171-1.6116-.4017-.5274.3155-.708 1.0742-.4028 1.6065 4.5316 7.9022-1.3367 6.416-4.9738 1.5481l-2.6297-3.5196c-.3675-.492-1.1517-.6046-1.6446-.2374-.4929.367-.6062 1.148-.238 1.6394l2.637 3.5196c4.5626 6.0898 10.4883 6.4141 10.79 1.3619 3.9736 2.8573 9.3432 2.4303 10.8778-2.3111 3.888 4.4189 10.9909 3.8143 13.1266-1.1976 4.0771 5.2672 11.6775 4.453 14.5844-.2512 2.9069 4.7042 10.5073 5.5183 14.5844.2512 2.1358 5.0119 9.2387 5.6165 13.1267 1.1976 1.5346 4.7413 6.9042 5.1684 10.8779 2.3111.3016 5.0522 6.2272 4.7279 10.79-1.3619z" fill="#eac102"/><path d="m228.9702 47.8826c-2.5472-.857-3.7967-.1235-5.1825-1.1649l-1.5721-1.1814-.607-2.9264 1.0273-1.4453c.8725-1.2274 2.6152-.9211 4.4891-2.1787.2913.873.3958 1.6093-.0374 2.3193 1.7282-.068 3.2838.7374 4.6266 1.7506-.8745 1.2441-2.0388 2.3261-3.7213 2.6131.7032.5918.9022 1.3182.9775 2.2137z" fill="#eac102"/><path d="m219.4938 45.8196-.607-2.9264-1.5707-1.1748c-1.3525-1.0115-2.7201-.3344-5.184-1.1711.0758.8952.2742 1.6217.9778 2.2134-1.6828.2871-2.8457 1.3757-3.7202 2.6198 1.3428 1.0131 2.897 1.812 4.6253 1.7442-.4331.71-.3286 1.4462-.0372 2.3189 2.3257-1.3927 3.624-.9463 4.4902-2.172z" fill="#eac102"/><path d="m217.1832 37.162c-.7343-.5451-1.6499-.7407-2.4519-.5392 1.5899 2.44 1.2436 3.8599 2.6326 5.015l1.5185 1.2628 2.7337-.2848.9351-1.5183c.7908-1.2838-.0215-2.7253.4909-5.3399-.85-.029-1.5226.092-2.0046.7635-.4809-1.8153-1.826-3.3324-3.373-4.1547-.4598 1.5738-1.1637 2.9967-.4812 4.7956z" fill="#eac102"/><path d="m222.8615 44.2111c0 1.3338-1.0684 2.415-2.3864 2.415s-2.3864-1.0812-2.3864-2.415 1.0684-2.415 2.3864-2.415 2.3864 1.0812 2.3864 2.415z" fill="#ed1c24" fill-rule="evenodd"/><path d="m195.9093 47.3952c-1.6191-2.3029-2.9596-3.7817-7.9093-4.2089 1.6934-2.5532 5.2201-3.2922 7.5138-.9623.217-.6377.3508-.8454.9573-1.4345.5408 1.6628 2.9491 2.9192 1.9936 5.8966l-.9389 2.9259z" fill="#eac102"/><path d="m197.1252 49.1373c.893-1.5976 1.0687-2.4748 1.7379-3.3442.6681-.8682 1.7606-1.6308 2.5541-2.3125.3481.8008.5471 1.5005.3811 2.2661 1.1461-.3604 2.3297.16 3.4069.9187-.3683 1.3608-.9588 2.6132-2.0361 3.179.575.457.8354 1.131 1.0427 1.9901 0 0-2.4744-.2-3.5515.048-1.2303.2816-2.1645-.2452-2.3666-.4442z" fill="#eac102"/><path d="m198.2936 51.4374c-.3099.1485-.6499.2351-1.0168.2351-1.3075 0-2.3674-1.0566-2.3674-2.3602 0-.7946.3961-1.4894 1-1.9171 1.1896.7537 2.2001 2.5798 2.3843 4.0422z" fill="#ed1c24" fill-rule="evenodd"/><path d="m276.2125 46.7177 1.572-1.1814.607-2.9264-1.0273-1.4453c-.8725-1.2274-2.6152-.9211-4.489-2.1787-.2914.873-.3959 1.6093.0374 2.3193-1.7282-.068-3.2838.7374-4.6266 1.7506.8746 1.2441 2.0387 2.3261 3.7213 2.6131-.7032.5918-.9023 1.3182-.9775 2.2137 2.5472-.857 3.7968-.1235 5.1827-1.1649z" fill="#eac102"/><path d="m280.5063 45.8196.6071-2.9264 1.5706-1.1748c1.3525-1.0115 2.72-.3344 5.1839-1.1711-.0758.8952-.2742 1.6217-.9777 2.2134 1.6828.2871 2.8456 1.3757 3.7201 2.6198-1.3428 1.0131-2.8969 1.812-4.6253 1.7442.4331.71.3286 1.4462.0373 2.3189-2.3257-1.3927-3.624-.9463-4.4902-2.172z" fill="#eac102"/><path d="m282.8168 37.162c.7343-.5451 1.6499-.7407 2.4519-.5392-1.5899 2.44-1.2436 3.8599-2.6325 5.015l-1.5184 1.2628-2.7337-.2848-.9352-1.5183c-.7908-1.2838.0215-2.7253-.4909-5.3399.85-.029 1.5227.092 2.0046.7635.481-1.8153 1.826-3.3324 3.373-4.1547.4598 1.5738 1.1637 2.9967.4812 4.7956z" fill="#eac102"/><path d="m304.0907 47.3952c1.6191-2.3029 2.9596-3.7817 7.9093-4.2089-1.6934-2.5532-5.22-3.2922-7.5138-.9623-.217-.6377-.3508-.8454-.9573-1.4345-.5408 1.6628-2.9491 2.9192-1.9936 5.8966l.9389 2.9259z" fill="#eac102"/><path d="m302.8748 49.1373c-.893-1.5976-1.0687-2.4748-1.7379-3.3442-.668-.8682-1.7606-1.6308-2.554-2.3125-.3482.8008-.5472 1.5005-.3812 2.2661-1.1461-.3604-2.3297.16-3.4069.9187.3683 1.3608.9588 2.6132 2.0361 3.179-.5749.457-.8354 1.131-1.0427 1.9901 0 0 2.4743-.2 3.5516.048 1.2302.2816 2.1644-.2452 2.3665-.4442z" fill="#eac102"/><path d="m301.7064 51.4374c.31.1485.65.2351 1.0168.2351 1.3075 0 2.3675-1.0566 2.3675-2.3602 0-.7946-.3961-1.4894-1.0001-1.9171-1.1896.7537-2.2 2.5798-2.3843 4.0422z" fill="#ed1c24" fill-rule="evenodd"/><path d="m252.8584 39.9866-1.3961 1.3247v2.9383l1.3961 1.325c1.191 1.1303 2.3687.501 5.1976 1.679.116-.8897.0655-1.6257-.5454-2.2807 1.8329-.1102 3.2934-1.0566 4.4847-2.1924-1.1913-1.1356-2.6518-2.0822-4.4847-2.1924.6108-.6551.6614-1.3909.5454-2.2807-2.829 1.1779-4.0065.549-5.1976 1.6792z" fill="#eac102"/><path d="m237.1843 46.801c0 1.3337-1.0684 2.4149-2.3864 2.4149s-2.3864-1.0812-2.3864-2.4149 1.0684-2.415 2.3864-2.415 2.3864 1.0813 2.3864 2.415z" fill="#e5e5e5" fill-rule="evenodd"/><path d="m210.628 49.87c0 1.3338-1.0684 2.4152-2.3864 2.4152s-2.3864-1.0814-2.3864-2.4152c0-1.3337 1.0684-2.4149 2.3864-2.4149s2.3864 1.0812 2.3864 2.4149z" fill="#e5e5e5" fill-rule="evenodd"/><path d="m250.0088 55.0829c-15.1036 0-45.5057.9988-45.5057 6.7183 0 1.2346 1.3986 2.2461 3.7726 3.0778.4612 1.366.7735 2.7701 1.0821 4.2025-.9362.5685-1.4623 1.231-1.4623 1.9534 0 5.3048 28.1369 6.215 42.1133 6.215 13.9763 0 42.1132-.9102 42.1132-6.215 0-.7244-.5503-1.3836-1.4916-1.9534.3087-1.433.6498-2.8358 1.1113-4.2025 2.3593-.8301 3.7727-1.8474 3.7727-3.0778 0-5.7195-30.4023-6.7183-45.5057-6.7183zm0 11.9565c30.2702 0 39.5103 3.4756 39.5103 3.9955 0 .5197-9.2401 3.9953-39.5103 3.9953-30.2704 0-39.5397-3.4756-39.5397-3.9953 0-.5199 9.2693-3.9955 39.5397-3.9955z" fill="#eac102" fill-rule="evenodd"/><path d="m230.084 59.759c1.0082-.09 1.8823.7115 1.9571 1.7749.0748 1.0629-.6784 1.973-1.6867 2.063l-8.9755.8011c-1.0084.09-1.8825-.7115-1.9572-1.7749-.0747-1.0631.6782-1.973 1.6868-2.063z" fill="#008f4c" fill-rule="evenodd"/><path d="m217.503 63.3594c0 1.3338-1.0684 2.415-2.3864 2.415s-2.3864-1.0811-2.3864-2.415c0-1.3337 1.0684-2.415 2.3864-2.415s2.3864 1.0813 2.3864 2.415z" fill="#e5e5e5" fill-rule="evenodd"/><path d="m239.6489 61.3515c0 1.3337-1.0684 2.415-2.3864 2.415s-2.3864-1.0813-2.3864-2.415c0-1.3338 1.0684-2.415 2.3864-2.415s2.3864 1.0812 2.3864 2.415z" fill="#e5e5e5" fill-rule="evenodd"/><path d="m244.8035 59.1983h10.366l2.7206 1.915-2.7206 1.9147h-10.366l-2.6938-1.9147z" fill="#ed1c24"/><path d="m207.0143 65.8446.6099-2.8185 3.2648.633-1.9851 3.7542z" fill="#ed1c24"/><path d="m278.8915 60.5601-8.9755-.8011c-1.0083-.09-1.8822.7115-1.9571 1.7749-.0748 1.0629.6783 1.973 1.6867 2.063l8.9754.8011c1.0084.09 1.8824-.7115 1.9572-1.7749.0748-1.0631-.6783-1.973-1.6869-2.063z" fill="#008f4c" fill-rule="evenodd"/><path d="m292.9857 65.8446-.6099-2.8185-3.2647.633 1.985 3.7542z" fill="#ed1c24"/><path d="m252.3952 42.7805c0 1.3337-1.0684 2.4149-2.3864 2.4149s-2.3864-1.0812-2.3864-2.4149c0-1.3338 1.0684-2.415 2.3864-2.415s2.3864 1.0812 2.3864 2.415z" fill="#ed1c24" fill-rule="evenodd"/><path d="m277.1562 44.2111c0 1.3338 1.0684 2.415 2.3864 2.415s2.3864-1.0812 2.3864-2.415-1.0684-2.415-2.3864-2.415-2.3864 1.0812-2.3864 2.415z" fill="#ed1c24" fill-rule="evenodd"/><path d="m262.8333 46.801c0 1.3337 1.0684 2.4149 2.3864 2.4149s2.3864-1.0812 2.3864-2.4149-1.0684-2.415-2.3864-2.415-2.3864 1.0813-2.3864 2.415z" fill="#e5e5e5" fill-rule="evenodd"/><path d="m289.3896 49.87c0 1.3338 1.0685 2.4152 2.3864 2.4152 1.318 0 2.3864-1.0814 2.3864-2.4152 0-1.3337-1.0685-2.4149-2.3864-2.4149-1.318 0-2.3864 1.0812-2.3864 2.4149z" fill="#e5e5e5" fill-rule="evenodd"/><path d="m282.5146 63.3594c0 1.3338 1.0684 2.415 2.3864 2.415s2.3864-1.0811 2.3864-2.415c0-1.3337-1.0684-2.415-2.3864-2.415s-2.3864 1.0813-2.3864 2.415z" fill="#e5e5e5" fill-rule="evenodd"/><path d="m260.3687 61.3515c0 1.3337 1.0684 2.415 2.3864 2.415s2.3864-1.0813 2.3864-2.415c0-1.3338-1.0684-2.415-2.3864-2.415s-2.3864 1.0812-2.3864 2.415z" fill="#e5e5e5" fill-rule="evenodd"/><path d="m188 147.7498c0 41.124 27.776 74.5 62 74.5s62-33.376 62-74.5-27.776-74.5-62-74.5-62 33.376-62 74.5z" fill="#eac102" fill-rule="evenodd"/><path d="m215.556 85.8125c-5.1987 4.1844-9.8514 9.2955-13.778 15.125v93.625c3.9266 5.8295 8.5793 10.9406 13.778 15.125z" fill="#ed1c24"/><path d="m243.111 73.7188c-4.7778.6342-9.3896 1.9167-13.778 3.7813v140.5c4.3885 1.8645 9.0002 3.1471 13.778 3.7813z" fill="#ed1c24"/><path d="m284.444 85.8125c5.1987 4.1844 9.8514 9.2955 13.778 15.125v93.625c-3.9266 5.8295-8.5793 10.9406-13.778 15.125z" fill="#ed1c24"/><path d="m256.889 73.7188c4.7778.6342 9.3896 1.9167 13.778 3.7813v140.5c-4.3885 1.8645-9.0002 3.1471-13.778 3.7813z" fill="#ed1c24"/></g><g stroke="#000"><path d="m296.7599 340.3923c7.3399 0 13.2488 5.8703 13.2488 13.1615v37.2985h-26.4975v-37.2985c0-7.2914 5.9089-13.1615 13.2487-13.1615zm-93.5197 0c7.3398 0 13.2488 5.8703 13.2488 13.1615v37.2985h-26.4977v-37.2985c0-7.2914 5.9091-13.1615 13.2489-13.1615zm186.2598 228.8576v-63.7756c-23.2478-14.2558-45.9802-79.0579-45.9802-128.9539v-86.203l22.6006-14.0167v-42.0508h-46.4482v21.0257h-46.448v-21.0257h-46.4482v21.0257h-46.4482v-21.0257h-46.4481v42.0508l22.6006 14.0167v86.203c0 49.896-22.7324 114.6981-45.9803 128.9539v63.7756h114.5615v-55.4318c0-13.5793 11.1226-24.5114 24.9385-24.5114 13.816 0 24.9387 10.9321 24.9387 24.5114v55.4318z" fill="#c87137"/><path d="m133.7622 276.3007h232.4784" fill="none"/><path d="m110.5 547.9914h98.1955" fill="none"/><path d="m110.5 526.7328h98.1955" fill="none"/><path d="m110.5 505.4743h98.3513" fill="none"/><path d="m129.1126 483.9586h92.038" fill="none"/><path d="m139.3369 462.443h221.3265" fill="none"/><path d="m226.6201 440.9272-3.1172 21.5158" fill="none"/><path d="m146.7683 440.9272h206.4636" fill="none"/><path d="m152.0058 419.4116h195.9886" fill="none"/><path d="m155.336 397.8959h189.328" fill="none"/><path d="m156.4803 376.3803h33.5113" fill="none"/><path d="m156.4803 354.8645h33.5113" fill="none"/><path d="m156.4803 333.3488h187.0395" fill="none"/><path d="m156.4803 311.8331h187.0395" fill="none"/><path d="m296.7599 290.3174v21.5157" fill="none"/><path d="m250 290.3174v21.5157" fill="none"/><path d="m203.2402 290.3174v21.5157" fill="none"/><path d="m159.5977 419.4116-3.1174 21.5156" fill="none"/><path d="m340.4025 419.4116 3.1173 21.5156" fill="none"/><path d="m179.8603 440.9272-4.676 21.5158" fill="none"/><path d="m273.3799 440.9272 3.1174 21.5158" fill="none"/><path d="m320.1399 440.9272 4.676 21.5158" fill="none"/><path d="m203.2402 462.443-4.676 21.5156" fill="none"/><path d="m296.7599 462.443 4.6759 21.5156" fill="none"/><path d="m156.4803 462.443-7.7933 21.5156" fill="none"/><path d="m343.5198 462.443 7.7933 21.5156" fill="none"/><path d="m173.6255 483.9586-9.3518 21.5157" fill="none"/><path d="m326.3745 483.9586 7.7934 21.5157" fill="none"/><path d="m186.0949 505.4743v21.2585" fill="none"/><path d="m156.4803 290.3174h187.0395" fill="none"/><path d="m310.0086 376.3803h33.5112" fill="none"/><path d="m310.0086 354.8645h33.5112" fill="none"/><path d="m216.4888 354.8645h67.0225" fill="none"/><path d="m216.4888 376.3803h67.0225" fill="none"/><path d="m291.1487 505.4743h98.3513" fill="none"/><path d="m291.3047 547.9914h98.1953" fill="none"/><path d="m291.3047 526.7328h98.1953" fill="none"/><path d="m320.1399 311.833v21.5158" fill="none"/><path d="m273.3799 311.833v21.5158" fill="none"/><path d="m179.8603 311.833v21.5158" fill="none"/><path d="m226.6201 311.833v21.5158" fill="none"/><path d="m296.7599 333.3488v7.0434" fill="none"/><path d="m250 333.3488v21.5157" fill="none"/><path d="m203.2402 333.3488v7.0434" fill="none"/><path d="m320.1399 354.8645v21.5158" fill="none"/><path d="m273.3799 354.8645v21.5158" fill="none"/><path d="m179.8603 354.8645v21.5158" fill="none"/><path d="m226.6201 354.8645v21.5158" fill="none"/><path d="m320.1399 397.8959v21.5157" fill="none"/><path d="m273.3799 397.8959v21.5157" fill="none"/><path d="m179.8603 397.8959v21.5157" fill="none"/><path d="m226.6201 397.8959v21.5157" fill="none"/><path d="m296.7599 390.8525v7.0434" fill="none"/><path d="m250 376.3803v21.5156" fill="none"/><path d="m203.2402 390.8525v7.0434" fill="none"/><path d="m296.7599 419.4116v21.5156" fill="none"/><path d="m250 419.4116v21.5156" fill="none"/><path d="m203.2402 419.4116v21.5156" fill="none"/><path d="m250 462.443v10.092" fill="none"/><path d="m161.1563 526.7329v21.2585" fill="none"/><path d="m186.0949 547.9914v21.2585" fill="none"/><path d="m136.2177 547.9914v21.2585" fill="none"/><path d="m136.2177 505.4743v21.2585" fill="none"/><path d="m313.9052 505.4743v21.2585" fill="none"/><path d="m338.8439 526.7329v21.2585" fill="none"/><path d="m313.9052 547.9914v21.2585" fill="none"/><path d="m363.7824 547.9914v21.2585" fill="none"/><path d="m363.7824 505.4743v21.2585" fill="none"/><path d="m208.6955 569.2499v-55.4318c0-22.8711 18.4219-41.2831 41.3045-41.2831 22.8828 0 41.3047 18.412 41.3047 41.2831v55.4318" fill="none"/><path d="m250 489.3067c13.816 0 24.9387 10.9321 24.9387 24.5114v55.4318h-49.8772v-55.4318c0-13.5793 11.1226-24.5114 24.9385-24.5114z"/><path d="m208.6955 513.8184h16.3661" fill="none"/><path d="m274.9386 513.8184h16.366" fill="none"/><path d="m270.1757 499.1675 13.2404-9.6149" fill="none"/><path d="m216.584 489.5526 13.2404 9.6149" fill="none"/><path d="m237.2363 474.5555 5.0574 15.557" fill="none"/><path d="m257.7065 490.1124 5.0574-15.5569" fill="none"/><path d="m208.6955 527.6763h16.3661" fill="none"/><path d="m208.6955 541.5341h16.3661" fill="none"/><path d="m208.6955 555.392h16.3661" fill="none"/><path d="m274.9386 527.6763h16.366" fill="none"/><path d="m274.9386 541.5341h16.366" fill="none"/><path d="m274.9386 555.392h16.366" fill="none"/><path d="m203.2402 340.3929c7.3398 0 13.2488 5.8697 13.2488 13.1609v37.2985l-26.4977.0002v-37.2987c0-7.2914 5.9091-13.1609 13.2489-13.1609z"/><path d="m296.7599 340.3923c7.3399 0 13.2488 5.8703 13.2488 13.1615v37.2985h-26.4975v-37.2985c0-7.2914 5.9089-13.1615 13.2487-13.1615z"/><path d="m278.8495 483.9586h92.038" fill="none"/></g><g stroke="#000"><path d="m366.8417 190.9834c2.6641 3.3978 6.7186 5.3707 8.1805 3.1431 3.266-4.9765-4.6124-13.5698-7.7896-21.0664-6.6749-15.7492-2.9103-26.9541 1.613-31.4477 4.3198-4.2914 5.0092-4.0215 6.7247-7.8819.3014 2.7665-.145 5.762-1.8594 7.5223 2.8455 4.0483-2.1157 11.2446-3.8728 22.6332-.7742 5.0183-2.2028 7.047 2.7642 15.0271 1.713 2.752 3.0343 4.8915 4.6553 9.1947 1.7583-7.3996-7.4662-16.0975-2.1432-22.1831-1.0503 5.1616 8.113 17.8916 2.6167 25.9507-.7223 6.0148-5.0066 7.8656-11.5406 1.7414z" fill="#ffb380"/><path d="m365.5138 168.4112c-4.1849-13.3039-.7329-22.7609 3.3317-26.7988 4.3198-4.2914 5.0092-4.0215 6.7247-7.8819.3014 2.7665-.145 5.762-1.8594 7.5223 2.8455 4.0483-2.1158 11.2446-3.8728 22.6332-.3477 2.2539-.8274 3.9047-.8004 5.7625" fill="#c87137"/><path d="m317.3301 210.7774c1.0843-.2352 2.4699 1.8604 2.6616 2.35l1.9962-1.3111c-.5967-2.1718-3.8003-4.0958-4.6578-1.039z" fill="#c87137"/><path d="m312.9942 220.4289c.7814-1.244 3.1204-.5747 3.5559-.2938l.5482-3.0192c-1.8092-.8083-4.1446-.04-4.104 3.3129z" fill="#c87137"/><path d="m315.4089 228.4792c1.3461-1.2744 2.8052-2.0828 3.3296-2.3042l-1.6473-2.5686c-1.6777 1.0556-2.3121 2.3079-1.6823 4.8728z" fill="#c87137"/><path d="m325.8112 231.2098c.6866-1.2711.5062-4.5077.4611-5.0269l2.4791 1.0687c.4529 2.2234-.9542 4.8509-2.9402 3.9582z" fill="#c87137"/><path d="m308.215 186.0453c.7735-.7278 2.5263-3.5528 2.6774-3.9746l2.3586.7948c-1.2594 2.7921-3.5086 4.4326-5.036 3.1798z" fill="#c87137"/><path d="m300.5 169.4053c1.3466-.2938 2.1238 1.2005 2.3104 2.006l2.206-2.4425c-1.0006-1.2304-3.1594-2.1907-4.5163.4365z" fill="#c87137"/><path d="m336.4529 209.0431c.6004.7712.6574 4.1483-.0847 4.7515-1.6938 1.3768-3.0888.7623-4.2618 1.1893-.9806.3569-3.7379 2.4969-4.9171 3.0686-.9478.4596-2.7047.8973-2.7838.4919.0781.4069 1.822-.0296 2.7838-.4919-.9582.4628-1.7299-.9348-1.9487-1.2088-.7359-.921-1.1333-1.9395-.9315-3.5269.2851-2.2431-2.049-3.42-3.216-1.3378-1.9472.3143-1.5923 1.4749-1.5399 3.3666.0208.7443 1.1002 1.1696 1.8702 1.4922-.7771-.3317-1.8515-.752-1.8702-1.4922-.5325-.5337-2.1668-.0919-2.9229.9623-.3896.543-.006 1.5203-.1598 2.1775-.3178 1.3453-.2688 2.1323.8951 2.9467.388-.3164 1.5119-.783 2.1882-1.0474-.6743.2644-1.803.7376-2.1882 1.0474-.6665.536-1.0211 1.2479-.7996 2.6429.0582.3656.3142.9748.9707 1.2049.6811 1.1252 1.128 1.7908 2.0708 1.4538 1.5645-.5593 1.9605-3.1855 2.6874-3.1994 1.0555-.0199 1.263-1.1411 2.5437-1.6022 1.0463-.3767 2.1875.6922 1.8885 1.2914-.303.6068-.9942.9356-1.2139 1.6171-.7661 2.3761 4.7622 4.1112 5.4944 2.4665.4766-1.0703-.8811-3.1123.8607-4.384 2.2807-1.665 2.0758 2.7742 5.0006 2.5726 2.0133-.1387-2.6668-3.9805-.5242-3.76 2.0177.2077 3.7378 2.8 5.2425 1.138.8209-.9068-2.9803-2.1146-.8468-2.6222 1.4282-.3397 4.1477 2.1969 4.9603.3464.5592-1.2737-2.3768-1.671-1.8551-2.9685.5701-1.4177 4.4015 1.3533 5.2425-.9894.374-1.0417-1.7947-1.2531-1.6534-2.0286.102-.5594.9901.1492 1.6131-.5936 1.2607-1.5032 3.4013-7.3173 1.5324-5.6894-1.1782 1.0264-1.7926 1.2203-2.4196 1.9789.587-1.0257.7419-5.7621.6856-6.0851-.2476-1.4182 3.2481-2.1039 5.3435-4.881 1.7461-2.314 2.8638-4.4579 3.5688-7.5369l-10.0931-7.0573c-.0312 5.8348-1.8545 6.4334-4.7928 6.7825-3.6291.4315-9.8989 3.0111-10.1134 8.1939-2.486.3499-3.2112-.9589-3.6561-1.7166-.288-.4904-2.8351-1.0145-3.8771.6743-1.1496 1.863-2.6128 1.8166-3.2818 1.9842.4394 2.0307 2.2311 2.4788 4.0426 1.9112 1.3944-.4367 2.3771-1.8715 3.0292-1.9776 1.6024-.2611 1.5936 1.9112 3.7497 1.2087.3902 2.0035 1.6258 4.5877 3.6871 7.2353z" fill="#ffb380"/><path d="m308.1091 163.6196c.9584.8616.6683 2.8065.9078 3.3968l2.7678-.0648c.062-1.8728-1.4644-4.4471-3.6757-3.3321z" fill="#c87137"/><path d="m302.2381 181.9148c.4352-1.3344 2.1275-3.1602 2.4174-3.4747l-1.7178-1.9862c-1.6085 1.5817-1.7322 4.2053-.6996 5.4609z" fill="#c87137"/><path d="m373.7109 141.2527c-5.6916 5.7875-6.7481 15.6159-7.2602 24.1034" fill="none"/><path d="m351.7838 229.4138c1.9478-.6758 4.2838 1.1632 4.6004 1.543l1.2805-2.5551c-1.1658-1.7909-4.6048-1.9501-5.8809 1.0122z" fill="#c87137"/><path d="m349.9983 238.1622c.8788-1.4424 3.8235-1.4295 4.1983-1.3713l.0429-3.0809c-1.5465-.4984-4.1141 1.3818-4.2413 4.4521z" fill="#c87137"/><path d="m359.1067 244.5c-.3942-2.3793 1.4902-3.8035 1.7625-4.1783l-2.5105-1.8352c-1.3204 1.4179-1.519 4.3536.748 6.0135z" fill="#c87137"/><path d="m365.7699 244.433c1.4608-.9399 1.4097-4.9929 1.4427-5.5347l2.8454-.2686c-.1305 4.3315-1.5695 6.2661-4.2881 5.8032z" fill="#c87137"/><path d="m355.5725 195.8206c-1.491 2.5535-4.288 2.1883-4.6704.8253-.2869-1.0229.436-1.6429.7869-1.9347-4.1431-1.3564-3.6215-3.4315-2.94-4.6437z" fill="none"/><path d="m329.0245 179.1582c13.0735 3.3169 14.088 7.3078 17.7914 10.0034 16.7942 12.224 8.4863 9.6357 8.3431 19.7184-.0116.8142.4325 1.7065.9852 2.5787.1334 1.9339-1.7295 2.6465-1.3178 4.7352.3958 2.0087 1.317 5.0773-.4063 6.4474 6.7058-1.0757 1.1905-6.153 3.0316-9.4304.8623 1.0236 1.7646 1.9223 2.3097 2.5165 2.2917 2.4974 7.5122 1.2945 6.6755 4.8052-.7678 3.222-.9749 7.0648-2.0487 9.094-.8617 1.6284-2.6946 3.6674-4.0833 3.7151 1.3946-.0456 3.2228-2.0792 4.0833-3.7151-1.0885 2.0228-4.6709-2.2502-5.4302-2.4121-1.454-.3102-2.4619.6142-2.5803 2.1213-.0227.2906-.3685.641-.5221.9265-.5856 1.0883 1.5499 1.8704 2.6985 2.1178-2.1957.3422-3.0326-1.0024-3.3539-1.0512-2.0828-.3166-1.5313 2.0105-1.7054 3.4702-.0367.3062-.3956 3.209 1.5584 3.3622 1.2579.0985 1.837-1.602 2.2278-1.6068.4781-.007 1.7717-.5459 2.7418-1.4116.1411.8817-1.1818 1.1296-2.3471 2.0759-2.1194 1.7217 4.2903 5.8798 4.5944 2.8709.1123-1.1112-.1436-1.7177.3733-2.6697.7754-1.4279 2.4235.0802 3.8948-1.7895.0982 1.168-1.0904 2.5774-.738 4.3442.3766 1.8871 5.4688.2287 5.5475-.9052.1654-2.382-2.2833-3.4594-.3619-6.4442.4444-.6904 3.4162-.4908 4.9251-3.4433.5427-1.0622-2.8009-.404-2.8643-1.0813-.1187-1.2688 4.4228-3.435 4.382-4.2646-.0624-1.2697-2.851-.0135-2.9132-.7808-.0871-1.076 4.9844-4.0096 4.9844-4.9855 0-1.1051-3.0701-.1838-3.5156-.7508-.7602-.9675 3.5156-2.9464 3.5156-5.3157 0-.993-2.1574 1.1977-2.4139-.1203-.3436-1.7649.5243-4.4112.5631-5.1655.0502-.9821-1.9755 2.17-2.1544 2.8832.0331-1.4228-4.7604-1.8923-5.3536-4.0844-.6461-2.3878-1.1401-4.9337-1.245-9.0756-.3094-12.2144-15.0192-18.7187-21.3752-34.5318z" fill="#ffb380"/><path d="m343.4227 167.3773-4.2616-8.1183c-10.7085 8.8844-10.7411 5.7684-20.644 11.7984-1.9135 1.1652-4.0018 1.8545-5.7958 1.7292-1.1924-.0833-2.1775-.3388-2.9156-.7649.7368.4254 1.7217.6829 2.9156.7649-1.0549-.0847-.928-1.0366-.8529-1.922.1318-1.5514 1.8018-2.689 1.0819-4.1969-.5241-1.0976-2.2475-.5285-2.5058-.5596-.3801-.0457-1.8149-.44-2.8658.8545-.6692.8242-.9694 1.6587-.7251 2.1635.2312.3926.5481 1.0044.8565 1.8359-.3075-.8296-.6241-1.4462-.8565-1.8359-.2474-.4149-.4896-.7784-.7141-1.0498-1.0688-1.2915-2.145 1.2814-2.3728 1.6732-.1797.3092-2.498 1.8518-1.1051 3.6141.9578 1.2119 2.2231 1.2007 3.098.9459-1.9599.515-2.142-.8929-3.3188.8193-1.1357 1.6525.7973 2.9107 1.0447 3.1315.2168.1938 1.5246 2.3465 2.3991 1.2234.7357-.9448.748-3.204 2.1022-2.961 2.1184.3802.2241 3.458 3.7096 2.7561-.7896.5542-1.8465 1.2328-1.9697 2.2263-.1373 1.107.8242 1.0998 1.6416 1.7778 1.2931 1.0726 2.3365.6172 2.8201-.1037 1.1534-1.7199 1.1112-3.7106 1.5695-3.9323.4896-.2368 3.2477 3.2907 4.2099 2.6186.1804-.1261-.3671-.9543-.6496-1.7529-.2535-.7167-.2531-1.4233.002-1.349 1.9765.5773 2.6588 3.254 4.7008 2.791 1.0018-.2271-1.9185-3.3826-1.4738-3.5422 1.5015-.539 3.592 3.6105 5.2919 2.1919.6884-.5746-2.168-2.5522-1.5984-3.2472.8519-1.0394 3.6844 3.6985 5.8691 2.224.6548-.442-1.3005-2.8865-1.0786-3.0341.2361-.1571 1.8236 3.2432 4.9945 2.1923.7617-.2525-1.031-1.4733-.7985-2.4012z" fill="#ffb380"/><path d="m330.0908 131.8212c-.0797 1.1351.8451 2.9241 1.6415 2.5234.6814-.343.8106-2.9912-.2248-4.3256-.7743-.9981-2.4464-1.2904-3.3385-.3039-2.2622 2.5018-.1652 7.1522 3.5375 8.3044 2.2153.6895 4.0156.881 6.128 1.1295 1.9414.2284 4.508.0959 8.3031 2.6039-2.0523-2.2935-4.0798-4.0486-7.6112-4.5297-1.9662-.2678-4.2298-.005-5.8581-1.0443-2.3211-1.4859-2.6327-3.2167-2.5777-4.3577z" fill="#ed1c24"/><path d="m336.2249 143.4757 1.7261-.0566c-.2655-.8218-.7803-3.1892-.6553-4.5561-1.3496.0927-1.0552 3.7832-1.0707 4.6127z" fill="#e5e5e5"/><path d="m336.7876 134.2651c-.3546 2.1903-.4115 4.2604.8765 4.9507-.038-.8261.2005-2.3795 1.0446-4.1985z" fill="#e5e5e5"/><path d="m345.6378 126.2527c-1.9271-.1758-4.0148-.2148-6.0242-.6942-1.4489-.3459-2.1705.9618-1.9528 2.1625-1.1454 1.2947-1.2123 4.0537-1.4009 5.8102-.2306 2.1455 1.7966 3.1527 2.7597 2.3646 1.3048-1.0679 2.8384-1.8037 3.7259-.828l1.1524 1.2668c.831.9134.8963 2.01.2532 2.6842-1.7789 1.8651-2.2187 2.1272-2.0914 3.2718.1911 1.7178-3.7445.646-4.2018-.362-.3069-.6769-1.5164-1.119-1.9719.767-1.1938 4.9422 2.6553 3.9781 5.2871 3.5298 2.1208-.3612 1.93.8239.2549 1.4377-1.7442.6389-3.9944.7853-5.7394.8799-1.7967.0975-3.9386 2.2105-5.1346 2.9659-2.2064 1.3932-2.8132 2.2145-4.5426 2.4414-.3112.6169-.0245 1.395.1732 1.5998-4.0712 4.0452-4.9488 7.3075-9.4459 7.0104-.057 3.9663 5.0403 3.4676 6.833 2.161 1.2534-.9136 3.4579-2.4599 4.9768-3.1126-.6325 1.0541-2.4009 1.1587-4.6859 5.4951-1.2499 2.372-3.726 6.2019-5.7358 5.9382.131 3.2669 4.2612 4.8433 8.6462-.9411 2.1047-2.7764 3.6295-5.0841 4.8702-6.0296-.8949.8768-2.4581 3.5747-2.8368 6.4624-.5293 4.0374-2.3997 5.4342-2.9847 5.9362 1.6683 1.9756 5.0304.1998 6.6412-4.0374.9212-2.4235 2.6789-6.3522 4.3017-7.652-.364 1.1034-1.0406 2.535-.9509 6.7325.0557 2.6212-1.5469 5.4907-3.1315 5.5797 1.3059.4703 3.9177-.2964 5.6576-3.0433.9018-1.4235 2.1129-4.9272 2.7672-7.2048.9103 2.9053 1.3982 8.631.173 10.3868 6.4312-.9736 3.5464-7.1888 5.6497-11.1329-.1284 3.8794 2.8365 4.2124 1.6188 9.206 5.4319-1.9694 2.1345-10.9085 3.179-12.3023.0263 2.9882 2.4391 4.4454 2.4339 8.3135 2.9986-4.8791.3121-5.8235.6967-13.086.4187 1.949 2.1094 3.549 2.2887 6.4108 2.3744-5.5424-1.0011-9.2928-.6803-13.3135.6789 1.5346 1.4007 2.1589 2.2883 5.597.1951-7.1915-.6981-7.1839-1.6196-12.6424.8377.9592 1.1536 1.8989 1.7381 3.2902-.0758-2.0607-.7612-6.1897-.7612-6.1897s.3868-4.9147-.5579-7.5734c-1.833-5.159-9.6442-12.7302-11.9164-9.5561z" fill="#c87137"/><path d="m345.6378 126.2527c-1.9271-.1758-4.0148-.2148-6.0242-.6942-1.4489-.3459-2.1705.9618-1.9528 2.1625-1.1454 1.2947-1.2123 4.0537-1.4009 5.8102-.2306 2.1455 1.7966 3.1527 2.7597 2.3646 1.3048-1.0679 2.8384-1.8037 3.7259-.828l1.1524 1.2668c.831.9134.8963 2.01.2532 2.6842-1.7789 1.8651-2.2187 2.1272-2.0914 3.2718.1911 1.7178-3.7445.646-4.2018-.362-.3069-.6769-1.5164-1.119-1.9719.767-1.1938 4.9422 2.6553 3.9781 5.2871 3.5298 2.1208-.3612 1.93.8239.2549 1.4377.6138.8913 2.4804.0978 3.687-.4844 1.4174-1.6462 6.0061-7.4849 5.0839-9.448-.8801-1.8734 3.4066-.888 2.9351-4.4671-.6495-.5781 1.2389-2.8211-.2991-4.3565-2.7558-2.7511-5.8948-4.4736-7.197-2.6544z" fill="#ffb380"/><path d="m326.1845 155.5501c.5728.8357 3.0473 1.063 5.3113-.3581 1.3867-.8704 3.0337-2.028 4.714-2.4359-1.5171 2.2672-2.3893 3.1379-4.0004 4.313 3.9855 5.2797 6.9024-4.9123 13.4111-5.2202-1.6845 1.8271-1.4719 4.9614-3.4821 7.2341 6.3962 1.1188 5.7987-7.8989 10.1865-9.9599" fill="none"/><path d="m345.9765 127.8566c.7164.4944 1.3902 1.122 2.1665 1.3229.8813.2279 1.3206.8367 2.0489 1.6815-.4735 1.6527-.3436 3.6907-1.7961 3.6929-1.2086 0-1.6557-1.439-1.7836-2.9205-.0836-.9693-.948-1.4096-.6357-3.7768z" fill="#e5e5e5"/><path d="m348.143 129.1795c-.0663.6373-.9547 2.4656-1.4594 3.0663-.0459-.1401-.0343-.3898-.0713-.6123-.2242-1.3558-.893-1.3703-.6248-3.7894.7729.5541 1.3156 1.1104 2.1555 1.3354z"/><path d="m337.6609 127.721c.516-.5695 1.3015-.2375 1.9202-.369" fill="#ed1c24"/><path d="m354.815 135.8541c1.3617.0913 2.7235.0503 4.0853-.0849-.993 3.0172-2.1463 5.6186-3.6006 7.73" fill="#ffb380"/></g><g stroke="#000"><path d="m133.1583 190.9834c-2.6641 3.3978-6.7186 5.3707-8.1805 3.1431-3.266-4.9765 4.6124-13.5698 7.7896-21.0664 6.6749-15.7492 2.9103-26.9541-1.613-31.4477-4.3198-4.2914-5.0092-4.0215-6.7247-7.8819-.3014 2.7665.145 5.762 1.8594 7.5223-2.8455 4.0483 2.1157 11.2446 3.8728 22.6332.7742 5.0183 2.2028 7.047-2.7642 15.0271-1.713 2.752-3.0343 4.8915-4.6553 9.1947-1.7583-7.3996 7.4662-16.0975 2.1432-22.1831 1.0503 5.1616-8.113 17.8916-2.6167 25.9507.7223 6.0148 5.0066 7.8656 11.5406 1.7414z" fill="#ffb380"/><path d="m134.4862 168.4112c4.1849-13.3039.7329-22.7609-3.3317-26.7988-4.3198-4.2914-5.0092-4.0215-6.7247-7.8819-.3014 2.7665.145 5.762 1.8594 7.5223-2.8455 4.0483 2.1158 11.2446 3.8728 22.6332.3477 2.2539.8274 3.9047.8004 5.7625" fill="#c87137"/><path d="m182.6699 210.7774c-1.0843-.2352-2.4699 1.8604-2.6616 2.35l-1.9962-1.3111c.5967-2.1718 3.8003-4.0958 4.6578-1.039z" fill="#c87137"/><path d="m187.0058 220.4289c-.7814-1.244-3.1204-.5747-3.5559-.2938l-.5482-3.0192c1.8092-.8083 4.1446-.04 4.104 3.3129z" fill="#c87137"/><path d="m184.5911 228.4792c-1.3461-1.2744-2.8052-2.0828-3.3296-2.3042l1.6473-2.5686c1.6777 1.0556 2.3121 2.3079 1.6823 4.8728z" fill="#c87137"/><path d="m174.1888 231.2098c-.6866-1.2711-.5062-4.5077-.4611-5.0269l-2.4791 1.0687c-.4529 2.2234.9542 4.8509 2.9402 3.9582z" fill="#c87137"/><path d="m191.785 186.0453c-.7735-.7278-2.5263-3.5528-2.6774-3.9746l-2.3586.7948c1.2594 2.7921 3.5086 4.4326 5.036 3.1798z" fill="#c87137"/><path d="m199.5 169.4053c-1.3466-.2938-2.1238 1.2005-2.3104 2.006l-2.206-2.4425c1.0006-1.2304 3.1594-2.1907 4.5163.4365z" fill="#c87137"/><path d="m163.5471 209.0431c-.6004.7712-.6574 4.1483.0847 4.7515 1.6938 1.3768 3.0888.7623 4.2618 1.1893.9806.3569 3.7379 2.4969 4.9171 3.0686.9478.4596 2.7047.8973 2.7838.4919-.0781.4069-1.822-.0296-2.7838-.4919.9582.4628 1.7299-.9348 1.9487-1.2088.7359-.921 1.1333-1.9395.9315-3.5269-.2851-2.2431 2.049-3.42 3.216-1.3378 1.9472.3143 1.5923 1.4749 1.5399 3.3666-.0208.7443-1.1002 1.1696-1.8702 1.4922.7771-.3317 1.8515-.752 1.8702-1.4922.5325-.5337 2.1668-.0919 2.9229.9623.3896.543.006 1.5203.1598 2.1775.3178 1.3453.2688 2.1323-.8951 2.9467-.388-.3164-1.5119-.783-2.1882-1.0474.6743.2644 1.803.7376 2.1882 1.0474.6665.536 1.0211 1.2479.7996 2.6429-.0582.3656-.3142.9748-.9707 1.2049-.6811 1.1252-1.128 1.7908-2.0708 1.4538-1.5645-.5593-1.9605-3.1855-2.6874-3.1994-1.0555-.0199-1.263-1.1411-2.5437-1.6022-1.0463-.3767-2.1875.6922-1.8885 1.2914.303.6068.9942.9356 1.2139 1.6171.7661 2.3761-4.7622 4.1112-5.4944 2.4665-.4766-1.0703.8811-3.1123-.8607-4.384-2.2807-1.665-2.0758 2.7742-5.0006 2.5726-2.0133-.1387 2.6668-3.9805.5242-3.76-2.0177.2077-3.7378 2.8-5.2425 1.138-.8209-.9068 2.9803-2.1146.8468-2.6222-1.4282-.3397-4.1477 2.1969-4.9603.3464-.5592-1.2737 2.3768-1.671 1.8551-2.9685-.5701-1.4177-4.4015 1.3533-5.2425-.9894-.374-1.0417 1.7947-1.2531 1.6534-2.0286-.102-.5594-.9901.1492-1.6131-.5936-1.2607-1.5032-3.4013-7.3173-1.5324-5.6894 1.1782 1.0264 1.7926 1.2203 2.4196 1.9789-.587-1.0257-.7419-5.7621-.6856-6.0851.2476-1.4182-3.2481-2.1039-5.3435-4.881-1.7461-2.314-2.8638-4.4579-3.5688-7.5369l10.0931-7.0573c.0312 5.8348 1.8545 6.4334 4.7928 6.7825 3.6291.4315 9.8989 3.0111 10.1134 8.1939 2.486.3499 3.2112-.9589 3.6561-1.7166.288-.4904 2.8351-1.0145 3.8771.6743 1.1496 1.863 2.6128 1.8166 3.2818 1.9842-.4394 2.0307-2.2311 2.4788-4.0426 1.9112-1.3944-.4367-2.3771-1.8715-3.0292-1.9776-1.6024-.2611-1.5936 1.9112-3.7497 1.2087-.3902 2.0035-1.6258 4.5877-3.6871 7.2353z" fill="#ffb380"/><path d="m191.8909 163.6196c-.9584.8616-.6683 2.8065-.9078 3.3968l-2.7678-.0648c-.062-1.8728 1.4644-4.4471 3.6757-3.3321z" fill="#c87137"/><path d="m197.7619 181.9148c-.4352-1.3344-2.1275-3.1602-2.4174-3.4747l1.7178-1.9862c1.6085 1.5817 1.7322 4.2053.6996 5.4609z" fill="#c87137"/><path d="m126.2891 141.2527c5.6916 5.7875 6.7481 15.6159 7.2602 24.1034" fill="none"/><path d="m148.2162 229.4138c-1.9478-.6758-4.2838 1.1632-4.6004 1.543l-1.2805-2.5551c1.1658-1.7909 4.6048-1.9501 5.8809 1.0122z" fill="#c87137"/><path d="m150.0017 238.1622c-.8788-1.4424-3.8235-1.4295-4.1983-1.3713l-.0429-3.0809c1.5465-.4984 4.1141 1.3818 4.2413 4.4521z" fill="#c87137"/><path d="m140.8934 244.5c.3942-2.3793-1.4902-3.8035-1.7625-4.1783l2.5105-1.8352c1.3204 1.4179 1.519 4.3536-.748 6.0135z" fill="#c87137"/><path d="m134.2301 244.433c-1.4608-.9399-1.4097-4.9929-1.4427-5.5347l-2.8454-.2686c.1305 4.3315 1.5695 6.2661 4.2881 5.8032z" fill="#c87137"/><path d="m144.4275 195.8206c1.491 2.5535 4.288 2.1883 4.6704.8253.2869-1.0229-.436-1.6429-.7869-1.9347 4.1431-1.3564 3.6215-3.4315 2.94-4.6437z" fill="none"/><path d="m170.9755 179.1582c-13.0735 3.3169-14.088 7.3078-17.7914 10.0034-16.7942 12.224-8.4863 9.6357-8.3431 19.7184.0116.8142-.4325 1.7065-.9852 2.5787-.1334 1.9339 1.7295 2.6465 1.3178 4.7352-.3958 2.0087-1.317 5.0773.4063 6.4474-6.7058-1.0757-1.1905-6.153-3.0316-9.4304-.8623 1.0236-1.7646 1.9223-2.3097 2.5165-2.2917 2.4974-7.5122 1.2945-6.6755 4.8052.7678 3.222.9749 7.0648 2.0487 9.094.8617 1.6284 2.6946 3.6674 4.0833 3.7151-1.3946-.0456-3.2228-2.0792-4.0833-3.7151 1.0885 2.0228 4.6709-2.2502 5.4302-2.4121 1.454-.3102 2.4619.6142 2.5803 2.1213.0227.2906.3685.641.5221.9265.5856 1.0883-1.5499 1.8704-2.6985 2.1178 2.1957.3422 3.0326-1.0024 3.3539-1.0512 2.0828-.3166 1.5313 2.0105 1.7054 3.4702.0367.3062.3956 3.209-1.5584 3.3622-1.2579.0985-1.837-1.602-2.2278-1.6068-.4781-.007-1.7717-.5459-2.7418-1.4116-.1411.8817 1.1818 1.1296 2.3471 2.0759 2.1194 1.7217-4.2903 5.8798-4.5944 2.8709-.1123-1.1112.1436-1.7177-.3733-2.6697-.7754-1.4279-2.4235.0802-3.8948-1.7895-.0982 1.168 1.0904 2.5774.738 4.3442-.3766 1.8871-5.4688.2287-5.5475-.9052-.1654-2.382 2.2833-3.4594.3619-6.4442-.4444-.6904-3.4162-.4908-4.9251-3.4433-.5427-1.0622 2.8009-.404 2.8643-1.0813.1187-1.2688-4.4228-3.435-4.382-4.2646.0624-1.2697 2.851-.0135 2.9132-.7808.0871-1.076-4.9844-4.0096-4.9844-4.9855 0-1.1051 3.0701-.1838 3.5156-.7508.7602-.9675-3.5156-2.9464-3.5156-5.3157 0-.993 2.1574 1.1977 2.4139-.1203.3436-1.7649-.5243-4.4112-.5631-5.1655-.0502-.9821 1.9755 2.17 2.1544 2.8832-.0331-1.4228 4.7604-1.8923 5.3536-4.0844.6461-2.3878 1.1401-4.9337 1.245-9.0756.3094-12.2144 15.0192-18.7187 21.3752-34.5318z" fill="#ffb380"/><path d="m156.5773 167.3773 4.2616-8.1183c10.7085 8.8844 10.7411 5.7684 20.644 11.7984 1.9135 1.1652 4.0018 1.8545 5.7958 1.7292 1.1924-.0833 2.1775-.3388 2.9156-.7649-.7368.4254-1.7217.6829-2.9156.7649 1.0549-.0847.928-1.0366.8529-1.922-.1318-1.5514-1.8018-2.689-1.0819-4.1969.5241-1.0976 2.2475-.5285 2.5058-.5596.3801-.0457 1.8149-.44 2.8658.8545.6692.8242.9694 1.6587.7251 2.1635-.2312.3926-.5481 1.0044-.8565 1.8359.3075-.8296.6241-1.4462.8565-1.8359.2474-.4149.4896-.7784.7141-1.0498 1.0688-1.2915 2.145 1.2814 2.3728 1.6732.1797.3092 2.498 1.8518 1.1051 3.6141-.9578 1.2119-2.2231 1.2007-3.098.9459 1.9599.515 2.142-.8929 3.3188.8193 1.1357 1.6525-.7973 2.9107-1.0447 3.1315-.2168.1938-1.5246 2.3465-2.3991 1.2234-.7357-.9448-.748-3.204-2.1022-2.961-2.1184.3802-.2241 3.458-3.7096 2.7561.7896.5542 1.8465 1.2328 1.9697 2.2263.1373 1.107-.8242 1.0998-1.6416 1.7778-1.2931 1.0726-2.3365.6172-2.8201-.1037-1.1534-1.7199-1.1112-3.7106-1.5695-3.9323-.4896-.2368-3.2477 3.2907-4.2099 2.6186-.1804-.1261.3671-.9543.6496-1.7529.2535-.7167.2531-1.4233-.002-1.349-1.9765.5773-2.6588 3.254-4.7008 2.791-1.0018-.2271 1.9185-3.3826 1.4738-3.5422-1.5015-.539-3.592 3.6105-5.2919 2.1919-.6884-.5746 2.168-2.5522 1.5984-3.2472-.8519-1.0394-3.6844 3.6985-5.8691 2.224-.6548-.442 1.3005-2.8865 1.0786-3.0341-.2361-.1571-1.8236 3.2432-4.9945 2.1923-.7617-.2525 1.031-1.4733.7985-2.4012z" fill="#ffb380"/><path d="m169.9092 131.8212c.0797 1.1351-.8451 2.9241-1.6415 2.5234-.6814-.343-.8106-2.9912.2248-4.3256.7743-.9981 2.4464-1.2904 3.3385-.3039 2.2622 2.5018.1652 7.1522-3.5375 8.3044-2.2153.6895-4.0156.881-6.128 1.1295-1.9414.2284-4.508.0959-8.3031 2.6039 2.0523-2.2935 4.0798-4.0486 7.6112-4.5297 1.9662-.2678 4.2298-.005 5.8581-1.0443 2.3211-1.4859 2.6327-3.2167 2.5777-4.3577z" fill="#ed1c24"/><path d="m163.7751 143.4757-1.7261-.0566c.2655-.8218.7803-3.1892.6553-4.5561 1.3496.0927 1.0552 3.7832 1.0707 4.6127z" fill="#e5e5e5"/><path d="m163.2124 134.2651c.3546 2.1903.4115 4.2604-.8765 4.9507.038-.8261-.2005-2.3795-1.0446-4.1985z" fill="#e5e5e5"/><path d="m154.3622 126.2527c1.9271-.1758 4.0148-.2148 6.0242-.6942 1.4489-.3459 2.1705.9618 1.9528 2.1625 1.1454 1.2947 1.2123 4.0537 1.4009 5.8102.2306 2.1455-1.7966 3.1527-2.7597 2.3646-1.3048-1.0679-2.8384-1.8037-3.7259-.828l-1.1524 1.2668c-.831.9134-.8963 2.01-.2532 2.6842 1.7789 1.8651 2.2187 2.1272 2.0914 3.2718-.1911 1.7178 3.7445.646 4.2018-.362.3069-.6769 1.5164-1.119 1.9719.767 1.1938 4.9422-2.6553 3.9781-5.2871 3.5298-2.1208-.3612-1.93.8239-.2549 1.4377 1.7442.6389 3.9944.7853 5.7394.8799 1.7967.0975 3.9386 2.2105 5.1346 2.9659 2.2064 1.3932 2.8132 2.2145 4.5426 2.4414.3112.6169.0245 1.395-.1732 1.5998 4.0712 4.0452 4.9488 7.3075 9.4459 7.0104.057 3.9663-5.0403 3.4676-6.833 2.161-1.2534-.9136-3.4579-2.4599-4.9768-3.1126.6325 1.0541 2.4009 1.1587 4.6859 5.4951 1.2499 2.372 3.726 6.2019 5.7358 5.9382-.131 3.2669-4.2612 4.8433-8.6462-.9411-2.1047-2.7764-3.6295-5.0841-4.8702-6.0296.8949.8768 2.4581 3.5747 2.8368 6.4624.5293 4.0374 2.3997 5.4342 2.9847 5.9362-1.6683 1.9756-5.0304.1998-6.6412-4.0374-.9212-2.4235-2.6789-6.3522-4.3017-7.652.364 1.1034 1.0406 2.535.9509 6.7325-.0557 2.6212 1.5469 5.4907 3.1315 5.5797-1.3059.4703-3.9177-.2964-5.6576-3.0433-.9018-1.4235-2.1129-4.9272-2.7672-7.2048-.9103 2.9053-1.3982 8.631-.173 10.3868-6.4312-.9736-3.5464-7.1888-5.6497-11.1329.1284 3.8794-2.8365 4.2124-1.6188 9.206-5.4319-1.9694-2.1345-10.9085-3.179-12.3023-.0263 2.9882-2.4391 4.4454-2.4339 8.3135-2.9986-4.8791-.3121-5.8235-.6967-13.086-.4187 1.949-2.1094 3.549-2.2887 6.4108-2.3744-5.5424 1.0011-9.2928.6803-13.3135-.6789 1.5346-1.4007 2.1589-2.2883 5.597-.1951-7.1915.6981-7.1839 1.6196-12.6424-.8377.9592-1.1536 1.8989-1.7381 3.2902.0758-2.0607.7612-6.1897.7612-6.1897s-.3868-4.9147.5579-7.5734c1.833-5.159 9.6442-12.7302 11.9164-9.5561z" fill="#c87137"/><path d="m154.3622 126.2527c1.9271-.1758 4.0148-.2148 6.0242-.6942 1.4489-.3459 2.1705.9618 1.9528 2.1625 1.1454 1.2947 1.2123 4.0537 1.4009 5.8102.2306 2.1455-1.7966 3.1527-2.7597 2.3646-1.3048-1.0679-2.8384-1.8037-3.7259-.828l-1.1524 1.2668c-.831.9134-.8963 2.01-.2532 2.6842 1.7789 1.8651 2.2187 2.1272 2.0914 3.2718-.1911 1.7178 3.7445.646 4.2018-.362.3069-.6769 1.5164-1.119 1.9719.767 1.1938 4.9422-2.6553 3.9781-5.2871 3.5298-2.1208-.3612-1.93.8239-.2549 1.4377-.6138.8913-2.4804.0978-3.687-.4844-1.4174-1.6462-6.0061-7.4849-5.0839-9.448.8801-1.8734-3.4066-.888-2.9351-4.4671.6495-.5781-1.2389-2.8211.2991-4.3565 2.7558-2.7511 5.8948-4.4736 7.197-2.6544z" fill="#ffb380"/><path d="m173.8155 155.5501c-.5728.8357-3.0473 1.063-5.3113-.3581-1.3867-.8704-3.0337-2.028-4.714-2.4359 1.5171 2.2672 2.3893 3.1379 4.0004 4.313-3.9855 5.2797-6.9024-4.9123-13.4111-5.2202 1.6845 1.8271 1.4719 4.9614 3.4821 7.2341-6.3962 1.1188-5.7987-7.8989-10.1865-9.9599" fill="none"/><path d="m154.0235 127.8566c-.7164.4944-1.3902 1.122-2.1665 1.3229-.8813.2279-1.3206.8367-2.0489 1.6815.4735 1.6527.3436 3.6907 1.7961 3.6929 1.2086 0 1.6557-1.439 1.7836-2.9205.0836-.9693.948-1.4096.6357-3.7768z" fill="#e5e5e5"/><path d="m151.857 129.1795c.0663.6373.9547 2.4656 1.4594 3.0663.0459-.1401.0343-.3898.0713-.6123.2242-1.3558.893-1.3703.6248-3.7894-.7729.5541-1.3156 1.1104-2.1555 1.3354z"/><path d="m162.3392 127.721c-.516-.5695-1.3015-.2375-1.9202-.369" fill="#ed1c24"/><path d="m145.185 135.8541c-1.3617.0913-2.7235.0503-4.0853-.0849.993 3.0172 2.1463 5.6186 3.6006 7.73" fill="#ffb380"/></g></g><path d="m1.5 1.5v473.25c0 68.35 55.4 123.75 123.75 123.75h62.375c27.18 0 50.966 17.254 62.375 40 11.409-22.746 35.195-40 62.375-40h62.375c68.35 0 123.75-55.4 123.75-123.75v-473.25z" fill="none" stroke="#000" stroke-linecap="round" stroke-linejoin="round" stroke-width="3"/></svg>