<?xml version="1.0" encoding="utf-8"?><!DOCTYPE svg PUBLIC "-//W3C//DTD SVG 1.1//EN" "http://www.w3.org/Graphics/SVG/1.1/DTD/svg11.dtd"><svg viewBox="0 0 500 600" xmlns="http://www.w3.org/2000/svg"><path d="m.5 300c0 165.324 111.776 299.5 249.5 299.5s249.5-134.176 249.5-299.5-111.776-299.5-249.5-299.5-249.5 134.176-249.5 299.5z" fill="#0071bc" fill-rule="evenodd" stroke="#000" stroke-linecap="round" stroke-linejoin="round"/><g stroke="#000" stroke-linecap="round" stroke-linejoin="round"><path d="m348.6987 387.4394c-7.9728 18.4449-18.2738 39.3183-13.1443 65.3609 1.9268 9.7822 2.0395 22.7533-10.0771 21.6317-24.4762-2.2658-50.6746-10.2366-75.4773-10.2366-24.8026 0-51.0009 7.9708-75.4772 10.2366-12.1167 1.1216-12.004-11.8495-10.0772-21.6317 5.1295-26.0426-5.1715-46.916-13.1443-65.3609l98.6986 71.7784z" fill="#e5e5e5"/><path d="m235.4379 130.1475c-.4867-7.3154-27.6587-6.0637-26.5998 4.2445-1.3182 5.1634-16.4286 10.0387-22.9211 7.1146-1.99-6.6753-29.1122 2.0091-26.2656 10.1838 1.1426 7.8373-14.4775 16.6901-18.3576 14.2646-3.9084-7.2521-27.7785 9.3325-21.2752 16.4576 1.749 10.1878-9.1031 18.3682-15.0043 17.9059-5.9079-.4845-19.6205 15.1772-13.168 23.9993.8663 8.1842-1.6866 20.6263-7.7429 23.3762-4.8285-5.6981-8.6338 14.0091-8.6033 23.0495.0114 3.3786.7912 5.3642 2.2058 6.2273 3.7388 7.5795 1.2051 21.3736-2.2058 27.8123 0 11.348 5.466 26.7698 11.5005 29.5002 6.5837 10.4994 18.2002 23.6369 29.7406 30.8699 41.9104 26.2684 69.4685 58.5287 100.5684 89.5232 9.4205 9.3885 13.7233 19.8236 32.6904 19.8236 18.967 0 23.2698-10.4352 32.6903-19.8236 31.0999-30.9945 58.6581-63.2548 100.5684-89.5232 11.5404-7.233 23.1569-20.3705 29.7406-30.8699 6.0345-2.7305 11.5005-18.1522 11.5005-29.5002-3.4109-6.4388-5.9446-20.2328-2.2058-27.8123 1.4146-.863 2.1944-2.8487 2.2058-6.2273.0306-9.0404-3.7748-28.7476-8.6033-23.0495-6.0563-2.7499-8.6092-15.1921-7.7429-23.3762 6.4526-8.8222-7.2601-24.4839-13.168-23.9993-5.9012.4622-16.7533-7.7181-15.0043-17.9059 6.5033-7.1252-17.3668-23.7097-21.2752-16.4576-3.8801 2.4255-19.5002-6.4273-18.3576-14.2646 2.8466-8.1746-24.2756-16.8591-26.2656-10.1838-6.4925 2.9241-21.6029-1.9512-22.9211-7.1146 1.0589-10.3081-26.1131-11.5599-26.5998-4.2445-5.4945 1.6556-6.935 2.921-14.5621 2.921s-9.0675-1.2654-14.5621-2.921z" fill="#e5e5e5"/><path d="m254.7775 369.7407c1.6581-88.1294 6.5825-161.0603 9.7846-239.5932" fill="none"/><path d="m259.2268 370.2817c6.5257-85.7837 22.2905-156.5676 31.9351-235.8897" fill="none"/><path d="m271.389 363.8412c8.2697-81.8934 25.8793-149.3466 42.6939-222.3346" fill="none"/><path d="m275.8741 365.1319c12.7109-82.2433 41.1518-149.3537 64.4745-213.4415" fill="none"/><path d="m286.2091 376.2984c16.8453-82.0216 44.1182-149.142 72.497-210.3435" fill="none"/><path d="m291.0737 377.5153c22.8516-76.3003 54.4727-135.9844 88.9076-195.1027" fill="none"/><path d="m305.5263 376.7403c23.7431-65.2881 55.0259-120.5046 89.4593-176.4218" fill="none"/><path d="m310.1477 378.9282c32.3011-61.6202 60.6756-107.643 98.0059-154.6104" fill="none"/><path d="m316.8874 388.5648c28.3397-45.5112 53.6702-92.5781 99.0091-140.8707" fill="none"/><path d="m320.3697 392.1479c29.5798-40.3695 66.0813-86.05 101.9243-115.1771" fill="none"/><path d="m331.0783 394.2619c27.7034-35.1141 57.813-67.0345 93.4216-89.4788" fill="none"/><path d="m412.9994 334.2833c-14.523 7.2841-52.8423 34.7722-64.1376 46.514" fill="none"/><path d="m245.2225 369.7407c-1.6581-88.1294-6.5826-161.0603-9.7846-239.5932" fill="none"/><path d="m240.7732 370.2817c-6.5257-85.7837-22.2905-156.5676-31.9351-235.8897" fill="none"/><path d="m228.611 363.8412c-8.2697-81.8934-25.8793-149.3466-42.6939-222.3346" fill="none"/><path d="m224.1259 365.1319c-12.7109-82.2433-41.1517-149.3537-64.4745-213.4415" fill="none"/><path d="m213.7909 376.2984c-16.8453-82.0216-44.1182-149.142-72.497-210.3435" fill="none"/><path d="m208.9263 377.5153c-22.8515-76.3003-54.4727-135.9844-88.9076-195.1027" fill="none"/><path d="m194.4737 376.7403c-23.7431-65.2881-55.0259-120.5046-89.4593-176.4218" fill="none"/><path d="m189.8523 378.9282c-32.3011-61.6202-60.6756-107.643-98.0059-154.6104" fill="none"/><path d="m183.1127 388.5648c-28.3397-45.5112-53.6702-92.5781-99.0091-140.8707" fill="none"/><path d="m179.6303 392.1479c-29.5798-40.3695-66.0813-86.05-101.9243-115.1771" fill="none"/><path d="m168.9217 394.2619c-27.7034-35.1141-57.813-67.0345-93.4215-89.4788" fill="none"/><path d="m87.0007 334.2833c14.523 7.2841 52.8423 34.7722 64.1376 46.514" fill="none"/></g><path d="m1.5 300c0 164.772 111.328 298.5 248.5 298.5s248.5-133.728 248.5-298.5-111.328-298.5-248.5-298.5-248.5 133.728-248.5 298.5z" fill="none" stroke="#000" stroke-linecap="round" stroke-linejoin="round" stroke-width="3"/></svg>