<?xml version="1.0" encoding="utf-8"?><!DOCTYPE svg PUBLIC "-//W3C//DTD SVG 1.1//EN" "http://www.w3.org/Graphics/SVG/1.1/DTD/svg11.dtd"><svg viewBox="0 0 500 600" xmlns="http://www.w3.org/2000/svg"><path d="m.5.5v349.5c0 137.724 111.776 249.5 249.5 249.5s249.5-111.776 249.5-249.5v-349.5z" fill="#e5e5e5" stroke="#000" stroke-linecap="round" stroke-linejoin="round"/><g stroke="#000" stroke-linecap="round" stroke-linejoin="round" transform="translate(-70 -220)"><path d="m513.9063 573.5625c-5.998-.005-12.3273 3.134-19.5938 13.0938-48.5582 66.5562-82.228 170.7848-80 214.3438 81.277-33.2428 141.1552-108.1255 153.0313-198.0938-17.4194-12.358-31.9853-21.9155-39.75-25.4063-4.5504-2.0457-9.0224-3.9339-13.6875-3.9375z" fill="#0071bc"/><path d="m512.2548 597.3148c-16.0555-11.0242-25.2337-31.1578-24.2166-51.2638l-100.6272-133.1462-68.6372-6.0388-103.7608 149.1899c-4.0858 24.3109 15.4033 42.9038 19.8051 51.168 11.1265 20.89 76.2862 61.5856 98.2058 71.4064 21.3287 9.556 42.0134 5.7832 62.3042 24.8638 25.7684 24.2315 34.1617 37.5772 60.4375 60.4641 24.2573-37.9913 57.2118-89.0284 56.4892-166.6435z" fill="#ffb380"/><path d="m210.6577 447.0634-5.8995-17.3861c-16.2164-1.1079-38.7406-.129-47.2101 2.7297-10.9544 3.6973-10.9448 24.5756-9.2267 29.0641 2.7507 7.1862 9.4314 12.8497 17.5673 17.3467z" fill="#ffb380"/><path d="m204.4815 502.485-7.2599-18.4848c-16.5-.9649-37.0228 4.6348-43.6297 9.7043-8.6897 6.6677-7.9083 23.3292-5.8527 27.6037 3.2912 6.8436 10.3608 14.0692 18.3862 17.6527z" fill="#ffb380"/><path d="m214.105 561.4374-10.3759-15.72c-15.4972 2.3586-30.2013 9.761-36.497 16.3812-7.1598 7.5288-6.47 19.8625-2.0599 27.9944 3.3159 6.1142 12.4242 11.0079 20.5752 12.7502z" fill="#ffb380"/><path d="m216.2594 377.3263c-21.8152-12.4603-39.5646-22.2527-75.0929-32.4274-22.568-6.4631-37.3454 34.7586 14.4086 50.2959 8.0617 9.4355 29.3025 24.9247 39.2529 25.6368z" fill="#ffb380"/><path d="m278.3182 349.468c-126.0595-13.2184-119.5619 237.6364-46.6346 284.5525 38.8466 24.991 89.1408-16.2173 134.9597-61.8075 35.6245-35.4468 67.2058-73.4214 72.8302-97.1237 11.1986-47.1929-16.1373-74.5443-42.0872-90.8318 2.8065-6.4661 9.1845-11.5985 15.8713-17.3034-3.4997-13.319-21.2452-30.2545-33.7408-34.2808-17.6009 2.5484-32.4517 18.3555-38.5622 25.8204l-2.5426-19.799c-5.7804-3.9313-24.0735-6.0214-29.1495-6.0214-7.341 0-23.0928 1.3193-25.8028 2.2236-2.9865 4.4891-3.4168 8.8965-5.1415 14.5711z" fill="#ed1c24"/><path d="m155.5751 395.1948c4.0025.7863 9.328-.6925 12.347-2.21" fill="none"/><path d="m165.3907 478.5405c.1699.0939.3302.185.4978.2773 14.6134 8.0445 20.9137 10.0404 31.2552 9.6019 9.0841-.3853 14.2314-13.5753 12.9174-23.0668-.8825-6.3751-4.7828-10.6766-9.8396-13.3391-4.6824-2.4654-12.6737-7.4176-16.9179-10.3241" fill="#ffb380"/><path d="m204.899 465.1469c3.1422 2.2034-1.6986 14.9186-5.6189 17.6285-3.3958 2.3474-21.2535-3.7811-21.4545-8.4919-.1447-3.3929 1.967-14.9731 5.5028-15.6612 4.5465-.8848 17.8819 3.9379 21.5706 6.5245z" fill="#e5e5e5"/><path d="m165.5907 538.7084c.2188.0977.3192.1563.5348.2525 14.3363 6.3986 21.6068 9.5082 28.0475 8.3904 6.8438-1.1878 13.1757-15.2928 10.9665-22.0538-1.8931-5.7934-8.9715-10.8161-13.9461-12.9116-4.6063-1.9404-8.9812-6.0547-11.6103-8.712" fill="#ffb380"/><path d="m199.5693 525.1545c2.528 2.6081-1.8642 12.9457-5.234 16.0667-2.9189 2.7035-19.8264-4.378-20.4936-9.0388-.4806-3.3569 3.1824-14.1592 6.4007-15.2286 4.1383-1.375 17.2998 6.1094 19.3269 8.2006z" fill="#e5e5e5"/><path d="m185.1604 602.7178c.2046.0439.3854.0822.5871.1253 14.5951 3.1176 21.8694 4.5677 27.6312 2.2576 6.1151-2.4517 8.7117-16.5267 5.8299-22.6259-1.9327-4.0904-12.1922-8.1506-17.1153-9.5538-3.0247-.8621-9.4716-4.0787-12.2557-5.4635" fill="#ffb380"/><path d="m214.0262 584.5563c2.7387 2.0891.9313 11.9584-1.5802 15.5189-2.1754 3.0842-19.2553-.1524-20.7924-4.3454-1.107-3.02.0395-14.46 2.8145-16.0869 3.5683-2.092 17.4351 3.2941 19.558 4.9135z" fill="#e5e5e5"/><path d="m488.0382 546.051c.3118-52.1955-17.5475-70.1222-32.8561-88.1192-21.3073-25.0492-33.3467-45.0696-60.9046-47.7543-13.0999-1.2762-29.414 3.7613-42.5992 2.8632-3.456-.2354-6.8701-.5266-9.8755-.7425-15.5753-1.119-25.1162-1.7483-30.2133-.9302-2.2473.3607-3.5344.9723-4.1263 2.0415-17.2226 31.1122 23.3432 52.4262 67.9573 49.3098 5.8555 10.6845 12.3121 21.7116 21.1802 28.2873-12.9579 20.7955-27.8848 57.4241-10.9261 84.893" fill="#ffb380"/><path d="m390.2462 449.025c.0948 7.2101-9.026 13.0845-14.8256 13.6943" fill="none"/><path d="m406.676 666.0346c17.7914-16.2324 44.5465-45.3517 51.0573-68.2815" fill="none"/><path d="m455.7656 763.9582c-4.7667 7.7235-10.3581 15.7085-16.3232 23.7253" fill="none"/><path d="m341.8028 412.2982c2.4609 6.2685-.5497 14.9713-2.4703 19.3204-8.5732.8138-22.2912-.7785-25.8051-4.8518-3.5249-4.0859-2.6523-12.8633-1.9379-15.3988 5.097-.818 14.638-.1888 30.2133.9302z" fill="#e5e5e5"/><path d="m340.9546 358.4937c-3.3688 4.418-5.8522 10.2932-7.8379 15.845" fill="none"/><path d="m278.3182 349.468c5.6629.9083 11.7851 1.9552 14.7408 2.9505" fill="none"/></g><path d="m1.5 1.5v348.5c0 137.172 111.328 248.5 248.5 248.5s248.5-111.328 248.5-248.5v-348.5z" fill="none" stroke="#000" stroke-linecap="round" stroke-linejoin="round" stroke-width="3"/></svg>