<?xml version="1.0" encoding="utf-8"?><!DOCTYPE svg PUBLIC "-//W3C//DTD SVG 1.1//EN" "http://www.w3.org/Graphics/SVG/1.1/DTD/svg11.dtd"><svg viewBox="0 0 840 780" xmlns="http://www.w3.org/2000/svg"><g stroke="#000" stroke-linecap="round" stroke-linejoin="round"><g><path d="m632.0767 656.1721c-3.0657 4.3613-2.7989 8.8225.5959 9.9643 3.3947 1.1418 8.6318-1.468 11.6975-5.8293 3.0656-4.3613 2.7988-8.8226-.5959-9.9644-3.3948-1.1418-8.6319 1.4681-11.6975 5.8294z" fill="#ed1c24"/><path d="m635.5274 664.5056c-8.3619 8.0568-5.1808 18.4981-2.5081 24.14l-4.0493 4.5529c-2.08-8.3538-4.8296-19.8075 3.976-29.4165 1.547-.4348 2.4192-.0284 2.5814.7236z" fill="#008f4c" fill-rule="evenodd"/><path d="m654.4006 688.2868c-9.5199 7.0184-17.3847 6.016-23.7875 3.5186l-5.3585 3.3783c9.5382 2.0664 18.5801 2.7249 29.8977-4.631.5477-1.331.1076-2.1016-.7519-2.266z" fill="#008f4c" fill-rule="evenodd"/><path d="m660.4334 695.6383c-5.1986 2.2854-10.193 1.6267-11.1552-1.4717-.9623-3.0981 2.4719-7.4626 7.6706-9.7482 5.1986-2.2856 10.193-1.6268 11.1552 1.4715s-2.472 7.4626-7.6705 9.7484z" fill="#ed1c24"/><path d="m653.4277 670.1638c-3.3456 3.1795-8.6701 4.7717-11.8925 3.5563-3.2224-1.2156-3.1225-4.7785.2231-7.9581 3.3455-3.1796 8.67-4.7718 11.8925-3.5563 3.2223 1.2155 3.1224 4.7785-.2231 7.9581z" fill="#ed1c24"/><path d="m628.9427 693.7963c6.172-6.5011 11.3311-14.0201 16.4106-21.619-.557-.6139-1.4141-.5026-2.4049-.067-6.0772 8.7866-12.1228 16.6518-19.4124 23.8124z" fill="#008f4c" fill-rule="evenodd"/><path d="m676.4477 711.4548c-8.1115.345-17.7064.1208-26.9113.9795-9.2458.8622-13.2865-.1912-20.1732.2672-11.2682.7501-29.1009-14.7997-62.651 8.3543 27.0821 37.9051 79.5294 34.8478 109.7356-9.601z" fill="#008f4c" fill-rule="evenodd"/><path d="m676.4477 711.4548c-33.8652 9.7565-42.8328 28.1338-109.3478 7.5714-5.4348-1.6801-11.0313-1.0857-15.2124-2.3056l-4.4561 3.5749c4.5632 1.2107 10.898-.4476 14.9671.7056 75.892 21.5088 76.0453 3.8441 114.0493-9.5461z" fill="#008f4c" fill-rule="evenodd"/><path d="m712.424 236.804c3.9155 6.9344 7.9456 15.3011 12.833 23.0489 4.909 7.7824 5.6941 11.5548 9.1756 17.3991 5.6967 9.5629-1.202 29.041 35.6509 52.0826 24.064-33.2902-2.0376-77.9122-57.6595-92.5306z" fill="#008f4c" fill-rule="evenodd"/><path d="m712.424 236.804c25.7117 27.9501 45.0622 27.2467 56.0722 91.4734.8798 5.1323 3.3321 11.0825 4.0212 15.0197l5.3701 2.9307c-.8673-4.2656-4.0842-11.4759-4.8822-15.3012-15.9166-76.3-31.2898-63.9534-60.5813-94.1226z" fill="#008f4c" fill-rule="evenodd"/><path d="m735.89 430.3026c32.144 27.5916 31.0025 70.0312 21.2019 103.9168-43.9309-42.7454-10.406-64.2936-21.2019-103.9168z" fill="#008f4c" fill-rule="evenodd"/><path d="m735.89 430.3026c17.0055 25.5852 8.9505 63.024 24.3887 109.2909l-3.1197 4.1677c-18.3779-64.0257-6.3481-88.2779-21.269-113.4586z" fill="#008f4c" fill-rule="evenodd"/><path d="m757.5293 189.2953c3.7997-18.0631 11.1851-23.4398 15.9937-32.5869 7.9622-15.1458 14.0666-29.7577 13.1934-54.4402-30.5331 20.8153-60.9306 48.067-29.187 87.0271z" fill="#008f4c" fill-rule="evenodd"/><path d="m760.8647 207.1109c-6.4657-23.6437.8783-57.5499 25.8517-104.8427-23.8815 38.4853-34.0288 68.1124-30.3773 107.9008l4.5258-3.058z" fill="#008f4c" fill-rule="evenodd"/><path d="m703.2413 32.3326c86.131 176.5861 109.8355 444.5754 32.2092 573.6121-40.0223 66.5283-115.5634 104.5087-200.6679 121.5151-51.0664 10.2046-153.5368 16.6491-179.0411 49.6432l-14.2281-13.5564c26.8545-33.6865 125.3604-34.1862 183.5837-46.3636 115.1306-24.0794 162.7136-60.8643 195.7534-108.8736 76.6461-111.3726 67.5133-375.9455-24.052-572.4708z" fill="#008f4c" fill-rule="evenodd"/><path d="m354.4402 767.8457c2.9063 4.6727 2.5874 9.6971-.7115 11.2154-3.2989 1.5181-8.3351-1.0417-11.2412-5.7144s-2.5873-9.6972.7117-11.2157c3.2989-1.518 8.3351 1.0422 11.241 5.7147z" fill="#008f4c" fill-rule="evenodd"/><path d="m697.1344 165.5263c51.8833 10.0331 64.7137 47.6832 62.4915 81.354-72.5275-18.0855-35.3076-51.6242-62.4915-81.354z" fill="#008f4c" fill-rule="evenodd"/><path d="m763.3396 252.6068c-36.7851-40.3312-38.8573-72.9176-66.2052-87.0805 32.9459 14.4203 34.9573 53.3546 70.4886 86.8422" fill="#008f4c" fill-rule="evenodd"/><path d="m721.8352 89.1135c-44.7741-6.6456-37.1541-49.2224-43.5029-88.6137 22.4929 26.5654 68.3681 51.9158 43.5029 88.6137z" fill="#008f4c" fill-rule="evenodd"/><path d="m730.1801 104.2959c-10.9352-35.7016-35.6887-65.3261-51.8477-103.7961 18.7452 43.8544 37.4205 72.069 47.4857 101.3863" fill="#008f4c" fill-rule="evenodd"/><path d="m729.5568 23.3086c.6418 7.6172.8109 16.4987 1.9754 25.2379 1.1693 8.778.3453 12.3229 1.0447 18.8237 1.1443 10.637-12.6658 24.0616 10.2673 59.9925 34.3103-17.477 29.3893-66.897-13.2874-104.054z" fill="#008f4c" fill-rule="evenodd"/><path d="m742.8945 145.1468c.9499-3.9992-.7657-10.1864.0685-13.7819 16.6366-71.7136.5491-68.5588-13.4062-108.0564 9.1042 29.319 28.2474 41.9905 11.678 99.6885-1.3539 4.7144-1.5265 10.8709-2.5003 14.5125" fill="#008f4c" fill-rule="evenodd"/><path d="m712.6397 90.9577c.8392 4.9855 4.2711 8.509 7.6652 7.8702 3.3941-.6389 5.4651-5.1984 4.6261-10.1837-.8393-4.9854-4.2711-8.5089-7.6652-7.8701-3.394.6388-5.4653 5.1983-4.6261 10.1836z" fill="#ed1c24"/><path d="m721.2831 96.1724c-.4906 10.4598 9.475 17.5223 15.5812 20.8969l.2341 5.5976c-7.6216-5.866-17.9938-13.9563-18.2913-25.8904.855-1.0721 1.8089-1.1438 2.476-.6041z" fill="#008f4c" fill-rule="evenodd"/><path d="m752.775 106.8727c-2.1182 10.1471-8.792 12.9703-15.4427 13.8943l-1.6066 5.2438c8.7098-2.7286 16.0249-6.3781 19.2584-17.6339-.5495-1.3417-1.4402-1.7679-2.2092-1.5042z" fill="#008f4c" fill-rule="evenodd"/><path d="m762.6603 110.0885c-2.2768 4.2764-6.531 6.0511-9.502 3.9639-2.971-2.0873-3.5337-7.246-1.2569-11.5224s6.5309-6.051 9.502-3.9638c2.9709 2.0872 3.5338 7.2459 1.2569 11.5223z" fill="#ed1c24"/><path d="m738.9177 92.5071c-.2282 4.1491-3.1022 7.9168-6.4194 8.4156s-5.8213-2.4603-5.5931-6.6092c.228-4.149 3.1021-7.9168 6.4193-8.4156 3.3172-.4987 5.8213 2.4603 5.5932 6.6092z" fill="#ed1c24"/><path d="m737.5106 123.1681c-.0392-8.1734-1.5816-16.71-3.2416-25.2751-.8658-.2439-1.4334.2442-1.8672 1.0591 1.7656 9.9982 2.8881 19.2284 2.5596 28.4587" fill="#008f4c" fill-rule="evenodd"/><path d="m663.9295 81.8044c5.8363 7.0095 12.2635 15.4616 19.3117 23.2526 7.0791 7.8258 8.8713 11.746 13.9767 17.6393 8.354 9.6428 6.3439 30.7561 50.2551 52.1497 16.0568-37.0618-22.5301-82.0346-83.5435-93.0416z" fill="#008f4c" fill-rule="evenodd"/><path d="m756.9359 190.1502c-1.9573-4.4465-5.7913-10.4053-7.5674-14.3912-35.427-79.5066-46.7263-63.5351-85.439-93.9547 40.8396 32.6349 50.6963 22.7134 83.0403 94.9221 2.3693 5.2894 4.4127 8.8529 6.1045 12.9648" fill="#008f4c" fill-rule="evenodd"/><path d="m793.817 155.5088c24.3395 40.8182 1.935 70.8295-26.5512 88.4349-30.7566-59.3638 19.6079-53.159 26.5512-88.4349z" fill="#008f4c" fill-rule="evenodd"/><path d="m763.851 256.0135c8.3674-52.5307 34.8847-72.7353 29.966-100.5047 6.1223 31.1215-18.8562 49.3397-25.972 96.9637" fill="#008f4c" fill-rule="evenodd"/><path d="m733.6305 275.4755c3.6317 3.8588 8.3335 4.7683 10.5017 2.0315 2.1683-2.7366.9819-8.0834-2.6498-11.9422-3.6317-3.8587-8.3335-4.7682-10.5018-2.0315-2.1682 2.7367-.9818 8.0834 2.6499 11.9422z" fill="#ed1c24"/><path d="m769.2618 287.4753c-9.2629-.2922-20.0844-.4851-27.4908-10.8181-.002-1.4928.6723-2.1668 1.4988-2.1182 5.9263 9.5376 17.0916 9.6523 23.7153 8.7179" fill="#008f4c" fill-rule="evenodd"/><path d="m772.0907 291.602c4.9086-7.9833 8.2139-15.8856 3.8715-27.8815-1.2207-.8314-2.1473-.6368-2.5669.0883h.0001c4.514 10.304 1.1936 17.0671-3.2522 22.1405" fill="#008f4c" fill-rule="evenodd"/><path d="m782.7657 260.3144c.8614 5.2288-1.2701 9.5179-4.7609 9.5799-3.4908.0619-7.0188-4.1267-7.8801-9.3555-.8614-5.2289 1.2701-9.5179 4.7609-9.5799s7.0189 4.1267 7.8801 9.3555z" fill="#ed1c24"/><path d="m754.3269 260.0147c2.3256 3.8047 2.4316 8.9675.2369 11.5315-2.1948 2.5639-5.859 1.5582-8.1846-2.2465-2.3254-3.8047-2.4315-8.9675-.2368-11.5314 2.1946-2.564 5.859-1.5583 8.1845 2.2464z" fill="#ed1c24"/><path d="m768.6885 283.8275c-4.3706-5.601-9.4591-10.8601-14.6165-16.0866-.7978.3394-.9311 1.1332-.7668 2.1296 4.7369 4.9563 9.0803 9.8023 12.9914 14.8583" fill="#008f4c" fill-rule="evenodd"/><path d="m785.2629 313.9732c8.6963-12.5756 17.0842-14.4151 19.1928-29.1439 2.2786-15.9154 5.0366-45.3576 20.1338-71.1143-23.5989 15.9478-57.9986 42.01-55.3925 60.094 1.9719 13.6828 8.8045 21.7119 16.0659 40.1643z" fill="#008f4c" fill-rule="evenodd"/><path d="m778.0977 325.703c22.1987-21.5424.6268-63.2515 46.4919-111.9881-51.2021 51.5686-25.1325 85.8594-52.2459 112.1639" fill="#008f4c" fill-rule="evenodd"/><path d="m833.0291 340.1817c-3.6769 7.6259-8.4984 16.4314-12.3223 25.2441-3.8408 8.8518-6.5878 12.2341-9.5861 18.7647-4.9059 10.6859-25.1698 21.9077-24.1515 60.8345 41.4472-12.185 64.605-61.7736 46.0599-104.8433z" fill="#008f4c" fill-rule="evenodd"/><path d="m833.0291 340.1817c-6.9293 36.4706-1.0582 45.0557-47.3146 103.2162-3.6678 4.6118-6.2353 10.4207-9.1747 13.8763l.507 5.3404c3.1177-3.8128 5.0028-10.1843 7.7874-13.615 55.5401-68.4285 41.308-69.4982 48.1949-108.8178z" fill="#008f4c" fill-rule="evenodd"/><path d="m790.0861 386.8966c8.9615-10.8314 16.5854-10.1737 19.9154-25.4046 3.5985-16.4577 6.4639-43.9731 22.41-67.0127-22.5171 9.7752-53.1202 23.6739-52.5996 44.0108.3937 15.3875 5.6602 26.2051 10.2743 48.4064z" fill="#008f4c" fill-rule="evenodd"/><path d="m781.8532 398.1333c23.6519-21.427 5.038-65.5087 50.5582-103.654-48.4622 33.1143-30.9439 86.1486-53.6741 99.0695z" fill="#008f4c" fill-rule="evenodd"/><path d="m772.0568 416.7649c-44.9378-6.637-30.8606-47.5173-33.4818-85.2845 20.3093 25.5807 66.5118 50.0058 33.4818 85.2845z" fill="#008f4c" fill-rule="evenodd"/><path d="m779.7735 431.9496c-8.1695-28.7817-26.1235-65.3255-41.1985-100.4692 14.8068 42.1171 30.4495 73.8396 37.8371 101.9808" fill="#008f4c" fill-rule="evenodd"/><path d="m824.5946 447.0464c-4.4449 6.2249-10.2604 13.2151-14.8926 20.5547-4.653 7.3721-7.9478 9.7502-11.5758 15.1327-5.936 8.8073-30.0892 12.8716-29.315 51.4359 49.2819 2.2576 77.294-38.4789 55.7834-87.1234z" fill="#008f4c" fill-rule="evenodd"/><path d="m756.4899 546.9404c3.7393-2.6734 6.295-7.321 9.7472-9.6008 59.7061-39.4303 49.6323-52.9917 58.3575-90.2932-10.8856 44.8698-11.1718 54.5337-55.7512 85.4315-4.6636 3.0433-9.0114 7.7549-12.5351 10.1389" fill="#008f4c" fill-rule="evenodd"/><path d="m802.4296 422.7759c-1.7165 4.9474-5.6333 7.5912-8.7485 5.905-3.115-1.6862-4.2489-7.0637-2.5324-12.011 1.7165-4.9474 5.6333-7.5912 8.7483-5.9051 3.1152 1.6861 4.249 7.0636 2.5326 12.0111z" fill="#ed1c24"/><path d="m777.6459 446.4443c7.5197-3.7335 15.7716-9.1454 17.8393-19.4529-.6172-1.3749-1.5125-1.7363-2.2472-1.374-1.2087 9.1715-8.8399 13.7431-15.0808 15.997" fill="#008f4c" fill-rule="evenodd"/><path d="m771.0685 450.2503c-6.4009-4.9704-11.2945-10.954-12.1735-22.0301.7701-1.2343 1.6969-1.4111 2.3807-.9051h-.0001c.1338 9.9616 4.7504 14.9806 10.0986 18.0538" fill="#008f4c" fill-rule="evenodd"/><path d="m751.2689 427.6988c1.3819 5.1442 5.1072 8.2734 8.3207 6.9891 3.2136-1.2842 4.6988-6.4954 3.3169-11.6396-1.3816-5.1442-5.107-8.2732-8.3205-6.989-3.2138 1.2841-4.6988 6.4954-3.3171 11.6395z" fill="#ed1c24"/><path d="m777.1167 416.4963c-.5461 4.3957 1.4981 9.1888 4.5657 10.7057 3.0675 1.5169 5.9969-.8168 6.543-5.2125.5461-4.3958-1.498-9.189-4.5656-10.7059-3.0676-1.5168-5.9971.8169-6.5431 5.2127z" fill="#ed1c24"/><path d="m772.8159 448.8969c1.5411-8.5128 4.5805-16.9526 7.7375-25.3867.8695.006 1.3203.6853 1.5835 1.6657-3.5211 9.8971-5.3839 15.9972-6.7691 25.7227" fill="#008f4c" fill-rule="evenodd"/><path d="m767.285 513.5633c38.3225-8.1436 27.2968-44.2431 30.3841-78.349-17.8341 23.9967-57.6363 48.2055-30.3841 78.349z" fill="#008f4c" fill-rule="evenodd"/><path d="m760.3879 526.5556c7.2797-31.1944 24.4406-59.4665 37.2812-91.3413-7.5798 26.3877-28.067 66.2478-34.9836 91.9234" fill="#008f4c" fill-rule="evenodd"/><path d="m728.2027 507.4087c34.4926 36.9997 19.6088 74.0518-4.5665 99.4127-45.5146-54.9299 6.3489-60.6888 4.5665-99.4127z" fill="#008f4c" fill-rule="evenodd"/><path d="m723.0447 613.6539c-4.6298-57.1896 16.528-77.5597 5.158-106.2452 15.0943 26.9711-5.9839 49.0475-2.0341 101.5628" fill="#008f4c" fill-rule="evenodd"/><path d="m774.9011 568.083c-2.9736 4.4025-7.5661 6.2115-10.2577 4.0403-2.6915-2.1711-2.4628-7.5003.5108-11.9028 2.9737-4.4026 7.5661-6.2115 10.2576-4.0404 2.6916 2.1712 2.4628 7.5003-.5107 11.9029z" fill="#ed1c24"/><path d="m740.5096 587.4435c9.3202-2.1358 20.7522-5.2786 26.3688-16.6029-.2692-1.422-1.074-1.9286-1.9017-1.7164-4.2632 10.2701-16.7031 12.3632-23.5754 12.8016" fill="#008f4c" fill-rule="evenodd"/><path d="m738.9136 591.1511c-6.418-6.6174-11.199-13.4793-8.9852-25.7726 1.0842-1.0364 2.0571-1.0369 2.6134-.4307h-.0001c-2.695 10.7168 2.6738 17.4527 8.0947 21.392" fill="#008f4c" fill-rule="evenodd"/><path d="m722.4247 563.4995c.0788 5.1517 3.0153 8.8083 6.5589 8.1672 3.5436-.641 6.3524-5.3369 6.2736-10.4885-.0789-5.1517-3.0154-8.8084-6.5589-8.1673-3.5436.641-6.3524 5.3369-6.2736 10.4886z" fill="#ed1c24"/><path d="m751.1479 557.5113c-1.6618 4.0892-.8307 9.0265 1.8562 11.0278 2.6869 2.0014 6.2121.3089 7.8737-3.7803 1.6617-4.0892.8307-9.0264-1.8562-11.0278-2.6869-2.0013-6.212-.3089-7.8737 3.7803z" fill="#ed1c24"/><path d="m740.2367 584.8026c3.7024-7.8314 7.2729-12.522 12.5733-19.9855.8691.1631 1.1482.8923 1.1631 1.874-6.036 8.7915-6.5312 9.2393-10.385 18.2543" fill="#008f4c" fill-rule="evenodd"/><path d="m824.2537 535.7398c-7.8553 45.8919-45.6088 57.0855-79.932 55.0354 15.1076-64.1423 50.9418-31.0514 79.932-55.0354z" fill="#008f4c" fill-rule="evenodd"/><path d="m735.3332 596.4789c41.6054-36.8204 74.7661-37.3451 88.9205-60.7392-10.7924 23.9506-52.7165 30.737-85.1493 62.0993" fill="#008f4c" fill-rule="evenodd"/><path d="m706.4907 644.5017c13.8868.3902 17.8746 6.5991 31.9182.0735 15.1749-7.0513 45.0396-21.8445 72.7354-23.3919-21.0672-11.3625-56.543-25.8404-72.357-13.3369-11.9653 9.4603-17.4259 19.9185-32.2967 36.6553z" fill="#008f4c" fill-rule="evenodd"/><path d="m697.6952 645.5747c24.6318 5.0905 56.2869-36.4181 113.4492-24.3914-61.3054-15.9435-86.206 28.9757-117.7066 20.4453" fill="#008f4c" fill-rule="evenodd"/><path d="m664.0418 659.5393c-29.3831-31.9441 10.3455-54.3393 35.2425-84.4403-2.796 31.4953 14.9421 77.5841-35.2425 84.4403z" fill="#008f4c" fill-rule="evenodd"/><path d="m660.5983 675.8613c14.2888-26.6383 28.7502-73.4705 38.803-100.8642-17.7006 38.3034-28.5849 75.1406-43.0114 100.8264" fill="#008f4c" fill-rule="evenodd"/><path d="m770.1428 645.45c-8.9107 2.6363-19.5646 5.0809-29.5926 8.5706-10.0727 3.505-14.7316 3.512-22.2671 5.9266-12.3301 3.951-34.8498-7.6382-67.8026 26.4274 36.7673 32.8338 94.2344 14.9069 119.6623-40.9246z" fill="#008f4c" fill-rule="evenodd"/><path d="m629.0159 690.9562c5.2653.014 11.9585-3.4249 16.6831-3.4337 94.2367-.1765 83.0866-16.8545 124.4439-42.0724-37.2008 21.9714-43.2055 39.9775-120.025 38.697-6.3198-.1053-11.9708 1.8834-16.815 1.7518" fill="#008f4c" fill-rule="evenodd"/><path d="m584.446 710.7407c27.3611 26.0296 55.4605-1.0814 88.9644-16.0582-31.6411-1.7993-74.7969-20.7944-88.9644 16.0582z" fill="#008f4c" fill-rule="evenodd"/><path d="m568.736 711.9397c32.9391-10.1887 81.5861-13.9763 104.6745-17.2572-43.1001 9.0436-76.4474 11.7065-104.0356 19.364" fill="#008f4c" fill-rule="evenodd"/><path d="m641.179 657.744c-45.8776-8.0576-75.6981 23.8041-92.3477 57.021 66.3484 7.3502 54.9513-37.6517 92.3477-57.021z" fill="#008f4c" fill-rule="evenodd"/><path d="m539.4267 721.441c55.8471-26.9877 71.4825-59.2051 101.7523-63.697-31.7852 4.0428-57.2659 40.0146-103.2137 60.154" fill="#008f4c" fill-rule="evenodd"/></g><g><path d="m80.9647 238.7807c-6.6709-49.0924-28.9276-107.2651-37.3724-116.9794-6.5556 36.316.3388 80.5419 37.3724 116.9794z" fill="#008f4c"/><path d="m43.5923 121.8014c8.1372 60.8951 18.3314 69.9822 37.3724 116.9794" fill="none"/><path d="m86.668 218.0058c30.6138-36.294 71.4623-104.0609 71.0756-111.0625-35.9188 20.2249-61.8136 60.2483-71.0756 111.0625z" fill="#008f4c"/><path d="m157.7435 106.9433c-39.1002 42.0495-56.0949 76.2221-71.0756 111.0625" fill="none"/><path d="m101.0395 152.5901c29.022-22.2963 68.6072-85.8572 68.0234-97.6923-21.8016 9.4881-59.9321 57.0043-68.0234 97.6923z" fill="#008f4c"/><path d="m169.0629 54.8978c-28.0818 32.6366-48.9187 64.5429-68.0234 97.6923" fill="none"/><path d="m91.999 183.5335c-7.2513-46.5271-24.3178-92.4996-31.8809-102.6454-7.0986 33.6237-9.7054 65.8399 31.8809 102.6454z" fill="#008f4c"/><path d="m60.1181 80.8882c8.2421 58.4456 13.203 57.0921 31.8809 102.6454" fill="none"/><path d="m101.6315 141.3624c5.6151-42.6744-4.6519-88.1498-11.5981-101.6593-10.3441 31.1722-16.6282 62.7033 11.5981 101.6593z" fill="#008f4c"/><path d="m90.0332 39.7031c-.4381 55.7495.3029 57.7869 11.5981 101.6593" fill="none"/><path d="m68.7408 404.7689c20.751-40.0888 61.211-131.7452 61.7047-138.7752-38.7272 25.772-63.4154 86.5505-61.7047 138.7752z" fill="#008f4c"/><path d="m130.4456 265.9936c-37.0419 44.9512-52.8114 100.668-61.7047 138.7752" fill="none"/><path d="m68.2511 342.3244c-16.2874-53.3055-30.352-91.5503-46.0484-127.3364-6.7366 35.8689 1.5961 88.7564 46.0484 127.3364z" fill="#008f4c"/><path d="m22.2029 214.9881c8.2384 58.9184 21.6356 78.0714 46.0484 127.3364" fill="none"/><path d="m66.2272 386.7141c-12.9332-51.3035-39.4045-82.9283-51.9652-120.461-9.0838 35.9568 10.4335 89.6608 51.9652 120.461z" fill="#008f4c"/><path d="m14.262 266.2531c4.7534 61.695 31.3803 78.7997 51.9652 120.461" fill="none"/><path d="m68.2862 432.7695c-17.6274-44.9835-44.4449-77.656-58.3068-119.0015-10.0956 37.8957 6.5916 95.1723 58.3068 119.0015z" fill="#008f4c"/><path d="m9.9794 313.768c8.9855 67.0127 31.9694 83.3068 58.3068 119.0015" fill="none"/><path d="m72.4406 474.8687c-27.2558-39.209-52.4851-65.7834-69.2859-101.2364-4.5351 36.2414 23.3013 99.7546 69.2859 101.2364z" fill="#008f4c"/><path d="m3.1548 373.6323c13.439 57.3109 41.9493 84.9048 69.2859 101.2364" fill="none"/><path d="m80.8523 519.0844c-36.3674-35.4314-60.5863-60.088-80.3523-81.7021 1.5852 30.9787 40.655 92.6543 80.3523 81.7021z" fill="#008f4c"/><path d="m.5001 437.3823c23.9997 46.9756 55.392 75.1367 80.3523 81.7021" fill="none"/><path d="m94.7332 564.1259c-40.7565-32.6032-68.3468-52.7667-92.1561-73.0653 6.3998 32.7756 55.2873 87.8197 92.1561 73.0653z" fill="#008f4c"/><path d="m2.5771 491.0607c31.3736 47.1317 65.5064 69.701 92.1561 73.0653" fill="none"/><path d="m113.7178 606.9092c-43.927-29.3141-75.8653-50.3481-102.8616-72.9579 7.6578 32.0363 61.5602 85.5508 102.8616 72.9579z" fill="#008f4c"/><path d="m10.8564 533.9513c34.2907 43.9095 73.0407 66.6238 102.8616 72.9579" fill="none"/><path d="m78.7588 512.9197c13.16-44.4779 44.5178-128.9095 47.3174-133.1375-37.1929 26.877-53.3501 84.2648-47.3174 133.1375z" fill="#008f4c"/><path d="m126.0763 379.7823c-36.6966 46.4723-41.614 97.2978-47.3174 133.1375" fill="none"/><path d="m72.5617 460.2609c18.6355-43.5568 54.6133-130.302 55.1778-136.7763-37.6649 31.0924-60.2068 84.07-55.1778 136.7763z" fill="#008f4c"/><path d="m127.7395 323.4846c-36.8165 48.844-47.9937 97.9723-55.1778 136.7763" fill="none"/><path d="m104.6215 590.555c16.264-40.6129 26.9994-106.1376 25.1848-119.0508-24.6707 30.1198-33.9355 74.741-25.1848 119.0508z" fill="#008f4c"/><path d="m129.8063 471.504c-21.1998 50.5205-24.8102 85.3109-25.1848 119.0508" fill="none"/><path d="m91.6751 556.8372c12.4171-44.5506 31.3603-129.2545 35.7595-135.4867-35.8945 33.4847-44.5249 85.3644-35.7595 135.4867z" fill="#008f4c"/><path d="m127.4346 421.3505c-30.9826 52.2717-33.3691 98.2411-35.7595 135.4867" fill="none"/><path d="m130.5661 628.0897c-2.3215-26.1431 9.5111-97.1865 10.2729-103.6847-27.3482 27.7836-33.9013 75.6585-10.2729 103.6847z" fill="#008f4c"/><path d="m140.839 524.405c-25.3762 50.2081-19.309 80.6859-10.2729 103.6847" fill="none"/><path d="m70.2146 344.7247c19.2508-38.2788 63.9636-122.514 66.1825-128.696-37.5049 22.5674-68.1456 78.8001-66.1825 128.696z" fill="#008f4c"/><path d="m136.3971 216.0288c-39.3035 42.205-56.7493 93.5459-66.1825 128.696" fill="none"/><path d="m72.4326 290.4148c18.5634-31.7747 69.7382-120.7554 72.8434-127.6165-34.8383 14.7236-67.5581 75.995-72.8434 127.6165z" fill="#008f4c"/><path d="m145.276 162.7983c-45.4651 40.7868-62.4862 97.8551-72.8434 127.6165" fill="none"/><path d="m71.0661 296.7245c-3.6206-44.267-31.2403-118.5106-40.8794-127.574-5.281 32.6948 7.3782 92.3857 40.8794 127.574z" fill="#008f4c"/><path d="m30.1868 169.1504c10.574 55.6649 23.8705 84.4231 40.8794 127.574" fill="none"/><path d="m160.2833 662.537c-1.9967-32.7398-6.5349-91.639-8.4804-95.1614-21.1906 24.5211-17.2502 61.5067 8.4804 95.1614z" fill="#008f4c"/><path d="m151.8029 567.3756c-12.2739 38.6005-1.304 69.2484 8.4804 95.1614" fill="none"/><path d="m191.4657 686.4649c-3.1289-37.5264-16.0765-75.464-22.7132-84.1658-8.8474 25.702-9.2726 49.5441 22.7132 84.1658z" fill="#008f4c"/><path d="m168.7525 602.2991c3.0675 47.0642 8.1247 46.4209 22.7132 84.1658" fill="none"/><path d="m235.603 703.3416c-11.8838-34.9478-33.4233-69.5231-41.9336-77.1704-4.0191 26.6116-.0228 50.5103 41.9336 77.1704z" fill="#008f4c"/><path d="m193.6694 626.1711c14.0703 43.8964 18.8421 42.9027 41.9336 77.1704" fill="none"/><path d="m135.7983 635.4417c-35.041-9.2302-112.2809-56.081-117.7543-61.3849 19.014 45.1403 73.7728 71.9796 117.7543 61.3849z" fill="#008f4c"/><path d="m18.0441 574.0567c47.0081 51.0246 86.6716 57.8455 117.7543 61.3849" fill="none"/><path d="m160.1315 661.2982c-48.7629-12.4791-90.6086-23.7316-122.1592-35.6526 16.5277 26.6721 86.6411 60.9286 122.1592 35.6526z" fill="#008f4c"/><path d="m37.9723 625.6456c45.3076 29.1999 93.728 39.7357 122.1592 35.6526" fill="none"/><path d="m229.7794 701.4551c-40.0691-3.5596-83.4943 1.1149-94.5479 5.2875 25.457 13.6595 51.2603 19.554 94.5479-5.2875z" fill="#008f4c"/><path d="m135.2315 706.7426c49.9977 5.1884 50.8344.8061 94.5479-5.2875" fill="none"/><path d="m195.1098 683.1985c-50.6633-9.4596-104.0559-10.3357-117.1174-7.2809 31.1829 19.0652 61.7634 30.04 117.1174 7.2809z" fill="#008f4c"/><path d="m77.9923 675.9177c63.3495 12.6243 63.6168 7.9246 117.1174 7.2809" fill="none"/><path d="m139.0681 32.857c-85.5827 176.4654-109.1363 444.2715-32.0041 573.22 39.7675 66.4829 114.8277 104.4373 199.3906 121.4321 50.7413 10.1976 163.6723 20.8707 177.9015 49.5957l14.1376-13.5473c-26.6835-33.6634-124.5624-34.1492-182.4151-46.3182-114.3978-24.063-161.6779-60.8228-194.5073-108.7992-76.1582-111.2965-67.0836-375.6885 23.8989-572.0795z" fill="#008f4c" fill-rule="evenodd"/><path d="m485.6488 767.8536c-2.8878 4.6696-2.5709 9.6906.707 11.2078 3.2779 1.5171 8.282-1.041 11.1696-5.7105s2.5708-9.6906-.7072-11.208c-3.2778-1.517-8.282 1.0415-11.1695 5.7107z" fill="#008f4c" fill-rule="evenodd"/><path d="m109.7054 119.7009c24.0058-34.9009 50.1618-108.5374 47.2408-119.201-22.674 19.3775-53.2194 74.7093-47.2408 119.201z" fill="#008f4c"/><path d="m156.9461.4999c-25.4911 43.5542-36.8864 79.1911-47.2408 119.201" fill="none"/></g></g><g stroke="#000" stroke-linecap="round" stroke-linejoin="round"><path d="m473.5128 684.5-11.4645-13.4504-1.5826-24.0457c6.2575-13.6223 17.1268-16.0878 37.4164-16.9467 36.9618-1.5647 70.6565-3.1214 90.8047-12.4153 8.1903-3.7781 12.4264-10.4572 1.9306-19.1231-14.0885-11.6323-13.765-26.6894-10.3418-34.5057 7.6501-17.4681 33.9177-24.0876 56.342-25.3781l40.2545 19.1164c-22.9973-49.819-44.2851-119.2011-51.4687-195.9662-.5301-5.6647-3.8731-10.1141-9.975-10.1141l-6.3204-.001c-15.543-.0004-25.2175-36.6892-8.0979-36.6891l11.6317-.0003c8.4197.0003 9.3107-6.0491 9.3107-10.9748 0-117.3285 13.8354-175.0063 26.6771-210.5217l-32.1908 14.9798c-19.4406.5185-35.7153-4.0314-46.9575-16.1323-6.2897-6.7701-15.0986-26.4157 4.6179-44.0442-33.9518-10.4891-90.0256-22.7876-154.0991-22.7876-64.0736 0-120.1473 12.2985-154.0991 22.7876 19.7165 17.6285 10.9077 37.2741 4.6179 44.0442-11.2423 12.1009-27.517 16.6507-46.9576 16.1323l-32.1908-14.9798c12.8417 35.5154 26.6771 93.1932 26.6771 210.5217 0 4.9257.891 10.9751 9.3107 10.9748l11.6317.0003c17.1197-.0001 7.4451 36.6888-8.0979 36.6891l-6.3204.001c-6.102 0-9.4449 4.4494-9.975 10.1141-7.1836 76.7651-28.4714 146.1471-51.4687 195.9662l40.2545-19.1164c22.4242 1.2905 48.6918 7.91 56.342 25.3781 3.4231 7.8163 3.7467 22.8734-10.3418 34.5057-10.4957 8.666-6.2597 15.345 1.9306 19.1231 20.1481 9.2938 53.8429 10.8505 90.8047 12.4153 20.2896.859 31.1589 3.3245 37.4164 16.9467l-1.5826 24.0457-11.4645 13.4504c11.418 0 38.7123-2.7923 53.5128-2.7923s42.0948 2.7923 53.5128 2.7923z" fill="#c87137"/><path d="m644.6123 74.3411-18.4819-11.9635-25.7406-.3911-14.5824 12.1992 16.3768 34.3939 26.1318-1.2506 14.4345-8.7325z" fill="#c87137" fill-rule="evenodd"/><path d="m583.0292 75.0163c-1.5744 7.1558-3.4981 14.7951-6.651 23.2686.5897.6827 6.3086 5.2976 20.8961 9.2455l25.219-.294c3.4749-6.7906 8.0497-13.7343 9.2037-19.105l-19.3991 6.5937-19.3544-4.7232z" fill="#c87137"/><path d="m602.9569 75.7708c-2.3221 5.7627-4.5034 10.9522-6.8112 16.6327l5.208 1.0303 4.435-11.6153z" fill="#c87137" fill-rule="evenodd"/><path d="m610.2521 80.1755-5.6265 14.6046-6.751-1.3001 4.5028-11.4878z" fill="#7a4522" fill-rule="evenodd"/><path d="m674.609 581.6892-20.6328 18.7866-32.4872.3962-15.1221-14.5428 10.8773-47.8293 31.6836.0679 22.9762 15.5554z" fill="#c87137" fill-rule="evenodd"/><path d="m624.2825 578.7925c-3.3226-7.1958-5.3497-10.1092-8.6467-17.2006l7.201-2.2156 7.7021 14.4735-1.275 4.3488z" fill="#7a4522" fill-rule="evenodd"/><path d="m604.0049 588.6316c-3.9982-10.8339-8.6354-24.7676-13.301-37.762l18.428-10.7356 32.4431-2.2381c4.4713 9.0077 8.771 17.6407 13.2791 24.8837l-20.3209-5.4727-21.7395 7.9613z" fill="#c87137"/><path d="m474.5278 680.5347 9.7542-7.0203-.626-19.4856-21.4943-3.8163-1.0959 17.4142 4.8474 10.3602z" fill="#c87137" fill-rule="evenodd"/><path d="m474.6697 670.3444c-5.1579-.7149-9.6483-.4912-14.5084-1.1893-2.1679-8.5552-2.4279-16.3991.3044-22.1512 5.5645.1463 11.1999-.1112 16.8985.0427l-6.3849 11.4864z" fill="#c87137"/><path d="m648.6295 93.4843c-7.8206 21.3803-53.8431 25.355-79.1483-1.1525 23.1106 24.256 66.3751 15.2558 71.4318-.7584 9.3873-29.7291-46.2446-34.7477-49.9201-15.1202-.8874 4.7387.389 7.7232 2.9511 10.2788 2.562 2.5556 6.7283 4.4402 11.2488 5.2354s9.3355.4874 12.8123-.6903 5.2516-2.8684 5.6867-4.8941c.4181-1.9462-.0934-3.0653-1.4488-4.4152s-3.7226-2.5393-6.08-3.0578c-2.3575-.5186-4.6669-.4422-5.491.1241-.4853.3335-.5016.7921-.4198 1.1416l-7.8748 1.8168c-.4888-2.0967-.3607-4.3661.5797-6.2215s2.5818-3.1426 4.2579-3.919c3.3522-1.5526 7.0708-1.4933 10.7211-.6903s7.2823 2.4525 10.0747 5.2334c2.7924 2.781 4.5791 7.1938 3.6033 11.7365-1.1752 5.471-5.8354 8.9135-10.9662 10.6515-5.1308 1.7379-11.0986 2.0183-16.8841 1.0005-5.7856-1.0178-11.4497-3.3474-15.5934-7.4808-4.1438-4.1334-6.6043-10.202-5.1411-17.2864 2.3609-11.4311 13.4254-17.2179 25.9468-18.4033 21.5712-2.0422 48.2757 13.2995 39.6535 36.8712z" fill="#7a4522"/><path d="m650.1523 604.7269c-9.1105 2.459-18.8796 2.4322-27.3364-.0852-8.4568-2.5175-15.8317-7.9399-18.811-16.01-3.0905-8.3714-1.9827-15.9277 1.8221-21.7215s9.9324-9.6369 16.5204-11.7156c3.294-1.0394 6.726-1.6515 10.1281-1.7917 3.4021-.1402 6.7749.1909 9.9522 1.0354 4.9772 1.3229 9.5366 4.076 12.4262 8.3414.7997 1.1804 1.527 2.4957 2.0326 3.9055 1.4474 4.0355.9035 8.2278-.9982 11.481s-4.9874 5.6384-8.5547 7.0173c-7.1346 2.7579-16.6937 1.3121-23.0511-6.391l6.2565-4.9427c4.2558 5.1566 9.7134 5.5356 13.8258 3.946 2.0562-.7948 3.6586-2.1408 4.5007-3.5814s1.0974-2.9037.3835-4.8941c-1.3254-3.6952-4.4098-6.0134-8.9382-7.2171-4.5284-1.2036-10.3015-.9833-15.4827.6515s-9.6812 4.6323-12.1936 8.458c-2.5124 3.8258-3.4066 8.4648-1.0239 14.9189 1.8994 5.1449 6.7837 8.8925 13.5575 10.909s15.2012 2.0896 22.8357.0291c7.6345-2.0606 14.3833-6.1781 18.4298-12.1674 4.0466-5.9893 6.8766-14.3668 2.6415-25.007-4.5841-11.517-24.2731-22.1733-49.5137-19.0258-17.8573 2.2268-35.0547 13.0712-39.2859 23.1436 7.6379-17.2353 25.3831-25.3786 38.396-28.0886 22.7278-4.7332 49.288 1.7357 58.2004 21.827 1.8405 4.1491 2.6281 8.2199 2.6281 12.099 0 6.8713-2.7823 14.2062-6.3183 19.4399-5.3754 7.9561-13.9189 12.9776-23.0294 15.4366z" fill="#7a4522"/><path d="m473.5128 684.5c4.9916 0 8.8954-2.3955 11.3463-5.8159 2.4509-3.4202 3.7541-7.6186 4.2062-11.8687s.0618-8.5684-1.6168-12.3244c-1.6787-3.7561-5.5245-7.3128-10.0843-7.4441-3.3401-.0963-6.3473 1.3994-8.1104 3.5757s-2.5598 4.7471-2.7949 7.2965c-.2351 2.5495.0812 5.127 1.2631 7.4943s3.706 4.6586 6.9477 4.931l.6918-7.9151c-.608-.6023-.9473-2.6375-.8401-3.7947.1296-1.3978.6393-3.6904 2.3719-3.6745 4.0581.0367 4.6725 8.1457 4.4987 11.2774-.2701 4.8672-1.7286 11.4335-7.536 11.2413-13.0033-.4303-18.2883-18.9322-13.3906-30.4749-6.7575 16.07.6636 37.4961 13.0472 37.4961z" fill="#7a4522"/><path d="m195.3877 74.3411 18.4819-11.9635 25.7406-.3911 14.5824 12.1992-16.3768 34.3939-26.1318-1.2506-14.4345-8.7325z" fill="#c87137" fill-rule="evenodd"/><path d="m256.9708 75.0163c1.5744 7.1558 3.4981 14.7951 6.651 23.2686-.5897.6827-6.3086 5.2976-20.8961 9.2455l-25.219-.294c-3.4749-6.7906-8.0497-13.7343-9.2037-19.105l19.3991 6.5937 19.3544-4.7232z" fill="#c87137"/><path d="m237.0431 75.7708c2.3221 5.7627 4.5034 10.9522 6.8112 16.6327l-5.208 1.0303-4.435-11.6153z" fill="#c87137" fill-rule="evenodd"/><path d="m229.7479 80.1755 5.6265 14.6046 6.751-1.3001-4.5028-11.4878z" fill="#7a4522" fill-rule="evenodd"/><path d="m165.391 581.6892 20.6328 18.7866 32.4872.3962 15.1221-14.5428-10.8773-47.8293-31.6836.0679-22.9762 15.5554z" fill="#c87137" fill-rule="evenodd"/><path d="m215.7175 578.7925c3.3227-7.1958 5.3497-10.1092 8.6467-17.2006l-7.201-2.2156-7.7021 14.4735 1.275 4.3488z" fill="#7a4522" fill-rule="evenodd"/><path d="m235.9951 588.6316c3.9982-10.8339 8.6354-24.7676 13.301-37.762l-18.428-10.7356-32.4431-2.2381c-4.4713 9.0077-8.771 17.6407-13.2791 24.8837l20.3209-5.4727 21.7395 7.9613z" fill="#c87137"/><path d="m365.4722 680.5347-9.7542-7.0203.626-19.4856 21.4943-3.8163 1.0959 17.4142-4.8474 10.3602z" fill="#c87137" fill-rule="evenodd"/><path d="m365.3303 670.3444c5.1579-.7149 9.6483-.4912 14.5084-1.1893 2.1679-8.5552 2.4279-16.3991-.3044-22.1512-5.5645.1463-11.1999-.1112-16.8985.0427l6.3849 11.4864z" fill="#c87137"/><path d="m191.3705 93.4843c7.8206 21.3803 53.8431 25.355 79.1483-1.1525-23.1106 24.256-66.3751 15.2558-71.4318-.7584-9.3873-29.7291 46.2446-34.7477 49.9202-15.1202.8874 4.7387-.389 7.7232-2.9511 10.2788s-6.7283 4.4402-11.2488 5.2354-9.3355.4874-12.8123-.6903-5.2516-2.8684-5.6867-4.8941c-.418-1.9462.0934-3.0653 1.4489-4.4152 1.3554-1.3499 3.7226-2.5393 6.08-3.0578 2.3575-.5186 4.6669-.4422 5.491.1241.4853.3335.5016.7921.4198 1.1416l7.8748 1.8168c.4888-2.0967.3607-4.3661-.5797-6.2215-.9403-1.8554-2.5818-3.1426-4.2579-3.919-3.3522-1.5526-7.0707-1.4933-10.7211-.6903-3.6503.803-7.2823 2.4525-10.0747 5.2334-2.7924 2.781-4.5792 7.1938-3.6034 11.7365 1.1752 5.471 5.8354 8.9135 10.9662 10.6515 5.1308 1.7379 11.0986 2.0183 16.8841 1.0005 5.7856-1.0178 11.4497-3.3474 15.5934-7.4808 4.1438-4.1334 6.6043-10.202 5.1411-17.2864-2.3609-11.4311-13.4254-17.2179-25.9468-18.4033-21.5712-2.0422-48.2757 13.2995-39.6535 36.8712z" fill="#7a4522"/><path d="m189.8477 604.7269c9.1105 2.459 18.8796 2.4322 27.3364-.0852 8.4568-2.5175 15.8317-7.9399 18.811-16.01 3.0905-8.3714 1.9827-15.9277-1.8221-21.7215s-9.9324-9.6369-16.5204-11.7156c-3.294-1.0394-6.726-1.6515-10.1281-1.7917-3.4021-.1402-6.7749.1909-9.9522 1.0354-4.9772 1.3229-9.5366 4.076-12.4262 8.3414-.7997 1.1804-1.527 2.4957-2.0326 3.9055-1.4475 4.0355-.9035 8.2278.9982 11.481s4.9874 5.6384 8.5547 7.0173c7.1346 2.7579 16.6937 1.3121 23.0511-6.391l-6.2565-4.9427c-4.2558 5.1566-9.7134 5.5356-13.8258 3.946-2.0562-.7948-3.6586-2.1408-4.5007-3.5814s-1.0974-2.9037-.3835-4.8941c1.3254-3.6952 4.4098-6.0134 8.9382-7.2171 4.5284-1.2036 10.3015-.9833 15.4827.6515s9.6812 4.6323 12.1936 8.458c2.5124 3.8258 3.4066 8.4648 1.0239 14.9189-1.8994 5.1449-6.7837 8.8925-13.5575 10.909s-15.2012 2.0896-22.8357.0291c-7.6345-2.0606-14.3833-6.1781-18.4298-12.1674-4.0466-5.9893-6.8766-14.3668-2.6415-25.007 4.5841-11.517 24.273-22.1733 49.5137-19.0258 17.8572 2.2268 35.0547 13.0712 39.2859 23.1436-7.6379-17.2353-25.3831-25.3786-38.396-28.0886-22.7278-4.7332-49.288 1.7357-58.2004 21.827-1.8405 4.1491-2.6281 8.2199-2.6281 12.099 0 6.8713 2.7823 14.2062 6.3183 19.4399 5.3754 7.9561 13.9189 12.9776 23.0294 15.4366z" fill="#7a4522"/><path d="m366.4872 684.5c-4.9916 0-8.8954-2.3955-11.3463-5.8159-2.4509-3.4202-3.7541-7.6186-4.2062-11.8687s-.0618-8.5684 1.6168-12.3244c1.6787-3.7561 5.5245-7.3128 10.0843-7.4441 3.3401-.0963 6.3473 1.3994 8.1104 3.5757s2.5598 4.7471 2.7949 7.2965c.2351 2.5495-.0812 5.127-1.2631 7.4943s-3.706 4.6586-6.9477 4.931l-.6918-7.9151c.608-.6023.9473-2.6375.8401-3.7947-.1296-1.3978-.6393-3.6904-2.3719-3.6745-4.0581.0367-4.6725 8.1457-4.4987 11.2774.2701 4.8672 1.7286 11.4335 7.536 11.2413 13.0033-.4303 18.2883-18.9322 13.3906-30.4749 6.7575 16.07-.6636 37.4961-13.0472 37.4961z" fill="#7a4522"/></g><g stroke="#000" stroke-linecap="round" stroke-linejoin="round"><g><path d="m376.0506 60.75h87.8989l-27.053 66.9322h-33.793z" fill="#e5e5e5" fill-rule="evenodd"/><path d="m351.5015 153.8714v-35.5874l68.4984 3.4064 68.4985-3.4064v35.5874l-68.4985-3.4062z" fill="#e5e5e5"/><path d="m330.5 313.3196 1.1719-13.9806c.5116-6.1034 18.2406-32.3276 23.0596-43.1238 4.5337-10.1569 6.7167-30.1852 8.5982-42.7552 7.6233-50.926 23.2999-67.3938 56.6703-67.3938s49.047 16.4678 56.6703 67.3938c1.8817 12.57 4.0647 32.5984 8.5982 42.7552 4.819 10.7961 22.547 37.0203 23.0589 43.1238l1.1726 13.9806z" fill="#e5e5e5"/><path d="m509.4999 313.3196c0 7.522-40.0704 13.6197-89.4999 13.6197-49.4294 0-89.4999-6.0977-89.4999-13.6197s40.0704-13.6197 89.4999-13.6197c49.4294 0 89.4999 6.0977 89.4999 13.6197z" fill="#e5e5e5"/><path d="m508.3278 299.3386c-12.1611-9.2098-51.3532-12.1508-88.3271-12.1508-36.9741 0-76.1673 2.941-88.3285 12.1508" fill="none"/><path d="m399.9122 118.2839h11.5355v34.7096l-11.5355 1.8402z" fill="#e5e5e5"/><path d="m428.5523 118.2839h11.5355v36.5498l-11.5355-1.8402z" fill="#e5e5e5"/><path d="m498.5887 313.3196c0 4.7409-35.1854 8.5842-78.5888 8.5842s-78.5886-3.8433-78.5886-8.5842c0-4.741 35.1852-8.5842 78.5886-8.5842s78.5888 3.8433 78.5888 8.5842z" fill="#e5e5e5"/><path d="m428.1049 304.7711c-2.6695-.0332-5.3714-.0401-8.1175-.0401-2.7472 0-5.4473.007-8.1175.0401l.001 10.4764c-3.3167 2.4716-5.4699 6.425-5.4699 10.8921 0 7.51 6.0532 13.6105 13.5718 13.6105 7.5187 0 13.6261-6.1005 13.6261-13.6105 0-4.4671-2.1532-8.4205-5.4946-10.8921z" fill="#e5e5e5"/></g><g><path d="m472.0657 565.2949c0-8.274-.8231-34.8469-24.4052-34.8469-20.5397 0-24.4053 25.6701-24.4053 34.8469l7.2077-1.5218c0-6.842 2.724-25.9811 17.1977-25.9811 16.6174 0 17.1975 19.8123 17.1975 25.9811z" fill="#e5e5e5"/><path d="m430.9224 406.5088c-2.6207 27.1771-30.5898 45.3229-31.3125 78.5192-.5138 23.6085 1.3757 56.677 44.8197 57.8241 52.4306 1.3845 57.5802-28.7938 56.4853-54.1721-1.1425-26.4781-10.2151-51.8714-7.3677-78.5191z" fill="#e5e5e5"/><path d="m469.0037 423.7457-31.4299.6649c4.2652 35.3718 3.3785 75.5431-1.0888 117.8181 2.483.3327 5.1225.5499 7.9457.6244 9.6458.2547 17.6786-.5676 24.3793-2.2231 4.7923-39.155 6.2249-81.1742.1937-116.8843z" fill="#e5e5e5"/><path d="m358.1285 427.9918c-2.7256 28.2609-31.8147 47.1306-32.5662 81.6507-.5345 24.5501 1.4307 58.9375 46.6143 60.1304 54.53 1.4395 59.8857-29.9422 58.7469-56.3326-1.1882-27.5342-10.6241-53.9401-7.6627-81.6507z" fill="#e5e5e5"/><path d="m370.1185 561.207c-1.9249-40.3286-3.263-88.9942 20.4736-128.3197h14.3675c-22.8817 39.8465-20.8596 88.6597-20.4736 128.3197z" fill="none"/><path d="m400.9193 593.1106c0-8.6038-.8561-36.2364-25.3824-36.2364-21.3621 0-25.3825 26.6938-25.3825 36.2364l7.4963-1.5823c0-7.1149 2.833-27.0174 17.8863-27.0174 17.2828 0 17.8861 20.6024 17.8861 27.0174z" fill="#e5e5e5"/><path d="m350.4356 589.8511h50.2025c2.6035 0 4.6994 2.0959 4.6994 4.6994s-2.0959 4.6994-4.6994 4.6994h-50.2025c-2.6035 0-4.6994-2.0959-4.6994-4.6994s2.0959-4.6994 4.6994-4.6994z" fill="#e5e5e5" fill-rule="evenodd"/><path d="m384.7413 390.151c-13.5017-6.8381-31.1552-8.178-41.6045 0-8.6333 6.7568-17.6605 18.5559-17.6367 25.6295.0429 12.7258 10.0982 26.6159 27.5856 23.9209 22.5592-3.4767 43.4083 9.171 70.0946 10.2518 20.4165.8268 41.6046-10.16 50.1968-16.8728 62.8674 0 91.123-40.5383 91.123-54.8898 0-7.2046-1.2341-12.8993-6.3593-15.584-3.7634-1.9712-8.4819-2.3566-13.7646-2.3566-33.532 0-61.8537 35.5075-96.7757 39.7256-21.8796 2.643-43.4195.021-62.8591-9.8246z" fill="#e5e5e5"/><path d="m473.377 433.0804c36.2457-27.2294 64.9457-78.8592 84.7637-70.4738" fill="none"/><path d="m423.5264 562.1603h48.2683c2.5036 0 4.5192 2.0156 4.5192 4.5192s-2.0156 4.5192-4.5192 4.5192h-48.2683c-2.5036 0-4.5192-2.0156-4.5192-4.5192s2.0156-4.5192 4.5192-4.5192z" fill="#e5e5e5" fill-rule="evenodd"/></g></g></svg>