<?xml version="1.0" encoding="utf-8"?><!DOCTYPE svg PUBLIC "-//W3C//DTD SVG 1.1//EN" "http://www.w3.org/Graphics/SVG/1.1/DTD/svg11.dtd"><svg viewBox="0 0 580 680" xmlns="http://www.w3.org/2000/svg"><g stroke="#000" stroke-linecap="round" stroke-linejoin="round"><path d="m.5 69.5c24.083 24.098 40 54.636 40 90.5v354.75c0 68.898 55.852 124.75 124.75 124.75h62.375c27.289 0 50.92 17.163 62.375 40 11.455-22.837 35.086-40 62.375-40h62.375c68.898 0 124.75-55.852 124.75-124.75v-354.75c0-35.864 15.917-66.402 40-90.5l-69-69-18.7 18.7c-13.233 13.233-31.607 21.3-51.8 21.3h-300c-20.193 0-38.567-8.067-51.8-21.3l-18.7-18.7z" fill="#ed1c24"/><path d="m.5 69.5c24.083 24.098 40 54.636 40 90.5v180h499v-180c0-35.864 15.917-66.402 40-90.5l-69-69-18.7 18.7c-13.233 13.233-31.607 21.3-51.8 21.3h-300c-20.193 0-38.567-8.067-51.8-21.3l-18.7-18.7z" fill="#0071bc"/></g><g stroke="#000" stroke-linecap="round" stroke-linejoin="round"><path d="m256.4947 343.5567h67.0106v144.7462h-67.0106z" fill="#eac102"/><path d="m256.4942 504.7057 33.5056-2.401 33.5056 2.401 76.7404 63.7878h-220.4918z" fill="#eac102"/><path d="m180.3287 559.8454c-5.4451 0-9.8288 4.3829-9.8288 9.8273 0 5.4443 4.3837 9.8273 9.8288 9.8273h219.3426c5.4451 0 9.8288-4.383 9.8288-9.8273s-4.3837-9.8273-9.8288-9.8273z" fill="#eac102"/><path d="m263.659 191.912h52.6821v143.4013h-52.6821z" fill="#e5e5e5"/><path d="m255.4226 194.9696c0-9.7321 14.427-15.2527 26.85-11.0171 6.3585 2.1679 40.0891-6.7759 40.0891 9.532 0 15.0378-18.5769 8.0125-24.6533 13.4523-5.3119 4.7554-12.0706-2.6501-19.7448 1.4933-4.5823 2.4741-8.7691-12.7542-12.9624-2.6924-2.0363 4.8863 3.2822 36.2266-9.6183 33.2023-7.5421-1.7681-4.6964-11.3913-1.1101-22.7513 2.6821-8.4957 1.1496-12.8683 1.1496-21.2191z" fill="#e5e5e5"/><path d="m290.4522 181.4057c-50.7081 0-.7796-65.1932-2.78-80.9058 14.3087 23.8232 46.0621 80.9058 2.78 80.9058z" fill="#eac102"/><path d="m256.4949 330.1727h67.0104c5.4451 0 9.8288 4.383 9.8288 9.8273s-4.3837 9.8273-9.8288 9.8273h-67.0106c-5.4451 0-9.8286-4.3829-9.8286-9.8273 0-5.4443 4.3837-9.8273 9.8288-9.8273z" fill="#eac102"/><path d="m290.1836 179.0472c-20.576 0-.3164-34.9311-1.128-41.4001 5.806 9.8083 18.6908 41.4001 1.128 41.4001z" fill="#ed1c24"/><path d="m287.8039 190.0251v-13.9604c0-1.3863.9795.6808 2.1962.6808s2.1962-2.0673 2.1962-.6808v13.9604c0 1.3863-.9795 1.6748-2.1962 1.6748s-2.1962-.2885-2.1962-1.6748z" fill="#c87137"/><path d="m256.4949 485.0507h67.0104c5.4451 0 9.8288 4.383 9.8288 9.8273s-4.3834 9.8277-9.8285 9.8277h-67.0113c-5.4451 0-9.8281-4.3834-9.8281-9.8277s4.3837-9.8273 9.8288-9.8273z" fill="#eac102"/><path d="m325.815 349.2149c-3.1728-.007-6.0905 2.831-6.0905 6.0025s2.9177 6.0113 6.0905 6.0025c13.0361-.036 22.7354 5.3416 28.036 12.7929s6.5132 17.0314 1.4638 27.3114c-13.6081 27.7041-35.4646 50.9734-35.5047 77.8024-.005 3.1715 2.8322 6.088 6.005 6.088s6.0113-2.9165 6.005-6.088c-.0387-19.6453 19.8428-43.0727 34.3037-72.5128 6.7846-13.8124 5.2747-28.6447-2.4771-39.5415s-21.4407-17.8199-37.8317-17.8575z" fill="#eac102"/></g><path d="m1.5 69.5c24.083 24.098 40 54.636 40 90.5v354.75c0 68.898 54.852 123.75 123.75 123.75h62.375c27.289 0 50.92 17.163 62.375 40 11.455-22.837 35.086-40 62.375-40h62.375c68.898 0 123.75-54.852 123.75-123.75v-354.75c0-35.864 15.917-66.402 40-90.5l-68-68-18.7 18.7c-13.233 13.233-31.607 21.3-51.8 21.3h-300c-20.193 0-38.567-8.067-51.8-21.3l-18.7-18.7z" fill="none" stroke="#000" stroke-linecap="round" stroke-linejoin="round" stroke-width="3"/></svg>