<?xml version="1.0" encoding="utf-8"?><!DOCTYPE svg PUBLIC "-//W3C//DTD SVG 1.1//EN" "http://www.w3.org/Graphics/SVG/1.1/DTD/svg11.dtd"><svg viewBox="0 0 740 950" xmlns="http://www.w3.org/2000/svg"><g stroke="#000" stroke-linecap="round" stroke-linejoin="round"><path d="m543.8071 173c0 7.0122-38.1058 21.2714-173.8071 21.2714s-173.8071-14.2592-173.8071-21.2714 38.1058-21.2715 173.8071-21.2715 173.8071 14.2593 173.8071 21.2715z" fill="#eac102"/><g fill="none"><path d="m217.422 163.829v18.341" stroke-width="5.5"/><path d="m223.859 162.34v21.319" stroke-width="5.25"/><path d="m230.296 161.363v23.273" stroke-width="5"/><path d="m236.733 160.154v25.692" stroke-width="4.75"/><path d="m243.171 159.084v27.832" stroke-width="4.5"/><path d="m249.608 158.153v29.693" stroke-width="4.25"/><path d="m256.045 157.223v31.553" stroke-width="4"/><path d="m262.482 156.432v33.135" stroke-width="3.75"/><path d="m268.92 155.92v34.159" stroke-width="3.5"/><path d="m275.357 155.316v35.368" stroke-width="3.25"/><path d="m281.794 154.385v37.229" stroke-width="3"/><path d="m288.232 153.873v38.253" stroke-width="2.75"/><path d="m294.669 153.641v38.718" stroke-width="2.5"/><path d="m301.106 153.082v39.834" stroke-width="2.25"/><path d="m307.543 152.617v40.765" stroke-width="2"/><path d="m313.981 152.338v41.323" stroke-width="1.75"/><path d="m320.418 151.92v42.16" stroke-width="1.5"/><path d="m326.855 151.64v42.719" stroke-width="1.25"/><path d="m333.292 150.803v44.394"/><path d="m339.73 150.803v44.394" stroke-width=".75"/><path d="m346.167 150.803v44.394" stroke-width=".5"/><path d="m352.604 150.803v44.394" stroke-width=".25"/><path d="m204.547 168.248v9.502" stroke-width="6"/><path d="m210.984 165.876v14.248" stroke-width="5.75"/><path d="m522.579 163.829v18.341" stroke-width="5.5"/><path d="m516.142 162.34v21.319" stroke-width="5.25"/><path d="m509.704 161.363v23.273" stroke-width="5"/><path d="m503.267 160.154v25.692" stroke-width="4.75"/><path d="m496.83 159.084v27.832" stroke-width="4.5"/><path d="m490.393 158.153v29.693" stroke-width="4.25"/><path d="m483.955 157.223v31.553" stroke-width="4"/><path d="m477.518 156.432v33.135" stroke-width="3.75"/><path d="m471.081 155.92v34.159" stroke-width="3.5"/><path d="m464.643 155.316v35.368" stroke-width="3.25"/><path d="m458.206 154.385v37.229" stroke-width="3"/><path d="m451.769 153.873v38.253" stroke-width="2.75"/><path d="m445.332 153.641v38.718" stroke-width="2.5"/><path d="m438.894 153.082v39.834" stroke-width="2.25"/><path d="m432.457 152.617v40.765" stroke-width="2"/><path d="m426.02 152.338v41.323" stroke-width="1.75"/><path d="m419.583 151.92v42.16" stroke-width="1.5"/><path d="m413.145 151.64v42.719" stroke-width="1.25"/><path d="m406.708 150.803v44.394"/><path d="m400.271 150.803v44.394" stroke-width=".75"/><path d="m393.834 150.803v44.394" stroke-width=".5"/><path d="m387.396 150.803v44.394" stroke-width=".25"/><path d="m535.453 168.248v9.502" stroke-width="6"/><path d="m529.016 165.876v14.248" stroke-width="5.75"/></g><g><path d="m195.0938 122.7813c-8.0052-3.422-21.7351-20.1327-28.1498-28.8125l-8 6c10.3764 13.7807 18.7019 22.4544 25.0248 27.5313 3.1615 2.5384 5.9207 4.2391 8.8125 5.0938z" fill="#eac102"/><path d="m544.9063 122.7813c8.0052-3.422 21.735-20.1327 28.1497-28.8125l8 6c-10.3764 13.7807-18.7018 22.4544-25.0247 27.5313-3.1615 2.5384-5.9207 4.2391-8.8125 5.0938z" fill="#eac102"/><path d="m375 54.9324v16.654c0 33.4354 51.1844 34.4812 54.5938-.2213.2475-2.5189 3.0219-4.3753 5.5072-4.074 2.4854.3013 4.7003 2.7619 4.399 5.2749-4.1358 34.496 41.594 36.4475 48.1875 2.4966l3.0625-15.7692c.4944-2.5455 3.3114-4.337 5.8296-3.8423s4.4764 3.2244 3.983 5.77l-3.0625 15.8007c-7.0147 36.1916 28.6416 34.2673 45.3438 5.5303 1.3295-2.2875 4.6253-3.1036 6.8752-1.7384 2.25 1.3652 3.0207 4.6491 1.7185 6.9526-19.3323 34.1985 5.7024 27.7663 21.2188 6.6995l11.2188-15.2319c1.5678-2.1287 4.9132-2.6161 7.016-1.0275 2.1027 1.5885 2.5859 4.9685 1.0153 7.095l-11.25 15.2319c-19.4649 26.3545-44.7446 27.7583-46.0313 5.8937-16.952 12.3658-39.8595 10.5176-46.4063-10.0018-16.5868 19.1242-46.8885 16.5074-56-5.1827-17.3933 22.7946-49.8176 19.2712-62.219-1.0875-12.4014 20.3587-44.8257 23.8821-62.219 1.0875-9.1115 21.6901-39.4132 24.3069-56 5.1827-6.5468 20.5194-29.4543 22.3676-46.4063 10.0018-1.2867 21.8646-26.5664 20.4608-46.0313-5.8937l-11.25-15.2319c-1.5706-2.1265-1.0874-5.5065 1.0153-7.095 2.1028-1.5886 5.4482-1.1012 7.016 1.0275l11.2188 15.2319c15.5164 21.0668 40.5511 27.499 21.2188-6.6995-1.3022-2.3035-.5315-5.5874 1.7185-6.9526 2.2499-1.3652 5.5457-.5491 6.8752 1.7384 16.7022 28.737 52.3585 30.6613 45.3438-5.5303l-3.0625-15.8007c-.4934-2.5456 1.4648-5.2753 3.983-5.77s5.3352 1.2968 5.8296 3.8423l3.0625 15.7692c6.5935 33.9509 52.3233 31.9994 48.1875-2.4966-.3013-2.513 1.9136-4.9736 4.399-5.2749 2.4853-.3013 5.2597 1.5551 5.5072 4.074 3.4094 34.7025 54.5938 33.6567 54.5938.2213v-16.654c0-2.6584 2.3504-5.1511 5.0001-5.1511s5.0001 2.4927 5.0001 5.1511z" fill="#eac102"/><path d="m370.0001 152.2117c-139.8158 0-182.5692-15.8896-182.5692-18.2644s42.7534-18.2645 182.5692-18.2645 182.5693 15.8897 182.5693 18.2645c0 2.3747-42.7535 18.2644-182.5693 18.2644zm-137.8858 3.1594c-32.5558-4.273-56.6142-10.9941-56.6142-21.4237 0-24.2391 129.9445-28.4474 194.5-28.4474s194.5 4.2083 194.5 28.4474c0 10.4296-24.0585 17.1507-56.6143 21.4237z" fill="#eac102" fill-rule="evenodd"/><path d="m266.4966 155.3715-69.0588 14.6048c-2.583-12.3267-5.022-23.5271-10.9304-35.0537-3.1408-6.1274 59.7743-20.0364 183.4926-20.0364 123.7184 0 186.6334 13.9091 183.4926 20.0364-5.9084 11.5267-8.3474 22.7269-10.9304 35.0537l-69.0588-14.6048z" fill="#eac102"/><path d="m185.9821 151.6525 3.9988-8.9213 13.0006 2.2327-8.6657 11.4659z" fill="#ed1c24"/><path d="m185.9821 151.6525 16.9994-6.6887" fill="none"/><path d="m247.7763 130.281 35.8427-3.3618c3.5853-.3363 6.7423 2.2793 7.0786 5.8646s-2.2793 6.7423-5.8646 7.0786l-35.8427 3.3618c-3.5853.3363-6.7423-2.2793-7.0786-5.8646s2.2793-6.7423 5.8646-7.0786z" fill="#008f4c" fill-rule="evenodd"/><path d="m228.8496 140.5115c0 4.363-3.537 7.9-7.9 7.9s-7.9-3.537-7.9-7.9c0-4.3631 3.537-7.9 7.9-7.9s7.9 3.5369 7.9 7.9z" fill="#e5e5e5" fill-rule="evenodd"/><path d="m323.4747 131.9843c0 4.363-3.537 7.9-7.9 7.9s-7.9-3.537-7.9-7.9c0-4.3631 3.537-7.9 7.9-7.9s7.9 3.5369 7.9 7.9z" fill="#e5e5e5" fill-rule="evenodd"/><path d="m554.0179 151.6525-3.9988-8.9213-13.0006 2.2327 8.6657 11.4659z" fill="#ed1c24"/><path d="m554.0179 151.6525-16.9994-6.6887" fill="none"/><path d="m492.2237 130.281-35.8427-3.3618c-3.5853-.3363-6.7423 2.2793-7.0786 5.8646s2.2793 6.7423 5.8646 7.0786l35.8427 3.3618c3.5853.3363 6.7423-2.2793 7.0786-5.8646s-2.2793-6.7423-5.8646-7.0786z" fill="#008f4c" fill-rule="evenodd"/><path d="m511.1505 140.5115c0 4.363 3.537 7.9 7.9 7.9s7.9-3.537 7.9-7.9c0-4.3631-3.537-7.9-7.9-7.9s-7.9 3.5369-7.9 7.9z" fill="#e5e5e5" fill-rule="evenodd"/><path d="m416.5253 131.9843c0 4.363 3.537 7.9 7.9 7.9s7.9-3.537 7.9-7.9c0-4.3631-3.537-7.9-7.9-7.9s-7.9 3.5369-7.9 7.9z" fill="#e5e5e5" fill-rule="evenodd"/><path d="m350.5889 124.2484-10.0858 6.7241 10.0858 6.7232h38.8224l10.0858-6.7232-10.0858-6.7241z" fill="#ed1c24"/><path d="m350.5889 124.2484 9.3228 6.018-9.3228 7.4293" fill="none"/><path d="m340.503 130.9725 19.4086-.7061h20.1771l19.4085.7061" fill="none"/><path d="m389.4113 124.2484-9.3227 6.018 9.3227 7.4293" fill="none"/><path d="m363.762 58.2733-5.9561 5.6704c-5.0807 4.837-10.1051 2.1442-22.1737 7.1856-.4947-3.8079-.279-6.9575 2.3269-9.7609-7.8194-.4714-14.0504-4.5216-19.1324-9.3824 5.0821-4.8598 11.3132-8.911 19.1324-9.3825-2.6058-2.8035-2.8215-5.9522-2.3269-9.7599 12.0687 5.0405 17.0921 2.3488 22.1737 7.1858l5.9561 5.6694z" fill="#eac102"/><path d="m360.8552 51.9859h-34.8042" fill="none"/><path d="m362.3653 55.9967c-10.2044 6.3639-14.4016 4.4882-21.9439 9.7922" fill="none"/><path d="m362.3653 47.9752c-10.2044-6.3639-14.4016-4.4883-21.9439-9.7922" fill="none"/><path d="m376.2492 45.7099 5.636-5.9925c4.8076-5.1117 2.1312-10.1657 7.1421-22.3081-3.7847-.4977-6.9153-.2807-9.7017 2.341-.4686-7.8671-4.4944-14.1362-9.3256-19.2503-4.8312 5.1141-8.857 11.3832-9.3256 19.2503-2.7864-2.6217-5.9169-2.8387-9.7017-2.341 5.0109 12.1424 2.3345 17.1964 7.1421 22.3081l5.636 5.9925z" fill="#eac102"/><path d="m370 42.7863v-35.0168" fill="none"/><path d="m366.0135 44.3046c-6.3263-10.2667-4.4611-14.4895-9.7328-22.0769" fill="none"/><path d="m538.4893 173c0 2.2122-39.4563 17.0141-168.4893 17.0141s-168.4893-14.8019-168.4893-17.0141c0-2.2123 39.4563-17.0142 168.4893-17.0142s168.4893 14.8018 168.4893 17.0142zm11.0107 0c0 22.5798-119.923 26.5-179.5 26.5s-179.5-3.9202-179.5-26.5 119.923-26.5 179.5-26.5 179.5 3.9203 179.5 26.5z" fill="#eac102" fill-rule="evenodd"/><path d="m248.8781 51.2561 4.3828-6.1852c3.7221-5.2528 11.1566-3.9421 19.1506-9.3239 1.2432 3.7362 1.6887 6.8869-.1595 9.9255 7.3728-.2918 14.0092 3.1557 19.7375 7.4916-3.7307 5.3241-8.6974 9.9548-15.8756 11.1834 3 2.5329 3.8489 5.6411 4.17 9.4732-10.8666-3.6675-16.1972-.5282-22.1095-4.985l-6.7066-5.0556z" fill="#eac102"/><path d="m237.2679 52.4685-6.7006-5.0274c-5.7701-4.3292-11.6041-1.4315-22.1155-5.0122.3221 3.8311 1.1699 6.9404 4.1711 9.4722-7.1792 1.2286-12.1399 5.8875-15.8705 11.2116 5.7284 4.3359 12.3587 7.755 19.7315 7.4644-1.8482 3.0387-1.4027 6.1894-.1585 9.9245 9.9214-5.9602 15.4605-4.0498 19.1555-9.2955l4.3767-6.2136z" fill="#eac102"/><path d="m235.9023 59.2272c-15.1089-.1817-19.3803 1.7677-32.6861 3.2355" fill="none"/><path d="m235.4337 54.3179c-9.5934-6.0026-16.3391-3.4828-22.4567-7.7702" fill="none"/><path d="m237.2127 64.4161c-6.5421 6.4094-11.5489 4.1592-17.225 9.5822" fill="none"/><path d="m248.9102 51.2813 3.9894-6.4972c3.3736-5.4942-.0903-11.6639 2.0941-22.8533-3.6263-.1272-6.4959.3927-8.5518 3.2678-2.0519-7.7682-7.7902-14.2613-14.3895-17.7805-1.9616 6.7355-4.9647 12.8249-2.053 20.5234-3.1326-2.3331-7.0388-3.1699-10.4603-2.3078 6.7829 10.4423 5.3053 16.519 11.2309 21.4622l6.4778 5.4039z" fill="#eac102"/><path d="m246.6465 48.9383c3.0603-7.2776.3392-14.3017 4.2524-22.4535" fill="none"/><path d="m238.6355 50.4393c-7.7692-7.8954-7.3217-15.0861-13.062-20.9019" fill="none"/><path d="m242.4785 48.9867c-4.9266-13.1903-3.7406-23.2591-8.2709-34.8472" fill="none"/><path d="m250.1975 52.9925c6.507-7.2059 12.167-5.2071 18.702-11.1874" fill="none"/><path d="m251.7958 61.5319c9.3414 3.7311 12.4249 1.4638 22.4216 7.3886" fill="none"/><path d="m252.9206 57.4494c14.1337-3.8877 19.9613-1.2185 32.8597-3.5717" fill="none"/><path d="m254.1427 58.1086c0 5.5781-4.5219 10.1-10.1 10.1s-10.1-4.5219-10.1-10.1 4.5219-10.1 10.1-10.1 10.1 4.5219 10.1 10.1z" fill="#ed1c24" fill-rule="evenodd"/><path d="m139.2421 71.7354c-6.9071-9.8558-12.6261-16.1839-33.7421-18.0121 7.2242-10.9269 22.2693-14.0897 32.055-4.1188.9257-2.7287 1.4965-3.6181 4.084-6.1389 2.3071 7.1161 12.5812 12.4927 8.5051 25.2347l-4.0056 12.5219z" fill="#eac102"/><path d="m144.4292 79.187c3.8096-6.8364 4.5595-10.5908 7.4141-14.3119 2.8499-3.715 7.5109-6.9787 10.8958-9.8962 1.4854 3.4273 2.3343 6.4215 1.6259 9.6984 4.8897-1.5425 9.9388.6844 14.5341 3.931-1.5709 5.8239-4.09 11.1833-8.6864 13.6053 2.4529 1.9555 3.5641 4.8397 4.4484 8.5183 0 0-10.5557-.8543-15.1514.2019-5.2482 1.2062-9.2341-1.0487-10.0958-1.8998z" fill="#eac102"/><path d="m143.319 77.3831c-.6153-5.2111 1.1682-9.9124.8501-14.0958-.5819-7.6541-3.075-10.1759-2.7454-14.1846" fill="none"/><path d="m147.0298 83.6723c8.2134-6.6819 15.7327-7.9014 25.62-13.5456" fill="none"/><path d="m145.6091 79.9715c3.5924-6.0782 10.9851-9.4662 14.9751-18.9212" fill="none"/><path d="m148.1785 87.1097c7.0653.9722 11.3499-3.1477 19.8024-.0606" fill="none"/><path d="m149.4139 89.034c-1.3223.6355-2.7727 1.0058-4.3378 1.0058-5.5781 0-10.1-4.5219-10.1-10.1 0-3.4008 1.6898-6.3742 4.266-8.2044 5.0748 3.2253 9.3857 11.0399 10.1718 17.2986z" fill="#ed1c24" fill-rule="evenodd"/><path d="m491.1219 51.2561-4.3828-6.1852c-3.722-5.2528-11.1566-3.9421-19.1506-9.3239-1.2432 3.7362-1.6887 6.8869.1595 9.9255-7.3728-.2918-14.0092 3.1557-19.7375 7.4916 3.7307 5.3241 8.6974 9.9548 15.8756 11.1834-3 2.5329-3.8489 5.6411-4.17 9.4732 10.8666-3.6675 16.1972-.5282 22.1095-4.985l6.7066-5.0556z" fill="#eac102"/><path d="m502.7321 52.4685 6.7006-5.0274c5.7701-4.3292 11.6041-1.4315 22.1155-5.0122-.3221 3.8311-1.1699 6.9404-4.1711 9.4722 7.1792 1.2286 12.1399 5.8875 15.8705 11.2116-5.7284 4.3359-12.3587 7.755-19.7315 7.4644 1.8482 3.0387 1.4027 6.1894.1585 9.9245-9.9214-5.9602-15.4605-4.0498-19.1555-9.2955l-4.3767-6.2136z" fill="#eac102"/><path d="m504.0977 59.2272c15.1089-.1817 19.3803 1.7677 32.6861 3.2355" fill="none"/><path d="m504.5663 54.3179c9.5934-6.0026 16.3391-3.4828 22.4567-7.7702" fill="none"/><path d="m502.7873 64.4161c6.5421 6.4094 11.5489 4.1592 17.225 9.5822" fill="none"/><path d="m491.0898 51.2813-3.9894-6.4972c-3.3736-5.4942.0903-11.6639-2.0941-22.8533 3.6263-.1272 6.4959.3927 8.5518 3.2678 2.0519-7.7682 7.7902-14.2613 14.3895-17.7805 1.9616 6.7355 4.9647 12.8249 2.053 20.5234 3.1326-2.3331 7.0388-3.1699 10.4603-2.3078-6.7829 10.4423-5.3053 16.519-11.2309 21.4622l-6.4778 5.4039z" fill="#eac102"/><path d="m493.3535 48.9383c-3.0603-7.2776-.3392-14.3017-4.2524-22.4535" fill="none"/><path d="m501.3645 50.4393c7.7692-7.8954 7.3217-15.0861 13.062-20.9019" fill="none"/><path d="m497.5215 48.9867c4.9266-13.1903 3.7406-23.2591 8.2709-34.8472" fill="none"/><path d="m489.8025 52.9925c-6.507-7.2059-12.167-5.2071-18.702-11.1874" fill="none"/><path d="m488.2042 61.5319c-9.3414 3.7311-12.4249 1.4638-22.4216 7.3886" fill="none"/><path d="m487.0794 57.4494c-14.1337-3.8877-19.9613-1.2185-32.8597-3.5717" fill="none"/><path d="m485.8573 58.1086c0 5.5781 4.5219 10.1 10.1 10.1s10.1-4.5219 10.1-10.1-4.5219-10.1-10.1-10.1-10.1 4.5219-10.1 10.1z" fill="#ed1c24" fill-rule="evenodd"/><path d="m600.7579 71.7354c6.9071-9.8558 12.6261-16.1839 33.7421-18.0121-7.2242-10.9269-22.2693-14.0897-32.055-4.1188-.9257-2.7287-1.4965-3.6181-4.084-6.1389-2.3071 7.1161-12.5812 12.4927-8.5051 25.2347l4.0056 12.5219z" fill="#eac102"/><path d="m595.5708 79.187c-3.8096-6.8364-4.5595-10.5908-7.4141-14.3119-2.8499-3.715-7.5109-6.9787-10.8958-9.8962-1.4854 3.4273-2.3343 6.4215-1.6259 9.6984-4.8897-1.5425-9.9388.6844-14.5341 3.931 1.5709 5.8239 4.09 11.1833 8.6864 13.6053-2.4529 1.9555-3.5641 4.8397-4.4484 8.5183 0 0 10.5557-.8543 15.1514.2019 5.2482 1.2062 9.2341-1.0487 10.0958-1.8998z" fill="#eac102"/><path d="m596.681 77.3831c.6153-5.2111-1.1682-9.9124-.8501-14.0958.5819-7.6541 3.075-10.1759 2.7454-14.1846" fill="none"/><path d="m592.9702 83.6723c-8.2134-6.6819-15.7327-7.9014-25.62-13.5456" fill="none"/><path d="m594.3909 79.9715c-3.5924-6.0782-10.9851-9.4662-14.9751-18.9212" fill="none"/><path d="m591.8215 87.1097c-7.0653.9722-11.3499-3.1477-19.8024-.0606" fill="none"/><path d="m590.5861 89.034c1.3223.6355 2.7727 1.0058 4.3378 1.0058 5.5781 0 10.1-4.5219 10.1-10.1 0-3.4008-1.6898-6.3742-4.266-8.2044-5.0748 3.2253-9.3857 11.0399-10.1718 17.2986z" fill="#ed1c24" fill-rule="evenodd"/><path d="m376.238 58.2733 5.9561 5.6704c5.0807 4.837 10.1051 2.1442 22.1737 7.1856.4947-3.8079.279-6.9575-2.3269-9.7609 7.8194-.4714 14.0504-4.5216 19.1324-9.3824-5.0821-4.8598-11.3132-8.911-19.1324-9.3825 2.6058-2.8035 2.8215-5.9522 2.3269-9.7599-12.0687 5.0405-17.0921 2.3488-22.1737 7.1858l-5.9561 5.6694z" fill="#eac102"/><path d="m379.1448 51.9859h34.8042" fill="none"/><path d="m377.6347 55.9967c10.2044 6.3639 14.4016 4.4882 21.9439 9.7922" fill="none"/><path d="m377.6347 47.9752c10.2044-6.3639 14.4016-4.4883 21.9439-9.7922" fill="none"/><path d="m373.9865 44.3046c6.3263-10.2667 4.4611-14.4895 9.7328-22.0769" fill="none"/><path d="m380.1 51.9859c0 5.5781-4.5219 10.1-10.1 10.1s-10.1-4.5219-10.1-10.1 4.5219-10.1 10.1-10.1 10.1 4.5219 10.1 10.1z" fill="#ed1c24" fill-rule="evenodd"/><path d="m313.046 69.192c0 4.363-3.537 7.9-7.9 7.9s-7.9-3.537-7.9-7.9c0-4.3631 3.537-7.9 7.9-7.9 4.3631 0 7.9 3.5369 7.9 7.9z" fill="#e5e5e5" fill-rule="evenodd"/><path d="m199.7531 82.3266c0 4.363-3.537 7.9-7.9 7.9s-7.9-3.537-7.9-7.9c0-4.3631 3.537-7.9 7.9-7.9s7.9 3.5369 7.9 7.9z" fill="#e5e5e5" fill-rule="evenodd"/><path d="m426.954 69.192c0 4.363 3.537 7.9 7.9 7.9s7.9-3.537 7.9-7.9c0-4.3631-3.537-7.9-7.9-7.9-4.3631 0-7.9 3.5369-7.9 7.9z" fill="#e5e5e5" fill-rule="evenodd"/><path d="m540.2469 82.3266c0 4.363 3.537 7.9 7.9 7.9s7.9-3.537 7.9-7.9c0-4.3631-3.537-7.9-7.9-7.9s-7.9 3.5369-7.9 7.9z" fill="#e5e5e5" fill-rule="evenodd"/></g></g><g><path d="m270.5 855.7288c0-22.2465 8.3737-42.568 21.9541-58.761 3.9103-4.6624 7.9869-7.1081 5.2731-18.5212-.335-1.4091-.5827-3.4126-.5827-4.7209 0-12.0281 29.6056-23.2257 72.8555-23.2257s72.8555 11.1976 72.8555 23.2257c0 1.3083-.2476 3.3118-.5827 4.7209-2.7138 11.4131 1.3627 13.8588 5.2731 18.5212 13.5804 16.193 21.9541 36.5145 21.9541 58.761-.0001 51.7885-44.5476 93.7712-99.5 93.7712s-99.4999-41.9827-99.5-93.7712z" fill="#c87137" fill-rule="evenodd" stroke="#000" stroke-linecap="round" stroke-linejoin="round"/><path d="m436.5938 775.1126c0-8.9547-31.4942-18.3041-66.5939-18.3041-35.0996 0-66.5936 9.3494-66.5936 18.3041 0 8.9545 31.0046 18.3047 66.5936 18.3047 35.5893 0 66.5939-9.3502 66.5939-18.3047z" stroke="#000" stroke-linecap="round" stroke-linejoin="round"/><path d="m427.2821 778.646c-8.6773-6.0773-29.0123-10.9839-57.282-10.9839-28.2696 0-48.6048 4.9066-57.2822 10.9839 26.1794-6.3722 33.7415-7.3963 57.2822-7.3963s31.1026 1.0241 57.282 7.3963z" fill="#c87137" stroke="#c87137"/><path d="m436.6121 796.0852c-17.671 6.2834-39.0852 12.2671-66.6122 12.2671-27.5267 0-48.9407-5.9837-66.6121-12.2671 10.1467 5.4013 35.0773 15.6899 66.6121 15.6899 31.5349 0 56.4658-10.2886 66.6122-15.6899z" stroke="#000" stroke-linecap="round" stroke-linejoin="round"/><path d="m430.5 220.7124c0-17.4824 18.1414-39.7337 46.8398-39.7337 46.3516 0 69.2712 35.3953 80.6687 52.8327 12.6574-4.9217 22.8523-25.9519 20.8177-41.0436 35.5105 43.0078 10.5529 69.5252 10.5529 106.8355 0 24.9149 24.5777 37.0182 45.4347 37.0182 20.8471 0 38.7877-17.657 38.7877-38.2914 0-41.8405-87.0366-60.5381-53.5846-157.7226 7.5934 11.5223 15.8848 22.3418 25.7829 31.5439 2.7356-22.0053 17.1545-81.3453 59.1666-81.3453 18.0808 0 34.5338 11.9813 34.5338 28.6065 0 14.2722-8.3348 26.1352-20.6888 26.1352-14.2817 0-21.3641-6.9417-21.7959-19.6364-7.3969 4.9349-12.6971 17.2477-12.6971 26.2096 0 41.5775 55.1818 78.492 55.1818 138.1395 0 37.957-23.0623 67.4511-46.1765 80.6541 33.3879 5.1709 46.1765 30.6239 46.1765 50.634 0 21.6073-12.3794 35.6411-26.2217 44.3217 7.366 36.3716 9.9864 59.0596 9.9864 97.2621 0 63.5903-17.4469 147.859-81.5518 223.3603 16.7398 9.6067 28.2416 32.8727 28.2416 54.9307 0 34.1477-44.7387 48.3828-64.3388 48.3828 4.1764-4.6876 8.8823-14.4277 8.8823-22.077 0-9.5427-12.6197-18.1658-12.6197-28.585-19.2606 17.1533-42.8968 19.247-57.7397 20.1161-15.6344.9154-20.889 17.0621-12.5912 30.5459-22.7758 0-59.8491-19.6729-59.8491-51.7571 0-25.8405 21.6541-49.0869 40.9456-59.219-15.5298-5.5126-46.5939-24.6376-46.5939-59.385 0-43.9278 41.5531-75.3841 69.7039-68.4321-23.5116 74.4149 45.05 22.0751 76.0371 101.7829 58.5011-35.7293 78.1904-146.9923 78.1904-189.6634 0-33.922.7114-63.0891-3.0353-91.2562-20.518-.4831-46.6866-16.2617-48.8419-47.3943-42.922 14.4341-67.8316 44.4593-87.9474 75.5003 115.5636 51.4036 72.666 138.0711 47.1124 163.3232-26.463-37.1318-58.5733-109.9356-73.0576-164.3851 24.2427-48.1468 53.6985-90.7572 114.1998-116.6058-130.5776-25.8067-122.703-104.2642-137.4858-158.9503-2.4827-9.1843-21.2462-7.0674-21.2462 1.7815 0 18.3109-14.5586 23.5428-26.5958 23.5428-9.5212 0-22.5834-8.9756-22.5834-27.976z" fill="#008f4c" stroke="#000" stroke-linecap="round" stroke-linejoin="round"/><path d="m309.5 220.7124c0-17.4824-18.1414-39.7337-46.8398-39.7337-46.3516 0-69.2712 35.3953-80.6687 52.8327-12.6574-4.9217-22.8523-25.9519-20.8177-41.0436-35.5105 43.0078-10.5529 69.5252-10.5529 106.8355 0 24.9149-24.5777 37.0182-45.4347 37.0182-20.8471 0-38.7877-17.657-38.7877-38.2914 0-41.8405 87.0366-60.5381 53.5846-157.7226-7.5934 11.5223-15.8848 22.3418-25.7829 31.5439-2.7356-22.0053-17.1545-81.3453-59.1666-81.3453-18.0808 0-34.5338 11.9813-34.5338 28.6065 0 14.2722 8.3348 26.1352 20.6888 26.1352 14.2817 0 21.3641-6.9417 21.7959-19.6364 7.3969 4.9349 12.6971 17.2477 12.6971 26.2096 0 41.5775-55.1818 78.492-55.1818 138.1395 0 37.957 23.0623 67.4511 46.1765 80.6541-33.3879 5.1709-46.1765 30.6239-46.1765 50.634 0 21.6073 12.3793 35.6411 26.2216 44.3217-7.366 36.3716-9.9864 59.0596-9.9864 97.2621 0 63.5903 17.4469 147.859 81.5518 223.3603-16.7398 9.6067-28.2416 32.8727-28.2416 54.9307 0 34.1477 44.7387 48.3828 64.3388 48.3828-4.1764-4.6876-8.8823-14.4277-8.8823-22.077 0-9.5427 12.6197-18.1658 12.6197-28.585 19.2606 17.1533 42.8968 19.247 57.7397 20.1161 15.6344.9154 20.889 17.0621 12.5912 30.5459 22.7758 0 59.8491-19.6729 59.8491-51.7571 0-25.8405-21.6541-49.0869-40.9456-59.219 15.5298-5.5126 46.5939-24.6376 46.5939-59.385 0-43.9278-41.5531-75.3841-69.7039-68.4321 23.5116 74.4149-45.05 22.0751-76.0371 101.7829-58.5011-35.7293-78.1904-146.9923-78.1904-189.6634 0-33.922-.7113-63.0891 3.0353-91.2562 20.5179-.4831 46.6866-16.2617 48.8419-47.3943 42.922 14.4341 67.8316 44.4593 87.9474 75.5003-115.5636 51.4036-72.666 138.0711-47.1124 163.3232 26.463-37.1318 58.5733-109.9356 73.0576-164.3851-24.2427-48.1468-53.6985-90.7572-114.1998-116.6058 130.5776-25.8067 122.703-104.2642 137.4858-158.9503 2.4827-9.1843 21.2462-7.0674 21.2462 1.7815 0 18.3109 14.5586 23.5428 26.5958 23.5428 9.5212 0 22.5834-8.9756 22.5834-27.976z" fill="#008f4c" stroke="#000" stroke-linecap="round" stroke-linejoin="round"/></g><g stroke="#000" stroke-linecap="round" stroke-linejoin="round"><path d="m70.5 480 299.5 299.5 299.5-299.5-299.5-299.5z" fill="#eac102"/><path d="m517.6789 615.9809v-145.9809h59.2716v81.556z" fill="#ed1c24"/><path d="m458.4073 671.6914v-201.6914h-59.2715v264.249z" fill="#ed1c24"/><path d="m281.5927 671.6914v-201.6914h59.2715v264.249z" fill="#ed1c24"/><path d="m222.3211 615.9809v-145.9809h-59.2716v81.556z" fill="#ed1c24"/><path d="m70.5 480h599l-299.5-299.5z" fill="#e5e5e5"/><path d="m70.5 480 299.5 299.5 299.5-299.5-299.5-299.5zm33.278 0 266.722 266.722 266.722-266.722-266.722-266.722z" fill="#0071bc" fill-rule="evenodd"/></g><g stroke="#000" stroke-linecap="round" stroke-linejoin="round"><path d="m369.7472 251a50.4199 50.4318 0 0 0 -50.2679 50.4304 50.4199 50.4318 0 0 0 50.4192 50.4324 50.4199 50.4318 0 0 0 1.8784-.0354 38.3877 38.3967 0 0 0 -1.3106 9.9482 38.3877 38.3967 0 0 0 38.3881 38.3975 38.3877 38.3967 0 0 0 38.3862-38.3975 38.3877 38.3967 0 0 0 -32.1948-37.8926 50.4199 50.4318 0 0 0 5.2718-22.4526 50.4199 50.4318 0 0 0 -50.4192-50.4304 50.4199 50.4318 0 0 0 -.1513 0z" fill="#eac102" fill-rule="evenodd"/><path d="m368.5941 272.959c-34.0422 0-23.4117 37.3914-27.2252 42.105-3.3919 4.1926-5.4171 10.4707-4.8656 17.338-11.083-.2356-26.2913 40.8896-29.7314 55.9169-2.9634 12.9447-6.8857 23.9664 2.4712 28.7627-13.7676 11.0715-13.098 41.1814-11.9067 62.9184h160.404c1.5917-18.6365-4.9898-35.933-18.8501-52.1916 1.7003-16.4953 8.9734-30.8196 2.7752-42.4321-5.3748-10.07-12.8955-18.9545-17.9615-32.7481-8.4688-23.0587-23.4192-22.6873-25.2727-39.3618-3.2431-29.1764-13.9868-40.3073-29.8373-40.3073z" fill="#0071bc"/><path d="m346.8152 391.4601c3.9168.3927-.8452 10.1711-2.0067 19.9104-1.1909 9.9869 1.0404 19.9447-4.0188 19.7552" fill="none"/><path d="m380.2655 422.6346c-5.101-5.9053-17.3205-11.3031-23.524-12.9251-6.3755-1.667-12.2188 1.2759-12.1406 8.2384.048 4.2326-1.7676 10.6668.5674 18.2674 1.3081 4.2577-4.8342 3.4801-8.3836 3.825-3.451.3353-5.4594 4.3225.1471 5.4432 5.487 1.0968 16.434 3.9522 15.5904-2.0596-1.1316-8.0648 3.8714-13.3698 3.2567-19.2971 3.7729 6.0763 8.3298 6.1217 11.594 9.1211z" fill="#ffb380"/><path d="m410.574 376.9989c-.4163 4.8739 1.7958 7.5633 3.1333 13.4639 3.0176 13.313-13.7731 25.5647-15.8846 33.542-5.0981 19.2607-13.4728 15.6265-25.886 13.8287-3.9396 8.619-9.3448 12.4552-17.9437 17.9479-3.4396 2.1971-5.0817 9.9237-12.0605 11.7691-7.6291 2.0174-7.6914-5.3345-3.5299-6.7672 3.479-1.1977 6.6116-4.8607 7.6481-7.3557 3.9855-9.5937 12.2966-21.5734 13.8255-26.1863 2.7761-8.3761 8.8941-7.709 13.7938-8.2384-6.6206-8.5633 10.8553-26.0463 17.0929-31.7766 3.2033-2.9428 5.2949-4.6572 7.39-10.1594z" fill="#ffb380"/><path d="m399.5549 397.8427c-4.5647.2683-11.5876-2.065-16.2712-4.4939-3.8111-1.9765-8.8149-11.6953-12.5334-14.1148-2.4566-1.5984-3.5703-3.7282-4.3952-5.5018-.4666-1.0033-.3554-2.5687.6657-2.5292-1.246-1.3982-.1505-4.5128 1.0231-3.9907.0331-1.3871.15-2.9167 1.9376-2.8718 1.2405.0314-.4514 3.3342 3.6139 7.0096.5811-1.5805 2.0272-5.0682 3.3314-4.0423 1.4436 1.1355-1.5143 5.2889.3067 6.7906 4.6227 3.8121 9.0215 7.2907 11.1987 9.1985 4.7178.1308 8.1324.0967 13.7354 1.2698" fill="#ffb380"/><path d="m399.9477 380.7614c-10.7035-2.1987-10.358-13.7471-7.3403-21.5906-.8534-11.8604 7.0364-14.7517 16.178-13.3812 10.8535 1.6271 13.1903 13.5564 10.2433 24.1094-2.0208 7.236-12.1017 12.2961-19.081 10.8624z" fill="#ffb380"/><path d="m394.2556 345.8484c7.9609-6.7937 22.2855-4.0084 27.6344 3.4814 7.101 9.943 1.4 24.3671-2.3274 27.5352-2.8355 2.41-7.0538 1.7477-7.9316-2.3454 2.9452-1.1922 5.0347-6.0892 1.5628-7.5621-2.258-2.5528 2.7091-8.9015-.7659-12.6097-2.1639-2.3092-5.8004-2.8422-7.7927-1.9522-2.408 1.0757-6.5372 3.4492-6.1853-1.7851-7.4176 4.7933-6.2558-3.0029-4.1945-4.7621z"/><path d="m400.5902 365.4012c-2.3437 3.3646-3.0396 5.3335.0506 5.4123" fill="none"/><path d="m397.1497 373.2345c1.1353.4223 3.2379 1.074 4.7982 1.1206" fill="none"/><path d="m394.8549 360.0044c1.3626-.4602 2.9261-.8086 4.6391.5536" fill="none"/><path d="m405.9043 361.6962c1.9557-.8006 3.1189-.0606 4.4805.2939" fill="none"/><path d="m397.5815 362.7993c-.0523.7738-.4644 1.3763-.9211 1.3456-.4566-.0307-.7846-.683-.7327-1.4568.0523-.7738.4644-1.3763.9211-1.3456.4567.0308.7847.683.7327 1.4568" fill-rule="evenodd"/><path d="m408.2739 365.1475c-.0576.8598-.5228 1.5287-1.0385 1.4941-.5158-.0347-.8871-.7599-.8293-1.6197.0575-.8598.5228-1.5287 1.0386-1.494.5157.0347.887.7598.8292 1.6197" fill-rule="evenodd"/><path d="m373.6701 419.0029c2.1469-.054 4.2933.1578 6.4399.2942" fill="#008f4c"/><path d="m374.668 413.6332c.3836.6091.8414.6315 1.3238.2942" fill="#008f4c"/><path d="m387.0132 328.6034c9.3144-5.1552 3.1343-14.4184 2.754-23.189-.5364-12.37-3.3616-21.56-14.1441-27.4626-6.6199-3.6239-17.4416-2.5062-24.4721 5.4699-5.9309 6.7285-2.6038 19.7091-2.5681 29.8987.0235 6.7646-2.8134 11.3789-.1924 21.5328 2.6922 10.4302 26.7642.3135 38.6227-6.2497z"/><path d="m363.261 284.3688c-6.082-1.897-12.5077 4.2615-10.4016 15.7065-.2611 8.7709 3.0605 19.6586 9.1525 22.9576.0183 3.8053-15.6004 4.6736-13.6214 11.8202.9652 3.4857 2.9538 6.8633 8.4952 9.6695 5.6236 2.8479 1.298 8.0248 3.4864 13.4723 6.0132-16.3398 21.4606-14.4436 22.817-22.6249.5245-3.1639.8695-4.9328 3.8241-6.7667-3.8976 2.1093-7.4599-6.552-9.3652-9.045 2.4541-2.4573 4.2614-6.6156 4.5244-10.4511 1.6284-3.0072 1.8284-11.9276-1.6811-10.4837-.3241-11.4209-7.8249-18.7773-17.2304-14.2547z" fill="#ffb380"/><path d="m377.6481 319.5584c-1.8856 1.773-5.1944 5.621-10.7773 4.6961" fill="none"/><path d="m355.3562 297.8678c1.6665-1.3081 3.5227-2.1885 5.7377-2.7305" fill="none"/><path d="m368.402 294.1432c1.4511-.4305 5.5867.023 7.0816 1.1849" fill="none"/><path d="m355.7498 300.5953c1.6175 1.0029 5.6138 1.5207 6.5182-1.3136-1.36-1.2041-5.2338-.4135-6.5182 1.3136z" fill="#e5e5e5"/><path d="m359.9139 300.0815c.0471.5234-.2682.9795-.704 1.0187-.4359.0392-.8274-.3533-.8745-.8768-.0471-.5234.2682-.9795.7041-1.0187.4357-.0392.8274.3533.8744.8768z"/><path d="m375.4088 297.933c-1.287 1.4023-4.9954 2.9794-6.6308.4945.9847-1.5266 4.9281-1.8108 6.6308-.4945z" fill="#e5e5e5"/><path d="m370.9923 298.3987c.0471.5234.4387.916.8745.8768.4359-.0392.7511-.4953.704-1.0187s-.4386-.916-.8744-.8768-.7511.4953-.7041 1.0187z"/><path d="m366.1374 313.8724c-.744.5644-1.2182 1.2136-3.1018 1.5229 2.5357.5665 7.3268.0522 8.7097-.8768-1.1388.1568-2.3871-.0307-3.6525-.8897-.4712.4723-1.0348.7446-1.9554.2436z" fill="none"/><path d="m365.1303 301.6201c.1719 2.4956.0697 5.2504-.1108 7.6093-.1869 2.4371 2.6005 2.2515 2.7245.6008" fill="none"/><path d="m364.941 308.2489c-2.0517 1.308-1.3864 3.2926.17 2.5433" fill="none"/><path d="m367.6349 310.5842c.5162.3992 1.2393.2559 1.6803-.2146.694-.7411-.0972-1.2674-.5502-1.8904" fill="none"/><path d="m309.2432 417.0816c8.541 4.492 13.0662 13.1849 31.5465 14.0441-5.4746-.2978-1.3276-38.2634 6.0255-39.6656-8.1985-.5959-14.2196-.4336-20.1712-2.8697" fill="none"/><path d="m357.0276 389.594c3.7496-3.1895 8.9146-5.791 9.4504-4.8685 1.6198 2.7887-4.3148 4.5553-3.2489 6.139 7.6165.2977 11.997-3.6117 12.9848-1.6919.693 1.3466-.5333 2.3923-1.8071 2.5419 1.5742.7136 1.0716 2.8067-1.9182 4.1876 1.811 1.398-.4868 3.0827-2.9787 4.0065.7608 1.6154-1.4083 3.416-3.9355 4.3563-2.2745.8464-3.71 1.1035-5.8544 1.1643-6.7767.1921-15.3593-.4861-19.7646.4842.6463-3.7768 2.2589-8.8123 3.5843-11.116 5.3712-1.5784 9.8308-2.0926 13.4878-5.2034z" fill="#ffb380"/><path d="m374.4113 391.7175c-1.2455.5149-4.2994 1.7779-5.758 2.0504" fill="none"/><path d="m372.4929 395.905c-.9541.3673-3.5101 1.1697-4.8068 1.2406" fill="none"/><path d="m369.5139 399.9114c-1.2567.3354-2.6814.7756-3.8663.8862" fill="none"/><path d="m396.7601 418.0661c-2.7899 1.1972-8.3941 2.529-7.0562 4.7228 1.3537 2.2192 7.6425-2.4231 8.5173-.5303 1.0561 2.2846-11.1468 4.6326-10.8278 6.7109.2345 1.5277 2.2678 1.362 4.1752 1.0402-.5955 1.5916 1.3293 2.7697 4.0542 2.1069-1.1568.6856.2721 2.6339 3.1241 1.6301-.5522 1.2327.6402 2.8552 6.1704-1.0169 1.5852-1.11 5.2089-4.4759 8.0399-8.5661 2.4701-3.5686 4.4695-6.1106 7.3842-8.9195-4.8901-1.0921-9.6368-1.7186-13.4154-1.4756-1.7895 1.5539-3.9506 3.3433-4.8536 3.169-1.7572-.339-3.6371.4097-5.3122 1.1285z" fill="#ffb380"/><path d="m398.747 433.7466c.8491-.3627 3.7322-2.6171 4.5998-3.1389" fill="#ed1c24"/><path d="m395.6229 432.1166c1.0521-.2576 3.6568-2.1378 4.6969-2.7102" fill="#ed1c24"/><path d="m391.5687 430.0097c1.4047-.3664 4.1275-1.5848 6.0983-2.5466" fill="#ed1c24"/><path d="m412.2117 425.2551c6.6952-1.1997 25.801 11.0352 26.6787 2.5532 1.0508-10.1545-28.9188-15.942-33.6274-13.6298 4.7729-5.7123 8.4044-14.1333 12.478-21.1112" fill="none"/><path d="m336.05 348.0512c2.838 10.2302 6.0759 18.8604 11.4246 19.0456" fill="none"/><path d="m329.7598 429.3541c-10.977 8.5237-20.3281 12.5459-20.3672 26.7806" fill="none"/><path d="m318.8267 423.8611c-5.4194 2.8904-10.0415 7.6403-10.3863 11.7997" fill="none"/><path d="m381.7486 451.8495c-8.6349-1.1534-17.7871.8778-31.499 8.6111" fill="none"/><path d="m336.5034 332.402c.6297 4.7205 2.4003 9.0874 4.4188 12.4746" fill="#008f4c"/><path d="m415.6129 436.1752c15.994 6.9202 17.0099 12.2381 19.9562 28.4058" fill="none"/></g><path d="m71.5 480 298.5 298.5 298.5-298.5-298.5-298.5z" fill="none" stroke="#000" stroke-linecap="round" stroke-linejoin="round" stroke-width="3"/></svg>