<?xml version="1.0" encoding="utf-8"?><!DOCTYPE svg PUBLIC "-//W3C//DTD SVG 1.1//EN" "http://www.w3.org/Graphics/SVG/1.1/DTD/svg11.dtd"><svg viewBox="0 0 500 640" xmlns="http://www.w3.org/2000/svg"><g stroke="#000" stroke-linecap="round" stroke-linejoin="round"><path d="m.5.5v474.25c0 68.898 55.852 124.75 124.75 124.75h62.375c27.289 0 50.92 17.163 62.375 40 11.455-22.837 35.086-40 62.375-40h62.375c68.898 0 124.75-55.852 124.75-124.75v-474.25z" fill="#e5e5e5"/><path d="m.5 439.767v34.983c0 1.657.0297 3.3087.0938 4.95h498.8125c.064-1.6413.0937-3.2931.0937-4.95v-34.983z" fill="#008f4c" fill-rule="evenodd"/></g><g stroke="#000"><g stroke-linecap="round" stroke-linejoin="round"><path d="m130.5948 507.0006c-.9445 3.507-1.4505 8.1605-1.5179 13.9604h-3.4911v-4.0465c-.0001-2.6302-.3542-4.4174-1.0625-5.3616-.7084-.9441-2.5551-1.9473-5.5402-3.0096-2.9852-1.0621-6.1305-1.5932-9.436-1.5933-5.3969.0001-9.6385 1.3658-12.7248 4.0971-3.0863 2.7314-4.6295 6.2384-4.6295 10.5209 0 2.6977.6324 5.016 1.8973 6.9549 1.2649 1.939 2.9683 3.3384 5.1101 4.1982 2.1418.8599 6.687 1.6102 13.6355 2.2508 6.9484.6745 11.6453 1.5681 14.0908 2.6808 2.4454 1.1128 4.4018 2.9 5.8691 5.3616 1.4672 2.4616 2.2008 5.3785 2.2009 8.7505-.0001 6.7779-2.8334 12.6115-8.5 17.501-5.6667 4.8895-13.2223 7.3342-22.6668 7.3342-3.2381 0-6.5015-.3288-9.7902-.9863-3.2887-.6576-6.6027-1.627-9.942-2.9084.6071-4.0465.8939-9.2395.8601-15.579h3.4405v2.529c0 3.2709.1686 5.2942.506 6.0697.3373.7756 1.13 1.6017 2.378 2.4785 1.8552 1.3151 4.0645 2.3183 6.628 3.0096s5.3294 1.0369 8.2977 1.0369c6.375 0 11.2996-1.5006 14.7739-4.5017 3.4742-3.0011 5.2113-6.8116 5.2113-11.4313 0-2.6976-.5903-4.9822-1.7708-6.8537-1.1806-1.8715-2.8334-3.2624-4.9584-4.1729-2.125-.9104-6.0546-1.6017-11.7887-2.0738-7.6231-.6069-12.8007-1.5174-15.5328-2.7314-2.7322-1.2139-4.874-3.1276-6.4256-5.741-1.5516-2.6133-2.3274-5.8589-2.3274-9.7369 0-6.5755 2.378-11.9539 7.134-16.1353 4.756-4.1813 11.3334-6.272 19.7322-6.2721 3.373.0001 6.7545.3626 10.1444 1.0875 3.3899.7251 6.7882 1.8294 10.195 3.3131z"/><path d="m165.1125 541.1453v12.3923l.0506 7.1319c0 4.4511.0506 7.7052.1518 9.7621 4.9246.3709 10.2034.5564 15.8364.5564 3.7778 0 6.9484-.1686 9.5119-.5058 1.6527-.2023 3.4067-.6407 5.2619-1.3151.8432-2.9674 1.7033-6.6767 2.5804-11.1278h3.3899c-.9108 7.3848-1.3661 12.3081-1.3661 14.7697l.1012 2.2761c-3.879.3709-7.6906.5564-11.4346.5564l-7.9435-.1517c-8.7699-.2361-15.2124-.3541-19.3275-.3541-3.9465 0-9.1915.118-15.7352.3541v-3.1866h1.5684c2.9345 0 4.7813-.2866 5.5402-.8599.7589-.5732 1.2649-1.9221 1.5179-4.0465s.3795-6.8116.3795-14.0615v-27.769c0-4.5522-.1096-8.2784-.3289-11.1784-.2193-2.8999-.4554-4.6281-.7083-5.1846-.253-.5563-.6156-.9863-1.0878-1.2898-.4722-.3034-1.9226-.5732-4.3512-.8093l-3.8959-.4047v-3.136h5.4643l5.3631.1517c3.002.1012 5.2788.1518 6.8304.1518l19.4287-.2529 9.2084-.0506c3.1369-.0336 6.3075.1012 9.5119.4046-1.2818 3.9791-1.9902 9.1552-2.125 15.5284h-3.4405c-.0001-3.7092-.1856-6.7947-.5566-9.2563-3.9802-1.4836-8.8711-2.2255-14.6727-2.2256-4.6211.0001-9.4614.2024-14.5209.607.0337 3.1698 0 6.3396-.1012 9.5092l-.1012 7.7895v10.2679c3.3393.2024 6.2907.3035 8.8542.3035 8.0278 0 12.5729-.2782 13.6355-.8346 1.0625-.5564 1.5937-2.2845 1.5938-5.1846v-3.2878h3.4405c-.2362 5.0919-.3542 9.1552-.3542 12.19-.0001 3.2035.118 6.9802.3542 11.3301h-3.4405v-2.9337c-.0001-3.2372-.6325-5.2182-1.8973-5.9433-1.2649-.725-5.7258-1.0875-13.3825-1.0875-2.8334 0-5.7679.1349-8.8036.4046z"/><path d="m232.1472 570.5303c3.3055.1686 6.5268.2529 9.6637.2529 6.3413 0 11.2996-.1686 14.8751-.5058 2.496-.2698 5.0764-.7587 7.7411-1.4669l3.0357-11.8865h3.2887c-.8433 6.3732-1.5011 12.3249-1.9732 17.8551-3.0358.5058-7.1846.7587-12.4465.7587l-24.0834-.4047c-3.2381 0-8.2808.1855-15.128.5564v-2.6808c2.6984-1.1802 4.2922-2.4447 4.7813-3.7936.4891-1.3488.7336-6.6935.7336-16.0342v-27.8196c0-10.1161-.2446-15.7559-.7336-16.9193-.4891-1.1633-1.8636-1.745-4.1235-1.745h-5.5149v-3.1866c8.0278.2361 13.3572.3541 15.9882.3541 3.5079.0001 8.2639-.118 14.2679-.3541v3.1866h-6.2738c-1.7877.0001-2.9177.5143-3.3899 1.5427-.4723 1.0285-.7084 5.3026-.7083 12.8223v32.2201l.1518 14.2638z"/><path d="m303.8452 575.993c-1.5179-4.5186-3.0695-8.7505-4.6548-12.6958l-18.1132-45.27c-2.5973-6.5417-4.1151-10.1161-4.5536-10.7232-.4385-.6069-1.8889-.9104-4.3512-.9105h-2.0744v-3.1866c5.2956.2361 9.7986.3542 13.509.3541 3.9127.0001 8.6012-.1179 14.0655-.3541v3.6418h-5.0089c-1.7203.0001-2.8334.1602-3.3393.4805-.506.3204-.759.8178-.7589 1.4921 0 .4384.0843.9274.253 1.4669l6.5774 17.3493 13.6608 34.8503 13.3066-33.2317c4.4861-11.2964 6.7291-17.9056 6.7292-19.8277-.0001-1.5511-.9276-2.3604-2.7828-2.4279l-2.0744-.1517-4.3512-.4552v-3.1866c4.4861.2361 8.1795.3541 11.0804.3541 3.0357.0001 6.8472-.118 11.4346-.3541v3.1866h-2.0238c-1.6191.0001-2.7912.3794-3.5164 1.1381-.7253.7588-2.0323 3.448-3.9212 8.0677l-17.0507 41.6282c-3.2044 7.8232-5.4812 14.0784-6.8304 18.7656z"/><path d="m391.1107 551.5877h-29.2442l-3.4405 8.1435c-2.26 5.3953-3.3899 8.6999-3.3899 9.9139 0 .7756.2108 1.332.6324 1.6692s1.4926.607 3.2128.8093l4.8572.5564v3.1866c-3.2381-.2361-6.881-.3541-10.9286-.3541-4.8572 0-9.1241.118-12.8006.3541v-3.1866l1.5179-.0506c2.3611-.0674 3.8874-.3119 4.5789-.7334s1.4251-1.4584 2.2009-3.1107c2.3948-4.8558 4.8403-10.0993 7.3363-15.7307l13.9137-31.512c3.7103-8.3627 6.2401-14.4324 7.5893-18.2092h3.4405l25.6013 59.5338c1.7202 4.0465 2.867 6.4828 3.4405 7.309.5733.8262 1.2311 1.4163 1.9732 1.7703.742.3541 2.4117.5986 5.0089.7334v3.1866c-4.385-.2361-8.5676-.3541-12.5477-.3541-3.7104 0-8.6519.118-14.8245.3541v-3.1866l5.0089-.3035c1.7877-.1349 2.8502-.3204 3.1875-.5564.5059-.3709.7589-.843.7589-1.4163-.0001-.607-.506-2.1918-1.5179-4.7546zm-27.3721-4.1476h25.5001l-12.7501-30.4498z"/></g><g><path d="m97.7074 196.6179c-24.8437 18.478-28.6858 52.0959-25.7131 79.852 34.5018-29.2255 14.0662-49.6815 25.7131-79.852z" fill="#008f4c" fill-rule="evenodd" stroke-linecap="round" stroke-linejoin="round"/><path d="m97.7074 196.6179c-14.3388 18.4506-13.9457 47.7758-29.4699 82.7125l1.6663 4.4904c19.454-48.6524 14.9252-68.858 27.8036-87.2029z" fill="#008f4c" fill-rule="evenodd" stroke-linecap="round" stroke-linejoin="round"/><path d="m82.9077 413.0941c5.5504.5751 12.1392.7491 18.4203 1.7723 6.3092 1.0283 9.1193.3378 13.8256.9573 7.7003 1.0116 23.981-11.4039 46.1359 8.2732-19.9731 29.1898-59.3063 25.5112-78.3818-11.0027z" fill="#008f4c" fill-rule="evenodd" stroke-linecap="round" stroke-linejoin="round"/><path d="m82.9077 413.0941c22.8655 9.02 28.3452 22.2183 74.7224 8.2952 3.7894-1.1391 7.5978 1.3084 10.5105.492l2.9241 3.0106c-3.1743.7965-8.3408-1.2032-11.1738-.4338-52.8431 14.3328-51.4131.7035-76.983-11.3621z" fill="#008f4c" fill-rule="evenodd" stroke-linecap="round" stroke-linejoin="round"/><path d="m147.2683 380.2683c1.9418 3.5872 1.5942 7.1306-.7764 7.9142-2.3704.7836-5.8658-1.4879-7.8072-5.0731-1.9416-3.5872-1.594-7.1306.7764-7.9142 2.3704-.7855 5.866 1.4879 7.8072 5.0731z" fill="#ed1c24" stroke-linecap="round" stroke-linejoin="round"/><path d="m144.5942 386.7783c5.4374 6.7252 2.8701 14.9228.8289 19.3179l3.5161 2.6291c1.7348-6.5783 4.0434-15.5978-1.6412-23.5765-1.0447-.402-2.5648 1.0363-2.7038 1.6294z" fill="#008f4c" fill-rule="evenodd" stroke-linecap="round" stroke-linejoin="round"/><path d="m146.9568 408.703 2.4604 3.875c-6.6177 1.2949-12.8432 1.4866-20.3338-4.7903l1.9968-1.62c3.4327 2.9201 11.3934 4.2878 15.8767 2.5353z" fill="#008f4c" fill-rule="evenodd" stroke-linecap="round" stroke-linejoin="round"/><path d="m126.3635 410.6548c3.4811 2.0134 6.9307 1.6717 7.7045-.7653.7745-2.4312-1.4197-6.0332-4.9008-8.0466-3.481-2.0115-6.9307-1.6717-7.7045.7653-.7742 2.4331 1.4201 6.0351 4.9008 8.0467z" fill="#ed1c24" stroke-linecap="round" stroke-linejoin="round"/><path d="m132.1086 390.624c2.1773 2.6565 5.7702 4.1206 8.025 3.2716 2.255-.8491 2.318-3.6909.1409-6.3454-2.1771-2.6565-5.77-4.1206-8.025-3.2716-2.2548.849-2.3178 3.6909-.1409 6.3454z" fill="#ed1c24" stroke-linecap="round" stroke-linejoin="round"/><path d="m148.0289 410.3483c-3.9931-5.4049-7.2536-11.5823-10.4567-17.8222.4046-.4676 1.8951-1.4961 2.5586-1.1123 3.8434 7.2214 7.6994 13.7086 12.4344 19.6804l-4.5361-.744z" fill="#008f4c" fill-rule="evenodd" stroke-linecap="round" stroke-linejoin="round"/><path d="m188.3956 432.9232c-21.8647 23.8666-44.0589-1.4513-70.6061-15.5855 25.148-1.4077 59.5282-18.633 70.6061 15.5855z" fill="#008f4c" fill-rule="evenodd" stroke-linecap="round" stroke-linejoin="round"/><path d="m200.4926 432.7727c-26.1214-9.6974-64.5351-13.4246-82.703-15.435 25.086 7.9481 60.6822 11.4569 82.5646 18.7689" fill="#008f4c" fill-rule="evenodd" stroke-linecap="round" stroke-linejoin="round"/><path d="m62.55 120.0936c.0262 6.6255.4201 14.4364.1819 21.9745-.2392 7.5713.477 10.8211.4046 16.4529-.1189 9.2155 9.2973 23.1077-3.0614 51.408-22.5011-20.5059-22.1968-63.3794 2.475-89.8355z" fill="#008f4c" fill-rule="evenodd" stroke-linecap="round" stroke-linejoin="round"/><path d="m62.55 120.0936c-6.6021 28.7145-11.9197 33.6476-.2202 89.2575.9278 4.4089-.1729 9.1256.6431 12.4818l-1.9273 3.7804c-.8207-3.6692-.0935-8.8726-.8189-12.1696-14.4702-65.7388-6.0865-65.7185 2.3238-93.3498z" fill="#008f4c" fill-rule="evenodd" stroke-linecap="round" stroke-linejoin="round"/><path d="m77.7488 193.2682c27.0542 6.7522 31.0132-27.0449 43.4106-54.2189-18.7628 13.6019-51.673 19.6406-43.4106 54.2189z" fill="#008f4c" fill-rule="evenodd" stroke-linecap="round" stroke-linejoin="round"/><path d="m68.1204 201.3074c12.8997-19.1092 34.9593-42.287 53.0391-62.2581-17.5344 24.5696-38.4022 46.5646-50.6795 65.4046" fill="#008f4c" fill-rule="evenodd" stroke-linecap="round" stroke-linejoin="round"/><path d="m79.7079 158.3187c1.5148-15.753-2.4468-21.7804-3.7145-30.3747-2.0995-14.2307-3.0123-27.6222 3.3367-47.8504 16.7063 23.7492 31.8221 52.7931.3777 78.2251z" fill="#008f4c" fill-rule="evenodd" stroke-linecap="round" stroke-linejoin="round"/><path d="m73.2168 172.3405c10.0532-18.1725 12.7474-47.7876 6.1134-92.2469 7.933 24.958 10.3767 59.2201-1.4409 91.3479l-4.6727.899z" fill="#008f4c" fill-rule="evenodd" stroke-linecap="round" stroke-linejoin="round"/><path d="m154.4653 44.6333c-3.2254 5.1033-6.6371 11.2506-10.5955 16.9601-3.9765 5.7349-4.8003 8.4917-7.6444 12.7956-4.6534 7.0424-1.3335 21.1112-28.544 38.4235-14.164-23.8625 7.2182-56.7159 46.7839-68.1792z" fill="#008f4c" fill-rule="evenodd" stroke-linecap="round" stroke-linejoin="round"/><path d="m101.0237 125.2194c.918-3.1166 4.2918-6.8457 5.0947-9.6512 15.435-53.9297 22.0788-47.3441 48.3469-70.9348-15.2556 18.2464-31.619 19.907-43.1351 65.8424-.9411 3.7535-4.1831 7.9464-4.9536 10.8211" fill="#008f4c" fill-rule="evenodd" stroke-linecap="round" stroke-linejoin="round"/><path d="m246.6243 439.7446c-26.1098-9.0195-47.0014-10.1322-69.3209-20.0376-65.5741-29.102-111.4707-96.3534-111.4707-174.7184 0-69.5493 36.1511-129.2516 90.1248-162.3938l-2.3196-5.1819c-56.1056 34.3944-94.7883 95.3746-94.7883 167.5757 0 81.4298 46.7325 153.3165 114.9856 183.4559 23.0607 10.1832 42.423 11.7022 70.1408 21.5416z" fill="#008f4c"/><path d="m48.1539 363.578c6.014 2.4286 13.2304 4.7683 19.9791 7.9178 6.7788 3.1622 9.9737 3.3384 15.0526 5.5392 8.3107 3.6016 24.1832-4.7969 45.5256 23.5485-26.4282 24.7936-65.179 8.397-80.5572-37.0055z" fill="#008f4c" fill-rule="evenodd" stroke-linecap="round" stroke-linejoin="round"/><path d="m143.2631 405.0235c-3.6115-.183-8.0749-3.1685-11.3149-3.3501-64.6239-3.6148-56.2338-15.0858-83.7943-38.0954 24.7024 18.8704 26.9944 31.7779 81.6757 34.6373 4.3354.227 7.5914 1.4643 10.68 2.6216" fill="#008f4c" fill-rule="evenodd" stroke-linecap="round" stroke-linejoin="round"/><path d="m125.2214 381.7712c21.3311-24.3573-5.0894-43.6588-21.0532-68.5493.755 25.1872-13.1118 61.2399 21.0532 68.5493z" fill="#008f4c" fill-rule="evenodd" stroke-linecap="round" stroke-linejoin="round"/><path d="m126.9807 394.8992c-8.8166-21.7442-19.1377-60.7816-22.8891-81.7622 10.7256 31.1573 17.817 60.6264 26.7629 81.6133" fill="#008f4c" fill-rule="evenodd" stroke-linecap="round" stroke-linejoin="round"/><path d="m96.6637 368.2301c-9.5382-.201-12.5023 4.5979-21.8932-1.1178-10.147-6.1751-30.083-19.0572-49.0205-21.31 14.868-8.2738 39.7329-18.4957 50.117-7.9553 7.8567 7.9748 11.216 16.5067 20.7967 30.383z" fill="#008f4c" fill-rule="evenodd" stroke-linecap="round" stroke-linejoin="round"/><path d="m102.6564 369.4089c-19.9367-.4621-37.2588-31.0793-76.9064-23.6066 39.6348-11.9146 52.4212 16.2016 77.5219 19.6226" fill="#008f4c" fill-rule="evenodd" stroke-linecap="round" stroke-linejoin="round"/><path d="m96.3955 260.3041c-27.4633 25.6625-21.3811 56.4396-7.7135 78.9441 20.7966-35.9228 2.2891-48.5584 7.7135-78.9441z" fill="#008f4c" fill-rule="evenodd" stroke-linecap="round" stroke-linejoin="round"/><path d="m88.3407 344.7032c9.3684-44.6688-2.7919-62.9237 8.0548-84.3991-14.7012 19.74-2.2771 38.981-10.6748 80.0301" fill="#008f4c" fill-rule="evenodd" stroke-linecap="round" stroke-linejoin="round"/><path d="m57.6917 305.6959c1.5416 3.7801 4.4654 5.68 6.5305 4.2438 2.0651-1.4381 2.4896-5.6682.948-9.4484-1.5416-3.7821-4.4653-5.6819-6.5304-4.2438-2.0653 1.4361-2.4896 5.6663-.9482 9.4483z" fill="#ed1c24" stroke-linecap="round" stroke-linejoin="round"/><path d="m78.9544 324.5143c-6.1008-2.6453-14.198-6.3002-16.7822-15.817.3375-1.0957 1.9463-2.4672 2.4856-2.2148 1.7794 8.5463 9.6691 12.5319 14.291 13.5845" fill="#008f4c" fill-rule="evenodd" stroke-linecap="round" stroke-linejoin="round"/><path d="m79.9709 328.132c5.0811-4.5627 10.0831-9.3133 9.9163-19.2449l-2.0133-.495c.1101 4.5784-4.7735 12.6845-8.8857 15.2379" fill="#008f4c" fill-rule="evenodd" stroke-linecap="round" stroke-linejoin="round"/><path d="m93.8482 307.4724c-.6141 4.058-3.0074 6.6426-5.3455 5.7719s-3.7358-4.866-3.1217-8.924c.6141-4.0599 3.0074-6.6445 5.3453-5.7739 2.3383.8707 3.736 4.866 3.1219 8.9259z" fill="#ed1c24" stroke-linecap="round" stroke-linejoin="round"/><path d="m74.9823 299.7929c.6843 3.3986-.4176 7.21-2.4611 8.5131-2.0435 1.305-4.2547-.3952-4.9389-3.7938-.6843-3.3986.4178-7.21 2.4611-8.5131 2.0435-1.3031 4.2547.3933 4.9389 3.7938z" fill="#ed1c24" stroke-linecap="round" stroke-linejoin="round"/><path d="m80.365 325.1149c-1.6636-6.5624-4.5173-13.2911-7.3069-19.7263-.6082.0391-1.884 1.2894-2.0009 2.0622 3.145 7.5602 4.3705 11.3482 6.0083 18.8614" fill="#008f4c" fill-rule="evenodd" stroke-linecap="round" stroke-linejoin="round"/><path d="m25.8037 277.3441c1.7522 36.9917 26.6525 48.7102 50.2526 49.6649-5.2683-52.0127-32.3433-28.4601-50.2526-49.6649z" fill="#008f4c" fill-rule="evenodd" stroke-linecap="round" stroke-linejoin="round"/><path d="m81.3633 330.992c-25.7614-34.4366-47.735-34.0278-55.5596-53.648 5.4849 19.809 33.58 28.3453 53.2595 55.6601" fill="#008f4c" fill-rule="evenodd" stroke-linecap="round" stroke-linejoin="round"/><path d="m34.8279 200.7189c2.343 5.3708 5.534 11.4851 7.883 17.756 2.3595 6.2982 4.3396 8.5131 6.2192 13.1365 3.0752 7.5622 19.0451 13.2519 14.323 43.6161-33.7326-3.2832-48.3345-38.3196-28.4253-74.5086z" fill="#008f4c" fill-rule="evenodd" stroke-linecap="round" stroke-linejoin="round"/><path d="m66.8804 286.2235c-.5721-3.0229-2.1386-7.1298-4.2363-9.284-36.2801-37.2631-27.7915-47.1086-27.8162-76.2206 2.5146 36.187 2.1612 43.1407 29.0908 72.1137 2.8379 2.882 4.105 5.8169 5.0655 8.4133" fill="#008f4c" fill-rule="evenodd" stroke-linecap="round" stroke-linejoin="round"/><path d="m54.528 189.0299c-.4052 4.1114 1.2722 7.1443 3.7463 6.7761 2.4744-.3702 4.8088-4.0029 5.2139-8.1143.4054-4.1113-1.2717-7.1462-3.7461-6.7761-2.4744.3702-4.8088 4.0029-5.2141 8.1142z" fill="#ed1c24" stroke-linecap="round" stroke-linejoin="round"/><path d="m62.1973 213.2708c-3.6242-4.8382-7.3236-11.3282-5.5265-19.4756.8035-.837 2.2885-.6315 3.1298-.0271-1.9974 7.0725 1.1204 12.4685 4.3825 15.8638" fill="#008f4c" fill-rule="evenodd" stroke-linecap="round" stroke-linejoin="round"/><path d="m66.0591 217.9512c5.5373-1.8648 11.1394-3.6086 15.0278-11.4961l-1.7572-1.9497c-1.8333 3.7292-9.0773 8.9954-13.379 9.7608" fill="#008f4c" fill-rule="evenodd" stroke-linecap="round" stroke-linejoin="round"/><path d="m85.3473 206.9131c-2.4203 3.3906-5.7143 4.65-7.3567 2.8107-1.6423-1.8394-1.0117-6.0794 1.4091-9.4719 2.4206-3.3926 5.7146-4.652 7.357-2.8126 1.6425 1.8394 1.0114 6.0813-1.4094 9.4738z" fill="#ed1c24" stroke-linecap="round" stroke-linejoin="round"/><path d="m72.3999 191.4774c-.9773 3.3802-3.7116 6.3308-6.1047 6.5876-2.3933.2587-3.5406-2.2711-2.5624-5.6511.9778-3.3821 3.7116-6.3308 6.105-6.5895 2.3933-.2587 3.5403 2.2731 2.5621 5.653z" fill="#ed1c24" stroke-linecap="round" stroke-linejoin="round"/><path d="m65.3634 216.4698c1.5884-6.6803 2.7717-13.2083 3.3171-20.2829-.5522-.2319-2.532-.8134-2.9919-.172-.7558 8.2498-1.4157 13.2489-3.4685 20.7779" fill="#008f4c" fill-rule="evenodd" stroke-linecap="round" stroke-linejoin="round"/><path d="m65.0266 259.2794c-24.6053-11.7238-11.8428-38.4273-8.8796-65.5435 8.4632 21.2661 31.6897 45.7684 8.8796 65.5435z" fill="#008f4c" fill-rule="evenodd" stroke-linecap="round" stroke-linejoin="round"/><path d="m67.2476 270.7606c-.2908-25.4238-6.1585-50.9964-11.1006-77.0247 1.2035 21.7044 6.7593 55.9289 7.6215 76.9837" fill="#008f4c" fill-rule="evenodd" stroke-linecap="round" stroke-linejoin="round"/><path d="m146.5875 87.6333c29.6856 14.0838 44.5958-18.4692 66.3656-42.9999-25.5213 8.9503-64.4049 7.3125-66.3656 42.9999z" fill="#008f4c" fill-rule="evenodd" stroke-linecap="round" stroke-linejoin="round"/><path d="m133.7509 93.7843c22.8144-20.0727 54.2548-33.5553 79.2022-49.151-18.3102 15.0232-56.0192 35.1027-75.4001 51.1332" fill="#008f4c" fill-rule="evenodd" stroke-linecap="round" stroke-linejoin="round"/><path d="m149.5698 93.0128c-2.7559 2.8439-6.2739 3.6631-7.8589 1.8297-1.5844-1.8336-.6353-5.6253 2.1201-8.4695 2.7558-2.8438 6.2739-3.6632 7.8586-1.8297 1.5844 1.8337.6355 5.6253-2.1199 8.4695z" fill="#ed1c24" stroke-linecap="round" stroke-linejoin="round"/><path d="m142.0291 92.6201c-4.5355 6.9117-12.9351 7.3682-17.8649 6.9699l-2.7022 3.4904c6.9136-.5634 16.9822-.8048 22.6312-8.331.0195-1.0461-1.447-2.1955-2.0649-2.1286z" fill="#008f4c" fill-rule="evenodd" stroke-linecap="round" stroke-linejoin="round"/><path d="m120.0452 86.3784c-3.491 7.3939-1.0955 12.0037 2.1604 15.3859l-1.5206 4.0358c-3.5661-5.4031-7.1264-10.5184-3.743-19.091.9206-.6294 2.7987-.8225 3.1032-.3307z" fill="#008f4c" fill-rule="evenodd" stroke-linecap="round" stroke-linejoin="round"/><path d="m113.0966 84.2929c-.7052 3.6967.8334 6.6192 3.4368 6.5275 2.6035-.0919 5.2855-3.163 5.9906-6.8598.7055-3.6967-.8331-6.6192-3.4367-6.5274-2.6034.0917-5.2855 3.1627-5.9907 6.8597z" fill="#ed1c24" stroke-linecap="round" stroke-linejoin="round"/><path d="m134.3156 82.982c-1.7804 2.7556-1.9215 6.3767-.3151 8.0882 1.6074 1.7106 4.3523.8648 6.1325-1.8907 1.7808-2.7557 1.9218-6.3769.3152-8.0883-1.6074-1.7106-4.3523-.8648-6.1327 1.8908z" fill="#ed1c24" stroke-linecap="round" stroke-linejoin="round"/><path d="m117.7574 106.7212c3.7779-5.2235 11.8008-13.5416 16.6558-18.3361.5912.2069 1.7746 1.5799 1.6401 2.2844-5.5724 5.6686-10.8006 10.7599-14.8611 16.8148" fill="#008f4c" fill-rule="evenodd" stroke-linecap="round" stroke-linejoin="round"/><path d="m158.5631 100.9705c-10.0018 5.3552-19.3545 13.5673-26.1069 20.1284-5.6556 5.4955-11.358 17.3564-38.6554 21.0385 2.0473-25.9497 31.8498-47.4344 64.7622-41.1669z" fill="#008f4c" fill-rule="evenodd" stroke-linecap="round" stroke-linejoin="round"/><path d="m85.0522 149.4344c2.1529-2.2885 5.7765-6.031 7.717-8.0779 38.7049-40.8249 43.5686-33.6382 65.7938-40.386-28.8017 11.1709-29.3497 6.6608-64.5849 43.7026-2.581 2.7133-4.5395 4.4463-6.4724 6.5875" fill="#008f4c" fill-rule="evenodd" stroke-linecap="round" stroke-linejoin="round"/></g><g><path d="m402.2926 196.6179c24.8437 18.478 28.6858 52.0959 25.7131 79.852-34.5018-29.2255-14.0662-49.6815-25.7131-79.852z" fill="#008f4c" fill-rule="evenodd" stroke-linecap="round" stroke-linejoin="round"/><path d="m402.2926 196.6179c14.3388 18.4506 13.9457 47.7758 29.4699 82.7125l-1.6663 4.4904c-19.454-48.6524-14.9252-68.858-27.8036-87.2029z" fill="#008f4c" fill-rule="evenodd" stroke-linecap="round" stroke-linejoin="round"/><path d="m417.0923 413.0941c-5.5504.5751-12.1392.7491-18.4203 1.7723-6.3092 1.0283-9.1193.3378-13.8256.9573-7.7003 1.0116-23.981-11.4039-46.1359 8.2732 19.9731 29.1898 59.3063 25.5112 78.3818-11.0027z" fill="#008f4c" fill-rule="evenodd" stroke-linecap="round" stroke-linejoin="round"/><path d="m417.0923 413.0941c-22.8655 9.02-28.3452 22.2183-74.7224 8.2952-3.7894-1.1391-7.5978 1.3084-10.5105.492l-2.9241 3.0106c3.1743.7965 8.3408-1.2032 11.1738-.4338 52.8431 14.3328 51.4131.7035 76.983-11.3621z" fill="#008f4c" fill-rule="evenodd" stroke-linecap="round" stroke-linejoin="round"/><path d="m352.7317 380.2683c-1.9418 3.5872-1.5942 7.1306.7764 7.9142 2.3704.7836 5.8658-1.4879 7.8072-5.0731 1.9416-3.5872 1.594-7.1306-.7764-7.9142-2.3704-.7855-5.866 1.4879-7.8072 5.0731z" fill="#ed1c24" stroke-linecap="round" stroke-linejoin="round"/><path d="m355.4058 386.7783c-5.4374 6.7252-2.8701 14.9228-.8289 19.3179l-3.5161 2.6291c-1.7348-6.5783-4.0434-15.5978 1.6412-23.5765 1.0447-.402 2.5648 1.0363 2.7038 1.6294z" fill="#008f4c" fill-rule="evenodd" stroke-linecap="round" stroke-linejoin="round"/><path d="m353.0432 408.703-2.4604 3.875c6.6177 1.2949 12.8432 1.4866 20.3338-4.7903l-1.9968-1.62c-3.4327 2.9201-11.3934 4.2878-15.8767 2.5353z" fill="#008f4c" fill-rule="evenodd" stroke-linecap="round" stroke-linejoin="round"/><path d="m373.6365 410.6548c-3.4811 2.0134-6.9307 1.6717-7.7045-.7653-.7745-2.4312 1.4197-6.0332 4.9008-8.0466 3.481-2.0115 6.9307-1.6717 7.7045.7653.7742 2.4331-1.4201 6.0351-4.9008 8.0467z" fill="#ed1c24" stroke-linecap="round" stroke-linejoin="round"/><path d="m367.8915 390.624c-2.1773 2.6565-5.7702 4.1206-8.025 3.2716-2.255-.8491-2.318-3.6909-.1409-6.3454 2.1771-2.6565 5.77-4.1206 8.025-3.2716 2.2548.849 2.3178 3.6909.1409 6.3454z" fill="#ed1c24" stroke-linecap="round" stroke-linejoin="round"/><path d="m351.9711 410.3483c3.9931-5.4049 7.2536-11.5823 10.4567-17.8222-.4046-.4676-1.8951-1.4961-2.5586-1.1123-3.8434 7.2214-7.6994 13.7086-12.4344 19.6804l4.5361-.744z" fill="#008f4c" fill-rule="evenodd" stroke-linecap="round" stroke-linejoin="round"/><path d="m311.6044 432.9232c21.8647 23.8666 44.0589-1.4513 70.6061-15.5855-25.148-1.4077-59.5282-18.633-70.6061 15.5855z" fill="#008f4c" fill-rule="evenodd" stroke-linecap="round" stroke-linejoin="round"/><path d="m299.5075 432.7727c26.1214-9.6974 64.5351-13.4246 82.703-15.435-25.086 7.9481-60.6822 11.4569-82.5646 18.7689" fill="#008f4c" fill-rule="evenodd" stroke-linecap="round" stroke-linejoin="round"/><path d="m437.45 120.0936c-.0262 6.6255-.4201 14.4364-.1819 21.9745.2392 7.5713-.477 10.8211-.4046 16.4529.119 9.2155-9.2973 23.1077 3.0614 51.408 22.5011-20.5059 22.1968-63.3794-2.475-89.8355z" fill="#008f4c" fill-rule="evenodd" stroke-linecap="round" stroke-linejoin="round"/><path d="m437.45 120.0936c6.6021 28.7145 11.9197 33.6476.2202 89.2575-.9278 4.4089.1729 9.1256-.6431 12.4818l1.9273 3.7804c.8207-3.6692.0935-8.8726.8189-12.1696 14.4702-65.7388 6.0865-65.7185-2.3238-93.3498z" fill="#008f4c" fill-rule="evenodd" stroke-linecap="round" stroke-linejoin="round"/><path d="m422.2512 193.2682c-27.0542 6.7522-31.0132-27.0449-43.4106-54.2189 18.7628 13.6019 51.673 19.6406 43.4106 54.2189z" fill="#008f4c" fill-rule="evenodd" stroke-linecap="round" stroke-linejoin="round"/><path d="m431.8796 201.3074c-12.8997-19.1092-34.9593-42.287-53.0391-62.2581 17.5344 24.5696 38.4022 46.5646 50.6795 65.4046" fill="#008f4c" fill-rule="evenodd" stroke-linecap="round" stroke-linejoin="round"/><path d="m420.2921 158.3187c-1.5148-15.753 2.4468-21.7804 3.7145-30.3747 2.0995-14.2307 3.0123-27.6222-3.3367-47.8504-16.7063 23.7492-31.8221 52.7931-.3777 78.2251z" fill="#008f4c" fill-rule="evenodd" stroke-linecap="round" stroke-linejoin="round"/><path d="m426.7832 172.3405c-10.0532-18.1725-12.7475-47.7876-6.1133-92.2469-7.933 24.958-10.3767 59.2201 1.4409 91.3479l4.6727.899z" fill="#008f4c" fill-rule="evenodd" stroke-linecap="round" stroke-linejoin="round"/><path d="m345.5347 44.6333c3.2254 5.1033 6.6371 11.2506 10.5955 16.9601 3.9765 5.7349 4.8003 8.4917 7.6444 12.7956 4.6534 7.0424 1.3335 21.1112 28.544 38.4235 14.164-23.8625-7.2182-56.7159-46.7839-68.1792z" fill="#008f4c" fill-rule="evenodd" stroke-linecap="round" stroke-linejoin="round"/><path d="m398.9763 125.2194c-.918-3.1166-4.2918-6.8457-5.0947-9.6512-15.435-53.9297-22.0788-47.3441-48.3469-70.9348 15.2556 18.2464 31.619 19.907 43.1351 65.8424.9411 3.7535 4.1831 7.9464 4.9536 10.8211" fill="#008f4c" fill-rule="evenodd" stroke-linecap="round" stroke-linejoin="round"/><path d="m253.3757 439.7446c26.1098-9.0195 47.0014-10.1322 69.3209-20.0376 65.5741-29.102 111.4707-96.3534 111.4707-174.7184 0-69.5493-36.1511-129.2516-90.1248-162.3938l2.3196-5.1819c56.1056 34.3944 94.7883 95.3746 94.7883 167.5757 0 81.4298-46.7325 153.3165-114.9856 183.4559-23.0607 10.1832-42.423 11.7022-70.1408 21.5416z" fill="#008f4c"/><path d="m451.8461 363.578c-6.014 2.4286-13.2304 4.7683-19.9791 7.9178-6.7789 3.1622-9.9737 3.3384-15.0526 5.5392-8.3107 3.6016-24.1832-4.7969-45.5256 23.5485 26.4282 24.7936 65.179 8.397 80.5572-37.0055z" fill="#008f4c" fill-rule="evenodd" stroke-linecap="round" stroke-linejoin="round"/><path d="m356.737 405.0235c3.6115-.183 8.0749-3.1685 11.3149-3.3501 64.6239-3.6148 56.2338-15.0858 83.7943-38.0954-24.7024 18.8704-26.9944 31.7779-81.6757 34.6373-4.3354.227-7.5914 1.4643-10.68 2.6216" fill="#008f4c" fill-rule="evenodd" stroke-linecap="round" stroke-linejoin="round"/><path d="m374.7786 381.7712c-21.3311-24.3573 5.0894-43.6588 21.0532-68.5493-.755 25.1872 13.1118 61.2399-21.0532 68.5493z" fill="#008f4c" fill-rule="evenodd" stroke-linecap="round" stroke-linejoin="round"/><path d="m373.0193 394.8992c8.8166-21.7442 19.1377-60.7816 22.8891-81.7622-10.7256 31.1573-17.817 60.6264-26.7629 81.6133" fill="#008f4c" fill-rule="evenodd" stroke-linecap="round" stroke-linejoin="round"/><path d="m403.3363 368.2301c9.5382-.201 12.5023 4.5979 21.8932-1.1178 10.147-6.1751 30.083-19.0572 49.0205-21.31-14.868-8.2738-39.7329-18.4957-50.117-7.9553-7.8567 7.9748-11.216 16.5067-20.7967 30.383z" fill="#008f4c" fill-rule="evenodd" stroke-linecap="round" stroke-linejoin="round"/><path d="m397.3436 369.4089c19.9367-.4621 37.2588-31.0793 76.9064-23.6066-39.6348-11.9146-52.4212 16.2016-77.5219 19.6226" fill="#008f4c" fill-rule="evenodd" stroke-linecap="round" stroke-linejoin="round"/><path d="m403.6045 260.3041c27.4633 25.6625 21.3811 56.4396 7.7135 78.9441-20.7966-35.9228-2.2891-48.5584-7.7135-78.9441z" fill="#008f4c" fill-rule="evenodd" stroke-linecap="round" stroke-linejoin="round"/><path d="m411.6593 344.7032c-9.3684-44.6688 2.7919-62.9237-8.0548-84.3991 14.7012 19.74 2.2771 38.981 10.6748 80.0301" fill="#008f4c" fill-rule="evenodd" stroke-linecap="round" stroke-linejoin="round"/><path d="m442.3083 305.6959c-1.5416 3.7801-4.4654 5.68-6.5305 4.2438-2.0651-1.4381-2.4896-5.6682-.948-9.4484 1.5416-3.7821 4.4653-5.6819 6.5304-4.2438 2.0653 1.4361 2.4896 5.6663.9482 9.4483z" fill="#ed1c24" stroke-linecap="round" stroke-linejoin="round"/><path d="m421.0456 324.5143c6.1008-2.6453 14.198-6.3002 16.7822-15.817-.3375-1.0957-1.9463-2.4672-2.4856-2.2148-1.7794 8.5463-9.6691 12.5319-14.291 13.5845" fill="#008f4c" fill-rule="evenodd" stroke-linecap="round" stroke-linejoin="round"/><path d="m420.0291 328.132c-5.0811-4.5627-10.0831-9.3133-9.9163-19.2449l2.0133-.495c-.1101 4.5784 4.7735 12.6845 8.8857 15.2379" fill="#008f4c" fill-rule="evenodd" stroke-linecap="round" stroke-linejoin="round"/><path d="m406.1518 307.4724c.6141 4.058 3.0074 6.6426 5.3455 5.7719s3.7358-4.866 3.1217-8.924c-.6141-4.0599-3.0074-6.6445-5.3453-5.7739-2.3383.8707-3.736 4.866-3.1219 8.9259z" fill="#ed1c24" stroke-linecap="round" stroke-linejoin="round"/><path d="m425.0177 299.7929c-.6843 3.3986.4176 7.21 2.4611 8.5131 2.0435 1.305 4.2547-.3952 4.9389-3.7938.6843-3.3986-.4178-7.21-2.4611-8.5131-2.0435-1.3031-4.2547.3933-4.9389 3.7938z" fill="#ed1c24" stroke-linecap="round" stroke-linejoin="round"/><path d="m419.6351 325.1149c1.6636-6.5624 4.5173-13.2911 7.3069-19.7263.6082.0391 1.884 1.2894 2.0009 2.0622-3.145 7.5602-4.3705 11.3482-6.0083 18.8614" fill="#008f4c" fill-rule="evenodd" stroke-linecap="round" stroke-linejoin="round"/><path d="m474.1963 277.3441c-1.7522 36.9917-26.6525 48.7102-50.2527 49.6649 5.2683-52.0127 32.3433-28.4601 50.2527-49.6649z" fill="#008f4c" fill-rule="evenodd" stroke-linecap="round" stroke-linejoin="round"/><path d="m418.6367 330.992c25.7614-34.4366 47.735-34.0278 55.5596-53.648-5.4849 19.809-33.5801 28.3453-53.2595 55.6601" fill="#008f4c" fill-rule="evenodd" stroke-linecap="round" stroke-linejoin="round"/><path d="m465.1721 200.7189c-2.343 5.3708-5.534 11.4851-7.883 17.756-2.3595 6.2982-4.3396 8.5131-6.2192 13.1365-3.0752 7.5622-19.0451 13.2519-14.3231 43.6161 33.7326-3.2832 48.3345-38.3196 28.4253-74.5086z" fill="#008f4c" fill-rule="evenodd" stroke-linecap="round" stroke-linejoin="round"/><path d="m433.1196 286.2235c.5721-3.0229 2.1386-7.1298 4.2363-9.284 36.2801-37.2631 27.7915-47.1086 27.8162-76.2206-2.5146 36.187-2.1612 43.1407-29.0908 72.1137-2.8379 2.882-4.105 5.8169-5.0655 8.4133" fill="#008f4c" fill-rule="evenodd" stroke-linecap="round" stroke-linejoin="round"/><path d="m445.472 189.0299c.4052 4.1114-1.2722 7.1443-3.7463 6.7761-2.4744-.3702-4.8088-4.0029-5.2139-8.1143-.4054-4.1113 1.2717-7.1462 3.7461-6.7761 2.4744.3702 4.8088 4.0029 5.2141 8.1142z" fill="#ed1c24" stroke-linecap="round" stroke-linejoin="round"/><path d="m437.8027 213.2708c3.6242-4.8382 7.3237-11.3282 5.5265-19.4756-.8035-.837-2.2885-.6315-3.1298-.0271 1.9974 7.0725-1.1204 12.4685-4.3825 15.8638" fill="#008f4c" fill-rule="evenodd" stroke-linecap="round" stroke-linejoin="round"/><path d="m433.9409 217.9512c-5.5373-1.8648-11.1394-3.6086-15.0278-11.4961l1.7572-1.9497c1.8333 3.7292 9.0773 8.9954 13.379 9.7608" fill="#008f4c" fill-rule="evenodd" stroke-linecap="round" stroke-linejoin="round"/><path d="m414.6527 206.9131c2.4203 3.3906 5.7143 4.65 7.3567 2.8107 1.6423-1.8394 1.0117-6.0794-1.4091-9.4719-2.4206-3.3926-5.7146-4.652-7.357-2.8126-1.6425 1.8394-1.0114 6.0813 1.4094 9.4738z" fill="#ed1c24" stroke-linecap="round" stroke-linejoin="round"/><path d="m427.6001 191.4774c.9773 3.3802 3.7116 6.3308 6.1047 6.5876 2.3934.2587 3.5406-2.2711 2.5624-5.6511-.9778-3.3821-3.7116-6.3308-6.105-6.5895s-3.5403 2.2731-2.5621 5.653z" fill="#ed1c24" stroke-linecap="round" stroke-linejoin="round"/><path d="m434.6366 216.4698c-1.5884-6.6803-2.7717-13.2083-3.3171-20.2829.5522-.2319 2.532-.8134 2.9919-.172.7558 8.2498 1.4157 13.2489 3.4685 20.7779" fill="#008f4c" fill-rule="evenodd" stroke-linecap="round" stroke-linejoin="round"/><path d="m434.9734 259.2794c24.6053-11.7238 11.8428-38.4273 8.8796-65.5435-8.4632 21.2661-31.6897 45.7684-8.8796 65.5435z" fill="#008f4c" fill-rule="evenodd" stroke-linecap="round" stroke-linejoin="round"/><path d="m432.7524 270.7606c.2908-25.4238 6.1585-50.9964 11.1006-77.0247-1.2035 21.7044-6.7593 55.9289-7.6215 76.9837" fill="#008f4c" fill-rule="evenodd" stroke-linecap="round" stroke-linejoin="round"/><path d="m353.4126 87.6333c-29.6856 14.0838-44.5958-18.4692-66.3656-42.9999 25.5213 8.9503 64.4049 7.3125 66.3656 42.9999z" fill="#008f4c" fill-rule="evenodd" stroke-linecap="round" stroke-linejoin="round"/><path d="m366.2492 93.7843c-22.8144-20.0727-54.2548-33.5553-79.2022-49.151 18.3102 15.0232 56.0192 35.1027 75.4001 51.1332" fill="#008f4c" fill-rule="evenodd" stroke-linecap="round" stroke-linejoin="round"/><path d="m350.4302 93.0128c2.7559 2.8439 6.2739 3.6631 7.8589 1.8297 1.5844-1.8336.6353-5.6253-2.1201-8.4695-2.7558-2.8438-6.2739-3.6632-7.8586-1.8297-1.5844 1.8337-.6355 5.6253 2.1199 8.4695z" fill="#ed1c24" stroke-linecap="round" stroke-linejoin="round"/><path d="m357.9709 92.6201c4.5355 6.9117 12.9351 7.3682 17.8649 6.9699l2.7022 3.4904c-6.9136-.5634-16.9822-.8048-22.6312-8.331-.0195-1.0461 1.447-2.1955 2.0649-2.1286z" fill="#008f4c" fill-rule="evenodd" stroke-linecap="round" stroke-linejoin="round"/><path d="m379.9548 86.3784c3.491 7.3939 1.0955 12.0037-2.1604 15.3859l1.5206 4.0358c3.5661-5.4031 7.1264-10.5184 3.743-19.091-.9206-.6294-2.7987-.8225-3.1032-.3307z" fill="#008f4c" fill-rule="evenodd" stroke-linecap="round" stroke-linejoin="round"/><path d="m386.9034 84.2929c.7052 3.6967-.8334 6.6192-3.4368 6.5275-2.6035-.0919-5.2855-3.163-5.9906-6.8598-.7055-3.6967.8331-6.6192 3.4367-6.5274 2.6034.0917 5.2855 3.1627 5.9907 6.8597z" fill="#ed1c24" stroke-linecap="round" stroke-linejoin="round"/><path d="m365.6844 82.982c1.7804 2.7556 1.9215 6.3767.3151 8.0882-1.6074 1.7106-4.3523.8648-6.1325-1.8907-1.7808-2.7557-1.9218-6.3769-.3152-8.0883 1.6074-1.7106 4.3523-.8648 6.1327 1.8908z" fill="#ed1c24" stroke-linecap="round" stroke-linejoin="round"/><path d="m382.2427 106.7212c-3.7779-5.2235-11.8008-13.5416-16.6558-18.3361-.5912.2069-1.7746 1.5799-1.6401 2.2844 5.5724 5.6686 10.8006 10.7599 14.8611 16.8148" fill="#008f4c" fill-rule="evenodd" stroke-linecap="round" stroke-linejoin="round"/><path d="m341.437 100.9705c10.0018 5.3552 19.3545 13.5673 26.1069 20.1284 5.6556 5.4955 11.358 17.3564 38.6554 21.0385-2.0473-25.9497-31.8498-47.4344-64.7622-41.1669z" fill="#008f4c" fill-rule="evenodd" stroke-linecap="round" stroke-linejoin="round"/><path d="m414.9478 149.4344c-2.1529-2.2885-5.7765-6.031-7.717-8.0779-38.7049-40.8249-43.5686-33.6382-65.7938-40.386 28.8017 11.1709 29.3497 6.6608 64.5849 43.7026 2.581 2.7133 4.5395 4.4463 6.4724 6.5875" fill="#008f4c" fill-rule="evenodd" stroke-linecap="round" stroke-linejoin="round"/></g><g stroke-linecap="round" stroke-linejoin="round"><path d="m151.0687 147.9973c35.6245 8.4767 44.6683-8.486 67.6476-8.486 4.6637 0 10.4386-.103 13.902 2.2369l17.3815 17.3851-17.3815 17.3851c-3.4633 2.3399-9.2383 2.2369-13.902 2.2369-22.9793 0-32.0232-16.9626-67.6476-8.486z" fill="#ed1c24"/><path d="m348.9312 147.9973c-35.6245 8.4767-44.6683-8.486-67.6476-8.486-4.6637 0-10.4386-.103-13.902 2.2369l-17.3819 17.3851 17.3819 17.3851c3.4633 2.3399 9.2383 2.2369 13.902 2.2369 22.9793 0 32.0232-16.9626 67.6476-8.486z" fill="#ed1c24"/><path d="m330.5 159.1333c0 9.3889 7.6112 17 17 17s17-7.6112 17-17-7.6112-17-17-17-17 7.6112-17 17z" fill="#ed1c24" fill-rule="evenodd"/><path d="m169.5 159.1333c0 9.3889-7.6112 17-17 17s-17-7.6112-17-17 7.6112-17 17-17 17 7.6112 17 17z" fill="#ed1c24" fill-rule="evenodd"/><path d="m261.136 60.2021c-8.4767 35.6245 8.486 44.6683 8.486 67.6476 0 4.6637.103 10.4386-2.2369 13.902l-17.385 17.3815-17.3851-17.3815c-2.3399-3.4633-2.2369-9.2383-2.2369-13.902 0-22.9793 16.9626-32.0232 8.486-67.6476z" fill="#ed1c24"/><path d="m261.136 258.0646c-8.4767-35.6245 8.486-44.6683 8.486-67.6476 0-4.6637.103-10.4386-2.2369-13.902l-17.385-17.3819-17.3851 17.3819c-2.3399 3.4633-2.2369 9.2383-2.2369 13.902 0 22.9793 16.9626 32.0232 8.486 67.6476z" fill="#ed1c24"/><path d="m250 78.6333c-9.3889 0-17-7.6112-17-17s7.6112-17 17-17 17 7.6112 17 17-7.6112 17-17 17z" fill="#ed1c24" fill-rule="evenodd"/><path d="m267 159.1333c0 9.3889-7.6112 17-17 17s-17-7.6112-17-17 7.6112-17 17-17 17 7.6112 17 17z" fill="#ed1c24" fill-rule="evenodd"/><path d="m272.3324 260.9379v-22.6428c0-2.9282-10.3378-5.3547-22.3324-5.3547s-22.3324 2.4265-22.3324 5.3547v22.6428z" fill="#ed1c24" fill-rule="evenodd"/><path d="m359.5 350.2333c0 60.4753-49.0248 109.5001-109.5 109.5001s-109.5-49.0248-109.5-109.5001c0-60.4751 49.0248-109.4999 109.5-109.4999s109.5 49.0248 109.5 109.4999z" fill="#0071bc" fill-rule="evenodd"/></g></g><path d="m1.5 1.5v473.25c0 68.35 55.4 123.75 123.75 123.75h62.375c27.18 0 50.966 17.254 62.375 40 11.409-22.746 35.195-40 62.375-40h62.375c68.35 0 123.75-55.4 123.75-123.75v-473.25z" fill="none" stroke="#000" stroke-linecap="round" stroke-linejoin="round" stroke-width="3"/></svg>