<?xml version="1.0" encoding="utf-8"?><!DOCTYPE svg PUBLIC "-//W3C//DTD SVG 1.1//EN" "http://www.w3.org/Graphics/SVG/1.1/DTD/svg11.dtd"><svg viewBox="0 0 500 640" xmlns="http://www.w3.org/2000/svg"><g stroke="#000" stroke-linecap="round" stroke-linejoin="round"><path d="m.5.5v474.25c0 68.898 55.852 124.75 124.75 124.75h62.375c27.289 0 50.92 17.163 62.375 40 11.455-22.837 35.086-40 62.375-40h62.375c68.898 0 124.75-55.852 124.75-124.75v-474.25z" fill="#0071bc"/><path d="m.5.5v474.25c0 68.898 55.852 124.75 124.75 124.75h62.375c27.289 0 50.92 17.163 62.375 40v-639z" fill="#eac102"/></g><g stroke="#000" stroke-linecap="round" stroke-linejoin="round"><g><path d="m408.1017 237.3856c5.6118 0 10.1303 4.5115 10.1303 10.1155v41.3779h-20.2593v-41.3779c0-5.6041 4.5184-10.1155 10.129-10.1155zm-66.7044 0c5.6118 0 10.1303 4.5115 10.1303 10.1155v41.3779h-20.2594v-41.3779c0-5.6041 4.5185-10.1155 10.1291-10.1155zm132.8528 233.5428v-65.0812c-16.582-14.5481-32.796-80.6774-32.796-131.594v-87.9676l16.1201-14.3036v-42.9107h-33.1303v21.4559h-33.1287v-21.4559h-33.1303v21.4559h-33.1288v-21.4559h-33.1302v42.9107l16.1201 14.3036v87.9676c0 50.9166-16.2139 117.0459-32.7961 131.594v65.0812h80.4322l.0002-67.1186c0-10.3856 8.5045-18.7495 19.0684-18.7495 10.5625 0 19.067 8.3638 19.067 18.7495l.0003 67.1186z" fill="#e5e5e5" fill-rule="evenodd"/><path d="m291.8421 171.982h165.817" fill="none"/><path d="m275.25 449.2347h67.9193" fill="none"/><path d="m275.25 427.5398h67.9193" fill="none"/><path d="m275.25 405.8472h67.9193" fill="none"/><path d="m288.5267 383.8911h61.609" fill="none"/><path d="m295.8182 361.9351h157.8634" fill="none"/><path d="m358.0748 339.979-2.2241 21.956" fill="none"/><path d="m301.1199 339.979h147.2602" fill="none"/><path d="m304.8547 318.023h139.7906" fill="none"/><path d="m307.2299 296.067h135.0401" fill="none"/><path d="m308.046 274.1109h23.222" fill="none"/><path d="m308.046 252.1538h23.222" fill="none"/><path d="m308.046 230.1977h133.408" fill="none"/><path d="m308.046 208.2417h133.408" fill="none"/><path d="m408.1022 186.2856v21.9561" fill="none"/><path d="m374.7505 186.2856v21.9561" fill="none"/><path d="m341.3977 186.2856v21.9561" fill="none"/><path d="m310.27 318.023-2.224 21.9561" fill="none"/><path d="m439.2298 318.023 2.2241 21.9561" fill="none"/><path d="m324.7219 339.979-3.3342 21.956" fill="none"/><path d="m391.4264 339.979 2.2228 21.956" fill="none"/><path d="m424.7779 339.979 3.3342 21.956" fill="none"/><path d="m341.3977 361.9351-3.3342 21.9561" fill="none"/><path d="m408.1022 361.9351 3.3342 21.9561" fill="none"/><path d="m308.046 361.9351-5.5581 21.9561" fill="none"/><path d="m441.454 361.9351 5.5581 21.9561" fill="none"/><path d="m320.2752 383.8911-6.6697 21.956" fill="none"/><path d="m429.2248 383.8911 5.5582 21.956" fill="none"/><path d="m329.1686 405.8472v21.6926" fill="none"/><path d="m308.046 186.2856h133.408" fill="none"/><path d="m418.2322 274.1109h23.2217" fill="none"/><path d="m418.2322 252.1538h23.2217" fill="none"/><path d="m351.5273 252.1538h46.4457" fill="none"/><path d="m351.5273 274.1109h46.4457" fill="none"/><path d="m406.3309 405.8472h67.9189" fill="none"/><path d="m406.3309 449.2347h67.9189" fill="none"/><path d="m406.3309 427.5398h67.9189" fill="none"/><path d="m424.7779 208.2417v21.9561" fill="none"/><path d="m391.4264 208.2417v21.9561" fill="none"/><path d="m324.7219 208.2417v21.9561" fill="none"/><path d="m358.0748 208.2417v21.9561" fill="none"/><path d="m408.1022 230.1977v7.1879" fill="none"/><path d="m374.7505 230.1977v21.9561" fill="none"/><path d="m341.3977 230.1977v7.1879" fill="none"/><path d="m424.7779 252.1538v21.9572" fill="none"/><path d="m391.4264 252.1538v21.9572" fill="none"/><path d="m324.7219 252.1538v21.9572" fill="none"/><path d="m358.0748 252.1538v21.9572" fill="none"/><path d="m424.7779 296.067v21.9561" fill="none"/><path d="m391.4264 296.067v21.9561" fill="none"/><path d="m324.7219 296.067v21.9561" fill="none"/><path d="m358.0748 296.067v21.9561" fill="none"/><path d="m408.1022 288.8791v7.1879" fill="none"/><path d="m374.7505 274.1109v21.9561" fill="none"/><path d="m341.3977 288.8791v7.1879" fill="none"/><path d="m408.1022 318.023v21.9561" fill="none"/><path d="m374.7505 318.023v21.9561" fill="none"/><path d="m341.3977 318.023v21.9561" fill="none"/><path d="m374.7505 361.9351v10.2978" fill="none"/><path d="m311.3814 427.5398v21.6948" fill="none"/><path d="m329.1686 449.2347v21.6938" fill="none"/><path d="m293.5943 449.2347v21.6938" fill="none"/><path d="m293.5943 405.8472v21.6926" fill="none"/><path d="m420.3312 405.8472v21.6926" fill="none"/><path d="m438.1186 427.5398v21.6948" fill="none"/><path d="m420.3312 449.2347v21.6938" fill="none"/><path d="m455.9057 449.2347v21.6938" fill="none"/><path d="m455.9057 405.8472v21.6926" fill="none"/><path d="m399.3631 383.8911h61.6103" fill="none"/><path d="m374.7507 385.0604c10.5624 0 19.0671 8.3638 19.0671 18.7495v67.1186h-38.1354v-67.1186c0-10.3856 8.5044-18.7495 19.0683-18.7495z"/><path d="m343.1692 470.9284v-67.1186c0-17.4935 14.0856-31.577 31.5815-31.577 17.4946 0 31.5802 14.0835 31.5802 31.577v67.1186" fill="none"/><path d="m343.1692 403.8121h12.5132" fill="none"/><path d="m393.8177 403.8121h12.5117" fill="none"/><path d="m390.1751 392.6051 10.1238-7.3557" fill="none"/><path d="m349.2011 385.2494 10.1239 7.3557" fill="none"/><path d="m364.9918 373.7778 3.8665 11.9006" fill="none"/><path d="m380.6418 385.6784 3.8678-11.9006" fill="none"/><path d="m343.1692 420.5898h12.5132" fill="none"/><path d="m343.1692 437.3697h12.5132" fill="none"/><path d="m343.1692 454.1485h12.5132" fill="none"/><path d="m393.8177 420.5898h12.5117" fill="none"/><path d="m393.8177 437.3697h12.5117" fill="none"/><path d="m393.8177 454.1485h12.5117" fill="none"/><path d="m341.3972 237.3856c5.6118 0 10.1302 4.5115 10.1302 10.1155v41.3779h-20.2593v-41.3779c0-5.6041 4.5184-10.1155 10.1291-10.1155z"/><path d="m408.1016 237.3856c5.6118 0 10.1302 4.5115 10.1302 10.1155v41.3779h-20.2593v-41.3779c0-5.6041 4.5185-10.1155 10.1291-10.1155z"/></g><g><path d="m137.8349 532.4531c0 5.1653-4.8122 7.0468-10.7868 7.0468h-3.5962c-5.9758 0-10.7868-1.8815-10.7868-7.0468v-444.3772c0-5.1653 4.811-6.4775 10.7868-6.4775h3.5962c5.9745 0 10.7868 1.3122 10.7868 6.4775z" fill="#ed1c24" fill-rule="evenodd"/><path d="m140.7692 93.4169c0-1.1503.0466-3.0869-2.0359-3.0869h-26.9769c-2.0968 0-1.9981 1.8231-2.0248 3.0869-16.0942-5.1036-45.8942-21.5846-58.2388-32.917-5.6441 10.0385-9.7235 32.8302-9.7235 46.5665 0 13.7364 4.0794 36.528 9.7235 46.5665 12.3446-11.3324 42.1447-27.8133 58.2388-32.9169.0266 1.2638-.0724 3.0885 2.0248 3.0885h26.9769c2.0828 0 2.0359-1.9383 2.0359-3.0885z" fill="#ed1c24"/><path d="m109.7316 97.6273v18.8783" fill="none"/><path d="m103.2116 158.2348c0-3.4255-5.0671-4.2198-9.6541-4.2198s-9.6542.7943-9.6542 4.2198v348.1196c0 3.4255 5.0672 4.2198 9.6542 4.2198s9.6541-.7943 9.6541-4.2198z" fill="#ed1c24" fill-rule="evenodd"/><path d="m166.5965 506.3544c0 3.4255-5.0674 4.2198-9.6544 4.2198s-9.6541-.7943-9.6541-4.2198v-348.1196c0-3.4255 5.0671-4.2198 9.6541-4.2198s9.6544.7943 9.6544 4.2198z" fill="#ed1c24" fill-rule="evenodd"/><path d="m152.9581 153.9657c0-3.4254-5.0671-4.2197-9.6542-4.2197-4.587 0-9.6541.7943-9.6541 4.2197v356.6578c0 3.4254 5.0671 4.2197 9.6541 4.2197 4.5871 0 9.6542-.7943 9.6542-4.2197z" fill="#ed1c24" fill-rule="evenodd"/><path d="m116.8498 510.6235c0 3.4254-5.0671 4.2197-9.6542 4.2197s-9.6541-.7943-9.6541-4.2197v-356.6578c0-3.4254 5.0671-4.2197 9.6541-4.2197s9.6542.7943 9.6542 4.2197z" fill="#ed1c24" fill-rule="evenodd"/><path d="m115.5957 152.7885c0-3.4254 5.0674-4.2198 9.6544-4.2198 4.5871 0 9.6539.7945 9.6539 4.2198v359.0122c0 3.4253-5.0668 4.2198-9.6539 4.2198-4.587 0-9.6544-.7944-9.6544-4.2198z" fill="#ed1c24" fill-rule="evenodd"/><path d="m170.7695 223.4515v-18.6983c0-4.1626-2.5085-7.8018-4.173-11.1009l-.0003 11.1009c-.0004 17.0792-14.1421 25.3512-41.3462 37.4341s-45.5195 20.355-45.5195 37.4341v18.6982c0 4.1626 2.5086 7.8021 4.173 11.101l.0003-11.101c.0004-17.079 14.1421-25.3511 41.3462-37.434 27.2041-12.083 45.5195-20.3549 45.5195-37.4341z" fill="#ed1c24"/><path d="m79.7305 223.4515v-18.6983c0-4.1626 2.5086-7.8018 4.173-11.1009l.0003 11.1009c.0004 17.0792 14.1421 25.3512 41.3462 37.4341s45.5195 20.355 45.5195 37.4341v18.6982c0 4.1626-2.5085 7.8021-4.173 11.101l-.0003-11.101c-.0004-17.079-14.1421-25.3511-41.3462-37.434-27.2041-12.083-45.5195-20.3549-45.5195-37.4341z" fill="#ed1c24"/><path d="m166.5966 188.5875v5.0651c2.7083-.7739 4.173-1.636 4.173-2.5451v-17.7482c0-3.3435-20.4853-6.054-45.5195-6.054s-45.5196 2.7105-45.5196 6.054v17.7482c0 .9091 1.4648 1.7712 4.173 2.5451v-5.0651c0-2.1882 23.045-3.5341 41.3466-3.5341s41.3465 1.3459 41.3465 3.5341z" fill="#ed1c24"/><path d="m170.7695 441.1377v18.6983c0 4.1626-2.5085 7.8018-4.173 11.1009l-.0003-11.1009c-.0004-17.0792-14.1421-25.3512-41.3462-37.4341s-45.5195-20.355-45.5195-37.4341v-18.6982c0-4.1626 2.5086-7.8021 4.173-11.101l.0003 11.101c.0004 17.079 14.1421 25.3511 41.3462 37.434 27.2041 12.083 45.5195 20.3549 45.5195 37.4341z" fill="#ed1c24"/><path d="m79.7305 441.1377v18.6983c0 4.1626 2.5086 7.8018 4.173 11.1009l.0003-11.1009c.0004-17.0792 14.1421-25.3512 41.3462-37.4341s45.5195-20.355 45.5195-37.4341v-18.6982c0-4.1626-2.5085-7.8021-4.173-11.101l-.0003 11.101c-.0004 17.079-14.1421 25.3511-41.3462 37.434-27.2041 12.083-45.5195 20.3549-45.5195 37.4341z" fill="#ed1c24"/><path d="m166.5966 476.0017v-5.0651c2.7083.7739 4.173 1.636 4.173 2.5451v17.7482c0 3.3435-20.4853 6.054-45.5195 6.054s-45.5196-2.7105-45.5196-6.054v-17.7482c0-.9091 1.4648-1.7712 4.173-2.5451v5.0651c0 2.1882 23.045 3.5341 41.3466 3.5341s41.3465-1.3459 41.3465-3.5341z" fill="#ed1c24"/></g></g><path d="m1.5 1.5v473.25c0 68.35 55.4 123.75 123.75 123.75h62.375c27.18 0 50.966 17.254 62.375 40 11.409-22.746 35.195-40 62.375-40h62.375c68.35 0 123.75-55.4 123.75-123.75v-473.25z" fill="none" stroke="#000" stroke-linecap="round" stroke-linejoin="round" stroke-width="3"/></svg>