<?xml version="1.0" encoding="utf-8"?><!DOCTYPE svg PUBLIC "-//W3C//DTD SVG 1.1//EN" "http://www.w3.org/Graphics/SVG/1.1/DTD/svg11.dtd"><svg viewBox="0 0 500 600" xmlns="http://www.w3.org/2000/svg"><g stroke="#000" stroke-linecap="round" stroke-linejoin="round"><path d="m.5.5v349.5c0 137.724 111.776 249.5 249.5 249.5s249.5-111.776 249.5-249.5v-349.5z" fill="#e5e5e5"/><path d="m250 399.833c-34.403 62.65-84.509 115.479-145 153.167 40.875 29.256 90.937 46.5 145 46.5s104.125-17.244 145-46.5c-60.491-37.688-110.597-90.517-145-153.167z" fill="#eac102"/><path d="m169.444 503.5313c-10.2619 9.6043-21.0267 18.6853-32.222 27.2188v41.7813c10.3491 5.2608 21.1052 9.8276 32.222 13.625z" fill="#ed1c24"/><path d="m233.889 426.7188c-9.817 15.059-20.5887 29.44-32.222 43.0625v125c10.5196 2.0704 21.2745 3.5184 32.222 4.2188z" fill="#ed1c24"/><path d="m330.556 503.5313c10.2619 9.6043 21.0267 18.6853 32.222 27.2188v41.7813c-10.3491 5.2608-21.1052 9.8276-32.222 13.625z" fill="#ed1c24"/><path d="m266.111 426.7188c9.817 15.059 20.5887 29.44 32.222 43.0625v125c-10.5196 2.0704-21.2745 3.5184-32.222 4.2188z" fill="#ed1c24"/><path d="m.5.5 249.5 266.222 249.5-266.222z" fill="none"/><path d="m250 266.722v133.111" fill="none"/></g><g stroke-linecap="round" stroke-linejoin="round"><g stroke="#000"><path d="m69.704 358.4151-10.1611-5.4642c-1.195-2.7369-6.4774-9.5602-13.151-3.2128-3.5148-2.0817-6.7244-1.856-9.2733 2.6612-4.5342-3.0242-10.4557 2.2356-8.3132 6.8439-3.2651 2.7889-4.7162 8.3528-.2309 10.5464-3.4336 4.6694-.4752 6.4884 2.4333 7.9819-6.0414 4.2035-6.1358 14.6009 3.2054 17.5571-.3484 2.5197 2.5003 6.9606 5.988 6.2068-2.2512 6.1933 5.0093 10.6248 9.879 9.1992 3.147 3.0012 7.077 3.8693 9.4608 2.0238 4.4308 3.8265 8.8127 2.7197 10.6694-2.0142 3.1202-1.3038 7.8176-1.7632 6.8173-6.0896-1.4618-6.322 3.1631-7.1406 1.4572-11.7229l1.3816-13.2476z" fill="#e3e4e5"/><path d="m31.0078 377.7714c-1.8255-7.6503 3.5092-12.9014 10.6346-12.6475-.5348-7.1464 3.7776-7.7584 7.0123-6.7301" fill="none"/><path d="m34.2132 395.3285c2.1024.9242 4.4121-.0173 5.7634-.598 2.732 4.8761 8.1395 3.9788 12.0257-1.969" fill="none"/><path d="m59.541 412.7583c1.9665-1.4935 4.1427-2.8979 4.5974-5.0839 4.5161-1.7376 6.8134-5.87 4.841-10.1426" fill="none"/><path d="m118.2587 334.6916c-10.7943 12.0914-27.0262 24.4194-39.9433 29.2509l4.9694 9.4727c10.4549-3.7931 28.2381-14.2055 36.2143-23.1027" fill="#c87137"/><path d="m74.5001 360.3095c-3.9541-5.418-8.9182-6.317-14.9572-7.3586 7.3944 4.1446 7.3571 6.2474 9.0403 9.3708-2.9993-.2013-6.4882 1.807-15.1679 3.3984 4.2739 1.5876 10.5502 2.6026 15.041 2.9952-5.5532 3.7753-9.2669 6.0969-12.4912 14.1815 5.1116-4.4592 11.1703-6.819 15.3937-8.0456-.4305 5.8747-3.4964 14.0474-4.3021 16.5528 3.7584-3.1358 6.7506-6.6939 8.9546-11.2333.5485 1.3139 3.6674 7.6453 2.4736 12.761 4.0389-5.0959 3.9402-9.7487 3.3054-14.684 9.0693-6.9967 1.3294-17.9309-7.2901-17.9382z" fill="#008f4c"/><path d="m73.1381 169.6789 9.3254-5.2406c58.6515 76.9378 51.9232 250.0474 51.9232 276.144 0 21.4139 6.1988 21.3319 20.2253 16.6914 20.9609-6.9345 26.8828 10.3007 18.627 25.7918.7893-17.2976-8.4989-20.1449-18.3881-15.6878-5.9411 2.6777-11.2305 3.5708-18.5539 1.3294 1.5428 4.5109 5.7587 5.534 11.9403 9.6035 5.9043 3.8868 6.7587 11.0436-4.7761 15.1893 9.0438-16.291-18.2115-9.5992-18.2112-27.4518.0003 17.8526-27.255 11.1608-18.2112 27.4518-11.5348-4.1457-10.6804-11.3025-4.7761-15.1893 6.1816-4.0695 10.3975-5.0927 11.9403-9.6035-7.3234 2.2413-12.6128 1.3482-18.5539-1.3294-9.8892-4.4572-19.1774-1.6098-18.3881 15.6878-8.2558-15.4911-2.3338-32.7264 18.627-25.7918 14.0265 4.6404 20.2253 4.7225 20.2253-16.6914 0-26.3495 12.0559-188.8975-42.9752-270.9034z" fill="#c87137"/><path d="m63.5292 171.5009-11.5363.1413c-2.326 1.8731-10.1664 5.477-13.1447-3.2382-4.0792.2187-6.8199-1.4668-6.9889-6.6507-5.419.5824-8.234-6.8207-4.2021-9.9142-1.6036-3.9834-.3151-9.5871 4.6761-9.4558-.8828-5.7283 2.5816-5.9717 5.851-5.9496-3.4101-6.5222 1.3181-15.7828 10.9668-14.0803.8573-2.3949 5.4378-5.0132 8.1807-2.7308.8706-6.532 9.3577-7.1002 13.0147-3.5828 4.1786-1.204 8.0642-.1548 9.3233 2.5844 5.6986-1.3415 9.0708 1.6675 8.5259 6.7233 2.1625 2.5997 6.114 5.181 3.225 8.5532-4.2216 4.9278-.5007 7.7937-4.1336 11.0663l-4.9062 12.3829z" fill="#e3e4e5"/><path d="m38.1845 136.4338c-5.1588 5.9368-2.86 13.0606 3.574 16.1332-3.7814 6.0876-.2419 8.6258 3.1015 9.2113" fill="none"/><path d="m49.1513 122.3535c2.2914.1537 3.9031 2.0572 4.8323 3.1974 4.6784-3.0581 9.0568.2399 9.7491 7.3109" fill="none"/><path d="m79.67 118.6242c1.0521 2.2341 2.3313 4.4861 1.7226 6.6344 3.1992 3.6303 3.3232 8.3568-.4026 11.2315" fill="none"/><path d="m68.6575 172.0413c-6.0126 2.9729-10.8292 1.4725-16.6646-.399 8.473-.2519 9.4131-2.1332 12.3507-4.1231-2.752-1.2096-4.9153-4.6046-11.873-10.0322 4.5234.5706 10.5568 2.5755 14.7194 4.3058-3.1755-5.9167-5.3931-9.6934-4.5099-18.3523 2.4675 6.3185 6.7462 11.2143 9.9224 14.2563 2.3372-5.407 3.4017-14.0707 3.8469-16.6644 1.8805 4.5192 2.8863 9.0581 2.7392 14.102 1.0943-.9108 6.7892-5.0801 8.0986-10.1674 1.222 6.3865-1.0188 10.4654-3.8656 14.5465 4.8016 10.3996-7.1199 16.5104-14.7641 12.5277z" fill="#008f4c"/><path d="m65.6816 278.3509-11.3565 2.0335c-1.9869 2.2296-9.1292 7.0719-13.498-1.036-3.9879.8855-6.9682-.3271-7.986-5.4129-5.2499 1.4643-9.2421-5.3762-5.7728-9.0897-2.2359-3.666-1.885-9.4053 3.0601-10.0953-1.8114-5.5056 1.566-6.3145 4.7948-6.8295-4.4347-5.8738-1.2912-15.785 8.5061-15.6899.4524-2.5031 4.5409-5.838 7.6213-4.037-.2137-6.5863 8.0649-8.5403 12.2498-5.6711 3.9242-1.8738 7.9293-1.4768 9.6211 1.0185 5.401-2.259 9.2215.1556 9.5141 5.2322 2.5601 2.2094 6.8817 4.1068 4.5856 7.9076-3.3552 5.554.7858 7.7702-2.2605 11.5948l-2.8064 13.0204z" fill="#e3e4e5"/><path d="m34.9231 247.921c-4.114 6.7033-.6767 13.353 6.1744 15.3275-2.7305 6.6258 1.1777 8.5485 4.5718 8.577" fill="none"/><path d="m43.4293 232.2311c2.2856-.2246 4.1879 1.3885 5.2917 2.3606 4.1128-3.7847 8.9733-1.2504 10.8172 5.6109" fill="none"/><path d="m72.9214 223.5416c1.4046 2.031 3.0362 4.0425 2.7885 6.2615 3.7519 3.0558 4.6502 7.6977 1.447 11.1452" fill="none"/><path d="m117.4408 326.864c-10.4803-18.7764-25.5834-38.0868-41.856-51.0885l7.6687-7.4577c10.6058 8.3037 21.4092 19.1397 31.5544 32.7677" fill="#c87137"/><path d="m70.829 278.0419c-5.4429 3.9198-10.4404 3.2305-16.5039 2.3425 8.3166-1.6397 8.9351-3.6498 11.5061-6.095-2.9132-.7413-5.6046-3.7351-13.3591-7.9466 4.5557-.1798 10.8364.8072 15.2267 1.8306-4.1039-5.315-6.9115-8.6763-7.462-17.3627 3.4715 5.8276 8.496 9.9545 12.1285 12.4337 1.4177-5.7173 1.0452-14.4382 1.0586-17.0699 2.5969 4.1491 4.3344 8.4613 5.0175 13.4609.9299-1.0781 5.863-6.1258 6.3193-11.3591 2.254 6.0992.7133 10.4907-1.4248 14.9838 6.4439 9.4701-4.3124 17.4553-12.5068 14.7819z" fill="#008f4c"/><path d="m146.0144 250.4347 11.2632 2.4992c1.8934 2.3095 8.8304 7.4417 13.5292-.4796 3.9481 1.0489 6.9757-.04 8.202-5.0796 5.1851 1.6791 9.4556-4.9912 6.1421-8.8444 2.3849-3.5709 2.2705-9.3197-2.642-10.2127 2.0365-5.4264-1.3048-6.3736-4.5096-7.0211 4.6727-5.6863 1.9398-15.7185-7.8532-16.0267-.349-2.5196-4.2967-6.0199-7.4487-4.3472.4846-6.572-7.7066-8.865-12.0061-6.1705-3.8438-2.0337-7.8618-1.8019-9.6548.6217-5.3035-2.4793-9.2201-.2241-9.7213 4.8362-2.6488 2.1022-7.0449 3.8201-4.9072 7.7122 3.1238 5.6874-1.1049 7.7312 1.7814 11.678l2.2682 13.1249z" fill="#e3e4e5"/><path d="m177.9993 221.2966c3.8346 6.8669.1266 13.3695-6.8 15.0604 2.4555 6.7326-1.5285 8.4928-4.921 8.3816" fill="none"/><path d="m170.1461 205.2699c-2.2744-.3185-4.2415 1.2149-5.3844 2.1408-3.9536-3.9508-8.9142-1.6187-11.0389 5.161" fill="none"/><path d="m141.0365 195.3739c-1.487 1.9715-3.2 3.9141-3.0439 6.1415-3.8745 2.8988-4.9631 7.4998-1.9045 11.0762" fill="none"/><path d="m119.4938 265.1432c3.4438-6.3866 9.255-12.2039 16.7318-17.6893l-7.3553-7.767c-5.7538 4.1346-9.6984 7.8022-12.3033 11.3668" fill="#c87137"/><path d="m140.8841 249.9141c5.277 4.1405 10.2986 3.6575 16.3935 3.0198-8.2421-1.9806-8.7773-4.0145-11.2455-6.5634 2.9413-.6208 5.7536-3.5012 13.6749-7.3901-4.5444-.3672-10.8605.3605-15.2891 1.2023 4.3192-5.1416 7.2627-8.3845 8.1703-17.0409-3.7084 5.6798-8.8985 9.5964-12.63 11.9239-1.1812-5.7709-.4501-14.469-.3551-17.099-2.7655 4.0387-4.6789 8.2757-5.5672 13.243-.8848-1.1155-5.6059-6.362-5.8464-11.6096-2.5031 6.0013-1.1445 10.4524.8069 15.0298-6.8282 9.1969 3.5903 17.618 11.8878 15.2841z" fill="#008f4c"/><path d="m180.3093 337.3943 9.8321 6.0361c1.0366 2.8008 5.9204 9.9148 12.9458 3.9592 3.3901 2.2792 6.6073 2.2373 9.4102-2.1267 4.354 3.2784 10.5664-1.6343 8.6908-6.3575 3.4192-2.5978 5.186-8.0695.8334-10.5159 3.6949-4.4655.8453-6.4506-1.9731-8.108 6.2718-3.8513 6.9604-14.2263-2.1965-17.7116.4919-2.4957-2.0983-7.0922-5.6235-6.5389 2.6016-6.0545-4.3938-10.8937-9.337-9.7489-2.9703-3.1762-6.8442-4.2675-9.3296-2.5613-4.2048-4.0735-8.6428-3.219-10.7671 1.401-3.1896 1.1233-7.9056 1.3135-7.1542 5.6899 1.098 6.3953-3.5661 6.9481-2.1249 11.6205l-2.1366 13.147z" fill="#e3e4e5"/><path d="m220.0486 320.2816c1.3852 7.7421-4.2409 12.6797-11.3402 12.019.1254 7.1653-4.2149 7.5298-7.3856 6.3183" fill="none"/><path d="m217.8521 302.5699c-2.0462-1.0429-4.4058-.2349-5.7882.2676-2.4488-5.0242-7.8988-4.4376-12.1186 1.2783" fill="none"/><path d="m193.562 283.7209c-2.0487 1.3787-4.3016 2.6563-4.8805 4.8128-4.6081 1.4766-7.1378 5.4709-5.4129 9.8493" fill="none"/><path d="m129.9171 359.0457c10.9225-11.6179 26.5541-22.8372 42.1109-27.6619l-4.4198-9.7413c-12.5193 3.7475-25.3764 10.9558-38.775 20.9115" fill="#c87137"/><path d="m175.6293 335.2289c3.638 5.6352 8.5425 6.8164 14.5121 8.2015-7.1454-4.5605-6.988-6.6577-8.4898-9.8723 2.9829.3725 6.5809-1.4332 15.3374-2.5258-4.1761-1.8293-10.3842-3.2014-14.8452-3.85 5.76-3.4517 9.6002-5.5572 13.2815-13.4443-5.3581 4.1597-11.5418 6.1693-15.8284 7.1526.7656-5.8405 4.2937-13.8246 5.2412-16.2798-3.9315 2.9159-7.1222 6.2971-9.5821 10.703-.4726-1.3431-3.2244-7.8424-1.7402-12.8816-4.3236 4.8567-4.491 9.5076-4.1393 14.471-9.4544 6.4669-2.3522 17.8256 6.2528 18.3256z" fill="#008f4c"/></g><g stroke="#e5e5e5"><path d="m454.4511 289.2823c-4.3051-.1578-8.1517.2317-11.3169 1.7493 2.434-2.5287 4.0102-6.0577 5.21-10.1936 2.2032-7.5949 13.6766-14.3239 18.8393-7.1855 5.1627 7.1386-4.8268 15.9195-12.7323 15.6297z"/><path d="m332.1463 368.6702-8.924-12.3394-4.7836 3.4568-2.9747-4.1131 4.7836-3.4568-8.9239-12.3393-5.7086 4.1253 4.462 6.1697-4.043 2.9217-4.462-6.1697-6.2639 4.5266 8.9239 12.3393 4.784-3.4571 2.9747 4.1132-4.7839 3.4571 3.7183 5.1414-4.0428 2.9215-3.7183-5.1414-4.7839 3.4571-2.9746-4.1131 4.7839-3.4571-8.9239-12.3393-6.2639 4.5266 4.462 6.1697-4.0431 2.9217-4.462-6.1697-5.7085 4.1252 8.9239 12.3393 4.7836-3.4568 2.9747 4.1131-4.7836 3.4568 8.924 12.3394z"/><path d="m296.7262 403.196-6.0452-8.3589 137.8207-99.5951 6.0452 8.3589z"/><path d="m429.3424 313.0186-11.4188-15.789 13.8746-10.0264 11.4188 15.789z"/><path d="m463.983 291.2612c-4.1581 7.1267-10.4992 3.8063-10.4651-.9065.0154-2.149 2.4212-5.486 4.9068-7.2822 3.8016-2.7472 9.1101-2.592 13.0116 2.8026 6.2221 8.6035 1.5893 20.5861-8.6386 27.9771-10.2276 7.391-23.0632 8.0317-29.2852-.5717-3.9014-5.3946-2.3843-10.4824 1.4172-13.2294 2.4856-1.7962 6.4099-3.0334 8.4561-2.3744 4.4875 1.4452 5.6537 8.5052-2.42 10.2178 3.8578 5.983 10.5327 2.7456 15.3754-.5637-5.0862-.6291-3.3982-6.6025-.7714-5.8253 4.5433 1.3441 8.6108-.236 9.7617-3.6743.6976-2.0837.4784-4.3088-1.3485-6.5701z"/><path d="m292.3174 389.548c-2.9103 2.1031-12.7205 12.2572-9.203 17.1208 3.5174 4.8637 16.2394-1.265 19.1497-3.3681z"/><path d="m301.3214 401.9966-8.0603-11.1452 2.3125-1.6711 8.0603 11.1452z"/><path d="m336.239 376.7636-8.0603-11.1452 2.3124-1.6711 8.0603 11.1452z"/><path d="m324.5999 385.1745-8.0603-11.1452 2.3124-1.6711 8.0603 11.1452z"/><path d="m312.9606 393.5856-8.0603-11.1452 2.3123-1.671 8.0603 11.1452z"/><path d="m426.4355 287.803c4.1582-7.1266 10.4991-3.8062 10.4651.9065-.0156 2.1489-2.4213 5.4861-4.9068 7.2822-3.8016 2.7472-9.1102 2.5921-13.0116-2.8026-6.222-8.6033-1.5892-20.586 8.6385-27.9771 10.2277-7.391 23.0632-8.0316 29.2853.5717 3.9015 5.3946 2.3844 10.4823-1.4172 13.2294-2.4855 1.7961-6.4098 3.0333-8.456 2.3743-4.4875-1.4452-5.6537-8.505 2.42-10.2177-3.8577-5.9829-10.5327-2.7455-15.3754.5637 5.0863.6292 3.3982 6.6026.7715 5.8253-4.5433-1.3441-8.6107.2359-9.7618 3.6742-.6976 2.0839-.4785 4.309 1.3485 6.5701z"/></g><g stroke="#e5e5e5"><path d="m295.0489 289.2823c4.3051-.1578 8.1517.2317 11.3169 1.7493-2.434-2.5287-4.0102-6.0577-5.21-10.1936-2.2032-7.5949-13.6766-14.3239-18.8393-7.1855-5.1627 7.1386 4.8268 15.9195 12.7323 15.6297z"/><path d="m417.3537 368.6702 8.924-12.3394 4.7836 3.4568 2.9747-4.1131-4.7836-3.4568 8.9239-12.3393 5.7086 4.1253-4.462 6.1697 4.043 2.9217 4.462-6.1697 6.2639 4.5266-8.9239 12.3393-4.784-3.4571-2.9747 4.1132 4.7839 3.4571-3.7183 5.1414 4.0428 2.9215 3.7183-5.1414 4.7839 3.4571 2.9746-4.1131-4.7839-3.4571 8.9239-12.3393 6.2639 4.5266-4.462 6.1697 4.0431 2.9217 4.462-6.1697 5.7085 4.1252-8.9239 12.3393-4.7836-3.4568-2.9747 4.1131 4.7836 3.4568-8.924 12.3394z"/><path d="m452.7738 403.196 6.0452-8.3589-137.8207-99.5951-6.0452 8.3589z"/><path d="m320.1577 313.0186 11.4188-15.789-13.8746-10.0264-11.4188 15.789z"/><path d="m285.517 291.2612c4.1581 7.1267 10.4992 3.8063 10.4651-.9065-.0154-2.149-2.4212-5.486-4.9068-7.2822-3.8016-2.7472-9.1101-2.592-13.0116 2.8026-6.2221 8.6035-1.5893 20.5861 8.6386 27.9771 10.2276 7.391 23.0632 8.0317 29.2852-.5717 3.9014-5.3946 2.3843-10.4824-1.4172-13.2294-2.4856-1.7962-6.4099-3.0334-8.4561-2.3744-4.4875 1.4452-5.6537 8.5052 2.42 10.2178-3.8578 5.983-10.5327 2.7456-15.3754-.5637 5.0862-.6291 3.3982-6.6025.7714-5.8253-4.5433 1.3441-8.6108-.236-9.7617-3.6743-.6976-2.0837-.4784-4.3088 1.3485-6.5701z"/><path d="m457.1826 389.548c2.9103 2.1031 12.7205 12.2572 9.203 17.1208-3.5174 4.8637-16.2394-1.265-19.1497-3.3681z"/><path d="m448.1786 401.9966 8.0603-11.1452-2.3125-1.6711-8.0603 11.1452z"/><path d="m413.261 376.7636 8.0603-11.1452-2.3124-1.6711-8.0603 11.1452z"/><path d="m424.9001 385.1745 8.0603-11.1452-2.3124-1.6711-8.0603 11.1452z"/><path d="m436.5394 393.5856 8.0603-11.1452-2.3123-1.671-8.0603 11.1452z"/><path d="m323.0645 287.803c-4.1582-7.1266-10.4991-3.8062-10.4651.9065.0156 2.1489 2.4213 5.4861 4.9068 7.2822 3.8016 2.7472 9.1102 2.5921 13.0116-2.8026 6.222-8.6033 1.5892-20.586-8.6385-27.9771-10.2277-7.391-23.0632-8.0316-29.2853.5717-3.9015 5.3946-2.3844 10.4823 1.4172 13.2294 2.4855 1.7961 6.4098 3.0333 8.456 2.3743 4.4875-1.4452 5.6537-8.505-2.42-10.2177 3.8577-5.9829 10.5327-2.7455 15.3754.5637-5.0863.6292-3.3982 6.6026-.7715 5.8253 4.5433-1.3441 8.6107.2359 9.7618 3.6742.6976 2.0839.4785 4.309-1.3485 6.5701z"/></g><g stroke="#e5e5e5"><path d="m380.837 197.2876c-3.0951 3.9733-5.3582 7.8873-6.087 11.9286-.7288-4.0414-2.9918-7.9554-6.0869-11.9286-5.6837-7.2963-4.2046-22.7876 6.0869-22.7876 10.2916 0 11.7706 15.4913 6.087 22.7876z"/><path d="m372.3204 420.9607h-17.7895v6.9053h-5.9298v-6.9053h-17.7893v8.2406h8.8947v5.8363h-8.8947v9.0422h17.7893v-6.9058h5.9298v6.9058h7.4122v5.8361h-7.4122v6.9059h-5.9298v-6.9059h-17.7893v9.0422h8.8947v5.8363h-8.8947v8.2406h17.7893v-6.9053h5.9298v6.9053h17.7895z"/><path d="m380.7754 475.4708h-12.0509v-249.4951h12.0509z"/><path d="m386.1314 237.3671h-22.7627v-20.0286h22.7627z"/><path d="m389.2327 189.6076c3.9027 8.8286-3.5799 12.5637-8.0188 9.3001-2.024-1.4883-3.5377-6.0569-3.5377-9.645 0-5.4878 3.7792-10.4142 11.5565-10.4142 12.4034 0 20.5791 12.6081 20.5791 27.3724 0 14.7641-8.1757 27.3724-20.5791 27.3724-7.7774 0-11.5565-4.9268-11.5565-10.4143 0-3.5881 1.5137-8.1568 3.5377-9.645 4.4389-3.2636 11.9215.4715 8.0188 9.3001 8.3045.4448 9.8065-8.1032 9.9865-14.9633-4.0757 4.3907-8.5766-1.3053-6.0434-3.2628 4.3813-3.3858 5.6683-8.3253 3.2003-11.774-1.4957-2.0901-3.7525-3.4079-7.1435-3.2263z"/><path d="m364.8363 473.036c0 4.2012 2.9018 20.464 9.9137 20.464s9.9137-16.2633 9.9137-20.4645z"/><path d="m382.7839 473.035h-16.0678v-3.3381h16.0678z"/><path d="m382.7839 422.6298h-16.0678v-3.3381h16.0678z"/><path d="m382.7839 439.4314h-16.0678v-3.3381h16.0678z"/><path d="m382.7839 456.2333h-16.0678v-3.338h16.0678z"/><path d="m360.2673 222.834c-3.9026-8.8286 3.5799-12.5635 8.0188-9.3001 2.024 1.4883 3.5377 6.057 3.5377 9.645 0 5.4878-3.7791 10.4143-11.5565 10.4143-12.4033 0-20.5791-12.6081-20.5791-27.3724 0-14.7641 8.1758-27.3724 20.5791-27.3724 7.7774 0 11.5565 4.9266 11.5565 10.4143 0 3.5879-1.5137 8.1567-3.5377 9.6448-4.4389 3.2636-11.9214-.4713-8.0188-9.3001-8.3044-.4448-9.8063 8.1033-9.9866 14.9633 4.0759-4.3907 8.5767 1.3053 6.0435 3.2628-4.3813 3.3858-5.6683 8.3253-3.2004 11.774 1.4958 2.0902 3.7525 3.4081 7.1435 3.2263z"/></g><g stroke="#000"><path d="m299.4031 134.0591c3.817 5.0405 13.2158 15.692 22.2344 11.1163-8.1358-.789-13.5731-6.2711-17.3004-13.4257-5.8159-11.1637-7.7133-26.4785-7.7133-40.1387s1.8974-28.975 7.7133-40.1387c3.7273-7.1547 9.1646-12.6367 17.3004-13.4257-9.0186-4.5757-18.4174 6.0758-22.2344 11.1163-11.0403 14.579-17.151 27.6623-23.265 42.4482 6.114 14.7858 12.2247 27.8692 23.265 42.4482zm-36.131-47.3597c-5.2813-13.0453-9.8411-25.8953-13.2721-36.8592-3.4311 10.9639-7.9909 23.8139-13.2721 36.8592zm-26.5443 9.8231c5.2813 13.0453 9.8411 25.8953 13.2721 36.8592 3.4311-10.9639 7.9908-23.8139 13.2721-36.8592zm-36.1309 37.5366c-3.817 5.0405-13.2158 15.692-22.2344 11.1163 8.1358-.789 13.573-6.2711 17.3004-13.4257 5.8159-11.1637 7.7134-26.4785 7.7134-40.1387s-1.8974-28.975-7.7134-40.1387c-3.7273-7.1547-9.1646-12.6367-17.3004-13.4257 9.0186-4.5757 18.4174 6.0758 22.2344 11.1163 11.0403 14.579 17.151 27.6623 23.265 42.4482-6.114 14.7858-12.2247 27.8692-23.265 42.4482zm54.2436-103.2489c2.9189 11.1823 8.6853 29.352 15.9576 47.9754 5.7138-12.7477 12.924-25.7905 20.7355-35.7198 7.2236-9.182 15.2248-15.9548 24.7951-15.9548 12.7287 0 23.1713 9.871 23.1713 18.6646 0 4.3875-4.0872 6.6643-7.4948 4.7421-5.388-3.0394-8.8207-3.4047-11.367-2.2479-11.9102 5.4107-14.0214 31.389-14.0214 43.3412s2.1112 37.9305 14.0214 43.3412c2.5463 1.1568 5.979.7915 11.367-2.2479 3.4076-1.9222 7.4948.3546 7.4948 4.7421 0 8.7936-10.4426 18.6646-23.1713 18.6646-9.5704 0-17.5716-6.7729-24.7951-15.9548-7.8115-9.9293-15.0217-22.9722-20.7355-35.7198-7.2722 18.6234-13.0386 36.7932-15.9576 47.9754-.548 2.0992-2.6421 3.6992-4.8405 3.6992s-4.2926-1.6-4.8405-3.6992c-2.9189-11.1823-8.6853-29.352-15.9576-47.9754-5.7138 12.7477-12.924 25.7905-20.7355 35.7198-7.2236 9.182-15.2248 15.9548-24.7951 15.9548-12.7287 0-23.1713-9.871-23.1713-18.6646 0-4.3875 4.0872-6.6643 7.4948-4.7421 5.388 3.0394 8.8207 3.4047 11.367 2.2479 11.9102-5.4107 14.0214-31.389 14.0214-43.3412s-2.1112-37.9305-14.0214-43.3412c-2.5463-1.1568-5.979-.7915-11.367 2.2479-3.4076 1.9222-7.4948-.3546-7.4948-4.7421 0-8.7936 10.4426-18.6646 23.1713-18.6646 9.5704 0 17.5716 6.7729 24.7951 15.9548 7.8115 9.9294 15.0217 22.9722 20.7355 35.7198 7.2723-18.6234 13.0386-36.7932 15.9576-47.9754.548-2.0992 2.6421-3.6992 4.8405-3.6992s4.2926 1.6 4.8405 3.6992z" fill="#eac102" fill-rule="evenodd"/><path d="m229.2017 78.7857c2.7141 6.115 5.122 11.9278 7.5257 17.7368" fill="none"/><path d="m223.8615 91.6113c1.7828 4.3343 3.6615 8.516 5.3403 12.8247" fill="none"/><path d="m263.2719 86.6992c2.3204 5.9123 4.8914 11.8245 7.5267 17.7368" fill="none"/><path d="m270.7986 78.7857c1.5808 4.1445 3.446 8.4758 5.3393 12.8256" fill="none"/><path d="m265.2663 91.7148c-.6691 1.607-1.3316 3.2075-1.9937 4.8076" fill="none"/><path d="m236.7281 86.6992c-.6533 1.6644-1.3264 3.3288-2.0152 4.9933" fill="none"/></g></g><path d="m1.5 1.5v348.5c0 137.172 111.328 248.5 248.5 248.5s248.5-111.328 248.5-248.5v-348.5z" fill="none" stroke="#000" stroke-linecap="round" stroke-linejoin="round" stroke-width="3"/></svg>