<?xml version="1.0" encoding="utf-8"?><!DOCTYPE svg PUBLIC "-//W3C//DTD SVG 1.1//EN" "http://www.w3.org/Graphics/SVG/1.1/DTD/svg11.dtd"><svg viewBox="0 0 500 640" xmlns="http://www.w3.org/2000/svg"><path d="m.5.5v474.25c0 68.898 55.852 124.75 124.75 124.75h62.375c27.289 0 50.92 17.163 62.375 40 11.455-22.837 35.086-40 62.375-40h62.375c68.898 0 124.75-55.852 124.75-124.75v-474.25z" fill="#0071bc" stroke="#000" stroke-linecap="round" stroke-linejoin="round"/><g stroke="#000" stroke-linecap="round" stroke-linejoin="round"><g transform="translate(-70 -220)"><path d="m189.1533 379.8001c0-5.2459 28.6871-15.9135 130.8467-15.9135 102.1595 0 130.8467 10.6675 130.8467 15.9135s-28.6871 15.9135-130.8467 15.9135-130.8467-10.6675-130.8467-15.9135z" fill="#eac102"/><g fill="none"><path d="m204.7897 372.9189v13.7623" stroke-width="4.127"/><path d="m209.6502 371.8016v15.9968" stroke-width="3.9394"/><path d="m214.5108 371.0685v17.4631" stroke-width="3.7518"/><path d="m219.3713 370.161v19.2781" stroke-width="3.5642"/><path d="m224.2325 369.3581v20.8839" stroke-width="3.3767"/><path d="m229.093 368.6599v22.2803" stroke-width="3.1891"/><path d="m233.9536 367.9621v23.676" stroke-width="3.0015"/><path d="m238.8141 367.3685v24.8631" stroke-width="2.8139"/><path d="m243.6754 366.9843v25.6314" stroke-width="2.6263"/><path d="m248.5359 366.5307v26.5386" stroke-width="2.4387"/><path d="m253.3964 365.8325v27.935" stroke-width="2.2511"/><path d="m258.2577 365.4484v28.7034" stroke-width="2.0635"/><path d="m263.1183 365.2739v29.0523" stroke-width="1.8759"/><path d="m267.9788 364.8552v29.8897" stroke-width="1.6883"/><path d="m272.8393 364.5059v30.5882" stroke-width="1.5007"/><path d="m277.7005 364.2966v31.0069" stroke-width="1.3131"/><path d="m282.5611 363.9826v31.635" stroke-width="1.1256"/><path d="m287.4216 363.7728v32.0544" stroke-width=".938"/><path d="m292.2821 363.1444v33.3113" stroke-width=".7504"/><path d="m297.1434 363.1444v33.3113" stroke-width=".5628"/><path d="m302.0039 363.1444v33.3113" stroke-width=".3752"/><path d="m306.8644 363.1444v33.3113" stroke-width=".1876"/><path d="m195.0679 376.2351v7.1299" stroke-width="4.5022"/><path d="m199.9284 374.4545v10.691" stroke-width="4.3146"/><path d="m435.2102 372.9189v13.7623" stroke-width="4.127"/><path d="m430.3497 371.8016v15.9968" stroke-width="3.9394"/><path d="m425.4892 371.0685v17.4631" stroke-width="3.7518"/><path d="m420.6287 370.161v19.2781" stroke-width="3.5642"/><path d="m415.7674 369.3581v20.8839" stroke-width="3.3767"/><path d="m410.907 368.6599v22.2803" stroke-width="3.1891"/><path d="m406.0465 367.9621v23.676" stroke-width="3.0015"/><path d="m401.1859 367.3685v24.8631" stroke-width="2.8139"/><path d="m396.3246 366.9843v25.6314" stroke-width="2.6263"/><path d="m391.4641 366.5307v26.5386" stroke-width="2.4387"/><path d="m386.6036 365.8325v27.935" stroke-width="2.2511"/><path d="m381.7422 365.4484v28.7034" stroke-width="2.0635"/><path d="m376.8817 365.2739v29.0523" stroke-width="1.8759"/><path d="m372.0212 364.8552v29.8897" stroke-width="1.6883"/><path d="m367.1607 364.5059v30.5882" stroke-width="1.5007"/><path d="m362.2994 364.2966v31.0069" stroke-width="1.3131"/><path d="m357.4389 363.9826v31.635" stroke-width="1.1256"/><path d="m352.5784 363.7728v32.0544" stroke-width=".938"/><path d="m347.7179 363.1444v33.3113" stroke-width=".7504"/><path d="m342.8566 363.1444v33.3113" stroke-width=".5628"/><path d="m337.9961 363.1444v33.3113" stroke-width=".3752"/><path d="m333.1355 363.1444v33.3113" stroke-width=".1876"/><path d="m444.932 376.2351v7.1299" stroke-width="4.5022"/><path d="m440.0715 374.4545v10.691" stroke-width="4.3146"/></g><g><path d="m294.078 274.967c9.1029 3.7739 12.8918 1.7586 16.7246 5.3803l4.4924 4.2449v9.4151l-4.4924 4.2457c-3.8322 3.6217-7.6218 1.6055-16.7246 5.3802-.3732-2.8511-.2104-5.2094 1.7551-7.3084-5.8978-.353-10.5975-3.3855-14.4307-7.025 3.8332-3.6387 8.533-6.6721 14.4307-7.0251-1.9655-2.0991-2.1281-4.4567-1.7551-7.3077z" fill="#eac102"/><path d="m313.1025 289.2996h-26.2512" fill="none"/><path d="m324.7135 284.6005 4.251-4.4868c3.6262-3.8274 1.6075-7.6115 5.3869-16.703-2.8546-.3726-5.2159-.2102-7.3176 1.7528-.3535-5.8904-3.3899-10.5844-7.0339-14.4135-3.644 3.8292-6.6804 8.5231-7.0339 14.4135-2.1016-1.963-4.4629-2.1255-7.3176-1.7528 3.7795 9.0916 1.7608 12.8757 5.3869 16.703l4.251 4.4868z" fill="#eac102"/><path d="m320 282.4115v-26.2186" fill="none"/><path d="m188.0764 342.3072c-6.038-2.5622-16.0923-15.0743-20.9305-21.5732l-6.034 4.4924c7.8265 10.3182 13.8044 16.8126 18.5735 20.6139 2.3846 1.9006 4.4657 3.174 6.6469 3.814z" fill="#eac102"/><path d="m451.9237 342.3072c6.0379-2.5622 16.0922-15.0743 20.9305-21.5732l6.034 4.4924c-7.8265 10.3182-13.8044 16.8126-18.5735 20.6139-2.3846 1.9006-4.4657 3.174-6.6469 3.814z" fill="#eac102"/><path d="m366.9288 318.3474c6.8724 16.0596 29.7276 17.9971 42.2382 3.8373 4.9379 15.1928 22.216 16.5614 35.0021 7.3705.0001.0223-.0002.0479 0 .0701.9705 16.1538 20.0377 15.1145 34.7193-4.3989l8.4853-11.2779c1.1847-1.5745.8203-4.0771-.7657-5.2533-1.5861-1.1762-4.1093-.8153-5.2919.7608l-8.4618 11.2779c-11.7033 15.5982-30.5858 20.3606-16.0044-4.9605.9822-1.7056.4009-4.1371-1.2962-5.1479s-4.1829-.4065-5.1857 1.2872c-12.5976 21.2773-39.4915 22.7021-34.2007-4.0948.77-3.8997 1.54-7.7994 2.3099-11.6991.3721-1.8849-1.1048-3.9059-3.0042-4.2722-1.8993-.3663-4.0241.9602-4.397 2.8449-.3385 1.7107-1.5399 7.7839-2.3099 11.6757-4.9732 25.1379-39.465 23.6929-36.3456-1.8485.2273-1.8606-1.4433-3.6825-3.3179-3.9056s-3.9671 1.1514-4.1538 3.0165c-2.5715 25.6942-41.1775 24.9198-41.1775.1638v-12.3309c0-1.9683-1.7728-3.814-3.7713-3.814-1.9984 0-3.7713 1.8457-3.7713 3.814v12.3309c0 24.7561-38.606 25.5304-41.1775-.1638-.1866-1.8651-2.2793-3.2395-4.1539-3.0165-1.8746.2231-3.5452 2.045-3.3179 3.9056 3.1194 25.5413-31.3723 26.9863-36.3456 1.8485l-2.3099-11.6757c-.3729-1.8848-2.4977-3.2112-4.397-2.8449s-3.3763 2.3874-3.0042 4.2722c.77 3.8997 2.3099 11.6991 2.3099 11.6991 5.2908 26.7968-21.6031 25.372-34.2007 4.0948-1.0028-1.6937-3.4887-2.298-5.1856-1.2872-1.697 1.0108-2.2784 3.4423-1.2962 5.1479 14.5815 25.3211-4.3011 20.5586-16.0043 4.9605l-8.4618-11.2779c-1.1825-1.5761-3.7058-1.937-5.2918-.7608s-1.9504 3.6787-.7658 5.2533l8.4853 11.2779c14.6815 19.5133 33.7488 20.5527 34.7192 4.3989.0001-.0223-.0001-.0479 0-.0701 12.7861 9.1909 30.0642 7.8224 35.0021-7.3705 12.5107 14.1598 35.3658 12.2222 42.2382-3.8373 13.119 16.8775 37.5751 14.2687 46.9287-.8052 9.3536 15.0739 33.8098 17.6827 46.9288.8052z" fill="#eac102"/><path d="m249.186 298.5553c2.2628 1.8965 2.9032 4.2237 3.1453 7.093-8.1962-2.746-12.2168-.3955-16.6761-3.7325l-5.0585-3.7854-1.9533-9.3773 3.3057-4.6312c2.8074-3.933 8.4149-2.9516 14.4444-6.9812.9377 2.7975 1.2737 5.1565-.1203 7.4317 5.561-.2185 10.5665 2.3628 14.8871 5.6093-2.8139 3.9864-6.56 7.4536-11.9741 8.3735z" fill="#eac102"/><path d="m204.21 303.2197c-1.394 2.2752-1.058 4.6342-.1196 7.4309 7.4833-4.4626 11.6611-3.0322 14.4481-6.9599l3.3012-4.6524-1.9533-9.3772-5.0539-3.7642c-4.3521-3.2415-8.7525-1.0718-16.6807-3.7529.243 2.8685.8824 5.1966 3.146 7.0923-5.4149.9199-9.1566 4.4082-11.9704 8.3946 4.3207 3.2465 9.3216 5.8065 14.8826 5.5889z" fill="#eac102"/><path d="m218.8564 294.7215c-11.3959-.136-14.6176 1.3235-24.6536 2.4226" fill="none"/><path d="m214.4041 271.2964c-2.3627-1.7469-5.309-2.3733-7.8897-1.7279 5.116 7.8186 4.0016 12.3685 8.471 16.0697l4.8859 4.0461 8.7964-.9123 3.009-4.8648c2.5445-4.1138-.0681-8.7333 1.5795-17.1112-2.7352-.0953-4.8995.294-6.4502 2.4467-1.5477-5.8164-5.8758-10.6781-10.8534-13.3131-1.4796 5.0432-3.7447 9.6026-1.5484 15.3668z" fill="#eac102"/><path d="m223.8165 287.054c-3.7159-9.8761-2.8213-17.4151-6.2384-26.0916" fill="none"/><path d="m231.6925 293.3903c10.6604-2.9109 15.0559-.9123 24.7845-2.6743" fill="none"/><path d="m232.6141 293.8839c0 4.2006-3.4106 7.6059-7.6178 7.6059s-7.6178-3.4052-7.6178-7.6059c0-4.2006 3.4106-7.6059 7.6178-7.6059s7.6178 3.4052 7.6178 7.6059z" fill="#ed1c24" fill-rule="evenodd"/><path d="m145.9501 304.0869c-5.2097-7.3795-9.5233-12.1176-25.4501-13.4864 5.4489-8.1815 16.7967-10.5496 24.1776-3.0839.6982-2.0431 1.1288-2.7091 3.0804-4.5965 1.7401 5.3282 9.4894 9.3538 6.415 18.8943l-3.0212 9.3757z" fill="#eac102"/><path d="m169.3098 311.9324c1.8501 1.4641 2.6882 3.6236 3.3552 6.378 0 0-7.9617-.6396-11.428.1512-3.9585.9032-6.9648-.7852-7.6148-1.4225l-3.7597-7.3728c2.8734-5.1187 3.439-7.9298 5.5921-10.716 2.1496-2.7816 5.6651-5.2253 8.2182-7.4097 1.1204 2.5662 1.7607 4.8081 1.2264 7.2616 3.6881-1.155 7.4963.5125 10.9624 2.9434-1.1849 4.3606-3.0849 8.3734-6.5518 10.1868z" fill="#eac102"/><path d="m151.824 313.0246c6.195-5.003 11.8665-5.9161 19.324-10.1422" fill="none"/><path d="m153.6222 317.0391c-.9974.4758-2.0914.7531-3.2718.7531-4.2073 0-7.618-3.3857-7.618-7.5624 0-2.5463 1.2746-4.7727 3.2177-6.143 3.8277 2.4149 7.0792 8.2661 7.6721 12.9522z" fill="#ed1c24" fill-rule="evenodd"/><path d="m390.814 298.5553c-2.2628 1.8965-2.9032 4.2237-3.1453 7.093 8.1961-2.746 12.2167-.3955 16.6761-3.7325l5.0585-3.7854 1.9533-9.3773-3.3057-4.6312c-2.8074-3.933-8.4149-2.9516-14.4444-6.9812-.9377 2.7975-1.2738 5.1565.1203 7.4317-5.561-.2185-10.5665 2.3628-14.8871 5.6093 2.8139 3.9864 6.56 7.4536 11.9741 8.3735z" fill="#eac102"/><path d="m435.79 303.2197c1.394 2.2752 1.058 4.6342.1196 7.4309-7.4833-4.4626-11.6611-3.0322-14.4481-6.9599l-3.3012-4.6524 1.9533-9.3772 5.054-3.7642c4.3521-3.2415 8.7524-1.0718 16.6807-3.7529-.243 2.8685-.8825 5.1966-3.1461 7.0923 5.4149.9199 9.1566 4.4082 11.9704 8.3946-4.3207 3.2465-9.3216 5.8065-14.8826 5.5889z" fill="#eac102"/><path d="m421.1436 294.7215c11.3959-.136 14.6176 1.3235 24.6536 2.4226" fill="none"/><path d="m425.5959 271.2964c2.3627-1.7469 5.309-2.3733 7.8897-1.7279-5.116 7.8186-4.0016 12.3685-8.471 16.0697l-4.8859 4.0461-8.7964-.9123-3.009-4.8648c-2.5446-4.1138.068-8.7333-1.5795-17.1112 2.7352-.0953 4.8996.294 6.4503 2.4467 1.5476-5.8164 5.8758-10.6781 10.8533-13.3131 1.4796 5.0432 3.7447 9.6026 1.5484 15.3668z" fill="#eac102"/><path d="m416.1835 287.054c3.7159-9.8761 2.8214-17.4151 6.2384-26.0916" fill="none"/><path d="m408.3075 293.3903c-10.6604-2.9109-15.0559-.9123-24.7845-2.6743" fill="none"/><path d="m494.0499 304.0869c5.2098-7.3795 9.5233-12.1176 25.4501-13.4864-5.4489-8.1815-16.7966-10.5496-24.1776-3.0839-.6982-2.0431-1.1287-2.7091-3.0803-4.5965-1.7401 5.3282-9.4894 9.3538-6.415 18.8943l3.0212 9.3757z" fill="#eac102"/><path d="m470.6902 311.9324c-1.8501 1.4641-2.6882 3.6236-3.3552 6.378 0 0 7.9616-.6396 11.428.1512 3.9585.9032 6.9649-.7852 7.6148-1.4225l3.7597-7.3728c-2.8734-5.1187-3.439-7.9298-5.5921-10.716-2.1495-2.7816-5.6651-5.2253-8.2182-7.4097-1.1204 2.5662-1.7607 4.8081-1.2264 7.2616-3.6881-1.155-7.4964.5125-10.9624 2.9434 1.1849 4.3606 3.0849 8.3734 6.5518 10.1868z" fill="#eac102"/><path d="m488.176 313.0246c-6.195-5.003-11.8665-5.9161-19.324-10.1422" fill="none"/><path d="m486.3778 317.0391c.9974.4758 2.0914.7531 3.2718.7531 4.2073 0 7.618-3.3857 7.618-7.5624 0-2.5463-1.2746-4.7727-3.2177-6.143-3.8277 2.4149-7.0792 8.2661-7.6721 12.9522z" fill="#ed1c24" fill-rule="evenodd"/><path d="m345.9221 274.967c-9.1029 3.7739-12.8918 1.7586-16.7246 5.3803l-4.4924 4.2449v9.4151l4.4924 4.2457c3.8322 3.6217 7.6218 1.6055 16.7246 5.3802.3732-2.8511.2104-5.2094-1.7551-7.3084 5.8978-.353 10.5975-3.3855 14.4307-7.025-3.8332-3.6387-8.533-6.6721-14.4307-7.0251 1.9655-2.0991 2.1281-4.4567 1.7551-7.3077z" fill="#eac102"/><path d="m326.8975 289.2996h26.2512" fill="none"/><path d="m327.6178 289.2996c0 4.2006-3.4106 7.6059-7.6178 7.6059s-7.6178-3.4052-7.6178-7.6059 3.4106-7.6059 7.6178-7.6059 7.6178 3.4052 7.6178 7.6059z" fill="#ed1c24" fill-rule="evenodd"/><path d="m277.0156 302.1825c0 3.271-2.6558 5.9226-5.9319 5.9226s-5.9319-2.6516-5.9319-5.9226 2.6558-5.9226 5.9319-5.9226 5.9319 2.6516 5.9319 5.9226z" fill="#e5e5e5" fill-rule="evenodd"/><path d="m191.5641 312.017c0 3.271-2.6558 5.9226-5.9319 5.9226s-5.9319-2.6516-5.9319-5.9226 2.6558-5.9226 5.9319-5.9226 5.9319 2.6516 5.9319 5.9226z" fill="#e5e5e5" fill-rule="evenodd"/><path d="m320 363.9963c-105.2571 0-137.4431-12.0138-137.4431-13.8092 0-1.7955 32.1859-13.8094 137.4431-13.8094s137.4431 12.0138 137.4431 13.8094c0 1.7955-32.1859 13.8092-137.4431 13.8092zm-103.8042 2.3887c-24.5089-3.2307-42.6208-8.3124-42.6208-16.198 0-18.3266 97.8258-21.5084 146.4249-21.5084s146.4248 3.1818 146.4248 21.5084c0 7.8856-18.1119 12.9672-42.6207 16.198z" fill="#eac102" fill-rule="evenodd"/><path d="m242.0798 366.3853-51.9893 11.0423c-1.9446-9.3199-3.7807-17.7882-8.2287-26.5032-2.3645-4.6328 44.9997-15.1491 138.1382-15.1491 93.1386 0 140.5027 10.5163 138.1383 15.1491-4.448 8.7151-6.2842 17.1833-8.2287 26.5032l-51.9894-11.0423z" fill="#eac102"/><path d="m227.9866 347.4532 26.9833-2.5151c2.6991-.2516 5.0758 1.7052 5.329 4.3874s-1.7159 5.0441-4.415 5.2956l-26.9833 2.515c-2.6991.2516-5.0758-1.7052-5.329-4.3874s1.7159-5.0441 4.415-5.2956z" fill="#008f4c" fill-rule="evenodd"/><path d="m213.7227 355.1501c0 3.271-2.6558 5.9226-5.9319 5.9226s-5.9319-2.6516-5.9319-5.9226 2.6558-5.9226 5.9319-5.9226 5.9319 2.6516 5.9319 5.9226z" fill="#e5e5e5" fill-rule="evenodd"/><path d="m284.9591 348.7028c0 3.271-2.6558 5.9226-5.9319 5.9226s-5.9319-2.6516-5.9319-5.9226 2.6558-5.9226 5.9319-5.9226 5.9319 2.6516 5.9319 5.9226z" fill="#e5e5e5" fill-rule="evenodd"/><path d="m181.4663 363.5735 3.0104-6.7452 9.7872 1.6881-6.5237 8.6691z" fill="#ed1c24"/><path d="m447.1861 379.8001c0 1.6654-29.7841 12.8086-127.1861 12.8086s-127.1861-11.1432-127.1861-12.8086c0-1.6655 29.7841-12.8087 127.1861-12.8087s127.1861 11.1431 127.1861 12.8087zm8.3115 0c0 16.9986-90.5253 19.9498-135.4976 19.9498s-135.4977-2.9512-135.4977-19.9498 90.5253-19.9498 135.4977-19.9498 135.4976 2.9513 135.4976 19.9498z" fill="#eac102" fill-rule="evenodd"/><path d="m305.3868 342.8539-7.5929 5.084 7.5929 5.0833h29.2265l7.5929-5.0833-7.5929-5.084z" fill="#ed1c24"/><path d="m411.7023 347.4532-26.9834-2.5151c-2.6991-.2516-5.0757 1.7052-5.3289 4.3874s1.7159 5.0441 4.415 5.2956l26.9833 2.515c2.6992.2516 5.0758-1.7052 5.329-4.3874s-1.7159-5.0441-4.415-5.2956z" fill="#008f4c" fill-rule="evenodd"/><path d="m458.2227 363.5735-3.0104-6.7452-9.7873 1.6881 6.5238 8.6691z" fill="#ed1c24"/><path d="m362.9844 302.1825c0 3.271 2.6558 5.9226 5.9319 5.9226s5.9319-2.6516 5.9319-5.9226-2.6558-5.9226-5.9319-5.9226-5.9319 2.6516-5.9319 5.9226z" fill="#e5e5e5" fill-rule="evenodd"/><path d="m448.4359 312.017c0 3.271 2.6559 5.9226 5.932 5.9226s5.9319-2.6516 5.9319-5.9226-2.6558-5.9226-5.9319-5.9226-5.932 2.6516-5.932 5.9226z" fill="#e5e5e5" fill-rule="evenodd"/><path d="m426.2773 355.1501c0 3.271 2.6558 5.9226 5.932 5.9226 3.2761 0 5.9319-2.6516 5.9319-5.9226s-2.6558-5.9226-5.9319-5.9226c-3.2762 0-5.932 2.6516-5.932 5.9226z" fill="#e5e5e5" fill-rule="evenodd"/><path d="m355.0409 348.7028c0 3.271 2.6558 5.9226 5.9319 5.9226s5.9319-2.6516 5.9319-5.9226-2.6558-5.9226-5.9319-5.9226-5.9319 2.6516-5.9319 5.9226z" fill="#e5e5e5" fill-rule="evenodd"/><path d="m407.3858 293.8839c0 4.2006 3.4106 7.6059 7.6179 7.6059 4.2072 0 7.6178-3.4052 7.6178-7.6059 0-4.2006-3.4106-7.6059-7.6178-7.6059-4.2073 0-7.6179 3.4052-7.6179 7.6059z" fill="#ed1c24" fill-rule="evenodd"/></g></g><g><path d="m213.1464 533.2898c.061 13.4583 11.9885 21.0908 23.0109 19.9406 1.1044 6.5278 7.4454 14.9255 13.8427 16.0195 6.3973-1.094 12.7384-9.4917 13.8428-16.0195 11.0223 1.1502 22.9501-6.4823 23.0108-19.9406-10.8466 7.9683-27.4622-2.3889-23.3479-15.2659l29.728-93.0428 25.6827 80.4867c3.9427 12.356-7.1254 21.6485-18.2963 14.0542.084 17.5633 23.088 24.7162 35.2312 14.2235 12.1433 10.4927 35.1473 3.3398 35.2313-14.2235-11.171 7.5943-25.6794-1.4975-29.6871-14.0542l-36.933-115.7146 27.9427-87.5701 64.9286 203.2847c3.9461 12.3549-7.1254 21.6485-18.2963 14.0542.084 17.5633 23.088 24.7162 35.2312 14.2235 12.1433 10.4927 35.1473 3.3398 35.2313-14.2235-11.171 7.5943-25.6783-1.4979-29.6872-14.0542l-73.89-231.4351c-4.1114-12.8778 12.5031-23.2346 23.3497-15.2663-.061-13.4583-11.9884-21.0908-23.0108-19.9406-1.1044-6.5278-7.4454-14.9255-13.8427-16.0195-6.3974 1.094-12.7385 9.4917-13.8428 16.0195-11.0225-1.1502-22.9498 6.4823-23.0108 19.9406 10.8465-7.9683 27.4582 2.3877 23.3494 15.2663l-25.6811 80.4926-29.7279-93.0492c-4.1141-12.8772 12.5013-23.2344 23.3479-15.2661-.0607-13.4583-11.9885-21.0908-23.0109-19.9406-1.1044-6.5278-7.4455-14.9255-13.8427-16.0195-6.3973 1.094-12.7384 9.4917-13.8427 16.0195-11.0223-1.1502-22.9502 6.4823-23.0109 19.9406 10.8467-7.9683 27.462 2.3889 23.3479 15.2661l-29.728 93.0492-25.6811-80.4926c-4.1089-12.8787 12.5028-23.2346 23.3494-15.2663-.0608-13.4583-11.9884-21.0908-23.0108-19.9406-1.1044-6.5278-7.4455-14.9255-13.8428-16.0195-6.3973 1.094-12.7383 9.4917-13.8427 16.0195-11.0223-1.1502-22.9501 6.4823-23.0109 19.9406 10.8467-7.9683 27.4612 2.3886 23.3497 15.2663l-73.89 231.4351c-4.0088 12.5563-18.5162 21.6485-29.6872 14.0542.0844 17.5633 23.088 24.7162 35.2313 14.2235 12.1432 10.4927 35.1474 3.3398 35.2312-14.2235-11.1709 7.5943-22.2424-1.6993-18.2963-14.0542l64.9286-203.2847 27.9428 87.5701-36.933 115.7146c-4.0078 12.5567-18.5162 21.6485-29.6873 14.0542.0844 17.5633 23.088 24.7162 35.2313 14.2235 12.1432 10.4927 35.1474 3.3398 35.2312-14.2235-11.1709 7.5943-22.239-1.6982-18.2963-14.0542l25.6827-80.4867 29.728 93.0428c4.1143 12.877-12.5013 23.2342-23.348 15.2659zm4.8811-143.5366 31.9726-100.1722 31.9726 100.1722-31.9726 100.1722z" fill="#eac102" fill-rule="evenodd"/><path d="m195.538 389.753 11.228 35.228" fill="none"/><path d="m206.766 354.525 11.261 35.228" fill="none"/><path d="m281.973 389.753 11.261 35.228" fill="none"/><path d="m293.234 354.525 11.228 35.228" fill="none"/></g></g><path d="m1.5 1.5v473.25c0 68.35 55.4 123.75 123.75 123.75h62.375c27.18 0 50.966 17.254 62.375 40 11.409-22.746 35.195-40 62.375-40h62.375c68.35 0 123.75-55.4 123.75-123.75v-473.25z" fill="none" stroke="#000" stroke-linecap="round" stroke-linejoin="round" stroke-width="3"/></svg>