<?xml version="1.0" encoding="utf-8"?><!DOCTYPE svg PUBLIC "-//W3C//DTD SVG 1.1//EN" "http://www.w3.org/Graphics/SVG/1.1/DTD/svg11.dtd"><svg viewBox="0 0 580 680" xmlns="http://www.w3.org/2000/svg"><g stroke="#000" stroke-linecap="round" stroke-linejoin="round"><path d="m.5 69.5c24.083 24.098 40 54.636 40 90.5v354.75c0 68.898 55.852 124.75 124.75 124.75h62.375c27.289 0 50.92 17.163 62.375 40 11.455-22.837 35.086-40 62.375-40h62.375c68.898 0 124.75-55.852 124.75-124.75v-354.75c0-35.864 15.917-66.402 40-90.5l-69-69-18.7 18.7c-13.233 13.233-31.607 21.3-51.8 21.3h-300c-20.193 0-38.567-8.067-51.8-21.3l-18.7-18.7z" fill="#eac102"/><path d="m484.056 470v148.4688c-16.1972 10.8445-35.0898 17.9958-55.445 20.25v-168.7188z" fill="#ed1c24"/><path d="m373.167 470v169.5h-20.792c-12.6144 0-24.4432 3.6752-34.653 9.875v-179.375z" fill="#ed1c24"/><path d="m206.833 470v169.5h20.792c12.6144 0 24.4432 3.6752 34.653 9.875v-179.375z" fill="#ed1c24"/><path d="m95.944 470v148.4688c16.1972 10.8445 35.0898 17.9958 55.445 20.25v-168.7188z" fill="#ed1c24"/><path d="m.5 69.5c24.083 24.098 40 54.636 40 90.5v313.167h499v-313.167c0-35.864 15.917-66.402 40-90.5l-69-69-18.7 18.7c-13.233 13.233-31.607 21.3-51.8 21.3h-300c-20.193 0-38.567-8.067-51.8-21.3l-18.7-18.7z" fill="#0071bc"/></g><g stroke="#000" stroke-linecap="round" stroke-linejoin="round"><g><path d="m246.9783 380.7384c-13.9376-15.2028-20.3082-67.105-41.6133-68.8037-1.4436-.1151-2.8738-.1115-4.2873-.0001l-12.8924 1.5689c20.7797 10.9189 25.8114 73.5643 45.2896 71.3215 4.9289-.7206 9.2732-2.3179 13.5033-4.0865z" fill="#e5e5e5"/><path d="m242.6761 380.109c-13.5555-15.9525-20.038-66.4983-41.0581-68.1744" fill="none"/><path d="m234.2537 384.6549c-17.1469-4.0706-22.6787-61.2191-42.5353-71.2616" fill="none"/><path d="m162.9976 344.4393c6.0634-13.7044 20.8188-31.1444 38.0802-32.5049-6.1348.4522-12.2245.4751-18.2104.0001-19.0745-1.5138-35.8074 17.6782-42.3674 32.5048 4.6945-4.0819 9.9323-7.8017 16.8609-10.3947.5461 4.0976 2.9147 7.878 5.6367 10.3947z" fill="#e5e5e5"/><path d="m182.5302 311.9193c-15.335 1.0949-28.7156 14.913-35.8194 27.608" fill="none"/><path d="m194.8006 312.25c-15.0053 2.5557-27.8208 16.8794-34.1924 29.344" fill="none"/></g><g><path d="m366.4378 257.3733 11.5785 15.7641 6.1057-4.4816 3.8595 5.2546-6.1059 4.4813 11.5783 15.7638 7.2865-5.3479-5.7892-7.8817 5.1609-3.788 5.7891 7.8823 7.9954-5.8684-11.5782-15.7636-6.1065 4.4817-3.8591-5.2545 6.106-4.4818-4.8239-6.5684 5.1604-3.7874 4.8241 6.5684 6.1065-4.4818 3.8594 5.2546-6.1063 4.4818 11.5782 15.7638 7.9954-5.8681-5.7891-7.882 5.1606-3.7877 5.7895 7.882 7.2865-5.3481-11.5783-15.7636-6.1056 4.4812-3.8597-5.2543 6.1061-4.4813-11.5785-15.7638z" fill="#eac102"/><path d="m409.1347 214.5057 7.8435 10.6788-200.1565 146.9003-7.8435-10.6787z" fill="#eac102"/><path d="m211.3324 352.3739 14.8154 20.1706-17.7101 12.9979-14.8153-20.1709z" fill="#eac102"/><path d="m182.4469 410.7911c2.3437 3.191 6.8176 3.8884 9.9926 1.5583 3.1752-2.3305 3.849-6.8056 1.5055-9.9971l-6.1099-8.3188 8.2778-6.0756c3.1754-2.3307 3.8496-6.8064 1.5059-9.9973-2.3434-3.1905-6.8175-3.8879-9.9927-1.5574l-8.2777 6.0752-6.1108-8.319c-2.344-3.1911-6.8172-3.8887-9.9923-1.5585-3.1751 2.3304-3.8498 6.806-1.5059 9.9971l6.1108 8.3192-8.278 6.0755c-3.1755 2.3302-3.8495 6.806-1.5056 9.9968 2.3434 3.1906 6.8169 3.8882 9.9923 1.5578l8.2787-6.0757zm26.3121-41.0066c-4.7064-6.4078-12.6136-9.0257-19.8271-7.2297l-5.463-7.4381-7.4019 5.432c-6.354-3.9115-14.6686-3.8228-21.0446.8566-6.3763 4.6798-8.9509 12.5831-7.1205 19.8146l-7.4019 5.4325 5.4635 7.4381c-3.8747 6.3416-3.7441 14.6671.9627 21.0749 4.706 6.4078 12.6133 9.0256 19.8265 7.2298l5.4635 7.4383 7.4017-5.4321c6.3543 3.9113 14.6686 3.8226 21.0446-.8567 6.3762-4.6797 8.9512-12.5828 7.1207-19.8143l7.4017-5.4324-5.4635-7.4381c3.8743-6.3419 3.7439-14.6671-.9624-21.0751z" fill="#eac102" fill-rule="evenodd"/><path d="m203.2267 373.8449c-4.2137-5.7373-12.2019-6.9826-17.9102-2.7932l-4.7755 3.5049-3.5246-4.799c-4.2138-5.7368-12.202-6.9824-17.9107-2.7928-5.7086 4.1899-6.9124 12.1816-2.6985 17.9185l3.5249 4.7988-4.7756 3.505c-5.7086 4.1896-6.9121 12.1811-2.6983 17.918 4.2137 5.7371 12.2019 6.9825 17.9104 2.793l4.7755-3.5047 3.5249 4.799c4.2135 5.7366 12.2017 6.9822 17.9104 2.7928 5.7086-4.19 6.912-12.1817 2.6985-17.9187l-3.5246-4.7987 4.7752-3.505c5.7086-4.1897 6.9122-12.1813 2.6984-17.918z" fill="none"/><path d="m417.356 230.2099c3.7148-2.7264 16.2065-15.8519 11.6426-22.0652-4.5638-6.2133-20.8331 1.7693-24.5479 4.4958z" fill="#eac102"/><path d="m405.6738 214.3066 10.458 14.2382-2.9517 2.1664-10.4578-14.2382z" fill="#eac102"/><path d="m361.1035 247.018 10.4578 14.2385-2.9519 2.1664-10.4578-14.2385z" fill="#eac102"/><path d="m375.9602 236.1143 10.4578 14.2382-2.9517 2.1662-10.4576-14.238z" fill="#eac102"/><path d="m390.8172 225.2105 10.4578 14.2383-2.9519 2.1663-10.4576-14.2384z" fill="#eac102"/></g><g><path d="m333.0217 380.7384c13.9376-15.2028 20.3082-67.105 41.6133-68.8037 1.4436-.1151 2.8738-.1115 4.2873-.0001l12.8924 1.5689c-20.7797 10.9189-25.8114 73.5643-45.2896 71.3215-4.9289-.7206-9.2732-2.3179-13.5033-4.0865z" fill="#e5e5e5"/><path d="m337.324 380.109c13.5555-15.9525 20.038-66.4983 41.0581-68.1744" fill="none"/><path d="m345.7464 384.6549c17.1469-4.0706 22.6787-61.2191 42.5353-71.2616" fill="none"/><path d="m417.0024 344.4393c-6.0634-13.7044-20.8188-31.1444-38.0802-32.5049 6.1348.4522 12.2245.4751 18.2104.0001 19.0745-1.5138 35.8074 17.6782 42.3673 32.5048-4.6945-4.0819-9.9323-7.8017-16.8609-10.3947-.5461 4.0976-2.9147 7.878-5.6367 10.3947z" fill="#e5e5e5"/><path d="m397.4699 311.9193c15.335 1.0949 28.7156 14.913 35.8194 27.608" fill="none"/><path d="m385.1995 312.25c15.0053 2.5557 27.8208 16.8794 34.1924 29.344" fill="none"/></g><g><path d="m213.5622 257.3733-11.5785 15.7641-6.1057-4.4816-3.8595 5.2546 6.1059 4.4813-11.5783 15.7638-7.2865-5.3479 5.7892-7.8817-5.1609-3.788-5.7891 7.8823-7.9954-5.8684 11.5782-15.7636 6.1065 4.4817 3.8591-5.2545-6.106-4.4818 4.8239-6.5684-5.1604-3.7874-4.8241 6.5684-6.1065-4.4818-3.8594 5.2546 6.1063 4.4818-11.5782 15.7638-7.9954-5.8681 5.7891-7.882-5.1606-3.7877-5.7895 7.882-7.2865-5.3481 11.5783-15.7636 6.1056 4.4812 3.8597-5.2543-6.1061-4.4813 11.5785-15.7638z" fill="#eac102"/><path d="m170.8653 214.5057-7.8435 10.6788 200.1565 146.9003 7.8435-10.6787z" fill="#eac102"/><path d="m368.6676 352.3739-14.8154 20.1706 17.7101 12.9979 14.8153-20.1709z" fill="#eac102"/><path d="m397.5531 410.7911c-2.3437 3.191-6.8176 3.8884-9.9926 1.5583-3.1752-2.3305-3.849-6.8056-1.5055-9.9971l6.1099-8.3188-8.2778-6.0756c-3.1754-2.3307-3.8496-6.8064-1.5059-9.9973 2.3434-3.1905 6.8175-3.8879 9.9927-1.5574l8.2777 6.0752 6.1108-8.319c2.344-3.1911 6.8172-3.8887 9.9923-1.5585 3.1751 2.3304 3.8498 6.806 1.5059 9.9971l-6.1108 8.3192 8.278 6.0755c3.1755 2.3302 3.8495 6.806 1.5056 9.9968-2.3434 3.1906-6.8169 3.8882-9.9923 1.5578l-8.2787-6.0757zm-26.3121-41.0066c4.7064-6.4078 12.6136-9.0257 19.8271-7.2297l5.463-7.4381 7.4019 5.432c6.354-3.9115 14.6686-3.8228 21.0446.8566 6.3763 4.6798 8.9509 12.5831 7.1205 19.8146l7.4019 5.4325-5.4635 7.4381c3.8747 6.3416 3.7441 14.6671-.9627 21.0749-4.706 6.4078-12.6133 9.0256-19.8265 7.2298l-5.4635 7.4383-7.4017-5.4321c-6.3543 3.9113-14.6686 3.8226-21.0446-.8567-6.3762-4.6797-8.9512-12.5828-7.1207-19.8143l-7.4017-5.4324 5.4635-7.4381c-3.8743-6.3419-3.7439-14.6671.9624-21.0751z" fill="#eac102" fill-rule="evenodd"/><path d="m376.7734 373.8449c4.2137-5.7373 12.2019-6.9826 17.9102-2.7932l4.7755 3.5049 3.5246-4.799c4.2138-5.7368 12.202-6.9824 17.9107-2.7928 5.7086 4.1899 6.9124 12.1816 2.6985 17.9185l-3.5249 4.7988 4.7756 3.505c5.7086 4.1896 6.9121 12.1811 2.6983 17.918-4.2137 5.7371-12.2019 6.9825-17.9104 2.793l-4.7755-3.5047-3.5249 4.799c-4.2135 5.7366-12.2017 6.9822-17.9104 2.7928-5.7086-4.19-6.912-12.1817-2.6985-17.9187l3.5246-4.7987-4.7752-3.505c-5.7086-4.1897-6.9122-12.1813-2.6984-17.918z" fill="none"/><path d="m162.644 230.2099c-3.7148-2.7264-16.2065-15.8519-11.6426-22.0652 4.5638-6.2133 20.8331 1.7693 24.5479 4.4958z" fill="#eac102"/><path d="m174.3262 214.3066-10.458 14.2382 2.9517 2.1664 10.4578-14.2382z" fill="#eac102"/><path d="m218.8965 247.018-10.4578 14.2385 2.9519 2.1664 10.4578-14.2385z" fill="#eac102"/><path d="m204.0398 236.1143-10.4578 14.2382 2.9517 2.1662 10.4576-14.238z" fill="#eac102"/><path d="m189.1828 225.2105-10.4578 14.2383 2.9519 2.1663 10.4576-14.2384z" fill="#eac102"/></g><g><path d="m253.0684 257.5447c0 36.9765 1.3104 124.8734-19.5935 127.2803 7.0656-.8006 13.8695-.7852 20.4864 0 .6534.0775 1.3234.0792 2.0114 0 20.9039-2.4069 19.5934-90.3037 19.5934-127.2803z" fill="#e5e5e5"/><path d="m271.8189 257.5447c0 36.5575 1.281 122.8879-18.8913 127.1657" fill="none"/><path d="m256.8149 257.5447c0 35.7955 1.2281 119.3106-17.6577 126.7925" fill="none"/><path d="m264.011 280.4735c.4578 10.5885-.0151 23.4944-.2699 32.0333" fill="none" stroke-width="2"/><path d="m259.1541 289.236h10.2534" fill="none" stroke-width="2"/></g><g><path d="m326.9317 257.5447c0 36.9765-1.3104 124.8734 19.5935 127.2803-7.0656-.8006-13.8695-.7852-20.4864 0-.6534.0775-1.3234.0792-2.0114 0-20.9039-2.4069-19.5934-90.3037-19.5934-127.2803z" fill="#e5e5e5"/><path d="m308.1812 257.5447c0 36.5575-1.281 122.8879 18.8913 127.1657" fill="none"/><path d="m323.1851 257.5447c0 35.7955-1.2281 119.3106 17.6576 126.7925" fill="none"/><path d="m315.989 280.4735c-.4578 10.5885.0151 23.4944.2699 32.0333" fill="none" stroke-width="2"/><path d="m320.8459 289.236h-10.2534" fill="none" stroke-width="2"/></g><g><g><path d="m288.7431 98.6923v-8.6717h-3.8797v-2.5723h3.8797v-3.6148h2.5138v3.6148h3.8797v2.5723h-3.8797v8.6717z" fill="#eac102"/><path d="m296.9218 102.6018c0 3.8737-3.099 7.0141-6.9218 7.0141s-6.9218-3.1403-6.9218-7.0141 3.099-7.0141 6.9218-7.0141 6.9218 3.1403 6.9218 7.0141z" fill="#0071bc" fill-rule="evenodd"/><path d="m296.9663 104.008c.2715-.6932.1022-2.7181 0-2.8155 0-.4614-2.4068-.8392-5.6005-.926v-4.8639c-.457-.0792-.9111-.1216-1.3659-.1216s-.9089.0424-1.3659.1216v4.8639c-3.1936.0869-5.6005.4647-5.6005.926-.1022.0974-.2715 2.1223 0 2.8155 0-.5253 3.1175-.9541 6.9663-.9541 3.8489 0 6.9664.4288 6.9664.9541z" fill="#eac102"/></g><path d="m242.9347 255.4479c-9.4718-34.4349-9.7624-68.5245-3.9597-95.7383 6.758-31.6945 22.7929-49.895 51.025-53.7191 28.2321 3.8241 44.2669 22.0247 51.0249 53.7191 5.8027 27.2138 5.512 61.3035-3.9597 95.7383z" fill="#e5e5e5"/><g><path d="m241.5461 255.4129c0-1.9513 10.6232-5.9193 48.454-5.9193s48.454 3.968 48.454 5.9193-10.6232 5.9193-48.454 5.9193-48.454-3.968-48.454-5.9192z" fill="#e5e5e5"/><g fill="none"><path d="m247.0603 252.8483v5.1293" stroke-width="1.5382"/><path d="m248.8719 252.4319v5.9621" stroke-width="1.4682"/><path d="m250.6834 252.1587v6.5086" stroke-width="1.3983"/><path d="m252.495 251.8204v7.1851" stroke-width="1.3284"/><path d="m254.3068 251.5212v7.7836" stroke-width="1.2585"/><path d="m256.1183 251.2609v8.3041" stroke-width="1.1886"/><path d="m257.9299 251.0008v8.8242" stroke-width="1.1186"/><path d="m259.7415 250.7796v9.2667" stroke-width="1.0488"/><path d="m261.5533 250.6365v9.553" stroke-width=".9789"/><path d="m263.3649 250.4674v9.8911" stroke-width=".9089"/><path d="m265.1765 250.2072v10.4116" stroke-width=".839"/><path d="m266.9883 250.064v10.698" stroke-width=".7691"/><path d="m268.7998 249.999v10.8281" stroke-width=".6992"/><path d="m270.6114 249.8429v11.1401" stroke-width=".6293"/><path d="m272.4229 249.7127v11.4005" stroke-width=".5593"/><path d="m274.2347 249.6347v11.5565" stroke-width=".4894"/><path d="m276.0463 249.5177v11.7906" stroke-width=".4195"/><path d="m277.8578 249.4395v11.9469" stroke-width=".3496"/><path d="m279.6694 249.2052v12.4154" stroke-width=".2797"/><path d="m281.4813 249.2052v12.4154" stroke-width=".2097"/><path d="m283.2928 249.2052v12.4154" stroke-width=".1398"/><path d="m285.1044 249.2052v12.4154" stroke-width=".0699"/><path d="m243.4369 254.0843v2.6574" stroke-width="1.678"/><path d="m245.2485 253.4206v3.9846" stroke-width="1.6081"/><path d="m332.9399 252.8483v5.1293" stroke-width="1.5382"/><path d="m331.1283 252.4319v5.9621" stroke-width="1.4682"/><path d="m329.3168 252.1587v6.5086" stroke-width="1.3983"/><path d="m327.5052 251.8204v7.1851" stroke-width="1.3284"/><path d="m325.6933 251.5212v7.7836" stroke-width="1.2585"/><path d="m323.8818 251.2609v8.3041" stroke-width="1.1886"/><path d="m322.0702 251.0008v8.8242" stroke-width="1.1186"/><path d="m320.2587 250.7796v9.2667" stroke-width="1.0488"/><path d="m318.4468 250.6365v9.553" stroke-width=".9789"/><path d="m316.6353 250.4674v9.8911" stroke-width=".9089"/><path d="m314.8238 250.2072v10.4116" stroke-width=".839"/><path d="m313.0119 250.064v10.698" stroke-width=".7691"/><path d="m311.2004 249.999v10.8281" stroke-width=".6992"/><path d="m309.3888 249.8429v11.1401" stroke-width=".6293"/><path d="m307.5773 249.7127v11.4005" stroke-width=".5593"/><path d="m305.7654 249.6347v11.5565" stroke-width=".4894"/><path d="m303.9538 249.5177v11.7906" stroke-width=".4195"/><path d="m302.1423 249.4395v11.9469" stroke-width=".3496"/><path d="m300.3307 249.2052v12.4154" stroke-width=".2797"/><path d="m298.5189 249.2052v12.4154" stroke-width=".2097"/><path d="m296.7074 249.2052v12.4154" stroke-width=".1398"/><path d="m294.8958 249.2052v12.4154" stroke-width=".0699"/><path d="m336.5633 254.0843v2.6574" stroke-width="1.678"/><path d="m334.7517 253.4206v3.9846" stroke-width="1.6081"/></g><g><path d="m339.8448 241.6624c1.8251-1.4333 4.2336-6.8092 5.356-9.5695l2.3633 1.1247c-1.8308 4.3945-3.3349 7.2483-4.6405 9.0247-.653.8883-1.2521 1.5237-1.9333 1.938z" fill="#eac102"/><path d="m240.1551 241.6624c-1.8251-1.4333-4.2336-6.8092-5.356-9.5695l-2.3633 1.1247c1.8308 4.3945 3.3349 7.2483 4.6405 9.0247.653.8883 1.2521 1.5237 1.9333 1.938z" fill="#eac102"/><path d="m273.8843 232.5548c-2.36 5.9736-10.2087 6.6943-14.5049 1.4274-1.6958 5.6512-9.0063 6.1603-13.3972 2.7415-.229-.1922-.4498-.3855-.6727-.5973-.007.5147-.0674 1.0485-.214 1.5859-1.5754 5.7705-9.2397 3.806-12.6618-4.4947l-1.9777-4.7975c-.2761-.6698.0374-1.5467.658-1.8406.6208-.294 1.4377.0476 1.713.7178l1.9699 4.7956c2.7247 6.6326 9.8101 9.5997 6.8658-.7982-.1983-.7003.1822-1.5333.8274-1.7581.6453-.2248 1.0318-.0248 1.392.6276 4.3583 7.8935 14.9102 8.4415 13.0932-1.526 0 0-.5288-2.9012-.7932-4.3517-.1279-.7011.3793-1.4529 1.0317-1.5891.6522-.1362 1.3819.3571 1.5099 1.0582l.7932 4.343c1.7079 9.3504 13.5526 8.8129 12.4815-.6875-.0781-.6921.4956-1.3698 1.1394-1.4528s1.3631.4283 1.4264 1.122c.8831 9.5574 14.1408 9.2694 14.1408.061v-4.5867c0-.7321.6089-1.4187 1.295-1.4187s1.295.6866 1.295 1.4187v4.5867c0 9.2084 13.2577 9.4964 14.1408-.061.0636-.6938.7827-1.205 1.4264-1.122.6438.083 1.2175.7606 1.1394 1.4528-1.0711 9.5005 10.7736 10.0379 12.4815.6875l.7932-4.343c.128-.7011.8577-1.1944 1.5099-1.0582.6524.1362 1.1596.888 1.0317 1.5891-.2645 1.4506-.7932 4.3517-.7932 4.3517-1.817 9.9675 8.7349 9.4194 13.0932 1.526.3602-.6525.7467-.8524 1.392-.6276.6453.2247 1.0257 1.0578.8274 1.7581-2.9444 10.398 4.1411 7.4308 6.8658.7982l1.97-4.7956c.2752-.6702 1.0922-1.0118 1.713-.7178.6207.294.9341 1.1708.658 1.8406l-1.9777 4.7975c-3.4221 8.3007-11.0864 10.2652-12.6618 4.4947-.1468-.5375-.2061-1.0712-.214-1.5859-.2229.2118-.4438.4051-.6728.5973-4.3909 3.4187-11.7014 2.9097-13.3972-2.7415-4.2962 5.2669-12.1448 4.5462-14.5049-1.4274-4.5051 6.2778-12.9037 5.3075-16.1156-.2995-3.212 5.607-11.6105 6.5773-16.1157.2995z" fill="#eac102"/><path d="m266.4011 225.1928c.845.7054 1.084 1.5711 1.1745 2.6383-3.0606-1.0214-4.5622-.1471-6.2275-1.3883l-1.8889-1.408-.7295-3.488 1.2345-1.7226c1.0484-1.4629 3.1423-1.0979 5.394-2.5968.3501 1.0405.4756 1.9181-.0449 2.7643 2.0766-.0813 3.9459.8789 5.5594 2.0864-1.0509 1.4828-2.4497 2.7725-4.4715 3.1146z" fill="#eac102"/><path d="m249.6054 226.9278c-.5207.8463-.3949 1.7238-.0449 2.764 2.7945-1.6599 4.3545-1.1279 5.3954-2.5888l1.2328-1.7305-.7296-3.488-1.8872-1.4002c-1.6252-1.2057-3.2685-.3987-6.2291-1.3959.0907 1.067.3294 1.933 1.1748 2.638-2.0222.3422-3.4194 1.6397-4.4702 3.1225 1.6135 1.2075 3.4811 2.1598 5.5576 2.0789z" fill="#eac102"/><path d="m255.075 223.7668c-4.2556-.0505-5.4588.4923-9.2066.9011" fill="none"/><path d="m253.4123 215.0535c-.8823-.6498-1.9825-.8828-2.9463-.6428 1.9106 2.9083 1.4943 4.6007 3.1634 5.9773l1.8245 1.505 3.2849-.3394 1.1237-1.8096c.9501-1.5302-.0262-3.2484.5896-6.3648-1.0213-.0354-1.8296.1094-2.4087.9101-.5779-2.1635-2.1941-3.9719-4.053-4.952-.5526 1.8759-1.3984 3.5718-.5782 5.7159z" fill="#eac102"/><path d="m256.9272 220.9148c-1.3875-3.6735-1.0537-6.4778-2.3297-9.7052" fill="none"/><path d="m259.8683 223.2717c3.981-1.0828 5.6224-.3394 9.2554-.9948" fill="none"/><path d="m260.2126 223.4552c0 1.5625-1.2738 2.8291-2.8449 2.8291-1.5709 0-2.8448-1.2666-2.8448-2.8291s1.2738-2.8291 2.8448-2.8291c1.5712 0 2.8449 1.2666 2.8449 2.8291z" fill="#ed1c24" fill-rule="evenodd"/><path d="m280.3199 216.4189c3.3992 1.4038 4.8142.6541 6.2455 2.0013l1.6776 1.5789v3.502l-1.6776 1.5792c-1.4311 1.3471-2.8462.5972-6.2455 2.0012-.1395-1.0605-.0786-1.9377.6554-2.7185-2.2024-.1313-3.9575-1.2593-5.3889-2.613 1.4315-1.3535 3.1867-2.4817 5.3889-2.6131-.734-.7808-.7949-1.6577-.6554-2.7182z" fill="#eac102"/><path d="m287.4244 221.75h-9.8031" fill="none"/><path d="m291.7603 220.0022 1.5875-1.669c1.3541-1.4236.6003-2.8312 2.0117-6.2129-1.0662-.1386-1.9479-.0782-2.7327.652-.1321-2.191-1.266-3.937-2.6268-5.3612-1.3607 1.4243-2.4946 3.1702-2.6266 5.3612-.7848-.7302-1.6667-.7906-2.7326-.652 1.4112 3.3818.6575 4.7893 2.0116 6.2129l1.5874 1.669z" fill="#eac102"/><path d="m290 219.1879v-9.7524" fill="none"/><path d="m299.6802 216.4189c-3.3993 1.4038-4.8143.6541-6.2455 2.0013l-1.6776 1.5789v3.502l1.6776 1.5792c1.4311 1.3471 2.8464.5972 6.2455 2.0012.1393-1.0605.0787-1.9377-.6554-2.7185 2.2024-.1313 3.9575-1.2593 5.3889-2.613-1.4314-1.3535-3.1864-2.4817-5.3889-2.6131.7341-.7808.7947-1.6577.6554-2.7182z" fill="#eac102"/><path d="m292.5758 221.75h9.8032" fill="none"/><path d="m292.8448 221.75c0 1.5625-1.2735 2.8291-2.8448 2.8291-1.5712 0-2.8448-1.2666-2.8448-2.8291s1.2736-2.8291 2.8448-2.8291 2.8448 1.2666 2.8448 2.8291z" fill="#ed1c24" fill-rule="evenodd"/><path d="m275.4106 226.542c0 1.2202-.9889 2.2094-2.2088 2.2094-1.2198 0-2.2088-.9892-2.2088-2.2094s.989-2.2094 2.2088-2.2094c1.2199 0 2.2088.9892 2.2088 2.2094z" fill="#e5e5e5" fill-rule="evenodd"/><path d="m290 249.5345c-38.978 0-50.8968-4.4687-50.8968-5.1366s11.9188-5.1366 50.8968-5.1366c38.9781 0 50.8968 4.4687 50.8968 5.1366 0 .6678-11.9187 5.1366-50.8968 5.1366zm-38.4397.8886c-9.0761-1.2017-15.783-3.0919-15.783-6.025 0-6.8168 36.2259-8.0003 54.2226-8.0003 17.9969 0 54.2229 1.1835 54.2229 8.0003 0 2.9331-6.707 4.8233-15.7829 6.025z" fill="#eac102" fill-rule="evenodd"/><path d="m261.1454 250.4231-19.2523 4.1073c-.7201-3.4667-1.4002-6.6166-3.0474-9.8583-.8755-1.7233 16.6641-5.6349 51.1543-5.6349 34.4903 0 52.0299 3.9117 51.1543 5.6349-1.6472 3.2417-2.3272 6.3916-3.0472 9.8583l-19.2523-4.1073z" fill="#eac102"/><path d="m255.9263 243.3811 9.9923-.9355c.9996-.0936 1.8797.6343 1.9735 1.632.0937.9977-.6355 1.8762-1.6349 1.9698l-9.9923.9355c-.9995.0936-1.8797-.6343-1.9735-1.632-.0937-.9977.6355-1.8762 1.6349-1.9698z" fill="#008f4c" fill-rule="evenodd"/><path d="m250.6564 246.244c0 1.2202-.9889 2.2094-2.2088 2.2094-1.2198 0-2.2088-.9892-2.2088-2.2094s.989-2.2094 2.2088-2.2094c1.2199 0 2.2088.9892 2.2088 2.2094z" fill="#e5e5e5" fill-rule="evenodd"/><path d="m277.0361 243.8459c0 1.2202-.9889 2.2094-2.2088 2.2094-1.2198 0-2.2088-.9892-2.2088-2.2094s.989-2.2094 2.2088-2.2094c1.2199 0 2.2088.9892 2.2088 2.2094z" fill="#e5e5e5" fill-rule="evenodd"/><path d="m238.6994 249.3773 1.1149-2.509 3.6242.6279-2.4159 3.2245z" fill="#ed1c24"/><path d="m337.0986 255.4129c0 .6195-11.0294 4.7643-47.0987 4.7643-36.0692 0-47.0985-4.1449-47.0985-4.7643 0-.6195 11.0293-4.7644 47.0985-4.7644s47.0987 4.1449 47.0987 4.7644zm3.0778 0c0 6.3229-33.5226 7.4206-50.1765 7.4206-16.6537 0-50.1762-1.0977-50.1762-7.4206s33.5225-7.4206 50.1762-7.4206c16.6539 0 50.1765 1.0977 50.1765 7.4206z" fill="#eac102" fill-rule="evenodd"/><path d="m284.5885 241.6703-2.8118 1.891 2.8118 1.8908h10.823l2.8117-1.8908-2.8117-1.891z" fill="#ed1c24"/><path d="m323.9584 243.3811-9.9923-.9355c-.9994-.0936-1.8795.6343-1.9732 1.632-.0939.9977.6353 1.8762 1.6348 1.9698l9.9923.9355c.9995.0936 1.8796-.6343 1.9733-1.632.0938-.9977-.6354-1.8762-1.635-1.9698z" fill="#008f4c" fill-rule="evenodd"/><path d="m341.1855 249.3773-1.1147-2.509-3.6243.6279 2.4159 3.2245z" fill="#ed1c24"/><path d="m229.6319 224.2873c-1.2828-3.1106-2.4589-5.1887-8.142-7.0152 2.6636-2.511 6.9908-2.4217 9.0564.9014.4239-.6825.6361-.8879 1.5035-1.4092.1904 2.0771 2.6762 4.1838.7638 7.3859l-1.8791 3.1468z" fill="#eac102"/><path d="m237.4821 229.0827c.5516.6853.677 1.5383.6907 2.5925 0 0-2.8445-.8969-4.172-.8996-1.5159-.003-2.4697-.8664-2.6533-1.1517l-.7555-2.9871c1.4716-1.6157 1.9111-2.5877 2.9264-3.418 1.0138-.8289 2.4966-1.4212 3.6075-1.9999.1944 1.024.2411 1.8902-.1575 2.7351 1.4384-.1107 2.6858.8119 3.7453 1.9827-.7939 1.482-1.8191 2.7781-3.2317 3.146z" fill="#eac102"/><path d="m231.0269 228.0182c2.6708-1.2964 4.811-1.1538 7.8769-2.063" fill="none"/><path d="m231.3475 229.6238c-.4027.0892-.8238.0984-1.2535-.0002-1.5313-.3514-2.4912-1.8638-2.1439-3.3779.2117-.9232.8608-1.6238 1.682-1.9584 1.1924 1.1952 1.8893 3.5881 1.7154 5.3365z" fill="#ed1c24" fill-rule="evenodd"/><path d="m244.9639 230.339c0 1.2202-.9889 2.2094-2.2088 2.2094-1.2198 0-2.2088-.9892-2.2088-2.2094s.989-2.2094 2.2088-2.2094c1.2199 0 2.2088.9892 2.2088 2.2094z" fill="#e5e5e5" fill-rule="evenodd"/><path d="m313.599 225.1928c-.845.7054-1.084 1.5711-1.1745 2.6383 3.0606-1.0214 4.5622-.1471 6.2275-1.3883l1.8889-1.408.7295-3.488-1.2345-1.7226c-1.0484-1.4629-3.1424-1.0979-5.3941-2.5968-.3501 1.0405-.4756 1.9181.0449 2.7643-2.0766-.0813-3.946.8789-5.5594 2.0864 1.0509 1.4828 2.4498 2.7725 4.4716 3.1146z" fill="#eac102"/><path d="m330.3946 226.9278c.5207.8463.395 1.7238.0449 2.764-2.7945-1.6599-4.3545-1.1279-5.3954-2.5888l-1.2327-1.7305.7295-3.488 1.8872-1.4002c1.6252-1.2057 3.2685-.3987 6.2291-1.3959-.0907 1.067-.3295 1.933-1.1748 2.638 2.0222.3422 3.4194 1.6397 4.4702 3.1225-1.6135 1.2075-3.4811 2.1598-5.5576 2.0789z" fill="#eac102"/><path d="m324.9251 223.7668c4.2556-.0505 5.4588.4923 9.2066.9011" fill="none"/><path d="m326.5877 215.0535c.8823-.6498 1.9826-.8828 2.9464-.6428-1.9106 2.9083-1.4943 4.6007-3.1634 5.9773l-1.8245 1.505-3.2849-.3394-1.1237-1.8096c-.9501-1.5302.0262-3.2484-.5896-6.3648 1.0213-.0354 1.8296.1094 2.4087.9101.5779-2.1635 2.1941-3.9719 4.053-4.952.5526 1.8759 1.3984 3.5718.5782 5.7159z" fill="#eac102"/><path d="m323.0728 220.9148c1.3875-3.6735 1.0536-6.4778 2.3297-9.7052" fill="none"/><path d="m320.1317 223.2717c-3.981-1.0828-5.6224-.3394-9.2554-.9948" fill="none"/><path d="m319.7875 223.4552c0 1.5625 1.2738 2.8291 2.8449 2.8291 1.571 0 2.8448-1.2666 2.8448-2.8291s-1.2738-2.8291-2.8448-2.8291c-1.5711 0-2.8449 1.2666-2.8449 2.8291z" fill="#ed1c24" fill-rule="evenodd"/><path d="m350.3681 224.2873c1.2828-3.1106 2.4589-5.1887 8.142-7.0152-2.6636-2.511-6.9908-2.4217-9.0564.9014-.4239-.6825-.6361-.8879-1.5035-1.4092-.1904 2.0771-2.6762 4.1838-.7638 7.3859l1.8791 3.1468z" fill="#eac102"/><path d="m342.5179 229.0827c-.5516.6853-.677 1.5383-.6907 2.5925 0 0 2.8445-.8969 4.172-.8996 1.5159-.003 2.4697-.8664 2.6533-1.1517l.7555-2.9871c-1.4716-1.6157-1.9111-2.5877-2.9264-3.418-1.0138-.8289-2.4966-1.4212-3.6075-1.9999-.1944 1.024-.2411 1.8902.1575 2.7351-1.4384-.1107-2.6858.8119-3.7453 1.9827.7939 1.482 1.8191 2.7781 3.2317 3.146z" fill="#eac102"/><path d="m348.9731 228.0182c-2.6708-1.2964-4.811-1.1538-7.8769-2.063" fill="none"/><path d="m348.6525 229.6238c.4028.0892.8238.0984 1.2536-.0002 1.5313-.3514 2.4912-1.8638 2.1439-3.3779-.2117-.9232-.8608-1.6238-1.682-1.9584-1.1924 1.1952-1.8893 3.5881-1.7155 5.3365z" fill="#ed1c24" fill-rule="evenodd"/><path d="m304.5894 226.542c0 1.2202.9889 2.2094 2.2088 2.2094 1.2198 0 2.2088-.9892 2.2088-2.2094s-.989-2.2094-2.2088-2.2094c-1.2199 0-2.2088.9892-2.2088 2.2094z" fill="#e5e5e5" fill-rule="evenodd"/><path d="m329.3436 246.244c0 1.2202.9889 2.2094 2.2088 2.2094 1.2198 0 2.2088-.9892 2.2088-2.2094s-.989-2.2094-2.2088-2.2094c-1.2199 0-2.2088.9892-2.2088 2.2094z" fill="#e5e5e5" fill-rule="evenodd"/><path d="m302.9639 243.8459c0 1.2202.9889 2.2094 2.2088 2.2094 1.2198 0 2.2088-.9892 2.2088-2.2094s-.989-2.2094-2.2088-2.2094c-1.2199 0-2.2088.9892-2.2088 2.2094z" fill="#e5e5e5" fill-rule="evenodd"/><path d="m335.0361 230.339c0 1.2202.9889 2.2094 2.2088 2.2094 1.2198 0 2.2088-.9892 2.2088-2.2094s-.989-2.2094-2.2088-2.2094c-1.2199 0-2.2088.9892-2.2088 2.2094z" fill="#e5e5e5" fill-rule="evenodd"/></g></g><g><path d="m280.32 167.9691c3.3992 1.4038 4.8142.6541 6.2455 2.0013l1.6776 1.5789v3.502l-1.6776 1.5792c-1.4311 1.3472-2.8462.5972-6.2455 2.0012-.1394-1.0605-.0786-1.9377.6554-2.7185-2.2024-.1313-3.9575-1.2593-5.3889-2.613 1.4314-1.3535 3.1866-2.4817 5.3889-2.6131-.734-.7808-.7948-1.6577-.6554-2.7182z" fill="#eac102"/><path d="m287.4245 173.3003h-9.8031" fill="none"/><path d="m291.7604 171.5524 1.5875-1.669c1.3541-1.4236.6003-2.8312 2.0117-6.213-1.0662-.1386-1.9479-.0782-2.7327.652-.1321-2.191-1.266-3.937-2.6268-5.3613-1.3607 1.4243-2.4946 3.1703-2.6266 5.3613-.7848-.7302-1.6667-.7906-2.7326-.652 1.4112 3.3818.6575 4.7893 2.0116 6.213l1.5874 1.669z" fill="#eac102"/><path d="m290.0001 170.7381v-9.7524" fill="none"/><path d="m344.2028 193.2127c1.9847-1.4333 4.6038-6.8092 5.8243-9.5695l2.5698 1.1247c-1.9908 4.3945-3.6265 7.2483-5.0462 9.0247-.7101.8883-1.3617 1.5238-2.1024 1.938z" fill="#eac102"/><path d="m235.7971 193.2127c-1.9847-1.4333-4.6038-6.8092-5.8243-9.5695l-2.5698 1.1247c1.9908 4.3945 3.6265 7.2483 5.0462 9.0247.7101.8883 1.3617 1.5238 2.1024 1.938z" fill="#eac102"/><path d="m272.4754 184.105c-2.5664 5.9736-11.1013 6.6943-15.7731 1.4274-1.844 5.6512-9.7937 6.1603-14.5685 2.7416-.249-.1922-.4892-.3855-.7316-.5973-.008.5147-.0734 1.0485-.2326 1.5859-1.7131 5.7705-10.0476 3.806-13.7689-4.4947l-2.1506-4.7975c-.3003-.6698.0404-1.5467.7155-1.8406.6751-.294 1.5635.0476 1.8627.7178l2.1422 4.7956c2.9629 6.6326 10.6678 9.5997 7.466-.7982-.2156-.7003.1981-1.5333.8998-1.7581s1.122-.0248 1.5137.6276c4.7393 7.8935 16.2137 8.4415 14.238-1.526 0 0-.575-2.9012-.8626-4.3517-.139-.7011.4125-1.4529 1.1219-1.5891.7093-.1362 1.5027.3571 1.6419 1.0582l.8626 4.343c1.8572 9.3504 14.7375 8.8129 13.5727-.6875-.0849-.6921.539-1.3698 1.239-1.4528s1.4822.4283 1.5511 1.122c.9603 9.5574 15.3772 9.2694 15.3772.061v-4.5867c0-.7321.6621-1.4187 1.4082-1.4187s1.4082.6866 1.4082 1.4187v4.5867c0 9.2084 14.4168 9.4964 15.3772-.061.0689-.6938.8511-1.205 1.5511-1.122.7001.083 1.3239.7606 1.239 1.4528-1.1647 9.5005 11.7155 10.0379 13.5727.6875l.8626-4.343c.1392-.7011.9326-1.1944 1.6419-1.0582.7094.1362 1.261.888 1.1219 1.5891-.2876 1.4506-.8626 4.3517-.8626 4.3517-1.9758 9.9675 9.4986 9.4194 14.238 1.526.3918-.6525.812-.8524 1.5137-.6276.7017.2247 1.1154 1.0578.8998 1.7581-3.2018 10.398 4.5032 7.4308 7.466.7982l2.1422-4.7956c.2993-.6702 1.1877-1.0118 1.8627-.7178s1.0158 1.1708.7155 1.8406l-2.1506 4.7975c-3.7213 8.3007-12.0558 10.2652-13.7689 4.4947-.1596-.5375-.2241-1.0712-.2326-1.5859-.2424.2118-.4826.4051-.7316.5973-4.7748 3.4187-12.7245 2.9097-14.5685-2.7416-4.6719 5.2669-13.2067 4.5462-15.7731-1.4274-4.899 6.2778-14.0318 5.3075-17.5246-.2995-3.4928 5.607-12.6257 6.5773-17.5247.2995z" fill="#eac102"/><path d="m263.5559 176.743c.845.7054 1.084 1.5711 1.1745 2.6383-3.0606-1.0214-4.5622-.1471-6.2275-1.3883l-1.8889-1.408-.7295-3.488 1.2345-1.7226c1.0484-1.4629 3.1424-1.0979 5.3941-2.5968.3501 1.0405.4756 1.9181-.0449 2.7643 2.0766-.0813 3.946.8789 5.5594 2.0864-1.0509 1.4828-2.4498 2.7725-4.4716 3.1146z" fill="#eac102"/><path d="m246.7603 178.4781c-.5207.8463-.395 1.7238-.0449 2.764 2.7945-1.6599 4.3545-1.1279 5.3955-2.5888l1.2327-1.7305-.7295-3.488-1.8872-1.4002c-1.6252-1.2057-3.2685-.3987-6.2291-1.3959.0907 1.067.3295 1.933 1.1748 2.638-2.0222.3422-3.4194 1.6397-4.4702 3.1225 1.6135 1.2075 3.4811 2.1598 5.5576 2.0789z" fill="#eac102"/><path d="m252.2298 175.317c-4.2556-.0505-5.4588.4923-9.2066.9011" fill="none"/><path d="m250.5672 166.6038c-.8823-.6498-1.9826-.8828-2.9464-.6428 1.9106 2.9083 1.4943 4.6007 3.1634 5.9773l1.8245 1.505 3.2849-.3394 1.1237-1.8095c.9501-1.5302-.0262-3.2484.5896-6.3648-1.0213-.0354-1.8296.1093-2.4087.9101-.5779-2.1635-2.1941-3.9719-4.053-4.952-.5526 1.8759-1.3984 3.5718-.5782 5.7159z" fill="#eac102"/><path d="m254.082 172.465c-1.3875-3.6736-1.0536-6.4778-2.3297-9.7052" fill="none"/><path d="m257.0232 174.8219c3.981-1.0828 5.6224-.3394 9.2555-.9948" fill="none"/><path d="m257.3674 175.0055c0 1.5625-1.2738 2.8291-2.8449 2.8291-1.571 0-2.8448-1.2666-2.8448-2.8291s1.2738-2.8291 2.8448-2.8291c1.5711 0 2.8449 1.2666 2.8449 2.8291z" fill="#ed1c24" fill-rule="evenodd"/><path d="m316.4444 176.743c-.845.7054-1.084 1.5711-1.1744 2.6383 3.0607-1.0214 4.562-.1471 6.2274-1.3883l1.889-1.408.7295-3.488-1.2346-1.7226c-1.0482-1.4629-3.1423-1.0979-5.394-2.5968-.3501 1.0405-.4756 1.9181.0449 2.7643-2.0768-.0813-3.9459.8789-5.5594 2.0864 1.0509 1.4828 2.4499 2.7725 4.4716 3.1146z" fill="#eac102"/><path d="m333.2401 178.4781c.5205.8463.395 1.7238.0449 2.764-2.7945-1.6599-4.3547-1.1279-5.3954-2.5888l-1.2327-1.7305.7294-3.488 1.8872-1.4002c1.6252-1.2057 3.2684-.3987 6.2291-1.3959-.0908 1.067-.3295 1.933-1.1749 2.638 2.0223.3422 3.4196 1.6397 4.4702 3.1225-1.6134 1.2075-3.4811 2.1598-5.5576 2.0789z" fill="#eac102"/><path d="m327.7706 175.317c4.2556-.0505 5.4586.4923 9.2066.9011" fill="none"/><path d="m329.4331 166.6038c.8825-.6498 1.9827-.8828 2.9464-.6428-1.9105 2.9083-1.4943 4.6007-3.1633 5.9773l-1.8245 1.505-3.2849-.3394-1.1238-1.8095c-.9502-1.5302.027-3.2484-.5898-6.3648 1.0214-.0354 1.8296.1093 2.4087.9101.5778-2.1635 2.1941-3.9719 4.053-4.952.5526 1.8759 1.3983 3.5718.5782 5.7159z" fill="#eac102"/><path d="m325.9182 172.465c1.3877-3.6736 1.0537-6.4778 2.3296-9.7052" fill="none"/><path d="m322.9771 174.8219c-3.981-1.0828-5.6223-.3394-9.2554-.9948" fill="none"/><path d="m299.6803 167.9691c-3.3993 1.4038-4.8143.6541-6.2454 2.0013l-1.6776 1.5789v3.502l1.6776 1.5792c1.431 1.3472 2.8463.5972 6.2454 2.0012.1393-1.0605.0787-1.9377-.6554-2.7185 2.2024-.1313 3.9575-1.2593 5.3889-2.613-1.4314-1.3535-3.1864-2.4817-5.3889-2.6131.7341-.7808.7947-1.6577.6554-2.7182z" fill="#eac102"/><path d="m292.5759 173.3003h9.8032" fill="none"/><path d="m292.8449 173.3003c0 1.5625-1.2735 2.8291-2.8448 2.8291-1.5711 0-2.8448-1.2666-2.8448-2.8291s1.2737-2.8291 2.8448-2.8291c1.5712 0 2.8448 1.2666 2.8448 2.8291z" fill="#ed1c24" fill-rule="evenodd"/><path d="m273.9419 178.0923c0 1.2202-.9889 2.2094-2.2088 2.2094s-2.2089-.9892-2.2089-2.2094.989-2.2094 2.2089-2.2094 2.2088.9892 2.2088 2.2094z" fill="#e5e5e5" fill-rule="evenodd"/><path d="m290 201.0848c-42.3859 0-55.3468-4.4687-55.3468-5.1366s12.9609-5.1366 55.3468-5.1366c42.386 0 55.3468 4.4687 55.3468 5.1366s-12.9608 5.1366-55.3468 5.1366zm-41.8006.8886c-9.8696-1.2017-17.1629-3.0919-17.1629-6.025 0-6.8168 39.3933-8.0003 58.9635-8.0003 19.5704 0 58.9637 1.1835 58.9637 8.0003 0 2.9331-7.2934 4.8233-17.1628 6.025z" fill="#eac102" fill-rule="evenodd"/><path d="m255.6276 201.9733-21.6841 4.1073c-.4499-3.1335 1.1264-6.6166.4298-9.8583-.4137-1.925 18.121-5.6349 55.627-5.6349 37.5059 0 56.0406 3.7099 55.6269 5.6349-.6966 3.2417.8797 6.7248.4298 9.8583l-21.6841-4.1073z" fill="#eac102"/><path d="m252.9472 194.9313 10.8659-.9355c1.087-.0936 2.044.6343 2.146 1.632.1019.9977-.691 1.8762-1.7779 1.9697l-10.8659.9355c-1.0869.0936-2.0441-.6343-2.146-1.632-.102-.9977.691-1.8762 1.7778-1.9698z" fill="#008f4c" fill-rule="evenodd"/><path d="m246.2747 197.7943c0 1.2202-.9889 2.2094-2.2088 2.2094-1.2198 0-2.2088-.9892-2.2088-2.2094s.989-2.2094 2.2088-2.2094c1.2199 0 2.2088.9892 2.2088 2.2094z" fill="#e5e5e5" fill-rule="evenodd"/><path d="m275.7096 195.3961c0 1.2202-.9889 2.2094-2.2088 2.2094s-2.2088-.9892-2.2088-2.2094.9889-2.2094 2.2088-2.2094 2.2088.9892 2.2088 2.2094z" fill="#e5e5e5" fill-rule="evenodd"/><path d="m232.7166 200.6895 1.831-2.509 3.3225.6279-3.7217 3.2245z" fill="#ed1c24"/><path d="m284.1154 193.2205-3.0576 1.891 3.0576 1.8908h11.7693l3.0575-1.8908-3.0575-1.891z" fill="#ed1c24"/><path d="m326.9274 194.9313-10.8659-.9355c-1.0867-.0936-2.0438.6343-2.1458 1.632-.1021.9977.6909 1.8762 1.7777 1.9697l10.8659.9355c1.087.0936 2.0439-.6343 2.1459-1.632s-.6909-1.8762-1.7779-1.9698z" fill="#008f4c" fill-rule="evenodd"/><path d="m322.633 175.0055c0 1.5625 1.2735 2.8291 2.8447 2.8291s2.8448-1.2666 2.8448-2.8291-1.2735-2.8291-2.8448-2.8291c-1.5712 0-2.8447 1.2666-2.8447 2.8291z" fill="#ed1c24" fill-rule="evenodd"/><path d="m223.642 175.8376c-1.2828-3.1106-2.4589-5.1887-8.142-7.0152 2.6636-2.511 6.9908-2.4217 9.0564.9014.4239-.6825.6361-.8879 1.5035-1.4092.1904 2.0771 2.6762 4.1838.7638 7.3859l-1.8791 3.1468z" fill="#eac102"/><path d="m231.4922 180.633c.5516.6853.677 1.5383.6907 2.5925 0 0-2.8445-.8969-4.172-.8996-1.5159-.003-2.4697-.8664-2.6533-1.1517l-.7555-2.9871c1.4716-1.6157 1.9111-2.5877 2.9264-3.418 1.0138-.8289 2.4966-1.4212 3.6075-1.9999.1944 1.024.2411 1.8902-.1575 2.7351 1.4384-.1107 2.6858.8119 3.7453 1.9827-.7939 1.482-1.8191 2.7781-3.2317 3.146z" fill="#eac102"/><path d="m225.0369 179.5685c2.6708-1.2964 4.811-1.1538 7.8769-2.063" fill="none"/><path d="m225.3576 181.1741c-.4027.0892-.8238.0984-1.2535-.0002-1.5313-.3514-2.4912-1.8638-2.1439-3.3779.2117-.9232.8608-1.6238 1.682-1.9584 1.1924 1.1952 1.8893 3.5881 1.7154 5.3365z" fill="#ed1c24" fill-rule="evenodd"/><path d="m240.8332 181.8892c0 1.2202-.9889 2.2094-2.2088 2.2094-1.2198 0-2.2088-.9892-2.2088-2.2094s.989-2.2094 2.2088-2.2094c1.2199 0 2.2088.9892 2.2088 2.2094z" fill="#e5e5e5" fill-rule="evenodd"/><path d="m306.058 178.0923c0 1.2202.9889 2.2094 2.2088 2.2094s2.2089-.9892 2.2089-2.2094-.989-2.2094-2.2089-2.2094-2.2088.9892-2.2088 2.2094z" fill="#e5e5e5" fill-rule="evenodd"/><path d="m356.358 175.8376c1.2828-3.1106 2.4589-5.1887 8.142-7.0152-2.6636-2.511-6.9908-2.4217-9.0564.9014-.4239-.6825-.6361-.8879-1.5035-1.4092-.1904 2.0771-2.6762 4.1838-.7638 7.3859l1.8791 3.1468z" fill="#eac102"/><path d="m348.5077 180.633c-.5516.6853-.677 1.5383-.6907 2.5925 0 0 2.8445-.8969 4.172-.8996 1.5159-.003 2.4697-.8664 2.6533-1.1517l.7555-2.9871c-1.4716-1.6157-1.9111-2.5877-2.9264-3.418-1.0138-.8289-2.4966-1.4212-3.6075-1.9999-.1944 1.024-.2411 1.8902.1575 2.7351-1.4384-.1107-2.6858.8119-3.7453 1.9827.7939 1.482 1.8191 2.7781 3.2317 3.146z" fill="#eac102"/><path d="m354.963 179.5685c-2.6709-1.2964-4.811-1.1538-7.8769-2.063" fill="none"/><path d="m354.6423 181.1741c.4028.0892.8238.0984 1.2536-.0002 1.5313-.3514 2.4911-1.8638 2.1439-3.3779-.2117-.9232-.8608-1.6238-1.682-1.9584-1.1924 1.1952-1.8893 3.5881-1.7155 5.3365z" fill="#ed1c24" fill-rule="evenodd"/><path d="m339.1667 181.8892c0 1.2202.9889 2.2094 2.2088 2.2094 1.2198 0 2.2088-.9892 2.2088-2.2094s-.989-2.2094-2.2088-2.2094c-1.2199 0-2.2088.9892-2.2088 2.2094z" fill="#e5e5e5" fill-rule="evenodd"/><path d="m235.3104 207.5429.1959 3.3177c-2.2626-.8996-3.7213-2.0654-3.7213-3.3177 0-6.8168 38.893-8.0003 58.2149-8.0003s58.2149 1.1835 58.2149 8.0003c0 1.2523-1.4587 2.4181-3.7213 3.3177l.1959-3.3177c0-.6679-12.8419-5.1366-54.6895-5.1366-41.8477 0-54.6895 4.4687-54.6895 5.1366z" fill="#eac102" fill-rule="evenodd"/><path d="m333.7257 197.7943c0 1.2202.9889 2.2094 2.2088 2.2094 1.2198 0 2.2088-.9892 2.2088-2.2094s-.989-2.2094-2.2088-2.2094c-1.2199 0-2.2088.9892-2.2088 2.2094z" fill="#e5e5e5" fill-rule="evenodd"/><path d="m304.2908 195.3961c0 1.2202.9889 2.2094 2.2088 2.2094s2.2088-.9892 2.2088-2.2094-.9889-2.2094-2.2088-2.2094-2.2088.9892-2.2088 2.2094z" fill="#e5e5e5" fill-rule="evenodd"/><path d="m347.2838 200.6895-1.831-2.509-3.3225.6279 3.7217 3.2245z" fill="#ed1c24"/></g><g><path d="m339.8448 144.7628c1.8251-1.4333 4.2336-6.8092 5.356-9.5695l2.3633 1.1247c-1.8308 4.3945-3.3349 7.2483-4.6405 9.0247-.653.8883-1.2521 1.5237-1.9333 1.938z" fill="#eac102"/><path d="m240.1551 144.7628c-1.8251-1.4333-4.2336-6.8092-5.356-9.5695l-2.3633 1.1247c1.8308 4.3945 3.3349 7.2483 4.6405 9.0247.653.8883 1.2521 1.5237 1.9333 1.938z" fill="#eac102"/><path d="m273.8843 135.6552c-2.36 5.9736-10.2087 6.6943-14.5049 1.4274-1.6958 5.6512-9.0063 6.1603-13.3972 2.7415-.229-.1922-.4498-.3855-.6727-.5973-.007.5147-.0674 1.0485-.214 1.5859-1.5754 5.7705-9.2397 3.806-12.6618-4.4947l-1.9777-4.7975c-.2761-.6698.0374-1.5467.658-1.8406.6208-.294 1.4377.0476 1.713.7178l1.9699 4.7956c2.7247 6.6326 9.8101 9.5997 6.8658-.7982-.1983-.7004.1822-1.5333.8274-1.7581.6453-.2248 1.0318-.0248 1.392.6276 4.3583 7.8935 14.9102 8.4415 13.0932-1.526 0 0-.5288-2.9012-.7932-4.3517-.1279-.7011.3793-1.4529 1.0317-1.5891.6522-.1362 1.3819.3571 1.5099 1.0582l.7932 4.343c1.7079 9.3504 13.5526 8.8129 12.4815-.6875-.0781-.6921.4956-1.3698 1.1394-1.4528s1.3631.4283 1.4264 1.122c.8831 9.5574 14.1408 9.2694 14.1408.061v-4.5867c0-.7321.6089-1.4187 1.295-1.4187s1.295.6866 1.295 1.4187v4.5867c0 9.2084 13.2577 9.4964 14.1408-.061.0636-.6938.7827-1.205 1.4264-1.122.6438.083 1.2175.7606 1.1394 1.4528-1.0711 9.5005 10.7736 10.0379 12.4815.6875l.7932-4.343c.128-.7011.8577-1.1944 1.5099-1.0582.6524.1362 1.1596.888 1.0317 1.5891-.2645 1.4506-.7932 4.3517-.7932 4.3517-1.817 9.9675 8.7349 9.4194 13.0932 1.526.3602-.6525.7467-.8524 1.392-.6276.6453.2247 1.0257 1.0577.8274 1.7581-2.9444 10.398 4.1411 7.4308 6.8658.7982l1.97-4.7956c.2752-.6702 1.0922-1.0118 1.713-.7178.6207.294.9341 1.1708.658 1.8406l-1.9777 4.7975c-3.4221 8.3007-11.0864 10.2652-12.6618 4.4947-.1468-.5375-.2061-1.0712-.214-1.5859-.2229.2118-.4438.4051-.6728.5973-4.3909 3.4187-11.7014 2.9097-13.3972-2.7415-4.2962 5.2669-12.1448 4.5462-14.5049-1.4274-4.5051 6.2778-12.9037 5.3075-16.1156-.2995-3.212 5.607-11.6105 6.5773-16.1157.2995z" fill="#eac102"/><path d="m266.4011 128.2933c.845.7054 1.084 1.5711 1.1745 2.6383-3.0606-1.0214-4.5622-.1471-6.2275-1.3883l-1.8889-1.408-.7295-3.488 1.2345-1.7226c1.0484-1.4629 3.1423-1.0979 5.394-2.5968.3501 1.0405.4756 1.9181-.0449 2.7643 2.0766-.0813 3.9459.8789 5.5594 2.0864-1.0509 1.4828-2.4497 2.7725-4.4715 3.1146z" fill="#eac102"/><path d="m249.6054 130.0282c-.5207.8463-.3949 1.7238-.0449 2.764 2.7945-1.6599 4.3545-1.1279 5.3954-2.5888l1.2328-1.7305-.7296-3.488-1.8872-1.4002c-1.6252-1.2057-3.2685-.3987-6.2291-1.3959.0907 1.067.3294 1.933 1.1748 2.638-2.0222.3422-3.4194 1.6397-4.4702 3.1225 1.6135 1.2075 3.4811 2.1598 5.5576 2.0789z" fill="#eac102"/><path d="m255.075 126.8673c-4.2556-.0506-5.4588.4923-9.2066.9012" fill="none"/><path d="m253.4123 118.154c-.8823-.6498-1.9825-.8828-2.9463-.6428 1.9106 2.9083 1.4943 4.6007 3.1634 5.9773l1.8245 1.505 3.2849-.3394 1.1237-1.8096c.9501-1.5302-.0262-3.2484.5896-6.3648-1.0213-.0354-1.8296.1093-2.4087.9101-.5779-2.1635-2.1941-3.9719-4.053-4.952-.5526 1.8759-1.3984 3.5718-.5782 5.7159z" fill="#eac102"/><path d="m256.9272 124.0152c-1.3875-3.6735-1.0537-6.4778-2.3297-9.7052" fill="none"/><path d="m259.8683 126.3721c3.981-1.0828 5.6224-.3394 9.2554-.9948" fill="none"/><path d="m260.2126 126.5557c0 1.5625-1.2738 2.8291-2.8449 2.8291-1.5709 0-2.8448-1.2666-2.8448-2.8291s1.2738-2.8291 2.8448-2.8291c1.5712 0 2.8449 1.2666 2.8449 2.8291z" fill="#ed1c24" fill-rule="evenodd"/><path d="m280.3199 119.5193c3.3992 1.4038 4.8142.6541 6.2455 2.0013l1.6776 1.5789v3.502l-1.6776 1.5792c-1.4311 1.3471-2.8462.5972-6.2455 2.0012-.1395-1.0605-.0786-1.9377.6554-2.7185-2.2024-.1313-3.9575-1.2593-5.3889-2.613 1.4315-1.3535 3.1867-2.4817 5.3889-2.6131-.734-.7808-.7949-1.6577-.6554-2.7182z" fill="#eac102"/><path d="m287.4244 124.8505h-9.8031" fill="none"/><path d="m291.7603 123.1026 1.5875-1.669c1.3541-1.4236.6003-2.8312 2.0117-6.2129-1.0662-.1386-1.9479-.0782-2.7327.652-.1321-2.191-1.266-3.937-2.6268-5.3613-1.3607 1.4243-2.4946 3.1703-2.6266 5.3613-.7848-.7302-1.6667-.7906-2.7326-.652 1.4112 3.3818.6575 4.7893 2.0116 6.2129l1.5874 1.669z" fill="#eac102"/><path d="m290 122.2884v-9.7524" fill="none"/><path d="m299.6802 119.5193c-3.3993 1.4038-4.8143.6541-6.2455 2.0013l-1.6776 1.5789v3.502l1.6776 1.5792c1.4311 1.3471 2.8464.5972 6.2455 2.0012.1393-1.0605.0787-1.9377-.6554-2.7185 2.2024-.1313 3.9575-1.2593 5.3889-2.613-1.4314-1.3535-3.1864-2.4817-5.3889-2.6131.7341-.7808.7947-1.6577.6554-2.7182z" fill="#eac102"/><path d="m292.5758 124.8505h9.8032" fill="none"/><path d="m292.8448 124.8505c0 1.5625-1.2735 2.8291-2.8448 2.8291-1.5712 0-2.8448-1.2666-2.8448-2.8291s1.2736-2.8291 2.8448-2.8291 2.8448 1.2666 2.8448 2.8291z" fill="#ed1c24" fill-rule="evenodd"/><path d="m275.4106 129.6424c0 1.2202-.9889 2.2094-2.2088 2.2094-1.2198 0-2.2088-.9892-2.2088-2.2094s.989-2.2094 2.2088-2.2094c1.2199 0 2.2088.9892 2.2088 2.2094z" fill="#e5e5e5" fill-rule="evenodd"/><path d="m290 152.635c-38.978 0-50.8968-4.4687-50.8968-5.1366s11.9188-5.1366 50.8968-5.1366c38.9781 0 50.8968 4.4687 50.8968 5.1366 0 .6678-11.9187 5.1366-50.8968 5.1366zm-38.4397.8886c-9.0761-1.2017-15.783-3.0919-15.783-6.025 0-6.8168 36.226-8.0003 54.2227-8.0003 17.997 0 54.2228 1.1835 54.2228 8.0003 0 2.9331-6.707 4.8233-15.7829 6.025z" fill="#eac102" fill-rule="evenodd"/><path d="m321.8499 153.5236 20.0013 4.1073c-.5586-3.2984-.4402-6.7594-.6966-9.8583-.1594-1.9264-16.6641-5.6349-51.1545-5.6349s-50.9951 3.7085-51.1545 5.6349c-.2565 3.0989-.138 6.5599-.6966 9.8583l20.0013-4.1073z" fill="#eac102"/><path d="m255.9263 146.4816 9.9923-.9355c.9996-.0936 1.8797.6343 1.9735 1.632.0937.9977-.6355 1.8762-1.6349 1.9698l-9.9923.9355c-.9995.0936-1.8797-.6343-1.9735-1.632-.0937-.9977.6355-1.8762 1.6349-1.9697z" fill="#008f4c" fill-rule="evenodd"/><path d="m249.9901 149.3445c0 1.2202-.9889 2.2094-2.2088 2.2094-1.2198 0-2.2088-.9892-2.2088-2.2094s.989-2.2094 2.2088-2.2094c1.2199 0 2.2088.9892 2.2088 2.2094z" fill="#e5e5e5" fill-rule="evenodd"/><path d="m277.0361 146.9464c0 1.2202-.9889 2.2094-2.2088 2.2094-1.2198 0-2.2088-.9892-2.2088-2.2094s.989-2.2094 2.2088-2.2094c1.2199 0 2.2088.9892 2.2088 2.2094z" fill="#e5e5e5" fill-rule="evenodd"/><path d="m236.9159 152.4546 1.8215-2.509 2.9176.6279-3.089 3.2245z" fill="#ed1c24"/><path d="m284.5885 144.7707-2.8118 1.891 2.8118 1.8908h10.823l2.8117-1.8908-2.8117-1.891z" fill="#ed1c24"/><path d="m323.9584 146.4816-9.9923-.9355c-.9994-.0936-1.8795.6343-1.9732 1.632-.0939.9977.6353 1.8762 1.6348 1.9698l9.9923.9355c.9995.0936 1.8796-.6343 1.9733-1.632.0938-.9977-.6354-1.8762-1.635-1.9697z" fill="#008f4c" fill-rule="evenodd"/><path d="m229.6319 127.3878c-1.2828-3.1106-2.4589-5.1887-8.142-7.0152 2.6636-2.511 6.9908-2.4218 9.0564.9014.4239-.6825.6361-.8879 1.5035-1.4092.1904 2.0771 2.6762 4.1838.7638 7.3859l-1.8791 3.1468z" fill="#eac102"/><path d="m237.4821 132.1832c.5516.6853.677 1.5383.6907 2.5925 0 0-2.8445-.8969-4.172-.8996-1.5159-.003-2.4697-.8664-2.6533-1.1518l-.7555-2.9871c1.4716-1.6157 1.9111-2.5877 2.9264-3.418 1.0138-.8289 2.4966-1.4212 3.6075-1.9999.1944 1.024.2411 1.8902-.1575 2.7351 1.4384-.1107 2.6858.8119 3.7453 1.9827-.7939 1.482-1.8191 2.7781-3.2317 3.146z" fill="#eac102"/><path d="m231.0269 131.1187c2.6708-1.2964 4.811-1.1538 7.8769-2.063" fill="none"/><path d="m231.3475 132.7243c-.4027.0892-.8238.0984-1.2535-.0002-1.5313-.3514-2.4912-1.8638-2.1439-3.3779.2117-.9232.8608-1.6238 1.682-1.9584 1.1924 1.1952 1.8893 3.5881 1.7154 5.3365z" fill="#ed1c24" fill-rule="evenodd"/><path d="m244.9639 133.4394c0 1.2202-.9889 2.2094-2.2088 2.2094-1.2198 0-2.2088-.9892-2.2088-2.2094s.989-2.2094 2.2088-2.2094c1.2199 0 2.2088.9892 2.2088 2.2094z" fill="#e5e5e5" fill-rule="evenodd"/><path d="m313.599 128.2933c-.845.7054-1.084 1.5711-1.1745 2.6383 3.0606-1.0214 4.5622-.1471 6.2275-1.3883l1.8889-1.408.7295-3.488-1.2345-1.7226c-1.0484-1.4629-3.1424-1.0979-5.3941-2.5968-.3501 1.0405-.4756 1.9181.0449 2.7643-2.0766-.0813-3.946.8789-5.5594 2.0864 1.0509 1.4828 2.4498 2.7725 4.4716 3.1146z" fill="#eac102"/><path d="m330.3946 130.0282c.5207.8463.395 1.7238.0449 2.764-2.7945-1.6599-4.3545-1.1279-5.3954-2.5888l-1.2327-1.7305.7295-3.488 1.8872-1.4002c1.6252-1.2057 3.2685-.3987 6.2291-1.3959-.0907 1.067-.3295 1.933-1.1748 2.638 2.0222.3422 3.4194 1.6397 4.4702 3.1225-1.6135 1.2075-3.4811 2.1598-5.5576 2.0789z" fill="#eac102"/><path d="m324.9251 126.8673c4.2556-.0506 5.4588.4923 9.2066.9012" fill="none"/><path d="m326.5877 118.154c.8823-.6498 1.9826-.8828 2.9464-.6428-1.9106 2.9083-1.4943 4.6007-3.1634 5.9773l-1.8245 1.505-3.2849-.3394-1.1237-1.8096c-.9501-1.5302.0262-3.2484-.5896-6.3648 1.0213-.0354 1.8296.1093 2.4087.9101.5779-2.1635 2.1941-3.9719 4.053-4.952.5526 1.8759 1.3984 3.5718.5782 5.7159z" fill="#eac102"/><path d="m323.0728 124.0152c1.3875-3.6735 1.0536-6.4778 2.3297-9.7052" fill="none"/><path d="m320.1317 126.3721c-3.981-1.0828-5.6224-.3394-9.2554-.9948" fill="none"/><path d="m319.7875 126.5557c0 1.5625 1.2738 2.8291 2.8449 2.8291 1.571 0 2.8448-1.2666 2.8448-2.8291s-1.2738-2.8291-2.8448-2.8291c-1.5711 0-2.8449 1.2666-2.8449 2.8291z" fill="#ed1c24" fill-rule="evenodd"/><path d="m350.3681 127.3878c1.2828-3.1106 2.4589-5.1887 8.142-7.0152-2.6636-2.511-6.9908-2.4218-9.0564.9014-.4239-.6825-.6361-.8879-1.5035-1.4092-.1904 2.0771-2.6762 4.1838-.7638 7.3859l1.8791 3.1468z" fill="#eac102"/><path d="m342.5179 132.1832c-.5516.6853-.677 1.5383-.6907 2.5925 0 0 2.8445-.8969 4.172-.8996 1.5159-.003 2.4697-.8664 2.6533-1.1518l.7555-2.9871c-1.4716-1.6157-1.9111-2.5877-2.9264-3.418-1.0138-.8289-2.4966-1.4212-3.6075-1.9999-.1944 1.024-.2411 1.8902.1575 2.7351-1.4384-.1107-2.6858.8119-3.7453 1.9827.7939 1.482 1.8191 2.7781 3.2317 3.146z" fill="#eac102"/><path d="m348.9731 131.1187c-2.6708-1.2964-4.811-1.1538-7.8769-2.063" fill="none"/><path d="m348.6525 132.7243c.4028.0892.8238.0984 1.2536-.0002 1.5313-.3514 2.4912-1.8638 2.1439-3.3779-.2117-.9232-.8608-1.6238-1.682-1.9584-1.1924 1.1952-1.8893 3.5881-1.7155 5.3365z" fill="#ed1c24" fill-rule="evenodd"/><path d="m304.5894 129.6424c0 1.2202.9889 2.2094 2.2088 2.2094 1.2198 0 2.2088-.9892 2.2088-2.2094s-.989-2.2094-2.2088-2.2094c-1.2199 0-2.2088.9892-2.2088 2.2094z" fill="#e5e5e5" fill-rule="evenodd"/><path d="m302.9639 146.9464c0 1.2202.9889 2.2094 2.2088 2.2094 1.2198 0 2.2088-.9892 2.2088-2.2094s-.989-2.2094-2.2088-2.2094c-1.2199 0-2.2088.9892-2.2088 2.2094z" fill="#e5e5e5" fill-rule="evenodd"/><path d="m335.0361 133.4394c0 1.2202.9889 2.2094 2.2088 2.2094 1.2198 0 2.2088-.9892 2.2088-2.2094s-.989-2.2094-2.2088-2.2094c-1.2199 0-2.2088.9892-2.2088 2.2094z" fill="#e5e5e5" fill-rule="evenodd"/><path d="m330.0102 149.3445c0 1.2202.9889 2.2094 2.2088 2.2094 1.2198 0 2.2088-.9892 2.2088-2.2094s-.989-2.2094-2.2088-2.2094c-1.2199 0-2.2088.9892-2.2088 2.2094z" fill="#e5e5e5" fill-rule="evenodd"/><path d="m343.0844 152.4546-1.8215-2.509-2.9176.6279 3.089 3.2245z" fill="#ed1c24"/><path d="m340.8966 159.0931.6056 2.9925c1.8254-.855 2.7204-1.834 2.7204-2.9925 0-6.8168-36.226-8.0003-54.2227-8.0003s-54.2227 1.1835-54.2227 8.0003c0 1.1586.895 2.1376 2.7204 2.9925l.6056-2.9925c0-.6679 11.9188-5.1366 50.8967-5.1366s50.8967 4.4687 50.8967 5.1366z" fill="#eac102" fill-rule="evenodd"/></g></g></g><path d="m1.5 69.5c24.083 24.098 40 54.636 40 90.5v354.75c0 68.898 54.852 123.75 123.75 123.75h62.375c27.289 0 50.92 17.163 62.375 40 11.455-22.837 35.086-40 62.375-40h62.375c68.898 0 123.75-54.852 123.75-123.75v-354.75c0-35.864 15.917-66.402 40-90.5l-68-68-18.7 18.7c-13.233 13.233-31.607 21.3-51.8 21.3h-300c-20.193 0-38.567-8.067-51.8-21.3l-18.7-18.7z" fill="none" stroke="#000" stroke-linecap="round" stroke-linejoin="round" stroke-width="3"/></svg>