<?xml version="1.0" encoding="utf-8"?><!DOCTYPE svg PUBLIC "-//W3C//DTD SVG 1.1//EN" "http://www.w3.org/Graphics/SVG/1.1/DTD/svg11.dtd"><svg viewBox="0 0 650 760" xmlns="http://www.w3.org/2000/svg"><g stroke="#000" stroke-linecap="round" stroke-linejoin="round"><path d="m34.5471 710.8318c11.9426 5.7814 33.9187 6.2735 44.2598-.945-15.3182-3.8096-25.268-18.9317-25.0805-40.1631z" fill="#800080"/><path d="m38.4813 604.9903c12.107 69.5798-44.3953 30.7946-37.3749 90.2488 3.7404-6.0932 11.199-13.5945 17.9498-15.829-16.4277 51.4164 16.4543 78.4585 44.9974 80.0899-56.9488-67.1851 33.0615-82.3769-18.6875-164.4323z" fill="#800080"/><path d="m19.0562 679.4101c6.8476-1.9114 13.7602-7.1181 16.9662-10.6314" fill="none"/><path d="m338.5823 736.4742c0-7.5014-6.081-13.5824-13.5823-13.5824-7.5014 0-13.5823 6.081-13.5823 13.5824s6.081 13.5823 13.5823 13.5823c7.5014 0 13.5823-6.081 13.5823-13.5823z" fill="#800080"/><path d="m103.7359 729.1729c-6.3934 5.2639-11.0071 16.034-10.777 24.9718 20.5717-4.9511 51.0949.0477 73.5469 2.9519z" fill="#800080"/><path d="m257.821 736.897c-.8056 11.2645 7.0275 21.5937 20.0214 22.523 35.591 2.54 40.4288-56.2257-9.479-59.795-37.4191-2.6761-42.2368 27.4229-82.9386 26.797-27.0491-.4159-19.1349-25.676-9.8053-30.209-17.0309-10.3397-36.8341-.8681-31.4804 22.338-23.4433-19.3345-59.4107-16.6754-74.1756 13.888 46.4878-5.7393 59.2474 26.388 98.4589 26.991 59.244.911 73.8552-56.4447 112.1734-37.833-9.0373-3.9853-21.8434 2.2772-22.7748 15.3z" fill="#800080"/><path d="m280.5957 721.5975c13.7473 7.0785 7.8533 24.608-3.2656 21.5522" fill="none"/><path d="m144.1391 718.5506c1.4477 5.663 8.7908 11.5548 14.5634 13.4437" fill="none"/><path d="m338.5823 38.387c0 7.5014-6.081 13.5823-13.5823 13.5823-7.5014 0-13.5823-6.081-13.5823-13.5823s6.081-13.5823 13.5823-13.5823c7.5014 0 13.5823 6.081 13.5823 13.5823z" fill="#800080"/><path d="m103.7359 30.8272c-6.3934-5.2639-11.0071-16.034-10.777-24.9718 20.5717 4.9511 51.0949-.0477 73.5469-2.9519z" fill="#800080"/><path d="m257.821 23.103c-.8056-11.2645 7.0275-21.5934 20.0214-22.5227 35.591-2.5454 40.4288 56.2254-9.479 59.7948-37.4191 2.6761-42.2368-27.4226-82.9386-26.7967-27.0491.4159-19.1349 25.6753-9.8053 30.2083-17.031 10.3397-36.8341.8687-31.4804-22.3374-23.4433 19.3345-59.4107 16.6753-74.1756-13.8881 46.4878 5.7393 59.2474-26.3884 98.4589-26.9914 59.244-.911 73.8552 56.4444 112.1734 37.8327-9.0373 3.9853-21.8434-2.2767-22.7748-15.2995z" fill="#800080"/><path d="m280.5957 38.4025c13.7473-7.0785 7.8533-24.608-3.2656-21.5522" fill="none"/><path d="m144.1391 41.4494c1.4477-5.663 8.7908-11.5548 14.5634-13.4437" fill="none"/><path d="m64.5131 380c0 7.5014-6.081 13.5823-13.5823 13.5823-7.5014 0-13.5823-6.081-13.5823-13.5823 0-7.5014 6.081-13.5823 13.5823-13.5823 7.5014 0 13.5823 6.081 13.5823 13.5823z" fill="#800080"/><path d="m34.5471 49.1682c11.9426-5.7814 33.9187-6.2735 44.2598.945-15.3182 3.8096-25.268 18.9317-25.0805 40.1631z" fill="#800080"/><path d="m38.4813 155.0097c12.107-69.5798-44.3953-30.7946-37.3749-90.2488 3.7404 6.0932 11.199 13.5945 17.9498 15.829-16.4277-51.4164 16.4543-78.4585 44.9974-80.0899-56.9488 67.1851 33.0615 82.3769-18.6875 164.4323z" fill="#800080"/><path d="m19.0562 80.5899c6.8476 1.9114 13.7602 7.1181 16.9662 10.6314" fill="none"/><path d="m26.177 163.0066c-5.7066-6.0016-16.7784-9.8353-25.677-8.9682 6.406 20.1661 3.5974 50.9681 2.3022 73.5701z" fill="#800080"/><path d="m29.4645 317.2501c-11.2933 0-21.0371 8.55-21.0371 21.5771 0 35.6819 58.9662 36.3149 58.9662-13.7204 0-37.5147-30.3657-40.1729-32.6449-80.8158-1.5147-27.0098 24.2448-20.9177 29.4319-11.9353 9.0984-17.7252-1.7611-36.8022-24.5261-29.8067 17.6129-24.7628 12.3947-60.4489-19.1442-72.9959 9.0409 45.96-22.0947 60.9789-19.899 100.1335 3.3175 59.158 61.5692 69.6405 45.7383 109.1888 3.3305-9.2985-3.8292-21.6253-16.8852-21.6253z" fill="#800080"/><path d="m46.3496 338.8754c-6.0798 14.2172-23.9851 9.5887-21.7303-1.7198" fill="none"/><path d="m39.6544 202.5491c-5.5453 1.848-10.8983 9.5926-12.3706 15.4853" fill="none"/><path d="m26.177 596.9934c-5.7066 6.0016-16.7784 9.8353-25.677 8.9681 6.406-20.1661 3.5974-50.9681 2.3022-73.5701z" fill="#800080"/><path d="m29.4645 442.7499c-11.2933 0-21.0371-8.55-21.0371-21.5771 0-35.6819 58.9662-36.3149 58.9662 13.7204 0 37.5147-30.3657 40.1729-32.6449 80.8158-1.5147 27.0098 24.2448 20.9177 29.4319 11.9353 9.0984 17.7252-1.7611 36.8022-24.5261 29.8067 17.6129 24.7628 12.3947 60.4489-19.1442 72.9959 9.0409-45.96-22.0947-60.9789-19.899-100.1335 3.3175-59.158 61.5692-69.6405 45.7383-109.1888 3.3305 9.2985-3.8292 21.6253-16.8852 21.6253z" fill="#800080"/><path d="m46.3496 421.1246c-6.0798-14.2172-23.9851-9.5887-21.7303 1.7198" fill="none"/><path d="m39.6544 557.4509c-5.5453-1.848-10.8983-9.5926-12.3706-15.4853" fill="none"/><path d="m615.453 710.8318c-11.9426 5.7814-33.9187 6.2735-44.2598-.945 15.3182-3.8096 25.268-18.9317 25.0805-40.1631z" fill="#800080"/><path d="m611.5187 604.9903c-12.107 69.5798 44.3953 30.7946 37.3749 90.2488-3.7404-6.0932-11.199-13.5945-17.9498-15.829 16.4277 51.4164-16.4543 78.4585-44.9974 80.0899 56.9488-67.1851-33.0615-82.3769 18.6875-164.4323z" fill="#800080"/><path d="m630.9438 679.4101c-6.8476-1.9114-13.7602-7.1181-16.9662-10.6314" fill="none"/><path d="m546.2642 729.1729c6.3934 5.2639 11.0071 16.034 10.777 24.9718-20.5717-4.9511-51.0949.0477-73.5469 2.9519z" fill="#800080"/><path d="m392.179 736.897c.8056 11.2645-7.0275 21.5937-20.0214 22.523-35.591 2.54-40.4288-56.2257 9.479-59.795 37.4191-2.6761 42.2368 27.4229 82.9386 26.797 27.0491-.4159 19.1349-25.676 9.8053-30.209 17.0309-10.3397 36.8341-.8681 31.4804 22.338 23.4433-19.3345 59.4107-16.6754 74.1756 13.888-46.4878-5.7393-59.2474 26.388-98.4589 26.991-59.244.911-73.8552-56.4447-112.1734-37.833 9.0373-3.9853 21.8434 2.2772 22.7748 15.3z" fill="#800080"/><path d="m369.4043 721.5975c-13.7473 7.0785-7.8533 24.608 3.2656 21.5522" fill="none"/><path d="m505.8609 718.5506c-1.4477 5.663-8.7908 11.5548-14.5634 13.4437" fill="none"/><path d="m546.2642 30.8272c6.3934-5.2639 11.0071-16.034 10.777-24.9718-20.5717 4.9511-51.0949-.0477-73.5469-2.9519z" fill="#800080"/><path d="m392.179 23.103c.8056-11.2645-7.0275-21.5934-20.0214-22.5227-35.591-2.5454-40.4288 56.2254 9.479 59.7948 37.4191 2.6761 42.2368-27.4226 82.9386-26.7967 27.0491.4159 19.1349 25.6753 9.8053 30.2083 17.031 10.3397 36.8341.8687 31.4804-22.3374 23.4433 19.3345 59.4107 16.6753 74.1756-13.8881-46.4878 5.7393-59.2474-26.3884-98.4589-26.9914-59.244-.911-73.8552 56.4444-112.1734 37.8327 9.0373 3.9853 21.8434-2.2767 22.7748-15.2995z" fill="#800080"/><path d="m369.4043 38.4025c-13.7473-7.0785-7.8533-24.608 3.2656-21.5522" fill="none"/><path d="m505.8609 41.4494c-1.4477-5.663-8.7908-11.5548-14.5634-13.4437" fill="none"/><path d="m585.4869 380c0 7.5014 6.081 13.5823 13.5823 13.5823 7.5014 0 13.5823-6.081 13.5823-13.5823 0-7.5014-6.081-13.5823-13.5823-13.5823-7.5014 0-13.5823 6.081-13.5823 13.5823z" fill="#800080"/><path d="m615.453 49.1682c-11.9426-5.7814-33.9187-6.2735-44.2598.945 15.3182 3.8096 25.268 18.9317 25.0805 40.1631z" fill="#800080"/><path d="m611.5187 155.0097c-12.107-69.5798 44.3953-30.7946 37.3749-90.2488-3.7404 6.0932-11.199 13.5945-17.9498 15.829 16.4277-51.4164-16.4543-78.4585-44.9974-80.0899 56.9488 67.1851-33.0615 82.3769 18.6875 164.4323z" fill="#800080"/><path d="m630.9438 80.5899c-6.8476 1.9114-13.7602 7.1181-16.9662 10.6314" fill="none"/><path d="m623.823 163.0066c5.7066-6.0016 16.7784-9.8353 25.677-8.9682-6.406 20.1661-3.5974 50.9681-2.3022 73.5701z" fill="#800080"/><path d="m620.5356 317.2501c11.2933 0 21.0371 8.55 21.0371 21.5771 0 35.6819-58.9662 36.3149-58.9662-13.7204 0-37.5147 30.3657-40.1729 32.6449-80.8158 1.5147-27.0098-24.2448-20.9177-29.4319-11.9353-9.0984-17.7252 1.7611-36.8022 24.5261-29.8067-17.6129-24.7628-12.3947-60.4489 19.1442-72.9959-9.0409 45.96 22.0947 60.9789 19.899 100.1335-3.3175 59.158-61.5692 69.6405-45.7383 109.1888-3.3305-9.2985 3.8292-21.6253 16.8852-21.6253z" fill="#800080"/><path d="m603.6504 338.8754c6.0798 14.2172 23.9851 9.5887 21.7303-1.7198" fill="none"/><path d="m610.3456 202.5491c5.5453 1.848 10.8983 9.5926 12.3706 15.4853" fill="none"/><path d="m623.823 596.9934c5.7066 6.0016 16.7784 9.8353 25.677 8.9681-6.406-20.1661-3.5974-50.9681-2.3022-73.5701z" fill="#800080"/><path d="m620.5356 442.7499c11.2933 0 21.0371-8.55 21.0371-21.5771 0-35.6819-58.9662-36.3149-58.9662 13.7204 0 37.5147 30.3657 40.1729 32.6449 80.8158 1.5147 27.0098-24.2448 20.9177-29.4319 11.9353-9.0984 17.7252 1.7611 36.8022 24.5261 29.8067-17.6129 24.7628-12.3947 60.4489 19.1442 72.9959-9.0409-45.96 22.0947-60.9789 19.899-100.1335-3.3175-59.158-61.5692-69.6405-45.7383-109.1888-3.3305 9.2985 3.8292 21.6253 16.8852 21.6253z" fill="#800080"/><path d="m603.6504 421.1246c6.0798-14.2172 23.9851-9.5887 21.7303 1.7198" fill="none"/><path d="m610.3456 557.4509c5.5453-1.848 10.8983-9.5926 12.3706-15.4853" fill="none"/></g><path d="m75.5 80.5v474.25c0 68.898 55.852 124.75 124.75 124.75h62.375c27.289 0 50.92 17.163 62.375 40 11.455-22.837 35.086-40 62.375-40h62.375c68.898 0 124.75-55.852 124.75-124.75v-474.25z" fill="#e5e5e5" stroke="#000" stroke-linecap="round" stroke-linejoin="round"/><g stroke="#000" stroke-linecap="round" stroke-linejoin="round"><path d="m165.5 283.7828c1.3919 2.8913 10.117 13.7161 15.4532 10.6334 3.8765-2.2395 3.5248-5.3143 1.9994-7.7252-1.5011-2.3726-15.1558-2.238-17.4526-2.9082z" fill="#e5e5e5"/><path d="m168.2834 272.0797c.8405 3.0797 7.4473 15.1979 13.2658 13.0562 4.2269-1.5558 4.4441-4.6421 3.3841-7.271-1.0432-2.5873-14.5114-4.7409-16.6499-5.7852z" fill="#e5e5e5"/><path d="m176.0586 253.742c.572 3.1354 6.1107 15.7332 12.0941 14.0575 4.3467-1.2173 4.8294-4.2759 3.9999-6.9795-.8164-2.6607-14.0529-5.8687-16.094-7.078z" fill="#e5e5e5"/><path d="m181.343 247.9382c3.3148-.3004 17.4888 1.4805 17.3775 7.4393-.0809 4.3289-3.0397 5.5813-5.9868 5.5302-2.9003-.0504-9.6316-11.407-11.3907-12.9696z" fill="#e5e5e5"/><path d="m171.691 262.3796c.5719 3.1354 6.1107 15.7332 12.0941 14.0575 4.3467-1.2173 4.8295-4.2759 3.9999-6.9795-.8164-2.6607-14.0529-5.8687-16.094-7.078z" fill="#e5e5e5"/><path d="m349.646 255.434c-30.1422-2.9438-59.5736 11.7473-84.9625 20.1636-8.231 2.7286-22.0287 4.282-37.4959-4.8704-10.7248-6.3462-25.3531-21.0304-35.4736-15.675-7.5107 3.9744-18.86 35.177-11.8214 41.016 6.3743 5.2878 28.6108 10.7563 38.1933 11.4981 12.8793 7.6931 17.6525 10.7492 28.2693 15.9773 19.3646 9.5359 44.6237 5.612 59.9045 9.6448 28.3628 7.4853 35.9537 1.2026 44.7025-1.5119" fill="#c87137" fill-rule="evenodd"/><path d="m198.1175 263.719c-6.1988 3.0184-10.6379 15.5837-10.1857 23.6852.4062 7.2772 18.5545 10.3975 24.0287 9.8956 7.8443-.7193 16.0998-15.8002 9.7129-21.0265-4.6957-3.8424-18.0947-15.2135-23.5559-12.5542z" fill="none"/><path d="m330.146 437.2639c-7.8105 5.777-34.6077 48.3747-36.797 69.8798-3.1017 30.4677 10.3801 43.6579 8.8433 79.3133-8.7598 2.0773-40.9353 6.7957-42.3766 17.6587-.735 5.5397 5.8943 9.1966 5.9083 15.3842h74.299c25.8027 0 9.4727-25.5973 9.1108-31.0947-.5234-7.9492.4554-13.877-.5047-21.4446-2.1359-16.8329 25.1582-39.3104 34.081-48.4187" fill="#c87137"/><path d="m248.1702 619.4999c10.101 0 23.8706-7.7511 20.0881-14.5844-5.8462-10.5614-17.9799 8.2366-20.0881 14.5844z" fill="#e5e5e5"/><path d="m254.0958 619.4999c6.1958 0 24.2396-5.9359 20.8059-12.6364-4.513-8.8068-18.2135 6.4882-20.8059 12.6364z" fill="#e5e5e5"/><path d="m260.1355 619.4063c5.9934 0 25.6127 1.5243 21.1225-7.7264-4.3695-9.0023-18.7429 3.8024-21.1225 7.7264z" fill="#e5e5e5"/><path d="m294.477 161.4156c1.7836-8.5485-2.8811-20.9157-12.7834-20.9157-7.0697 0-12.4286 6.6539-14.0253 11.7534" fill="#c87137"/><path d="m453.6277 516.684c18.1359-36.5971 30.8723-55.3813 30.8723-108.456 0-50.4519-21.6571-80.5731-40.2842-116.1114-22.5101-42.9467-33.2868-74.115-57.5483-87.5279-24.1585-13.356-57.573-32.7206-71.5393-43.173 1.7837-8.5485-2.881-20.9157-12.7833-20.9157-7.0697 0-13.1637 4.6045-16.7819 9.1451-13.0226-3.22-34.7556-.4036-45.204 6.3709-5.071 3.2879-8.48 11.7621-8.48 11.7621-9.5538 2.3986-25.2027 7.0606-34.535 10.8644-4.6324 1.8881-7.8937 3.636-7.8937 5.2067 0 2.706 1.2321 6.3278 3.0289 10.2902 1.6943 3.7364 4.055 7.2756 6.8002 9.2967 3.5162 2.5887 17.8356-1.7314 22.1484 2.1309 3.7796 3.3847-15.8385-.7088-18.509 3.5126-1.871 2.9576 1.6996 8.4033 4.6098 10.3971 7.1707 4.9125 27.2991 2.7895 44.6304 7.2837 15.0328 3.8982 49.4073 32.2524 50.1873 126.6383.4788 57.9252 19.5996 137.454 77.3289 153.1272" fill="#c87137"/><path d="m239.8403 172.2251c3.553-2.3493 14.0699-2.0833 14.7942-.1639 1.2998 3.4439-6.6773 3.6449-11.0395 9.3142 1.826-4.5825 1.7459-8.2163-3.7547-9.1502z" fill="#e5e5e5"/><path d="m244.2913 179.3329c-1.0908-.188-2.3702-2.0069-2.8558-4.0633-.4857-2.0566.005-3.5717 1.0961-3.3837 1.0918.1881 2.371 2.007 2.8569 4.0628.4861 2.0567-.004 3.5725-1.0972 3.3841z"/><path d="m196.8909 187.1694c1.0238-2.9594 5.1423-1.9431.4532-8.527-4.6324 1.8881-7.8937 3.636-7.8937 5.2067 0 2.706 1.2321 6.3278 3.0289 10.2902 3.4933.4052 3.7086-4.9375 4.4117-6.9699z"/><path d="m307.712 159.6468s1.299-9.9658-6.077-10.3238c-7.8077-.379-7.4266 6.7918-7.4266 6.7918 4.5664.5432 7.7491 3.3072 6.1992 7.9433" fill="none"/><path d="m360.3382 435.3739c-5.5833 8.002-12.6085 41.3982-7.1568 60.0986 12.5507 43.0512 47.3945 56.6928 57.1631 90.9807-8.7598 2.0773-40.9704 6.7995-42.4117 17.6625-.735 5.5397 5.8943 9.1966 5.9083 15.3842h74.299c25.8027 0 9.4728-25.5973 9.1109-31.0947-.5233-7.9492-1.3362-14.3862-4.0623-21.6095-4.3512-11.5299-5.1496-38.5927.439-50.1117" fill="#c87137"/><path d="m356.2874 619.4999c10.1009 0 23.8705-7.7511 20.088-14.5844-5.8461-10.5614-17.9799 8.2366-20.088 14.5844z" fill="#e5e5e5"/><path d="m362.213 619.4999c6.1957 0 24.2396-5.9359 20.8059-12.6364-4.513-8.8068-18.2135 6.4882-20.8059 12.6364z" fill="#e5e5e5"/><path d="m368.2527 619.4063c5.9933 0 25.6127 1.5243 21.1225-7.7264-4.3696-9.0023-18.743 3.8024-21.1225 7.7264z" fill="#e5e5e5"/><path d="m331.8858 271.4626c-29.5547 6.3806-52.5628 29.2625-73.8285 44.9662-6.8943 5.0911-19.4569 10.7619-37.1674 6.7918-12.2803-2.7529-31.0377-12.2223-38.8483-4.0662-5.7965 6.0529-6.1647 39.0858 2.4523 42.4794 7.8036 3.0733 30.7046 1.4914 40.0356-.721 14.7713 3.3741 20.314 4.819 32.1196 6.5449 21.5329 3.1479 44.1713-8.2575 60.0003-9.0839 29.3802-1.534 34.484-9.7995 41.8737-15.0348" fill="#c87137" fill-rule="evenodd"/><path d="m166.7586 354.3666c2.2823 2.3175 14.1584 9.9244 18.1904 5.3784 2.9291-3.3025 1.5717-6.1104-.6772-7.9317-2.2131-1.7925-15.1127 2.4898-17.5132 2.5533z" fill="#e5e5e5"/><path d="m165.5 342.4254c1.8224 2.6637 12.121 12.1414 16.9236 8.3407 3.4889-2.761 2.6671-5.7528.7867-7.9225-1.8505-2.1353-15.3353-.0789-17.7104-.4182z" fill="#e5e5e5"/><path d="m166.764 322.6758c1.5863 2.7983 11.0322 13.0556 16.1464 9.6465 3.7153-2.4766 3.1543-5.5229 1.4676-7.8335-1.66-2.2739-15.2763-1.2876-17.614-1.813z" fill="#e5e5e5"/><path d="m169.8408 315.5659c3.0424-1.2934 17.0722-3.9178 18.951 1.765 1.3649 4.1283-1.023 6.2159-3.8338 7.0642-2.7662.8348-12.9292-7.8831-15.1172-8.8291z" fill="#e5e5e5"/><path d="m165.5 332.193c1.5863 2.7983 11.0322 13.0556 16.1464 9.6465 3.7153-2.4766 3.1543-5.5229 1.4676-7.8335-1.66-2.2739-15.2763-1.2876-17.614-1.813z" fill="#e5e5e5"/></g><path d="m76.5 81.5v473.25c0 68.35 55.4 123.75 123.75 123.75h62.375c27.18 0 50.966 17.254 62.375 40 11.409-22.746 35.195-40 62.375-40h62.375c68.35 0 123.75-55.4 123.75-123.75v-473.25z" fill="none" stroke="#000" stroke-linecap="round" stroke-linejoin="round" stroke-width="3"/></svg>