<?xml version="1.0" encoding="utf-8"?><!DOCTYPE svg PUBLIC "-//W3C//DTD SVG 1.1//EN" "http://www.w3.org/Graphics/SVG/1.1/DTD/svg11.dtd"><svg viewBox="0 0 500 640" xmlns="http://www.w3.org/2000/svg"><path d="m.5.5v474.25c0 68.898 55.852 124.75 124.75 124.75h62.375c27.289 0 50.92 17.163 62.375 40 11.455-22.837 35.086-40 62.375-40h62.375c68.898 0 124.75-55.852 124.75-124.75v-474.25z" fill="#0071bc" stroke="#000" stroke-linecap="round" stroke-linejoin="round"/><g stroke="#000" stroke-linecap="round" stroke-linejoin="round"><path d="m237.1406 60.4999v35.25l-31.1875-15.5313v28.75l31.1875 15.5313v199.4375h25.7188v-186.6563l31.1875 15.5313v-28.7188l-31.1875-15.5313v-35.25l-25.7188-12.8125z" fill="#eac102"/><path d="m250 256.2813c-31.1814 0-32.9263 64.0757-92.3125 101.6875-8.7513-19.6944-15.4297-31.1065-25.9174-31.1065-8.3422 0-17.1923 13.3568-27.2214 44.3035-4.6634 14.3899-17.101 36.0887-22.4237 52.9905-20.2836 23.3668-48.5209 40.4015-81.625 50.5938 0 68.898 55.852 124.75 124.75 124.75h62.375c27.289 0 50.92 17.1629 62.375 39.9999 11.455-22.837 35.086-39.9999 62.375-39.9999h62.375c59.5092 0 109.2889-41.6546 121.75-97.4063-29.6795-22.0858-48.3393-82.7296-88.6563-74.9688-6.0666-52.9766-33.7911-61.6714-61-51.875-11.4253-24.758-17.5936-62.6754-37.1563-57.625-3.5917-11.166-38.4721-61.3438-59.6875-61.3438z" fill="#008f4c"/><path d="m82.1215 424.1407c-10.074 30.8868-29.5162 76.9001-36.9816 106.0288" fill="none"/><path d="m157.6822 357.9661c27.2886 62.5874 19.6276 107.9071 31.8645 165.4237" fill="none"/><path d="m407.8291 427.1224c-17.1269 3.9757-15.7286 38.0758-21.8521 74.4242-5.7523 34.1443-26.5446 51.6046-11.227 97.9534" fill="none"/><path d="m338.6992 496.2712c-7.0865 33.4492-34.7984 69.7892-26.3242 103.2288" fill="none"/><path d="m277.0044 496.2712c-30.6783-69.5612-28.4705-95.4224-48.7173-95.6032-31.9831-.2856-33.8558 47.9183-45.1024 80.9277" fill="none"/><path d="m173.3783 405.2387c6.038-18.392 16.0851-27.0699 27.3549-33.3743" fill="none"/><path d="m346.8348 375.2542c7.1074 17.4848 7.7986 33.8317 7.4577 41.017" fill="none"/><path d="m265.8178 296.2712c7.6836 14.4633 12.3163 77.4011 21.3559 89.1525" fill="none"/><path d="m309.6886 317.6271c-11.3336 3.1354-6.3446 20.3639-9.2204 31.6899" fill="none"/><path d="m143.7288 581.6949c39.8113-81.7443 59.9465-71.9543 79.322-4.7458" fill="none"/></g><path d="m1.5 1.5v473.25c0 68.35 55.4 123.75 123.75 123.75h62.375c27.18 0 50.966 17.254 62.375 40 11.409-22.746 35.195-40 62.375-40h62.375c68.35 0 123.75-55.4 123.75-123.75v-473.25z" fill="none" stroke="#000" stroke-linecap="round" stroke-linejoin="round" stroke-width="3"/></svg>