<?xml version="1.0" encoding="utf-8"?><!DOCTYPE svg PUBLIC "-//W3C//DTD SVG 1.1//EN" "http://www.w3.org/Graphics/SVG/1.1/DTD/svg11.dtd"><svg viewBox="0 0 500 615" xmlns="http://www.w3.org/2000/svg"><path d="m.5 265c0 162.043 104.34 299.716 249.5 349.5 145.16-49.784 249.5-187.457 249.5-349.5v-234.5c-79.947-19.594-163.512-30-249.5-30s-169.553 10.406-249.5 30z" fill="#e5e5e5" stroke="#000" stroke-linecap="round" stroke-linejoin="round"/><g stroke="#000" stroke-linecap="round" stroke-linejoin="round"><path d="m176.3687 136.9114-101.42 56.9348c-1.5543.8726-2.4487 2.6427-2.4487 4.1419v22.4521c0 1.7843 1.8029 3.4252 3.8227 3.4252s3.8227-1.6409 3.8227-3.4252v-19.1278l237.1544 49.7322v20.7108c0 1.7843 1.8029 3.4251 3.8227 3.4251s3.8227-1.6408 3.8227-3.4251v-21.5287l94.9095-53.2148v17.2018c0 1.7843 1.8029 3.4251 3.8227 3.4251s3.8227-1.6408 3.8227-3.4251v-22.5048c0-2.5339-1.0384-3.7855-3.4932-4.3003l-243.6661-51.1041c-1.4021-.2941-2.7936-.0546-3.9719.6068zm6.3611 6.8596 231.3009 48.4923-11.5575 6.4639-219.7434-46.0914zm-7.6453 1.8732v5.4086l-6.9883-1.4775zm-15.9776 8.9967 15.9776 3.3507s.0258 3.2541 0 4.8809c-.0287 1.7841 1.8029 3.4252 3.8227 3.4252s3.8227-1.6408 3.8227-3.4252v-3.2715l210.7541 44.1918-11.4978 6.4639-234.377-49.1782zm-20.5169 11.5031 234.377 49.1518-11.4979 6.4639-234.377-49.1782zm-20.5169 11.5031 234.377 49.1518-11.5278 6.4639-234.377-49.1518zm-20.5468 11.503 234.377 49.1782-11.4979 6.4375-234.377-49.1518z"/><g><path d="m179.2885 128.3954c-6.8598 5.1368-4.8964 10.6759.1907 14.0747-5.6082-.206-11.4697 3.4207-5.6225 12.3791-4.3275-1.0834-7.9971.9391-4.1911 9.7128-9.2183-1.7107-11.9424 6.5915-6.3294 13.3475-5.3638-.5277-12.851-1.7928-9.5707 8.223-11.4393 1.8216-9.966 8.1057-8.1183 11.1095-4.8236-2.7765-10.0819 2.914-12.9175 5.1181 1.7264-6.4556 2.8933-15.0936-5.5342-10.0726 5.1904-6.348 6.1347-9.9982.4096-12.5228 5.39-.7695 15.6935-13.4744 5.8512-13.8743 4.4327-2.6526 16.7929-10.0492 6.313-13.8677 7.3454-.6426 15.1745-9.1633 9.3276-12.0811 7.6346.3371 13.2055-4.2299 10.4563-7.3898 8.7605 1.1603 8.5154-5.0373 11.7156-8.2526" fill="#008f4c"/><path d="m174.2776 127.5063c-23.3927 25.0882-27.5761 53.0851-41.5479 74.8539" fill="none"/><path d="m239.1792 156.0298c4.6835-10.6584 13.5279-9.2724 20.5285-3.0804-2.5726-7.6674.3214-16.5936 15.7084-10.6762-3.3283-5.6969-1.8769-11.2262 12.4144-8.0734-6.222-12.2771 4.7372-17.997 16.829-11.8787-2.9408-7.2547-7.8138-17.2558 8.0692-15.1212-1.9898-16.1719 7.7385-15.6372 12.852-13.8086-5.9894-5.9774.1478-14.5637 2.2011-18.9886-8.6805 3.9085-20.759 7.5658-16.879-5.2222-7.1201 8.6491-12.0413 10.8153-18.0302 3.5378 1.0666 7.5988-13.2178 24.7928-17.7883 11.3459-2.0576 6.7289-7.7954 25.4919-17.5915 11.9798 2.0435 10.2591-7.1641 23.0548-13.7736 15.703 3.5843 10.4244-.7937 19.174-6.4995 16.1419 5.2369 11.778-4.7973 13.7524-8.1723 18.9192" fill="#008f4c"/><path d="m235.8563 149.3466c26.9726-38.1445 65.9576-50.5499 91.9255-74.9438" fill="none"/><path d="m146.0221 102.7937-4.1557 3.8637c19.3476 21.3351 48.8642 24.0802 72.9473 36.5253 24.0832 12.445 43.273 29.7332 61.4638 90.2281 3.327 11.0643 7.2502 25.9456 15.8852 41.1357l9.6192-4.6649c-8.7089-14.1252-14.7545-27.153-17.8217-38.2337-15.8795-57.367-39.0505-80.0692-64.8972-93.4255s-56.3892-15.4357-73.0409-35.4286z" fill="#008f4c"/><path d="m184.2419 125.8957c-2.3119-5.0515.8381-7.1556 5.1646-7.6501-3.4865-1.538-5.7382-5.4058 1.0651-8.9463-3.0252-.6429-4.5248-2.9184.9699-6.9541-6.228-1.7208-4.8768-7.411.986-9.7251-3.4544-1.2764-8.4676-2.7472-2.8427-7.6692-6.2992-4.456-3.1258-7.7171-.9133-8.9377-3.9406.2064-5.0775-4.6971-6.0039-6.8327-1.289 4.3087-3.7091 9.7358-7.0167 4.2886.8574 5.2702.1091 7.697-4.2886 7.4885 3.0002 2.0473 4.6647 12.5701-1.4678 9.8935 1.7355 2.872 6.5747 10.8803-1.1845 10.0263 4.2358 2.5511 5.9111 9.8802 1.2968 9.867 4.7667 2.0604 6.5009 6.3953 3.6834 7.441 3.1164 1.0484 3.252 2.9006 3.5689 4.9262" fill="#008f4c"/><path d="m180.8198 125.5101c-5.1403-21.6805 2.4597-39.3891 1.8479-56.3296" fill="none"/><path d="m301.7819 269.8815c.6119 1.0242-1.0611 2.9021-3.7227 4.1692-2.6617 1.2671-5.2846 1.5199-5.8965.4958-.612-1.0242 1.019-2.9376 3.6807-4.2047s5.3266-1.4845 5.9385-.4603z" fill="#008f4c" fill-rule="evenodd"/><path d="m231.1505 152.2715c-6.2245 3.9688-5.3531 7.8112-2.3116 10.8695-4.1265-.4235-9.2786 2.3328-6.886 10.0543-2.9823-1.0964-6.1535.4227-5.239 7.8987-6.4831-1.8384-10.3227 4.9517-7.6232 10.8288-3.8745-.6803-9.1673-2.0699-8.9149 6.4166-8.9066 1.0028-9.1832 6.3011-8.4651 8.8851-2.9815-2.5283-8.1356 1.9734-10.7261 3.6811 2.6942-5.2974 5.4488-12.437-1.9164-8.6351 5.2473-5.0522 6.7469-8.049 3.0399-10.4081 4.1773-.3986 14.6162-10.5138 7.3827-11.2889 3.8765-2.0094 14.6858-7.6127 7.7248-11.2627 5.604-.205 13.2885-6.9477 9.5768-9.6397 5.6051.6236 10.7464-2.9286 9.3917-5.6831 6.2628 1.3596 6.5944-3.0528 9.677-5.5862" fill="#008f4c"/><path d="m228.2383 150.4485c-22.8798 19.8377-32.1065 42.96-47.2538 60.4572" fill="none"/><path d="m147.4976 91.6678c-.6798-.7962-.7086-2.0849-1.1637-3.4122-.875-2.5524-1.8656-5.3883-1.8482-6.1265-2.0278 1.6557-1.5559 1.9081-2.1328 3.3676-.1567-1.3078 1.5555-4.5241-1.7878-10.7541-.4385 2.3725-.5813 2.4893-1.3573 3.3774.0624-1.844-4.2304-6.0616-4.8678-8.9394-.8699 3.6858-.8992 4.3283-1.1106 7.4171-1.142-1.3484-5.0314-3.562-5.7986-3.8076-.0983 1.6095.656 5.3784 2.1366 6.7798-2.6333-.5739-4.7012-1.4569-6.8186-3.1383l2.5878 7.7371c-1.7915-1.0451-5.4575-2.324-7.3968-3.8605 1.7083 1.803 3.3667 5.3988 4.5831 7.1075l-7.7754-1.7509c1.8688 1.9683 2.9605 3.9779 3.8185 6.6003-1.5256-1.3494-5.2544-1.6862-6.7984-1.4003.3257.7551 2.9131 4.4711 4.3478 5.4817-2.9607.5717-3.8719.8401-7.3338 2.1529 2.8547.3193 7.7189 4.0518 9.4938 3.7757-.7693.894-1.4963.9096-3.7387 1.6306 6.4061 2.6957 9.9482.7215 11.2301.7307-1.3441.7569-1.9986.6282-3.3651 2.8894.6735-.0965 3.1216.9366 5.4117 1.6683 1.3878.4433 2.6674.3666 3.6026 1.0309z" fill="#800080" fill-rule="evenodd"/><path d="m155.0377 110.8103c1.4832-1.9669 3.8824-6.4022 3.0412-10.8808-.7054 1.6447-1.6034 1.9744-2.2934 2.4966.8029-1.7525.5862-5.7633.1563-7.7115-.4946.999-.7818 1.8025-1.3789 2.5251-.3318-1.1131-1.1401-3.9739-2.5908-6.8239-.3276.924-.5837 2.436-1.3549 3.4139-.1582-1.9564-2.1147-3.4239-4.2832-5.5741-.1463 1.568.2895 3.8013-.9228 5.3665-1.0197-1.3139-3.7065-1.2871-5.0956-2.123.7281 2.5085-.5802 3.586.3249 5.8234-2.413-.621-3.5298.4415-5.9815-.4127 1.108 2.4048.2099 3.6674 1.088 6.0596-2.2665-.6664-3.157.7935-5.6651.339.9678 1.322 1.2515 4.0684 2.6387 4.9582-1.3729 1.4181-3.4083.5974-4.9068.9274 1.6341 2.659 3.7981 4.4279 5.7072 4.364-.8563.9001-1.9919.9941-2.8471 1.435 2.9215 1.1529 5.4833 1.9902 6.5972 2.2008-.6295.6929-2.0888.9342-2.9972 1.5542 1.9324.2144 6.5492.1181 8.1503-.9035-.4252.7646-.953 1.4333-2.4612 2.343 4.4253.3428 9.309-3.2595 10.1734-4.0447 2.1242-1.9293 3.5855-3.5874 4.9014-5.3325z" fill="#008f4c" fill-opacity=".9963" fill-rule="evenodd"/><path d="m123.7428 101.3803c-.5971-.6767-1.7753-2.4551-3.1146-3.0073l4.1725.119c-.8741-.879-1.5756-2.8196-2.5912-3.9052 1.4272.0401 3.8003 1.1384 4.9465 1.4407-1.157-1.9463-2.0945-3.0658-2.683-4.4926 1.6647.9353 4.9918 2.1796 4.9918 2.1796s-2.5393-4.8257-2.018-5.9472c1.4708 1.0077 4.1242 1.7835 5.2529 2.0504-.7748-1.9996-1.1871-4.7597-1.8498-5.8495 1.2138.4365 3.8693 1.281 5.2294 2.0429-.33-1.6076-1.0124-3.8168-.5348-4.6586.9288 1.4199 1.5269 2.0834 3.1317 3.4366" fill="none"/><path d="m145.8968 115.5701c-.4065-1.021-1.2709-2.1499-2.3357-2.5115 1.2711-.7639 2.3512-.5833 3.7969-.6277-.9464-1.275-2.3276-2.4921-2.4066-3.8826.8637-.0669 2.1629.6662 3.5612 1.5816-.2786-1.1392-.7092-2.3153.078-3.3982 1.0649 1.6444 1.6918 2.604 2.8319 2.7043" fill="none"/><path d="m152.3781 98.1675c-.9348-1.9241-1.739-2.6249-1.6119-3.0168-.83 1.2676-.7484 2.4135-.9105 3.9234-1.1312-1.0961-2.1709-2.6436-3.483-2.8419-.1352.8987.4526 2.3198 1.2047 3.8599-1.5804.0363-2.9133-.7434-4.0058-.009 1.6481 1.2891 1.1543 2.8883 2.3456 3.0985" fill="none"/><path d="m139.7628 105.3514c-1.4796-.0367-2.119-.6307-2.8614-.5969.1623 1.4252.9812 2.121 1.8424 3.2299-1.6399.2307-3.5178.5611-4.6834.6113.4814.6877 1.8905 1.204 3.5107 1.6815-1.2537 1.1497-1.774 1.5024-2.1747 2.7637 2.2055-1.0924 1.7389-.2695 2.8359-.8527" fill="none"/></g><g fill="#eac102"><path d="m197.55 258.6249c22.8382 10.992 61.5118-9.1604 100.6928-39.8966-2.3828-1.4624-7.4754-5.109-10.6015-8.6754 3.1579 3.4627 11.2529 5.5249 14.2929 5.7499 67.294-53.8734 134.6652-137.0379 124.5534-145.4545-8.2488-6.866-30.9513 16.9019-88.265 61.8585.9551 2.566 6.6704 13.0622 7.5483 13.7821-.8351-.7214-8.3822-10.9774-9.2694-12.4338-8.3256 6.5131-17.3678 13.4604-27.1871 20.8146-21.92 16.4173-50.0263 35.5843-72.6411 53.6525.6595 1.1315 4.0504 7.1449 5.7414 8.448-1.6384-1.2559-7.2094-5.3828-8.3753-6.3282-23.5735 19.1172-40.4185 36.8211-36.4895 48.4829z"/><path d="m165.7527 275.1806c142.5631-65.1996 211.802-149.7571 260.7349-204.8322-53.8233 60.517-154.7711 155.8639-277.9876 204.8322z"/></g></g><g stroke="#000" stroke-linecap="round" stroke-linejoin="round" transform="matrix(-1 0 0 1 500 0)"><path d="m410 495 75-180h-470l75 180 160 105z" fill="#eac102"/><path d="m322.0367 565v-250h-47.9778v280z" fill="#ed1c24"/><path d="m417.9922 475v-160h-47.9778v210z" fill="#ed1c24"/><path d="m178.1033 565v-250h47.9778v280z" fill="#ed1c24"/><path d="m82.1478 475v-160h47.9778v210z" fill="#ed1c24"/><path d="m465.8297 328.8606c-22.3418 118.3198-105.6229 214.8326-215.8297 256.1394-110.207-41.3069-193.4883-137.8188-215.8298-256.1388zm-435.7228-27.7218c-1.246-11.8729-1.8849-23.9296-1.8849-36.1388v-212.4375c71.3786-15.8815 145.5645-24.3405 221.778-24.3405s150.3994 8.459 221.778 24.3405v212.4375c0 12.2098-.6389 24.2655-1.8851 36.139zm-29.6069-36.1388c0 162.043 104.34 299.716 249.5 349.5 145.16-49.784 249.5-187.457 249.5-349.5v-234.5c-79.947-19.594-163.512-30-249.5-30s-169.553 10.406-249.5 30z" fill="#0071bc"/></g><path d="m1.5 265c0 162.043 103.34 298.716 248.5 348.5 145.16-49.784 248.5-186.457 248.5-348.5v-233.5c-79.947-19.594-162.512-30-248.5-30s-168.553 10.406-248.5 30z" fill="none" stroke="#000" stroke-linecap="round" stroke-linejoin="round" stroke-width="3"/></svg>