<?xml version="1.0" encoding="utf-8"?><!DOCTYPE svg PUBLIC "-//W3C//DTD SVG 1.1//EN" "http://www.w3.org/Graphics/SVG/1.1/DTD/svg11.dtd"><svg viewBox="0 0 640 860" xmlns="http://www.w3.org/2000/svg"><g stroke="#000" stroke-linecap="round" stroke-linejoin="round"><path d="m110.4485 207.5001c0-8.4146 45.9425-25.5257 209.5515-25.5257 163.6089 0 209.5515 17.111 209.5515 25.5257s-45.9425 25.5257-209.5515 25.5257-209.5515-17.111-209.5515-25.5256z" fill="#eac102"/><g fill="none"><path d="m135.7538 196.4957v22.0089" stroke-width="6.6"/><path d="m143.5268 194.7089v25.5824" stroke-width="6.3"/><path d="m151.2999 193.5365v27.9272" stroke-width="6"/><path d="m159.0729 192.0851v30.8299" stroke-width="5.7"/><path d="m166.8471 190.8012v33.3979" stroke-width="5.4"/><path d="m174.6201 189.6846v35.631" stroke-width="5.1"/><path d="m182.3932 188.5686v37.863" stroke-width="4.8"/><path d="m190.1662 187.6194v39.7614" stroke-width="4.5"/><path d="m197.9404 187.005v40.9902" stroke-width="4.2"/><path d="m205.7135 186.2796v42.441" stroke-width="3.9"/><path d="m213.4865 185.163v44.6741" stroke-width="3.6"/><path d="m221.2607 184.5487v45.9029" stroke-width="3.3"/><path d="m229.0338 184.2697v46.4609" stroke-width="3"/><path d="m236.8068 183.6001v47.8001" stroke-width="2.7"/><path d="m244.5798 183.0415v48.9172" stroke-width="2.4"/><path d="m252.354 182.7067v49.5868" stroke-width="2.1"/><path d="m260.1271 182.2045v50.5912" stroke-width="1.8"/><path d="m267.9001 181.8691v51.262" stroke-width="1.5"/><path d="m275.6731 180.8641v53.272" stroke-width="1.2"/><path d="m283.4474 180.8641v53.272" stroke-width=".9"/><path d="m291.2204 180.8641v53.272" stroke-width=".6"/><path d="m298.9934 180.8641v53.272" stroke-width=".3"/><path d="m120.2065 201.799v11.4022" stroke-width="7.2"/><path d="m127.9796 198.9514v17.0973" stroke-width="6.9"/><path d="m504.2462 196.4957v22.0089" stroke-width="6.6"/><path d="m496.4732 194.7089v25.5824" stroke-width="6.3"/><path d="m488.7002 193.5365v27.9272" stroke-width="6"/><path d="m480.9272 192.0851v30.8299" stroke-width="5.7"/><path d="m473.1529 190.8012v33.3979" stroke-width="5.4"/><path d="m465.3799 189.6846v35.631" stroke-width="5.1"/><path d="m457.6069 188.5686v37.863" stroke-width="4.8"/><path d="m449.8338 187.6194v39.7614" stroke-width="4.5"/><path d="m442.0596 187.005v40.9902" stroke-width="4.2"/><path d="m434.2866 186.2796v42.441" stroke-width="3.9"/><path d="m426.5136 185.163v44.6741" stroke-width="3.6"/><path d="m418.7393 184.5487v45.9029" stroke-width="3.3"/><path d="m410.9663 184.2697v46.4609" stroke-width="3"/><path d="m403.1933 183.6001v47.8001" stroke-width="2.7"/><path d="m395.4202 183.0415v48.9172" stroke-width="2.4"/><path d="m387.646 182.7067v49.5868" stroke-width="2.1"/><path d="m379.873 182.2045v50.5912" stroke-width="1.8"/><path d="m372.1 181.8691v51.262" stroke-width="1.5"/><path d="m364.3269 180.8641v53.272" stroke-width="1.2"/><path d="m356.5527 180.8641v53.272" stroke-width=".9"/><path d="m348.7797 180.8641v53.272" stroke-width=".6"/><path d="m341.0066 180.8641v53.272" stroke-width=".3"/><path d="m519.7935 201.799v11.4022" stroke-width="7.2"/><path d="m512.0205 198.9514v17.0973" stroke-width="6.9"/></g><g><path d="m327.5487 54.7974 6.808-7.197c5.8073-6.1392 2.5744-12.2091 8.6272-26.7921-4.5717-.5977-8.3533-.3371-11.7191 2.8116-.5661-9.4484-5.429-16.9776-11.2648-23.1197-5.8358 6.1421-10.6987 13.6713-11.2648 23.1197-3.3658-3.1487-7.1473-3.4093-11.7191-2.8116 6.0529 14.5831 2.8199 20.653 8.6272 26.7921l6.808 7.197z" fill="#eac102"/><path d="m598.7416 86.0542c8.3434-11.8369 15.2516-19.4369 40.7584-21.6326-8.7264-13.1233-26.8999-16.9218-38.7205-4.9467-1.1182-3.2772-1.8077-4.3454-4.9332-7.3729-2.7868 8.5465-15.1973 15.0038-10.2736 30.307l4.8385 15.0389z" fill="#eac102"/><path d="m278.4858 39.3451c14.5783 6.0535 20.6462 2.8208 26.7845 8.6301l7.1946 6.809v15.102l-7.1946 6.8102c-6.1372 5.8093-12.2064 2.5752-26.7845 8.6299-.5976-4.5733-.337-8.356 2.8108-11.7229-9.4454-.5662-16.972-5.4305-23.1108-11.2683 6.1389-5.8366 13.6657-10.7022 23.1108-11.2684-3.1477-3.367-3.4082-7.1486-2.8108-11.7218z" fill="#eac102"/><path d="m308.9537 62.3349h-42.0414" fill="none"/><path d="m310.7778 67.1519c-12.3263 7.6431-17.3963 5.3904-26.5069 11.7605" fill="none"/><path d="m310.7778 57.5181c-12.3263-7.6431-17.3963-5.3905-26.5069-11.7605" fill="none"/><path d="m320 51.2862v-42.0554" fill="none"/><path d="m315.1846 53.1097c-7.6418-12.3304-5.3887-17.402-11.7566-26.5145" fill="none"/><path d="m108.7239 147.3606c-9.6698-4.1099-25.7718-24.1795-33.5203-34.604l-9.6635 7.206c12.5341 16.5507 22.1078 26.9678 29.7455 33.0652 3.8189 3.0486 7.1519 5.0912 10.645 6.1177z" fill="#eac102"/><path d="m531.2763 147.3606c9.6698-4.1099 25.7718-24.1795 33.5203-34.604l9.6635 7.206c-12.5341 16.5507-22.1078 26.9678-29.7455 33.0652-3.8189 3.0486-7.1519 5.0912-10.645 6.1177z" fill="#eac102"/><path d="m41.2584 86.0542c-8.3434-11.8369-15.2516-19.4369-40.7584-21.6326 8.7264-13.1233 26.9-16.9218 38.7205-4.9467 1.1182-3.2772 1.8077-4.3454 4.9332-7.3729 2.7868 8.5465 15.1973 15.0038 10.2737 30.307l-4.8385 15.0389z" fill="#eac102"/><path d="m395.1566 108.9284c11.0061 25.76 47.6088 28.8678 67.6446 6.1552 7.9081 24.3697 35.579 26.5649 56.056 11.8225.0001.0357-.0003.0768 0 .1125 1.5543 25.9111 32.0905 24.244 55.603-7.0559l13.5893-18.0901c1.8973-2.5256 1.3136-6.5397-1.2264-8.4264-2.5401-1.8867-6.581-1.3078-8.4749 1.2203l-13.5516 18.0901c-18.7429 25.0199-48.9832 32.659-25.631-7.9567 1.573-2.7358.6419-6.636-2.076-8.2573s-6.6988-.6521-8.3048 2.0647c-20.1752 34.1294-63.2458 36.4148-54.7726-6.5681 1.2331-6.2552 2.4663-12.5105 3.6993-18.7657.596-3.0234-1.7694-6.2652-4.8112-6.8527s-6.4446 1.5402-7.0418 4.5633c-.5421 2.744-2.4662 12.4855-3.6993 18.7282-7.9647 40.3218-63.2034 38.0041-58.2076-2.965.364-2.9845-2.3115-5.9068-5.3137-6.2647-3.0022-.3578-6.3534 1.8469-6.6524 4.8385-4.1183 41.2142-65.946 39.9721-65.946.2628v-19.7791c0-3.1572-2.8391-6.1177-6.0397-6.1177-3.2005 0-6.0397 2.9605-6.0397 6.1177v19.7791c0 39.7094-61.8276 40.9515-65.946-.2628-.2989-2.9916-3.6503-5.1963-6.6524-4.8385-3.0022.3578-5.6777 3.2802-5.3137 6.2647 4.9958 40.969-50.2429 43.2867-58.2076 2.965l-3.6993-18.7282c-.5972-3.0232-4-5.1509-7.0418-4.5633-3.0418.5875-5.4072 3.8294-4.8112 6.8527 1.2331 6.2552 3.6993 18.7657 3.6993 18.7657 8.4733 42.9828-34.5974 40.6974-54.7726 6.5681-1.606-2.7168-5.5871-3.686-8.3048-2.0647-2.7178 1.6214-3.6488 5.5215-2.0758 8.2573 23.3523 40.6157-6.8882 32.9766-25.631 7.9567l-13.5516-18.0901c-1.8938-2.5281-5.9349-3.107-8.4749-1.2203-2.54 1.8866-3.1236 5.9008-1.2264 8.4264l13.5893 18.0901c23.5124 31.2999 54.0488 32.967 55.603 7.0559.0002-.0357-.0001-.0769 0-.1125 20.477 14.7425 48.1479 12.5474 56.056-11.8225 20.0359 22.7127 56.6385 19.6048 67.6446-6.1552 21.0101 27.072 60.1766 22.8874 75.1565-1.2916 14.9798 24.1789 54.1465 28.3635 75.1566 1.2916z" fill="#eac102"/><path d="m78.6691 98.6386c2.963 2.3484 4.3052 5.8124 5.3734 10.2304 0 0-12.7507-1.026-18.302.2425-6.3395 1.4487-11.1542-1.2595-12.1951-2.2817l-6.0212-11.8262c4.6018-8.2106 5.5076-12.7196 8.9558-17.1887 3.4425-4.4617 9.0727-8.3815 13.1615-11.8854 1.7943 4.1162 2.8197 7.7123 1.964 11.6478 5.9065-1.8526 12.0053.822 17.5563 4.7212-1.8976 6.9945-4.9405 13.4312-10.4927 16.3399z" fill="#eac102"/><path d="m46.1831 92.8371c-.7432-6.2586 1.4111-11.9048 1.0269-16.9291-.7029-9.1926-3.7144-12.2213-3.3163-17.0358" fill="none"/><path d="m50.6655 100.3905c9.9213-8.025 19.0042-9.4896 30.9474-16.2683" fill="none"/><path d="m48.9494 95.9458c4.3394-7.2999 13.2693-11.369 18.089-22.7245" fill="none"/><path d="m52.0531 104.5188c8.5345 1.1676 13.71-3.7804 23.9201-.0727" fill="none"/><path d="m53.5454 106.8299c-1.5973.7632-3.3493 1.208-5.2398 1.208-6.738 0-12.2002-5.4308-12.2002-12.1302 0-4.0844 2.0412-7.6555 5.1531-9.8535 6.13 3.8736 11.3374 13.259 12.2869 20.7757z" fill="#ed1c24" fill-rule="evenodd"/><path d="m561.331 98.6386c-2.963 2.3484-4.3052 5.8124-5.3734 10.2304 0 0 12.7506-1.026 18.302.2425 6.3395 1.4487 11.1542-1.2595 12.1951-2.2817l6.0212-11.8262c-4.6018-8.2106-5.5076-12.7196-8.9558-17.1887-3.4425-4.4617-9.0727-8.3815-13.1615-11.8854-1.7943 4.1162-2.8197 7.7123-1.964 11.6478-5.9065-1.8526-12.0055.822-17.5563 4.7212 1.8976 6.9945 4.9405 13.4312 10.4927 16.3399z" fill="#eac102"/><path d="m593.817 92.8371c.7432-6.2586-1.4111-11.9048-1.0269-16.9291.7029-9.1926 3.7144-12.2213 3.3163-17.0358" fill="none"/><path d="m589.3345 100.3905c-9.9213-8.025-19.0042-9.4896-30.9474-16.2683" fill="none"/><path d="m591.0507 95.9458c-4.3394-7.2999-13.2693-11.369-18.089-22.7245" fill="none"/><path d="m587.947 104.5188c-8.5345 1.1676-13.71-3.7804-23.9201-.0727" fill="none"/><path d="m586.4547 106.8299c1.5973.7632 3.3493 1.208 5.2398 1.208 6.738 0 12.2002-5.4308 12.2002-12.1302 0-4.0844-2.0412-7.6555-5.1531-9.8535-6.1301 3.8736-11.3374 13.259-12.2869 20.7757z" fill="#ed1c24" fill-rule="evenodd"/><path d="m361.5143 39.3451c-14.5783 6.0535-20.6462 2.8208-26.7845 8.6301l-7.1946 6.809v15.102l7.1946 6.8102c6.1372 5.8093 12.2064 2.5752 26.7845 8.6299.5976-4.5733.337-8.356-2.8108-11.7229 9.4454-.5662 16.972-5.4305 23.1108-11.2683-6.1389-5.8366-13.6657-10.7022-23.1108-11.2684 3.1477-3.367 3.4082-7.1486 2.8108-11.7218z" fill="#eac102"/><path d="m331.0464 62.3349h42.0414" fill="none"/><path d="m329.2223 67.1519c12.3263 7.6431 17.3962 5.3904 26.5069 11.7605" fill="none"/><path d="m329.2223 57.5181c12.3263-7.6431 17.3962-5.3905 26.5069-11.7605" fill="none"/><path d="m324.8155 53.1097c7.6418-12.3304 5.3887-17.402 11.7566-26.5145" fill="none"/><path d="m332.2 62.3349c0 6.7379-5.4621 12.2-12.2 12.2s-12.2-5.4621-12.2-12.2 5.4621-12.2 12.2-12.2 12.2 5.4621 12.2 12.2z" fill="#ed1c24" fill-rule="evenodd"/><path d="m320.0001 182.1505c-168.5697 0-220.1156-19.2704-220.1156-22.1504 0-2.8801 51.5459-22.1506 220.1156-22.1506s220.1156 19.2705 220.1156 22.1506c0 2.88-51.5459 22.1504-220.1156 22.1504zm-166.2428 3.8316c-39.2511-5.1822-68.2573-13.3333-68.2573-25.982 0-29.3963 156.6683-34.5 234.5-34.5s234.5 5.1037 234.5 34.5c0 12.6487-29.0063 20.7998-68.2573 25.982z" fill="#eac102" fill-rule="evenodd"/><path d="m195.2106 185.9825-83.2611 17.7122c-3.1142-14.9494-6.0548-28.5328-13.1783-42.5119-3.7867-7.4311 72.0672-24.2995 221.2289-24.2995s225.0156 16.8685 221.2289 24.2995c-7.1235 13.9792-10.0641 27.5624-13.1783 42.5119l-83.2611-17.7122z" fill="#eac102"/><path d="m172.6403 155.6149 43.2139-4.0342c4.3226-.4036 8.1289 2.7352 8.5344 7.0375.4055 4.3024-2.748 8.0908-7.0707 8.4943l-43.2139 4.0342c-4.3226.4036-8.1289-2.7352-8.5344-7.0375-.4055-4.3024 2.748-8.0908 7.0707-8.4943z" fill="#008f4c" fill-rule="evenodd"/><path d="m149.7965 167.9609c0 5.2467-4.2533 9.5-9.5 9.5s-9.5-4.2533-9.5-9.5 4.2533-9.5 9.5-9.5 9.5 4.2533 9.5 9.5z" fill="#e5e5e5" fill-rule="evenodd"/><path d="m263.8819 157.6193c0 5.2467-4.2533 9.5-9.5 9.5s-9.5-4.2533-9.5-9.5 4.2533-9.5 9.5-9.5 9.5 4.2533 9.5 9.5z" fill="#e5e5e5" fill-rule="evenodd"/><path d="m98.1378 181.4723 4.8212-10.8194 15.6742 2.7078-10.4478 13.9054z" fill="#ed1c24"/><path d="m98.1378 181.4723 20.4954-8.1118" fill="none"/><path d="m523.689 207.5001c0 2.6713-47.6993 20.5453-203.689 20.5453s-203.689-17.874-203.689-20.5453c0-2.6715 47.6993-20.5455 203.689-20.5455 155.9898 0 203.689 17.8739 203.689 20.5455zm13.311 0c0 27.2662-144.9766 32-217 32s-217-4.7338-217-32 144.9766-32 217-32c72.0235 0 217 4.7339 217 32z" fill="#eac102" fill-rule="evenodd"/><path d="m296.5969 148.2375-12.16 8.1548 12.16 8.1537h46.8064l12.16-8.1537-12.16-8.1548z" fill="#ed1c24"/><path d="m296.5969 148.2375 11.24 7.2984-11.24 9.01" fill="none"/><path d="m284.4368 156.3923 23.4-.8563h24.3266l23.4.8563" fill="none"/><path d="m343.4034 148.2375-11.24 7.2984 11.24 9.01" fill="none"/><path d="m466.8616 155.6149-43.2139-4.0342c-4.3227-.4036-8.1289 2.7352-8.5344 7.0375-.4055 4.3024 2.7481 8.0908 7.0707 8.4943l43.2139 4.0342c4.3227.4036 8.1289-2.7352 8.5344-7.0375s-2.7481-8.0908-7.0707-8.4943z" fill="#008f4c" fill-rule="evenodd"/><path d="m541.3642 181.4723-4.8212-10.8194-15.6743 2.7078 10.4479 13.9054z" fill="#ed1c24"/><path d="m541.3642 181.4723-20.4954-8.1118" fill="none"/><path d="m490.2036 167.9609c0 5.2467 4.2533 9.5 9.5 9.5s9.5-4.2533 9.5-9.5-4.2533-9.5-9.5-9.5-9.5 4.2533-9.5 9.5z" fill="#e5e5e5" fill-rule="evenodd"/><path d="m376.1182 157.6193c0 5.2467 4.2533 9.5 9.5 9.5s9.5-4.2533 9.5-9.5-4.2533-9.5-9.5-9.5-9.5 4.2533-9.5 9.5z" fill="#e5e5e5" fill-rule="evenodd"/><path d="m172.6817 80.869c0 11.1838-9.0662 20.25-20.25 20.25s-20.25-9.0662-20.25-20.25 9.0662-20.25 20.25-20.25 20.25 9.0662 20.25 20.25z" fill="#e5e5e5" fill-rule="evenodd"/><path d="m181.6971 48.4124c0 11.1838-9.0662 20.25-20.25 20.25s-20.25-9.0662-20.25-20.25 9.0662-20.25 20.25-20.25 20.25 9.0662 20.25 20.25z" fill="#e5e5e5" fill-rule="evenodd"/><path d="m205.7655 73.7459c0 11.1838-9.0662 20.25-20.25 20.25s-20.25-9.0662-20.25-20.25 9.0662-20.25 20.25-20.25 20.25 9.0662 20.25 20.25z" fill="#e5e5e5" fill-rule="evenodd"/><path d="m467.3183 80.869c0 11.1838 9.0662 20.25 20.25 20.25s20.25-9.0662 20.25-20.25-9.0662-20.25-20.25-20.25-20.25 9.0662-20.25 20.25z" fill="#e5e5e5" fill-rule="evenodd"/><path d="m458.3029 48.4124c0 11.1838 9.0662 20.25 20.25 20.25s20.25-9.0662 20.25-20.25-9.0662-20.25-20.25-20.25-20.25 9.0662-20.25 20.25z" fill="#e5e5e5" fill-rule="evenodd"/><path d="m434.2345 73.7459c0 11.1838 9.0662 20.25 20.25 20.25s20.25-9.0662 20.25-20.25-9.0662-20.25-20.25-20.25-20.25 9.0662-20.25 20.25z" fill="#e5e5e5" fill-rule="evenodd"/></g></g><path d="m70.5 220.5v474.25c0 68.898 55.852 124.75 124.75 124.75h62.375c27.289 0 50.92 17.163 62.375 40 11.455-22.837 35.086-40 62.375-40h62.375c68.898 0 124.75-55.852 124.75-124.75v-474.25z" fill="#ed1c24" stroke="#000" stroke-linecap="round" stroke-linejoin="round"/><g stroke="#000" stroke-linecap="round" stroke-linejoin="round"><g><path d="m262.5897 683.9668c-18.599-20.293-27.1003-89.5732-55.5308-91.8407-1.9264-.1537-3.835-.1489-5.7211-.0002l-17.2042 2.0941c27.7295 14.5747 34.444 98.1952 60.4366 95.2015 6.5774-.9619 12.3747-3.094 18.0195-5.4548z" fill="#e5e5e5"/><path d="m256.8486 683.1267c-18.0891-21.2938-26.7397-88.7634-54.79-91.0006" fill="none"/><path d="m245.6094 689.1946c-22.8817-5.4335-30.2635-81.7166-56.7612-95.1216" fill="none"/><path d="m150.5218 635.5139c8.0914-18.293 27.7816-41.5722 50.8161-43.3882-8.1866.6036-16.313.6342-24.3009.0001-25.4539-2.0206-47.7832 23.5973-56.5371 43.3881 6.2645-5.4486 13.2542-10.4139 22.5-13.875.7288 5.4696 3.8896 10.5157 7.5219 13.875z" fill="#e5e5e5"/><path d="m176.587 592.1055c-20.4637 1.4615-38.3195 19.9062-47.7992 36.8517" fill="none"/><path d="m192.9612 592.5469c-20.0238 3.4114-37.1254 22.5311-45.628 39.169" fill="none"/></g><g><path d="m422.0023 519.2963 15.4509 21.0422 8.1478-5.9821 5.1503 7.0139-8.148 5.9818 15.4507 21.0418 9.7234-7.1385-7.7254-10.5206 6.8869-5.0563 7.7252 10.5214 10.6695-7.8332-15.4505-21.0416-8.1488 5.9822-5.1497-7.0138 8.1482-5.9824-6.4373-8.7676 6.8863-5.0555 6.4375 8.7676 8.1488-5.9824 5.1501 7.014-8.1486 5.9824 15.4505 21.0418 10.6695-7.8328-7.7252-10.521 6.8865-5.0559 7.7258 10.521 9.7234-7.1387-15.4507-21.0416-8.1476 5.9816-5.1505-7.0136 8.1482-5.9818-15.4509-21.0418z" fill="#eac102"/><path d="m478.9792 462.0757 10.4667 14.2543-267.0986 196.0858-10.4667-14.2541z" fill="#eac102"/><path d="m215.0221 646.1052 19.7704 26.9242-23.6332 17.3499-19.7702-26.9245z" fill="#eac102"/><path d="m176.4759 724.0818c3.1276 4.2594 9.0978 5.1903 13.3346 2.0801 4.2372-3.1108 5.1363-9.0843 2.009-13.3444l-8.1534-11.1041 11.0463-8.1098c4.2374-3.111 5.1371-9.0853 2.0096-13.3446-3.1272-4.2588-9.0976-5.1897-13.3348-2.0789l-11.0461 8.1093-8.1546-11.1044c-3.128-4.2596-9.0972-5.1907-13.3342-2.0803-4.237 3.1106-5.1373 9.0848-2.0096 13.3444l8.1546 11.1046-11.0465 8.1097c-4.2376 3.1104-5.1369 9.0848-2.0092 13.344 3.1272 4.2589 9.0968 5.19 13.3342 2.0794l11.0475-8.11zm35.1122-54.7365c-6.2805-8.5532-16.8322-12.0477-26.4583-9.6503l-7.2901-9.9286-9.8774 7.2507c-8.4791-5.2211-19.5745-5.1027-28.083 1.1434-8.5089 6.2467-11.9445 16.7962-9.502 26.4489l-9.8774 7.2514 7.2907 9.9286c-5.1706 8.4649-4.9963 19.5779 1.2846 28.1313 6.2799 8.5532 16.8318 12.0475 26.4575 9.6505l7.2907 9.9288 9.8772-7.2509c8.4795 5.2209 19.5745 5.1025 28.083-1.1436 8.5087-6.2465 11.9449-16.7958 9.5022-26.4486l9.8772-7.2513-7.2907-9.9286c5.17-8.4653 4.9961-19.5779-1.2842-28.1315z" fill="#eac102" fill-rule="evenodd"/><path d="m204.2054 674.7652c-5.6229-7.6582-16.2828-9.3205-23.9003-3.7284l-6.3726 4.6784-4.7034-6.4058c-5.6231-7.6576-16.283-9.3202-23.9009-3.7279-7.6179 5.5927-9.2243 16.2602-3.601 23.918l4.7038 6.4056-6.3728 4.6785c-7.6179 5.5923-9.2239 16.2596-3.6008 23.9174 5.6229 7.658 16.2828 9.3204 23.9005 3.7282l6.3726-4.6782 4.7038 6.4058c5.6227 7.6574 16.2826 9.32 23.9005 3.7279 7.6179-5.5929 9.2237-16.2604 3.601-23.9182l-4.7034-6.4054 6.3722-4.6785c7.6179-5.5925 9.2239-16.2599 3.6008-23.9174z" fill="none"/><path d="m489.9501 483.038c4.9572-3.6392 21.6268-21.1594 15.5365-29.4531-6.0901-8.2937-27.8007 2.3617-32.7579 6.0011z" fill="#eac102"/><path d="m474.3607 461.81 13.9556 19.0054-3.9389 2.8917-13.9554-19.0054z" fill="#eac102"/><path d="m414.884 505.4738 13.9554 19.0058-3.9391 2.8917-13.9554-19.0058z" fill="#eac102"/><path d="m434.7095 490.9194 13.9554 19.0055-3.9389 2.8915-13.9552-19.0052z" fill="#eac102"/><path d="m454.5354 476.3647 13.9554 19.0056-3.9391 2.8916-13.9552-19.0057z" fill="#eac102"/></g><g><path d="m377.4103 683.9668c18.599-20.293 27.1003-89.5732 55.5308-91.8407 1.9264-.1537 3.835-.1489 5.7211-.0002l17.2042 2.0941c-27.7295 14.5747-34.444 98.1952-60.4366 95.2015-6.5774-.9619-12.3747-3.094-18.0195-5.4548z" fill="#e5e5e5"/><path d="m383.1514 683.1267c18.0891-21.2938 26.7397-88.7634 54.79-91.0006" fill="none"/><path d="m394.3906 689.1946c22.8817-5.4335 30.2635-81.7166 56.7612-95.1216" fill="none"/><path d="m489.4782 635.5139c-8.0914-18.293-27.7816-41.5722-50.8161-43.3882 8.1866.6036 16.313.6342 24.3009.0001 25.4539-2.0206 47.7832 23.5973 56.5371 43.3881-6.2645-5.4486-13.2542-10.4139-22.5-13.875-.7288 5.4696-3.8896 10.5157-7.5219 13.875z" fill="#e5e5e5"/><path d="m463.413 592.1055c20.4637 1.4615 38.3195 19.9062 47.7992 36.8517" fill="none"/><path d="m447.0388 592.5469c20.0238 3.4114 37.1254 22.5311 45.628 39.169" fill="none"/></g><g><path d="m217.9978 519.2963-15.4509 21.0422-8.1478-5.9821-5.1503 7.0139 8.148 5.9818-15.4507 21.0418-9.7234-7.1385 7.7254-10.5206-6.8869-5.0563-7.7252 10.5214-10.6695-7.8332 15.4505-21.0416 8.1488 5.9822 5.1497-7.0138-8.1482-5.9824 6.4373-8.7676-6.8863-5.0555-6.4375 8.7676-8.1488-5.9824-5.1501 7.014 8.1486 5.9824-15.4505 21.0418-10.6695-7.8328 7.7252-10.521-6.8865-5.0559-7.7258 10.521-9.7234-7.1387 15.4507-21.0416 8.1476 5.9816 5.1505-7.0136-8.1482-5.9818 15.4509-21.0418z" fill="#eac102"/><path d="m161.0208 462.0757-10.4667 14.2543 267.0986 196.0858 10.4667-14.2541z" fill="#eac102"/><path d="m424.9779 646.1052-19.7704 26.9242 23.6332 17.3499 19.7702-26.9245z" fill="#eac102"/><path d="m463.5241 724.0818c-3.1276 4.2594-9.0978 5.1903-13.3346 2.0801-4.2372-3.1108-5.1363-9.0843-2.009-13.3444l8.1534-11.1041-11.0463-8.1098c-4.2374-3.111-5.1371-9.0853-2.0096-13.3446 3.1272-4.2588 9.0976-5.1897 13.3348-2.0789l11.0461 8.1093 8.1546-11.1044c3.128-4.2596 9.0972-5.1907 13.3342-2.0803 4.237 3.1106 5.1373 9.0848 2.0096 13.3444l-8.1546 11.1046 11.0465 8.1097c4.2376 3.1104 5.1369 9.0848 2.0092 13.344-3.1272 4.2589-9.0968 5.19-13.3342 2.0794l-11.0475-8.11zm-35.1122-54.7365c6.2805-8.5532 16.8322-12.0477 26.4583-9.6503l7.2901-9.9286 9.8774 7.2507c8.4791-5.2211 19.5745-5.1027 28.083 1.1434 8.5089 6.2467 11.9445 16.7962 9.502 26.4489l9.8774 7.2514-7.2907 9.9286c5.1706 8.4649 4.9963 19.5779-1.2846 28.1313-6.2799 8.5532-16.8318 12.0475-26.4575 9.6505l-7.2907 9.9288-9.8772-7.2509c-8.4795 5.2209-19.5745 5.1025-28.083-1.1436-8.5087-6.2465-11.9449-16.7958-9.5022-26.4486l-9.8772-7.2513 7.2907-9.9286c-5.17-8.4653-4.9961-19.5779 1.2842-28.1315z" fill="#eac102" fill-rule="evenodd"/><path d="m435.7946 674.7652c5.6229-7.6582 16.2828-9.3205 23.9003-3.7284l6.3726 4.6784 4.7034-6.4058c5.6231-7.6576 16.283-9.3202 23.9009-3.7279 7.6179 5.5927 9.2243 16.2602 3.601 23.918l-4.7038 6.4056 6.3728 4.6785c7.6179 5.5923 9.2239 16.2596 3.6008 23.9174-5.6229 7.658-16.2828 9.3204-23.9005 3.7282l-6.3726-4.6782-4.7038 6.4058c-5.6227 7.6574-16.2826 9.32-23.9005 3.7279-7.6179-5.5929-9.2237-16.2604-3.601-23.9182l4.7034-6.4054-6.3722-4.6785c-7.6179-5.5925-9.2239-16.2599-3.6008-23.9174z" fill="none"/><path d="m150.0499 483.038c-4.9572-3.6392-21.6268-21.1594-15.5365-29.4531 6.0901-8.2937 27.8007 2.3617 32.7579 6.0011z" fill="#eac102"/><path d="m165.6393 461.81-13.9556 19.0054 3.9389 2.8917 13.9554-19.0054z" fill="#eac102"/><path d="m225.116 505.4738-13.9554 19.0058 3.9391 2.8917 13.9554-19.0058z" fill="#eac102"/><path d="m205.2905 490.9194-13.9554 19.0055 3.9389 2.8915 13.9552-19.0052z" fill="#eac102"/><path d="m185.4646 476.3647-13.9554 19.0056 3.9391 2.8916 13.9552-19.0057z" fill="#eac102"/></g><g><path d="m369.2834 519.5251c0 49.3571-1.7486 166.6837 26.1465 169.8965-9.4286-1.0687-18.5081-1.0481-27.338 0-.8719.1035-1.766.1058-2.6841 0-27.8952-3.2128-26.1464-120.5394-26.1464-169.8965z" fill="#e5e5e5"/><path d="m344.2618 519.5251c0 48.7978-1.7094 164.0335 25.2095 169.7436" fill="none"/><path d="m364.2838 519.5251c0 47.7807-1.6389 159.2585 23.5632 169.2454" fill="none"/><path d="m354.681 550.131c-.6109 14.1337.0201 31.3608.3601 42.7587" fill="none" stroke-width="2"/><path d="m361.1623 561.8273h-13.6826" fill="none" stroke-width="2"/></g><g><path d="m270.7166 519.5251c0 49.3571 1.7486 166.6837-26.1465 169.8965 9.4286-1.0687 18.5081-1.0481 27.338 0 .8719.1035 1.766.1058 2.6841 0 27.8952-3.2128 26.1464-120.5394 26.1464-169.8965z" fill="#e5e5e5"/><path d="m295.7382 519.5251c0 48.7978 1.7094 164.0335-25.2095 169.7436" fill="none"/><path d="m275.7162 519.5251c0 47.7807 1.6389 159.2585-23.5632 169.2454" fill="none"/><path d="m285.319 550.131c.6109 14.1337-.0201 31.3608-.3601 42.7587" fill="none" stroke-width="2"/><path d="m278.8377 561.8273h13.6826" fill="none" stroke-width="2"/></g><g><g><path d="m318.3213 310.3394v-11.5784h-5.1816v-3.4345h5.1816v-4.8265h3.3574v4.8265h5.1816v3.4345h-5.1816v11.5784z" fill="#eac102"/><path d="m329.2445 315.5594c0 5.1722-4.1389 9.3652-9.2445 9.3652s-9.2445-4.1929-9.2445-9.3652 4.1389-9.3652 9.2445-9.3652 9.2445 4.1929 9.2445 9.3652z" fill="#0071bc" fill-rule="evenodd"/><path d="m329.304 317.4369c.3626-.9255.1365-3.6292 0-3.7592 0-.616-3.2145-1.1205-7.4798-1.2364v-6.4942c-.6103-.1058-1.2168-.1624-1.8243-.1624-.6074 0-1.2139.0566-1.8242.1624v6.4942c-4.2653.116-7.4798.6204-7.4798 1.2364-.1365.13-.3626 2.8337 0 3.7592 0-.7014 4.1636-1.2739 9.304-1.2739 5.1405 0 9.3041.5725 9.3041 1.2739z" fill="#eac102"/></g><path d="m257.141 519.6388c-12.6502-45.9773-13.0384-91.4936-5.2885-127.8293 9.0258-42.3183 30.4415-66.6196 68.1475-71.7255 37.7059 5.1059 59.1216 29.4073 68.1474 71.7255 7.7499 36.3358 7.3617 81.8521-5.2885 127.8293z" fill="#e5e5e5"/><g><path d="m255.2864 519.5921c0-2.6054 14.188-7.9034 64.7137-7.9034s64.7137 5.298 64.7137 7.9034-14.188 7.9034-64.7137 7.9034-64.7137-5.298-64.7137-7.9033z" fill="#e5e5e5"/><g fill="none"><path d="m262.7982 516.1756v6.833" stroke-width="2.0491"/><path d="m265.2115 515.6209v7.9424" stroke-width="1.9559"/><path d="m267.6247 515.2569v8.6704" stroke-width="1.8628"/><path d="m270.038 514.8063v9.5716" stroke-width="1.7696"/><path d="m272.4516 514.4077v10.3689" stroke-width="1.6765"/><path d="m274.8648 514.061v11.0622" stroke-width="1.5834"/><path d="m277.2781 513.7145v11.7551" stroke-width="1.4902"/><path d="m279.6913 513.4198v12.3445" stroke-width="1.3971"/><path d="m282.1049 513.2291v12.726" stroke-width="1.304"/><path d="m284.5182 513.0039v13.1764" stroke-width="1.2108"/><path d="m286.9315 512.6572v13.8697" stroke-width="1.1177"/><path d="m289.3451 512.4665v14.2512" stroke-width="1.0245"/><path d="m291.7583 512.3799v14.4245" stroke-width=".9314"/><path d="m294.1716 512.172v14.8402" stroke-width=".8383"/><path d="m296.5848 511.9985v15.1871" stroke-width=".7451"/><path d="m298.9984 511.8946v15.3949" stroke-width=".652"/><path d="m301.4117 511.7387v15.7068" stroke-width=".5588"/><path d="m303.8249 511.6346v15.915" stroke-width=".4657"/><path d="m306.2382 511.3225v16.5391" stroke-width=".3726"/><path d="m308.6518 511.3225v16.5391" stroke-width=".2794"/><path d="m311.0651 511.3225v16.5391" stroke-width=".1863"/><path d="m313.4783 511.3225v16.5391" stroke-width=".0931"/><path d="m257.9713 517.8221v3.54" stroke-width="2.2353"/><path d="m260.3846 516.938v5.3081" stroke-width="2.1422"/><path d="m377.202 516.1756v6.833" stroke-width="2.0491"/><path d="m374.7887 515.6209v7.9424" stroke-width="1.9559"/><path d="m372.3755 515.2569v8.6704" stroke-width="1.8628"/><path d="m369.9623 514.8063v9.5716" stroke-width="1.7696"/><path d="m367.5486 514.4077v10.3689" stroke-width="1.6765"/><path d="m365.1354 514.061v11.0622" stroke-width="1.5834"/><path d="m362.7221 513.7145v11.7551" stroke-width="1.4902"/><path d="m360.3089 513.4198v12.3445" stroke-width="1.3971"/><path d="m357.8952 513.2291v12.726" stroke-width="1.304"/><path d="m355.482 513.0039v13.1764" stroke-width="1.2108"/><path d="m353.0688 512.6572v13.8697" stroke-width="1.1177"/><path d="m350.6551 512.4665v14.2512" stroke-width="1.0245"/><path d="m348.2419 512.3799v14.4245" stroke-width=".9314"/><path d="m345.8286 512.172v14.8402" stroke-width=".8383"/><path d="m343.4154 511.9985v15.1871" stroke-width=".7451"/><path d="m341.0018 511.8946v15.3949" stroke-width=".652"/><path d="m338.5885 511.7387v15.7068" stroke-width=".5588"/><path d="m336.1753 511.6346v15.915" stroke-width=".4657"/><path d="m333.762 511.3225v16.5391" stroke-width=".3726"/><path d="m331.3484 511.3225v16.5391" stroke-width=".2794"/><path d="m328.9352 511.3225v16.5391" stroke-width=".1863"/><path d="m326.5219 511.3225v16.5391" stroke-width=".0931"/><path d="m382.0289 517.8221v3.54" stroke-width="2.2353"/><path d="m379.6156 516.938v5.3081" stroke-width="2.1422"/></g><g><path d="m386.5713 501.2325c2.4375-1.9137 5.6543-9.0916 7.1533-12.7771l3.1563 1.5017c-2.4451 5.8675-4.454 9.6779-6.1977 12.0498-.8721 1.186-1.6723 2.0345-2.5821 2.5876z" fill="#eac102"/><path d="m253.4286 501.2325c-2.4375-1.9137-5.6543-9.0916-7.1533-12.7771l-3.1563 1.5017c2.4451 5.8675 4.454 9.6779 6.1977 12.0498.8721 1.186 1.6723 2.0345 2.5821 2.5876z" fill="#eac102"/><path d="m298.4764 489.072c-3.152 7.9759-13.6344 8.9382-19.3723 1.9058-2.2648 7.5455-12.0285 8.2252-17.8929 3.6605-.3058-.2566-.6008-.5147-.8985-.7975-.01.6872-.09 1.3999-.2858 2.1175-2.104 7.7047-12.3403 5.0818-16.9107-6.0013l-2.6414-6.4056c-.3688-.8943.05-2.0651.8788-2.4576.8291-.3925 1.9202.0636 2.2878.9584l2.631 6.403c3.639 8.8558 13.1021 12.8175 9.1697-1.0658-.2648-.9351.2433-2.0473 1.1051-2.3474s1.378-.0331 1.8591.838c5.8208 10.5393 19.9136 11.271 17.4869-2.0375 0 0-.7062-3.8736-1.0594-5.8103-.1708-.9361.5066-1.9399 1.3779-2.1218.8711-.1819 1.8456.4768 2.0166 1.4129l1.0594 5.7987c2.281 12.4846 18.1004 11.7669 16.6699-.918-.1043-.9241.6619-1.8289 1.5217-1.9397s1.8205.5719 1.9051 1.4981c1.1794 12.761 18.886 12.3765 18.886.0815v-6.1241c0-.9775.8132-1.8942 1.7296-1.8942.9163 0 1.7295.9167 1.7295 1.8942v6.1241c0 12.295 17.7066 12.6795 18.886-.0815.085-.9263 1.0454-1.6089 1.9051-1.4981.8598.1108 1.626 1.0156 1.5217 1.9397-1.4305 12.685 14.3889 13.4026 16.6699.918l1.0594-5.7987c.171-.9361 1.1455-1.5948 2.0166-1.4129.8713.1819 1.5487 1.1857 1.3779 2.1218-.3532 1.9368-1.0594 5.8103-1.0594 5.8103-2.4267 13.3085 11.6661 12.5768 17.4869 2.0375.4811-.8712.9973-1.1381 1.8591-.838.8618.3 1.3699 1.4123 1.1051 2.3474-3.9324 13.8833 5.5307 9.9216 9.1697 1.0658l2.631-6.403c.3676-.8948 1.4587-1.3509 2.2878-.9584.829.3925 1.2476 1.5633.8788 2.4576l-2.6414 6.4056c-4.5704 11.0831-14.8067 13.706-16.9107 6.0013-.196-.7176-.2753-1.4303-.2858-2.1175-.2977.2828-.5927.5409-.8985.7975-5.8644 4.5646-15.6281 3.885-17.8929-3.6605-5.7379 7.0324-16.2203 6.0701-19.3723-1.9058-6.0169 8.3821-17.2338 7.0865-21.5235-.3999-4.2898 7.4864-15.5067 8.782-21.5236.3999z" fill="#eac102"/><path d="m288.482 479.2423c1.1286.9419 1.4477 2.0977 1.5686 3.5227-4.0876-1.3638-6.0931-.1964-8.3172-1.8537l-2.5227-1.88-.9743-4.6572 1.6487-2.3c1.4002-1.9533 4.1968-1.4659 7.2041-3.4672.4676 1.3893.6352 2.561-.06 3.6909 2.7735-.1085 5.27 1.1735 7.4249 2.7858-1.4036 1.9798-3.2718 3.7018-5.972 4.1586z" fill="#eac102"/><path d="m266.0502 481.5589c-.6954 1.13-.5274 2.3016-.06 3.6905 3.7322-2.2163 5.8158-1.5059 7.2059-3.4566l1.6465-2.3106-.9744-4.6571-2.5205-1.8695c-2.1706-1.6099-4.3653-.5323-8.3194-1.8638.1211 1.4246.44 2.5809 1.569 3.5223-2.7008.4569-4.5668 2.1893-5.9702 4.1691 2.155 1.6123 4.6492 2.8838 7.4226 2.7757z" fill="#eac102"/><path d="m273.3552 477.3383c-5.6837-.0675-7.2906.6573-12.296 1.2032" fill="none"/><path d="m271.1346 465.7044c-1.1784-.8676-2.6478-1.1787-3.935-.8582 2.5517 3.8831 1.9957 6.1428 4.2249 7.9809l2.4368 2.0095 4.3872-.4531 1.5008-2.4161c1.2689-2.0431-.035-4.3373.7875-8.4982-1.364-.0473-2.4435.146-3.217 1.2151-.7718-2.8887-2.9304-5.3032-5.413-6.6119-.738 2.5047-1.8676 4.7691-.7722 7.6318z" fill="#eac102"/><path d="m275.829 473.5303c-1.8531-4.9049-1.4073-8.6491-3.1115-12.9583" fill="none"/><path d="m279.757 476.6772c5.3169-1.4457 7.5091-.4531 12.3613-1.3282" fill="none"/><path d="m280.2168 476.9223c0 2.0862-1.7012 3.7774-3.7996 3.7774-2.0981 0-3.7994-1.6912-3.7994-3.7774s1.7012-3.7774 3.7994-3.7774c2.0984 0 3.7996 1.6912 3.7996 3.7774z" fill="#ed1c24" fill-rule="evenodd"/><path d="m307.0716 467.5274c4.5399 1.8743 6.4297.8734 8.3413 2.6721l2.2406 2.1082v4.6759l-2.2406 2.1086c-1.9113 1.7987-3.8013.7974-8.3413 2.672-.1863-1.416-.105-2.5872.8753-3.6297-2.9414-.1753-5.2855-1.6814-7.1973-3.4889 1.9119-1.8072 4.256-3.3136 7.1973-3.489-.9803-1.0425-1.0616-2.2134-.8753-3.6293z" fill="#eac102"/><path d="m316.5601 474.6455h-13.0927" fill="none"/><path d="m322.351 472.3118 2.1202-2.2284c1.8085-1.9008.8017-3.7802 2.6868-8.2955-1.424-.1851-2.6015-.1044-3.6497.8705-.1764-2.9254-1.6908-5.2566-3.5083-7.1583-1.8173 1.9017-3.3317 4.2329-3.508 7.1583-1.0482-.9749-2.226-1.0556-3.6496-.8705 1.8848 4.5153.8781 6.3947 2.6866 8.2955l2.1201 2.2284z" fill="#eac102"/><path d="m320 471.2246v-13.0213" fill="none"/><path d="m332.9286 467.5274c-4.54 1.8743-6.4298.8734-8.3413 2.6721l-2.2406 2.1082v4.6759l2.2406 2.1086c1.9113 1.7987 3.8015.7974 8.3413 2.672.186-1.416.1051-2.5872-.8753-3.6297 2.9415-.1753 5.2855-1.6814 7.1972-3.4889-1.9117-1.8072-4.2557-3.3136-7.1972-3.489.9804-1.0425 1.0614-2.2134.8753-3.6293z" fill="#eac102"/><path d="m323.4402 474.6455h13.0928" fill="none"/><path d="m323.7994 474.6455c0 2.0862-1.7009 3.7774-3.7994 3.7774-2.0984 0-3.7994-1.6912-3.7994-3.7774s1.701-3.7774 3.7994-3.7774c2.0985 0 3.7994 1.6912 3.7994 3.7774z" fill="#ed1c24" fill-rule="evenodd"/><path d="m300.5148 481.0438c0 1.6292-1.3207 2.95-2.95 2.95-1.6291 0-2.95-1.3208-2.95-2.95s1.3209-2.95 2.95-2.95c1.6293 0 2.95 1.3208 2.95 2.95z" fill="#e5e5e5" fill-rule="evenodd"/><path d="m320 511.7432c-52.0579 0-67.9762-5.9666-67.9762-6.8583 0-.8918 15.9184-6.8584 67.9762-6.8584 52.058 0 67.9762 5.9666 67.9762 6.8584 0 .8917-15.9183 6.8583-67.9762 6.8583zm-51.339 1.1864c-12.1218-1.6045-21.0793-4.1283-21.0793-8.0446 0-9.1018 48.3822-10.682 72.4181-10.682 24.0362 0 72.4185 1.5802 72.4185 10.682 0 3.9163-8.9577 6.4401-21.0791 8.0446z" fill="#eac102" fill-rule="evenodd"/><path d="m281.4626 512.9297-25.7128 5.4841c-.9617-4.6287-1.87-8.8344-4.07-13.1627-1.1693-2.3009 22.2561-7.5237 68.3202-7.5237 46.0642 0 69.4896 5.2229 68.3202 7.5237-2.2 4.3283-3.1081 8.534-4.0698 13.1627l-25.7128-5.4841z" fill="#eac102"/><path d="m274.4922 503.5272 13.3454-1.2491c1.335-.125 2.5104.8469 2.6358 2.179.1251 1.3321-.8487 2.5051-2.1836 2.63l-13.3454 1.2491c-1.3349.125-2.5105-.8469-2.6357-2.179s.8487-2.5051 2.1835-2.63z" fill="#008f4c" fill-rule="evenodd"/><path d="m267.4538 507.3498c0 1.6292-1.3207 2.95-2.95 2.95-1.6291 0-2.95-1.3208-2.95-2.95s1.3209-2.95 2.95-2.95c1.6293 0 2.95 1.3208 2.95 2.95z" fill="#e5e5e5" fill-rule="evenodd"/><path d="m302.6858 504.1478c0 1.6292-1.3207 2.95-2.95 2.95-1.6291 0-2.95-1.3208-2.95-2.95s1.3209-2.95 2.95-2.95c1.6293 0 2.95 1.3208 2.95 2.95z" fill="#e5e5e5" fill-rule="evenodd"/><path d="m251.4844 511.5333 1.489-3.35 4.8404.8384-3.2266 4.3054z" fill="#ed1c24"/><path d="m382.9035 519.5921c0 .8271-14.7306 6.3613-62.9036 6.3613-48.1729 0-62.9033-5.5342-62.9033-6.3613 0-.8272 14.7304-6.3614 62.9033-6.3614 48.173 0 62.9036 5.5342 62.9036 6.3614zm4.1106 0c0 8.4423-44.7718 9.908-67.0142 9.908-22.2422 0-67.0139-1.4657-67.0139-9.908s44.7717-9.9079 67.0139-9.9079c22.2424 0 67.0142 1.4657 67.0142 9.9079z" fill="#eac102" fill-rule="evenodd"/><path d="m312.7726 501.243-3.7553 2.5249 3.7553 2.5246h14.4549l3.7552-2.5246-3.7552-2.5249z" fill="#ed1c24"/><path d="m365.3538 503.5272-13.3454-1.2491c-1.3347-.125-2.5102.8469-2.6353 2.179-.1254 1.3321.8485 2.5051 2.1834 2.63l13.3454 1.2491c1.3349.125 2.5103-.8469 2.6355-2.179.1253-1.3321-.8486-2.5051-2.1836-2.63z" fill="#008f4c" fill-rule="evenodd"/><path d="m388.3618 511.5333-1.4888-3.35-4.8405.8384 3.2266 4.3054z" fill="#ed1c24"/><path d="m239.3742 478.0333c-1.7132-4.1532-3.284-6.9279-10.8742-9.3666 3.5574-3.3527 9.3367-3.2335 12.0955 1.2035.5662-.9112.8496-1.1855 2.008-1.8815.2543 2.7733 3.5742 5.5862 1.0201 9.8616l-2.5096 4.2016z" fill="#eac102"/><path d="m249.8587 484.4361c.7367.915.9042 2.0539.9225 3.4615 0 0-3.799-1.1975-5.572-1.2011-2.0246-.004-3.2985-1.1568-3.5437-1.5378l-1.009-3.9883c1.9654-2.1573 2.5524-3.4551 3.9084-4.5637 1.354-1.1067 3.3344-1.8976 4.8181-2.6702.2596 1.3672.322 2.5238-.2103 3.6519 1.9211-.1478 3.5871 1.0841 5.0021 2.6473-1.0603 1.9787-2.4295 3.7093-4.3161 4.2005z" fill="#eac102"/><path d="m241.2372 483.0148c3.5671-1.731 6.4254-1.5405 10.5201-2.7545" fill="none"/><path d="m241.6655 485.1586c-.5379.1191-1.1002.1314-1.6742-.0003-2.0451-.4692-3.3271-2.4885-2.8633-4.5102.2827-1.2326 1.1496-2.1681 2.2464-2.6148 1.5925 1.5958 2.5233 4.7908 2.2911 7.1253z" fill="#ed1c24" fill-rule="evenodd"/><path d="m259.8511 486.1135c0 1.6292-1.3207 2.95-2.95 2.95-1.6291 0-2.95-1.3208-2.95-2.95s1.3209-2.95 2.95-2.95c1.6293 0 2.95 1.3208 2.95 2.95z" fill="#e5e5e5" fill-rule="evenodd"/><path d="m351.5181 479.2423c-1.1286.9419-1.4478 2.0977-1.5686 3.5227 4.0876-1.3638 6.0931-.1964 8.3172-1.8537l2.5227-1.88.9743-4.6572-1.6487-2.3c-1.4002-1.9533-4.1969-1.4659-7.2042-3.4672-.4676 1.3893-.6352 2.561.06 3.6909-2.7735-.1085-5.2701 1.1735-7.425 2.7858 1.4036 1.9798 3.2719 3.7018 5.9721 4.1586z" fill="#eac102"/><path d="m373.9498 481.5589c.6954 1.13.5275 2.3016.06 3.6905-3.7323-2.2163-5.8158-1.5059-7.206-3.4566l-1.6464-2.3106.9743-4.6571 2.5205-1.8695c2.1706-1.6099 4.3653-.5323 8.3194-1.8638-.1211 1.4246-.44 2.5809-1.569 3.5223 2.7008.4569 4.5668 2.1893 5.9702 4.1691-2.155 1.6123-4.6492 2.8838-7.4226 2.7757z" fill="#eac102"/><path d="m366.6449 477.3383c5.6837-.0675 7.2906.6573 12.296 1.2032" fill="none"/><path d="m368.8654 465.7044c1.1784-.8676 2.6479-1.1787 3.9351-.8582-2.5517 3.8831-1.9958 6.1428-4.225 7.9809l-2.4368 2.0095-4.3872-.4531-1.5008-2.4161c-1.2689-2.0431.035-4.3373-.7875-8.4982 1.364-.0473 2.4435.146 3.217 1.2151.7718-2.8887 2.9304-5.3032 5.413-6.6119.738 2.5047 1.8676 4.7691.7722 7.6318z" fill="#eac102"/><path d="m364.1711 473.5303c1.8531-4.9049 1.4072-8.6491 3.1115-12.9583" fill="none"/><path d="m360.243 476.6772c-5.3169-1.4457-7.5091-.4531-12.3613-1.3282" fill="none"/><path d="m359.7833 476.9223c0 2.0862 1.7012 3.7774 3.7995 3.7774 2.0982 0 3.7994-1.6912 3.7994-3.7774s-1.7012-3.7774-3.7994-3.7774c-2.0983 0-3.7995 1.6912-3.7995 3.7774z" fill="#ed1c24" fill-rule="evenodd"/><path d="m400.6258 478.0333c1.7132-4.1532 3.284-6.9279 10.8742-9.3666-3.5574-3.3527-9.3367-3.2335-12.0955 1.2035-.5662-.9112-.8496-1.1855-2.008-1.8815-.2543 2.7733-3.5742 5.5862-1.0201 9.8616l2.5096 4.2016z" fill="#eac102"/><path d="m390.1413 484.4361c-.7367.915-.9042 2.0539-.9225 3.4615 0 0 3.799-1.1975 5.572-1.2011 2.0246-.004 3.2985-1.1568 3.5437-1.5378l1.009-3.9883c-1.9654-2.1573-2.5524-3.4551-3.9084-4.5637-1.354-1.1067-3.3344-1.8976-4.8181-2.6702-.2596 1.3672-.322 2.5238.2103 3.6519-1.9211-.1478-3.5871 1.0841-5.0021 2.6473 1.0603 1.9787 2.4295 3.7093 4.3161 4.2005z" fill="#eac102"/><path d="m398.7628 483.0148c-3.5671-1.731-6.4254-1.5405-10.5201-2.7545" fill="none"/><path d="m398.3345 485.1586c.5379.1191 1.1002.1314 1.6742-.0003 2.0451-.4692 3.3271-2.4885 2.8633-4.5102-.2827-1.2326-1.1496-2.1681-2.2464-2.6148-1.5925 1.5958-2.5233 4.7908-2.2911 7.1253z" fill="#ed1c24" fill-rule="evenodd"/><path d="m339.4852 481.0438c0 1.6292 1.3207 2.95 2.95 2.95 1.6291 0 2.95-1.3208 2.95-2.95s-1.3209-2.95-2.95-2.95c-1.6293 0-2.95 1.3208-2.95 2.95z" fill="#e5e5e5" fill-rule="evenodd"/><path d="m372.5462 507.3498c0 1.6292 1.3207 2.95 2.95 2.95 1.6291 0 2.95-1.3208 2.95-2.95s-1.3209-2.95-2.95-2.95c-1.6293 0-2.95 1.3208-2.95 2.95z" fill="#e5e5e5" fill-rule="evenodd"/><path d="m337.3142 504.1478c0 1.6292 1.3207 2.95 2.95 2.95 1.6291 0 2.95-1.3208 2.95-2.95s-1.3209-2.95-2.95-2.95c-1.6293 0-2.95 1.3208-2.95 2.95z" fill="#e5e5e5" fill-rule="evenodd"/><path d="m380.1489 486.1135c0 1.6292 1.3207 2.95 2.95 2.95 1.6291 0 2.95-1.3208 2.95-2.95s-1.3209-2.95-2.95-2.95c-1.6293 0-2.95 1.3208-2.95 2.95z" fill="#e5e5e5" fill-rule="evenodd"/></g></g><g><path d="m307.0717 402.8375c4.5399 1.8743 6.4297.8734 8.3413 2.6721l2.2406 2.1082v4.6759l-2.2406 2.1086c-1.9113 1.7987-3.8013.7974-8.3413 2.672-.1862-1.416-.105-2.5872.8753-3.6297-2.9414-.1753-5.2855-1.6814-7.1972-3.4889 1.9118-1.8072 4.2559-3.3136 7.1972-3.489-.9803-1.0425-1.0615-2.2134-.8753-3.6293z" fill="#eac102"/><path d="m316.5602 409.9557h-13.0927" fill="none"/><path d="m322.3511 407.6219 2.1202-2.2284c1.8085-1.9008.8017-3.7802 2.6868-8.2955-1.424-.1851-2.6015-.1044-3.6497.8705-.1764-2.9254-1.6908-5.2567-3.5083-7.1584-1.8173 1.9017-3.3317 4.233-3.508 7.1584-1.0482-.9749-2.226-1.0556-3.6496-.8705 1.8848 4.5153.8781 6.3947 2.6866 8.2955l2.1201 2.2284z" fill="#eac102"/><path d="m320.0001 406.5347v-13.0213" fill="none"/><path d="m392.3917 436.5426c2.6507-1.9137 6.1487-9.0916 7.7788-12.7771l3.4322 1.5017c-2.6588 5.8675-4.8434 9.6779-6.7395 12.0498-.9484 1.186-1.8186 2.0345-2.8079 2.5876z" fill="#eac102"/><path d="m247.6082 436.5426c-2.6507-1.9137-6.1487-9.0916-7.7788-12.7771l-3.4322 1.5017c2.6588 5.8675 4.8434 9.6779 6.7395 12.0498.9484 1.186 1.8186 2.0345 2.8079 2.5876z" fill="#eac102"/><path d="m296.5946 424.3821c-3.4276 7.9759-14.8265 8.9382-21.0661 1.9058-2.4628 7.5455-13.0802 8.2252-19.4573 3.6605-.3325-.2566-.6533-.5147-.9771-.7975-.011.6872-.098 1.3999-.3107 2.1175-2.288 7.7047-13.4193 5.0818-18.3893-6.0013l-2.8723-6.4056c-.4011-.8943.054-2.0651.9556-2.4576s2.0881.0636 2.4878.9584l2.8611 6.403c3.9571 8.8558 14.2476 12.8175 9.9714-1.0658-.288-.9351.2646-2.0473 1.2017-2.3474.9372-.3001 1.4985-.0331 2.0217.838 6.3297 10.5393 21.6546 11.271 19.0158-2.0375 0 0-.768-3.8736-1.1521-5.8103-.1857-.9361.5509-1.9399 1.4984-2.1218.9473-.1819 2.007.4768 2.1929 1.4129l1.1521 5.7987c2.4804 12.4846 19.6829 11.7669 18.1273-.918-.1134-.9241.7198-1.8289 1.6548-1.9397.9349-.1108 1.9796.5719 2.0716 1.4981 1.2826 12.761 20.5373 12.3765 20.5373.0815v-6.1241c0-.9775.8843-1.8942 1.8808-1.8942.9964 0 1.8807.9167 1.8807 1.8942v6.1241c0 12.295 19.2547 12.6795 20.5373-.0815.092-.9263 1.1367-1.6089 2.0716-1.4981.935.1108 1.7682 1.0156 1.6548 1.9397-1.5556 12.685 15.6469 13.4026 18.1273.918l1.1521-5.7987c.1859-.9361 1.2456-1.5948 2.1929-1.4129.9475.1819 1.6841 1.1857 1.4984 2.1218-.3841 1.9368-1.1521 5.8103-1.1521 5.8103-2.6388 13.3085 12.6861 12.5768 19.0158 2.0375.5232-.8712 1.0845-1.1381 2.0217-.838.9371.3 1.4897 1.4123 1.2017 2.3474-4.2762 13.8833 6.0143 9.9216 9.9714 1.0658l2.8611-6.403c.3997-.8948 1.5862-1.3509 2.4878-.9584.9015.3925 1.3567 1.5633.9556 2.4576l-2.8723 6.4056c-4.97 11.0831-16.1013 13.706-18.3893 6.0013-.2131-.7176-.2993-1.4303-.3107-2.1175-.3238.2828-.6446.5409-.9771.7975-6.3771 4.5646-16.9945 3.885-19.4573-3.6605-6.2396 7.0324-17.6385 6.0701-21.0661-1.9058-6.5429 8.3821-18.7405 7.0865-23.4053-.3999-4.6649 7.4864-16.8625 8.782-23.4054.3999z" fill="#eac102"/><path d="m284.682 414.5524c1.1286.9419 1.4478 2.0977 1.5686 3.5227-4.0876-1.3638-6.0931-.1964-8.3172-1.8537l-2.5227-1.88-.9743-4.6572 1.6487-2.3c1.4002-1.9533 4.1969-1.4659 7.2042-3.4672.4676 1.3893.6352 2.561-.06 3.6909 2.7735-.1085 5.2701 1.1735 7.425 2.7858-1.4036 1.9798-3.2719 3.7018-5.9721 4.1586z" fill="#eac102"/><path d="m262.2503 416.869c-.6954 1.13-.5275 2.3016-.06 3.6905 3.7323-2.2163 5.8158-1.5059 7.206-3.4566l1.6464-2.3106-.9743-4.6571-2.5205-1.8695c-2.1706-1.6099-4.3653-.5323-8.3194-1.8638.1211 1.4246.44 2.5809 1.569 3.5223-2.7008.4569-4.5668 2.1893-5.9702 4.1691 2.155 1.6123 4.6492 2.8838 7.4226 2.7757z" fill="#eac102"/><path d="m269.5552 412.6484c-5.6837-.0675-7.2906.6573-12.296 1.2032" fill="none"/><path d="m267.3347 401.0145c-1.1784-.8676-2.6479-1.1787-3.9351-.8582 2.5517 3.8831 1.9958 6.1428 4.225 7.9809l2.4368 2.0095 4.3872-.4531 1.5008-2.4161c1.2689-2.0431-.035-4.3373.7875-8.4982-1.364-.0473-2.4435.146-3.217 1.2151-.7718-2.8887-2.9304-5.3032-5.413-6.6119-.738 2.5047-1.8676 4.7691-.7722 7.6318z" fill="#eac102"/><path d="m272.029 408.8404c-1.8531-4.9049-1.4072-8.6491-3.1115-12.9583" fill="none"/><path d="m275.9571 411.9873c5.3169-1.4457 7.5091-.4531 12.3613-1.3282" fill="none"/><path d="m276.4168 412.2324c0 2.0862-1.7012 3.7774-3.7995 3.7774-2.0982 0-3.7994-1.6912-3.7994-3.7774s1.7012-3.7774 3.7994-3.7774c2.0983 0 3.7995 1.6912 3.7995 3.7774z" fill="#ed1c24" fill-rule="evenodd"/><path d="m355.3183 414.5524c-1.1286.9419-1.4478 2.0977-1.5685 3.5227 4.0878-1.3638 6.0929-.1964 8.3171-1.8537l2.5229-1.88.9743-4.6572-1.6489-2.3c-1.4-1.9533-4.1967-1.4659-7.204-3.4672-.4676 1.3893-.6352 2.561.06 3.6909-2.7737-.1085-5.27 1.1735-7.425 2.7858 1.4036 1.9798 3.272 3.7018 5.9721 4.1586z" fill="#eac102"/><path d="m377.7502 416.869c.6952 1.13.5276 2.3016.06 3.6905-3.7323-2.2163-5.816-1.5059-7.2059-3.4566l-1.6464-2.3106.9742-4.6571 2.5205-1.8695c2.1706-1.6099 4.3652-.5323 8.3194-1.8638-.1212 1.4246-.4401 2.5809-1.5691 3.5223 2.7009.4569 4.5671 2.1893 5.9702 4.1691-2.1548 1.6123-4.6492 2.8838-7.4225 2.7757z" fill="#eac102"/><path d="m370.4453 412.6484c5.6836-.0675 7.2904.6573 12.296 1.2032" fill="none"/><path d="m372.6657 401.0145c1.1786-.8676 2.648-1.1787 3.9351-.8582-2.5516 3.8831-1.9957 6.1428-4.2248 7.9809l-2.4368 2.0095-4.3872-.4531-1.5009-2.4161c-1.269-2.0431.036-4.3373-.7877-8.4982 1.3642-.0473 2.4435.146 3.217 1.2151.7717-2.8887 2.9304-5.3032 5.4131-6.6119.738 2.5047 1.8675 4.7691.7722 7.6318z" fill="#eac102"/><path d="m367.9713 408.8404c1.8534-4.9049 1.4073-8.6491 3.1113-12.9583" fill="none"/><path d="m364.0433 411.9873c-5.3169-1.4457-7.509-.4531-12.3612-1.3282" fill="none"/><path d="m332.9287 402.8375c-4.54 1.8743-6.4298.8734-8.3412 2.6721l-2.2406 2.1082v4.6759l2.2406 2.1086c1.9112 1.7987 3.8014.7974 8.3412 2.672.1861-1.416.1051-2.5872-.8753-3.6297 2.9415-.1753 5.2855-1.6814 7.1972-3.4889-1.9117-1.8072-4.2557-3.3136-7.1972-3.489.9804-1.0425 1.0614-2.2134.8753-3.6293z" fill="#eac102"/><path d="m323.4403 409.9557h13.0928" fill="none"/><path d="m323.7995 409.9557c0 2.0862-1.7009 3.7774-3.7994 3.7774-2.0983 0-3.7994-1.6912-3.7994-3.7774s1.7011-3.7774 3.7994-3.7774c2.0985 0 3.7994 1.6912 3.7994 3.7774z" fill="#ed1c24" fill-rule="evenodd"/><path d="m298.5533 416.3539c0 1.6292-1.3207 2.95-2.95 2.95-1.6292 0-2.9501-1.3208-2.9501-2.95s1.3209-2.95 2.9501-2.95c1.6293 0 2.95 1.3208 2.95 2.95z" fill="#e5e5e5" fill-rule="evenodd"/><path d="m320 447.0534c-56.6094 0-73.9195-5.9666-73.9195-6.8583 0-.8918 17.3102-6.8584 73.9195-6.8584 56.6095 0 73.9195 5.9666 73.9195 6.8584 0 .8917-17.3101 6.8583-73.9195 6.8583zm-55.8277 1.1864c-13.1816-1.6045-22.9223-4.1283-22.9223-8.0446 0-9.1018 52.6125-10.682 78.7499-10.682 26.1377 0 78.7501 1.5802 78.7501 10.682 0 3.9163-9.7409 6.4401-22.9221 8.0446z" fill="#eac102" fill-rule="evenodd"/><path d="m274.0932 448.2398-28.9607 5.4841c-.6009-4.1838 1.5044-8.8344.574-13.1627-.5525-2.5702 24.2019-7.5237 74.2938-7.5237 50.0918 0 74.8462 4.9535 74.2937 7.5237-.9304 4.3283 1.1749 8.9789.574 13.1627l-28.9607-5.4841z" fill="#eac102"/><path d="m270.5134 438.8373 14.5122-1.2491c1.4517-.125 2.7299.8469 2.8662 2.179.1361 1.3321-.9229 2.5051-2.3745 2.63l-14.5122 1.2491c-1.4516.125-2.73-.8469-2.8661-2.179-.1362-1.3321.9229-2.5051 2.3744-2.63z" fill="#008f4c" fill-rule="evenodd"/><path d="m261.6018 442.6599c0 1.6292-1.3207 2.95-2.95 2.95-1.6291 0-2.95-1.3208-2.95-2.95s1.3209-2.95 2.95-2.95c1.6293 0 2.95 1.3208 2.95 2.95z" fill="#e5e5e5" fill-rule="evenodd"/><path d="m300.9141 439.4579c0 1.6292-1.3207 2.95-2.95 2.95-1.6292 0-2.95-1.3208-2.95-2.95s1.3208-2.95 2.95-2.95c1.6293 0 2.95 1.3208 2.95 2.95z" fill="#e5e5e5" fill-rule="evenodd"/><path d="m243.494 446.5256 2.4454-3.35 4.4374.8384-4.9706 4.3054z" fill="#ed1c24"/><path d="m312.1407 436.5531-4.0836 2.5249 4.0836 2.5246h15.7187l4.0835-2.5246-4.0835-2.5249z" fill="#ed1c24"/><path d="m369.3192 438.8373-14.5122-1.2491c-1.4514-.125-2.7297.8469-2.8658 2.179-.1363 1.3321.9227 2.5051 2.3743 2.63l14.5122 1.2491c1.4517.125 2.7298-.8469 2.866-2.179s-.9228-2.5051-2.3745-2.63z" fill="#008f4c" fill-rule="evenodd"/><path d="m363.5837 412.2324c0 2.0862 1.7009 3.7774 3.7993 3.7774 2.0985 0 3.7994-1.6912 3.7994-3.7774s-1.7009-3.7774-3.7994-3.7774c-2.0984 0-3.7993 1.6912-3.7993 3.7774z" fill="#ed1c24" fill-rule="evenodd"/><path d="m231.3742 413.3434c-1.7132-4.1532-3.284-6.9279-10.8742-9.3666 3.5574-3.3527 9.3367-3.2335 12.0955 1.2035.5662-.9112.8496-1.1855 2.008-1.8815.2543 2.7733 3.5742 5.5862 1.0201 9.8616l-2.5096 4.2016z" fill="#eac102"/><path d="m241.8587 419.7463c.7367.915.9042 2.0539.9225 3.4615 0 0-3.799-1.1975-5.572-1.2011-2.0246-.004-3.2985-1.1568-3.5437-1.5378l-1.009-3.9883c1.9654-2.1573 2.5524-3.4551 3.9084-4.5637 1.354-1.1067 3.3344-1.8976 4.8181-2.6702.2596 1.3672.322 2.5238-.2103 3.6519 1.9211-.1478 3.5871 1.0841 5.0021 2.6473-1.0603 1.9787-2.4295 3.7093-4.3161 4.2005z" fill="#eac102"/><path d="m233.2372 418.3249c3.5671-1.731 6.4254-1.5405 10.5201-2.7545" fill="none"/><path d="m233.6655 420.4687c-.5379.1191-1.1002.1314-1.6742-.0003-2.0451-.4692-3.3271-2.4885-2.8633-4.5102.2827-1.2326 1.1496-2.1681 2.2464-2.6148 1.5925 1.5958 2.5233 4.7908 2.2911 7.1253z" fill="#ed1c24" fill-rule="evenodd"/><path d="m254.3343 421.4236c0 1.6292-1.3207 2.95-2.95 2.95-1.6291 0-2.95-1.3208-2.95-2.95s1.3209-2.95 2.95-2.95c1.6293 0 2.95 1.3208 2.95 2.95z" fill="#e5e5e5" fill-rule="evenodd"/><path d="m341.4466 416.3539c0 1.6292 1.3207 2.95 2.95 2.95 1.6292 0 2.9501-1.3208 2.9501-2.95s-1.3209-2.95-2.9501-2.95c-1.6293 0-2.95 1.3208-2.95 2.95z" fill="#e5e5e5" fill-rule="evenodd"/><path d="m408.6258 413.3434c1.7132-4.1532 3.284-6.9279 10.8742-9.3666-3.5574-3.3527-9.3367-3.2335-12.0955 1.2035-.5662-.9112-.8496-1.1855-2.008-1.8815-.2543 2.7733-3.5742 5.5862-1.0201 9.8616l2.5096 4.2016z" fill="#eac102"/><path d="m398.1412 419.7463c-.7367.915-.9042 2.0539-.9225 3.4615 0 0 3.799-1.1975 5.572-1.2011 2.0246-.004 3.2985-1.1568 3.5437-1.5378l1.009-3.9883c-1.9654-2.1573-2.5524-3.4551-3.9084-4.5637-1.354-1.1067-3.3344-1.8976-4.8181-2.6702-.2596 1.3672-.322 2.5238.2103 3.6519-1.9211-.1478-3.5871 1.0841-5.0021 2.6473 1.0603 1.9787 2.4295 3.7093 4.3161 4.2005z" fill="#eac102"/><path d="m406.7627 418.3249c-3.5671-1.731-6.4254-1.5405-10.5201-2.7545" fill="none"/><path d="m406.3344 420.4687c.5379.1191 1.1002.1314 1.6742-.0003 2.0451-.4692 3.3271-2.4885 2.8633-4.5102-.2827-1.2326-1.1496-2.1681-2.2464-2.6148-1.5925 1.5958-2.5233 4.7908-2.2911 7.1253z" fill="#ed1c24" fill-rule="evenodd"/><path d="m385.6656 421.4236c0 1.6292 1.3207 2.95 2.95 2.95 1.6291 0 2.95-1.3208 2.95-2.95s-1.3209-2.95-2.95-2.95c-1.6293 0-2.95 1.3208-2.95 2.95z" fill="#e5e5e5" fill-rule="evenodd"/><path d="m246.9582 455.6762.2616 4.4298c-3.0218-1.2012-4.97-2.7577-4.97-4.4298 0-9.1018 51.9444-10.682 77.7501-10.682s77.7501 1.5802 77.7501 10.682c0 1.672-1.9482 3.2286-4.97 4.4298l.2616-4.4298c0-.8918-17.1512-6.8584-73.0417-6.8584s-73.0417 5.9666-73.0417 6.8584z" fill="#eac102" fill-rule="evenodd"/><path d="m378.3988 442.6599c0 1.6292 1.3207 2.95 2.95 2.95 1.6291 0 2.95-1.3208 2.95-2.95s-1.3209-2.95-2.95-2.95c-1.6293 0-2.95 1.3208-2.95 2.95z" fill="#e5e5e5" fill-rule="evenodd"/><path d="m339.0864 439.4579c0 1.6292 1.3207 2.95 2.95 2.95 1.6292 0 2.95-1.3208 2.95-2.95s-1.3208-2.95-2.95-2.95c-1.6293 0-2.95 1.3208-2.95 2.95z" fill="#e5e5e5" fill-rule="evenodd"/><path d="m396.5065 446.5256-2.4454-3.35-4.4374.8384 4.9706 4.3054z" fill="#ed1c24"/></g><g><path d="m386.5713 371.8526c2.4375-1.9137 5.6543-9.0916 7.1533-12.7771l3.1563 1.5017c-2.4451 5.8675-4.454 9.6779-6.1977 12.0498-.8721 1.186-1.6723 2.0345-2.5821 2.5876z" fill="#eac102"/><path d="m253.4286 371.8526c-2.4375-1.9137-5.6543-9.0916-7.1533-12.7771l-3.1563 1.5017c2.4451 5.8675 4.454 9.6779 6.1977 12.0498.8721 1.186 1.6723 2.0345 2.5821 2.5876z" fill="#eac102"/><path d="m298.4764 359.6921c-3.152 7.9759-13.6344 8.9382-19.3723 1.9058-2.2648 7.5455-12.0285 8.2252-17.8929 3.6605-.3058-.2566-.6008-.5147-.8985-.7975-.01.6872-.09 1.3999-.2858 2.1175-2.104 7.7047-12.3403 5.0818-16.9107-6.0013l-2.6414-6.4056c-.3688-.8943.05-2.0651.8788-2.4576.8291-.3925 1.9202.0636 2.2878.9584l2.631 6.403c3.639 8.8558 13.1021 12.8175 9.1697-1.0658-.2648-.9351.2433-2.0473 1.1051-2.3474s1.378-.0331 1.8591.838c5.8208 10.5393 19.9136 11.271 17.4869-2.0375 0 0-.7062-3.8736-1.0594-5.8103-.1708-.9361.5066-1.9399 1.3779-2.1218.8711-.1819 1.8456.4768 2.0166 1.4129l1.0594 5.7987c2.281 12.4846 18.1004 11.7669 16.6699-.918-.1043-.9241.6619-1.8289 1.5217-1.9397s1.8205.5719 1.9051 1.4981c1.1794 12.761 18.886 12.3765 18.886.0815v-6.1241c0-.9775.8132-1.8942 1.7296-1.8942.9163 0 1.7295.9167 1.7295 1.8942v6.1241c0 12.295 17.7066 12.6795 18.886-.0815.085-.9263 1.0454-1.6089 1.9051-1.4981.8598.1108 1.626 1.0156 1.5217 1.9397-1.4305 12.685 14.3889 13.4026 16.6699.918l1.0594-5.7987c.171-.9361 1.1455-1.5948 2.0166-1.4129.8713.1819 1.5487 1.1857 1.3779 2.1218-.3532 1.9368-1.0594 5.8103-1.0594 5.8103-2.4267 13.3085 11.6661 12.5768 17.4869 2.0375.4811-.8712.9973-1.1381 1.8591-.838.8618.3 1.3699 1.4123 1.1051 2.3474-3.9324 13.8833 5.5307 9.9216 9.1697 1.0658l2.631-6.403c.3676-.8948 1.4587-1.3509 2.2878-.9584.829.3925 1.2476 1.5633.8788 2.4576l-2.6414 6.4056c-4.5704 11.0831-14.8067 13.706-16.9107 6.0013-.196-.7176-.2753-1.4303-.2858-2.1175-.2977.2828-.5927.5409-.8985.7975-5.8644 4.5646-15.6281 3.885-17.8929-3.6605-5.7379 7.0324-16.2203 6.0701-19.3723-1.9058-6.0169 8.3821-17.2338 7.0865-21.5235-.3999-4.2898 7.4864-15.5067 8.782-21.5236.3999z" fill="#eac102"/><path d="m288.482 349.8625c1.1286.9419 1.4477 2.0977 1.5686 3.5227-4.0876-1.3638-6.0931-.1964-8.3172-1.8537l-2.5227-1.88-.9743-4.6572 1.6487-2.3c1.4002-1.9533 4.1968-1.4659 7.2041-3.4672.4676 1.3893.6352 2.561-.06 3.6909 2.7735-.1085 5.27 1.1735 7.4249 2.7858-1.4036 1.9798-3.2718 3.7018-5.972 4.1586z" fill="#eac102"/><path d="m266.0502 352.179c-.6954 1.13-.5274 2.3016-.06 3.6905 3.7322-2.2163 5.8158-1.5059 7.2059-3.4566l1.6465-2.3106-.9744-4.6571-2.5205-1.8695c-2.1706-1.6099-4.3653-.5323-8.3194-1.8638.1211 1.4246.44 2.5809 1.569 3.5223-2.7008.4569-4.5668 2.1893-5.9702 4.1691 2.155 1.6123 4.6492 2.8838 7.4226 2.7757z" fill="#eac102"/><path d="m273.3552 347.9585c-5.6837-.0675-7.2906.6573-12.296 1.2032" fill="none"/><path d="m271.1346 336.3246c-1.1784-.8676-2.6478-1.1787-3.935-.8582 2.5517 3.8831 1.9957 6.1428 4.2249 7.9809l2.4368 2.0095 4.3872-.4531 1.5008-2.4161c1.2689-2.0431-.035-4.3373.7875-8.4982-1.364-.0473-2.4435.146-3.217 1.2151-.7718-2.8887-2.9304-5.3032-5.413-6.6119-.738 2.5047-1.8676 4.7691-.7722 7.6318z" fill="#eac102"/><path d="m275.829 344.1504c-1.8531-4.9049-1.4073-8.6491-3.1115-12.9583" fill="none"/><path d="m279.757 347.2974c5.3169-1.4457 7.5091-.4531 12.3613-1.3282" fill="none"/><path d="m280.2168 347.5425c0 2.0862-1.7012 3.7774-3.7996 3.7774-2.0981 0-3.7994-1.6912-3.7994-3.7774s1.7012-3.7774 3.7994-3.7774c2.0984 0 3.7996 1.6912 3.7996 3.7774z" fill="#ed1c24" fill-rule="evenodd"/><path d="m307.0716 338.1475c4.5399 1.8743 6.4297.8734 8.3413 2.6721l2.2406 2.1082v4.6759l-2.2406 2.1086c-1.9113 1.7987-3.8013.7974-8.3413 2.672-.1863-1.416-.105-2.5872.8753-3.6297-2.9414-.1753-5.2855-1.6814-7.1973-3.4889 1.9119-1.8072 4.256-3.3136 7.1973-3.489-.9803-1.0425-1.0616-2.2134-.8753-3.6293z" fill="#eac102"/><path d="m316.5601 345.2657h-13.0927" fill="none"/><path d="m322.351 342.9319 2.1202-2.2284c1.8085-1.9008.8017-3.7802 2.6868-8.2955-1.424-.1851-2.6015-.1044-3.6497.8705-.1764-2.9254-1.6908-5.2567-3.5083-7.1584-1.8173 1.9017-3.3317 4.233-3.508 7.1584-1.0482-.9749-2.226-1.0556-3.6496-.8705 1.8848 4.5153.8781 6.3947 2.6866 8.2955l2.1201 2.2284z" fill="#eac102"/><path d="m320 341.8448v-13.0213" fill="none"/><path d="m332.9286 338.1475c-4.54 1.8743-6.4298.8734-8.3413 2.6721l-2.2406 2.1082v4.6759l2.2406 2.1086c1.9113 1.7987 3.8015.7974 8.3413 2.672.186-1.416.1051-2.5872-.8753-3.6297 2.9415-.1753 5.2855-1.6814 7.1972-3.4889-1.9117-1.8072-4.2557-3.3136-7.1972-3.489.9804-1.0425 1.0614-2.2134.8753-3.6293z" fill="#eac102"/><path d="m323.4402 345.2657h13.0928" fill="none"/><path d="m323.7994 345.2657c0 2.0862-1.7009 3.7774-3.7994 3.7774-2.0984 0-3.7994-1.6912-3.7994-3.7774s1.701-3.7774 3.7994-3.7774c2.0985 0 3.7994 1.6912 3.7994 3.7774z" fill="#ed1c24" fill-rule="evenodd"/><path d="m300.5148 351.6639c0 1.6292-1.3207 2.95-2.95 2.95-1.6291 0-2.95-1.3208-2.95-2.95s1.3209-2.95 2.95-2.95c1.6293 0 2.95 1.3208 2.95 2.95z" fill="#e5e5e5" fill-rule="evenodd"/><path d="m320 382.3634c-52.0579 0-67.9762-5.9666-67.9762-6.8583 0-.8918 15.9184-6.8584 67.9762-6.8584 52.058 0 67.9762 5.9666 67.9762 6.8584 0 .8917-15.9183 6.8583-67.9762 6.8583zm-51.339 1.1864c-12.1218-1.6045-21.0793-4.1283-21.0793-8.0446 0-9.1018 48.3823-10.682 72.4182-10.682 24.0362 0 72.4184 1.5802 72.4184 10.682 0 3.9163-8.9577 6.4401-21.0791 8.0446z" fill="#eac102" fill-rule="evenodd"/><path d="m362.5378 383.5499 26.7132 5.4841c-.7461-4.404-.5879-9.0251-.9304-13.1627-.2129-2.5721-22.2561-7.5237-68.3204-7.5237s-68.1075 4.9516-68.3204 7.5237c-.3425 4.1376-.1843 8.7587-.9304 13.1627l26.7132-5.4841z" fill="#eac102"/><path d="m274.4922 374.1474 13.3454-1.2491c1.335-.125 2.5104.8469 2.6358 2.179.1251 1.3321-.8487 2.5051-2.1836 2.63l-13.3454 1.2491c-1.3349.125-2.5105-.8469-2.6357-2.179s.8487-2.5051 2.1835-2.63z" fill="#008f4c" fill-rule="evenodd"/><path d="m266.564 377.97c0 1.6292-1.3207 2.95-2.95 2.95-1.6291 0-2.95-1.3208-2.95-2.95s1.3209-2.95 2.95-2.95c1.6293 0 2.95 1.3208 2.95 2.95z" fill="#e5e5e5" fill-rule="evenodd"/><path d="m302.6858 374.768c0 1.6292-1.3207 2.95-2.95 2.95-1.6291 0-2.95-1.3208-2.95-2.95s1.3209-2.95 2.95-2.95c1.6293 0 2.95 1.3208 2.95 2.95z" fill="#e5e5e5" fill-rule="evenodd"/><path d="m249.1024 382.1226 2.4328-3.35 3.8966.8384-4.1255 4.3054z" fill="#ed1c24"/><path d="m312.7726 371.8631-3.7553 2.5249 3.7553 2.5246h14.4549l3.7552-2.5246-3.7552-2.5249z" fill="#ed1c24"/><path d="m365.3538 374.1474-13.3454-1.2491c-1.3347-.125-2.5102.8469-2.6353 2.179-.1254 1.3321.8485 2.5051 2.1834 2.63l13.3454 1.2491c1.3349.125 2.5103-.8469 2.6355-2.179.1253-1.3321-.8486-2.5051-2.1836-2.63z" fill="#008f4c" fill-rule="evenodd"/><path d="m239.3742 348.6535c-1.7132-4.1532-3.284-6.9279-10.8742-9.3666 3.5574-3.3527 9.3367-3.2335 12.0955 1.2035.5662-.9112.8496-1.1855 2.008-1.8815.2543 2.7733 3.5742 5.5862 1.0201 9.8616l-2.5096 4.2016z" fill="#eac102"/><path d="m249.8587 355.0563c.7367.915.9042 2.0539.9225 3.4615 0 0-3.799-1.1975-5.572-1.2011-2.0246-.004-3.2985-1.1568-3.5437-1.5378l-1.009-3.9883c1.9654-2.1573 2.5524-3.4551 3.9084-4.5637 1.354-1.1067 3.3344-1.8976 4.8181-2.6702.2596 1.3672.322 2.5238-.2103 3.6519 1.9211-.1478 3.5871 1.0841 5.0021 2.6473-1.0603 1.9787-2.4295 3.7093-4.3161 4.2005z" fill="#eac102"/><path d="m241.2372 353.635c3.5671-1.731 6.4254-1.5405 10.5201-2.7545" fill="none"/><path d="m241.6655 355.7788c-.5379.1191-1.1002.1314-1.6742-.0003-2.0451-.4692-3.3271-2.4885-2.8633-4.5102.2827-1.2326 1.1496-2.1681 2.2464-2.6148 1.5925 1.5958 2.5233 4.7908 2.2911 7.1253z" fill="#ed1c24" fill-rule="evenodd"/><path d="m259.8511 356.7336c0 1.6292-1.3207 2.95-2.95 2.95-1.6291 0-2.95-1.3208-2.95-2.95s1.3209-2.95 2.95-2.95c1.6293 0 2.95 1.3208 2.95 2.95z" fill="#e5e5e5" fill-rule="evenodd"/><path d="m351.5181 349.8625c-1.1286.9419-1.4478 2.0977-1.5686 3.5227 4.0876-1.3638 6.0931-.1964 8.3172-1.8537l2.5227-1.88.9743-4.6572-1.6487-2.3c-1.4002-1.9533-4.1969-1.4659-7.2042-3.4672-.4676 1.3893-.6352 2.561.06 3.6909-2.7735-.1085-5.2701 1.1735-7.425 2.7858 1.4036 1.9798 3.2719 3.7018 5.9721 4.1586z" fill="#eac102"/><path d="m373.9498 352.179c.6954 1.13.5275 2.3016.06 3.6905-3.7323-2.2163-5.8158-1.5059-7.206-3.4566l-1.6464-2.3106.9743-4.6571 2.5205-1.8695c2.1706-1.6099 4.3653-.5323 8.3194-1.8638-.1211 1.4246-.44 2.5809-1.569 3.5223 2.7008.4569 4.5668 2.1893 5.9702 4.1691-2.155 1.6123-4.6492 2.8838-7.4226 2.7757z" fill="#eac102"/><path d="m366.6449 347.9585c5.6837-.0675 7.2906.6573 12.296 1.2032" fill="none"/><path d="m368.8654 336.3246c1.1784-.8676 2.6479-1.1787 3.9351-.8582-2.5517 3.8831-1.9958 6.1428-4.225 7.9809l-2.4368 2.0095-4.3872-.4531-1.5008-2.4161c-1.2689-2.0431.035-4.3373-.7875-8.4982 1.364-.0473 2.4435.146 3.217 1.2151.7718-2.8887 2.9304-5.3032 5.413-6.6119.738 2.5047 1.8676 4.7691.7722 7.6318z" fill="#eac102"/><path d="m364.1711 344.1504c1.8531-4.9049 1.4072-8.6491 3.1115-12.9583" fill="none"/><path d="m360.243 347.2974c-5.3169-1.4457-7.5091-.4531-12.3613-1.3282" fill="none"/><path d="m359.7833 347.5425c0 2.0862 1.7012 3.7774 3.7995 3.7774 2.0982 0 3.7994-1.6912 3.7994-3.7774s-1.7012-3.7774-3.7994-3.7774c-2.0983 0-3.7995 1.6912-3.7995 3.7774z" fill="#ed1c24" fill-rule="evenodd"/><path d="m400.6258 348.6535c1.7132-4.1532 3.284-6.9279 10.8742-9.3666-3.5574-3.3527-9.3367-3.2335-12.0955 1.2035-.5662-.9112-.8496-1.1855-2.008-1.8815-.2543 2.7733-3.5742 5.5862-1.0201 9.8616l2.5096 4.2016z" fill="#eac102"/><path d="m390.1413 355.0563c-.7367.915-.9042 2.0539-.9225 3.4615 0 0 3.799-1.1975 5.572-1.2011 2.0246-.004 3.2985-1.1568 3.5437-1.5378l1.009-3.9883c-1.9654-2.1573-2.5524-3.4551-3.9084-4.5637-1.354-1.1067-3.3344-1.8976-4.8181-2.6702-.2596 1.3672-.322 2.5238.2103 3.6519-1.9211-.1478-3.5871 1.0841-5.0021 2.6473 1.0603 1.9787 2.4295 3.7093 4.3161 4.2005z" fill="#eac102"/><path d="m398.7628 353.635c-3.5671-1.731-6.4254-1.5405-10.5201-2.7545" fill="none"/><path d="m398.3345 355.7788c.5379.1191 1.1002.1314 1.6742-.0003 2.0451-.4692 3.3271-2.4885 2.8633-4.5102-.2827-1.2326-1.1496-2.1681-2.2464-2.6148-1.5925 1.5958-2.5233 4.7908-2.2911 7.1253z" fill="#ed1c24" fill-rule="evenodd"/><path d="m339.4852 351.6639c0 1.6292 1.3207 2.95 2.95 2.95 1.6291 0 2.95-1.3208 2.95-2.95s-1.3209-2.95-2.95-2.95c-1.6293 0-2.95 1.3208-2.95 2.95z" fill="#e5e5e5" fill-rule="evenodd"/><path d="m337.3142 374.768c0 1.6292 1.3207 2.95 2.95 2.95 1.6291 0 2.95-1.3208 2.95-2.95s-1.3209-2.95-2.95-2.95c-1.6293 0-2.95 1.3208-2.95 2.95z" fill="#e5e5e5" fill-rule="evenodd"/><path d="m380.1489 356.7336c0 1.6292 1.3207 2.95 2.95 2.95 1.6291 0 2.95-1.3208 2.95-2.95s-1.3209-2.95-2.95-2.95c-1.6293 0-2.95 1.3208-2.95 2.95z" fill="#e5e5e5" fill-rule="evenodd"/><path d="m373.4364 377.97c0 1.6292 1.3207 2.95 2.95 2.95 1.6291 0 2.95-1.3208 2.95-2.95s-1.3209-2.95-2.95-2.95c-1.6293 0-2.95 1.3208-2.95 2.95z" fill="#e5e5e5" fill-rule="evenodd"/><path d="m390.898 382.1226-2.4328-3.35-3.8966.8384 4.1255 4.3054z" fill="#ed1c24"/><path d="m387.976 390.9863.8088 3.9956c2.438-1.1416 3.6333-2.4487 3.6333-3.9956 0-9.1018-48.3823-10.682-72.4182-10.682s-72.4182 1.5802-72.4182 10.682c0 1.5469 1.1953 2.8541 3.6333 3.9956l.8088-3.9956c0-.8918 15.9184-6.8584 67.9761-6.8584s67.9761 5.9666 67.9761 6.8584z" fill="#eac102" fill-rule="evenodd"/></g></g><g><path d="m251.8378 733.4998v13.2h7.2145c.501 0 .8601.1278 1.0772.3833.2171.2556.3256.5945.3257 1.0167 0 .4-.1086.7333-.3257 1s-.5762.4-1.0772.4h-12.1495c-.501 0-.8601-.1334-1.0772-.4-.2171-.2667-.3257-.6-.3257-1 0-.4222.1086-.7611.3257-1.0167s.5762-.3833 1.0772-.3833h2.8307v-33.4h-2.8307c-.501 0-.8601-.1278-1.0772-.3833s-.3257-.5944-.3257-1.0167c0-.4222.1086-.7611.3257-1.0167.2171-.2555.5762-.3833 1.0772-.3833h12.2246c2.8891 0 5.2481 1.1334 7.0768 3.4 1.8287 2.2667 2.743 4.9223 2.743 7.9667 0 1.8-.2965 3.4223-.8893 4.8667-.5929 1.4445-1.3068 2.5778-2.1418 3.4-1.2526 1.2445-2.5468 2.1556-3.8828 2.7333-.9686.4222-2.1711.6334-3.6073.6333zm0-2.8h6.7135c1.5531 0 3.0102-.4611 4.3713-1.3833 1.361-.9222 2.3547-2.05 2.981-3.3833.6262-1.3333.9394-2.6889.9394-4.0667 0-2.2-.7098-4.1777-2.1293-5.9333-1.4195-1.7555-3.2148-2.6333-5.3858-2.6333h-7.4901z"/><path d="m280.3201 730.6665v16.0333h16.1826v-8.2667c0-.6666.096-1.1444.2881-1.4333.192-.2889.4467-.4333.7641-.4333.3173 0 .572.1445.764.4333.192.2889.288.7667.2881 1.4333v11.0667h-23.2218c-.501 0-.8601-.1334-1.0772-.4-.2171-.2667-.3257-.6-.3257-1 0-.4222.1086-.7611.3257-1.0167s.5762-.3833 1.0772-.3833h2.8307v-33.4h-2.8307c-.501 0-.8601-.1278-1.0772-.3833s-.3257-.5944-.3257-1.0167c0-.4222.1086-.7611.3257-1.0167.2171-.2555.5762-.3833 1.0772-.3833h22.1195v9.6333c0 .6667-.096 1.1445-.2881 1.4333-.1921.2889-.4468.4334-.764.4333-.3173 0-.572-.1444-.764-.4333-.1921-.2889-.2881-.7666-.2881-1.4333v-6.8333h-15.0804v14.5667h7.5402v-3.1667c0-.6666.1001-1.1444.3006-1.4333.2004-.2888.4592-.4333.7766-.4333.3006 0 .5511.1445.7515.4333.2004.2889.3006.7667.3006 1.4333v9.1333c0 .6667-.1003 1.1445-.3006 1.4333-.2004.2889-.4509.4333-.7515.4333-.3173 0-.5762-.1444-.7766-.4333s-.3006-.7667-.3006-1.4333v-3.1667z"/><path d="m318.9729 713.2998v33.4h5.461c.501 0 .86.1278 1.0772.3833.2171.2556.3256.5945.3257 1.0167 0 .4-.1086.7333-.3257 1s-.5762.4-1.0772.4h-13.0513c-.501 0-.8601-.1334-1.0772-.4-.2171-.2667-.3257-.6-.3257-1 0-.4222.1086-.7611.3257-1.0167s.5762-.3833 1.0772-.3833h5.461v-33.4h-8.6173v9.7c0 .6889-.096 1.1778-.2881 1.4667s-.4467.4334-.7641.4333c-.3006 0-.5511-.1444-.7515-.4333s-.3006-.7777-.3006-1.4667v-12.5h23.5725v12.5c0 .6889-.096 1.1778-.2881 1.4667s-.4468.4334-.764.4333c-.3173 0-.572-.1444-.764-.4333-.1921-.2889-.2881-.7777-.2881-1.4667v-9.7z"/><path d="m341.844 732.0998v14.6h3.8828c.5177 0 .8851.1278 1.1022.3833.2171.2556.3257.5945.3257 1.0167 0 .4-.1086.7333-.3257 1s-.5845.4-1.1022.4h-8.8178c-.501 0-.8601-.1334-1.0772-.4-.2171-.2667-.3257-.6-.3257-1 0-.4222.1086-.7611.3257-1.0167s.5762-.3833 1.0772-.3833h2.8307v-33.4h-2.8307c-.501 0-.8601-.1278-1.0772-.3833s-.3257-.5944-.3257-1.0167c0-.4222.1086-.7611.3257-1.0167.2171-.2555.5762-.3833 1.0772-.3833h12.7256c2.6219 0 4.8305 1.1056 6.6258 3.3167 1.7953 2.2112 2.6929 4.7056 2.6929 7.4834 0 2-.5553 3.8833-1.6659 5.65s-2.9685 3.2389-5.5737 4.4167c1.503 1.3778 2.7889 2.9334 3.8578 4.6667 1.0688 1.7334 2.7806 5.2889 5.1353 10.6667h1.6032c.501 0 .86.1278 1.0772.3833.2171.2556.3256.5945.3257 1.0167 0 .4-.1086.7333-.3257 1s-.5762.4-1.0772.4h-2.8057c-2.6053-6.2-4.6218-10.3555-6.0497-12.4667-1.4279-2.1111-3.0687-3.7555-4.9224-4.9333zm0-2.8h5.7366c1.837 0 3.5029-.4444 4.9976-1.3333 1.4946-.8889 2.5802-1.9333 3.2566-3.1333.6763-1.2 1.0145-2.4222 1.0145-3.6667 0-1.8666-.7056-3.6444-2.1168-5.3333s-3.1271-2.5333-5.1479-2.5333h-7.7406z"/><path d="m386.3837 736.4665h-13.8278l-2.8307 10.2333h4.0331c.501 0 .8601.1278 1.0772.3833.2171.2556.3256.5945.3257 1.0167 0 .4-.1086.7333-.3257 1s-.5762.4-1.0772.4h-7.8658c-.501 0-.8601-.1334-1.0772-.4-.2171-.2667-.3257-.6-.3257-1 0-.4222.1086-.7611.3257-1.0167s.5762-.3833 1.0772-.3833h1.6283l9.2937-33.4h-6.2125c-.501 0-.8601-.1278-1.0772-.3833s-.3257-.5944-.3257-1.0167c0-.4222.1085-.7611.3257-1.0167.2171-.2555.5762-.3833 1.0772-.3833h10.5963l10.2707 36.2h1.6283c.501 0 .8601.1278 1.0772.3833.2171.2556.3256.5945.3257 1.0167 0 .4-.1086.7333-.3257 1s-.5762.4-1.0772.4h-7.8408c-.5177 0-.8851-.1334-1.1022-.4-.2171-.2667-.3257-.6-.3257-1 0-.4222.1085-.7611.3257-1.0167.2171-.2556.5845-.3833 1.1022-.3833h4.0081zm-.8016-2.8-5.8117-20.3667h-.7766l-5.6364 20.3667z"/></g></g><path d="m71.5 221.5v473.25c0 68.35 55.4 123.75 123.75 123.75h62.375c27.18 0 50.966 17.254 62.375 40 11.409-22.746 35.195-40 62.375-40h62.375c68.35 0 123.75-55.4 123.75-123.75v-473.25z" fill="none" stroke="#000" stroke-linecap="round" stroke-linejoin="round" stroke-width="3"/></svg>