<?xml version="1.0" encoding="utf-8"?><!DOCTYPE svg PUBLIC "-//W3C//DTD SVG 1.1//EN" "http://www.w3.org/Graphics/SVG/1.1/DTD/svg11.dtd"><svg viewBox="0 0 750 810" xmlns="http://www.w3.org/2000/svg"><g stroke="#000" stroke-linecap="round" stroke-linejoin="round"><g><path d="m115.1424 158.0561c-102.9638 164.5159-74.9892 372.6236 31.4203 487.5917 46.4573 50.1939 90.0901 84.3203 177.8624 102.9753 41.9582 8.9178 129.5591 24.0977 142.8075 58.8094l11.3509-12.4826c-22.8225-29.7058-104.1067-46.0509-152.1523-55.7663-95.0052-19.2114-137.4062-60.6307-172.5358-97.697-105.198-110.9976-133.4825-315.3832-33.3852-480.4158z" fill="#eac102" fill-rule="evenodd"/><path d="m468.9296 809.1497c2.742 1.2944 6.8124-1.1117 9.0858-5.372 2.2735-4.2605 1.8935-8.7692-.8484-10.064-2.7417-1.2948-6.8123 1.1119-9.0857 5.3725-2.2736 4.2608-1.8934 8.7692.8483 10.0635z" fill="#eac102" fill-rule="evenodd"/><path d="m193.7758 729.8557-32.5626-1.0446" fill="none" stroke-width="2"/><path d="m134.9008 683.0346-29.1569-8.843" fill="none" stroke-width="2"/><path d="m101.0769 644.153-29.9132-13.6103" fill="none" stroke-width="2"/><path d="m99.3741 497.4518 4.2709-33.2855" fill="none" stroke-width="2"/><path d="m23.352 431.5406-22.352-26.6389" fill="none" stroke-width="2"/><path d="m18.4435 343.9013-10.6876-29.4173" fill="none" stroke-width="2"/><path d="m24.6391 293.4917-9.5689-34.8069" fill="none" stroke-width="2"/><path d="m78.98 379.262 14.7983-32.4563" fill="none" stroke-width="2"/><path d="m16.602 387.7981-15.602-30.0843" fill="none" stroke-width="2"/><path d="m121.0497 154.2187 16.0961-23.2187" fill="none" stroke-width="2"/><path d="m121.1297 191.7711 23.127-23.226" fill="none" stroke-width="2"/><path d="m77.0711 162.4531 4.6823-27.7995" fill="none" stroke-width="2"/><path d="m77.993 157.0071c4.2238 25.5005 18.4846 45.2226-16.5449 88.7402-10.5148-40.3351-6.1811-41.4969 16.5449-88.7402z" fill="#eac102"/><path d="m126.8217 185.4474c-12.6026 12.2172-38.3814 8.9931-45.3131 64.9498 34.629-23.2392 33.7634-18.3925 45.3131-64.9498z" fill="#eac102"/><path d="m124.2987 149.2854c-32.5036 22.8626-44.8267 17.3864-48.7138 72.3793 31.7485-11.6689 36.6609-30.3168 48.7138-72.3793z" fill="#eac102"/><path d="m79.5011 339.0809 17.9762-18.7324" fill="none" stroke-width="2"/><path d="m46.6511 212.3865-.1122-38.4654" fill="none" stroke-width="2"/><path d="m105.6084 239.2734 33.0625-38.2415" fill="none" stroke-width="2"/><path d="m46.5797 205.7344c14.3499 22.906 30.3747 30.9418 7.192 75.2989-10.2514-30.5882-17.7253-30.0101-7.192-75.2989z" fill="#eac102"/><path d="m111.7189 232.0583c-14.3869 8.8853-41.4783.7627-53.4764 51.5417 38.6801-14.7863 37.3591-10.4388 53.4764-51.5417z" fill="#eac102"/><path d="m99.3128 179.8094c-28.3095 29.2921-41.4542 26.9107-35.9318 80.2456 29.4697-18.4444 31.1584-37.3573 35.9318-80.2456z" fill="#eac102"/><path d="m34.6891 245.1746-5.078-35.0434" fill="none" stroke-width="2"/><path d="m33.5868 238.5694c12.1175 21.7456 31.7828 34.3903 12.9036 87.5439-22.7551-32.9411-19.0684-35.6506-12.9036-87.5439z" fill="#eac102"/><path d="m97.2398 267.892 28.2803-29.9968" fill="none" stroke-width="2"/><path d="m102.8958 261.8297c-14.8288 10.1508-43.0383 2.5714-54.8998 57.6151 39.9684-17.5136 38.6488-12.7907 54.8998-57.6151z" fill="#eac102"/><path d="m80.6768 220.3361c-25.8311 32.4944-39.5505 31.6792-28.1317 84.0935 28.1922-21.8382 27.8764-40.8557 28.1317-84.0935z" fill="#eac102"/><path d="m21.9994 285.2108c15.2229 20.9039 37.2367 32.9457 18.0709 84.2287-26.3965-35.1001-14.1318-63.3286-18.0709-84.2287z" fill="#eac102"/><path d="m15.9931 337.883c17.7175 16.2443 43.4774 22.9753 35.0207 75.945-25.2038-23.8679-28.5305-27.7074-35.0207-75.945z" fill="#eac102"/><path d="m89.6476 301.9318 20.186-22.7147" fill="none" stroke-width="2"/><path d="m93.2223 297.7013c-12.7589 8.2482-44.2673-1.4711-40.0696 68.3991 25.6799-12.7667 35.839-59.4148 40.0696-68.3991z" fill="#eac102"/><path d="m83.6351 334.131c-20.4522 14.7197-32.6233 13.7663-32.0837 78.8025 28.9438-32.1185 28.9339-26.7738 32.0837-78.8025z" fill="#eac102"/><path d="m12.743 380.5336c17.7814 12.8472 39.0786 14.3584 40.4279 68.6592-30.7557-17.3833-28.4578-21.4392-40.4279-68.6592z" fill="#eac102"/><path d="m82.4357 371.3728c-9.3572 16.7902-37.7193 25.0166-26.7824 79.8335 29.0924-36.5735 29.758-31.7103 26.7824-79.8335z" fill="#eac102"/><path d="m66.586 257.4061c-21.8428 35.8797-35.3463 37.0082-18.6667 87.3882 25.2736-25.6429 22.9668-44.463 18.6667-87.3882z" fill="#eac102"/><path d="m61.3202 300.8123c-20.1735 37.6221-34.4473 40.0573-12.3826 88.2623 24.6974-27.8309 20.6306-46.2223 12.3826-88.2623z" fill="#eac102"/><path d="m51.174 346.0937c-13.1812 37.945-25.565 42.4905.1499 83.3872 18.4446-29.6457 12.5018-45.9487-.1499-83.3872z" fill="#eac102"/><path d="m82.7226 418.8881 12.1522-28.8408" fill="none" stroke-width="2"/><path d="m18.588 425.6035c19.3547 13.8397 45.6413 17.1776 43.0621 70.9238-27.6146-20.4422-31.3344-23.8259-43.0621-70.9238z" fill="#eac102"/><path d="m85.2645 413.0735c-18.6709 17.2911-30.8471 17.9267-23.1812 82.4961 25.1838-35.6882 25.7618-30.3751 23.1812-82.4961z" fill="#eac102"/><path d="m27.4618 474.4098-18.9923-26.1883" fill="none" stroke-width="2"/><path d="m89.4929 458.2272 8.3702-39.4103" fill="none" stroke-width="2"/><path d="m23.3023 468.9973c19.2406 10.0114 40.5067 8.2511 48.8033 61.8513-32.6579-12.5211-30.9068-16.8903-48.8033-61.8513z" fill="#eac102"/><path d="m91.0818 449.2608c-7.1063 18.0693-34.1121 30.5588-16.2626 83.2038 29.7288-22.2587 22.4898-50.7395 16.2626-83.2038z" fill="#eac102"/><path d="m51.0111 384.9118c-10.0417 39.1199-22.1643 44.9125 7.3477 82.9877 16.0774-31.3979 8.6683-47.0181-7.3477-82.9877z" fill="#eac102"/><path d="m54.1444 430.9799c-8.9124 39.4286-20.6969 45.5572 9.2923 82.8588 15.0433-31.864 7.36-47.2946-9.2923-82.8588z" fill="#eac102"/><path d="m195.3865 647.0395-11.5365-32.5799" fill="none" stroke-width="2"/><path d="m159.7184 705.7605-31.5732-6.0116" fill="none" stroke-width="2"/><path d="m99.5243 492.4137c-6.2883 16.5052-35.1658 31.8018 9.0481 73.2782-.2147-32.8721 9.0438-48.7873-9.0481-73.2782z" fill="#eac102"/><path d="m41.2785 519.1556-17.7411-20.221" fill="none" stroke-width="2"/><path d="m37.8057 515.1902c21.2166 10.8338 44.0049 9.2564 55.7051 65.9958-35.7839-13.6641-34.1246-18.2569-55.7051-65.9958z" fill="#eac102"/><path d="m58.9909 468.8158c-2.0343 42.5787-13.2148 50.5907 24.9998 85.7238 9.8339-35.4599-1.0387-50.6285-24.9998-85.7238z" fill="#eac102"/><path d="m166.5071 625.4033-2.5534-27.3697" fill="none" stroke-width="2"/><path d="m58.7989 573.8626-26.8232-24.2929" fill="none" stroke-width="2"/><path d="m113.6094 536.6536 1.8887-43.0129" fill="none" stroke-width="2"/><path d="m54.1275 569.7063c24.9445 2.1087 40.5983-6.6605 56.8878 41.5228-27.7128-10.5257-32.0052-3.6927-56.8878-41.5228z" fill="#eac102"/><path d="m113.4561 531.0291c-2.8567 18.0812-25.6284 35.3811 2.1522 77.9594 14.0111-42.8411 16.3103-37.9532-2.1522-77.9594z" fill="#eac102"/><path d="m69.2185 507.6438c2.5913 43.0666-7.3211 52.9292 33.2419 81.9696 5.682-37.1917-6.4113-50.6451-33.2419-81.9696z" fill="#eac102"/><path d="m73.0803 604.6194-26.5525-17.444" fill="none" stroke-width="2"/><path d="m68.8034 601.7678c22.7351 3.3043 43.8811-5.6923 68.9916 44.3454-37.2029-1.1996-36.7718-6.1075-68.9916-44.3454z" fill="#eac102"/><path d="m129.2172 563.8235-3.1395-42.0231" fill="none" stroke-width="2"/><path d="m128.5137 556.5509c-2.2538 19.2662-25.2439 38.8666 5.5889 84.0313 12.9232-45.6852 15.3793-41.5489-5.5889-84.0313z" fill="#eac102"/><path d="m85.699 549.4645c6.3755 42.9528-2.8083 54.306 40.8178 77.661 2.5187-38.2389-10.9061-50.0239-40.8178-77.661z" fill="#eac102"/><path d="m93.9645 641.3671c24.1004.0832 46.3022-11.3267 69.9316 37.7727-40.992.5818-52.921-27.9283-69.9316-37.7727z" fill="#eac102"/><path d="m127.5098 680.9503c22.3322-5.9644 42.6702-24.794 75.6315 14.5784-32.3139 8.0277-37.0741 8.6729-75.6315-14.5784z" fill="#eac102"/><path d="m148.0838 593.4411-3.1194-31.8678" fill="none" stroke-width="2"/><path d="m147.3865 587.6655c-2.2773 16.269-28.8271 37.367 22.4042 78.0384 7.25-30.3131-18.8127-68.6811-22.4042-78.0384z" fill="#eac102"/><path d="m165.5239 618.6178c-1.735 27.0185-9.7448 37.2545 37.2986 75.8953-5.6526-45.026-1.8197-41.8022-37.2986-75.8953z" fill="#eac102"/><path d="m151.7456 704.3658c20.5299-6.3848 35.8778-23.176 72.9512 11.4803-32.2878 14.2316-33.4417 9.6398-72.9512-11.4803z" fill="#eac102"/><path d="m192.5743 640.1221c4.8816 18.8795-8.7382 47.9883 35.1354 74.9772-4.7681-48.399-1.0812-45.7504-35.1354-74.9772z" fill="#eac102"/><path d="m102.6311 585.1612c11.2349 41.6482 3.5385 54.0471 49.0541 71.5607-1.9605-38.1257-16.4987-48.0634-49.0541-71.5607z" fill="#eac102"/><path d="m128.1598 618.3952c14.8844 40.547 8.0436 54.689 55.9507 64.0879-5.1289-38.6753-20.7876-46.1256-55.9507-64.0879z" fill="#eac102"/><path d="m154.687 649.5733c16.3958 36.0139 11.084 49.3525 55.6376 54.8257-7.324-34.9407-22.1836-40.7208-55.6376-54.8257z" fill="#eac102"/><path d="m224.4133 671.1945-11.0252-29.1554" fill="none" stroke-width="2"/><path d="m185.6986 729.1845c22.2504-7.0449 42.1746-26.7996 76.2334 10.7724-32.2098 9.5919-36.968 10.4695-76.2334-10.7724z" fill="#eac102"/><path d="m222.2522 665.2395c-1.0565 26.9883-8.8324 37.5766 39.334 73.7246-6.8106-44.5515-2.883-41.533-39.334-73.7246z" fill="#eac102"/><path d="m226.9986 755.0579-32.127.1448" fill="none" stroke-width="2"/><path d="m254.144 687.6014-19.583-29.0995" fill="none" stroke-width="2"/><path d="m218.7325 755.2008c19.0767-10.5303 33.3154-34.4333 76.0913-8.3411-20.2353 21.0836-33.3555 20.7047-76.0913 8.3411z" fill="#eac102"/><path d="m250.2706 682.1117c2.1011 18.5206-5.621 51.4931 44.4641 62.7861-10.8754-43.0786-6.8695-41.2088-44.4641-62.7861z" fill="#eac102"/><path d="m180.4307 675.2898c19.2925 34.1661 14.9882 48.1077 60.2186 48.5508-10.0852-34.1186-25.4779-38.2241-60.2186-48.5508z" fill="#eac102"/><path d="m211.888 704.5105c23.5055 31.2285 21.0619 45.4253 65.826 40.4512-14.3985-32.2826-30.1472-34.467-65.826-40.4512z" fill="#eac102"/><path d="m244.3312 721.8906c30.0856 23.7008 31.0697 38.2999 73.1784 20.3873-21.5315-27.3823-37.2722-24.9319-73.1784-20.3873z" fill="#eac102"/></g><g><path d="m655.9092 333.6642c2.0633 6.6931 3.9922 14.6701 6.7118 22.221 2.7315 7.5844 2.7674 11.0349 4.6531 16.7015 3.0855 9.2722-5.5781 25.535 20.5413 51.1549 24.723-26.0548 10.7135-69.2521-31.9062-90.0774z" fill="#008f4c" fill-rule="evenodd"/><path d="m655.9092 333.6642c16.4266 28.3358 32.1785 30.4093 31.0646 88.8234-.0893 4.6679.9656 10.2792.9088 13.8619l3.884 3.3438c-.0359-3.8985-1.5123-10.7324-1.5609-14.2312-.9701-69.7902-15.3222-60.9981-34.2965-91.798z" fill="#008f4c" fill-rule="evenodd"/><path d="m512.6872 683.3655c-2.9265 3.6306-3.1442 7.641-.4861 8.9575 2.6579 1.3166 7.185-.5592 10.1115-4.1898s3.1441-7.6411.4861-8.9576-7.1851.5594-10.1115 4.1899z" fill="#ed1c24"/><path d="m514.6891 691.1145c-7.6077 6.4716-6.0314 16.0808-4.4016 21.3565l-3.7476 3.716c-.8818-7.6477-2.0072-18.1242 6.1139-25.9443 1.3044-.2537 1.9763.1855 2.0353.8719z" fill="#008f4c" fill-rule="evenodd"/><path d="m527.7652 714.0148c-8.4511 5.4425-14.7693 3.8608-19.7489 1.0704l-4.7011 2.552c7.5796 2.6786 14.8915 4.0557 24.8422-1.5318.5767-1.1418.2928-1.8689-.3923-2.0908z" fill="#008f4c" fill-rule="evenodd"/><path d="m531.9694 721.1114c-4.464 1.5894-8.4741.565-8.9567-2.288-.4828-2.8529 2.7447-6.4543 7.2088-8.0437 4.464-1.5894 8.4741-.565 8.9567 2.288.4827 2.853-2.7448 6.4542-7.2088 8.0437z" fill="#ed1c24"/><path d="m528.74 697.7325c-3.0396 2.55-7.5386 3.5088-10.0488 2.1414s-2.0811-4.5431.9585-7.0931c3.0395-2.5501 7.5385-3.5088 10.0488-2.1414 2.5101 1.3674 2.081 4.5431-.9586 7.0931z" fill="#ed1c24"/><path d="m506.4594 716.7189c5.6694-5.2721 10.6118-11.5423 15.4971-17.8909-.3945-.5972-1.1046-.5725-1.9553-.2696-5.8151 7.3231-11.5145 13.8255-18.1599 19.5895l4.6181-1.4291z" fill="#008f4c" fill-rule="evenodd"/><path d="m547.7625 744.6288c-6.6509-.399-14.4565-1.4361-22.0496-1.4713-7.6268-.0357-10.8204-1.3295-16.4832-1.5204-9.2657-.3122-22.2962-15.765-51.9253 2.0032 18.3947 36.2394 61.4791 38.0806 90.4581.9885z" fill="#008f4c" fill-rule="evenodd"/><path d="m547.7625 744.6288c-28.5789 5.7667-37.6877 21.4095-89.9437-2.7688-4.2697-1.9755-8.8933-1.9323-12.1852-3.3872l-3.9841 2.8065c3.6046 1.4799 8.9342.5504 12.1412 1.9359 59.8132 25.8417 61.662 10.0672 93.9718 1.4137z" fill="#008f4c" fill-rule="evenodd"/><path d="m642.3737 500.3899c18.9608 30.7302 8.0436 67.3318-7.7168 94.6816-24.7254-46.3707 6.9231-58.008 7.7168-94.6816z" fill="#008f4c" fill-rule="evenodd"/><path d="m642.3737 500.3899c7.4386 25.7964-7.7769 56.5989-6.4596 100.0189l-3.4552 2.9602c.5431-59.4564 15.7971-77.9734 9.9148-102.9791z" fill="#008f4c" fill-rule="evenodd"/><path d="m687.8555 296.1329c3.1607-16.2297 9.2334-21.0475 13.2006-29.26 6.5692-13.5985 11.6127-26.7208 10.9548-48.911-25.1028 18.6472-50.1097 43.0807-24.1554 78.171z" fill="#008f4c" fill-rule="evenodd"/><path d="m690.55 312.1553c-5.2492-21.2682.8571-51.7326 21.4608-94.1935-19.6868 34.5457-28.0834 61.1575-25.1815 96.933l3.7208-2.7394z" fill="#008f4c" fill-rule="evenodd"/><path d="m665.2968 146.8601c.5085 6.8488.6263 14.8332 1.561 22.6917.9386 7.8935.2541 11.0784.8125 16.9237.9137 9.5645-10.4498 21.6033 8.2824 53.9519 28.1943-15.6383 24.2736-60.0748-10.6559-93.5674z" fill="#008f4c" fill-rule="evenodd"/><path d="m675.9518 256.4147c.7889-3.5931-.6041-9.1587.0889-12.389 13.821-64.4316.6132-61.6297-10.7439-97.1656 7.4008 26.3756 23.0784 37.8071 9.3458 89.6397-1.1221 4.2351-1.2784 9.7692-2.0861 13.0407" fill="#008f4c" fill-rule="evenodd"/><path d="m741.9202 447.7851c-5.0003 5.4527-14.1683 9.8414-19.6397 16.2678-5.4956 6.455-8.5193 8.545-12.6927 13.2588-6.8287 7.7132-21.9336 13.1063-33.1693 46.76 30.6805 15.0608 57.114-23.7795 65.5017-76.2867z" fill="#008f4c" fill-rule="evenodd"/><path d="m741.9202 447.7851c-16.2193 29.2114-14.6199 38.2945-65.9073 74.5235-4.0668 2.8727-7.7071 7.0949-10.8923 9.1913l-1.2762 4.725c3.4238-2.3499 6.7444-7.2549 9.8102-9.3754 61.1487-42.2965 51.2008-47.3991 68.2656-79.0643z" fill="#008f4c" fill-rule="evenodd"/><path d="m694.1583 474.6059c9.6564-7.5133 15.5423-5.3348 21.7743-17.8547 6.7342-13.5284 15.4964-36.8105 33.5675-53.4491-20.1484 3.7381-47.677 9.3508-52.0625 27.1153-3.3184 13.4411-1.6975 23.9424-3.2793 44.1884z" fill="#008f4c" fill-rule="evenodd"/><path d="m684.9836 482.6247c23.7966-13.6139 19.4474-55.8064 64.5164-79.3225-46.2133 18.5283-44.8443 68.2617-65.9038 74.6856z" fill="#008f4c" fill-rule="evenodd"/><path d="m566.7405 684.1609c10.7107 1.3941 13.2221 6.6654 24.6943 2.5468 12.3964-4.4504 36.8776-13.9407 58.4543-13.0181-15.2519-10.7197-41.366-25.0514-54.7617-16.295-10.1355 6.6251-15.3294 14.5545-28.387 26.7663z" fill="#008f4c" fill-rule="evenodd"/><path d="m620.5692 690.8185c-6.8504 1.4268-14.9782 2.5614-22.734 4.5894-7.7904 2.0368-11.2503 1.6753-17.0599 3.0315-9.5062 2.219-25.198-8.914-52.6912 15.9988 24.3841 29.4116 68.6461 19.4629 92.485-23.6197z" fill="#008f4c" fill-rule="evenodd"/><path d="m559.8344 684.3325c18.5911 5.9869 46.9308-24.7068 90.0547-10.6429-45.9678-17.516-69.3959 16.4289-92.9842 7.1585" fill="#008f4c" fill-rule="evenodd"/><path d="m634.8577 158.0561c102.9638 164.5159 74.9892 372.6236-31.4203 487.5917-46.4573 50.1939-90.0901 84.3203-177.8624 102.9753-41.9582 8.9178-129.5591 24.0977-142.8075 58.8094l-11.3509-12.4826c22.8225-29.7058 104.1067-46.0509 152.1523-55.7663 95.0052-19.2114 137.4062-60.6307 172.5358-97.697 105.198-110.9976 133.4825-315.3832 33.3852-480.4158z" fill="#008f4c" fill-rule="evenodd"/><path d="m613.16 565.8298c20.5305 38.4434 1.4574 68.4312-22.8142 86.5483-25.9145-56.093 16.7831-52.2223 22.8142-86.5483z" fill="#008f4c" fill-rule="evenodd"/><path d="m511.7395 716.4466c3.9083.4264 9.1835-1.8235 12.6923-1.4583 69.9874 7.2827 63.1895-7.064 96.1373-24.1698-29.5733 14.8116-35.631 28.8791-92.5565 21.7922-4.6832-.583-9.0557.5777-12.6409.0897" fill="#008f4c" fill-rule="evenodd"/><path d="m472.7781 735.9675c19.7811 25.6501 45.3496 3.8699 74.1432-6.5939-25.637-4.3673-58.9896-25.1077-74.1432 6.5939z" fill="#008f4c" fill-rule="evenodd"/><path d="m459.845 735.6691c27.8655-6.2336 67.9209-5.3766 87.0763-6.2955-36.0431 4.3242-63.5073 3.7961-86.7607 8.2342" fill="#008f4c" fill-rule="evenodd"/><path d="m518.6003 685.0576c-37.6584-7.1714-62.0712 21.5175-75.6745 51.404 54.4541 6.5033 45.0235-33.9332 75.6745-51.404z" fill="#008f4c" fill-rule="evenodd"/><path d="m435.2206 742.4777c45.7772-24.3482 58.5501-53.3346 83.3797-57.4201-26.0738 3.6841-46.9186 36.061-84.5851 54.2375" fill="#008f4c" fill-rule="evenodd"/><path d="m281.0705 809.1497c-2.742 1.2944-6.8124-1.1117-9.0858-5.372-2.2735-4.2605-1.8935-8.7692.8484-10.064 2.7417-1.2948 6.8123 1.1119 9.0857 5.3725 2.2736 4.2608 1.8934 8.7692-.8483 10.0635z" fill="#008f4c" fill-rule="evenodd"/><path d="m535.4677 691.3678c-18.6059-32.4781 17.0737-46.5972 42.0109-69.6613-7.3113 27.4668-.3797 70.7906-42.0109 69.6613z" fill="#008f4c" fill-rule="evenodd"/><path d="m530.0679 705.3161c15.8141-21.5214 35.0074-60.8859 47.5215-83.683-20.4411 31.3537-35.1419 62.3874-50.9143 83.0461" fill="#008f4c" fill-rule="evenodd"/><path d="m639.1313 626.8707c-3.0878 3.4866-7.0817 4.4513-8.9205 2.1547-1.8387-2.2966-.8261-6.985 2.2618-10.4716 3.0879-3.4867 7.0817-4.4513 8.9204-2.1547 1.8388 2.2967.8261 6.985-2.2617 10.4717z" fill="#ed1c24"/><path d="m608.3201 639.2444c7.8667-.5979 17.5972-1.7946 23.8968-11.045.003-1.2968-.5687-1.8572-1.2708-1.7842-5.0418 8.5045-15.424 8.6316-21.0481 8.0659" fill="#008f4c" fill-rule="evenodd"/><path d="m588.5552 658.2787c7.3053-51.0385 28.1957-65.2909 24.6048-92.4489 6.9076 26.2932-14.2476 42.0582-21.1978 88.8733" fill="#008f4c" fill-rule="evenodd"/><path d="m606.454 642.3068c-4.1608-6.7521-6.9603-13.4934-3.261-24.0745 1.0375-.7674 1.8241-.6328 2.1798-.0186h-.0001c-3.8433 9.1179-.5492 15.8292 3.2215 20.0709" fill="#008f4c" fill-rule="evenodd"/><path d="m597.4184 615.5264c-.7365 4.5739 1.0696 8.2202 4.034 8.1443 2.9644-.0758 5.9646-3.8451 6.701-8.4189.7365-4.5739-1.0697-8.2203-4.034-8.1444-2.9644.0758-5.9646 3.8451-6.701 8.419z" fill="#ed1c24"/><path d="m621.5699 614.2098c-1.9786 3.3912-2.0736 7.8796-.2122 10.0252 1.8614 2.1457 4.9742 1.1359 6.9527-2.2553 1.9786-3.3912 2.0736-7.8795.2122-10.0251-1.8614-2.1455-4.9741-1.1359-6.9527 2.2553z" fill="#ed1c24"/><path d="m608.5097 636.8675c4.2096-6.4225 7.8248-10.0814 13.2692-15.9561.6772.2651.7897.9497.6492 1.8213-6.2454 6.9489-6.7152 7.2767-11.2312 14.7265" fill="#008f4c" fill-rule="evenodd"/><path d="m686.5185 612.4528c-18.4551 37.7286-51.7689 38.6422-78.8217 28.9371 29.1134-51.7776 49.1699-14.975 78.8217-28.9371z" fill="#008f4c" fill-rule="evenodd"/><path d="m598.9615 644.2258c43.1897-22.1056 69.9889-14.888 87.557-31.773-15.0124 18.1422-50.5135 14.2935-84.8849 33.8173" fill="#008f4c" fill-rule="evenodd"/><path d="m711.0419 533.6292c-5.1407 4.4667-11.5861 9.3087-17.1505 14.7036-5.5894 5.4187-8.8565 6.7884-13.1257 10.696-6.9854 6.3941-27.6869 4.8295-36.4269 38.4707 39.6754 12.3512 72.4386-17.1061 66.7032-63.8704z" fill="#008f4c" fill-rule="evenodd"/><path d="m631.1786 605.9878c3.7017-1.5323 6.9171-5.0281 10.2888-6.2793 58.3146-21.6405 53.388-35.5373 69.5745-66.0793-19.7891 36.6566-22.3712 44.9855-66.2657 62.4084-4.546 1.6585-9.2397 4.832-12.6951 6.1586" fill="#008f4c" fill-rule="evenodd"/><path d="m647.607 579.289c32.2874 1.011 32.0678-32.6521 42.5607-61.6088-19.793 17.0713-57.0432 29.6947-42.5607 61.6088z" fill="#008f4c" fill-rule="evenodd"/><path d="m639.0766 589.1135c13.1279-25.5452 33.3962-46.47 51.0911-71.4333-12.2317 21.3091-37.8695 51.5922-49.4078 72.423" fill="#008f4c" fill-rule="evenodd"/><path d="m699.2478 508.3558c-2.5274 3.9329-6.2547 5.4021-8.3253 3.2815-2.0705-2.1206-1.7003-7.0279.8271-10.9608 2.5274-3.933 6.2547-5.4022 8.3252-3.2816 2.0706 2.1206 1.7003 7.0279-.827 10.9609z" fill="#ed1c24"/><path d="m674.0255 523.6768c6.8393-1.6555 14.6548-4.6137 18.7251-13.1257-.1647-1.3238-.7888-1.8263-1.4565-1.6666-3.1215 7.707-10.247 10.0666-15.7239 10.7073" fill="#008f4c" fill-rule="evenodd"/><path d="m667.9157 525.5939c-3.8993-5.6646-6.3652-11.8908-4.4486-21.6914.9014-.9091 1.6775-.8672 2.0999-.2837h-.0001c-2.2442 8.6759.2298 14.0064 3.7426 17.802" fill="#008f4c" fill-rule="evenodd"/><path d="m657.5473 501.8419c-.1187 4.7571 2.0949 8.2591 4.9443 7.8218 2.8494-.4372 5.2557-4.6479 5.3744-9.405.1189-4.757-2.0948-8.2589-4.9442-7.8217-2.8495.4371-5.2557 4.6479-5.3745 9.4049z" fill="#ed1c24"/><path d="m680.6718 497.5671c-1.4698 3.7008-.9808 8.2928 1.092 10.2564 2.0728 1.9637 4.9445.5554 6.4143-3.1454 1.4698-3.7009.9809-8.2929-1.0919-10.2566-2.0729-1.9636-4.9448-.5554-6.4145 3.1456z" fill="#ed1c24"/><path d="m669.6196 524.7875c3.2295-7.0651 7.6291-13.7509 12.1205-20.4069.6875.1885.8845.8734.8618 1.7799-5.125 7.8493-8.0403 12.7521-11.4325 20.9028" fill="#008f4c" fill-rule="evenodd"/><path d="m674.6189 490.2414c-35.2366-12.294-17.3304-46.4586-13.4096-80.2542 12.3148 25.5388 45.7291 53.7547 13.4096 80.2542z" fill="#008f4c" fill-rule="evenodd"/><path d="m678.4243 504.7813c-1.9974-26.6368-10.657-61.5406-17.215-94.794 5.2265 39.386 12.7901 69.6931 14.2583 95.6513" fill="#008f4c" fill-rule="evenodd"/><path d="m666.9078 370.9005c2.322 3.9305 5.9764 5.4021 8.1624 3.287 2.186-2.1149 2.0756-7.0158-.2464-10.9462s-5.9764-5.4021-8.1624-3.2871c-2.1859 2.115-2.0755 7.0158.2464 10.9462z" fill="#ed1c24"/><path d="m693.7919 386.5737c-7.4374-1.5719-16.1499-3.2769-20.4946-13.4731.2351-1.3216.8869-1.8226 1.547-1.6624 3.275 9.2823 12.2776 10.9669 17.7773 11.0789" fill="#008f4c" fill-rule="evenodd"/><path d="m695.4228 390.6276c5.2322-6.3704 9.1563-12.8965 7.5509-24.1302-.8544-.909-1.6338-.8681-2.0879-.2858h.0001c2.0124 9.7605-1.7431 15.276-6.1399 19.1364" fill="#008f4c" fill-rule="evenodd"/><path d="m709.0108 364.4471c-.1335 4.7504-2.536 8.2446-5.3661 7.8045s-5.0161-4.6478-4.8825-9.3981c.1335-4.7504 2.5361-8.2446 5.3662-7.8045 2.8301.44 5.0162 4.6478 4.8825 9.3981z" fill="#ed1c24"/><path d="m686.0818 360.1498c1.2754 3.6974.542 8.2822-1.6379 10.2406-2.1799 1.9583-4.9808.5485-6.2562-3.1488-1.2752-3.6974-.542-8.2822 1.638-10.2405 2.1799-1.9583 4.9809-.5486 6.2562 3.1488z" fill="#ed1c24"/><path d="m693.9074 383.2636c-2.6426-5.5773-5.9195-10.9538-9.2572-16.3112-.6984.1872-.932.871-.9573 1.7763 3.0408 5.0586 5.7812 9.9638 8.1391 14.9936" fill="#008f4c" fill-rule="evenodd"/><path d="m701.8223 412.2967c9.0209-9.8983 16.0896-10.3372 20.1297-23.0754 4.3657-13.7643 11.2646-39.4338 27.548-60.0917-21.5961 10.7703-53.5232 28.9619-54.2864 45.3382-.5775 12.3908 3.6691 20.4663 6.6086 37.8288z" fill="#008f4c" fill-rule="evenodd"/><path d="m694.1725 421.6634c21.3524-15.9208 10.5404-55.8976 55.3275-92.5337-49.5483 38.3861-33.9257 72.4345-60.0043 91.8735" fill="#008f4c" fill-rule="evenodd"/><path d="m642.5203 269.5872c41.882 11.7651 50.1418 46.2215 46.3144 76.3062-58.3046-20.0884-25.8301-48.1894-46.3144-76.3062z" fill="#008f4c" fill-rule="evenodd"/><path d="m691.5338 351.228c-27.7133-38.1381-27.4666-67.4789-49.0135-81.6409 26.1151 14.6911 25.44 49.7229 52.5348 81.6554" fill="#008f4c" fill-rule="evenodd"/><path d="m724.5188 264.4257c18.6724 38.4804-2.8175 64.5928-28.8326 79.081-23.1-55.7128 20.5193-47.3389 28.8326-79.081z" fill="#008f4c" fill-rule="evenodd"/><path d="m691.9337 354.3112c10.6561-47.3749 35.116-64.3362 32.5851-89.8855 3.3694 28.6664-19.6192 43.9022-28.8692 86.8775" fill="#008f4c" fill-rule="evenodd"/><path d="m657.3682 208.2523c-36.9991-4.1103-32.7294-42.6507-39.7589-77.7523 19.6643 22.9175 58.4332 43.7749 39.7589 77.7523z" fill="#008f4c" fill-rule="evenodd"/><path d="m664.9106 221.5369c-10.6168-31.5989-32.2754-57.1691-47.3013-91.0369 17.395 38.5946 34.0073 63.1509 43.6151 89.0543" fill="#008f4c" fill-rule="evenodd"/><path d="m651.2552 207.6374c.6767 4.4835 3.4844 7.6582 6.2709 7.0911 2.7865-.5672 4.4966-4.6615 3.82-9.1448-.6768-4.4834-3.4843-7.6582-6.2709-7.0911-2.7864.5671-4.4968 4.6614-3.82 9.1448z" fill="#ed1c24"/><path d="m658.3351 212.3434c-.4274 9.4018 7.733 15.7717 12.7353 18.8182l.1788 5.0325c-6.2399-5.2894-14.7314-12.5841-14.9473-23.3129.7041-.9619 1.487-1.0244 2.0332-.5375z" fill="#008f4c" fill-rule="evenodd"/><path d="m684.1499 222.0292c-1.7621 9.1172-7.2449 11.6411-12.7042 12.4575l-1.3307 4.7105c7.1531-2.4345 13.1641-5.6996 15.844-15.8112-.4477-1.2073-1.1775-1.5923-1.8092-1.3569z" fill="#008f4c" fill-rule="evenodd"/><path d="m692.2535 224.9409c-1.8783 3.8394-5.3733 5.4258-7.8061 3.5431-2.4329-1.8826-2.8823-6.5212-1.0039-10.3607 1.8783-3.8395 5.3732-5.4257 7.8061-3.5431 2.4328 1.8826 2.8824 6.5211 1.004 10.3606z" fill="#ed1c24"/><path d="m672.8135 209.0858c-.1971 3.7293-2.5642 7.1102-5.2873 7.5516-2.723.4413-4.7708-2.224-4.5737-5.9532.1969-3.7293 2.5642-7.1102 5.2872-7.5516 2.7231-.4412 4.7708 2.224 4.5738 5.9532z" fill="#ed1c24"/><path d="m671.5862 236.6456c-.0128-7.3476-1.2581-15.0248-2.5999-22.7279-.7098-.2211-1.1768.2164-1.5346.9481 1.425 8.9916 2.3242 17.2914 2.0327 25.5883" fill="#008f4c" fill-rule="evenodd"/><path d="m611.3086 199.3058c4.7723 6.3136 10.026 13.9251 15.7907 20.9438 5.7901 7.0499 7.2514 10.5779 11.4266 15.8864 6.8319 8.6861 5.1325 27.6616 41.1124 46.9864 13.263-33.2826-18.2922-73.7927-68.3297-83.8166z" fill="#008f4c" fill-rule="evenodd"/><path d="m687.3666 296.9002c-1.5955-4.0014-4.7273-9.3661-6.1752-12.953-28.8805-71.5474-38.1899-57.2138-69.8828-84.6414 33.4329 29.4236 41.5442 20.5255 67.9123 85.506 1.9315 4.7599 3.5998 7.9677 4.9782 11.6676" fill="#008f4c" fill-rule="evenodd"/></g><g><path d="m191.7069 197.7164c4.8014-23.8649-2.7297-66.8018-21.4924-84.1502 42.5741-35.0833 143.024-104.2379 161.4215-111.5611 2.5603-1.0191 5.404-1.5051 8.6615-1.5051 27.8719 0 42.0356 71.1497 4.7766 99.0139z" fill="#c09f02"/><path d="m340.8317 26.3163c7.2939 4.2239 12.4049 35.5072-1.7221 41.4396-20.6725 8.345-37.5905-5.8142-39.5859-19.17 12.1027-5.8595 28.372-14.4372 41.3079-22.2695z" fill="#c09f02"/><path d="m182.1249 152.758c-1.4939 1.0078-3.2629 1.6762-5.3635 1.8618-17.9254 1.5843-31.4339-40.035-12.6429-55.5342 15.026-12.3938 40.2868-23.2215 72.3452-41.8182 34.7997-20.1868 71.8757-45.9504 95.1722-55.2624-24.3453 9.6907-16.9747 68.8136 3.8785 66.6238 1.296-.1361 2.5261-.4242 3.5951-.8731-48.9726 20.7901-109.9115 53.2445-156.9847 85.0022z" fill="#eac102"/><path d="m558.2931 197.7164c-4.8014-23.8649 2.7297-66.8018 21.4924-84.1502-42.5741-35.0833-143.024-104.2379-161.4215-111.5611-2.5603-1.0191-5.404-1.5051-8.6615-1.5051-27.8719 0-42.0356 71.1497-4.7766 99.0139z" fill="#c09f02"/><path d="m409.1683 26.3163c-7.2939 4.2239-12.4049 35.5072 1.7221 41.4396 20.6725 8.345 37.5905-5.8142 39.5859-19.17-12.1027-5.8595-28.372-14.4372-41.3079-22.2695z" fill="#c09f02"/><path d="m567.8752 152.758c1.4939 1.0078 3.2629 1.6762 5.3635 1.8618 17.9254 1.5843 31.4339-40.035 12.6429-55.5342-15.026-12.3938-40.2868-23.2215-72.3452-41.8182-34.7997-20.1868-71.8757-45.9504-95.1722-55.2624 24.3453 9.6907 16.9747 68.8136-3.8785 66.6238-1.296-.1361-2.5261-.4242-3.5951-.8731 48.9726 20.7901 109.9115 53.2445 156.9847 85.0022z" fill="#eac102"/></g></g><g fill-rule="evenodd" stroke="#000" stroke-linecap="round" stroke-linejoin="round"><path d="m624.5 380c0 165.324-111.776 299.5-249.5 299.5s-249.5-134.176-249.5-299.5 111.776-299.5 249.5-299.5 249.5 134.176 249.5 299.5z" fill="#0071bc"/><path d="m375 679.5c-137.724 0-249.5-134.176-249.5-299.5s111.776-299.5 249.5-299.5z" fill="#eac102"/></g><g stroke="#000" stroke-linecap="round" stroke-linejoin="round"><g><path d="m441.4116 257.9063c3.5511 0 6.4099 2.846 6.4099 6.3806v20.5524h-12.82v-20.5524c0-3.5347 2.8591-6.3806 6.4101-6.3806zm16.6941 66.3694h-33.3886v-70.5358l-6.9768-5.772v-16.0314h9.4684v8.0157h9.4685v-8.0157h9.4684v8.0157h9.4684v-8.0157h9.4685v16.0314l-6.9768 5.772z" fill="#e5e5e5" fill-rule="evenodd"/><path d="m424.7172 265.4951h10.2842" fill="none"/><path d="m417.7403 247.9678h47.3421" fill="none"/><path d="m424.7172 300.765h33.3886" fill="none"/><path d="m424.7172 289.007h33.3886" fill="none"/><path d="m424.7172 312.519h33.3886" fill="none"/><path d="m441.4116 300.7625v11.7566" fill="none"/><path d="m424.7172 277.2504h10.2842" fill="none"/><path d="m446.0627 247.9678v5.7694" fill="none"/><path d="m427.4581 247.9678v5.7694" fill="none"/><path d="m455.3648 247.9678v5.7694" fill="none"/><path d="m436.7603 247.9678v5.7694" fill="none"/><path d="m424.7172 253.7372h33.3886" fill="none"/><path d="m430.9462 312.519v11.7566" fill="none"/><path d="m451.8764 312.519v11.7566" fill="none"/><path d="m430.9462 289.007v11.758" fill="none"/><path d="m451.8764 289.007v11.758" fill="none"/><path d="m430.9462 265.4951v11.7553" fill="none"/><path d="m451.8764 265.4951v11.7553" fill="none"/><path d="m441.4116 284.8393v4.1677" fill="none"/><path d="m441.4116 253.7372v4.1691" fill="none"/><path d="m447.8215 265.4951h10.2844" fill="none"/><path d="m447.8215 277.2504h10.2844" fill="none"/><path d="m538.0888 257.9063c3.5511 0 6.4099 2.846 6.4099 6.3806v20.5524h-12.82v-20.5524c0-3.5347 2.8589-6.3806 6.4102-6.3806zm16.6941 66.3694h-33.3886v-70.5358l-6.9768-5.772v-16.0314h9.4684v8.0157h9.4685v-8.0157h9.4684v8.0157h9.4684v-8.0157h9.4685v16.0314l-6.9768 5.772z" fill="#e5e5e5" fill-rule="evenodd"/><path d="m521.3943 265.4951h10.2842" fill="none"/><path d="m514.4174 247.9678h47.3422" fill="none"/><path d="m521.3943 300.765h33.3887" fill="none"/><path d="m521.3943 289.007h33.3887" fill="none"/><path d="m521.3943 312.519h33.3887" fill="none"/><path d="m538.0887 300.7625v11.7566" fill="none"/><path d="m521.3943 277.2504h10.2842" fill="none"/><path d="m542.7398 247.9678v5.7694" fill="none"/><path d="m524.1352 247.9678v5.7694" fill="none"/><path d="m552.0419 247.9678v5.7694" fill="none"/><path d="m533.4374 247.9678v5.7694" fill="none"/><path d="m521.3943 253.7372h33.3887" fill="none"/><path d="m527.6233 312.519v11.7566" fill="none"/><path d="m548.5536 312.519v11.7566" fill="none"/><path d="m527.6233 289.007v11.758" fill="none"/><path d="m548.5536 289.007v11.758" fill="none"/><path d="m527.6233 265.4951v11.7553" fill="none"/><path d="m548.5536 265.4951v11.7553" fill="none"/><path d="m538.0887 284.8393v4.1677" fill="none"/><path d="m538.0887 253.7372v4.1691" fill="none"/><path d="m544.4986 265.4951h10.2845" fill="none"/><path d="m544.4986 277.2504h10.2845" fill="none"/><path d="m489.7503 232.8984c3.5511 0 6.4099 2.846 6.4099 6.3805v20.5525h-12.82v-20.5525c0-3.5345 2.8589-6.3805 6.4101-6.3805zm16.6941 66.3694h-33.3886v-70.536l-6.9768-5.7719v-16.0314h9.4684v8.0158h9.4685v-8.0158h9.4684v8.0158h9.4684v-8.0158h9.4685v16.0314l-6.9768 5.7719z" fill="#e5e5e5" fill-rule="evenodd"/><path d="m473.0558 240.4873h10.2842" fill="none"/><path d="m466.0788 222.96h47.3422" fill="none"/><path d="m473.0558 275.7572h33.3886" fill="none"/><path d="m473.0558 263.9992h33.3886" fill="none"/><path d="m473.0558 287.5112h33.3886" fill="none"/><path d="m489.7501 275.7546v11.7567" fill="none"/><path d="m473.0558 252.2427h10.2842" fill="none"/><path d="m494.4013 222.96v5.7694" fill="none"/><path d="m475.7967 222.96v5.7694" fill="none"/><path d="m503.7033 222.96v5.7694" fill="none"/><path d="m485.0988 222.96v5.7694" fill="none"/><path d="m473.0558 228.7294h33.3886" fill="none"/><path d="m479.2847 287.5112v11.7567" fill="none"/><path d="m500.215 287.5112v11.7567" fill="none"/><path d="m479.2847 263.9992v11.7579" fill="none"/><path d="m500.215 263.9992v11.7579" fill="none"/><path d="m479.2847 240.4873v11.7554" fill="none"/><path d="m500.215 240.4873v11.7554" fill="none"/><path d="m489.7501 259.8314v4.1678" fill="none"/><path d="m489.7501 228.7294v4.1691" fill="none"/><path d="m496.16 240.4873h10.2844" fill="none"/><path d="m496.16 252.2427h10.2844" fill="none"/><path d="m525.5499 355.8712c5.4777 0 9.8875 4.3997 9.8875 9.8653v34.4251h-19.775v-34.4251c0-5.4656 4.4098-9.8653 9.8875-9.8653zm-71.6 0c5.4777 0 9.8875 4.3997 9.8875 9.8653v34.4251h-19.775v-34.4251c0-5.4656 4.4098-9.8653 9.8875-9.8653zm125.3001 158.6288-.0003-54.5934-17.8999-18.1982-.0003-109.1881 11.9169-7.0609v-31.1303h-29.8169v15.5652h-33.2569v-15.5652h-40.8857v15.5652h-33.2569v-15.5652h-29.8169v31.1303l11.9169 7.0609-.0001 109.1881-17.9 18.1982v54.5934h74.2671l.0003-46.8785c0-8.436 6.7939-15.2278 15.2326-15.2278 8.4389 0 15.2327 6.7918 15.2327 15.2278v46.8785z" fill="#e5e5e5" fill-rule="evenodd"/><path d="m400.25 496.3017h63.5785" fill="none"/><path d="m400.25 478.1035h63.5785" fill="none"/><path d="m400.25 459.9066h64.6087" fill="none"/><path d="m418.1503 441.7084h143.1997" fill="none"/><path d="m418.1503 423.5101h143.1996" fill="none"/><path d="m418.1503 405.312h143.1996" fill="none"/><path d="m453.9499 423.5101v18.1983" fill="none"/><path d="m489.7499 423.5101v17.8132" fill="none"/><path d="m525.5499 423.5101v18.1983" fill="none"/><path d="m418.1503 350.7185h143.1996" fill="none"/><path d="m418.1503 368.9181h25.9123" fill="none"/><path d="m418.1503 387.115h25.9123" fill="none"/><path d="m515.6728 496.3017h63.5769" fill="none"/><path d="m515.6728 478.1035h63.5769" fill="none"/><path d="m418.15 459.9066v18.1969" fill="none"/><path d="m561.3499 459.9066v18.1969" fill="none"/><path d="m453.9499 459.9066v18.1969" fill="none"/><path d="m525.5499 459.9066v18.1969" fill="none"/><path d="m418.15 496.3017v18.1983" fill="none"/><path d="m561.3499 496.3017v18.1983" fill="none"/><path d="m453.9499 496.3017v18.1983" fill="none"/><path d="m525.5499 496.3017v18.1983" fill="none"/><path d="m436.05 478.1035v18.1982" fill="none"/><path d="m543.4499 478.1035v18.1982" fill="none"/><path d="m436.05 441.7084v18.1982" fill="none"/><path d="m543.4499 441.7084v18.1982" fill="none"/><path d="m471.8499 441.7084v7.1162" fill="none"/><path d="m436.05 405.312v18.1981" fill="none"/><path d="m543.4499 405.312v18.1981" fill="none"/><path d="m507.65 405.312v18.1981" fill="none"/><path d="m471.8499 405.312v18.1981" fill="none"/><path d="m535.4375 368.9181h25.9124" fill="none"/><path d="m535.4375 387.115h25.9124" fill="none"/><path d="m463.8375 368.9181h51.825" fill="none"/><path d="m463.8375 387.115h51.825" fill="none"/><path d="m436.05 368.9181v18.1969" fill="none"/><path d="m543.4499 368.9181v18.1969" fill="none"/><path d="m507.65 368.9181v18.1969" fill="none"/><path d="m471.8499 368.9181v18.1969" fill="none"/><path d="m453.9499 400.1617v5.1503" fill="none"/><path d="m489.7499 387.115v18.197" fill="none"/><path d="m525.5499 400.1617v5.1503" fill="none"/><path d="m453.9499 350.7185v5.1527" fill="none"/><path d="m489.7499 350.7185v18.1996" fill="none"/><path d="m525.5499 350.7185v5.1527" fill="none"/><path d="m406.2332 325.4593h167.0333" fill="none"/><path d="m489.7499 332.5202v-7.0609" fill="none"/><path d="m458.8363 332.5202v-7.0609" fill="none"/><path d="m427.9228 332.5202v-7.0609" fill="none"/><path d="m520.6636 332.5202v-7.0609" fill="none"/><path d="m551.5771 332.5202v-7.0609" fill="none"/><path d="m418.15 332.5202h143.1999" fill="none"/><path d="m436.05 332.5202v18.1983" fill="none"/><path d="m543.4499 332.5202v18.1983" fill="none"/><path d="m507.65 332.5202v18.1983" fill="none"/><path d="m471.8499 332.5202v18.1983" fill="none"/><path d="m507.6499 441.7084v7.1162" fill="none"/><path d="m514.6413 459.9066h64.6084" fill="none"/><path d="m463.8278 514.5v-46.8785c0-14.3562 11.5615-25.9132 25.9222-25.9132 14.361 0 25.9222 11.557 25.9222 25.9132v46.8785" fill="none"/><path d="m463.8278 467.6216h10.6897" fill="none"/><path d="m504.9821 467.6216h10.69" fill="none"/><path d="m502.0734 458.6705 8.648-6.2792" fill="none"/><path d="m468.7787 452.3912 8.6479 6.2792" fill="none"/><path d="m481.7397 442.9766 3.3033 10.1639" fill="none"/><path d="m494.4572 453.1405 3.3033-10.1639" fill="none"/><path d="m463.8278 483.2473h10.6897" fill="none"/><path d="m463.8278 498.8743h10.6897" fill="none"/><path d="m504.9821 483.2473h10.69" fill="none"/><path d="m504.9825 498.8743h10.6897" fill="none"/></g><g fill="#ed1c24"><path d="m212.4751 236.503c-20.2594 25.7688-35.2649 44.1533-40.2176 40.8378-4.6424-3.1077 1.0207-27.5436 22.8209-56.7261"/><path d="m227.5458 243.3286c-18.6623 26.9488-40.7892 60.2926-45.9336 57.2831-4.822-2.8207 7.6134-41.6388 27.6071-72.0883"/><path d="m235.8158 255.4739c-21.3587 41.4658-36.8212 66.3748-42.1519 63.761-4.9967-2.45-.3051-36.74 22.8822-77.1512"/><path d="m247.8922 264.0051c-26.0844 52.8051-38.0687 79.5944-43.496 77.1876-5.0872-2.256-1.6587-34.9945 23.7257-89.8263"/><path d="m262.1462 290.0552c-25.2152 41.8218-37.928 78.8722-47.0745 77.8211-16.1808-1.8592 2.7438-52.1838 31.2637-97.7407"/><path d="m280.3245 297.7403c-39.5104 59.9268-48.7827 112.2205-60.4014 111.6464-19.8306-.9798 3.901-69.5738 40.5835-125.1562"/><path d="m292.4724 308.4512c-37.1216 61.4058-59.2102 149.7402-70.8442 149.6176-19.8567-.2096 16.0391-105.3909 50.5059-162.3463"/><path d="m272.3118 400.2795c-31.9557 64.2199-34.8132 117.2305-46.4196 118.057-19.8099 1.4108-4.5741-69.5144 25.1011-129.0824"/><path d="m286.0645 412.089c-28.75 65.6966-39.515 157.7216-51.0679 159.1141-19.7185 2.3768 2.5267-108.1434 29.2283-169.0831"/><path d="m294.4252 447.5826c-25.3245 67.0709-30.0004 158.7312-41.4676 160.7121-19.5721 3.3811-4.3844-107.3349 19.1397-169.5512"/><path d="m307.4856 484.6716c-23.5808 67.6937-23.7037 137.4319-35.1165 139.7057-19.4792 3.8814-9.3408-85.174 12.5658-147.969"/><path d="m286.5527 300.9294c-25.7205 44.3892-53.8377 116.599-40.3127 122.5761 15.374 6.7942 39.8199-64.3586 64.1192-112.2421"/><path d="m291.7929 329.885c-22.0184 46.3116-47.4012 132.1208-33.4306 136.9848 15.8805 5.529 37.6895-78.9306 58.0061-128.6092"/><path d="m302.5468 360.2958c-19.3272 47.4808-41.2377 134.5804-27.0089 138.6424 16.174 4.617 34.5936-80.9323 52.0283-131.678"/><path d="m316.2804 386.1507c-14.5211 48.0595-38.68 122.3778-24.5027 126.613 16.1154 4.8137 31.3759-68.813 49.4338-119.3436"/><path d="m241.6717 193.5c-14.0164 91.7196 88.713 62.2845 106.0303 149.2567 3.4972 17.5638 2.3385 32.544-2.1298 48.3386-7.6743 27.1277-29.7553 42.5231-30.905 4.595-12.1465 17.4663-26.0455 13.126-10.2942-27.7525-17.0626 20.8603-26.0448-1.766-11.219-29.7315-12.6357 8.5918-25.2109-2.7846-15.9074-28.5018-14.1254 15.1943-31.3159 9.9649-21.258-17.4444-17.8735 14.8043-29.1632 10.342-19.6177-16.6318-15.0567 19.5033-28.2752 13.4437-16.6949-18.4139-20.3074 21.7021-27.4512 6.584-15.9181-22.1248-17.6218 10.2337-31.0782-3.1959-5.7693-25.2664 8.4158-7.3388 19.4741-11.4997 43.6829-16.3232z"/></g></g><path d="m623.5 380c0 164.772-111.328 298.5-248.5 298.5s-248.5-133.728-248.5-298.5 111.328-298.5 248.5-298.5 248.5 133.728 248.5 298.5z" fill="none" stroke="#000" stroke-linecap="round" stroke-linejoin="round" stroke-width="3"/></svg>