<?xml version="1.0" encoding="UTF-8" standalone="no"?>
<!-- Created with Inkscape (http://www.inkscape.org/) -->

<svg
   xmlns:dc="http://purl.org/dc/elements/1.1/"
   xmlns:cc="http://creativecommons.org/ns#"
   xmlns:rdf="http://www.w3.org/1999/02/22-rdf-syntax-ns#"
   xmlns:svg="http://www.w3.org/2000/svg"
   xmlns="http://www.w3.org/2000/svg"
   xmlns:sodipodi="http://sodipodi.sourceforge.net/DTD/sodipodi-0.dtd"
   xmlns:inkscape="http://www.inkscape.org/namespaces/inkscape"
   version="1.0"
   width="502"
   height="602"
   id="svg3194"
   sodipodi:version="0.32"
   inkscape:version="0.47 r22583"
   sodipodi:docname="Escut d'Andratx.svg"
   inkscape:output_extension="org.inkscape.output.svg.inkscape">
  <metadata
     id="metadata12">
    <rdf:RDF>
      <cc:Work
         rdf:about="">
        <dc:format>image/svg+xml</dc:format>
        <dc:type
           rdf:resource="http://purl.org/dc/dcmitype/StillImage" />
      </cc:Work>
    </rdf:RDF>
  </metadata>
  <sodipodi:namedview
     inkscape:window-height="954"
     inkscape:window-width="1280"
     inkscape:pageshadow="2"
     inkscape:pageopacity="0.0"
     guidetolerance="10.0"
     gridtolerance="10.0"
     objecttolerance="10.0"
     borderopacity="1.0"
     bordercolor="#666666"
     pagecolor="#ffffff"
     id="base"
     showgrid="false"
     inkscape:zoom="0.50491803"
     inkscape:cx="-252.05194"
     inkscape:cy="333.30429"
     inkscape:window-x="-4"
     inkscape:window-y="-4"
     inkscape:current-layer="svg3194"
     inkscape:window-maximized="0" />
  <defs
     id="defs3196" />
  <g
     transform="translate(-24.742581,-376.23903)"
     id="layer4" />
  <g
     transform="translate(-24.742581,-376.23903)"
     id="layer5" />
  <g
     transform="translate(-25.821342,-372.82143)"
     id="layer7"
     style="fill:#0071bc;display:inline">
    <path
       d="m 27.37268,374.32143 c 0.20428,120.74472 -0.41112,241.50282 0.31223,362.23909 3.84688,108.35657 86.78731,207.32613 192.69986,230.20963 97.98283,23.87 207.67231,-19.0271 262.97741,-103.6212 33.1221,-47.31073 45.3201,-105.86015 42.5889,-162.85245 0,-108.65836 0,-217.31672 0,-325.97507 -166.1928,0 -332.38553,0 -498.5784,0 z"
       id="path11946"
       style="fill:#0071bc;fill-opacity:1;fill-rule:evenodd;stroke:#000000;stroke-width:3;stroke-linecap:butt;stroke-linejoin:miter;stroke-miterlimit:4;stroke-opacity:1;stroke-dasharray:none;stroke-dashoffset:0;marker:none;visibility:visible;display:inline;overflow:visible;enable-background:accumulate" />
  </g>
  <g
     transform="translate(-93.301933,-324.2029)"
     id="layer1"
     style="display:inline">
    <g
       transform="translate(936.96032,90.651393)"
       id="g5818" />
    <g
       transform="translate(936.96032,90.651393)"
       id="g5820" />
    <g
       transform="translate(936.96032,90.651393)"
       id="g5822" />
    <g
       transform="translate(-518.77917,786.13897)"
       id="g5438"
       style="display:inline" />
    <g
       transform="translate(-462.35045,709.49863)"
       id="g5440"
       style="display:inline" />
    <g
       transform="translate(-462.35045,709.49863)"
       id="g5559" />
    <g
       transform="translate(-462.35045,709.49863)"
       id="g5561"
       style="display:inline" />
    <g
       transform="matrix(0.4790086,0,0,0.4790086,458.6595,396.39797)"
       id="g4109" />
    <g
       transform="matrix(0.4790086,0,0,0.4790086,458.6595,396.39797)"
       id="g4111" />
    <g
       transform="matrix(0.4790086,0,0,0.4790086,458.6595,396.39797)"
       id="g4113" />
    <g
       transform="matrix(0.4790086,0,0,0.4790086,-238.65223,729.5425)"
       id="g4117"
       style="display:inline" />
    <g
       transform="matrix(0.4790086,0,0,0.4790086,-211.62239,692.83112)"
       id="g4119"
       style="display:inline" />
    <g
       transform="matrix(0.4790086,0,0,0.4790086,-211.62239,692.83112)"
       id="g4121" />
    <g
       transform="matrix(0.4790086,0,0,0.4790086,-211.62239,692.83112)"
       id="g4123"
       style="display:inline" />
    <g
       transform="matrix(0.4790086,0,0,0.4790086,-684.83939,492.28363)"
       id="g11006" />
    <g
       transform="matrix(0.6550257,0,0,0.6550257,580.75577,272.29797)"
       id="g5191"
       style="display:inline" />
    <g
       transform="matrix(0.6550257,0,0,0.6550257,580.75577,272.29797)"
       id="g5193"
       style="display:inline" />
    <g
       transform="matrix(0.6550257,0,0,0.6550257,617.71803,222.09657)"
       id="g5195"
       style="display:inline" />
    <g
       transform="matrix(0.6550257,0,0,0.6550257,617.71803,222.09657)"
       id="g5197"
       style="display:inline" />
    <g
       transform="matrix(0.6550257,0,0,0.6550257,617.71803,222.09657)"
       id="g5199" />
    <g
       transform="translate(642.95313,-380.37463)"
       id="g5215" />
    <g
       transform="translate(642.95313,-380.37463)"
       id="g5315" />
  </g>
  <g
     transform="translate(-36.873209,-400.84325)"
     id="layer4-4"
     style="display:inline" />
  <g
     transform="translate(208.7561,-156.14029)"
     id="g4096"
     style="display:inline" />
  <g
     transform="translate(208.7561,-156.14029)"
     id="g4098">
    <path
       d=""
       id="path1887"
       style="opacity:0.63999999;fill:#009900;fill-opacity:1" />
    <path
       d=""
       id="path1883"
       style="opacity:0.63999999;fill:#009900;fill-opacity:1" />
    <path
       d=""
       id="path1881"
       style="opacity:0.63999999;fill:#009900;fill-opacity:1" />
  </g>
  <g
     transform="translate(265.18482,-232.78064)"
     id="g4103" />
  <g
     transform="translate(265.18482,-232.78064)"
     id="g4105" />
  <g
     transform="translate(265.18482,-232.78064)"
     id="g4107" />
  <g
     transform="translate(-511.2947,-135.64033)"
     id="g3575"
     style="display:inline" />
  <path
     d=""
     id="path3872"
     style="opacity:0.63999999;fill:#009900;fill-opacity:1" />
  <path
     d=""
     id="path3874"
     style="opacity:0.63999999;fill:#009900;fill-opacity:1" />
  <path
     d=""
     id="path3876"
     style="opacity:0.63999999;fill:#009900;fill-opacity:1" />
  <g
     transform="translate(186.71965,-212.0226)"
     id="g5190" />
  <g
     transform="translate(186.71965,-212.0226)"
     id="g5192" />
  <g
     transform="translate(186.71965,-212.0226)"
     id="g5194" />
  <g
     transform="translate(-454.86598,-212.28068)"
     id="g3907" />
  <g
     transform="translate(-454.86598,-212.28068)"
     id="g3909" />
  <g
     transform="translate(-454.86598,-212.28068)"
     id="g3911" />
  <g
     transform="translate(-432.74389,-315.64033)"
     id="g10327"
     style="display:inline" />
  <path
     d=""
     id="path11125"
     style="opacity:0.63999999;fill:#009900;fill-opacity:1" />
  <path
     d=""
     id="path11127"
     style="opacity:0.63999999;fill:#009900;fill-opacity:1" />
  <path
     d=""
     id="path11129"
     style="opacity:0.63999999;fill:#009900;fill-opacity:1" />
  <g
     transform="translate(-376.31517,-392.28068)"
     id="g11131" />
  <g
     transform="translate(-376.31517,-392.28068)"
     id="g11133" />
  <g
     transform="translate(-376.31517,-392.28068)"
     id="g11135" />
  <g
     transform="translate(497.6551,-459.83033)"
     id="g8517"
     style="display:inline" />
  <g
     transform="translate(497.6551,-459.83033)"
     id="g8519"
     style="display:inline" />
  <g
     transform="translate(-36.873209,-400.84325)"
     id="layer6"
     style="display:inline" />
  <g
     transform="translate(-37.232121,-340.84325)"
     id="g2937"
     style="stroke:#000000;stroke-opacity:1" />
  <g
     id="g6047"
     transform="matrix(1.1474233,0,0,1.1471291,27.039109,59.096522)">
    <path
       d="m 120.69654,15.30778 c -4.87234,19.05527 0.49825,34.74179 9.81055,49.52259 7.20095,11.4296 11.93227,23.60997 11.70717,36.69681 -3.27561,1.84709 -6.39917,3.83804 -9.41431,5.98055 L 57.542228,57.52074 108.06643,131.9482 c -0.90775,1.25334 -1.79218,2.55604 -2.6437,3.84498 -14.330392,-6.45556 -27.782752,-7.73562 -40.601612,-5.25593 -18.12127,3.50537 -33.5061,-0.28984 -49.571216,-9.86467 10.028846,16.91938 24.991176,24.20993 42.027536,28.07677 13.20014,2.9961 25.13177,8.25359 34.23728,17.70263 -0.99077,3.56052 -1.80901,7.16179 -2.43119,10.81755 L 0.5000036,195.23285 88.883818,212.13498 c 0.24293,1.5206 0.53565,3.03673 0.84614,4.55477 -14.70201,5.56253 -25.15478,14.14816 -32.46731,24.96838 -10.33501,15.29233 -23.82469,23.4913 -41.954848,28.08063 19.055248,4.87238 34.715498,-0.56169 49.496298,-9.87399 11.42962,-7.20093 23.60999,-11.93227 36.696782,-11.70717 1.84709,3.27561 3.83804,6.39917 5.98055,9.41431 L 57.520738,332.8931 131.98535,282.27914 c 1.24367,0.90012 2.50286,1.82523 3.78154,2.66997 -6.45554,14.33042 -7.70935,27.84621 -5.22966,40.66507 3.50536,18.12131 -0.31606,33.4428 -9.89094,49.50781 16.91943,-10.02872 24.20999,-24.9911 28.07677,-42.02755 2.99611,-13.20017 8.2536,-25.13179 17.70263,-34.2373 3.56771,0.99361 7.15419,1.80769 10.81755,2.43118 l 17.96333,88.58357 16.90212,-88.38386 c 1.52061,-0.24289 3.03675,-0.5356 4.55481,-0.84612 5.55935,14.70641 14.15064,25.15647 24.96834,32.46735 15.29235,10.33498 23.49134,23.82472 28.08065,41.95481 4.8724,-19.05519 -0.56168,-34.71548 -9.87398,-49.49625 -7.21495,-11.45195 -11.8934,-23.59536 -11.64374,-36.72314 3.25417,-1.83772 6.35405,-3.82477 9.35087,-5.95426 l 75.32115,49.96073 -50.5505,-74.49092 c 0.88821,-1.22858 1.77239,-2.49258 2.60658,-3.75527 14.33447,6.4742 27.83963,7.7106 40.66504,5.22967 18.12124,-3.50552 33.44273,0.3162 49.50777,9.89095 -10.02881,-16.9194 -24.96486,-24.14651 -42.00126,-28.01333 -13.1853,-2.99271 -25.10336,-8.35144 -34.20009,-17.79237 0.98835,-3.55441 1.74665,-7.14197 2.36772,-10.79126 l 88.60983,-17.89987 -88.41012,-16.96558 c -0.24291,-1.5206 -0.53564,-3.03673 -0.84614,-4.55481 14.71551,-5.55738 25.15375,-14.14668 32.46733,-24.96832 10.33498,-15.29234 23.851,-23.4279 41.9811,-28.01719 -17.51436,-4.91384 -34.33951,0.96285 -49.52254,9.8105 -11.45183,7.21496 -23.59528,11.89343 -36.72307,11.64375 -1.83777,-3.25416 -3.82482,-6.35404 -5.95429,-9.35085 l 49.98699,-75.25775 -74.51718,50.48707 c -1.2286,-0.8882 -2.49256,-1.77236 -3.75525,-2.60655 6.4655,-14.32627 7.73561,-27.78279 5.2559,-40.60162 -3.50542,-18.1213 0.28989,-33.50614 9.8647,-49.57122 -16.91939,10.02883 -24.14653,24.96487 -28.01334,42.00124 -2.99946,13.21496 -8.34866,25.18536 -17.8295,34.28984 -3.54355,-0.98412 -7.11638,-1.83833 -10.75411,-2.45745 L 195.20244,0.5 178.23686,88.91009 c -1.52058,0.24292 -3.03671,0.53563 -4.55477,0.84615 C 168.12056,75.05033 159.53558,64.60262 148.71373,57.28892 133.4214,46.9539 125.28586,33.43796 120.69654,15.30778 z"
       id="path2140"
       style="fill:#eac102;fill-opacity:1;fill-rule:nonzero;stroke:#000000;stroke-width:0.87162971;stroke-linecap:butt;stroke-linejoin:miter;stroke-miterlimit:4;stroke-opacity:1;stroke-dasharray:none;stroke-dashoffset:0;marker:none;visibility:visible;display:inline;overflow:visible"
       sodipodi:nodetypes="cscccccscscccccscscccccscscccccscscccccscscccccscccccccscscccccsc" />
    <g
       transform="matrix(1,0,0,1.1367724,-79.348216,-593.42933)"
       id="g3562">
      <path
         d="m 243.30305,745.93504 c 17.38273,0.29573 19.73297,2.95594 31.66174,2.95594 12.0651,0 14.58386,-2.94264 30.80048,-3.32238"
         id="path2786"
         style="fill:none;stroke:#000000;stroke-width:0.81751412px;stroke-linecap:butt;stroke-linejoin:miter;stroke-opacity:1"
         sodipodi:nodetypes="csc" />
      <path
         d="m 307.76028,745.23575 c -17.27145,3.37669 -12.60969,10.32914 -33.06932,10.32914 -20.45787,0 -15.61839,-6.44351 -33.51928,-10.05642 9.48206,0.54966 24.70078,-9.08256 34.13799,-2.03197 10.48044,-6.99946 21.59992,1.94247 32.58697,1.75925"
         id="path2788"
         style="fill:none;stroke:#000000;stroke-width:0.81751412px;stroke-linecap:butt;stroke-linejoin:miter;stroke-opacity:1"
         sodipodi:nodetypes="csccc" />
    </g>
    <g
       transform="translate(-79.792573,-482.31405)"
       id="g3556"
       style="stroke:#000000;stroke-width:0.87162971;stroke-opacity:1">
      <path
         d="m 223.70614,642.64163 c 20.31765,-15.84352 41.64718,-19.70232 67.52789,-0.32097 6.94832,20.7387 7.59886,39.61307 -1.5204,47.84606"
         transform="translate(-27.500153,8.9406967e-8)"
         id="path3552"
         style="fill:none;stroke:#000000;stroke-width:0.87162971px;stroke-linecap:butt;stroke-linejoin:miter;stroke-opacity:1"
         sodipodi:nodetypes="ccc" />
      <path
         d="m 353.75104,642.64163 c -20.31765,-15.84352 -41.64718,-19.70232 -67.52789,-0.32097 -8.56588,20.7387 -7.59886,39.61307 1.5204,47.84606"
         id="path3554"
         style="fill:none;stroke:#000000;stroke-width:0.87162971px;stroke-linecap:butt;stroke-linejoin:miter;stroke-opacity:1"
         sodipodi:nodetypes="ccc" />
    </g>
    <g
       transform="translate(-80.419666,-482.31405)"
       id="g3574"
       style="stroke:#000000;stroke-width:0.87162971;stroke-opacity:1">
      <path
         d="m 202.22211,657.5366 c 9.91027,-10.90345 16.86965,-13.87113 28.39622,-14.6767 16.38347,-1.14501 20.45228,10.28809 30.31058,12.44329"
         id="path3570"
         style="fill:none;stroke:#000000;stroke-width:0.87162971px;stroke-linecap:butt;stroke-linejoin:miter;stroke-opacity:1" />
      <path
         d="m 348.98911,657.5366 c -9.91027,-10.90345 -16.86965,-13.87113 -28.39622,-14.6767 -16.38347,-1.14501 -20.45228,10.28809 -30.31058,12.44329"
         id="path3572"
         style="fill:none;stroke:#000000;stroke-width:0.87162971px;stroke-linecap:butt;stroke-linejoin:miter;stroke-opacity:1" />
    </g>
    <g
       transform="translate(-79.941075,-482.31405)"
       id="g3582"
       style="stroke:#000000;stroke-width:0.87162971;stroke-opacity:1">
      <path
         d="m 285.55753,661.68436 c -16.59105,12.13281 -33.18211,11.02197 -49.77316,1.91436"
         transform="translate(-27.500153,8.9406967e-8)"
         id="path3578"
         style="fill:none;stroke:#000000;stroke-width:0.87162971px;stroke-linecap:butt;stroke-linejoin:miter;stroke-opacity:1" />
      <path
         d="m 292.19666,661.68436 c 16.59105,12.13281 33.18211,11.02197 49.77316,1.91436"
         id="path3580"
         style="fill:none;stroke:#000000;stroke-width:0.87162971px;stroke-linecap:butt;stroke-linejoin:miter;stroke-opacity:1" />
    </g>
    <g
       transform="translate(-79.781541,-482.31405)"
       id="g3606"
       style="fill:none;stroke:#000000;stroke-width:0.87162971;stroke-opacity:1">
      <g
         id="g3596"
         style="fill:none;stroke:#000000;stroke-width:0.87162971;stroke-opacity:1">
        <path
           d="m 235.78437,658.17472 c 15.74609,-11.89893 30.93804,-14.93162 44.98728,0.31906 -7.03823,6.31188 -25.86519,11.57682 -44.98728,-0.31906 z"
           transform="translate(-27.500153,8.9406967e-8)"
           id="path3592"
           style="fill:none;stroke:#000000;stroke-width:0.87162971px;stroke-linecap:butt;stroke-linejoin:miter;stroke-opacity:1" />
        <path
           d="m 275.98576,664.87494 c 0.005,7.7579 -5.06736,14.05038 -11.32658,14.05038 -6.25922,0 -11.33184,-6.29248 -11.32658,-14.05038 -0.005,-7.7579 5.06736,-14.05038 11.32658,-14.05038 6.25922,0 11.33184,6.29248 11.32658,14.05038 z"
           transform="matrix(0.7504469,0,0,0.6054742,33.805424,254.12933)"
           id="path3594"
           style="fill:#000000;fill-opacity:1;stroke:#000000;stroke-width:1.2930764;stroke-linecap:square;stroke-linejoin:round;stroke-miterlimit:4;stroke-opacity:1;stroke-dasharray:none" />
      </g>
      <g
         transform="matrix(-1,0,0,1,549.93497,0)"
         id="g3600"
         style="fill:none;stroke:#000000;stroke-width:0.87162971;stroke-opacity:1">
        <path
           d="m 235.78437,658.17472 c 15.74609,-11.89893 30.93804,-14.93162 44.98728,0.31906 -7.03823,6.31188 -25.86519,11.57682 -44.98728,-0.31906 z"
           transform="translate(-27.500153,8.9406967e-8)"
           id="path3602"
           style="fill:none;stroke:#000000;stroke-width:0.87162971px;stroke-linecap:butt;stroke-linejoin:miter;stroke-opacity:1" />
        <path
           d="m 275.98576,664.87494 c 0.005,7.7579 -5.06736,14.05038 -11.32658,14.05038 -6.25922,0 -11.33184,-6.29248 -11.32658,-14.05038 -0.005,-7.7579 5.06736,-14.05038 11.32658,-14.05038 6.25922,0 11.33184,6.29248 11.32658,14.05038 z"
           transform="matrix(0.7504469,0,0,0.6054742,33.805424,254.12933)"
           id="path3604"
           style="fill:#000000;fill-opacity:1;stroke:#000000;stroke-width:1.2930764;stroke-linecap:square;stroke-linejoin:round;stroke-miterlimit:4;stroke-opacity:1;stroke-dasharray:none" />
      </g>
    </g>
    <path
       sodipodi:nodetypes="czc"
       id="path2943"
       d="m 177.68583,224.31469 c 12.86782,-1.15988 9.53399,5.12173 17.50011,5.05214 7.96612,-0.0696 7.09767,-6.3744 17.50011,-5.05214"
       style="fill:none;stroke:#000000;stroke-width:0.87162971px;stroke-linecap:butt;stroke-linejoin:miter;stroke-opacity:1" />
    <g
       transform="translate(-0.3356564,-4)"
       id="g2949">
      <path
         d="m 214.37638,216.98759 c 10.2333,7.96466 0.95367,17.26826 -6.109,15.78408"
         id="path3562"
         style="fill:none;stroke:#000000;stroke-width:0.87162971px;stroke-linecap:butt;stroke-linejoin:miter;stroke-opacity:1"
         sodipodi:nodetypes="cs" />
      <path
         sodipodi:nodetypes="cs"
         style="fill:none;stroke:#000000;stroke-width:0.87162971px;stroke-linecap:butt;stroke-linejoin:miter;stroke-opacity:1"
         id="path2947"
         d="m 176.66682,216.98759 c -10.2333,7.96466 -0.95367,17.26826 6.109,15.78408" />
    </g>
  </g>
</svg>
