<?xml version="1.0" encoding="utf-8"?><!DOCTYPE svg PUBLIC "-//W3C//DTD SVG 1.1//EN" "http://www.w3.org/Graphics/SVG/1.1/DTD/svg11.dtd"><svg viewBox="0 0 600 600" xmlns="http://www.w3.org/2000/svg"><g stroke="#000" stroke-linecap="round" stroke-linejoin="round"><path d="m.5 300 299.5 299.5 299.5-299.5-299.5-299.5z" fill="#eac102"/><path d="m429.4141 129.9141 51.7649 51.7656v236.6406l-51.7649 51.7656z" fill="#ed1c24"/><path d="m325.8828 26.3828 51.7656 51.7656v443.7031l-51.7656 51.7656z" fill="#ed1c24"/><path d="m274.1172 26.3828-51.7656 51.7656v443.7031l51.7656 51.7656z" fill="#ed1c24"/><path d="m170.5859 129.9141-51.7649 51.7656v236.6406l51.7649 51.7656z" fill="#ed1c24"/><path d="m.5 300 66.555 66.556h465.89l66.555-66.556-66.555-66.556h-465.89z" fill="#0071bc"/></g><g stroke="#000" stroke-linecap="round" stroke-linejoin="round"><path d="m237.9099 288.9734c-2.1301 1.7993-6.1819 9.3164-7.0956 12.4862-.5459 1.8935-1.1426 4.295-4.4995 4.4254-13.258.5153-30.1391 1.0276-38.5557 2.0063-6.2983.7323-27.695 14.8395-32.4189 15.8036-4.6377.9466-7.2216 4.708-7.2216 7.4317 0 2.2633 1.8546 3.8055 5.8485 2.4345.8052 2.4832 6.45-.923 8.3613-5.2602 1.6379-3.7168 21.7471-11.2562 25.9619-11.4009 5.3718-.1844 17.8889 5.1047 32.194 5.79 5.3025.2541 15.3602-.8821 17.1413-1.5518 3.5543-1.3364 14.408-9.9957 19.2991-17.01" fill="#e5e5e5"/><path d="m153.9671 333.5611c-1.5217-4.1565 1.5784-5.5215 5.6599-8.1716" fill="none"/><path d="m355.1814 287.7613c3.0296 8.4548 6.2651 17.5082 10.4294 19.0255 7.7555 2.8258 20.6668 6.5281 22.4964 7.9205 2.1571 1.6416 11.7079 12.8267 19.7293 21.3655 2.2906 2.4383 8.4215 2.2509 10.482 4.9147 1.6616 2.148 4.3497 4.8155 2.3824 5.791 1.3745 4.6038 0 6.0551-2.2702 6.0551-2.9495 0-7.0564-2.3692-9.1004-3.8554-4.1134-2.9909-7.7878-9.6856-11.1834-13.5766-4.6217-5.2961-12.8319-11.9468-14.7068-12.8188-5.6489-2.627-21.9472-3.0055-28.0009-4.915-9.2934-2.9315-29.2338-17.165-29.4642-24.4106" fill="#e5e5e5"/><path d="m420.7009 346.7784c-3.2419 1.355-4.5182 2.32-8.283-3.0695" fill="none"/><path d="m347.7008 273.9358c21.1082-3.4073 46.6535 7.3073 76.5187 4.4276 6.564-.6329 23.5447-3.8673 23.5447-16.323 0-6.2105-5.5312-11.4753-11.0165-11.2856-8.9872.3108-10.0032 7.6125-12.0254 7.1994-2.0542-.4197 3.3709-10.7875 12.0254-10.7875 8.7245 0 15.1337 6.3751 15.1337 14.8738 0 11.6619-7.8979 18.4645-26.622 21.0139-28.1624 3.8344-51.5452-4.2414-61.0394-3.0696" fill="#e5e5e5"/><path d="m189.9822 255.056c5.6013-9.3138 9.5867-6.6005 11.9409-7.0632 1.8114-.3561 4.1546-.8263 6.2136-.8263 1.767 0 3.2379.3234 3.7574 1.3758 1.1415 2.3124-3.7922 2.7603-7.1371 5.7196-1.8189 1.6092-5.1677 3.6305-6.7892 3.5767" fill="#e5e5e5"/><path d="m333.693 298.6945c5.065 2.2195 2.0197 5.9931 6.4173 5.9931 2.0208 0 4.4058-.7561 17.2386-.2455l-3.3122-8.6997" fill="#e5e5e5" fill-rule="evenodd"/><path d="m394.9427 308.6482c7.8374 2.5543 20.8544 5.8052 22.7254 7.1332 2.2059 1.5656 12.0919 12.4124 20.3688 20.6675 2.3636 2.3573 8.4856 1.9566 10.626 4.5472 1.255 1.5189 3.2186 3.3882 3.2186 4.5498 0 .475-.1329.8704-.6614 1.1553.4769 1.4345.6614 2.5673.6614 3.449 0 1.9986-1.2149 2.6834-2.9067 2.6834-2.7447 0-7.0242-2.1643-9.0524-3.5381-4.2021-2.8464-8.0783-9.4094-11.5905-13.1802-4.7804-5.1325-14.7218-12.0438-15.089-12.3001-.431-.3008-11.972-3.6264-28.1354-3.9377-14.2256-.2741-35.1314-13.0088-41.7532-19.7737-25.8852-1.4658-42.8387 26.5307-76.8078 26.5307-14.1953 0-33.4959-9.8135-40.7575-20.3422-12.0313-17.4443-22.8172-20.9632-28.5708-29.0454-6.2486 1.2668-14.564-2.2338-23.1801-.1842-5.7741 1.3736-4.6499-.4912-5.5123-.9835-2.6928.4154-12.1354-.2033-10.9995-2.9136l-.408-3.906c6.8375-2.8956 9.1242-6.0731 15.9954-8.1678 1.6804-.5122 5.1745-1.4495 5.6236-3.4481.3452-1.536 1.4507-2.704 2.9607-3.323 5.5435-2.2721 10.8738-2.2144 15.1604-1.5173 5.5627.9048 9.4095 4.2671 10.5753 5.5798 10.0434 11.3092 21.8252 19.8237 33.3007 18.5573 19.0633-2.1038 30.6511 5.5005 43.0478 4.5797 22.0464-1.6375 31.9286-10.349 48.9488-10.349 17.1331 0 26.5308 3.8914 33.8053 8.3477 5.8674 3.5944 20.7737 26.6415 28.4063 29.1292z" fill="#e5e5e5"/><path d="m231.5905 302.6893c-1.9917 1.951-5.4785 9.7455-6.156 12.9739-.4048 1.9285-.8228 4.3672-4.161 4.7441-13.1841 1.4883-26.9982 1.9956-35.3199 3.5912-6.2271 1.194-26.526 16.8347-31.1659 18.1435-4.4059 1.2428-6.669 4.9715-6.669 7.6714 0 1.6708.9589 3.0203 2.8948 3.0203.8539 0 1.8971-.223 3.132-.7513.2052.503.6004.7513 1.1124.7513 2.2712 0 5.5823-3.0751 6.8386-6.6117 1.3595-3.8271 20.8583-12.824 25.051-13.2782 5.3436-.5787 18.2167 3.776 32.5335 3.4082 5.3069-.1364 15.2535-2.0087 16.9805-2.8075 3.4461-1.594 13.632-11.0275 17.9929-18.3823" fill="#e5e5e5"/><path d="m154.1454 352.0822c-1.8239-4.0334 1.1672-5.6226 5.0422-8.5654" fill="none"/><path d="m451.22 346.7011c-3.199 1.4671-4.4451 2.4761-8.372-2.7796" fill="none"/><path d="m197.2181 277.2468c3.76-.8845 7.1367-2.4646 7.8324-4.678" fill="none"/><path d="m157.1183 269.2596c.7097-.216 2.2617.165 4.4525 1.0073.0746 2.4685-3.5797 1.502-4.0445 2.8987-.9648-1.4804-1.7946-2.0397-1.7946-2.8913 0-.4148.3659-.7039 1.3867-1.0146z" fill-rule="evenodd"/><path d="m168.5257 276.0791c5.7219-1.0865 7.542-4.706 13.9398-4.1109" fill="none"/><path d="m181.6896 262.7769c.1628.2018.6777-2.6199-.595-3.1243 1.8722-.7651 2.9614-.7483 6.2303 1.0018-2.7166 1.4004-3.163 2.0192-5.6354 2.1225z" fill="#e5e5e5"/><path d="m183.4163 260.7845c.1386.8025-.1483 1.5344-.6407 1.6346-.4926.1004-1.0041-.4688-1.1426-1.2712-.1386-.8025.1483-1.5343.6407-1.6346.4925-.1004 1.0041.4687 1.1426 1.2711z"/><path d="m197.9962 254.0637c.6209-5.9539 8.7347-4.7509 11.3524-5.4329 2.4315-.6334 5.9318-1.4635 8.2835-1.4635 1.3789 0 2.4796.3125 2.985 1.0772 1.453 2.1985-4.0705 3.1073-7.6228 6.371-1.9317 1.7748-5.5564 4.1038-7.3863 4.2021" fill="#e5e5e5"/><path d="m265.8921 301.5389c.6924 8.0204-.2512 15.2375-4.9306 20.6203" fill="none"/><path d="m274.3201 301.6956c.5399 8.0337-.5407 15.2288-5.3214 20.5089" fill="none"/><path d="m283.1687 300.8018c.6403 8.0254-.3502 15.2353-5.0645 20.5832" fill="none"/><path d="m343.3542 300.1037c-1.8222-1.9351-4.7277-5.7515-5.5483-7.6866" fill="none"/></g><path d="m1.5 300 298.5 298.5 298.5-298.5-298.5-298.5z" fill="none" stroke="#000" stroke-linecap="round" stroke-linejoin="round" stroke-width="3"/></svg>