<?xml version="1.0" encoding="utf-8"?><!DOCTYPE svg PUBLIC "-//W3C//DTD SVG 1.1//EN" "http://www.w3.org/Graphics/SVG/1.1/DTD/svg11.dtd"><svg viewBox="0 0 550 1000" xmlns="http://www.w3.org/2000/svg"><g stroke="#000" stroke-linecap="round" stroke-linejoin="round"><path d="m448.8071 353c0 7.0122-38.1058 21.2714-173.8071 21.2714s-173.8071-14.2592-173.8071-21.2714 38.1058-21.2715 173.8071-21.2715 173.8071 14.2593 173.8071 21.2715z" fill="#ed1c24"/><g fill="none"><path d="m122.422 343.829v18.341" stroke-width="5.5"/><path d="m128.859 342.34v21.319" stroke-width="5.25"/><path d="m135.296 341.363v23.273" stroke-width="5"/><path d="m141.733 340.154v25.692" stroke-width="4.75"/><path d="m148.171 339.084v27.832" stroke-width="4.5"/><path d="m154.608 338.153v29.693" stroke-width="4.25"/><path d="m161.045 337.223v31.553" stroke-width="4"/><path d="m167.482 336.432v33.135" stroke-width="3.75"/><path d="m173.92 335.92v34.159" stroke-width="3.5"/><path d="m180.357 335.316v35.368" stroke-width="3.25"/><path d="m186.794 334.385v37.229" stroke-width="3"/><path d="m193.232 333.873v38.253" stroke-width="2.75"/><path d="m199.669 333.641v38.718" stroke-width="2.5"/><path d="m206.106 333.082v39.834" stroke-width="2.25"/><path d="m212.543 332.617v40.765" stroke-width="2"/><path d="m218.981 332.338v41.323" stroke-width="1.75"/><path d="m225.418 331.92v42.16" stroke-width="1.5"/><path d="m231.855 331.64v42.719" stroke-width="1.25"/><path d="m238.292 330.803v44.394"/><path d="m244.73 330.803v44.394" stroke-width=".75"/><path d="m251.167 330.803v44.394" stroke-width=".5"/><path d="m257.604 330.803v44.394" stroke-width=".25"/><path d="m109.547 348.248v9.502" stroke-width="6"/><path d="m115.984 345.876v14.248" stroke-width="5.75"/><path d="m427.579 343.829v18.341" stroke-width="5.5"/><path d="m421.142 342.34v21.319" stroke-width="5.25"/><path d="m414.704 341.363v23.273" stroke-width="5"/><path d="m408.267 340.154v25.692" stroke-width="4.75"/><path d="m401.83 339.084v27.832" stroke-width="4.5"/><path d="m395.393 338.153v29.693" stroke-width="4.25"/><path d="m388.955 337.223v31.553" stroke-width="4"/><path d="m382.518 336.432v33.135" stroke-width="3.75"/><path d="m376.081 335.92v34.159" stroke-width="3.5"/><path d="m369.643 335.316v35.368" stroke-width="3.25"/><path d="m363.206 334.385v37.229" stroke-width="3"/><path d="m356.769 333.873v38.253" stroke-width="2.75"/><path d="m350.332 333.641v38.718" stroke-width="2.5"/><path d="m343.894 333.082v39.834" stroke-width="2.25"/><path d="m337.457 332.617v40.765" stroke-width="2"/><path d="m331.02 332.338v41.323" stroke-width="1.75"/><path d="m324.583 331.92v42.16" stroke-width="1.5"/><path d="m318.145 331.64v42.719" stroke-width="1.25"/><path d="m311.708 330.803v44.394"/><path d="m305.271 330.803v44.394" stroke-width=".75"/><path d="m298.834 330.803v44.394" stroke-width=".5"/><path d="m292.396 330.803v44.394" stroke-width=".25"/><path d="m440.453 348.248v9.502" stroke-width="6"/><path d="m434.016 345.876v14.248" stroke-width="5.75"/></g><g><path d="m528.3662 209.2388-50.536 74.1847-46.9073 30.9858-155.9229-11.745-155.9229 11.745-46.9074-30.9858-50.536-74.1847c16.7216-26.9465 57.8206-48.7939 105.2698-46.7128 49.7765 2.1831 74.6185-24.0255 148.0965-24.0255 73.4779 0 98.32 26.2086 148.0964 24.0255 47.4492-2.0811 88.5482 19.7663 105.2698 46.7128z" fill="#ed1c24"/><path d="m511.8256 210.012 14.8362-37.0388-19.4107-41.7457c34.5966 28.1238 37.7896 59.493 16.5004 95.3926z" fill="#eac102"/><path d="m320.176 101.7599c0 4.363 3.537 7.9 7.9 7.9s7.9-3.537 7.9-7.9c0-4.3631-3.537-7.9-7.9-7.9s-7.9 3.5369-7.9 7.9z" fill="#e5e5e5" fill-rule="evenodd"/><path d="m284.62 97.8108c32.416 9.9067 67.7551 21.0545 99.77 16.2838 63.6159-9.4797 101.981.1871 122.8611 17.1329 28.0226 22.7426 24.5544 58.5613 8.3899 78.4713l8.1105 16.9212-7.6257 2.4534-9.7328-19.8185c32.728-34.8265 17.7717-108.4102-120.838-87.7334-33.376 4.9787-70.105-6.3944-103.326-16.5473z" fill="#eac102"/><path d="m515.641 209.6989-9.248-.4439" fill="none"/><path d="m397.676 103.6853c0 4.363 3.537 7.9 7.9 7.9s7.9-3.537 7.9-7.9c0-4.3631-3.537-7.9-7.9-7.9s-7.9 3.5369-7.9 7.9z" fill="#e5e5e5" fill-rule="evenodd"/><path d="m378.426 105.9654c0 4.363 3.537 7.9 7.9 7.9s7.9-3.537 7.9-7.9c0-4.3631-3.537-7.9-7.9-7.9s-7.9 3.5369-7.9 7.9z" fill="#e5e5e5" fill-rule="evenodd"/><path d="m301.176 96.8957c0 4.363 3.537 7.9 7.9 7.9s7.9-3.537 7.9-7.9c0-4.3631-3.537-7.9-7.9-7.9s-7.9 3.5369-7.9 7.9z" fill="#e5e5e5" fill-rule="evenodd"/><path d="m522.6301 215.5151c0 4.3631 3.537 7.9 7.9 7.9s7.9-3.5369 7.9-7.9-3.537-7.9-7.9-7.9-7.9 3.5369-7.9 7.9z" fill="#e5e5e5" fill-rule="evenodd"/><path d="m530.1286 197.6768c0 4.3631 3.537 7.9 7.9 7.9s7.9-3.5369 7.9-7.9-3.537-7.9-7.9-7.9-7.9 3.5369-7.9 7.9z" fill="#e5e5e5" fill-rule="evenodd"/><path d="m533.7 179.0298c0 4.3631 3.537 7.9 7.9 7.9s7.9-3.5369 7.9-7.9-3.537-7.9-7.9-7.9-7.9 3.5369-7.9 7.9z" fill="#e5e5e5" fill-rule="evenodd"/><path d="m530.4256 160.2819c0 4.3631 3.537 7.9 7.9 7.9s7.9-3.5369 7.9-7.9-3.537-7.9-7.9-7.9-7.9 3.5369-7.9 7.9z" fill="#e5e5e5" fill-rule="evenodd"/><path d="m520.9255 143.5614c0 4.363 3.537 7.9 7.9 7.9s7.9-3.537 7.9-7.9c0-4.3631-3.537-7.9-7.9-7.9s-7.9 3.5369-7.9 7.9z" fill="#e5e5e5" fill-rule="evenodd"/><path d="m508.4255 128.6142c0 4.363 3.537 7.9 7.9 7.9s7.9-3.537 7.9-7.9c0-4.3631-3.537-7.9-7.9-7.9s-7.9 3.5369-7.9 7.9z" fill="#e5e5e5" fill-rule="evenodd"/><path d="m492.9255 117.4671c0 4.363 3.537 7.9 7.9 7.9s7.9-3.537 7.9-7.9c0-4.3631-3.537-7.9-7.9-7.9s-7.9 3.5369-7.9 7.9z" fill="#e5e5e5" fill-rule="evenodd"/><path d="m475.1755 109.3602c0 4.363 3.537 7.9 7.9 7.9s7.9-3.537 7.9-7.9c0-4.3631-3.537-7.9-7.9-7.9s-7.9 3.5369-7.9 7.9z" fill="#e5e5e5" fill-rule="evenodd"/><path d="m456.1757 104.8c0 4.363 3.537 7.9 7.9 7.9s7.9-3.537 7.9-7.9c0-4.3631-3.537-7.9-7.9-7.9s-7.9 3.5369-7.9 7.9z" fill="#e5e5e5" fill-rule="evenodd"/><path d="m436.676 102.7733c0 4.363 3.537 7.9 7.9 7.9s7.9-3.537 7.9-7.9c0-4.3631-3.537-7.9-7.9-7.9s-7.9 3.5369-7.9 7.9z" fill="#e5e5e5" fill-rule="evenodd"/><path d="m417.176 102.5199c0 4.363 3.537 7.9 7.9 7.9s7.9-3.537 7.9-7.9c0-4.3631-3.537-7.9-7.9-7.9s-7.9 3.5369-7.9 7.9z" fill="#e5e5e5" fill-rule="evenodd"/><path d="m358.926 107.3334c0 4.363 3.537 7.9 7.9 7.9s7.9-3.537 7.9-7.9c0-4.3631-3.537-7.9-7.9-7.9s-7.9 3.5369-7.9 7.9z" fill="#e5e5e5" fill-rule="evenodd"/><path d="m339.426 105.56c0 4.363 3.537 7.9 7.9 7.9s7.9-3.537 7.9-7.9c0-4.3631-3.537-7.9-7.9-7.9s-7.9 3.5369-7.9 7.9z" fill="#e5e5e5" fill-rule="evenodd"/><path d="m408.3868 202.8059-14.4112-18.7074 16.443-41.7405-8.3272-32.7136-42.073-25.2277c91.8894 13.3007 65.4057 75.463 65.7776 106.4466z" fill="#eac102"/><path d="m393.9755 184.0985 14.4112 18.7074-7.2401 1.1725-15.274-19.9907c37.5392-41.9535 16.695-85.7168-27.063-91.0026-31.409-3.7941-51.936 13.8578-83.81 10.6525v-8.5903c24.666 3.6836 57.2934-14.5843 85.0185-10.6305 58.73 8.3753 65.2022 63.3784 33.9574 99.6817z" fill="#eac102"/><path d="m393.9755 184.0985-8.1028-.1109" fill="none"/><path d="m276.8498 87.5168c0 4.363 3.537 7.9 7.9 7.9s7.9-3.537 7.9-7.9c0-4.3631-3.537-7.9-7.9-7.9s-7.9 3.5369-7.9 7.9z" fill="#e5e5e5" fill-rule="evenodd"/><path d="m286.5063 86.7001c0 4.363 3.537 7.9 7.9 7.9s7.9-3.537 7.9-7.9c0-4.3631-3.537-7.9-7.9-7.9s-7.9 3.5369-7.9 7.9z" fill="#e5e5e5" fill-rule="evenodd"/><path d="m294.5698 84.9378c0 4.363 3.537 7.9 7.9 7.9s7.9-3.537 7.9-7.9c0-4.3631-3.537-7.9-7.9-7.9s-7.9 3.5369-7.9 7.9z" fill="#e5e5e5" fill-rule="evenodd"/><path d="m302.6618 82.6821c0 4.363 3.537 7.9 7.9 7.9s7.9-3.537 7.9-7.9c0-4.3631-3.537-7.9-7.9-7.9s-7.9 3.5369-7.9 7.9z" fill="#e5e5e5" fill-rule="evenodd"/><path d="m403.6597 185.5969c0 4.363 3.537 7.9 7.9 7.9s7.9-3.537 7.9-7.9c0-4.3631-3.537-7.9-7.9-7.9s-7.9 3.5369-7.9 7.9z" fill="#e5e5e5" fill-rule="evenodd"/><path d="m411.3848 167.3279c0 4.363 3.537 7.9 7.9 7.9s7.9-3.537 7.9-7.9c0-4.3631-3.537-7.9-7.9-7.9s-7.9 3.5369-7.9 7.9z" fill="#e5e5e5" fill-rule="evenodd"/><path d="m415.6028 148.1752c0 4.363 3.537 7.9 7.9 7.9s7.9-3.537 7.9-7.9c0-4.3631-3.537-7.9-7.9-7.9s-7.9 3.5369-7.9 7.9z" fill="#e5e5e5" fill-rule="evenodd"/><path d="m415.0268 129.1979c0 4.363 3.537 7.9 7.9 7.9s7.9-3.537 7.9-7.9c0-4.3631-3.537-7.9-7.9-7.9s-7.9 3.5369-7.9 7.9z" fill="#e5e5e5" fill-rule="evenodd"/><path d="m311.0863 80.7739c0 4.363 3.537 7.9 7.9 7.9s7.9-3.537 7.9-7.9c0-4.3631-3.537-7.9-7.9-7.9s-7.9 3.5369-7.9 7.9z" fill="#e5e5e5" fill-rule="evenodd"/><path d="m319.7868 78.8081c0 4.363 3.537 7.9 7.9 7.9s7.9-3.537 7.9-7.9c0-4.3631-3.537-7.9-7.9-7.9s-7.9 3.5369-7.9 7.9z" fill="#e5e5e5" fill-rule="evenodd"/><path d="m329.0188 77.2376c0 4.363 3.537 7.9 7.9 7.9s7.9-3.537 7.9-7.9c0-4.3631-3.537-7.9-7.9-7.9s-7.9 3.5369-7.9 7.9z" fill="#e5e5e5" fill-rule="evenodd"/><path d="m338.4842 76.1452c0 4.363 3.537 7.9 7.9 7.9s7.9-3.537 7.9-7.9c0-4.3631-3.537-7.9-7.9-7.9s-7.9 3.5369-7.9 7.9z" fill="#e5e5e5" fill-rule="evenodd"/><path d="m349.1798 76.1766c0 4.363 3.537 7.9 7.9 7.9s7.9-3.537 7.9-7.9c0-4.3631-3.537-7.9-7.9-7.9s-7.9 3.5369-7.9 7.9z" fill="#e5e5e5" fill-rule="evenodd"/><path d="m361.1148 78.0827c0 4.363 3.537 7.9 7.9 7.9s7.9-3.537 7.9-7.9c0-4.3631-3.537-7.9-7.9-7.9s-7.9 3.5369-7.9 7.9z" fill="#e5e5e5" fill-rule="evenodd"/><path d="m373.9278 81.7132c0 4.363 3.537 7.9 7.9 7.9s7.9-3.537 7.9-7.9c0-4.3631-3.537-7.9-7.9-7.9s-7.9 3.5369-7.9 7.9z" fill="#e5e5e5" fill-rule="evenodd"/><path d="m387.6538 87.8939c0 4.363 3.537 7.9 7.9 7.9s7.9-3.537 7.9-7.9c0-4.3631-3.537-7.9-7.9-7.9s-7.9 3.5369-7.9 7.9z" fill="#e5e5e5" fill-rule="evenodd"/><path d="m400.0347 98.3347c0 4.363 3.537 7.9 7.9 7.9s7.9-3.537 7.9-7.9c0-4.3631-3.537-7.9-7.9-7.9s-7.9 3.5369-7.9 7.9z" fill="#e5e5e5" fill-rule="evenodd"/><path d="m409.4453 112.4307c0 4.363 3.537 7.9 7.9 7.9s7.9-3.537 7.9-7.9c0-4.3631-3.537-7.9-7.9-7.9s-7.9 3.5369-7.9 7.9z" fill="#e5e5e5" fill-rule="evenodd"/><path d="m38.1744 210.012-14.8362-37.0388 19.4107-41.7457c-34.5966 28.1238-37.7896 59.493-16.5004 95.3926z" fill="#eac102"/><path d="m229.824 101.7599c0 4.363-3.537 7.9-7.9 7.9s-7.9-3.537-7.9-7.9c0-4.3631 3.537-7.9 7.9-7.9s7.9 3.5369 7.9 7.9z" fill="#e5e5e5" fill-rule="evenodd"/><path d="m265.38 97.8108c-32.416 9.9067-67.7551 21.0545-99.77 16.2838-63.6159-9.4797-101.981.1871-122.8611 17.1329-28.0226 22.7426-24.5544 58.5613-8.3899 78.4713l-8.1105 16.9212 7.6257 2.4534 9.7328-19.8185c-32.728-34.8265-17.7717-108.4102 120.838-87.7334 33.376 4.9787 70.105-6.3944 103.326-16.5473z" fill="#eac102"/><path d="m34.359 209.6989 9.248-.4439" fill="none"/><path d="m152.324 103.6853c0 4.363-3.537 7.9-7.9 7.9s-7.9-3.537-7.9-7.9c0-4.3631 3.537-7.9 7.9-7.9s7.9 3.5369 7.9 7.9z" fill="#e5e5e5" fill-rule="evenodd"/><path d="m171.574 105.9654c0 4.363-3.537 7.9-7.9 7.9s-7.9-3.537-7.9-7.9c0-4.3631 3.537-7.9 7.9-7.9s7.9 3.5369 7.9 7.9z" fill="#e5e5e5" fill-rule="evenodd"/><path d="m248.824 96.8957c0 4.363-3.537 7.9-7.9 7.9s-7.9-3.537-7.9-7.9c0-4.3631 3.537-7.9 7.9-7.9s7.9 3.5369 7.9 7.9z" fill="#e5e5e5" fill-rule="evenodd"/><path d="m27.3699 215.5151c0 4.3631-3.537 7.9-7.9 7.9s-7.9-3.5369-7.9-7.9 3.537-7.9 7.9-7.9 7.9 3.5369 7.9 7.9z" fill="#e5e5e5" fill-rule="evenodd"/><path d="m19.8714 197.6768c0 4.3631-3.537 7.9-7.9 7.9s-7.9-3.5369-7.9-7.9 3.537-7.9 7.9-7.9 7.9 3.5369 7.9 7.9z" fill="#e5e5e5" fill-rule="evenodd"/><path d="m16.3 179.0298c0 4.3631-3.537 7.9-7.9 7.9s-7.9-3.5369-7.9-7.9 3.537-7.9 7.9-7.9 7.9 3.5369 7.9 7.9z" fill="#e5e5e5" fill-rule="evenodd"/><path d="m19.5744 160.2819c0 4.3631-3.537 7.9-7.9 7.9s-7.9-3.5369-7.9-7.9 3.537-7.9 7.9-7.9 7.9 3.5369 7.9 7.9z" fill="#e5e5e5" fill-rule="evenodd"/><path d="m29.0745 143.5614c0 4.363-3.537 7.9-7.9 7.9s-7.9-3.537-7.9-7.9c0-4.3631 3.537-7.9 7.9-7.9s7.9 3.5369 7.9 7.9z" fill="#e5e5e5" fill-rule="evenodd"/><path d="m41.5745 128.6142c0 4.363-3.537 7.9-7.9 7.9s-7.9-3.537-7.9-7.9c0-4.3631 3.537-7.9 7.9-7.9s7.9 3.5369 7.9 7.9z" fill="#e5e5e5" fill-rule="evenodd"/><path d="m57.0745 117.4671c0 4.363-3.537 7.9-7.9 7.9s-7.9-3.537-7.9-7.9c0-4.3631 3.537-7.9 7.9-7.9s7.9 3.5369 7.9 7.9z" fill="#e5e5e5" fill-rule="evenodd"/><path d="m74.8245 109.3602c0 4.363-3.537 7.9-7.9 7.9s-7.9-3.537-7.9-7.9c0-4.3631 3.537-7.9 7.9-7.9s7.9 3.5369 7.9 7.9z" fill="#e5e5e5" fill-rule="evenodd"/><path d="m93.8243 104.8c0 4.363-3.537 7.9-7.9 7.9s-7.9-3.537-7.9-7.9c0-4.3631 3.537-7.9 7.9-7.9s7.9 3.5369 7.9 7.9z" fill="#e5e5e5" fill-rule="evenodd"/><path d="m113.324 102.7733c0 4.363-3.537 7.9-7.9 7.9s-7.9-3.537-7.9-7.9c0-4.3631 3.537-7.9 7.9-7.9s7.9 3.5369 7.9 7.9z" fill="#e5e5e5" fill-rule="evenodd"/><path d="m132.824 102.5199c0 4.363-3.537 7.9-7.9 7.9s-7.9-3.537-7.9-7.9c0-4.3631 3.537-7.9 7.9-7.9s7.9 3.5369 7.9 7.9z" fill="#e5e5e5" fill-rule="evenodd"/><path d="m191.074 107.3334c0 4.363-3.537 7.9-7.9 7.9s-7.9-3.537-7.9-7.9c0-4.3631 3.537-7.9 7.9-7.9s7.9 3.5369 7.9 7.9z" fill="#e5e5e5" fill-rule="evenodd"/><path d="m210.574 105.56c0 4.363-3.537 7.9-7.9 7.9s-7.9-3.537-7.9-7.9c0-4.3631 3.537-7.9 7.9-7.9s7.9 3.5369 7.9 7.9z" fill="#e5e5e5" fill-rule="evenodd"/><path d="m141.6133 202.8059 14.4112-18.7074-16.443-41.7405 8.3272-32.7136 42.073-25.2277c-91.8894 13.3007-65.4057 75.463-65.7776 106.4466z" fill="#eac102"/><path d="m156.0245 184.0985-14.4112 18.7074 7.2401 1.1725 15.274-19.9907c-37.5392-41.9535-16.695-85.7168 27.063-91.0026 31.409-3.7941 51.936 13.8578 83.81 10.6525v-8.5903c-24.666 3.6836-57.2934-14.5843-85.0185-10.6305-58.73 8.3753-65.2022 63.3784-33.9574 99.6817z" fill="#eac102"/><path d="m156.0245 184.0985 8.1028-.1109" fill="none"/><path d="m273.1502 87.5168c0 4.363-3.537 7.9-7.9 7.9s-7.9-3.537-7.9-7.9c0-4.3631 3.537-7.9 7.9-7.9s7.9 3.5369 7.9 7.9z" fill="#e5e5e5" fill-rule="evenodd"/><path d="m263.4938 86.7001c0 4.363-3.537 7.9-7.9 7.9s-7.9-3.537-7.9-7.9c0-4.3631 3.537-7.9 7.9-7.9s7.9 3.5369 7.9 7.9z" fill="#e5e5e5" fill-rule="evenodd"/><path d="m255.4303 84.9378c0 4.363-3.537 7.9-7.9 7.9s-7.9-3.537-7.9-7.9c0-4.3631 3.537-7.9 7.9-7.9s7.9 3.5369 7.9 7.9z" fill="#e5e5e5" fill-rule="evenodd"/><path d="m247.3382 82.6821c0 4.363-3.537 7.9-7.9 7.9s-7.9-3.537-7.9-7.9c0-4.3631 3.537-7.9 7.9-7.9s7.9 3.5369 7.9 7.9z" fill="#e5e5e5" fill-rule="evenodd"/><path d="m146.3403 185.5969c0 4.363-3.537 7.9-7.9 7.9s-7.9-3.537-7.9-7.9c0-4.3631 3.537-7.9 7.9-7.9s7.9 3.5369 7.9 7.9z" fill="#e5e5e5" fill-rule="evenodd"/><path d="m138.6153 167.3279c0 4.363-3.537 7.9-7.9 7.9s-7.9-3.537-7.9-7.9c0-4.3631 3.537-7.9 7.9-7.9s7.9 3.5369 7.9 7.9z" fill="#e5e5e5" fill-rule="evenodd"/><path d="m134.3972 148.1752c0 4.363-3.537 7.9-7.9 7.9s-7.9-3.537-7.9-7.9c0-4.3631 3.537-7.9 7.9-7.9s7.9 3.5369 7.9 7.9z" fill="#e5e5e5" fill-rule="evenodd"/><path d="m134.9732 129.1979c0 4.363-3.537 7.9-7.9 7.9s-7.9-3.537-7.9-7.9c0-4.3631 3.537-7.9 7.9-7.9s7.9 3.5369 7.9 7.9z" fill="#e5e5e5" fill-rule="evenodd"/><path d="m238.9137 80.7739c0 4.363-3.537 7.9-7.9 7.9s-7.9-3.537-7.9-7.9c0-4.3631 3.537-7.9 7.9-7.9s7.9 3.5369 7.9 7.9z" fill="#e5e5e5" fill-rule="evenodd"/><path d="m230.2132 78.8081c0 4.363-3.537 7.9-7.9 7.9s-7.9-3.537-7.9-7.9c0-4.3631 3.537-7.9 7.9-7.9s7.9 3.5369 7.9 7.9z" fill="#e5e5e5" fill-rule="evenodd"/><path d="m220.9812 77.2376c0 4.363-3.537 7.9-7.9 7.9s-7.9-3.537-7.9-7.9c0-4.3631 3.537-7.9 7.9-7.9s7.9 3.5369 7.9 7.9z" fill="#e5e5e5" fill-rule="evenodd"/><path d="m211.5158 76.1452c0 4.363-3.537 7.9-7.9 7.9s-7.9-3.537-7.9-7.9c0-4.3631 3.537-7.9 7.9-7.9s7.9 3.5369 7.9 7.9z" fill="#e5e5e5" fill-rule="evenodd"/><path d="m200.8202 76.1766c0 4.363-3.537 7.9-7.9 7.9s-7.9-3.537-7.9-7.9c0-4.3631 3.537-7.9 7.9-7.9s7.9 3.5369 7.9 7.9z" fill="#e5e5e5" fill-rule="evenodd"/><path d="m188.8852 78.0827c0 4.363-3.537 7.9-7.9 7.9s-7.9-3.537-7.9-7.9c0-4.3631 3.537-7.9 7.9-7.9s7.9 3.5369 7.9 7.9z" fill="#e5e5e5" fill-rule="evenodd"/><path d="m176.0723 81.7132c0 4.363-3.537 7.9-7.9 7.9s-7.9-3.537-7.9-7.9c0-4.3631 3.537-7.9 7.9-7.9s7.9 3.5369 7.9 7.9z" fill="#e5e5e5" fill-rule="evenodd"/><path d="m162.3463 87.8939c0 4.363-3.537 7.9-7.9 7.9s-7.9-3.537-7.9-7.9c0-4.3631 3.537-7.9 7.9-7.9s7.9 3.5369 7.9 7.9z" fill="#e5e5e5" fill-rule="evenodd"/><path d="m149.9653 98.3347c0 4.363-3.537 7.9-7.9 7.9s-7.9-3.537-7.9-7.9c0-4.3631 3.537-7.9 7.9-7.9s7.9 3.5369 7.9 7.9z" fill="#e5e5e5" fill-rule="evenodd"/><path d="m140.5547 112.4307c0 4.363-3.537 7.9-7.9 7.9s-7.9-3.537-7.9-7.9c0-4.3631 3.537-7.9 7.9-7.9s7.9 3.5369 7.9 7.9z" fill="#e5e5e5" fill-rule="evenodd"/><path d="m271.0505 46.5759v-26.8902h-12.191v-7.9764h12.191v-11.2093h7.8991v11.2093h12.191v7.9764h-12.191v26.8902z" fill="#eac102"/><path d="m296.75 58.6988c0 12.0122-9.7378 21.75-21.75 21.75s-21.75-9.7378-21.75-21.75c0-12.0123 9.7378-21.75 21.75-21.75s21.75 9.7378 21.75 21.75z" fill="#0071bc" fill-rule="evenodd"/><path d="m288.3606 90.93c6.0445 22.5757 2.666 64.7046 11.893 89.4744l-25.2536 26.3162-25.2536-26.3162c9.227-24.7698 5.8485-66.8987 11.893-89.4744 2.4425-9.1228 8.6686-13.4459 13.3606-13.4459s10.9181 4.3231 13.3606 13.4459z" fill="#eac102"/><path d="m294.5329 178.9472c-8.811-28.1332-4.5017-58.3255-10.2998-85.5344-1.0169-4.772-4.6871-10.8304-9.2331-10.8304s-8.2162 6.0584-9.2331 10.8304c-5.7981 27.209-1.4888 57.4013-10.2998 85.5344l19.5329 20.8065z" fill="none"/><path d="m249.7464 180.4044 5.7208-1.4572" fill="none"/><path d="m300.2536 180.4044-5.7208-1.4572" fill="none"/><path d="m282.9 73.1932c0 4.363-3.537 7.9-7.9 7.9s-7.9-3.537-7.9-7.9c0-4.3631 3.537-7.9 7.9-7.9s7.9 3.5369 7.9 7.9z" fill="#e5e5e5" fill-rule="evenodd"/><path d="m282.9 75.7489c0 4.363-3.537 7.9-7.9 7.9s-7.9-3.537-7.9-7.9c0-4.3631 3.537-7.9 7.9-7.9s7.9 3.5369 7.9 7.9z" fill="#e5e5e5" fill-rule="evenodd"/><path d="m282.9 79.5463c0 4.363-3.537 7.9-7.9 7.9s-7.9-3.537-7.9-7.9c0-4.3631 3.537-7.9 7.9-7.9s7.9 3.5369 7.9 7.9z" fill="#e5e5e5" fill-rule="evenodd"/><path d="m282.9 86.3931c0 4.363-3.537 7.9-7.9 7.9s-7.9-3.537-7.9-7.9c0-4.3631 3.537-7.9 7.9-7.9s7.9 3.5369 7.9 7.9z" fill="#e5e5e5" fill-rule="evenodd"/><path d="m282.9 179.5613c0 4.3631-3.537 7.9-7.9 7.9s-7.9-3.5369-7.9-7.9 3.537-7.9 7.9-7.9 7.9 3.5369 7.9 7.9z" fill="#e5e5e5" fill-rule="evenodd"/><path d="m282.9 162.0736c0 4.3631-3.537 7.9-7.9 7.9s-7.9-3.5369-7.9-7.9 3.537-7.9 7.9-7.9 7.9 3.5369 7.9 7.9z" fill="#e5e5e5" fill-rule="evenodd"/><path d="m282.9 143.6627c0 4.363-3.537 7.9-7.9 7.9s-7.9-3.537-7.9-7.9c0-4.3631 3.537-7.9 7.9-7.9s7.9 3.5369 7.9 7.9z" fill="#e5e5e5" fill-rule="evenodd"/><path d="m282.9 95.1193c0 4.363-3.537 7.9-7.9 7.9s-7.9-3.537-7.9-7.9c0-4.3631 3.537-7.9 7.9-7.9s7.9 3.5369 7.9 7.9z" fill="#e5e5e5" fill-rule="evenodd"/><path d="m282.9 107.5584c0 4.363-3.537 7.9-7.9 7.9s-7.9-3.537-7.9-7.9c0-4.3631 3.537-7.9 7.9-7.9s7.9 3.5369 7.9 7.9z" fill="#e5e5e5" fill-rule="evenodd"/><path d="m282.9 124.9336c0 4.363-3.537 7.9-7.9 7.9s-7.9-3.537-7.9-7.9c0-4.3631 3.537-7.9 7.9-7.9s7.9 3.5369 7.9 7.9z" fill="#e5e5e5" fill-rule="evenodd"/><path d="m262.8059 220.0294 5.9561 5.6694v12.5745l-5.9561 5.6704c-5.0807 4.837-10.1051 2.1442-22.1737 7.1856-.4947-3.8079-.279-6.9575 2.3269-9.7609-7.8194-.4714-14.0504-4.5216-19.1324-9.3824 5.0821-4.8598 11.3132-8.911 19.1324-9.3825-2.6058-2.8035-2.8215-5.9522-2.3269-9.7599 12.0687 5.0405 17.0921 2.3488 22.1737 7.1858z" fill="#eac102"/><path d="m265.8552 231.9859h-34.8042" fill="none"/><path d="m267.3653 235.9967c-10.2044 6.3639-14.4016 4.4882-21.9439 9.7922" fill="none"/><path d="m267.3653 227.9752c-10.2044-6.3639-14.4016-4.4883-21.9439-9.7922" fill="none"/><path d="m281.2492 225.7099 5.636-5.9925c4.8076-5.1117 2.1312-10.1657 7.1421-22.3081-3.7847-.4977-6.9153-.2807-9.7017 2.341-.4686-7.8671-4.4944-14.1362-9.3256-19.2503-4.8312 5.1141-8.857 11.3832-9.3256 19.2503-2.7864-2.6217-5.9169-2.8387-9.7017-2.341 5.0109 12.1424 2.3345 17.1964 7.1421 22.3081l5.636 5.9925z" fill="#eac102"/><path d="m275 222.7863v-35.0168" fill="none"/><path d="m271.0135 224.3046c-6.3263-10.2667-4.4611-14.4895-9.7328-22.0769" fill="none"/><path d="m100.0938 302.7813c-8.0052-3.422-21.7351-20.1327-28.1498-28.8125l-8 6c10.3764 13.7807 18.7019 22.4544 25.0248 27.5313 3.1615 2.5384 5.9207 4.2391 8.8125 5.0938z" fill="#eac102"/><path d="m449.9063 302.7813c8.0052-3.422 21.735-20.1327 28.1497-28.8125l8 6c-10.3764 13.7807-18.7018 22.4544-25.0247 27.5313-3.1615 2.5384-5.9207 4.2391-8.8125 5.0938z" fill="#eac102"/><path d="m280 234.9324v16.654c0 33.4354 51.1844 34.4812 54.5938-.2213.2475-2.5189 3.0219-4.3753 5.5072-4.074 2.4854.3013 4.7003 2.7619 4.399 5.2749-4.1358 34.496 41.594 36.4475 48.1875 2.4966l3.0625-15.7692c.4944-2.5455 3.3114-4.337 5.8296-3.8423s4.4764 3.2244 3.983 5.77l-3.0625 15.8007c-7.0147 36.1916 28.6416 34.2673 45.3438 5.5303 1.3295-2.2875 4.6253-3.1036 6.8752-1.7384 2.25 1.3652 3.0207 4.6491 1.7185 6.9526-19.3323 34.1985 5.7024 27.7663 21.2188 6.6995 3.7396-5.0773 9.8171-13.3288 11.2188-15.2319 1.5678-2.1287 4.9132-2.6161 7.016-1.0275 2.1027 1.5885 2.5859 4.9685 1.0153 7.095-3.75 5.0773-2.0598 2.7888-11.25 15.2319-19.4649 26.3545-44.7446 27.7583-46.0313 5.8937-16.952 12.3658-39.8595 10.5176-46.4063-10.0018-16.5868 19.1242-46.8885 16.5074-56-5.1827-17.3932 22.7946-49.8176 19.2712-62.219-1.0875-12.4014 20.3587-44.8258 23.8821-62.219 1.0875-9.1115 21.6901-39.4132 24.3069-56 5.1827-6.5468 20.5194-29.4543 22.3676-46.4063 10.0018-1.2867 21.8646-26.5664 20.4608-46.0313-5.8937-9.1902-12.4431-7.5-10.1546-11.25-15.2319-1.5706-2.1265-1.0874-5.5065 1.0153-7.095 2.1028-1.5886 5.4482-1.1012 7.016 1.0275 1.4017 1.9031 7.4792 10.1546 11.2188 15.2319 15.5164 21.0668 40.5511 27.499 21.2188-6.6995-1.3022-2.3035-.5315-5.5874 1.7185-6.9526 2.2499-1.3652 5.5457-.5491 6.8752 1.7384 16.7022 28.737 52.3585 30.6613 45.3438-5.5303l-3.0625-15.8007c-.4934-2.5456 1.4648-5.2753 3.983-5.77s5.3352 1.2968 5.8296 3.8423l3.0625 15.7692c6.5935 33.9509 52.3233 31.9994 48.1875-2.4966-.3013-2.513 1.9136-4.9736 4.399-5.2749 2.4853-.3013 5.2597 1.5551 5.5072 4.074 3.4094 34.7025 54.5938 33.6567 54.5938.2213v-16.654c0-2.6584 2.3504-5.1511 5.0001-5.1511s5.0001 2.4927 5.0001 5.1511z" fill="#eac102"/><path d="m275.0001 332.2117c-139.8158 0-182.5692-15.8896-182.5692-18.2644s42.7534-18.2645 182.5692-18.2645 182.5693 15.8897 182.5693 18.2645c0 2.3747-42.7535 18.2644-182.5693 18.2644zm-137.8858 3.1594c-32.5558-4.273-56.6142-10.9941-56.6142-21.4237 0-24.2391 129.9445-28.4474 194.5-28.4474s194.5 4.2083 194.5 28.4474c0 10.4296-24.0585 17.1507-56.6143 21.4237z" fill="#eac102" fill-rule="evenodd"/><path d="m171.4966 335.3715-69.0588 14.6048c-2.583-12.3267-5.022-23.5271-10.9304-35.0537-3.1408-6.1274 59.7743-20.0364 183.4926-20.0364 123.7184 0 186.6334 13.9091 183.4926 20.0364-5.9084 11.5267-8.3474 22.7269-10.9304 35.0537l-69.0588-14.6048z" fill="#eac102"/><path d="m90.9821 331.6525 3.9988-8.9213 13.0006 2.2327-8.6657 11.4659z" fill="#ed1c24"/><path d="m90.9821 331.6525 16.9994-6.6887" fill="none"/><path d="m152.7763 310.281 35.8427-3.3618c3.5853-.3363 6.7423 2.2793 7.0786 5.8646s-2.2793 6.7423-5.8646 7.0786l-35.8427 3.3618c-3.5853.3363-6.7423-2.2793-7.0786-5.8646s2.2793-6.7423 5.8646-7.0786z" fill="#008f4c" fill-rule="evenodd"/><path d="m133.8496 320.5115c0 4.363-3.537 7.9-7.9 7.9s-7.9-3.537-7.9-7.9c0-4.3631 3.537-7.9 7.9-7.9s7.9 3.5369 7.9 7.9z" fill="#e5e5e5" fill-rule="evenodd"/><path d="m228.4747 311.9843c0 4.363-3.537 7.9-7.9 7.9s-7.9-3.537-7.9-7.9c0-4.3631 3.537-7.9 7.9-7.9s7.9 3.5369 7.9 7.9z" fill="#e5e5e5" fill-rule="evenodd"/><path d="m443.4893 353c0 2.2122-39.4563 17.0141-168.4893 17.0141s-168.4893-14.8019-168.4893-17.0141c0-2.2123 39.4563-17.0142 168.4893-17.0142s168.4893 14.8018 168.4893 17.0142zm11.0107 0c0 22.5798-119.923 26.5-179.5 26.5s-179.5-3.9202-179.5-26.5 119.923-26.5 179.5-26.5 179.5 3.9203 179.5 26.5z" fill="#eac102" fill-rule="evenodd"/><path d="m185.2839 253.8207c-10.8666-3.6675-16.1972-.5282-22.1095-4.985l-6.7066-5.0556-2.5897-12.524 4.3828-6.1852c3.7221-5.2528 11.1566-3.9421 19.1506-9.3239 1.2432 3.7362 1.6887 6.8869-.1595 9.9255 7.3728-.2918 14.0092 3.1557 19.7375 7.4916-3.7307 5.3241-8.6974 9.9548-15.8756 11.1834 3 2.5329 3.8489 5.6411 4.17 9.4732z" fill="#eac102"/><path d="m140.4809 251.206 4.3767-6.2136-2.5897-12.5239-6.7006-5.0274c-5.7701-4.3292-11.6041-1.4315-22.1155-5.0122.3221 3.8311 1.1699 6.9404 4.1711 9.4722-7.1792 1.2286-12.1399 5.8875-15.8705 11.2116 5.7284 4.3359 12.3587 7.755 19.7315 7.4644-1.8482 3.0387-1.4027 6.1894-.1585 9.9245 9.9214-5.9603 15.4605-4.0499 19.1555-9.2956z" fill="#eac102"/><path d="m140.9023 239.2272c-15.1089-.1817-19.3803 1.7677-32.6861 3.2355" fill="none"/><path d="m140.4337 234.3179c-9.5934-6.0026-16.3391-3.4828-22.4567-7.7702" fill="none"/><path d="m142.2127 244.4161c-6.5421 6.4094-11.5489 4.1592-17.225 9.5822" fill="none"/><path d="m135.7701 227.0959 6.4778 5.4039 11.6623-1.2185 3.9894-6.4972c3.3736-5.4942-.0903-11.6639 2.0941-22.8533-3.6263-.1272-6.4959.3927-8.5518 3.2678-2.0519-7.7682-7.7902-14.2613-14.3895-17.7805-1.9616 6.7355-4.9647 12.8249-2.053 20.5234-3.1326-2.3331-7.0388-3.1699-10.4603-2.3078 6.783 10.4423 5.3054 16.519 11.231 21.4622z" fill="#eac102"/><path d="m151.6465 228.9383c3.0603-7.2776.3392-14.3017 4.2524-22.4535" fill="none"/><path d="m143.6355 230.4393c-7.7692-7.8954-7.3217-15.0861-13.062-20.9019" fill="none"/><path d="m147.4785 228.9867c-4.9266-13.1903-3.7406-23.2591-8.2709-34.8472" fill="none"/><path d="m155.1975 232.9925c6.507-7.2059 12.167-5.2071 18.702-11.1874" fill="none"/><path d="m156.7958 241.5319c9.3414 3.7311 12.4249 1.4638 22.4216 7.3886" fill="none"/><path d="m157.9206 237.4494c14.1337-3.8877 19.9613-1.2185 32.8597-3.5717" fill="none"/><path d="m159.1427 238.1086c0 5.5781-4.5219 10.1-10.1 10.1s-10.1-4.5219-10.1-10.1 4.5219-10.1 10.1-10.1 10.1 4.5219 10.1 10.1z" fill="#ed1c24" fill-rule="evenodd"/><path d="m44.2421 251.7354c-6.9071-9.8558-12.6261-16.1839-33.7421-18.0121 7.2242-10.9269 22.2693-14.0897 32.055-4.1188.9257-2.7287 1.4965-3.6181 4.084-6.1389 2.3071 7.1161 12.5812 12.4927 8.5051 25.2347l-4.0056 12.5219z" fill="#eac102"/><path d="m49.4292 259.187c3.8096-6.8364 4.5595-10.5908 7.4141-14.3119 2.8499-3.715 7.5109-6.9787 10.8958-9.8962 1.4854 3.4273 2.3343 6.4215 1.6259 9.6984 4.8897-1.5425 9.9387.6844 14.5341 3.931-1.5709 5.8239-4.09 11.1833-8.6864 13.6053 2.4529 1.9555 3.5641 4.8397 4.4484 8.5183 0 0-10.5557-.8544-15.1514.2019-5.2482 1.2062-9.2341-1.0487-10.0958-1.8998z" fill="#eac102"/><path d="m48.319 257.3831c-.6153-5.2111 1.1682-9.9124.8501-14.0958-.5819-7.6541-3.075-10.1759-2.7454-14.1846" fill="none"/><path d="m52.0298 263.6723c8.2134-6.6819 15.7327-7.9014 25.62-13.5456" fill="none"/><path d="m50.6091 259.9715c3.5924-6.0782 10.9851-9.4662 14.9751-18.9212" fill="none"/><path d="m53.1785 267.1097c7.0653.9722 11.3499-3.1477 19.8024-.0606" fill="none"/><path d="m54.4139 269.034c-1.3223.6355-2.7727 1.0058-4.3378 1.0058-5.5781 0-10.1-4.5219-10.1-10.1 0-3.4008 1.6898-6.3742 4.266-8.2044 5.0748 3.2253 9.3857 11.0399 10.1718 17.2986z" fill="#ed1c24" fill-rule="evenodd"/><path d="m364.7161 253.8207c10.8666-3.6675 16.1972-.5282 22.1095-4.985l6.7066-5.0556 2.5897-12.524-4.3828-6.1852c-3.7221-5.2528-11.1566-3.9421-19.1506-9.3239-1.2432 3.7362-1.6887 6.8869.1595 9.9255-7.3728-.2918-14.0092 3.1557-19.7375 7.4916 3.7307 5.3241 8.6974 9.9548 15.8756 11.1834-3 2.5329-3.8489 5.6411-4.17 9.4732z" fill="#eac102"/><path d="m407.7321 232.4685 6.7006-5.0274c5.7701-4.3292 11.6041-1.4315 22.1155-5.0122-.3221 3.8311-1.1699 6.9404-4.1711 9.4722 7.1792 1.2286 12.1399 5.8875 15.8705 11.2116-5.7284 4.3359-12.3587 7.755-19.7315 7.4644 1.8482 3.0387 1.4027 6.1894.1585 9.9245-9.9214-5.9603-15.4605-4.0499-19.1555-9.2956l-4.3767-6.2136z" fill="#eac102"/><path d="m409.0977 239.2272c15.1089-.1817 19.3803 1.7677 32.6861 3.2355" fill="none"/><path d="m409.5663 234.3179c9.5934-6.0026 16.3391-3.4828 22.4567-7.7702" fill="none"/><path d="m407.7873 244.4161c6.5421 6.4094 11.5489 4.1592 17.225 9.5822" fill="none"/><path d="m396.0898 231.2813-3.9894-6.4972c-3.3736-5.4942.0903-11.6639-2.0941-22.8533 3.6263-.1272 6.4959.3927 8.5518 3.2678 2.0519-7.7682 7.7902-14.2613 14.3895-17.7805 1.9616 6.7355 4.9647 12.8249 2.053 20.5234 3.1326-2.3331 7.0388-3.1699 10.4603-2.3078-6.783 10.4423-5.3054 16.519-11.231 21.4622l-6.4778 5.4039z" fill="#eac102"/><path d="m398.3535 228.9383c-3.0603-7.2776-.3392-14.3017-4.2524-22.4535" fill="none"/><path d="m406.3645 230.4393c7.7692-7.8954 7.3217-15.0861 13.062-20.9019" fill="none"/><path d="m402.5215 228.9867c4.9266-13.1903 3.7406-23.2591 8.2709-34.8472" fill="none"/><path d="m394.8025 232.9925c-6.507-7.2059-12.167-5.2071-18.702-11.1874" fill="none"/><path d="m393.2042 241.5319c-9.3414 3.7311-12.4249 1.4638-22.4216 7.3886" fill="none"/><path d="m392.0794 237.4494c-14.1337-3.8877-19.9613-1.2185-32.8597-3.5717" fill="none"/><path d="m390.8573 238.1086c0 5.5781 4.5219 10.1 10.1 10.1s10.1-4.5219 10.1-10.1-4.5219-10.1-10.1-10.1-10.1 4.5219-10.1 10.1z" fill="#ed1c24" fill-rule="evenodd"/><path d="m505.7579 251.7354c6.9071-9.8558 12.6261-16.1839 33.7421-18.0121-7.2242-10.9269-22.2693-14.0897-32.055-4.1188-.9257-2.7287-1.4965-3.6181-4.084-6.1389-2.3071 7.1161-12.5812 12.4927-8.5051 25.2347l4.0056 12.5219z" fill="#eac102"/><path d="m500.5708 259.187c-3.8096-6.8364-4.5595-10.5908-7.4141-14.3119-2.8499-3.715-7.5109-6.9787-10.8958-9.8962-1.4854 3.4273-2.3343 6.4215-1.6259 9.6984-4.8897-1.5425-9.9388.6844-14.5341 3.931 1.5709 5.8239 4.09 11.1833 8.6864 13.6053-2.4529 1.9555-3.5641 4.8397-4.4484 8.5183 0 0 10.5557-.8544 15.1514.2019 5.2482 1.2062 9.2341-1.0488 10.0958-1.8999z" fill="#eac102"/><path d="m501.681 257.3831c.6153-5.2111-1.1682-9.9124-.8501-14.0958.5819-7.6541 3.075-10.1759 2.7454-14.1846" fill="none"/><path d="m497.9702 263.6723c-8.2134-6.6819-15.7327-7.9014-25.62-13.5456" fill="none"/><path d="m499.3909 259.9715c-3.5924-6.0782-10.9851-9.4662-14.9751-18.9212" fill="none"/><path d="m496.8215 267.1097c-7.0653.9722-11.3499-3.1477-19.8024-.0606" fill="none"/><path d="m495.5861 269.034c1.3223.6355 2.7727 1.0058 4.3378 1.0058 5.5781 0 10.1-4.5219 10.1-10.1 0-3.4008-1.6898-6.3742-4.266-8.2044-5.0748 3.2253-9.3857 11.0399-10.1718 17.2986z" fill="#ed1c24" fill-rule="evenodd"/><path d="m287.1941 220.0294-5.9561 5.6694v12.5745l5.9561 5.6704c5.0807 4.837 10.1051 2.1442 22.1737 7.1856.4947-3.8079.279-6.9575-2.3269-9.7609 7.8194-.4714 14.0504-4.5216 19.1324-9.3824-5.0821-4.8598-11.3132-8.911-19.1324-9.3825 2.6058-2.8035 2.8215-5.9522 2.3269-9.7599-12.0687 5.0405-17.0921 2.3488-22.1737 7.1858z" fill="#eac102"/><path d="m284.1448 231.9859h34.8042" fill="none"/><path d="m282.6347 235.9967c10.2044 6.3639 14.4016 4.4882 21.9439 9.7922" fill="none"/><path d="m282.6347 227.9752c10.2044-6.3639 14.4016-4.4883 21.9439-9.7922" fill="none"/><path d="m278.9865 224.3046c6.3263-10.2667 4.4611-14.4895 9.7328-22.0769" fill="none"/><path d="m285.1 231.9859c0 5.5781-4.5219 10.1-10.1 10.1s-10.1-4.5219-10.1-10.1 4.5219-10.1 10.1-10.1 10.1 4.5219 10.1 10.1z" fill="#ed1c24" fill-rule="evenodd"/><path d="m218.046 249.192c0 4.363-3.537 7.9-7.9 7.9s-7.9-3.537-7.9-7.9c0-4.3631 3.537-7.9 7.9-7.9 4.3631 0 7.9 3.5369 7.9 7.9z" fill="#e5e5e5" fill-rule="evenodd"/><path d="m104.7531 262.3266c0 4.363-3.537 7.9-7.9 7.9s-7.9-3.537-7.9-7.9c0-4.3631 3.537-7.9 7.9-7.9s7.9 3.5369 7.9 7.9z" fill="#e5e5e5" fill-rule="evenodd"/><path d="m331.954 249.192c0 4.363 3.537 7.9 7.9 7.9s7.9-3.537 7.9-7.9c0-4.3631-3.537-7.9-7.9-7.9-4.3631 0-7.9 3.5369-7.9 7.9z" fill="#e5e5e5" fill-rule="evenodd"/><path d="m445.2469 262.3266c0 4.363 3.537 7.9 7.9 7.9s7.9-3.537 7.9-7.9c0-4.3631-3.537-7.9-7.9-7.9s-7.9 3.5369-7.9 7.9z" fill="#e5e5e5" fill-rule="evenodd"/><path d="m296.89 63.0594c.853-2.1495.321-8.4285 0-8.7305 0-1.4306-7.563-2.6022-17.598-2.8715v-15.0824c-1.436-.2456-2.863-.3771-4.2921-.3771s-2.8561.1314-4.2921.3771v15.0824c-10.035.2693-17.598 1.4409-17.598 2.8715-.321.302-.853 6.581 0 8.7305 0-1.629 9.796-2.9585 21.8901-2.9585s21.8901 1.3295 21.8901 2.9585z" fill="#eac102"/><path d="m459.0179 331.6525-3.9988-8.9213-13.0006 2.2327 8.6657 11.4659z" fill="#ed1c24"/><path d="m459.0179 331.6525-16.9994-6.6887" fill="none"/><path d="m397.2237 310.281-35.8427-3.3618c-3.5853-.3363-6.7423 2.2793-7.0786 5.8646s2.2793 6.7423 5.8646 7.0786l35.8427 3.3618c3.5853.3363 6.7423-2.2793 7.0786-5.8646s-2.2793-6.7423-5.8646-7.0786z" fill="#008f4c" fill-rule="evenodd"/><path d="m416.1505 320.5115c0 4.363 3.537 7.9 7.9 7.9s7.9-3.537 7.9-7.9c0-4.3631-3.537-7.9-7.9-7.9s-7.9 3.5369-7.9 7.9z" fill="#e5e5e5" fill-rule="evenodd"/><path d="m321.5253 311.9843c0 4.363 3.537 7.9 7.9 7.9s7.9-3.537 7.9-7.9c0-4.3631-3.537-7.9-7.9-7.9s-7.9 3.5369-7.9 7.9z" fill="#e5e5e5" fill-rule="evenodd"/><path d="m255.5889 304.2484-10.0858 6.7241 10.0858 6.7232h38.8224l10.0858-6.7232-10.0858-6.7241z" fill="#ed1c24"/><path d="m255.5889 304.2484 9.3228 6.018-9.3228 7.4293" fill="none"/><path d="m245.503 310.9725 19.4086-.7061h20.1771l19.4085.7061" fill="none"/><path d="m294.4113 304.2484-9.3227 6.018 9.3227 7.4293" fill="none"/></g></g><path d="m25.5 360.5v474.25c0 68.898 55.852 124.75 124.75 124.75h62.375c27.289 0 50.92 17.163 62.375 40 11.455-22.837 35.086-40 62.375-40h62.375c68.898 0 124.75-55.852 124.75-124.75v-474.25z" fill="#0071bc" stroke="#000" stroke-linecap="round" stroke-linejoin="round"/><g stroke="#000" stroke-linecap="round" stroke-linejoin="round"><path d="m397.8462 461.6784c26.4101 23.1825 59.6234 79.9269 33.4594 105.332-16.4395 15.9627 39.2819 25.4797 36.7114 91.5304-.6133 15.76 2.3847 30.1572 6.483 42.0415-15.6726-2.9991-27.4885-18.3872-33.741-30.1412-4.7803 23.5484-.2762 47.9924 4.952 61.7124-15.5816-7.2229-32.2311-26.8178-34.8466-45.668-3.8304-27.6053-46.7103-34.6517-37.8139-65.9965 9.9396-35.0206-5.6514-62.9587-45.8583-79.186 34.5697-15.1573 64.2784-46.276 70.6541-79.6246z" fill="#e5e5e5"/><path d="m422.9397 491.8453c-5.4927 12.2854-12.2593 23.2228-19.8723 33.0078-7.6111-10.3482-17.0078-18.742-24.0772-23.5738-4.969 6.3853-10.6871 12.3844-16.9658 17.8574 7.7763 3.6768 19.0808 11.1121 27.3815 21.2617-8.7657 8.8816-18.1808 16.6279-27.7616 23.4832 4.2486 4.7111 7.562 9.7966 9.9212 15.2281 9.0653-6.6558 18.1767-14.397 26.7679-23.0244 3.1356 9.4343 2.8008 20.1483-3.8711 31.6842-17.5877 30.4092 29.5976 23.842 44.312 100.8766.1441-5.9961.7517-12.1283 1.9852-18.2048 2.0496 3.8532 4.7079 8.0921 7.8933 12.1618-3.1121-14.3619-3.5506-30.4908-6.9634-40.6683-10.4572-31.1853-42.272-44.4409-31.8163-60.6198 8.7457-13.533 7.7675-27.7554 2.369-40.5941 7.8708-9.5992 14.8869-19.9573 20.4784-30.8461-2.7725-6.1589-6.1129-12.2428-9.7808-18.0295z" fill="#ed1c24"/><path d="m130.7508 752.6787c1.5461 1.5497 1.7268 6.978 8.0699 6.4567 2.0419 2.9751 4.4288 10.8509 10.0351 8.4706 2.3726 1.9567 2.3286 5.8168 10.7192 6.5536 1.8354 1.9136 3.8009 8.4208 8.8451 5.4884 3.5286 3.3312 13.3857 2.0741 14.9895 1.2235l7.2841-39.3038c-1.5394-2.3898-2.3168-6.1953-8.8167-4.5822-2.934-2.2864-6.0367-6.5424-10.2845-2.5321-1.2108-4.9533-7.12-2.7263-9.5667-1.8983-2.7251-.9821-3.1412-4.5025-9.5941-1.1937-2.4788-1.8765-4.5897-4.715-8.4686-.9148-4.8958-5.7128-7.7796-2.0648-9.1594-1.4091-8.0092-4.7755-15.2888-.3934-17.1606 3.6211-1.1576 2.4826-1.9924 6.5144-2.7295 8.6243" fill="#e5e5e5"/><path d="m76.9386 813.1624c-4.3572 4.8895 2.2659 8.5082 5.5407 4.8326l330.7038-371.1812c1.3536-1.5115 1.2042-3.8372-.3104-5.1873-1.5146-1.3502-3.8377-1.2058-5.1861.3105z" fill="#e5e5e5"/><path d="m117.643 732.6586c-1.1576 2.4826-1.9924 6.5144-2.7295 8.6243-4.0568 11.6149-12.8695 27.0988-22.0323 35.1448-1.5486 1.3597-5.7021 8.6243-5.582 14.0137-1.6133 2.3191-7.791 6.9345-10.4665 11.4747-.8008 1.3593-1.3327 2.7203-1.3327 4.0357 0 .8017.1478 1.5846.5441 2.3373h21.0777c5.9485 0 5.8807-12.8371 5.9829-19.8808 7.1586 3.4994 7.8649.6032 11.5796-6.7598 2.1156-4.1932 9.0221-16.9012 12.9792-23.7005.9529-1.6374 1.7919-3.7945 3.0873-5.2693" fill="#e5e5e5"/><path d="m87.2993 790.4414c1.9154 4.163 10.4142 4.5573 15.5756 4.5198" fill="none"/><path d="m85.0207 808.2891c-4.6425-1.6801 1.5232-10.1173 5.123-14.9543" fill="none"/><path d="m204.5632 614.7045c-9.2092-2.2087-15.6956-6.7045-27.5468-6.7045-5.4795 0-10.316 1.2315-11.8307 3.4771-1.2231 1.813-.6354 4.4356 2.7218 7.9564 3.9064 4.0976 8.1611 7.8637 13.495 11.6211 6.4044 4.5117 18.4154.5406 26.7237-1.5058" fill="#e5e5e5"/><path d="m380.1318 712.5832c2.0652-1.3829 8.41-3.0573 11.4918 2.6468 1.6818-.3858 6.0067.1816 5.508 6.4316 1.7488 1.7394 5.3251 2.0311 4.3142 8.5872 2.4065 1.1666 3.2622 4.177 3.4046 7.9635 4.7883 3.7494 4.0723 6.8159 3.8945 9.9052 2.1235.1377 2.5286 3.1181 2.3008 7.0187 2.2734 3.8853 2.9536 6.7435 1.8295 11.6707.4027 1.9283 1.6248 3.8113 1.6248 6.021 0 1.2975-.3411 3.3629-1.3857 5.4933.4667 2.1853 1.2742 6.7103-1.7356 8.2728.7817 4.6504-.8176 4.9561-3.9633 4.7397-.7061 1.8238-6.2362 1.9393-8.3188-2.9998-3.151-.4664-5.2186-3.2364-4.9422-5.0878-3.4777-2.1887-5.443-5.0623-2.9938-9.225-3.376-2.6779-3.9781-5.9676-2.6384-10.4639-1.4062-6.7739-2.5958-15.1996-3.0913-25.8873z" fill="#e5e5e5"/><path d="m230.0845 690.261c-.4411-6.361-6.7559-11.9416-7.6074-15.277 2.5095.9047 9.1648 2.3996 12.8315 1.5277 6.4943-1.5446 10.0223-5.4672 16.9789-3.1602 8.541 2.8332 13.2603 1.4475 14.019-2.3386.9364-4.6739-5.4386-3.6293-11.7047-6.9903l9.975 2.4401c5.4769 1.3393 8.0508 1.5698 8.0508-6.9538 0-6.2489-10.9489-16.5297-20.2574-24.2122-3.6294-2.9954-5.4139-7.8531-8.9261-10.6073-3.4738-2.7239-6.899-5.1828-11.0418-6.3853-.1092-5.7863-9.9188-8.5363-13.5218-6.3836.3627-2.4992-.9964-3.9205-3.4379-3.9205-2.06 0-4.7808.9519-7.4618 3.1185-3.4487-4.6866-6.9909-2.3106-8.453 1.8254-6.7495-3.9137-15.0021.3689-15.7368 6.5444-4.5793 2.4582-13.3131 4.5236-14.3482 16.3072-.7145 8.1315-5.3929 19.2061-2.0919 26.7574-3.2057 4.9965-5.8261 12.2799-4.003 17.5425-4.7914 3.3015-4.9667 10.0428-3.3006 13.0284-3.2483 2.0439-5.3975 4.2813-5.3975 9.0418 0 4.4823 1.2183 7.3786 3.346 9.0671-3.7008 3.4087-4.5436 13.5574-.4146 16.6516-2.9977 7.6671-1.5973 8.9395 2.1496 13.7128-2.3678 2.783-.3228 9.1384 3.1382 11.1561-2.4636 4.0097.6593 7.2607 3.3853 8.9516-1.6038 3.9423.7851 7.8932 5.7285 8.7172-2.746 7.8436 4.4765 6.6203 5.9806 8.5567 1.0427 7.653 5.7307 11.6053 9.2018 9.6471.6818 5.2572 4.1022 9.3908 9.6426 7.3145 2.6723 8.1533 10.5117 7.5407 14.8445 5.5557.6645 5.6192 7.0723 5.5349 11.1901 4.6948 3.9256 3.428 8.4076 2.726 12.7542 1.1642 3.0553.5617 2.2662 4.3193 9.5994 1.2621 3.5137 3.7193 8.8658.1264 12.4641-.7071 2.2384 2.6364 5.7807 3.3987 11.9446.4018 10.0616 5.4393 8.0695-1.3219 12.1741-1.6445 4.594 3.1118 9.2029 5.5353 13.8041-1.373 4.9383 3.7433 7.953 3.6421 10.7893 0 2.8224 3.4723 10.1382 2.6526 10.1755-2.5366 3.6897 4.4678 9.7791 3.7639 12.7899-.025 6.7838 4.0901 7.1689-1.2557 9.2797-3.2605 4.5413 3.3687 11.4145 2.9824 13.7651-3.9742 5.625 4.3498 6.9817 2.5197 9.4997-3.9114 6.1448 1.9148 9.0763-.3655 10.4683-4.6554 5.2356 1.7823 8.5468-3.3007 7.1742-6.8288 4.2144 2.0453 8.7878-4.2985 7.7027-8.5757 3.804.2184 6.9783-4.3719 4.047-9.9612 3.3907-.8812 3.8396-5.185 2.4201-6.9993 3.5998-1.129 3.8418-5.6405.1608-12.865 1.7932-3.5704 3.9915-7.6497-.4648-12.1592 1.8242-5.5241-1.8272-8.4099-6.1725-11.1595-.1464-5.2614-1.1461-8.5361-6.5645-8.4434-2.1685-1.9548-1.1459-7.8918-9.2204-4.9265-3.3857-5.9862-10.2404-6.3847-13.5644-4.4512-5.7484-4.4395-9.072-2.9722-10.8815-1.4548-3.7171-1.0305-6.9869-5.2436-13.475-1.1069-3.8005-1.2258-7.0055-.7199-10.7385 1.9753-3.4272-1.4895-12.2655-3.6636-14.2265 2.174-6.0874-3.172-12.386-3.4891-15.0644 2.0167-2.332-1.7058-7.1584-5.0808-12.5739 1.3144-3.6904-.8797-5.8999-6.761-14.5332.8623-3.5001-2.1693-7.0018-5.9986-10.5114 1.249-3.5148-4.8592-7.8623-2.7719-11.3694-1.4328-1.4557-3.2744-5.7731-3.9926-9.2018-3.9926 0-4.5806-2.9187-9.0389-5.2084-11.9046z" fill="#e5e5e5"/><path d="m242.7931 639.416c-.2701 4.3946-6.9993 9.858-10.2429-.031" fill="none"/><path d="m230.3311 639.2892c6.9108.7107 10.5813-3.608 15.2885 2.5645" fill="none"/><path d="m262.7215 655.1118c.5486 1.726 4.4427 3.541 5.6131 2.8303.5811-.3528.3221-2.2246-.0496-3.0043" fill="none"/><path d="m239.4858 641.6949c.3356.6866.0496 1.5244-.641 1.8704-.6902.346-1.5217.071-1.8574-.6157s-.0496-1.5243.6411-1.8703c.6899-.3463 1.5215-.071 1.8573.6156z"/><path d="m189.0844 628.2527c-8.8658 3.3314-16.6874 3.2762-26.5749 9.8838-4.5576 3.0456-7.8598 6.8028-7.8598 9.5125 0 2.1881 1.9532 4.0318 6.7034 5.0679 5.5275 1.2057 11.1585 1.9417 17.6791 2.0658 7.8289.1495 15.5622-9.8737 21.303-16.2265" fill="#e5e5e5"/><path d="m232.4023 618.3041c0 4.7471-6.7264 9.1863-11.4557 9.7893-.3857 2.6947 3.3045 10.1328-7.1018 8.03 2.219 4.6027 4.7856 11.7453-1.7525 13.3134" fill="none"/><path d="m222.4774 674.9838c-4.113-1.4834-12.4739-2.3379-15.3448-9.8272" fill="none"/><path d="m376.1686 774.5113c2.7951 3.2187 5.429 4.0485 5.6795 9.5822 2.8361 1.0854 6.4579 3.3602 5.107 8.0483 1.915 1.3859 4.1201 3.4343 3.5462 7.4504 5.2254 15.5341-3.5735 19.9072-13.9396 19.9072-4.5971 0-9.4199-.9671-13.2397-2.2061-8.1878-2.6558-37.2489-3.6237-44.091-1.3975-9.4266 3.0669-9.6394-4.3039-7.6135-9.1363-3.7969 4.7009-10.2021 12.7399-14.7822 12.7399-.771 0-1.497-.2561-2.1597-.7764l-16.5814-13.0157c1.2525-6.8752 15.8842-5.8674 19.8593-7.086 11.507-11.8573 22.54-2.2849 37.6801-1.4542 1.9286.1064 4.8545.193 8.2236.1884-1.1003-.708-1.9707-1.8317-2.5985-3.3243-2.6773.855-9.9436-1.024-9.2391-3.4473-3.5206.2997-9.6805-2.6059-7.5112-5.6121-2.2878-.9665-9.9192-3.3109-6.9504-10.218-3.4294-1.1189-2.7143-7.7419.0553-9.389-3.7977-3.1805.3447-8.7585 3.8986-9.469.2936-2.6174-.2467-5.6404 6.5911-6.5982" fill="#e5e5e5"/><path d="m297.9534 798.6213c-1.0598 4.4564 5.3829 10.0148 9.4663 13.1726" fill="none"/><path d="m285.1559 811.2506c-2.6161-4.1882 7.437-7.0164 13.2511-8.5974" fill="none"/><path d="m343.8574 797.3555c3.9653 0 8.5541-.1179 12.8715-.3768" fill="none"/><path d="m191.7426 765.5792c-1.7015 2.0463-1.514 6.3909 2.8923 9.4056-3.8928 2.628-6.5115 4.073-6.2088 7.8983-2.9591-.9496-6.8769-.071-9.2823 4.7973-3.6686-2.706-6.062 1.1661-8.8343 4.182-3.054.329-5.6367 1.8998-6.809 4.0909-2.5204.7054-6.6414 1.3449-8.8485 1.6846-12.1489 1.8698-31.2567 4.7673-42.3482-.2874-1.9906-.9072-5.1596-1.315-8.1194-1.315-2.9456 0-5.8397.5353-7.6301 1.7651-2.8221.065-9.7316-1.7651-14.5953-1.7651-2.5385 0-5.4748 1.1732-6.4589 3.1891l12.4414 17.0214c3.5112 4.8037 13.842-2.8333 19.582-6.9072.242 7.0022 2.1515 10.1606 8.5278 10.1606 1.096 0 1.8386-.03 2.8919-.1235 4.6741-.4179 17.1695-1.907 26.9761-3.0321 5.7794-.6629 12.4145-1.3762 17.9051-1.0182 4.3908 4.4852 9.6493 3.3547 13.1725 1.0626 2.1715.2706 5.6499 4.4398 10.3314.125 1.2551 1.0728 4.1977 2.9868 7.1504 2.9868 1.755 0 4.8814-.5266 5.968-2.4835 3.0733.082 5.4109 3.1536 12.4799-1.4292 2.6232.3792 10.6664 2.8899 12.8419-2.5268 4.6761 2.2969 11.8014-.9979 11.1629-6.186 5.0892-2.7373 6.2516-9.2819 3.0246-11.9972 1.974-1.3459 5.521-2.612 1.556-10.0463.7547-1.4167 4.7386-6.4604-.4695-9.0873.8608-4.7756-2.8957-8.6982-3.9399-10.1639" fill="#e5e5e5"/><path d="m96.5542 797.8006c-2.2261 4.0035 2.453 11.0802 5.5299 15.2258" fill="none"/><path d="m80.7984 806.4735c-1.3854-4.7401 9.0574-4.7399 15.0822-4.687" fill="none"/><path d="m411.5225 437.4839 3.1355-9.3348 16.9989-7.6491-5.6495 17.7639-8.9137 4.1852z" fill="#e5e5e5"/><path d="m415.895 447.4585a6.1693 6.1693 0 0 1 -8.7103.501 6.1693 6.1693 0 0 1 -.501-8.7103 6.1693 6.1693 0 0 1 8.7103-.501 6.1693 6.1693 0 0 1 .501 8.7103z" fill="#e5e5e5" fill-rule="evenodd"/></g><path d="m26.5 361.5v473.25c0 68.35 55.4 123.75 123.75 123.75h62.375c27.18 0 50.966 17.254 62.375 40 11.409-22.746 35.195-40 62.375-40h62.375c68.35 0 123.75-55.4 123.75-123.75v-473.25z" fill="none" stroke="#000" stroke-linecap="round" stroke-linejoin="round" stroke-width="3"/></svg>