<?xml version="1.0" encoding="utf-8"?><!DOCTYPE svg PUBLIC "-//W3C//DTD SVG 1.1//EN" "http://www.w3.org/Graphics/SVG/1.1/DTD/svg11.dtd"><svg viewBox="0 0 700 700" xmlns="http://www.w3.org/2000/svg"><path d="m50.5 350 299.5 299.5 299.5-299.5-299.5-299.5z" fill="#eac102" stroke="#000" stroke-linecap="round" stroke-linejoin="round"/><g stroke="#000" stroke-linecap="round" stroke-linejoin="round"><path d="m143.0496 420v-140l59.2716-60v260z" fill="#ed1c24"/><path d="m320.8642 600v-500l-59.2716 60v380z" fill="#ed1c24"/><path d="m379.1358 600v-500l59.2716 60v380z" fill="#ed1c24"/><path d="m556.9504 420v-140l-59.2715-60v260z" fill="#ed1c24"/><path d="m350 .5c-8.7242 12.2705-11.7836 20.45-11.7813 28.8125.003 10.4275 4.0391 17.1191 6.5938 26.375l-1.3125 1.3125c-4.9762-17.8573-19.1078-24.3679-25.2813-16.625-5.3647 6.7287-3.696 26.0276 13.3125 28.5938l-262.5625 262.5625c-2.5661-17.0085-21.8651-18.6773-28.5938-13.3125-7.7429 6.1733-1.2323 20.305 16.625 25.2813l-1.3438 1.3438c-9.2408-2.5545-15.9272-6.6189-26.3438-6.625-8.3625-.0049-16.542 3.0571-28.8125 11.7813 12.2705 8.7242 20.45 11.7836 28.8125 11.7813 10.4275-.003 17.1191-4.0391 26.375-6.5938l1.3125 1.3125c-17.8573 4.9762-24.3679 19.1078-16.625 25.2813 6.7287 5.3647 26.0276 3.696 28.5938-13.3125l262.5625 262.5625c-17.0085 2.5661-18.6772 21.8651-13.3125 28.5938 6.1734 7.7429 20.305 1.2323 25.2813-16.625l1.3125 1.3125c-2.5547 9.2559-6.5911 15.9475-6.5938 26.375-.002 8.3625 3.0571 16.542 11.7813 28.8125 8.7242-12.2705 11.7861-20.45 11.7813-28.8125-.006-10.4166-4.0706-17.1029-6.625-26.3438l1.3438-1.3438c4.9762 17.8573 19.1079 24.3679 25.2813 16.625 5.3648-6.7287 3.696-26.0276-13.3125-28.5938l262.5625-262.5625c2.5661 17.0085 21.8651 18.6772 28.5938 13.3125 7.7429-6.1734 1.2323-20.305-16.625-25.2813l1.3125-1.3125c9.2559 2.5547 15.9475 6.5911 26.375 6.5938 8.3625.002 16.542-3.0571 28.8125-11.7813-12.2705-8.7242-20.45-11.7861-28.8125-11.7813-10.4166.006-17.1029 4.0706-26.3438 6.625l-1.3438-1.3438c17.8573-4.9762 24.3679-19.1079 16.625-25.2813-6.7287-5.3648-26.0276-3.696-28.5938 13.3125l-262.5625-262.5625c17.0085-2.5661 18.6773-21.8651 13.3125-28.5938-6.1733-7.7429-20.305-1.2323-25.2813 16.625l-1.3438-1.3438c2.5545-9.2408 6.619-15.9272 6.625-26.3438.0048-8.3625-3.0571-16.542-11.7813-28.8125zm.5 82.7813 266.7188 266.7188-266.7188 266.7188-266.7188-266.7188z" fill="#eac102" fill-rule="evenodd"/></g><g stroke="#000" stroke-linecap="round" stroke-linejoin="round"><g><path d="m211.9984 391.162c8.3884 4.1104 6.2528 31.0573 0 35.7906l143.8361 51.8623 6.313-5.8817 1.7938-9.6708-.8762-11.3852-4.4437-7.7878z" fill="#e5e5e5"/><path d="m358.6615 479.1035 124.1256-60.8439c9.4493-4.6319 9.3369-33.7191-2.9874-38.1602l-144.5765-52.0993-124.1336 60.8605 2.9357 2.9211 144.0771 52.0725 5.0007 8.0672.591 15.1451z" fill="#c87137"/><path d="m355.6684 440.9571 124.1339-60.8606" fill="none"/><path d="m388.1731 464.6227c10.8559-5.307 8.3375-33.1467-3.9882-37.5881l-8.0891 3.9808c12.3257 4.4414 12.2884 32.8812 3.1006 37.9957z" fill="none"/><path d="m472.6609 423.2227c10.8559-5.307 8.3376-33.1467-3.9882-37.5881l-8.0891 3.9807c12.3257 4.4414 12.2884 32.8812 3.1006 37.9956z" fill="none"/><path d="m217.0308 400.0022 144.5788 52.0968" fill="none"/><path d="m217.6614 406.9182 144.5788 52.0968" fill="none"/><path d="m217.2754 413.8342 144.5788 52.0968" fill="none"/><path d="m215.6577 420.7501 144.5788 52.0969" fill="none"/><path d="m211.0897 424.8899 142.6907 51.4076c1.2801.4612 2.9341.2441 3.9115-.4284 6.1083-4.2022 6.4328-28.2996-2.0065-31.34l-144.5957-52.0938c-.4457-.3535-.5887-.991-.5887-1.8166 0-.6621.2575-1.333.5887-1.7584l144.5788 52.0968c12.3257 4.4414 12.1808 33.0319 2.9931 38.1463-1.4701.8184-3.3196 1.3035-5.2038.6251l-142.368-51.2637c-.4412-.6925-.6041-1.1363-.5887-1.8714.013-.6215.2375-1.1787.5887-1.7036z" fill="#eac102"/><path d="m226.2818 445.0846c0 1.2359-1.0017 1.8879-2.2374 1.4565-1.2357-.4313-2.2374-1.7832-2.2374-3.0191s1.0017-1.8879 2.2374-1.4565c1.2357.4313 2.2374 1.7832 2.2374 3.0191zm-6.0115-38.7528v31.3865c-2.6657.1856-3.2494 1.6991-3.2494 3.402 0 1.4244.8381 4.0848 2.234 5.5196.2984 2.3169 2.7166 5.6543 4.8064 6.3838 2.0898.7298 4.5081-.9188 4.8064-3.0274 1.3959-.46 2.2001-2.5471 2.2001-3.9715 0-1.7029-.5837-3.6237-3.2494-5.6709v-31.3865z" fill="#eac102"/><path d="m347.0078 498.8853c0 1.236-1.0017 1.8879-2.2374 1.4565-1.2357-.4313-2.2374-1.7832-2.2374-3.0191s1.0017-1.8879 2.2374-1.4565 2.2374 1.7833 2.2374 3.0191zm-6.0115-38.7526v31.3864c-2.6657.1856-3.2494 1.6991-3.2494 3.402 0 1.4244.8381 4.0847 2.234 5.5196.2984 2.3168 2.7166 5.6542 4.8064 6.3838 2.0898.7297 4.5081-.9188 4.8064-3.0274 1.3959-.4601 2.2001-2.5471 2.2001-3.9715 0-1.7029-.5837-3.6237-3.2494-5.6709v-31.3864z" fill="#eac102"/><path d="m326.8868 489.9186c0 1.2359-1.0017 1.8879-2.2374 1.4565s-2.2374-1.7833-2.2374-3.0191c0-1.236 1.0017-1.8879 2.2374-1.4565 1.2357.4313 2.2374 1.7832 2.2374 3.0191zm-6.0115-38.7527v31.3863c-2.6657.1856-3.2494 1.6991-3.2494 3.402 0 1.4244.8381 4.0848 2.234 5.5196.2984 2.3169 2.7167 5.6544 4.8064 6.3839 2.0898.7297 4.5081-.9188 4.8064-3.0275 1.3959-.46 2.2001-2.5471 2.2001-3.9715 0-1.7029-.5837-3.6238-3.2494-5.6709v-31.3863z" fill="#eac102"/><path d="m306.7658 480.9517c0 1.236-1.0017 1.8879-2.2374 1.4565-1.2357-.4313-2.2374-1.7832-2.2374-3.0191s1.0017-1.8878 2.2374-1.4564c1.2357.4313 2.2374 1.7832 2.2374 3.019zm-6.0115-38.7526v31.3864c-2.6657.1856-3.2494 1.6991-3.2494 3.402 0 1.4244.838 4.0847 2.234 5.5196.2984 2.3168 2.7166 5.6543 4.8064 6.3838 2.0898.7299 4.5081-.9188 4.8064-3.0274 1.3959-.4601 2.2001-2.5471 2.2001-3.9715 0-1.7029-.5837-3.6238-3.2494-5.6709v-31.3864z" fill="#eac102"/><path d="m286.6448 471.9849c0 1.2359-1.0017 1.8879-2.2374 1.4566-1.2357-.4314-2.2374-1.7833-2.2374-3.0191 0-1.2359 1.0017-1.8878 2.2374-1.4564 1.2357.4313 2.2374 1.783 2.2374 3.019zm-6.0115-38.7527v31.3865c-2.6657.1856-3.2494 1.6991-3.2494 3.402 0 1.4243.8381 4.0847 2.234 5.5195.2984 2.3169 2.7167 5.6544 4.8064 6.3839 2.0898.7297 4.5081-.9188 4.8065-3.0275 1.3959-.46 2.2001-2.5471 2.2001-3.9715 0-1.7029-.5837-3.6237-3.2494-5.6708v-31.3865z" fill="#eac102"/><path d="m266.5238 463.0182c0 1.2359-1.0017 1.8879-2.2374 1.4565-1.2357-.4313-2.2374-1.7832-2.2374-3.0191s1.0017-1.8879 2.2374-1.4565c1.2357.4313 2.2374 1.7832 2.2374 3.0191zm-6.0115-38.7528v31.3865c-2.6657.1856-3.2494 1.6991-3.2494 3.402 0 1.4244.8381 4.0848 2.234 5.5196.2984 2.3169 2.7166 5.6541 4.8064 6.3837 2.0898.7298 4.5081-.9188 4.8064-3.0272 1.3959-.4601 2.2001-2.5472 2.2001-3.9716 0-1.7029-.5837-3.6237-3.2494-5.6709v-31.3865z" fill="#eac102"/><path d="m246.4028 454.0515c0 1.2359-1.0017 1.8879-2.2374 1.4565-1.2357-.4313-2.2374-1.7832-2.2374-3.0191s1.0017-1.8879 2.2374-1.4565c1.2357.4313 2.2374 1.7832 2.2374 3.0191zm-6.0115-38.8532v31.4869c-2.6657.1856-3.2494 1.6991-3.2494 3.402 0 1.4244.8381 4.0848 2.234 5.5196.2984 2.3169 2.7166 5.6543 4.8064 6.3838 2.0898.7298 4.5081-.9187 4.8064-3.0274 1.3959-.46 2.2001-2.5471 2.2001-3.9715 0-1.7029-.5837-3.6237-3.2494-5.6709v-31.4869z" fill="#eac102"/></g><g><path d="m375.0592 257.0875a48.244 48.2449 0 0 1 -96.488 0 48.244 48.2449 0 1 1 96.488 0zm4.2664 0a52.5105 52.5114 0 0 1 -105.0209 0 52.5105 52.5114 0 1 1 105.0209 0z" fill="#eac102" fill-rule="evenodd"/><path d="m394.9151 208.8527c6.4001 7.8884 39.9702 31.4277 47.9764 35.2049-11.6662 7.9702-23.2412 17.6045-32.9247 26.0696-2.0713 1.8107-5.2993 2.1239-8.9809.7435-11.2764-4.2281-31.9644-17.0731-39.4833-24.9185z" fill="#e5e5e5"/><path d="m381.1156 225.1639-5.4193 5.8298c4.3094 4.0516 11.2085 10.2888 19.414 15.2514-4.5484 4.4998-9.431 9.2115-14.4457 14.029 2.0451 1.2688 4.1098 2.5 6.1527 3.6596 5.0391-4.83 9.9178-9.5419 14.5071-14.0611 4.1422 2.3331 8.0901 4.3866 11.4748 5.9369 1.8627-1.0877 7.3362-2.4142 10.8296-2.1846-3.3315-1.1284-9.9345-4.5933-17.1513-8.8877 5.2034-5.193 10.0587-10.11 14.5033-14.7748-1.9686-1.3903-3.9174-2.7822-5.8618-4.2062-4.487 4.7839-9.4182 9.897-14.7619 15.2606-8.0931-5.1255-15.0136-11.5931-19.2414-15.8529z" fill="#ed1c24"/><path d="m469.5 299.7623c-8.0927-13.5845-13.4849-67.3087-29.2108-63.5854-1.2129.2872-2.031.6238-2.5834.949-6.2191 3.6617-10.7103 10.5148-24.9066 18.6836 1.8693-1.0859 4.6765-.3086 7.0504 2.8343 7.564 10.0139 10.8472 37.9856 36.4047 47.6088-7.931-11.2737-10.1584-24.9537-10.6583-35.9051 4.3627 6.3406 13.9577 25.6142 23.9039 29.4148z" fill="#e5e5e5"/><path d="m409.9669 270.1272c1.5853-1.3962 2.1711-3.7483 1.2893-6.7037-1.1589-3.8843-.2277-6.5856 1.5426-7.6141" fill="none"/><path d="m429.8108 243.4234c-1.7332 1.3721-3.4929 3.048-5.6811 4.7691 7.6679-6.5882 18.237 23.8138 23.5128 37.9098-1.2503-5.4872-1.8153-10.8836-2.0372-15.7447 1.6068 2.3353 3.9181 6.4115 6.7006 10.8363-8.7227-27.7299-17.4663-41.7514-22.4951-37.7704z" fill="#ed1c24" fill-rule="evenodd"/><path d="m260.1917 337.6664c-.683 1.7594-1.4286 3.7205-2.2501 5.763l9.0484 5.2354c.603-1.2122 1.4008-2.6415 2.4092-3.6296 1.0946 1.0989 1.2724 4.9802 5.7701 4.6169 1.4451 2.1092 3.13 7.6904 7.107 6.0095 1.6803 1.3884 1.6455 4.1226 7.5936 4.6524 1.2996 1.3573 2.6871 5.9687 6.266 3.8962 2.4986 2.3629 6.9008.7116 7.8468-.8111l9.1343-24.3683c-1.0907-1.6935-1.6368-4.3908-6.2467-3.2542-2.078-1.6226-4.274-4.64-7.2893-1.803-.8537-3.5101-5.0453-1.938-6.7808-1.3537-1.9311-.6982-2.2229-3.1925-6.8009-.8547-1.7559-1.3312-3.2496-3.344-6.0033-.6557-3.4658-4.0513-5.3941-1.3685-6.373-.9052-6.5903-3.665-10.8314.7648-13.4313 7.4621z" fill="#e5e5e5"/><path d="m231.5143 387.5332c-3.0719 3.4464 1.5975 5.997 3.9063 3.4062l164.5003-184.5916 6.0313 5.3437c1.0677.9517 2.6733.8802 3.625-.1875.9517-1.0678.8802-2.7045-.1875-3.6562l-6.0313-5.375 4.5625-5.0937c.9517-1.0677.849-2.7045-.2188-3.6562-1.0678-.9516-2.7046-.849-3.6563.2188l-4.5313 5.0937-6.0625-5.375c-.5339-.4759-1.2161-.6941-1.875-.6562s-1.3054.3411-1.7813.875c-.9517 1.0677-.849 2.6733.2188 3.625l6.0625 5.4062z" fill="#c87137"/><path d="m260.1917 337.6664c-3.1542 8.125-7.6432 20.554-14.7836 25.4224-2.4343 1.6598-5.8851 5.4995-6.0983 8.6203-1.2059 1.5976-5.7272 4.699-7.7462 7.8401-.9732 1.5142-1.4187 3.0555-.7321 4.4895l14.9328.5741c4.2144.162 4.5155-8.9267 4.7794-13.9099 4.9764 2.672 5.7567 1.1452 8.3876-4.4697 1.4119-3.0132 4.8542-11.1268 8.0585-17.5684.603-1.2122 1.4008-2.6415 2.4092-3.6296" fill="#e5e5e5"/><path d="m239.291 371.7118c1.2438 2.9987 7.2541 3.5094 10.9117 3.6232" fill="none"/><path d="m237.1913 384.2832c-3.2433-1.3156 1.3543-7.1202 4.0362-10.4459" fill="none"/><path d="m445.1214 317.0893c1.4648-.9797 5.965-2.1659 8.1508 1.875 1.1928-.2733 4.2604.1286 3.9066 4.5563 1.2404 1.2322 3.777 1.4389 3.0599 6.0833 1.7069.8265 2.3139 2.9591 2.4148 5.6416 3.3961 2.6561 2.8884 4.8284 2.7623 7.0169 1.506.097 1.7935 2.2089 1.6318 4.9722 1.6124 2.7524 2.3811 4.7773 1.2977 8.2678.2856 1.366 1.1522 2.5285 1.1522 4.2655 0 .919.1015 1.982-.9826 3.8915.331 1.5481.9036 4.7537-1.231 5.8606.5544 3.2944-.5799 3.5109-2.8111 3.3576-.5009 1.2921-4.4231 1.3739-5.9002-2.1251-2.235-.3304-3.7014-2.2927-3.5054-3.6043-2.4666-1.5505-3.8605-3.5863-2.1233-6.5352-2.3945-1.8971-2.8216-4.2275-1.8714-7.4128-.9973-4.7988-1.8411-10.7677-2.1925-18.3392z" fill="#e5e5e5"/><path d="m319.0952 248.591c-6.0085-1.8304-10.8661-5.5408-17.969-5.5408-6.3514 0-11.2376 1.3047-6.4833 7.1355 2.7308 3.3491 5.1469 5.8285 8.4721 8.1905 4.2268 3.0025 12.1688 1.1152 17.7497.1131" fill="#e5e5e5" fill-rule="evenodd"/><path d="m293.8096 277.8578c-2.1828-4.9847.6768-11.1411 1.1491-16.5089.6846-7.7789 6.4594-9.1423 9.4873-10.7649.4858-4.0766 5.9426-6.9037 10.4055-4.3203.9667-2.7301 3.3088-4.2986 5.5892-1.205 1.7728-1.4302 3.5718-2.0587 4.9338-2.0587 1.6144 0 2.5131.9384 2.2732 2.5882 3.3735-.9745 5.2778-.1426 7.4082 1.5214 1.066.8326 1.5327 1.732 1.5327 2.6925 2.7392.794 5.004 2.4171 7.3009 4.2153 2.3223 1.8181 3.5022 5.0247 5.9021 7.0022 6.1549 5.0714 13.74 12.427 13.3945 15.9834-.1967 2.0252.5305 3.9906-1.4068 4.7232-1.2809.4844-2.5135.2095-3.9165-.1331l-6.5955-1.6106c4.1431 2.2186 8.3584 1.5291 7.7392 4.6146-.5016 2.4993-3.6222 3.4139-9.2695 1.5439-4.5998-1.5232-6.9325 1.0664-11.2268 2.0859-2.4244.5756-6.825-.4111-8.4841-1.0085 1.0797 4.3094 1.585 6.8713 1.6194 9.1661 3.1999 3.9757 4.3272 4.6535 2.4933 7.216 3.0715-.2946 6.345 1.0491 6.8545 5.6986 3.6522-3.7149 5.7222 1.511 6.6635 2.5247 2.4876-.9486 5.8664-1.7134 8.3594 1.729 2.489-5.1344 4.9728-2.4217 7.4553-.8848 6.1233-5.4006 7.6904-1.2342 10.3078-.6109 3.841-4.5305 7.2643-2.1395 8.9182-.9312 1.8997-3.9005 5.6531-3.408 11.6666-1.4286 1.3908-4.1355 7.6595-2.5953 10.0903-1.5401 2.6477-1.9094 4.9208-2.2678 7.6165-1.3993 4.6017-2.9306 6.9209.0538 9.5573.7841 1.2833-1.0749 3.6408-2.1145 7.7179 1.0306 2.3575-1.3696 7.2193-1.0874 9.6207 3.1533 5.7269-2.1006 5.0016 2.1053 6.5397 3.4901 3.8431-.0661 4.5525 2.254 4.656 5.9814 3.0819 1.9479 5.6717 3.9923 4.3778 7.9056 3.1608 3.1947 1.6016 6.0846.3297 8.614 2.6107 5.1179 2.4283 8.3143-.1249 9.1139 1.0068 1.2854.6993 4.3342-1.7056 4.9584 2.079 3.9595-.1724 7.2115-2.8704 7.0567.7695 3.0299-2.4742 7.5242-5.4632 6.0752.9734 2.4995-1.375 6.1003-5.0885 4.8378-.9873 3.0391-3.0664 4.6544-7.4247 3.298-1.7858 4.5558-2.7482 5.8524-6.7377 2.7709-1.6672 4.9282-6.5422 5.2019-9.7632 2.8153-1.497 1.4202-1.7702 5.2075-6.5818 2.3099-2.1355 2.6844-6.4543 3.1831-9.0714.0177-.026 3.6761-5.2153 4.2567-7.2171 1.797-2.0116 2.5801-4.1499 2.6518-7.6524 0-3.2635 4.8939-6.5325 3.1771-9.7908.9726-2.9113.2285-1.4984 5.0184-8.6346 1.1651-4.3718 2.123-6.8842 1.5828-8.4719-.2848-2.5522.5904-6.3483 3.1358-8.8404.501-5.2012 2.1658-4.6414-.4962-6.8085-.8941-3.0828 1.1064-6.2618 1.6037-9.046-.8247-2.9207.5951-7.4655.6548-7.9368-3.3259-3.0731 1.4062-8.6333 1.8401-10.5287-3.9358-3.9296 1.4709-6.3556-1.4575-6.8392-5.1819-2.4619 1.3873-5.7869-1.4126-6.5265-6.8342-1.0667-1.3718-6.1895-.5052-4.2419-6.0617-3.2067-.5339-4.6036-3.1255-4.8204-6.1755-1.4917-1.9551-3.3911-3.5011-1.6437-6.3416-2.4547-1.4293-3.9052-5.9317-2.2258-7.9032-2.6574-3.3814-2.7671-3.1535-.641-8.585-2.9285-2.1921-2.7095-6.6279-.085-9.0427-.8842-1.4637-2.9124-3.931-2.9124-6.2141 0-1.4221.012-5.2877 1.7007-7.3859-1.068-3.3969-.1026-4.5966 3.3931-10.0309-2.4902-2.7459-.8627-7.7752 1.0434-9.3354-.7994-4.8001-.5927-5.9226 2.4966-9.1911z" fill="#e5e5e5"/><path d="m343.4592 263.7388c-.1786 2.9011-4.6281 6.469-6.7728-.0582" fill="none"/><path d="m335.2191 263.6552c4.5696.4691 6.9965-2.3818 10.109 1.6926" fill="none"/><path d="m356.6361 274.1002c.3627 1.1393 3.6071 2.5346 3.8259 1.7252.2082-.7703.098-1.3254-.1469-1.8401" fill="none"/><path d="m341.2723 265.2432c.222.4532.033 1.0062-.4239 1.2347-.4562.2284-1.006.0467-1.228-.4065-.222-.4533-.033-1.006.4239-1.2346.4562-.2285 1.006-.0467 1.228.4064z"/><path d="m307.9516 256.3694c-5.8622 2.1995-11.034 2.163-17.5717 6.5248-5.2669 3.514-8.1063 8.0267-.7646 9.6251 3.6548.7958 7.3781 1.2818 11.6896 1.3637 5.1766.0982 10.2899-6.518 14.0857-10.7117" fill="#e5e5e5"/><path d="m336.5886 249.8021c0 3.1338-4.4475 6.0644-7.5746 6.4625-.2551 1.7787 2.1849 6.689-4.6959 5.3008 1.4672 3.0385 3.1643 7.7535-1.1587 8.7884" fill="none"/><path d="m330.0261 287.2183c-2.7195-.9793-8.2479-1.5434-10.1461-6.4871" fill="none"/><path d="m442.3094 360.1161c1.9828 2.281 3.851 2.8691 4.0288 6.791 2.0117.7694 4.5809 2.3814 3.6226 5.704 1.3584.9821 2.9225 2.4339 2.5155 5.2803 3.7066 11.0094-2.5348 14.1085-9.8881 14.1085-3.2609 0-6.6821-.6853-9.3916-1.5634-5.808-1.8823-26.431-2.5939-31.276-.9904-7.259 2.4024-6.8378-3.0505-5.4006-6.4752-2.6935 3.3315-7.3228 9.029-10.4858 9.029-.547 0-1.062-.1815-1.532-.5502l-11.762-9.2247c.8883-4.8726 11.2675-4.1582 14.0872-5.0219 8.1625-8.4034 15.9887.4992 26.7285 1.0883 1.368.075 3.4434.1367 5.8335.1335-.7806-.5018-1.3981-1.2983-1.8434-2.3562-1.8991.6058-6.1608-1.8861-5.661-3.6035-2.4974.2123-7.4026-2.8288-5.8638-4.9595-1.6227-.685-7.3932-2.3226-5.2874-7.2177-2.4326-.7931-1.9252-5.487.039-6.6543-2.6939-2.2539.2445-6.2073 2.7655-6.7108.2083-1.8551-.175-3.9977 4.6753-4.6762" fill="#e5e5e5"/><path d="m386.8273 377.2032c-.7518 3.1584 3.8183 7.0978 6.7149 9.3356" fill="none"/><path d="m377.7494 386.1538c-1.8558-2.9681 5.2753-4.9725 9.3996-6.0931" fill="none"/><path d="m419.3894 378.425c2.8128-.003 6.0679-.0833 9.1304-.2672" fill="none"/><path d="m343.6627 353.7857c.7406 1.0387 3.4054 3.8187 2.7947 7.2033 3.6944 1.8616.8684 5.4364.3331 6.4404 2.8126 5.2688.2965 6.166-1.1038 7.12.5967 1.1552.6962 2.2638.3172 3.127l8.8253 12.0635c-.698 1.4287-2.781 2.2602-4.5816 2.2602-3.4501 0-8.3514-1.2976-10.3532-1.251-1.27.8717-3.3229 1.251-5.4124 1.251-2.0995 0-4.3475-.2889-5.7596-.9318-7.8677-3.5824-21.4219-1.5289-30.0397-.2039-1.5657.2407-4.3634 1.1357-6.3049 1.1357-2.2297 0-4.6282-1.1279-6.3203-4.8383-.5782-1.2677-.9213-2.804-.8785-4.4435.1444-5.5257 2.8969-9.3395 11.1038-12.0683 1.9664-2.1375 3.6643-3.1185 6.2665-1.2006 1.7064-3.4499 4.4854-4.0731 6.5845-3.3999-.2147-2.7112 1.6428-3.7352 4.4043-5.5976-3.1255-2.1366-3.2586-5.2158-2.0516-6.666" fill="#e5e5e5"/><path d="m339.9081 390.7623c1.579-2.8371-1.7537-7.866-3.9363-10.8041" fill="none"/><path d="m351.0708 384.6024c.9828 3.3594-6.4248 3.3593-10.6986 3.3219" fill="none"/><path d="m304.7683 379.4541c7.1818-.4724 15.9288-1.5807 19.2444-1.8769 6.1785-.552 7.9053-.6509 8.1006 4.9945 4.0717-2.8874 11.3999-8.2999 13.8906-4.8954" fill="none"/></g></g><path d="m350 1.5c-8.6992 12.2354-11.7524 20.3802-11.75 28.7188.003 10.3977 4.0152 17.0831 6.5625 26.3125l-1.2813 1.3125c-4.962-17.8062-19.063-24.3145-25.2188-16.5938-5.3493 6.7094-3.6786 25.9725 13.2813 28.5313l-261.8125 261.8125c-2.5588-16.9599-21.8218-18.6307-28.5313-13.2813-7.7207 6.1557-1.2124 20.2568 16.5938 25.2188l-1.3438 1.3125c-9.2144-2.5471-15.8945-6.5876-26.2813-6.5938-8.3386-.0049-16.4834 3.0508-28.7188 11.75 12.2354 8.6992 20.3802 11.7524 28.7188 11.75 10.3977-.003 17.0831-4.0152 26.3125-6.5625l1.3125 1.2813c-17.8062 4.962-24.3145 19.063-16.5938 25.2188 6.7094 5.3493 25.9725 3.6786 28.5313-13.2813l261.8125 261.8125c-16.9599 2.5588-18.6306 21.8219-13.2813 28.5313 6.1558 7.7207 20.2568 1.2125 25.2188-16.5938l1.2813 1.3125c-2.5473 9.2295-6.56 15.9148-6.5625 26.3125-.002 8.3386 3.0508 16.4834 11.75 28.7188 8.6992-12.2354 11.7548-20.3802 11.75-28.7188-.006-10.3868-4.0466-17.0669-6.5938-26.2813l1.3125-1.3438c4.962 17.8062 19.0631 24.3145 25.2188 16.5938 5.3494-6.7094 3.6786-25.9725-13.2813-28.5313l261.8125-261.8125c2.5588 16.9599 21.8219 18.6306 28.5313 13.2813 7.7207-6.1558 1.2125-20.2568-16.5938-25.2188l1.3125-1.2813c9.2295 2.5473 15.9148 6.56 26.3125 6.5625 8.3386.002 16.4834-3.0508 28.7188-11.75-12.2354-8.6992-20.3802-11.7548-28.7188-11.75-10.3868.006-17.0669 4.0466-26.2813 6.5938l-1.3438-1.3125c17.8062-4.962 24.3145-19.0631 16.5938-25.2188-6.7094-5.3494-25.9725-3.6786-28.5313 13.2813l-261.8125-261.8125c16.9599-2.5588 18.6307-21.8218 13.2813-28.5313-6.1557-7.7207-20.2568-1.2124-25.2188 16.5938l-1.3125-1.3438c2.5471-9.2144 6.5877-15.8945 6.5938-26.2813.0049-8.3386-3.0508-16.4834-11.75-28.7188z" fill="none" stroke="#000" stroke-linecap="round" stroke-linejoin="round" stroke-width="3"/></svg>