<?xml version="1.0" encoding="utf-8"?><!DOCTYPE svg PUBLIC "-//W3C//DTD SVG 1.1//EN" "http://www.w3.org/Graphics/SVG/1.1/DTD/svg11.dtd"><svg viewBox="0 0 580 680" xmlns="http://www.w3.org/2000/svg"><g stroke="#000" stroke-linecap="round" stroke-linejoin="round"><path d="m.5 69.5c24.083 24.098 40 54.636 40 90.5v354.75c0 68.898 55.852 124.75 124.75 124.75h62.375c27.289 0 50.92 17.163 62.375 40 11.455-22.837 35.086-40 62.375-40h62.375c68.898 0 124.75-55.852 124.75-124.75v-354.75c0-35.864 15.917-66.402 40-90.5l-69-69-18.7 18.7c-13.233 13.233-31.607 21.3-51.8 21.3h-300c-20.193 0-38.567-8.067-51.8-21.3l-18.7-18.7z" fill="#e5e5e5"/><path d="m47.625 556.333c17.1301 48.4441 63.3139 83.167 117.625 83.167h62.375c27.289 0 50.92 17.163 62.375 40 11.455-22.837 35.086-40 62.375-40h62.375c54.3111 0 100.4949-34.723 117.625-83.167z" fill="#008f4c" fill-rule="evenodd"/></g><g stroke="#000" stroke-linecap="round" stroke-linejoin="round"><g><path d="m91.3213 556.6911c0-14.3471 16.8333-26.4522 27.3902-51.0032 11.8803-27.6285 66.7587-50.6752 82.7897-77.735 12.6344-22.5212 34.7948-56.049 62.8649-60.9369l24.2543-6.0624 27.0137 6.0624c23.1618 6.352 29.1673 36.7118 43.2826 51.4586 28.0796 9.4644 45.8458 27.4862 61.8329 52.3046 20.8795 7.4449 18.5853 35.2919 35.355 50.1175 15.7938 13.9629 32.5743 22.1983 32.5743 35.7945 0 5.7028-100.4721 7.8323-127.5808 2.2294-18.426 6.9769-146.3596 3.8651-178.3251-1.1287-11.3154 8.3399-91.4517 4.4996-91.4517-1.1008z" fill="#c87137"/><path d="m358.9166 418.4746c-13.7573-5.5754-29.0372-8.0338-45.1565-16.6748" fill="none"/><path d="m420.7495 470.7144c-11.4274-4.137-22.7518-7.0219-36.3254-5.6235" fill="none"/><path d="m201.5011 427.9529c-9.0607 16.0371-16.1219 32.8098-17.2464 43.8417" fill="none"/><path d="m255.1685 400.3668c-17.9553 18.3494-12.5169 29.8462-27.1344 53.5842" fill="none"/><path d="m285.4934 427.5638c14.4877 4.4156 42.0528 46.6653 49.6618 56.6005" fill="none"/><path d="m223.368 519.2251c35.8341-27.8125 59.1416 8.0377 72.5262 14.234" fill="none"/><path d="m182.7731 557.7919c6.6363-3.8593 14.9636-12.6966 19.4144-20.134" fill="none"/><path d="m361.0981 558.9206c-10.0683-2.5642-25.1547-8.6718-34.8841-22.2818" fill="none"/><path d="m368.6036 501.402c26.0017 16.9234 15.9327 29.7503 40.9754 37.5766" fill="none"/><path d="m132.5073 542.7363c47.8909-18.9928 65.041-57.624 91.7068-67.6379" fill="none"/></g><g><path d="m228.977 247.216c-2.184-.7515-4.4059 5.1758-6.2766.1414-3.5779-2.9786-2.3129 11.6605-6.2221 5.3884-.7994-5.2643-3.8133-2.2006-5.9696-.4344-1.6272-.6527 1.6278-4.6403-2.1524-2.843-4.7217 3.3418-2.0712-6.7065-6.3175-3.8037-3.8375 1.6824-.3439-7.7212-5.5049-5.8814-5.4556 1.61-4.925-7.4224-10.3875-6.0894-4.985.1149 2.6429-9.2473-3.4613-6.1583-3.4896 2.2558-3.9236-1.3135-3.6431-4.4036-1.5242-2.1168-6.4473-4.7081-1.4103-6.0641 5.2162-1.8547-.2501-4.0623-2.0027-6.1698 1.1643-1.4675 7.6833-2.9499 2.5365-3.8359-1.0886-1.6077 1.6285-6.6387-1.5484-3.5532-5.638 1.5468 0-8.9083-4.099-7.6362-5.1139-1.4065-2.1047-6.6134.5734-7.6557-2.2681.8389-8.7591-.0344-4.6684-3.6014 3.0835-2.1811.1918-2.8269-1.2119-3.3096-1.5132-4.584 9.997-5.0655 2.8128-4.5644-5.4309-4.2783 3.07-6.9938 6.3113-5.5826 2.4652-.4436-4.5972-5.3103-1.5054-4.8793 1.0216-1.6318-5.4862-3.1648-1.3131-5.7481 2.4101.5206 4.8181-1.8616 1.7327-3.6221-5.3883 1.1434 2.9332-6.8501-2.6326-6.1813-3.9921.4149-4.0939-2.3374-.6321-3.6877 2.8492-3.6279 7.1941-4.9724 9.5873-.3229 2.3251 2.6879 8.3259-1.8513 5.2059-3.0522-4.2308 2.234-2.1888-2.3133-2.8515-4.145-4.4342 3.2532-.8537-4.0876 4.0054-3.5739 3.2764-.6435-.3157-5.6849 3.5553-3.2245 2.2572 1.8846 5.6352.2942 6.3355-.9009 2.2399 6.4111 8.7057-1.3411 10.2264 4.6162-1.1015 4.4392 4.7196 4.5334 3.295-.1908 3.2446-1.8834-2.1871-5.9296 1.7534-4.9023 3.6022-.4849-2.0138-6.9133 2.4975-4.176 1.9012 1.7123 4.5656 6.5261 4.1683.5068 2.1886-3.6991 5.8971 4.8609 8.8547.5447 4.4571 1.1722.3766 18.4899 6.2618 11.5824" fill="#008f4c" fill-rule="evenodd"/><path d="m396.0543 179.5444c-.2413 3.2981 11.2925-1.7387 9.5535 4.2542-.6898 8.0027 7.0531-5.316 8.3139 1.7215-3.2715 3.8129-1.8393 6.2491 2.4324 6.4652 3.7267.8987-5.1091 2.2293-.2872 4.122 5.786 2.0903-4.1125 8.7118 3.4331 9.6116-2.7193 3.0085-4.996 6.5306-1.3913 10.4895 2.8278 4.1657-3.4564 9.0312 1.3913 13.0889-1.2881 3.444-3.5261 3.5095-3.9006 5.57 1.7554.8251 3.9006 2.3799 3.9006 4.0531 0 2.4684-5.1737 5.1149-2.8967 9.2863-.9587 4.1554-8.7505-5.1287-6.3082 3.2429 2.2949 7.6591-4.3778.1839-5.2348 1.6364 3.4363 4.2128-2.8869 3.9451-2.1132 6.1595 6.5893 1.4341-1.4945 8.3946-2.2636 8.0211 3.4161 4.1646.3702 10.663-4.0276 6.7731-2.962.1149 6.6706 5.9377.97 7.5856-2.9245-.9251-5.473-.6022-2.2049 3.0706-2.029 4.5288-7.3073-1.8915-7.2916-.8182 5.1968 3.6371-.1532 8.8451-3.4046 4.3565-2.1246-2.026-3.8911-7.8775-5.1359-3.4314-2.8343-2.712-3.3882-2.0306-2.2304 2.0524-1.9677 6.7697-6.2122-5.74-7.0626 2.5293 5.1128 4.9977-9.0878-1.1158-3.2839 4.8288 1.3026 2.0283 2.3658 4.3266 1.6075 5.2034-2.8465-1.202-5.9235-1.7743-7.4913-1.9582-3.761-.8872.4068-6.3813-3.3383-9.2094-1.6154-3.8715-7.6547 1.2158-2.0583 2.4075 1.6156 2.6879-6.652 2.9809-1.5749 5.2011 1.7961 1.425-.2392 3.559-2.2293 3.559-1.7103 0-2.4575-2.843-3.1387-4.2519-1.5421-1.5755-1.1607 4.2519-3.1592 4.2519-2.0924 0-1.6265-1.1411-1.905-3.0464-.652-3.8393-2.5714-1.1009-5.0878-.5803.4905-3.5026.9287-7.6419-2.8859-8.1533-4.352-4.0404-3.342 2.9671-6.9649-1.0607-2.2125 3.8842.7474-8.3716 1.0573-3.3429-1.7665-2.681-3.7877-3.4808-4.3036.8596-2.74 3.0936.5912-10.9124.2268-9.5449-2.4745 2.242-5.0087 4.6587-4.7739-1.1606.2019-3.8439-1.3997-3.8968-3.2791-5.393-1.254-4.8287 10.5777-9.1565 10.1739-12.1121-1.104-.3379-6.6867-2.989-7.7713-3.4888" fill="#008f4c" fill-rule="evenodd"/><path d="m171.4633 187.8896c1.3719 3.3165-7.4846-1.1308-4.4906 4.1347 2.9703 8.7118-5.3283-1.5249-6.4727 4.7104 4.2435 4.1795 5.2093 7.0122 0 9.2162.6657 1.1112 1.3775 1.3698 2.631 2.0179-3.5087 3.9772-.8223 7.0087 1.5184 9.9517-3.3519 3.0027-.7164 5.3643 1.8976 6.6927 1.3157 4.6713-2.1356 11.6226 2.3001 14.5886 1.7363 3.5382-2.2008 11.256 2.9485 9.7471 6.4009-1.1687-4.1394 8.3958 1.9986 9.1565 3.6333.3264-2.1444 7.4684 6.1858 5.7102 4.5577-.9595-3.94 5.0437-1.8639 6.2951 2.048.8688 3.2319-.7332 5.4021-.208.5191 2.9706 4.4441.4964.5101 4.4254-1.599 5.4286 5.3448 5.3459 5.4372 5.8067-1.5284 7.4925 3.3415 10.4573 6.0216 4.8299-.8379 2.2121-2.9897 10.7941 1.3888 8.5773 2.7143-4.0577 8.0849-2.1823 8.6203.4861 2.7775 4.2174 6.4204-10.3114 4.3463-2.1512-1.0907 8.182 6.0448 3.2441 5.3532-2.4971.2317-3.1234 1.4405-4.985 2.5011-2.2477.8404-2.897 1.662 1.4296 1.6161 6.3525 2.5142.7895 2.7196 2.5477 3.3806 5.9228 3.6345-1.7835.1713-3.4199 4.6688-6.1342 5.078-3.051 3.2844 3.644 5.2093 6.1342 2.4518-2.7867 7.5192-7.0846 3.5012-12.4465-1.0481-4.6817.7347-11.0997 4.0021-7.7603-1.8104 2.1662-2.2589 6.5054.9271 5.0885 3.3325.4964-2.6365 5.4079 1.49 6.6847 2.7869 5.9871 3.695-8.0705 6.6457-1.117 1.5795-1.4928 1.5285-9.8793 6.0101-7.7005-1.0463-3.8957 5.4378-3.7968 8.6101-6.533 2.1955-6.6249-4.6545-4.5334-3.4533-11.2204 2.2703 2.4994 6.0542-.8159 7.0646 4.0175.462-5.4206 2.3803-3.9715 4.1048-.2528 2.7162-1.9869-5.1798-12.851.2331-9.0002 4.962 2.4328-1.9857-10.0276 2.4101-10.5872.125-6.0549-5.5702-6.1664-6.3914-9.3737.8057-.8791 1.7637-1.3617 2.5076-2.4029" fill="#008f4c" fill-rule="evenodd"/><path d="m310.7495 250.6141c2.6313-.755-.4813 7.2075 4.1359 4.4197 6.5541-1.6261-3.3469 7.4764 1.7745 9.723 2.7115-3.5555 5.279-4.1496 5.6822 1.4606.9398 5.0184 1.7682-6.3284 3.627-.1149 1.942 5.74 6.5235-6.6215 7.3224 1.5709 2.5952-.5895 4.191-7.2811 7.6761-2.7637 4.0406 4.4898 7.7492-4.353 11.8275 1.0837 3.161 2.2007 2.2344-11.3008 5.4695-3.6739 2.8707 6.911 4.4342-5.3677 9.2412-2.6442 4.2244-.4746-4.593-9.1277 1.4638-7.7304 2.822.0574 5.3465-.0575 2.6088-3.4509-2.1345-3.2303-1.1718-3.2165 1.6711-2.3167 1.1313-1.148 1.4586-7.1742 2.8289-2.2041 2.9531 4.3128 5.5001-5.2964 5.6263-5.3827 3.622 3.4624 8.6293-.8676 5.1094-5.5768-.3249-3.7773 5.3088 7.173 6.1932.1919-.969-3.2659-.9825-6.3893 2.247-3.0257 3.5297-2.9097-2.0883-8.2533-1.2634-8.4233 3.3328 5.6274 7.1318-1.2779 3.2282-4.5334-1.7887-2.2225-6.7011-3.5624-3.2121-5.5735-2.4054-2.9832-1.9234-3.7221 1.4571-2.889 4.9179-2.8844-5.1221-7.9453 1.8091-8.2211 4.2758 4.2507.8432-9.2932 5.9582-3.783 5.6104 4.4082.9571-5.7895.3966-8.6911-.9974-4.5311-6.0618 1.6525-8.6927-2.4006-3.2667-1.3261.2752-9.1576 1.7028-2.758 2.3312 1.5663 1.9371-8.3509 4.3172-2.1202 2.3197.9124 6.301-3.4739 2.6222-5.971-3.3196-2.211 4.2252-5.139-1.1094-5.5366-2.7026-.9113-5.4264-1.1112-4.0339-5.0149-3.0352.7941-6.1625 2.1857-7.0923-2.4994-3.8793-4.399-4.3058 5.0471-8.3654 1.9559 2.7213-2.7809.302-7.9866 4.1024-7.9016.2169-1.6812-4.2335-3.7106-.03-5.0103 4.4674-3.8761-7.1118-.6516-5.9172-.9297 1.6064-3.2038 3.3056-6.4675-1.3447-5.4482-3.0455.7113-3.2753-1.1009-4.6107-3.1544-3.9905-.8722-5.3894 6.2779-7.8125 6.2445-.3707-1.2549-.4188-2.6132-.9283-3.8198" fill="#008f4c" fill-rule="evenodd"/><path d="m325.5647 123.4587c1.682.8883 1.2819-5.9182 3.894-3.4957 4.2017 1.6042-.2606-5.8676 3.3935-8.0292 1.3988 2.2041 2.6528 4.5104 4.2995-.4011 2.1367-5.0069-.0252 4.9333 2.7553-.231 2.6954-4.8023 2.9491 5.6217 5.3778-.6815 1.8749-1.0469 1.1334 6.2526 4.361 2.5959 3.8302-3.9968 4.5483 3.2004 8.1006-.0459 4.3539-4.045-.3554 8.5176 3.6213 3.1567 2.4794-4.0048 2.8999-1.2147 3.5581 1.4939 1.5827 1.1021 5.0953.4758 1.7768 4.1979-4.4047 4.5289 2.7393 2.2788 2.3405 4.2622-1.2232 1.9007-4.9101 5.6688-1.1709 3.8773 1.5154.177-.5622 6.7341 1.9976 1.7329 3.1255-2.7431 2.312 5.1402 2.4977 5.0184 4.3032-3.0096 5.204 2.1271 1.8849 5.8458 1.2229-1.2239 6.1801-5.1505 4.4709.0918-2.288 3.2579-.6703 2.835 1.1561 2.2133 2.0347 2.4857-6.3801 9.0921-1.7014 5.3769 4.5247-2.5776 1.1081 6.0342-1.8384 6.2514-1.3299.8458-3.5311 2.3293-1.6738 3.213-2.0023 1.8111-2.9642 3.259-.1114 2.5362 2.3148 1.1515-.1172 4.2105-2.0459 4.9218-.0006 2.9499 2.1279 1.8237 3.3441 1.2779-.7274 2.8683-1.5562 6.7272 1.9339 3.9611 4.4814-2.7522-1.1183 4.9173-1.9711 7.088-1.7035 4.3909-3.9955-1.3698-6.8244 1.9214-2.395.5137-2.2315 7.6706.1771 2.7557 2.5829-2.4741-.4881 6.9513 2.7867 1.6594 2.2751-1.1641 3.2685 3.9899.1044 5.3769-2.2572 1.7536 2.0373 3.9761-1.6019 4.1795-2.1781.6045-4.2502.7355-4.0899 4.0186-1.8739-.324-3.8263-2.5442-5.3258 1.4663-2.2902 2.0788-3.4037.7676-3.4116-1.8295-1.2083-.5252-3.6177-.0344-1.9588 1.9157-1.1483 2.5776-.3776 5.1333.7179 5.447-3.832 1.5652-1.1017 3.3314-.775 5.1609-2.2775 1.7709-6.0471-3.991-4.7122 1.3227.3434 4.8966-5.2332-.4827-6.1468 4.4564-3.2991 1.1296-2.4983-6.3422-4.4947-5.1356-.4728.9182-.7645 1.9226-1.3455 2.7798" fill="#008f4c" fill-rule="evenodd"/><path d="m251.1729 256.7724c2.6312-.678-.4813 6.4491 4.1359 3.9543 6.5537-1.4537-3.347 6.6904 1.7743 8.7003 2.7116-3.1808 5.2793-3.7118 5.6823 1.3066.9398 4.4932 1.7682-5.6619 3.627-.0918 1.942 5.1379 6.524-5.925 7.3225 1.4066 2.5949-.5263 4.191-13.6451 7.6761-9.6012 4.0407 4.0175 3.1532 3.3257 7.2315 8.1912 3.1611 1.9685 8.3928-7.5971 11.6277-.7711 2.8707 6.1848 2.1135 5.5125 6.9206 7.9476 4.2246-.4217-1.5594-5.1252 4.4975-3.875 2.8217.0574 5.3459-.046 2.6084-3.0889-2.1345-2.8901-1.1715-2.8775 1.6714-2.0731 1.1311-1.0262 1.4583-6.418 2.8288-1.9708 2.953 3.8577 2.846-13.4842 2.9722-13.5612 3.6217 3.0993 8.6289-.7734 5.1089-4.9897-.3247-3.3785 5.3086 6.4204 6.1932.1735-.9688-2.9223-.9823-5.7182 2.2472-2.7097 3.5295-2.6017-2.0884-7.3834-1.2638-7.5362 3.333 5.0345 7.1319-1.1446 3.2285-4.0565-1.7884-1.9903-6.3219-10.4114-2.8329-12.2087-2.4058-2.6718-1.9234-3.3325 1.4573-2.5868 4.9176-2.581-5.1228-7.1098 1.8088-7.3569 4.2757 3.8037.8431-8.3142 5.9583-3.3843 5.6102 3.9439.9569-5.1804.3965-7.7775-15.2036-1.2009-4.6093-9.5874-2.6729-6.5134 2.3196.8182 6.3015-3.1085 2.6226-5.3424-3.3195-1.9777 4.2252-4.6001-1.1098-4.9552-2.7023-.8136-5.4258-.9929-4.0335-4.4875-3.0349.7125-6.1625 1.957-7.0924-2.2363-3.8792-3.9347-4.3057 4.5162-8.3653 1.7514 2.7214-2.4891.3021-7.1466 4.1027-7.0719.2169-1.5043-4.2339-3.3188-.0299-4.4829 4.4672-3.4682-7.112-.5838-5.9175-.8309 1.6066-2.8683 3.3058-5.7883-1.3446-4.8759-3.0454.6366-3.2755-.986-4.6107-2.8235-3.9907-.7791-5.3894 5.6194-7.8127 5.5895-.3703-1.1239-.4186-2.3374-.928-3.4199" fill="#008f4c" fill-rule="evenodd"/><path d="m179.0876 198.7744s1.0159.347.9922.763c-.0837 1.4847-3.5105.8458-3.8198 2.3006-.434 2.0398 6.557 5.6872 3.5822 5.131-3.8831-.7274-11.7014 1.9053-8.541 3.0786 0 0 4.8271.1574 5.3198 1.9777.5761 2.1374-5.3699 3.2418-4.216 5.1298.7319 1.1974 3.2002-1.9628 4.1134-.8987 1.1031 1.2894-2.5235 3.2016-1.83 4.7483.7778 1.7341 4.7402.2023 5.339 2.0088.4189 1.2641-2.6759 2.1363-2.1545 3.3601.7822 1.8375 4.5286-.3137 5.8729 1.1618 1.6606 1.8226-.6073 5.3034.7567 7.3592.9554 1.4376 3.6071 1.0377 4.5444 2.4868 1.0806 1.6732-1.1244 4.7541.4633 5.9561 1.7484 1.3227 5.015-2.9511 6.4491-1.294 1.3845 1.6019-3.233 4.1738-2.1339 5.9837.986 1.6226 4.02-.2126 5.6427.7722 1.5254.9262 1.3064 4.3645 3.091 4.3726 2.2683.011 1.7172-5.5401 3.9854-5.5171 2.2353.011 1.5799 5.6355 3.8122 5.5183 2.0574-.1149.9107-5.6309 2.9607-5.4263 1.2202.1252.0184 2.9177 1.0894 3.5141 1.3408.7493 3.5551-2.3902 4.4606-1.1491.7879 1.079-2.1346 3.3923-2.1346 3.3923-1.7768 2.8246 4.6014-.616 7.6307.6286 2.7804 1.1446 1.4218 8.2958 3.2593 6.3353l4.4459-4.7403c1.7133-1.8271-2.2316 9.8471.726 7.3776 0 0 2.7348-4.592 4.5205-3.775 1.093.4987-.845 2.82.0655 3.6038.8524.7355 2.4531.2448 3.3491-.4367 1.611-1.2239.4215-6.1641 2.3638-5.5929 1.3192.3861-1.0642 2.7384-.6994 4.0646.2396.8699.8628 1.957 1.7597 2.057 1.4854.1643 2.8656-1.3789 3.5891-2.689 1.2417-2.2443-1.7092-6.6295.6348-7.6695.7267-.3229 1.1361 1.6824 1.896 1.4479 1.3083-.4034-.0702-3.8232 1.2965-3.8968 1.3475-.0804.5689 2.9235 1.686 3.6819.8738.593 2.3591.8435 3.163.1574 1.1287-.9596-.7644-3.6267.4883-4.4197.9801-.6205 2.6391.1747 3.2875 1.1365.6004.8895-1.0392 2.5948-.1639 3.2154 1.5879 1.1285 3.7265-3.182 5.4105-2.2041 1.9623 1.1411-1.2688 6.0618.8933 6.7502 2.0674.6596 3.0287-3.1119 4.4266-4.7725 1.0323-1.2261 3.0601-2.2248 2.9179-3.821-.1376-1.5502-2.7425-1.7617-3.4441-3.151-.8108-1.6042-1.5205-3.837-.5692-5.3631.7999-1.2848 3.172-2.6063 4.2611-1.5571 1.1412 1.1009-2.5116 3.336-1.4634 4.5242 1.1459 1.302 4.0262-2.3213 5.1074-.9676.7958.9975-2.0143 2.3305-1.5268 3.5095.6455 1.5617 3.1483 2.4983 4.7117 1.8593 1.6849-.686.5574-4.2611 2.2271-4.985 1.064-.4608 2.4286 1.918 3.2876 1.1388 1.8498-1.6789-3.0314-5.1425-1.7508-7.2891.5513-.9228 2.8255.2115 3.1188-.824.5391-1.903-3.9455-2.3282-4.0851-4.3001-.0793-1.1296 1.7181-1.6628 1.9677-2.766.2815-1.2457.3273-2.9648-.6615-3.7727-.9276-.7573-2.5419.6792-3.5906.0918-1.1747-.647-2.0532-3.4601-2.0532-3.4601-1.3313-2.2455 4.7708.8481 6.2689-1.6686 1.1059-1.8582 1.4105 2.9464 2.5673 2.581 1.3107-.4137-.5367-3.4624.6994-4.0646 1.5581-.7596 4.5752 2.4684 4.5752 2.4684 2.3685 1.2779-9.9912-6.256-5.4477-6.5962 0 0 4.9458 1.2767 5.9155-.4459 1.1707-2.0823-3.7122-4.0439-3.2482-6.3859.176-.8895 2.0603-.8642 2.0616-1.7697 0-.9366-2.1263-1.8364-2.1263-1.8364-2.3273-2.0099-9.511.4057-7.7051-1.5927l3.1289-3.4658c.016-.011-.0344 0-.0484-.011" fill="#008f4c" fill-rule="evenodd"/><path d="m245.0845 124.5527c-.3016-3.7807-8.6225-11.2709-15.9238-10.9526-2.4054.1149-3.3483 8.1705-5.6471 8.0786-2.3352-.0918-4.5047-6.0687-6.2832-5.7332-3.3963.6412-.5189 8.2751-1.8194 7.8258-3.9845-1.3744-6.0609-4.1795-6.4221-4.1956-1.4127-.0574-2.7327.0691-1.7922 2.6822.3997 6.5709-4.9663-3.3533-8.2934.1643 1.2766 3.2004 3.7442 6.2641-1.8123 5.9998-4.9972.2781 4.7427 2.3937-.3824 3.5543-5.6812 1.1974 4.4767 7.1731-2.2424 7.2006-1.5304 2.1363 5.7437 4.5955 1.6095 7.2845-3.1685 2.8028-1.8175 5.6596-.5427 8.9451-2.2389 2.8488-4.3717 5.6688.5575 6.595 6.1771 1.8398-7.5011 3.7164-1.0175 6.6594 3.8303 1.7433-.7697 9.5415 5.0142 6.3456 6.3649-4.4024-.1847 8.2659 4.863 4.9035 2.2857-1.1526 4.5607-2.2685 2.5276 1.0549-.4968 2.1041 6.3546 2.4822 1.4323 3.6267-3.9839 2.5374 3.8272 6.0538 3.8549 6.2031-3.3834 3.2659-.3077 8.7129 4.0717 5.7067 2.9937.1953-6.62 4.5828-.9129 6.1664 2.8949-.6309 5.5015-.2873 2.2511 2.5902 2.0503 3.8026 7.2723-1.2319 7.2912-.3781-5.1761 2.7637.2137 7.2523 3.4383 3.7049 2.1079-1.5663 3.8409-6.3031 5.1153-2.6086 2.8123-2.0949 3.3849-1.5364 2.2541 1.7651 2.0142 5.6217 6.1752-4.4415 7.0923 2.3523-5.0846 3.8911 7.6363 2.4064 1.8821 7.0397-3.8413 4.7931 5.2528 1.0906 7.6148.9504 3.7624-.578-.7104-6.2503 3.0153-8.4176 1.5552-3.1153 7.6871 1.2848 2.0982 2.0191-1.5649 2.1627 6.8331 2.8292 1.2531 4.5426-1.0259 2.2282 2.1711 6.6617 4.7359 3.2533 2.2802-3.0798 3.8281 4.7851 4.8279-.5321 1.0994-2.6281 1.6333-5.2724 4.7375-3.4843-.0391-2.6419-1.3922-6.5674 2.7187-6.5422 4.5029-3.2866-3.485-5.3482-.269-8.9198 1.4293 1.9904 4.7057 2.912 5.8168 2.7166-.3194 4.5943 1.6056.9699 3.5343.8159.8044 2.2121 2.6305 5.5148 2.7807.9894.8833-2.6316-2.3277-7.2213 1.4932-3.6336 4.6987 4.3082 1.352-6.9087 6.2576-6.225 1.2222-3.9083-4.6587-6.0664-4.3005-8.475 1.1059-.2344 5.0293-9.7954 6.1138-10.1758" fill="#008f4c" fill-rule="evenodd"/><path d="m342.4399 153.6619c-2.0028-1.8364 5.8322-2.9786 1.5561-5.5814-4.3208-4.7357 6.7039-1.0894 6.9141-6.0595-3.3-1.1756-6.6286-2.1524-2.1417-5.3344 4.3011-3.8048-5.4887 1.2112-1.3988-3.4141 3.7337-4.4346-8.0478-2.2478-2.4779-6.7169.038-2.5362-7.6587.1252-5.5213-4.6909 2.153-5.6263-6.3095-4.777-4.8309-9.8816 1.8917-6.2755-9.2879 2.473-5.7016-3.6566 2.9743-3.9807-.3912-3.8244-3.8075-3.9784-2.184-1.664-3.5984-6.094-5.7542-1.1595-2.4004 6.4525-4.1919-2.7914-6.1646-1.8295-1.3834 1.9455-3.3673 7.3408-3.6184 2.3558-1.1102-1.8053-7.1743 2.2983-3.1372-2.0191 1.1789-4.4663-7.1267-1.5865-7.1012-1.8416.7684-5.9645-4.5522-5.8314-6.7043-.8963.6315-1.7832.0265-6.5416-2.5434-6.5416-2.2549 3.568-5.2596 2.3745-5.6673 0-3.6692 0-5.606 10.1896-4.2781 3.5978.1533-6.1319-6.7927.0941-5.2617 3.7386-.1376 1.8248-2.2053-3.1208-4.3068-5.173-.8152 2.8736-.1205 12.3747-1.0334 8.7238-2.6767-2.5454-3.7584-6.8309-3.3916-4.3096-3.29.7071-5.4805.8838-5.604-.7273-2.7623 1.5737-5.2687 8.4487-4.2854 3.5338.3725-6.121-4.8108 2.5408-6.7204 4.1002-3.8733 3.128 3.935 4.5403 1.9663 8.7761.868 3.043-7.2149 4.5587-3.1819.4447 1.2069-3.7417-7.4605 2.2593-3.5292-2.9993-.0691-3.051-6.4176-3.0257-6.0612 1.1618-.5947 3.1705-5.6607-1.5307-3.6984 2.9522.6362 2.8005 1.7387 5.3562-2.0208 5.9504 1.4903 2.2041 5.1428 4.0496 1.5714 6.8386-.9427 3.2889 1.1932 4.33 4.0949 3.7187 1.3131 1.348 2.2178 4.4001-.9582 2.8453-2.1843 2.0179-5.5005 1.6916-6.5088.4321.5608 5.0448-3.0548 2.1397-5.2921 2.18-.6039 3.1993 8.0934 6.4123 1.3625 6.0607-5.6704.7527 3.6877 6.2606-1.2704 8.5578.724 4.291 8.5781 1.5226 8.4326 4.2462-.7386.7952-1.6841 1.3928-2.2888 2.3052" fill="#008f4c" fill-rule="evenodd"/><path d="m332.2257 183.4504c-1.5948-1.8363 4.6435-2.9798 1.2391-5.5826-3.4403-4.7345 5.3373-1.0894 5.5046-6.0595-2.6273-1.1779-5.2774-2.1512-1.705-5.3355 3.4245-3.8037-4.3702 1.2135-1.1137-3.4118 2.9727-4.4369-6.4074-2.2489-1.9729-6.718.0299-2.535-6.0979.1252-4.3963-4.692 1.7143-5.6251-5.0235-4.7759-3.8461-9.8816 1.5062-6.2744-7.395 2.4753-4.5397-3.6555 2.3684-3.9807-.3115-3.8244-3.0315-3.9772-1.739-1.6651-2.8651-6.0963-4.5816-1.1595-1.9114 6.4525-3.3375-2.7925-4.9079-1.8317-1.102 1.9455-2.6813 7.3431-2.8813 2.3558-.8837-1.803-5.7122 2.2995-2.498-2.0168.939-4.4668-5.6738-1.587-5.654-1.8421.6122-5.9664-4.3839-5.832-6.0973-.8963.5021-1.7824 1.6131-8.7658-2.2207-5.4264-1.7952 3.5682-2.1965 1.4962-2.5208-.8791-3.1824-1.8835-5.0163 9.9528-3.9591 3.3613.1205-6.1319-5.8918.0918-4.6728 3.7394-.1125 1.8226-.3769 4.8598-2.05 2.8085-.649 2.874-1.4753 4.3932-2.2018.7412-2.1313-2.5443-3.682 1.1515-3.3902 3.6738-2.6195.7067-2.6395-2.1581-2.7378-3.7704-2.1993 1.5732-5.2292 3.5084-4.4464-1.4077.2964-6.1193-3.8303 2.5419-5.351 4.1014-3.0837 3.1292 3.1334 4.5392 1.5655 8.775.6916 3.0418-5.7443 4.5587-2.5333.4459.9609-3.7405-5.9402 2.2592-2.81-2.9982-.0551-3.0522-5.1098-3.028-4.826 1.1607-.4733 3.1705-4.5069-1.5295-2.9448 2.9533.5068 2.7994 1.3842 5.3551-1.6086 5.9469 1.1865 2.2052 4.0947 4.0531 1.251 6.8398-.7505 3.2912.9499 4.3323 3.2603 3.721 1.0455 1.3457 1.7659 4.3978-.7628 2.8442-1.7396 2.0191-4.3796 1.6904-5.1825.431.4466 5.0448-2.432 2.1409-4.2136 2.1822-.4807 3.1992 6.444 6.4112 1.0847 6.0584-4.5145.755 2.9362 6.2618-1.0117 8.5578.5768 4.2898 6.8301 1.5249 6.7141 4.2461-.5881.7975-1.3409 1.3928-1.8223 2.3064" fill="#008f4c" fill-rule="evenodd"/><path d="m302.3519 282.3942h-.0002s-.2501-5.0068 1.7338-7.2895c3.0397-3.4965 15.1987-14.8675 24.5511-19.0985 7.1907-3.2551 27.8993-3.1632 32.3633-4.6183l-1.0886-3.1873c-1.2234-1.1804-21.8695.8034-25.7975-.7092-5.0604-1.9517 8.4988-15.8008 10.1058-17.3755l-4.0082-1.4999c-9.892 4.5114-17.6757 21.5777-19.6203 23.2156-5.5781 4.6953-14.9878 10.2147-17.8907 10.1952.2808-5.2631-.2146-8.9297.72-11.9595 2.8841-9.3492 16.4867-27.65 22.5277-33.3464l-3.7926-3.2264c-3.6559 2.2712-6.9785 8.7033-12.2504 13.2066-.9604-.3287-3.3803-5.762-4.9248-7.4941l-3.746 1.8552c-.0162 1.5459 3.2287 11.4285 3.0627 12.5434-2.7758 3.9631-5.2705 7.847-6.798 10.6481-1.7443 3.1988-5.2588 10.5745-7.4991 16.2077-1.5624 3.9263-3.4307 7.9527-3.1766 13.1273-.2528-5.1838 1.658-9.1987 3.1766-13.1273-2.4222-2.239-6.3789-5.5654-8.6434-8.7033-.8426-1.1678.03-13.0457.8452-14.1963 1.4529-2.0551 1.1015-8.2987 1.9248-15.3365.4127-3.5264 13.2505-11.9549 13.961-12.5043l-1.9854-2.9045c-3.6592.1148-14.2387 6.5952-17.6406 11.2434-1.3816.1586-13.4061-8.4561-16.1984-11.2434l-2.8674 1.8057c2.1418 2.4735 4.4963 4.4631 6.7189 6.3872 2.0236 1.7505 10.9 9.2917 9.9858 12.3262-2.0393 6.7688-3.0745 18.7238-3.7277 19.8536-3.5997-1.2919-16.0192-9.0182-22.1399-10.2906-3.5335-5.2734-7.0822-15.9882-11.1489-20.526l-3.6243 1.1816c1.9542 6.9194 3.981 13.1698 6.9829 19.8731-2.5726 10.7458-9.9714 12.6791-23.4429 18.5249l.9271 4.1011c12.2119-3.3034 20.5156-5.7102 28.696-14.9445 9.9836 3.6263 22.0719 10.6297 23.4848 21.1938.7259 5.4286 1.4417 9.0699 1.2472 12.6607.7358 2.8034 1.8111 4.0447 2.8063 7.3274.7451 2.4574 1.3048 7.5458 1.1045 12.1055-.3127 7.1171.8427 25.7788.2358 33.3177-2.1426 5.0631-.786 17.0468-.9627 21.7582-.2871 7.6562-.8032 10.2607-12.1733 13.5445h14.8295c2.0494 0 4.0952-1.6574 6.143-2.1494.3442.4333 1.128 2.1494 2.4477 2.1494h7.6199c1.8034 0 2.5168-1.685 3.7515-2.1494 1.5087.7724 4.4654 2.1494 7.1689 2.1494h9.3079c-8.9116-2.8034-11.8216-7.709-12.1725-13.5445-.3119-5.1861.5339-21.1582.0782-24.3742-1.308-9.2251-.403-26.1994-.9083-30.7016-.339-3.0218-1.1908-8.9159-.2794-16.002z" fill="#c87137"/></g></g><path d="m1.5 69.5c24.083 24.098 40 54.636 40 90.5v354.75c0 68.898 54.852 123.75 123.75 123.75h62.375c27.289 0 50.92 17.163 62.375 40 11.455-22.837 35.086-40 62.375-40h62.375c68.898 0 123.75-54.852 123.75-123.75v-354.75c0-35.864 15.917-66.402 40-90.5l-68-68-18.7 18.7c-13.233 13.233-31.607 21.3-51.8 21.3h-300c-20.193 0-38.567-8.067-51.8-21.3l-18.7-18.7z" fill="none" stroke="#000" stroke-linecap="round" stroke-linejoin="round" stroke-width="3"/></svg>