<?xml version="1.0" encoding="utf-8"?><!DOCTYPE svg PUBLIC "-//W3C//DTD SVG 1.1//EN" "http://www.w3.org/Graphics/SVG/1.1/DTD/svg11.dtd"><svg viewBox="0 0 500 640" xmlns="http://www.w3.org/2000/svg"><path d="m.5.5v474.25c0 68.898 55.852 124.75 124.75 124.75h62.375c27.289 0 50.92 17.163 62.375 40 11.455-22.837 35.086-40 62.375-40h62.375c68.898 0 124.75-55.852 124.75-124.75v-474.25z" fill="#0071bc" stroke="#000" stroke-linecap="round" stroke-linejoin="round"/><path d="m.5.5v474.25c0 68.898 55.852 124.75 124.75 124.75h62.375c27.289 0 50.92 17.163 62.375 40 11.455-22.837 35.086-40 62.375-40h62.375c68.898 0 124.75-55.852 124.75-124.75v-474.25zm27.722 27.722v439.564c0 57.367 46.466 103.992 103.985 103.992h62.348c24.257 0 45.263 14.367 55.445 34.668 10.182-20.301 31.188-34.668 55.445-34.668h62.348c57.519 0 103.985-46.625 103.985-103.992v-439.564z" fill="#eac102" fill-rule="evenodd" stroke="#000" stroke-linecap="round" stroke-linejoin="round"/><g fill="#eac102" stroke="#000" stroke-linecap="round" stroke-linejoin="round"><path d="m301.6572 337.7051c0 4.1993-.5049 9.5073 1.8748 13.0333 1.9417 2.8771 5.6455 3.726 8.3279 4.4897v4.2718h-43.9522v-4.2718c2.6824-.7638 6.3862-1.6127 8.3279-4.4897 2.3797-3.5261 1.8748-8.834 1.8748-13.0333v-75.4103c0-4.1993.5049-9.5073-1.8748-13.0333-1.9417-2.8771-5.6455-3.726-8.3279-4.4897v-4.2718h43.9522v4.2718c-2.6824.7638-6.3862 1.6127-8.3279 4.4897-2.3797 3.5261-1.8748 8.834-1.8748 13.0333z" fill-rule="evenodd"/><path d="m210.0493 293.8951h9.414c6.1701 0 9.5848-2.5746 10.3896-7.6338l1.991-12.5159h8.1956v50.0871h-8.1956l-1.991-14.6732c-.6888-5.0762-4.2195-7.6338-10.3896-7.6338h-9.414v50.3026h22.9559c7.999 0 12.0832-2.189 14.9091-7.9333 2.4153-4.9098 3.9092-10.5051 5.2312-14.9949h8.6316l-1.6566 30.6h-83.8205v-4.2718c2.6824-.7638 6.3862-1.6127 8.3279-4.4897 2.3797-3.5261 1.8748-8.834 1.8748-13.0333v-75.4103c0-4.1993.5049-9.5073-1.8748-13.0333-1.9417-2.8771-5.6455-3.726-8.3279-4.4897v-4.2718h84.6488v26.278h-8.7355c-1.322-4.4898-1.8837-5.763-4.299-10.6729-2.8259-5.7444-6.9101-7.9333-14.9091-7.9333h-22.9559z" fill-rule="evenodd"/><path d="m106.2499 351.3923c6.3299.4403 12.7069.7907 18.6162-.8718 11.2347-3.1608 16.4763-12.3677 19.2524-21.8385 2.9683-10.1265 3.4882-18.8284 3.4882-28.682s-.5199-18.5556-3.4882-28.6821c-2.7761-9.4708-8.0177-18.6776-19.2524-21.8385-5.9093-1.6625-12.2863-1.3121-18.6162-.8718zm0 8.1077c10.0787 0 17.1897-.4751 23.2822-1.4821 10.9887-1.8161 22.1206-6.6145 30.3265-15.8667 10.1484-11.4423 13.6696-27.0633 13.6696-42.1513s-3.5212-30.709-13.6696-42.1513c-8.2059-9.2522-19.3378-14.0506-30.3265-15.8667-6.0925-1.0069-13.2035-1.4821-23.2822-1.4821h-33.7499v4.2718c2.6824.7638 6.3862 1.6127 8.3279 4.4897 2.3797 3.5261 1.8748 8.834 1.8748 13.0333v75.4103c0 4.1993.5049 9.5073-1.8748 13.0333-1.9417 2.8771-5.6455 3.726-8.3279 4.4897v4.2718z" fill-rule="evenodd"/><path d="m383.7848 248.2023-2.6221-7.7023h-8.3438l-38.8813 97.1923c-1.5597 3.8989-3.7453 9.5052-6.125 13.0313-1.9417 2.8771-5.6302 3.7362-8.3126 4.5v4.2765h36.75v-4.2765c-2.6823-.7638-6.3454-1.3757-8.9062-3.7188-2.4645-2.2549-3.8433-7.3153-2.2188-11.1875l24.4127-62.7188 1.9789 5.6145" fill-rule="evenodd"/><path d="m319.5 240.5v4.2765c2.6823.7638 6.3707 1.6229 8.3124 4.5 2.3797 3.5261 3.6546 9.0328 4.9376 13.0313l33.0873 97.1923h8.3438l38.8813-97.1923c1.5597-3.8989 3.7453-9.5052 6.125-13.0313 1.9417-2.8771 5.6302-3.7362 8.3126-4.5v-4.2765h-36.75v4.2765c2.6823.7638 6.3454 1.3757 8.9062 3.7188 2.4645 2.2549 3.8433 7.3153 2.2188 11.1875l-24.4127 62.7188-21.1811-60.0938c-1.3959-3.9605-3.5359-9.5052-1.1562-13.0313 1.9417-2.8771 5.6301-3.7362 8.3124-4.5v-4.2765z" fill-rule="evenodd"/><path d="m369.5377 277.5985 21.1811 60.0938c1.3959 3.9605 3.5359 9.5052 1.1562 13.0313-1.9417 2.8771-5.6301 3.7362-8.3124 4.5v4.2765h43.9374v-4.2765c-2.6823-.7638-6.3707-1.6229-8.3124-4.5-2.3797-3.5261-3.5843-9.056-4.9376-13.0313l-33.0873-97.1923" fill-rule="evenodd"/><path d="m260.474 145.5852c2.9539 28.1674 17.6594 52.8471 39.1284 69.0258-14.3851-8.9944-31.3861-14.194-49.6024-14.194s-35.2172 5.1996-49.6023 14.194c21.4697-16.1787 36.1752-40.8584 39.1283-69.0258-28.167 2.9534-52.8471 17.659-69.026 39.1282 8.9944-14.3851 14.1941-31.3862 14.1941-49.6024 0-18.2163-5.1996-35.2172-14.1941-49.6024 16.1789 21.4692 40.859 36.1749 69.026 39.1282-2.9531-28.1674-17.6586-52.8471-39.1283-69.0258 14.3851 8.9944 31.386 14.194 49.6023 14.194s35.2173-5.1996 49.6025-14.194c-21.469 16.1787-36.1746 40.8585-39.1285 69.0258 28.1678-2.9534 52.8471-17.659 69.026-39.1282-8.9945 14.3852-14.1941 31.3861-14.1941 49.6024s5.1996 35.2173 14.1941 49.6024c-16.1781-21.4692-40.8582-36.1749-69.026-39.1282z"/><path d="m260.474 475.3631c2.9539 28.1674 17.6594 52.8471 39.1284 69.0258-14.3851-8.9944-31.3861-14.194-49.6024-14.194s-35.2172 5.1996-49.6023 14.194c21.4697-16.1787 36.1752-40.8584 39.1283-69.0258-28.167 2.9534-52.8471 17.659-69.026 39.1282 8.9944-14.3851 14.1941-31.3862 14.1941-49.6024 0-18.2163-5.1996-35.2172-14.1941-49.6024 16.1789 21.4692 40.859 36.1749 69.026 39.1282-2.9531-28.1674-17.6586-52.8471-39.1283-69.0258 14.3851 8.9944 31.386 14.194 49.6023 14.194s35.2173-5.1996 49.6025-14.194c-21.469 16.1787-36.1746 40.8585-39.1285 69.0258 28.1678-2.9534 52.8471-17.659 69.026-39.1282-8.9945 14.3852-14.1941 31.3861-14.1941 49.6024s5.1996 35.2173 14.1941 49.6024c-16.1781-21.4692-40.8582-36.1749-69.026-39.1282z"/></g><path d="m1.5 1.5v473.25c0 68.35 55.4 123.75 123.75 123.75h62.375c27.18 0 50.966 17.254 62.375 40 11.409-22.746 35.195-40 62.375-40h62.375c68.35 0 123.75-55.4 123.75-123.75v-473.25z" fill="none" stroke="#000" stroke-linecap="round" stroke-linejoin="round" stroke-width="3"/></svg>