<?xml version="1.0" encoding="utf-8"?><!DOCTYPE svg PUBLIC "-//W3C//DTD SVG 1.1//EN" "http://www.w3.org/Graphics/SVG/1.1/DTD/svg11.dtd"><svg viewBox="0 0 500 615" xmlns="http://www.w3.org/2000/svg"><g stroke="#000" stroke-linecap="round" stroke-linejoin="round"><path d="m.5 265c0 162.043 104.34 299.716 249.5 349.5 145.16-49.784 249.5-187.457 249.5-349.5v-234.5c-79.947-19.594-163.512-30-249.5-30s-169.553 10.406-249.5 30z" fill="#0071bc"/><path d="m.5 255.1h499v-224.6c-79.947-19.594-163.512-30-249.5-30s-169.553 10.406-249.5 30z" fill="#ed1c24"/></g><g stroke="#000" stroke-linecap="round" stroke-linejoin="round"><g><path d="m461.294 308.1158c-8.9137 26.8275-37.2002 32.2917-54.3717 57.2572-13.6171 19.7977 5.1198 40.1658-36.9384 82.4838-9.7111 9.7711-11.2599 29.5049-40.577 54.6219-38.2728-15.514-63.5767-57.7502-101.3072-98.3233-30.3165-32.6006-69.7454-88.1657-89.7679-104.7923-15.3841-12.7749-20.4769-24.2618-28.6473-44.2632h-109.1844v9.9c0 162.043 104.34 299.716 249.5 349.5 145.16-49.784 249.5-187.457 249.5-349.5-15.1463 8.6107-31.121 21.7921-38.206 43.1158z" fill="#008f4c"/><path d="m329.4069 502.4788c20.6686 8.4365 28.8145 25.6112 44.5232 40.0733" fill="none"/><path d="m70.9429 326.1611c17.9409 31.1315 46.1467 44.4022 59.4262 68.1789" fill="none"/><path d="m145.1104 350.1159c21.1605 31.7248 75.5266 81.2747 76.9316 106.4143" fill="none"/><path d="m70.4822 418.2947c24.0639 10.6922 43.9662 74.4133 58.0442 79.2349" fill="none"/><path d="m187.0312 488.777c21.0085 10.2621 41.9027 69.2528 66.3362 87.0663" fill="none"/><path d="m439.0167 383.284c10.0494-10.3548-8.7776-12.0467 34.0894-32.2468" fill="none"/><path d="m87.0663 294.375c15.1026 2.2808 18.0833 18.1988 23.9547 30.8648" fill="none"/><path d="m17.9661 265.8136c11.3655 25.6572 6.1267 54.6702 24.4154 77.8529" fill="none"/><path d="m281.4682 531.6191c16.125 5.3697 26.4032 23.8746 35.1835 51.2781" fill="none"/><path d="m392.9499 486.0129c-9.1203 5.9807-17.9435 8.6991-30.6056 44.1953" fill="none"/></g><g><path d="m17.125 374.9c14.9654 48.0817 39.5141 91.9496 71.375 129.3813v-63.9688c0-16.2924 13.2076-29.5 29.5-29.5 16.2923 0 29.4999 13.2076 29.5 29.5v119.625c9.3364 7.0512 19.0027 13.6885 29 19.8438v-139.4688c0-16.2924 13.2076-29.5 29.5-29.5 16.2923 0 29.5 13.2076 29.5 29.5v168.8438c4.7851 1.8698 9.6202 3.6702 14.5 5.3438 4.8798-1.6736 9.7149-3.474 14.5-5.3438v-168.8438c0-16.2924 13.2077-29.5 29.5-29.5 16.2924 0 29.5 13.2076 29.5 29.5v139.4688c9.9973-6.1553 19.6636-12.7925 29-19.8438v-119.625c0-16.2924 13.2077-29.5 29.5-29.5 16.2924 0 29.5001 13.2076 29.5 29.5v63.9688c31.8609-37.4317 56.4096-81.2996 71.375-129.3813z" fill="#eac102"/><path d="m44.8969 440.312h43.6035" fill="none"/><path d="m78.5002 440.312c0-21.8153 17.6848-39.5 39.5-39.5 21.8151 0 39.4999 17.6847 39.4999 39.5" fill="none"/><path d="m147.5002 440.312h29" fill="none"/><path d="m144.5789 427.5125 9.0097-4.3388" fill="none"/><path d="m136.3934 417.2481 6.235-7.8183" fill="none"/><path d="m124.565 411.5517 2.2253-9.7493" fill="none"/><path d="m82.4119 423.1737 9.0098 4.3389" fill="none"/><path d="m93.3721 409.4298 6.235 7.8184" fill="none"/><path d="m109.2101 401.8024 2.2253 9.7494" fill="none"/><path d="m166.5001 440.312c0-21.8153 17.6848-39.5 39.5-39.5 21.8151 0 39.4999 17.6847 39.4999 39.5" fill="none"/><path d="m235.5001 440.312h29" fill="none"/><path d="m232.5787 427.5125 9.0097-4.3388" fill="none"/><path d="m224.3933 417.2481 6.235-7.8183" fill="none"/><path d="m212.5649 411.5517 2.2253-9.7493" fill="none"/><path d="m170.4117 423.1737 9.0098 4.3389" fill="none"/><path d="m181.372 409.4298 6.235 7.8184" fill="none"/><path d="m197.21 401.8024 2.2253 9.7494" fill="none"/><path d="m38.2748 427.2296h42.4087" fill="none"/><path d="m32.2861 414.1472h56.0141" fill="none"/><path d="m26.5853 401.0648h86.7864" fill="none"/><path d="m88.6669 413.8467v-12.7816" fill="none"/><path d="m59.3337 413.8467v-12.7816" fill="none"/><path d="m74.0003 401.0648v-13.0821" fill="none"/><path d="m74.0003 427.2296v-13.0821" fill="none"/><path d="m44.6671 401.0648v-13.0821" fill="none"/><path d="m103.3336 401.0648v-13.0821" fill="none"/><path d="m176.6667 413.8467v-12.7816" fill="none"/><path d="m147.3334 413.8467v-12.7816" fill="none"/><path d="m162.0001 427.2296v-13.0821" fill="none"/><path d="m191.3334 401.0648v-13.0821" fill="none"/><path d="m132.6668 401.0648v-13.0821" fill="none"/><path d="m162.0001 401.0648v-13.0821" fill="none"/><path d="m220.6666 401.0648v-13.0821" fill="none"/><path d="m235.3332 413.8467v-12.7816" fill="none"/><path d="m147.7002 414.1472h28.5998" fill="none"/><path d="m155.3169 427.2296h13.3664" fill="none"/><path d="m122.6287 401.0648h78.7428" fill="none"/><path d="m421.4999 440.312c0-21.8153-17.6849-39.5-39.4999-39.5-21.8152 0-39.4999 17.6847-39.4999 39.5" fill="none"/><path d="m352.5 440.312h-29" fill="none"/><path d="m355.4213 427.5125-9.0097-4.3388" fill="none"/><path d="m363.6068 417.2481-6.2349-7.8183" fill="none"/><path d="m375.4351 411.5517-2.2253-9.7493" fill="none"/><path d="m417.5883 423.1737-9.0099 4.3389" fill="none"/><path d="m406.6281 409.4298-6.235 7.8184" fill="none"/><path d="m390.7901 401.8024-2.2254 9.7494" fill="none"/><path d="m333.5 440.312c0-21.8153-17.6848-39.5-39.4999-39.5s-39.4999 17.6847-39.4999 39.5" fill="none"/><path d="m267.4214 427.5125-9.0097-4.3388" fill="none"/><path d="m275.6069 417.2481-6.235-7.8183" fill="none"/><path d="m287.4353 411.5517-2.2253-9.7493" fill="none"/><path d="m329.5884 423.1737-9.0098 4.3389" fill="none"/><path d="m318.6282 409.4298-6.2351 7.8184" fill="none"/><path d="m302.7902 401.8024-2.2253 9.7494" fill="none"/><path d="m477.9059 387.9827h-456.2147" fill="none"/><path d="m411.3333 413.8467v-12.7816" fill="none"/><path d="m396.6666 401.0648v-13.0821" fill="none"/><path d="m323.3334 413.8467v-12.7816" fill="none"/><path d="m352.6668 413.8467v-12.7816" fill="none"/><path d="m338.0001 427.2296v-13.0821" fill="none"/><path d="m308.6668 401.0648v-13.0821" fill="none"/><path d="m367.3333 401.0648v-13.0821" fill="none"/><path d="m338 401.0648v-13.0821" fill="none"/><path d="m279.3335 401.0648v-13.0821" fill="none"/><path d="m264.667 413.8467v-12.7816" fill="none"/><path d="m352.3 414.1472h-28.5997" fill="none"/><path d="m344.6833 427.2296h-13.3664" fill="none"/><path d="m377.3714 401.0648h-78.7428" fill="none"/><path d="m210.6287 401.0648h78.7428" fill="none"/><path d="m235.7002 414.1472h28.5997" fill="none"/><path d="m243.3169 427.2296h13.3664" fill="none"/><path d="m250.0001 401.0648v-13.0821" fill="none"/><path d="m250.0001 427.2296v-13.0821" fill="none"/><path d="m74.0003 453.3941v-13.0821" fill="none"/><path d="m52.3252 453.3945h36.1752" fill="none"/><path d="m74.0003 479.5587v-13.0821" fill="none"/><path d="m60.4444 466.4766h28.0559" fill="none"/><path d="m69.3123 479.5587h19.188" fill="none"/><path d="m79.1015 492.6408h9.3988" fill="none"/><path d="m162.0001 453.3941v-13.0821" fill="none"/><path d="m147.5001 453.3945h28.9999" fill="none"/><path d="m162.0001 479.5587v-13.0821" fill="none"/><path d="m147.5001 466.4766h28.9999" fill="none"/><path d="m147.5001 479.5587h28.9999" fill="none"/><path d="m162.0001 505.7229v-13.0821" fill="none"/><path d="m147.5001 492.6408h28.9999" fill="none"/><path d="m147.5001 505.7233h28.9999" fill="none"/><path d="m162.0001 531.8875v-13.0821" fill="none"/><path d="m147.5001 518.8054h28.9999" fill="none"/><path d="m147.5001 531.8875h28.9999" fill="none"/><path d="m162.0001 558.0517v-13.0821" fill="none"/><path d="m147.5001 544.9696h28.9999" fill="none"/><path d="m147.5001 558.0514h28.9999" fill="none"/><path d="m163.6235 571.1335h12.8765" fill="none"/><path d="m250.0001 453.3941v-13.0821" fill="none"/><path d="m235.5002 453.3945h28.9999" fill="none"/><path d="m250.0001 479.5587v-13.0821" fill="none"/><path d="m235.5002 466.4766h28.9999" fill="none"/><path d="m235.5002 479.5587h28.9999" fill="none"/><path d="m250.0001 505.7229v-13.0821" fill="none"/><path d="m235.5002 492.6408h28.9999" fill="none"/><path d="m235.5002 505.7233h28.9999" fill="none"/><path d="m250.0001 531.8875v-13.0821" fill="none"/><path d="m235.5002 518.8054h28.9999" fill="none"/><path d="m235.5002 531.8875h28.9999" fill="none"/><path d="m250.0001 558.0517v-13.0821" fill="none"/><path d="m235.5002 544.9696h28.9999" fill="none"/><path d="m235.5002 558.0514h28.9999" fill="none"/><path d="m250.0001 584.2156v-13.0821" fill="none"/><path d="m235.5002 571.1335h28.9999" fill="none"/><path d="m235.5002 584.2156h28.9999" fill="none"/><path d="m250.0001 610.3797v-13.0821" fill="none"/><path d="m235.5002 597.2976h28.9999" fill="none"/><path d="m239.0416 610.3801h21.9171" fill="none"/><path d="m338.0001 453.3941v-13.0821" fill="none"/><path d="m323.5002 453.3945h28.9999" fill="none"/><path d="m338.0001 479.5587v-13.0821" fill="none"/><path d="m323.5002 466.4766h28.9999" fill="none"/><path d="m323.5002 479.5587h28.9999" fill="none"/><path d="m338.0001 505.7229v-13.0821" fill="none"/><path d="m323.5002 492.6408h28.9999" fill="none"/><path d="m323.5002 505.7233h28.9999" fill="none"/><path d="m338.0001 531.8875v-13.0821" fill="none"/><path d="m323.5002 518.8054h28.9999" fill="none"/><path d="m323.5002 531.8875h28.9999" fill="none"/><path d="m338.0001 558.0517v-13.0821" fill="none"/><path d="m323.5002 544.9696h28.9999" fill="none"/><path d="m323.5002 558.0514h28.9999" fill="none"/><path d="m323.5002 571.1335h12.9917" fill="none"/><path d="m44.6671 427.2296v-13.0821" fill="none"/><path d="m59.3337 440.312v-12.7816" fill="none"/><path d="m59.3337 465.037v-11.342" fill="none"/><path d="m455.218 440.312h-43.7186" fill="none"/><path d="m461.7249 427.2296h-42.4087" fill="none"/><path d="m467.9439 414.1472h-56.2444" fill="none"/><path d="m440.6659 413.8467v-12.7816" fill="none"/><path d="m425.9994 401.0648v-13.0821" fill="none"/><path d="m425.9994 427.2296v-13.0821" fill="none"/><path d="m455.3325 401.0648v-13.0821" fill="none"/><path d="m425.9994 453.3941v-13.0821" fill="none"/><path d="m447.7321 453.3945h-36.2328" fill="none"/><path d="m425.9994 479.5587v-13.0821" fill="none"/><path d="m439.7856 466.4766h-28.2863" fill="none"/><path d="m430.745 479.5587h-19.2456" fill="none"/><path d="m420.8982 492.6408h-9.3989" fill="none"/><path d="m455.3325 427.2296v-13.0821" fill="none"/><path d="m440.6659 440.312v-12.7816" fill="none"/><path d="m440.6659 464.8643v-11.1693" fill="none"/><path d="m386.628 401.0648h86.5561" fill="none"/></g><g fill="#eac102"><g><path d="m193.0792 189.2613c1.899-11.8504 5.2429-21.2052 9.4561-29.3382-10.0158 6.9912-20.0254 25.5112-9.4561 29.3382z"/><path d="m177.5771 202.6442c.6402-10.3164 2.5773-20.7096 5.6045-27.9361-8.2891 6.5338-15.3434 25.1672-5.6045 27.9361z"/><path d="m178.7973 202.0354c16.1762-5.4346 29.9152-12.4297 31.2292-12.4071-12.1118-1.4764-17.0589 2.8659-31.2292 12.4071z"/><path d="m221.9637 166.4721c7.1894-13.3496 14.7282-25.6909 20.8515-34.5615-10.4894 6.3522-27.4393 28.0796-20.8515 34.5615z"/><path d="m203.9963 179.5389c7.9076-14.6176 14.8925-27.1843 21.4155-36.8021-10.4247 6.4551-27.0753 28.9911-21.4155 36.8021z"/><path d="m213.3108 171.6841c19.3824-2.2358 49.057-5.4291 54.3121-6.7737-14.9084-4.515-35.5375-1.8666-54.3121 6.7737z"/><path d="m197.3306 185.2333c10.5631-3.8824 47.7545-9.5896 51.5605-10.3978-13.7236-4.2955-39.8603.37-51.5605 10.3978z"/><path d="m270.118 136.3112c17.0164-14.2619 33.4114-30.9831 49.9859-41.5626-15.7119 4.1294-40.6289 23.917-49.9859 41.5626z"/><path d="m284.1393 127.8404c18.3209.558 57.2312-3.1963 60.2508-4.4107-12.2738-5.5785-37.3728-2.9087-60.2508 4.4107z"/><path d="m261.3331 140.5812c19.7424-1.6807 58.478-6.2496 61.3914-7.204-14.3259-4.9987-38.064-2.0856-61.3914 7.204z"/><path d="m252.9497 145.9439c13.7011-15.0417 26.433-29.5584 39.9468-39.5061-13.7604 4.2952-39.7655 26.1697-39.9468 39.5061z"/><path d="m236.6031 155.7344c10.047-13.429 21.3243-27.5976 29.2386-36.2913-12.7639 6.3387-33.6315 28.0501-29.2386 36.2913z"/><path d="m241.7054 151.6888c18.0708-.7748 55.7629-5.9445 58.8825-7.001-13.4554-5.4606-37.0235-1.4709-58.8825 7.001z"/><path d="m225.6995 163.2498c20.1-3.9371 55.8697-8.8358 57.6663-8.6076-13.3247-5.7909-36.866-1.1785-57.6663 8.6076z"/><path d="m297.4336 123.9642c-3.1565 1.507-6.2699 3.0344-9.3386 4.5789-49.859 25.0927-87.9307 54.6684-107.8427 74.0676-7.5965 7.4009-21.6807 22.8151-23.313 27.4445l-5.9566-5.4013c8.0499-7.8989 18.5624-19.3902 25.9124-26.5961 22.4388-21.9986 62.1643-50.8661 109.0181-74.1103 3.0328-1.5046 6.0954-2.9856 9.1851-4.4396"/><path d="m155.5787 225.6673c1.5615 1.5747 1.9953 2.9642 1.3606 4.3878-.5712 1.2811-3.2731.83-4.8346-.7447s-2.0813-3.6506-1.122-4.6566 3.0346-.5612 4.596 1.0135z"/></g><g><path d="m89.0373 86.2231c-11.8197 1.896-34.9153.551-38.5373-1.2478 6.784-3.1106 24.3365-4.3909 38.5373 1.2478z"/><path d="m102.5404 89.9471c-10.1733 3.8526-30.8953 5.1787-34.3496 3.8137 5.333-4.4556 20.1462-7.9701 34.3496-3.8137z"/><path d="m98.8902 88.413c-15.5427-4.3134-27.1311-9.9953-32.005-12.8572 11.7226.8029 18.4506 1.4643 32.005 12.8572z"/><path d="m306.9208 189.2613c-1.899-11.8504-5.2429-21.2052-9.4561-29.3382 10.0158 6.9912 20.0254 25.5112 9.4561 29.3382z"/><path d="m322.4229 202.6442c-.6402-10.3164-2.5773-20.7096-5.6045-27.9361 8.2891 6.5338 15.3434 25.1672 5.6045 27.9361z"/><path d="m321.2027 202.0354c-16.1762-5.4346-29.9152-12.4297-31.2292-12.4071 12.1118-1.4764 17.0589 2.8659 31.2292 12.4071z"/><path d="m278.0363 166.4721c-7.1894-13.3496-14.7282-25.6909-20.8515-34.5615 10.4894 6.3522 27.4393 28.0796 20.8515 34.5615z"/><path d="m296.0037 179.5389c-7.9076-14.6176-14.8925-27.1843-21.4155-36.8021 10.4247 6.4551 27.0753 28.9911 21.4155 36.8021z"/><path d="m286.6892 171.6841c-19.3824-2.2358-49.057-5.4291-54.3121-6.7737 14.9084-4.515 35.5375-1.8666 54.3121 6.7737z"/><path d="m302.6694 185.2333c-10.5631-3.8824-47.7545-9.5896-51.5605-10.3978 13.7236-4.2955 39.8603.37 51.5605 10.3978z"/><path d="m209.176 125.3146c-18.4829-12.2106-38.8795-31.0701-54.5904-40.7579 14.8473 3.2106 41.9652 23.1555 54.5904 40.7579z"/><path d="m229.882 136.3112c-17.0164-14.2619-33.4114-30.9831-49.9859-41.5626 15.7119 4.1294 40.6289 23.917 49.9859 41.5626z"/><path d="m215.8607 127.8404c-18.3209.558-57.2312-3.1963-60.2508-4.4107 12.2738-5.5785 37.3728-2.9087 60.2508 4.4107z"/><path d="m238.6669 140.5812c-19.7424-1.6807-58.478-6.2496-61.3914-7.204 14.3259-4.9987 38.064-2.0856 61.3914 7.204z"/><path d="m160.2697 104.8998c-18.1031-10.5748-41.0665-27.5412-43.75-31.4312 13.9978 4.9543 32.5693 15.1924 43.75 31.4312z"/><path d="m183.2138 113.6467c-19.9654-13.8888-37.8841-26.5378-50.9309-37.2683 14.1077 4.4053 36.7492 18.5236 50.9309 37.2683z"/><path d="m175.5837 109.1266c-16.7504-.7492-52.2179.5281-54.3652 1.718 7.5422-8.1423 30.1175-8.112 54.3652-1.718z"/><path d="m119.4386 92.4624c-17.8943-6.4118-35.1682-17.2294-38.0293-20.6624 12.3102 2.2167 24.5141 7.231 38.0293 20.6624z"/><path d="m141.2259 99.2107c-18.5785-9.5068-39.6914-23.7083-42.8093-27.4107 14.0628 3.8987 30.0073 11.6368 42.8093 27.4107z"/><path d="m148.4077 100.2063c-13.4913 3.5781-40.0135 5.6145-43.3854 4.8189 9.2921-6.3916 22.9518-7.9206 43.3854-4.8189z"/><path d="m247.0503 145.9439c-13.7011-15.0417-26.433-29.5584-39.9468-39.5061 13.7604 4.2952 39.7655 26.1697 39.9468 39.5061z"/><path d="m263.3969 155.7344c-10.047-13.429-21.3243-27.5976-29.2386-36.2913 12.7639 6.3387 33.6315 28.0501 29.2386 36.2913z"/><path d="m258.2946 151.6888c-18.0708-.7748-55.7629-5.9445-58.8825-7.001 13.4554-5.4606 37.0235-1.4709 58.8825 7.001z"/><path d="m274.3006 163.2498c-20.1-3.9371-55.8697-8.8358-57.6663-8.6076 13.3247-5.7909 36.866-1.1785 57.6663 8.6076z"/><path d="m194.0685 117.8082c-18.2422 1.0345-52.8212-.6861-55.8874-1.6887 12.1704-6.3545 32.7533-5.1026 55.8874 1.6887z"/><path d="m127.8233 94.4062c-12.3827 4.6381-36.539 6.2367-39.4349 5.2814 7.9999-6.6422 20.4569-8.6067 39.4349-5.2814z"/><path d="m90.1882 85.0131c-8.0611-.8808-7.281.8151-.21 2.0763 108.4717 19.3482 195.701 82.33 229.7696 115.5212 7.5965 7.4009 21.6807 22.8151 23.313 27.4445l5.9566-5.4013c-8.0499-7.8989-18.5625-19.3902-25.9124-26.596-40.8184-40.0177-138.841-102.7654-232.9167-113.0447z"/><path d="m344.4213 225.6673c-1.5615 1.5747-1.9953 2.9642-1.3606 4.3878.5712 1.2811 3.2731.83 4.8346-.7447s2.0813-3.6506 1.122-4.6566-3.0346-.5612-4.596 1.0135z"/></g><g><path d="m318.7277 200.1671c-3.407-.3166-7.393-.9708-11.2912-1.1252-3.9157-.1548-5.5281-.8524-8.432-1.0487-4.7511-.3222-13.1294-8.9691-28.7192-.7198 8.6799 18.2476 32.7781 20.7082 48.4424 2.8937z" fill-rule="evenodd"/><path d="m318.7277 200.1671c-14.797 2.3359-19.6071 8.9361-45.9295-3.9593-2.1506-1.0544-4.7234-.1481-6.3832-.9262l-2.105 1.3151c1.8196.797 5.1586.2902 6.7758 1.0336 30.1677 13.8551 30.8678 6.233 47.6415 2.5379z" fill-rule="evenodd"/><path d="m303.9155 176.7268c-1.5797 1.7424-1.7762 3.7213-.439 4.4198 1.3371.6985 3.7014-.1471 5.2806-1.8885 1.5796-1.7424 1.7761-3.7213.439-4.4198-1.3369-.6996-3.7015.1471-5.2806 1.8885z"/><path d="m304.7796 180.5939c-4.0433 3.0623-3.4367 7.8409-2.7113 10.4786l-2.4176 1.039c-.2909-3.7977-.6476-8.9967 3.688-12.7169.6749-.1011 1.4252.8589 1.441 1.1993z" fill-rule="evenodd"/><path d="m300.8465 192.3247-1.9248 1.8409c3.8353 1.4614 7.5607 2.2745 12.7886-.3089l-1.0164-1.1137c-2.4008 1.2077-7.3494 1.0508-9.8474-.4183z" fill-rule="evenodd"/><path d="m313.0192 195.7352c-2.3261.706-4.3634.1266-4.5501-1.2952-.1879-1.4187 1.5455-3.1405 3.8716-3.8465 2.3257-.705 4.3634-.1266 4.5501 1.2952.1874 1.4197-1.546 3.1416-3.8716 3.8465z"/><path d="m311.8549 184.1188c-1.6148 1.2062-3.9453 1.5989-5.2054.8778-1.2602-.7212-.9726-2.2837.6419-3.4889 1.6148-1.2063 3.9452-1.5989 5.2054-.8777 1.26.7211.9725 2.2837-.6419 3.4889z"/><path d="m300.0127 193.1032c3.0227-2.5039 5.6927-5.514 8.3355-8.5648-.19-.3019-.9694-1.0344-1.4128-.8998-3.1406 3.5152-6.2047 6.6271-9.7388 9.3569l2.8157.1088z" fill-rule="evenodd"/><path d="m349.9609 130.0039c14.0093 15.426 7.2158 30.3936-3.3273 40.5034-8.9393-19.9958 3.5315-24.6913 3.3273-40.5034z" fill-rule="evenodd"/><path d="m346.2878 173.2887c-1.1432-23.371 8.0582-31.4745 3.6731-43.2848 6.8916 11.2842-2.5691 19.8611-1.6465 41.3191" fill-rule="evenodd"/><path d="m342.3021 97.3243c16.6411 8.0361 21.8285 26.2687 22.3838 41.8588-23.4133-13.1287-12.7547-26.212-22.3838-41.8588z" fill-rule="evenodd"/><path d="m342.3021 97.3243c10.2662 8.9384 12.5196 25.1699 24.9059 43.1106l-.6292 2.6257c-15.9356-25.173-14.9053-36.7287-24.2766-45.7363z" fill-rule="evenodd"/><path d="m380.9675 94.0976c-.9649 3.1711-2.3811 6.8269-3.2733 10.4956-.8962 3.6848-1.9091 5.081-2.6565 7.7988-1.2229 4.4454-10.4272 8.9828-4.9824 25.3414 20.1842-4.7595 26.0649-25.3865 10.9122-43.6358z" fill-rule="evenodd"/><path d="m368.7894 144.1236c.0902-1.7196.6915-4.1248 1.781-5.4978 18.8421-23.7501 12.856-28.4467 10.3972-44.5282 1.5496 20.2067 2.3549 24.0166-11.5194 42.3712-1.4766 1.8397-1.9959 3.5714-2.3579 5.0893" fill-rule="evenodd"/><path d="m342.6045 57.7624c1.834 3.2624 3.8013 7.2108 6.0319 10.847 2.2404 3.6521 2.7623 5.4508 4.3722 8.1972 2.6344 4.4938 1.4542 13.9764 15.9833 24.3916 6.3603-16.4248-5.7622-37.4018-26.3873-43.4358z" fill-rule="evenodd"/><path d="m354.8624 98.9943c-12.6411 10.9529-24.194-4.5335-38.4297-14.3845 13.8673 1.3867 33.2202-4.9351 38.4297 14.3845z" fill-rule="evenodd"/><path d="m342.6045 57.7624c11.554 12.2435 15.785 13.1662 25.0157 43.7882.7317 2.4279 2.6383 4.4344 3.1364 6.3136l2.0892 1.3133c-.5829-2.0343-2.4247-4.3853-2.955-6.2098-10.5685-36.3801-15.0638-34.004-27.2865-45.205z" fill-rule="evenodd"/><path d="m362.2741 100.2263c-12.2558-5.7472-30.5641-10.9079-45.8413-15.6165 16.2671 7.1216 33.6057 12.0377 45.4522 17.8283" fill-rule="evenodd"/><path d="m349.8271 85.2392c-1.605-6.5672-2.901-11.9749-4.6598-16.1492-2.9123-6.9121-6.1744-13.1164-14.8942-20.3052-1.6187 15.2645-2.9226 34.0432 19.5541 36.4545z" fill-rule="evenodd"/><path d="m356.8972 89.6321c-9.9681-5.2299-17.5624-19.2316-26.6242-40.8473 3.0216 13.3232 9.382 30.8397 24.0822 41.7679l2.5421-.9206z" fill-rule="evenodd"/><path d="m289.7194 39.8236c2.7364 2.182 5.7556 4.8922 9.0215 7.273 3.2807 2.3914 4.2218 3.7286 6.602 5.5474 3.8944 2.9762 4.2988 11.0987 23.0923 15.6939 4.3026-15.2492-13.6744-29.1897-38.7158-28.5143z" fill-rule="evenodd"/><path d="m334.3956 73.847c-1.0562-1.514-3.6502-2.9331-4.5873-4.3-18.0136-26.2768-20.7997-21.5965-40.0889-29.7234 11.9603 7.1592 21.8033 5.2269 36.1931 27.8899 1.1759 1.8518 3.7702 3.5425 4.6998 4.9521" fill-rule="evenodd"/><path d="m389.5 136.5934c-3.331 22.5076-18.7356 27.8915-32.7051 26.7828 6.3367-31.446 20.8317-15.0933 32.7051-26.7828z" fill-rule="evenodd"/><path d="m353.4194 165.4326c17.3236-19.2222 30.2497-17.3959 36.0806-28.8392-4.4636 11.7267-21.5536 14.9344-34.8499 30.2353" fill-rule="evenodd"/><path d="m262.4043 198.4399c46.8354-.4449 110.1709-19.8131 110.1709-68.5313 0-42.3433-44.299-69.5856-85.2402-73.4108l-.5469 3.0109c39.4833 4.1902 80.9086 30.7929 81.312 70.3999.4435 43.5474-60.1636 63.3466-105.6957 63.5313z"/><path d="m361.5617 184.9648c-3.6876.2255-8.0183.2112-12.2259.6745-4.2262.4648-6.0026.0321-9.1413.2968-5.1361.4334-12.441-6.3156-28.7614 4.268 10.3909 16.5982 34.2742 14.7744 50.1286-5.2393z" fill-rule="evenodd"/><path d="m308.1008 62.5123c-14.1082 12.3349-27.8727-1.644-44.0936-10.3453 15.6781.1164 36.9906-7.4824 44.0936 10.3453z" fill-rule="evenodd"/><path d="m316.2644 63.4105c-16.0496-6.2499-35.7779-7.644-52.2572-11.2435 12.6979 4.4628 37.0183 8.1248 50.4803 12.9142" fill-rule="evenodd"/><path d="m307.4694 67.4024c2.0943 1.0345 4.2867.8506 4.8976-.4111.6105-1.2617-.592-3.123-2.6861-4.1578-2.0942-1.0344-4.2867-.8505-4.8974.4111-.6105 1.2617.5919 3.1231 2.686 4.1578z"/><path d="m311.8011 65.8582c3.8285 2.8967 8.8066 1.655 11.6142.5697l2.1736 1.39c-4.1294.9216-10.0442 2.5737-14.6275-.4549-.1904-.5564.4684-1.431.8403-1.5045z" fill-rule="evenodd"/><path d="m323.5572 58.6283c3.3018 3.3396 2.6932 6.2305 1.3727 8.6167l1.5777 1.8909c1.1557-3.5226 2.3572-6.8902-1.0835-10.8796-.6448-.174-1.7734.0549-1.8669.372z" fill-rule="evenodd"/><path d="m327.2538 56.2829c1.044 1.8537.6466 3.69-.8878 4.1015-1.5345.4114-3.6246-.7577-4.6685-2.6115-1.0441-1.8536-.6468-3.69.8878-4.1014 1.5344-.4115 3.6245.7575 4.6685 2.6114z"/><path d="m314.6514 59.3352c1.5103 1.1597 2.2121 3.0728 1.5679 4.273-.645 1.1999-2.3909 1.2328-3.9009.0731-1.5104-1.1598-2.2123-3.0729-1.568-4.2731.645-1.1999 2.3909-1.2328 3.9011-.073z"/><path d="m328.373 69.1109c-3.0977-2.1272-9.2013-5.1597-12.8539-6.8667-.3094.2153-.7649 1.1595-.5658 1.5128 4.2207 2.048 8.1418 3.8478 11.5466 6.37" fill-rule="evenodd"/><path d="m294.6097 79.3864c6.386-.5885 13.2659.3787 18.4121 1.3764 4.3104.8357 10.4478 4.6713 24.7777-2.113-8.3518-11.6496-28.9472-12.5138-43.1898.7366z" fill-rule="evenodd"/><path d="m344.1259 79.3724c-1.6965-.4112-4.521-1.0515-6.0456-1.4146-30.4103-7.242-30.7404-2.3191-43.4706 1.4287 17.1848-3.7077 16.1731-6.0147 43.8222.5197 2.0253.4786 3.4698.6875 5.0175 1.0977" fill-rule="evenodd"/><path d="m363.9348 92.3182c1.2484 1.9765 1.0767 3.9338-.3828 4.3726-1.4602.4379-3.6558-.8091-4.9042-2.7856-1.2485-1.9764-1.0775-3.9346.3827-4.3725 1.4602-.438 3.6559.8091 4.9043 2.7854z"/><path d="m365.7345 106.5125c.7982-3.3619 1.2264-7.5781-1.7971-11.2435-.6527-.2202-1.4226.2589-1.7371.777 2.8664 3.0714 2.4872 6.5875 1.5297 9.1283" fill-rule="evenodd"/><path d="m364.7656 109.8547c-3.5259.456-7.0576.9896-11.1725-2.0162l.4857-1.4297c1.9427 1.4224 7.2597 2.255 9.8285 1.5552" fill-rule="evenodd"/><path d="m351.352 109.1464c2.1829 1.1029 4.3177.9075 4.7674-.4374s-.9554-3.3295-3.139-4.4332c-2.1835-1.1038-4.3184-.9084-4.7681.4365-.4498 1.345.956 3.3304 3.1396 4.4341z"/><path d="m354.6641 98.0707c1.3826 1.4621 3.6293 2.2633 5.0163 1.7886 1.3876-.4738 1.3916-2.0428.008-3.5047-1.3833-1.463-3.6293-2.2633-5.017-1.7895-1.3876.4738-1.3909 2.0437-.008 3.5056z"/><path d="m364.7812 108.9298c-2.5426-2.9765-4.8232-5.9782-6.8875-9.4175.2473-.2569 1.1972-1.0509 1.6112-.8428 2.4733 3.9804 4.0837 6.3413 7.0945 9.6296" fill-rule="evenodd"/><path d="m302.7458 190.0373c2.0054.4971 4.9361-.2569 6.7381.1804 35.9397 8.7269 33.2311 1.6722 52.0778-5.2529-16.6049 5.3375-19.9745 11.3658-50.3521 3.8828-2.4085-.5931-4.3923-.5095-6.2714-.4383" fill-rule="evenodd"/><path d="m280.617 196.2694c11.1285 11.8937 23.3803.1619 37.7237-6.1116-13.302-1.1668-31.1921-10.1136-37.7237 6.1116z" fill-rule="evenodd"/><path d="m274.2082 195.9612c14.032-4.15 34.4642-5.1917 44.1325-5.8034-13.4495 3.3297-32.3841 4.3214-44.1234 7.4079" fill-rule="evenodd"/><path d="m307.7239 174.4899c-18.5777-6.1996-33.213 6.0984-42.4484 19.7537 27.1641 7.072 25.5157-13.3925 42.4484-19.7537z" fill-rule="evenodd"/><path d="m261.5143 196.7112c25.1538-8.6479 33.2753-21.9945 46.2096-22.2212-12.8539-2.2211-26.644 14.2986-47.1964 20.5042" fill-rule="evenodd"/><path d="m317.0518 181.5168c-7.1328-16.2712 11.1223-20.9443 24.6714-30.4064-5.2129 12.4968-4.4263 33.221-24.6714 30.4064z" fill-rule="evenodd"/><path d="m313.5811 187.7712c9.0059-9.2393 22.1352-26.8717 28.2006-36.6889-11.8519 13.601-21.3768 27.0444-30.3099 35.8791" fill-rule="evenodd"/><path d="m335.824 181.6737c5.0866.6672 6.2818 3.346 11.7276 1.1976 5.8842-2.3209 17.5045-7.262 27.7509-6.8798-7.2479-5.4055-19.6558-12.6078-26.0123-8.0868-4.8094 3.4206-7.2721 7.4872-13.4662 13.769z" fill-rule="evenodd"/><path d="m332.5446 181.7896c10.6355 1.3731 22.2731-12.7951 42.7579-5.7982-20.1257-9.2542-29.1536 4.0084-42.7691 3.7231" fill-rule="evenodd"/><path d="m370.7109 154.2591c-1.3149 1.9262-3.2753 2.6822-4.3787 1.6886-1.1032-.9946-.9316-3.3623.3832-5.2886 1.3151-1.9273 3.2754-2.6833 4.3786-1.6887 1.1035.9935.9318 3.3613-.3831 5.2886z"/><path d="m355.9483 162.5068c3.957-.8522 9.2233-2.0624 11.7495-7.0399-.0931-.6358-.9272-1.5487-1.2788-1.4632-1.9412 4.5234-7.1156 5.9358-10.017 6.0583" fill-rule="evenodd"/><path d="m354.9674 164.3956c-2.6106-3.0104-5.1545-6.1162-4.0482-11.5605l1.2676-.0734c-.5301 2.5065 1.6025 7.4456 3.8307 9.2555" fill-rule="evenodd"/><path d="m348.6671 151.6663c-.0394 2.2918 1.1461 3.9492 2.6481 3.7013s2.7516-2.3067 2.7911-4.5985c.0396-2.2929-1.1459-3.9503-2.6478-3.7024-1.5021.2478-2.7518 2.3067-2.7914 4.5995z"/><path d="m360.8528 149.3064c-.7579 1.8011-.4773 4.0055.6264 4.9238 1.1036.9193 2.6129.2027 3.3706-1.5984.7579-1.8011.4772-4.0055-.6264-4.9237-1.1038-.9182-2.6127-.2038-3.3706 1.5984z"/><path d="m355.0345 162.6978c1.6703-3.4439 4.0771-6.8618 6.4155-10.1247.3638.0816 1.0088.895 1.0012 1.3314-2.6672 3.8464-3.7917 5.8081-5.5427 9.7774" fill-rule="evenodd"/><path d="m368.7057 128.8703c13.0206-9.8318 1.7127-22.5111-3.8183-36.7978-2.0845 12.7274-12.5092 29.2943 3.8183 36.7978z" fill-rule="evenodd"/><path d="m368.9783 135.4101c-3.3586-13.8284-3.4176-28.5247-4.0909-43.3376 2.2985 11.9401 3.745 31.2844 6.1565 42.8241" fill-rule="evenodd"/></g><g><path d="m410.9627 86.2231c11.8197 1.896 34.9153.551 38.5373-1.2478-6.784-3.1106-24.3365-4.3909-38.5373 1.2478z"/><path d="m397.4596 89.9471c10.1733 3.8526 30.8953 5.1787 34.3496 3.8137-5.333-4.4556-20.1462-7.9701-34.3496-3.8137z"/><path d="m401.1098 88.413c15.5427-4.3134 27.1311-9.9953 32.005-12.8572-11.7226.8029-18.4506 1.4643-32.005 12.8572z"/><path d="m290.8241 125.3146c18.4829-12.2106 38.8795-31.0701 54.5904-40.7579-14.8473 3.2106-41.9652 23.1555-54.5904 40.7579z"/><path d="m339.7303 104.8998c18.1031-10.5748 41.0665-27.5412 43.75-31.4312-13.9978 4.9543-32.5693 15.1924-43.75 31.4312z"/><path d="m316.7862 113.6467c19.9654-13.8888 37.8841-26.5378 50.9309-37.2683-14.1077 4.4053-36.7492 18.5236-50.9309 37.2683z"/><path d="m324.4163 109.1266c16.7504-.7492 52.2179.5281 54.3652 1.718-7.5422-8.1423-30.1175-8.112-54.3652-1.718z"/><path d="m380.5615 92.4624c17.8943-6.4118 35.1682-17.2294 38.0293-20.6624-12.3102 2.2167-24.5141 7.231-38.0293 20.6624z"/><path d="m358.7741 99.2107c18.5785-9.5068 39.6914-23.7083 42.8093-27.4107-14.0628 3.8987-30.0073 11.6368-42.8093 27.4107z"/><path d="m351.5923 100.2063c13.4913 3.5781 40.0135 5.6145 43.3854 4.8189-9.2921-6.3916-22.9518-7.9206-43.3854-4.8189z"/><path d="m305.9315 117.8082c18.2422 1.0345 52.8212-.6861 55.8874-1.6887-12.1704-6.3545-32.7533-5.1026-55.8874 1.6887z"/><path d="m372.1767 94.4062c12.3827 4.6381 36.539 6.2367 39.4349 5.2814-7.9999-6.6422-20.4569-8.6067-39.4349-5.2814z"/><path d="m285.9132 123.9475c3.0328-1.5046 6.0954-2.9856 9.1851-4.4396 36.0092-16.9461 75.7007-30.232 114.7135-34.4948 8.0611-.8808 7.281.8151.21 2.0763-41.1715 7.3438-79.2827 20.9737-112.5883 36.8748-3.1565 1.507-6.2699 3.0344-9.3386 4.5789"/></g><g><path d="m181.2723 200.1671c3.407-.3166 7.393-.9708 11.2912-1.1252 3.9157-.1548 5.5281-.8524 8.432-1.0487 4.7511-.3222 13.1294-8.9691 28.7192-.7198-8.6799 18.2476-32.7781 20.7082-48.4424 2.8937z" fill-rule="evenodd"/><path d="m181.2723 200.1671c14.797 2.3359 19.6071 8.9361 45.9295-3.9593 2.1506-1.0544 4.7234-.1481 6.3832-.9262l2.105 1.3151c-1.8196.797-5.1586.2902-6.7758 1.0336-30.1677 13.8551-30.8678 6.233-47.6415 2.5379z" fill-rule="evenodd"/><path d="m196.0846 176.7268c1.5797 1.7424 1.7762 3.7213.439 4.4198-1.3371.6985-3.7014-.1471-5.2806-1.8885-1.5796-1.7424-1.7761-3.7213-.439-4.4198 1.3369-.6996 3.7015.1471 5.2806 1.8885z"/><path d="m195.2204 180.5939c4.0433 3.0623 3.4367 7.8409 2.7113 10.4786l2.4176 1.039c.2909-3.7977.6476-8.9967-3.688-12.7169-.6749-.1011-1.4252.8589-1.441 1.1993z" fill-rule="evenodd"/><path d="m199.1535 192.3247 1.9248 1.8409c-3.8353 1.4614-7.5607 2.2745-12.7886-.3089l1.0164-1.1137c2.4008 1.2077 7.3494 1.0508 9.8474-.4183z" fill-rule="evenodd"/><path d="m186.9808 195.7352c2.3261.706 4.3634.1266 4.5501-1.2952.1879-1.4187-1.5455-3.1405-3.8716-3.8465-2.3257-.705-4.3634-.1266-4.5501 1.2952-.1874 1.4197 1.546 3.1416 3.8716 3.8465z"/><path d="m188.1451 184.1188c1.6148 1.2062 3.9453 1.5989 5.2054.8778 1.2602-.7212.9726-2.2837-.6419-3.4889-1.6148-1.2063-3.9452-1.5989-5.2054-.8777-1.26.7211-.9725 2.2837.6419 3.4889z"/><path d="m199.9873 193.1032c-3.0227-2.5039-5.6927-5.514-8.3355-8.5648.19-.3019.9694-1.0344 1.4128-.8998 3.1406 3.5152 6.2047 6.6271 9.7388 9.3569l-2.8157.1088z" fill-rule="evenodd"/><path d="m150.0391 130.0039c-14.0093 15.426-7.2158 30.3936 3.3273 40.5034 8.9393-19.9958-3.5315-24.6913-3.3273-40.5034z" fill-rule="evenodd"/><path d="m153.7122 173.2887c1.1432-23.371-8.0582-31.4745-3.6731-43.2848-6.8916 11.2842 2.5691 19.8611 1.6465 41.3191" fill-rule="evenodd"/><path d="m157.698 97.3243c-16.6411 8.0361-21.8285 26.2687-22.3838 41.8588 23.4133-13.1287 12.7547-26.212 22.3838-41.8588z" fill-rule="evenodd"/><path d="m157.698 97.3243c-10.2662 8.9384-12.5196 25.1699-24.9059 43.1106l.6292 2.6257c15.9356-25.173 14.9053-36.7287 24.2766-45.7363z" fill-rule="evenodd"/><path d="m119.0325 94.0976c.9649 3.1711 2.3811 6.8269 3.2733 10.4956.8962 3.6848 1.9091 5.081 2.6565 7.7988 1.2229 4.4454 10.4272 8.9828 4.9824 25.3414-20.1842-4.7595-26.0649-25.3865-10.9122-43.6358z" fill-rule="evenodd"/><path d="m131.2106 144.1236c-.0902-1.7196-.6915-4.1248-1.781-5.4978-18.8421-23.7501-12.856-28.4467-10.3972-44.5282-1.5496 20.2067-2.3549 24.0166 11.5194 42.3712 1.4766 1.8397 1.9959 3.5714 2.3579 5.0893" fill-rule="evenodd"/><path d="m157.3955 57.7624c-1.834 3.2624-3.8013 7.2108-6.0319 10.847-2.2404 3.6521-2.7623 5.4508-4.3722 8.1972-2.6344 4.4938-1.4542 13.9764-15.9833 24.3916-6.3603-16.4248 5.7622-37.4018 26.3873-43.4358z" fill-rule="evenodd"/><path d="m145.1376 98.9943c12.6411 10.9529 24.194-4.5335 38.4297-14.3845-13.8673 1.3867-33.2202-4.9351-38.4297 14.3845z" fill-rule="evenodd"/><path d="m157.3955 57.7624c-11.554 12.2435-15.785 13.1662-25.0157 43.7882-.7317 2.4279-2.6383 4.4344-3.1364 6.3136l-2.0892 1.3133c.5829-2.0343 2.4247-4.3853 2.955-6.2098 10.5685-36.3801 15.0638-34.004 27.2865-45.205z" fill-rule="evenodd"/><path d="m137.7259 100.2263c12.2558-5.7472 30.5641-10.9079 45.8413-15.6165-16.2671 7.1216-33.6057 12.0377-45.4522 17.8283" fill-rule="evenodd"/><path d="m150.1729 85.2392c1.605-6.5672 2.901-11.9749 4.6598-16.1492 2.9123-6.9121 6.1744-13.1164 14.8942-20.3052 1.6187 15.2645 2.9226 34.0432-19.5541 36.4545z" fill-rule="evenodd"/><path d="m143.1028 89.6321c9.9681-5.2299 17.5624-19.2316 26.6242-40.8473-3.0216 13.3232-9.382 30.8397-24.0822 41.7679l-2.5421-.9206z" fill-rule="evenodd"/><path d="m210.2806 39.8236c-2.7364 2.182-5.7556 4.8922-9.0215 7.273-3.2807 2.3914-4.2218 3.7286-6.602 5.5474-3.8944 2.9762-4.2988 11.0987-23.0923 15.6939-4.3026-15.2492 13.6744-29.1897 38.7158-28.5143z" fill-rule="evenodd"/><path d="m165.6044 73.847c1.0562-1.514 3.6502-2.9331 4.5873-4.3 18.0136-26.2768 20.7997-21.5965 40.0889-29.7234-11.9603 7.1592-21.8033 5.2269-36.1931 27.8899-1.1759 1.8518-3.7702 3.5425-4.6998 4.9521" fill-rule="evenodd"/><path d="m110.5 136.5934c3.331 22.5076 18.7356 27.8915 32.7051 26.7828-6.3367-31.446-20.8317-15.0933-32.7051-26.7828z" fill-rule="evenodd"/><path d="m146.5806 165.4326c-17.3236-19.2222-30.2497-17.3959-36.0806-28.8392 4.4636 11.7267 21.5536 14.9344 34.8499 30.2353" fill-rule="evenodd"/><path d="m237.5957 198.4399c-46.8354-.4449-110.1709-19.8131-110.1709-68.5313 0-42.3433 44.299-69.5856 85.2402-73.4108l.5469 3.0109c-39.4833 4.1902-80.9086 30.7929-81.312 70.3999-.4435 43.5474 60.1636 63.3466 105.6957 63.5313"/><path d="m138.4383 184.9648c3.6876.2255 8.0183.2112 12.2259.6745 4.2262.4648 6.0026.0321 9.1413.2968 5.1361.4334 12.441-6.3156 28.7614 4.268-10.3909 16.5982-34.2742 14.7744-50.1286-5.2393z" fill-rule="evenodd"/><path d="m191.8992 62.5123c14.1082 12.3349 27.8727-1.644 44.0936-10.3453-15.6781.1164-36.9906-7.4824-44.0936 10.3453z" fill-rule="evenodd"/><path d="m183.7356 63.4105c16.0496-6.2499 35.7779-7.644 52.2572-11.2435-12.6979 4.4628-37.0183 8.1248-50.4803 12.9142" fill-rule="evenodd"/><path d="m192.5306 67.4024c-2.0943 1.0345-4.2867.8506-4.8976-.4111-.6105-1.2617.592-3.123 2.6861-4.1578 2.0942-1.0344 4.2867-.8505 4.8974.4111.6105 1.2617-.5919 3.1231-2.686 4.1578z"/><path d="m188.1989 65.8582c-3.8285 2.8967-8.8066 1.655-11.6142.5697l-2.1736 1.39c4.1294.9216 10.0442 2.5737 14.6275-.4549.1904-.5564-.4684-1.431-.8403-1.5045z" fill-rule="evenodd"/><path d="m176.4428 58.6283c-3.3018 3.3396-2.6932 6.2305-1.3727 8.6167l-1.5777 1.8909c-1.1557-3.5226-2.3572-6.8902 1.0835-10.8796.6448-.174 1.7734.0549 1.8669.372z" fill-rule="evenodd"/><path d="m172.7462 56.2829c-1.044 1.8537-.6466 3.69.8878 4.1015 1.5345.4114 3.6246-.7577 4.6685-2.6115 1.0441-1.8536.6468-3.69-.8878-4.1014-1.5344-.4115-3.6245.7575-4.6685 2.6114z"/><path d="m185.3486 59.3352c-1.5103 1.1597-2.2121 3.0728-1.5679 4.273.645 1.1999 2.3909 1.2328 3.9009.0731 1.5104-1.1598 2.2123-3.0729 1.568-4.2731-.645-1.1999-2.3909-1.2328-3.9011-.073z"/><path d="m171.627 69.1109c3.0977-2.1272 9.2013-5.1597 12.8539-6.8667.3094.2153.7649 1.1595.5658 1.5128-4.2207 2.048-8.1418 3.8478-11.5466 6.37" fill-rule="evenodd"/><path d="m205.3903 79.3864c-6.386-.5885-13.2659.3787-18.4121 1.3764-4.3104.8357-10.4478 4.6713-24.7777-2.113 8.3518-11.6496 28.9472-12.5138 43.1898.7366z" fill-rule="evenodd"/><path d="m155.8741 79.3724c1.6965-.4112 4.521-1.0515 6.0456-1.4146 30.4103-7.242 30.7404-2.3191 43.4706 1.4287-17.1848-3.7077-16.1731-6.0147-43.8222.5197-2.0253.4786-3.4698.6875-5.0175 1.0977" fill-rule="evenodd"/><path d="m136.0652 92.3182c-1.2484 1.9765-1.0767 3.9338.3828 4.3726 1.4602.4379 3.6558-.8091 4.9042-2.7856 1.2485-1.9764 1.0775-3.9346-.3827-4.3725-1.4602-.438-3.6559.8091-4.9043 2.7854z"/><path d="m134.2655 106.5125c-.7982-3.3619-1.2264-7.5781 1.7971-11.2435.6527-.2202 1.4226.2589 1.7371.777-2.8664 3.0714-2.4872 6.5875-1.5297 9.1283" fill-rule="evenodd"/><path d="m135.2344 109.8547c3.5259.456 7.0576.9896 11.1725-2.0162l-.4857-1.4297c-1.9427 1.4224-7.2597 2.255-9.8285 1.5552" fill-rule="evenodd"/><path d="m148.648 109.1464c-2.1829 1.1029-4.3177.9075-4.7674-.4374s.9554-3.3295 3.139-4.4332c2.1835-1.1038 4.3184-.9084 4.7681.4365.4498 1.345-.956 3.3304-3.1396 4.4341z"/><path d="m145.3359 98.0707c-1.3826 1.4621-3.6293 2.2633-5.0163 1.7886-1.3876-.4738-1.3916-2.0428-.008-3.5047 1.3833-1.463 3.6293-2.2633 5.017-1.7895 1.3876.4738 1.3909 2.0437.008 3.5056z"/><path d="m135.2188 108.9298c2.5426-2.9765 4.8232-5.9782 6.8875-9.4175-.2473-.2569-1.1972-1.0509-1.6112-.8428-2.4733 3.9804-4.0837 6.3413-7.0945 9.6296" fill-rule="evenodd"/><path d="m197.2542 190.0373c-2.0054.4971-4.9361-.2569-6.7381.1804-35.9397 8.7269-33.2311 1.6722-52.0778-5.2529 16.6049 5.3375 19.9745 11.3658 50.3521 3.8828 2.4085-.5931 4.3923-.5095 6.2714-.4383" fill-rule="evenodd"/><path d="m219.383 196.2694c-11.1285 11.8937-23.3803.1619-37.7237-6.1116 13.302-1.1668 31.1921-10.1136 37.7237 6.1116z" fill-rule="evenodd"/><path d="m225.7918 195.9612c-14.032-4.15-34.4642-5.1917-44.1325-5.8034 13.4495 3.3297 32.3841 4.3214 44.1234 7.4079" fill-rule="evenodd"/><path d="m192.2761 174.4899c18.5777-6.1996 33.213 6.0984 42.4484 19.7537-27.1641 7.072-25.5157-13.3925-42.4484-19.7537z" fill-rule="evenodd"/><path d="m238.4857 196.7112c-25.1538-8.6479-33.2753-21.9945-46.2096-22.2212 12.8539-2.2211 26.644 14.2986 47.1964 20.5042" fill-rule="evenodd"/><path d="m182.9482 181.5168c7.1328-16.2712-11.1223-20.9443-24.6714-30.4064 5.2129 12.4968 4.4263 33.221 24.6714 30.4064z" fill-rule="evenodd"/><path d="m186.4189 187.7712c-9.0059-9.2393-22.1352-26.8717-28.2006-36.6889 11.8519 13.601 21.3768 27.0444 30.3099 35.8791" fill-rule="evenodd"/><path d="m164.1761 181.6737c-5.0866.6672-6.2818 3.346-11.7276 1.1976-5.8842-2.3209-17.5045-7.262-27.7509-6.8798 7.2479-5.4055 19.6558-12.6078 26.0123-8.0868 4.8094 3.4206 7.2721 7.4872 13.4662 13.769z" fill-rule="evenodd"/><path d="m167.4554 181.7896c-10.6355 1.3731-22.2731-12.7951-42.7579-5.7982 20.1257-9.2542 29.1536 4.0084 42.7691 3.7231" fill-rule="evenodd"/><path d="m129.2891 154.2591c1.3149 1.9262 3.2753 2.6822 4.3787 1.6886 1.1032-.9946.9316-3.3623-.3832-5.2886-1.3151-1.9273-3.2754-2.6833-4.3786-1.6887-1.1035.9935-.9318 3.3613.3831 5.2886z"/><path d="m144.0517 162.5068c-3.957-.8522-9.2233-2.0624-11.7495-7.0399.0931-.6358.9272-1.5487 1.2788-1.4632 1.9412 4.5234 7.1156 5.9358 10.017 6.0583" fill-rule="evenodd"/><path d="m145.0327 164.3956c2.6106-3.0104 5.1545-6.1162 4.0482-11.5605l-1.2676-.0734c.5301 2.5065-1.6025 7.4456-3.8307 9.2555" fill-rule="evenodd"/><path d="m151.3329 151.6663c.0394 2.2918-1.1461 3.9492-2.6481 3.7013s-2.7516-2.3067-2.7911-4.5985c-.0396-2.2929 1.1459-3.9503 2.6478-3.7024 1.5021.2478 2.7518 2.3067 2.7914 4.5995z"/><path d="m139.1472 149.3064c.7579 1.8011.4773 4.0055-.6264 4.9238-1.1036.9193-2.6129.2027-3.3706-1.5984-.7579-1.8011-.4772-4.0055.6264-4.9237 1.1038-.9182 2.6127-.2038 3.3706 1.5984z"/><path d="m144.9655 162.6978c-1.6703-3.4439-4.0771-6.8618-6.4155-10.1247-.3638.0816-1.0088.895-1.0012 1.3314 2.6672 3.8464 3.7917 5.8081 5.5427 9.7774" fill-rule="evenodd"/><path d="m131.2943 128.8703c-13.0206-9.8318-1.7127-22.5111 3.8183-36.7978 2.0845 12.7274 12.5092 29.2943-3.8183 36.7978z" fill-rule="evenodd"/><path d="m131.0217 135.4101c3.3586-13.8284 3.4176-28.5247 4.0909-43.3376-2.2985 11.9401-3.745 31.2844-6.1565 42.8241" fill-rule="evenodd"/></g><g stroke-miterlimit="4.1653" transform="translate(-2.4765)"><path d="m262.6141 199.3867c2.131 2.8898 7.1623 15.8225 7.7862 20.3892-2.7795-.5425-6.2874-.5711-9.0615 0-.3022-3.6061-4.3113-16.6568-6.2309-20.6534z" fill-rule="evenodd"/><path d="m255.9766 197.6209 16.6515-6.6474 2.8279 5.421c2.1325 5.4247-14.3717 6.2984-17.7277 4.3009z"/><path d="m242.3388 199.3867c-2.131 2.8898-7.1623 15.8225-7.7862 20.3892 2.7795-.5425 6.2874-.5711 9.0615 0 .3022-3.6061 4.3113-16.6568 6.2309-20.6534z" fill-rule="evenodd"/><path d="m248.9764 197.6209-16.6515-6.6474-2.8279 5.421c-2.1325 5.4247 14.3717 6.2984 17.7277 4.3009z"/><path d="m249.8925 194.5608c-4.5432-6.5837-17.0965-11.2714-18.547-4.7057-.495 2.2407-1.0625 4.8541-1.8485 6.5393 2.2691-4.7176 14.2656.6862 17.8142 4.5672z"/><path d="m255.0604 194.5608c4.5432-6.5837 17.0965-11.2714 18.547-4.7057.495 2.2407 1.0625 4.8541 1.8485 6.5393-2.269-4.7176-14.2656.6862-17.8142 4.5672z"/><path d="m259.0184 196.6242c0-8.6884-4.1116-5.5601-6.542-5.5601-2.4303 0-6.542-3.1283-6.542 5.5601 0 8.6883 4.0314 5.56 6.542 5.56s6.542 3.1283 6.542-5.56z"/></g></g></g><path d="m1.5 265c0 162.043 103.34 298.716 248.5 348.5 145.16-49.784 248.5-186.457 248.5-348.5v-233.5c-79.947-19.594-162.512-30-248.5-30s-168.553 10.406-248.5 30z" fill="none" stroke="#000" stroke-linecap="round" stroke-linejoin="round" stroke-width="3"/></svg>