<?xml version="1.0" encoding="utf-8"?><!DOCTYPE svg PUBLIC "-//W3C//DTD SVG 1.1//EN" "http://www.w3.org/Graphics/SVG/1.1/DTD/svg11.dtd"><svg viewBox="0 0 500 640" xmlns="http://www.w3.org/2000/svg"><path d="m.5.5v474.25c0 68.898 55.852 124.75 124.75 124.75h62.375c27.289 0 50.92 17.163 62.375 40 11.455-22.837 35.086-40 62.375-40h62.375c68.898 0 124.75-55.852 124.75-124.75v-474.25z" fill="#eac102" stroke="#000" stroke-linecap="round" stroke-linejoin="round"/><g stroke="#000" stroke-linecap="round" stroke-linejoin="round"><path d="m444.056.5v577.9688c-16.1972 10.8445-35.0898 17.9958-55.445 20.25v-598.2188z" fill="#ed1c24"/><path d="m333.167.5v599h-20.792c-12.6144 0-24.4432 3.6752-34.653 9.875v-608.875z" fill="#ed1c24"/><path d="m166.833.5v599h20.792c12.6144 0 24.4432 3.6752 34.653 9.875v-608.875z" fill="#ed1c24"/><path d="m55.944.5v577.9688c16.1972 10.8445 35.0898 17.9958 55.445 20.25v-598.2188z" fill="#ed1c24"/><path d="m.5 216.833v166.334h499v-166.334z" fill="#0071bc"/></g><path d="m258.7174 308.7175c2.4585 23.4432 14.6976 43.9837 32.5659 57.449-11.9725-7.4859-26.1222-11.8134-41.2833-11.8134s-29.3107 4.3276-41.2832 11.8134c17.8689-13.4653 30.108-34.0058 32.5658-57.449-23.4429 2.458-43.9838 14.6973-57.4492 32.5657 7.4859-11.9725 11.8135-26.1222 11.8135-41.2833s-4.3275-29.3107-11.8135-41.2832c13.4654 17.8684 34.0063 30.1077 57.4492 32.5657-2.4578-23.4432-14.6969-43.9837-32.5658-57.449 11.9725 7.4859 26.1221 11.8134 41.2832 11.8134s29.3108-4.3275 41.2833-11.8134c-17.8683 13.4653-30.1075 34.0058-32.566 57.449 23.4436-2.458 43.9838-14.6973 57.4492-32.5658-7.4859 11.9725-11.8135 26.1221-11.8135 41.2832s4.3275 29.3108 11.8135 41.2833c-13.4647-17.8684-34.0056-30.1077-57.4492-32.5657z" fill="#e5e5e5" stroke="#000" stroke-linecap="round" stroke-linejoin="round"/><path d="m1.5 1.5v473.25c0 68.35 55.4 123.75 123.75 123.75h62.375c27.18 0 50.966 17.254 62.375 40 11.409-22.746 35.195-40 62.375-40h62.375c68.35 0 123.75-55.4 123.75-123.75v-473.25z" fill="none" stroke="#000" stroke-linecap="round" stroke-linejoin="round" stroke-width="3"/></svg>