<?xml version="1.0" encoding="utf-8"?><!DOCTYPE svg PUBLIC "-//W3C//DTD SVG 1.1//EN" "http://www.w3.org/Graphics/SVG/1.1/DTD/svg11.dtd"><svg viewBox="0 0 720 1320" xmlns="http://www.w3.org/2000/svg"><g stroke="#000" stroke-linecap="round" stroke-linejoin="round"><g><path d="m41.0343 657.0207c6.6435 14.5248 4.5481 41.2428 2.3669 45.4154l13.0809 9.0399c1.5109-21.1122-2.3148-39.7599-15.4478-54.4553z" fill="#c09f02"/><path d="m678.9656 657.0207c-6.6435 14.5248-4.5481 41.2428-2.3669 45.4154l-13.0809 9.0399c-1.5109-21.1122 2.3148-39.7599 15.4478-54.4553z" fill="#c09f02"/><path d="m412.1021 1189.1499 24.8334-21.344-15.2298-30.4129c-7.0761.4573-16.5947 1.2226-24.5496.9483 9.1402-21.3854 24.284-35.478 51.3545-35.478 21.9212 0 36.0893 16.4418 49.9734 25.2261 17.3913 11.0034 27.367 6.0325 38.3814-3.4091 41.5054-35.5786 91.3707-45.0906 140.2261-60.4083l13.6451-39.8193-35.7558-26.0642c-6.9069 4.3269-12.5828 8.8133-20.0734 12.5645 5.5633-33.7737 18.4504-55.34 36.3278-81.6442 30.0412-44.2016 48.2647-69.0854 48.2647-107.9393 0-29.9929-14.7357-46.7714-33.4958-73.7916l18.726-4.4017 9.5872-37.6712-27.7609-19.8544-19.7451 23.3777c0-16.0616 2.958-32.3313 12.1542-52.0076 2.9191-6.2457 6.5063-12.704 10.7756-19.777-4.9333-3.8405-8.0669-6.2311-14.0938-10.9004-47.2128-36.5769-39.801-63.6682-38.1606-79.9872 6.9155 4.8242 11.2604 11.8835 18.4509 19.3693l33.07-15.6294.8903-43.2793c-48.3059-37.4019-83.1836-85.077-106.9333-143.8164l-35.2074-4.4129-15.5619 34.9476c5.5887 7.1009 9.7671 12.825 13.9431 19.2931l-59.4109 8.7432-37.344-10.2274-32.7625-39.4608c8.2469-1.5236 17.5712-2.5554 25.1016-3.4698l10.0772-35.5784-27.0378-21.5537c-18.1669 4.987-42.182 10.0613-64.762 10.0613s-46.5952-5.0743-64.762-10.0613l-27.0378 21.5537 10.0772 35.5784c7.5305.9144 16.8547 1.9462 25.1016 3.4698l-32.7625 39.4608-37.344 10.2274-59.4109-8.7432c4.176-6.4681 8.3544-12.1922 13.9431-19.2931l-15.5619-34.9476-35.2074 4.4129c-23.7497 58.7394-58.6274 106.4145-106.9333 143.8164l.8903 43.2793 33.07 15.6294c7.1906-7.4858 11.5354-14.5451 18.4509-19.3693 1.6404 16.319 9.0522 43.4103-38.1606 79.9872-6.0269 4.6693-9.1605 7.0599-14.0938 10.9004 4.2693 7.073 7.8566 13.5313 10.7756 19.777 9.1962 19.6763 12.1542 35.946 12.1542 52.0076l-19.7451-23.3777-27.7609 19.8544 9.5872 37.6712 18.726 4.4017c-18.7601 27.0202-33.4958 43.7987-33.4958 73.7916 0 38.8539 18.2235 63.7377 48.2647 107.9393 17.8774 26.3042 30.7645 47.8705 36.3278 81.6442-7.4906-3.7512-13.1666-8.2376-20.0734-12.5645l-35.7558 26.0642 13.6451 39.8193c48.8554 15.3177 98.7207 24.8297 140.2261 60.4083 11.0145 9.4416 20.9901 14.4125 38.3814 3.4091 13.8841-8.7843 28.0522-25.2261 49.9734-25.2261 27.0705 0 42.2143 14.0926 51.3545 35.478-7.9549.2743-17.4735-.491-24.5496-.9483l-15.2298 30.4129 24.8334 21.344c17.7608-2.4684 34.2608-3.5494 52.1021-3.5494s34.3413 1.081 52.1021 3.5494z" fill="#eac102"/><path d="m289.6921 333.5821c7.1927 2.1797 11.3223 3.2671 16.6711 4.5378" fill="none"/><path d="m175.8093 387.1527c-2.9935 5.7452-6.7385 10.7569-10.2082 15.9636" fill="none"/><path d="m157.6176 393.0958c-12.8788-13.5627-12.2432-29.7165 1.5278-28.6427 12.1953.9511 19.1427 14.2615 16.664 22.6996-2.3261 7.9183 7.7065 11.8287 11.9952 6.3823.4592-.5831.8382-1.2532 1.1442-2.0586 6.9216-18.2226-10.9555-39.9685-28.6781-40.6202-12.2058-.4487-20.103 4.447-23.2354 12.1441-4.1376 10.1674-1.639 26.3895 10.5132 39.2836 13.9769 14.8301 47.0271 28.1003 87.0592 24.2248 45.6024-4.415 67.9991-28.4974 76.3827-58.1305 6.0458-21.3696 3.3173-51.8476-15.7525-57.097-2.3365-.6432-4.9033-.8976-7.7332-.7321-30.7664 1.7991-32.4807 55.0688-9.2275 57.8642 1.1149.134 2.2856.1314 3.5148.022 12.9302-1.1484 15.8358-14.3315 11.9913-30.0967-.6567-2.6927-2.2804-4.2098-4.0912-4.7564-4.1565-1.2545-9.4978 2.5531-7.8136 8.6264.8487 3.0602 1.5355 11.8273-1.3272 12.6013-5.9863 1.6184-7.1595-27.0641 5.8568-30.3228 14.3909-3.6028 16.0854 23.1009 11.5698 39.9089-6.6975 24.9292-26.3732 49.3766-70.6316 51.7629-32.397 1.7468-58.6614-11.4084-69.7288-23.0634z" fill="#c09f02"/><path d="m44.3868 522.9402c5.4925-4.3102 10.6359-8.5035 15.7372-12.8164" fill="none"/><path d="m88.1274 538.3118c-7.4362-26.8096-34.8-49.3763-58.0254-31.4951-25.1886 19.3926 5.7098 77.1253 31.5136 60.8506.9275-.5851 1.7355-1.1989 2.4467-1.9419 11.0818-11.5782-1.8577-40.1295-12.9546-43.5424-2.7731-.8529-5.1111-.3666-6.7208.7572-3.7385 2.6103-3.9424 8.1483-.106 10.594 8.5035 5.4212 13.3295 20.4943 10.1158 22.6411-8.3378 5.5697-29.6486-28.066-15.8874-38.7426 13.8746-10.7647 32.1144 5.1979 39.0358 24.8396 6.0596 17.1961 12.2324 48.7248-33.1925 84.071 48.6221-37.5725 51.2675-61.0182 43.7748-88.0315z" fill="#c09f02"/><path d="m49.3077 1043.9166c7.4352 2.8445 14.9615 5.689 21.8445 8.5335" fill="none"/><path d="m42.9084 1064.272c-3.0657-.9573-6.0297-2.5404-9.0244-4.7386-25.6344-18.8162 5.2016-77.2917 31.1351-61.1449 15.6085 9.7184 1.3469 41.8706-10.4538 45.5-2.0646.635-3.819.5722-5.2576.028-4.7485-1.7962-5.8508-8.6498-1.5692-11.3794 8.5035-5.4212 13.4461-20.6745 10.1158-22.641-9.7209-5.7402-29.6486 28.066-15.8874 38.7427 13.8746 10.7646 30.6127-3.7093 36.1227-23.7804 6.4053-23.3326-1.1403-53.9632-29.325-95.5496 28.2779 41.7693 42.844 64.0555 39.3186 97.3153-2.5611 24.1622-23.8919 44.2939-45.1749 37.6477z" fill="#c09f02"/><path d="m305.8818 1167.0123c6.7874-.4725 13.8333-.9656 21.2641-1.394" fill="none"/><path d="m319.6249 1143.449c6.9612 23.4683-5.5023 36.0678-18.6177 32.9373-11.702-2.793-11.326-24.8882-4.8476-25.3092 4.0552-.2636 3.9902 3.1968 3.318 6.4001-1.4595 6.9545 2.4633 9.7988 6.4043 9.5351 2.702-.1808 5.3516-1.6834 6.3769-4.2441 4.913-12.2701-3.0116-24.6757-13.9645-25.3752-1.1483-.073-2.3456-.058-3.5483.1157-26.9494 3.8925-18.1033 50.8646 5.626 51.9411 2.7072.1229 5.17.019 7.5259-.2999 22.7152-3.0757 27.7419-30.1274 19.1252-50.7377-8.9774-21.473-23.9804-35.5489-55.5337-35.5489 33.5483 0 43.1756 23.864 48.1356 40.5857z" fill="#c09f02"/><path d="m29.8657 702.679 18.329 6.1688" fill="none"/><path d="m38.8157 748.6019c13.4594-18.227 14.3731-31.0751 14.3731-39.5736 0-12.3741-5.4576-22.9986-15.9903-26.5942-2.8646-.9778-5.9971-1.3882-9.4927-1.3157-16.7315.3469-27.2056 19.8142-27.2056 36.2576 0 12.212 4.3811 23.3824 14.7698 25.8002.9833.2288 1.984.3698 3.077.4354 17.2591 1.0369 22.6048-28.1945 15.6163-37.9106-1.2469-1.7335-2.6732-2.6557-4.0974-3.022-4.582-1.1785-9.1165 3.6996-7.3715 8.3464 3.4868 9.2845.3802 19.211-3.2538 19.1163-9.4284-.246-7.7708-34.7246 8.6097-35.5261 16.5156-.8078 23.7886 23.3283 4.4389 51.9929-6.3972 9.4769-31.7891 32.1276-31.7891 74.761 0-35.6498 26.8378-57.2243 38.3155-72.7676z" fill="#c09f02"/><path d="m430.3078 333.5821c-7.1927 2.1797-11.3223 3.2671-16.6711 4.5378" fill="none"/><path d="m544.1906 387.1527c2.9935 5.7452 6.7385 10.7569 10.2082 15.9636" fill="none"/><path d="m562.3823 393.0958c12.8788-13.5627 12.2432-29.7165-1.5278-28.6427-12.1953.9511-19.1427 14.2615-16.664 22.6996 2.3261 7.9183-7.7065 11.8287-11.9952 6.3823-.4592-.5831-.8382-1.2532-1.1442-2.0586-6.9216-18.2226 10.9555-39.9685 28.6781-40.6202 12.2058-.4487 20.103 4.447 23.2354 12.1441 4.1376 10.1674 1.639 26.3895-10.5132 39.2836-13.9769 14.8301-47.0271 28.1003-87.0592 24.2248-45.6024-4.415-67.9991-28.4974-76.3827-58.1305-6.0458-21.3696-3.3173-51.8476 15.7525-57.097 2.3365-.6432 4.9033-.8976 7.7332-.7321 30.7664 1.7991 32.4807 55.0688 9.2275 57.8642-1.1149.134-2.2856.1314-3.5148.022-12.9302-1.1484-15.8358-14.3315-11.9913-30.0967.6567-2.6927 2.2804-4.2098 4.0912-4.7564 4.1565-1.2545 9.4978 2.5531 7.8136 8.6264-.8487 3.0602-1.5355 11.8273 1.3272 12.6013 5.9863 1.6184 7.1595-27.0641-5.8568-30.3228-14.3909-3.6028-16.0854 23.1009-11.5698 39.9089 6.6975 24.9292 26.3732 49.3766 70.6316 51.7629 32.397 1.7468 58.6614-11.4084 69.7288-23.0634z" fill="#c09f02"/><path d="m675.6131 522.9402c-5.4925-4.3102-10.6359-8.5035-15.7372-12.8164" fill="none"/><path d="m631.8725 538.3118c7.4362-26.8096 34.8-49.3763 58.0254-31.4951 25.1886 19.3926-5.7098 77.1253-31.5136 60.8506-.9275-.5851-1.7355-1.1989-2.4467-1.9419-11.0818-11.5782 1.8577-40.1295 12.9546-43.5424 2.7731-.8529 5.1112-.3666 6.7208.7572 3.7385 2.6103 3.9424 8.1483.106 10.594-8.5035 5.4212-13.3295 20.4943-10.1159 22.6411 8.3378 5.5697 29.6486-28.066 15.8874-38.7426-13.8746-10.7647-32.1145 5.1979-39.0358 24.8396-6.0596 17.1961-12.2324 48.7248 33.1925 84.071-48.6221-37.5725-51.2675-61.0182-43.7749-88.0315z" fill="#c09f02"/><path d="m670.6922 1043.9166c-7.4352 2.8445-14.9615 5.689-21.8445 8.5335" fill="none"/><path d="m677.0915 1064.272c3.0657-.9573 6.0297-2.5404 9.0244-4.7386 25.6344-18.8162-5.2016-77.2917-31.1351-61.1449-15.6085 9.7184-1.3469 41.8706 10.4538 45.5 2.0646.635 3.819.5722 5.2576.028 4.7485-1.7962 5.8508-8.6498 1.5692-11.3794-8.5035-5.4212-13.4461-20.6745-10.1158-22.641 9.7209-5.7402 29.6486 28.066 15.8874 38.7427-13.8746 10.7646-30.6127-3.7093-36.1227-23.7804-6.4054-23.3326 1.1403-53.9632 29.325-95.5496-28.2779 41.7693-42.844 64.0555-39.3187 97.3153 2.5611 24.1622 23.8919 44.2939 45.1749 37.6477z" fill="#c09f02"/><path d="m414.1181 1167.0123c-6.7874-.4725-13.8333-.9656-21.2641-1.394" fill="none"/><path d="m400.375 1143.449c-6.9612 23.4683 5.5023 36.0678 18.6177 32.9373 11.702-2.793 11.326-24.8882 4.8476-25.3092-4.0552-.2636-3.9902 3.1968-3.318 6.4001 1.4595 6.9545-2.4633 9.7988-6.4043 9.5351-2.702-.1808-5.3516-1.6834-6.3769-4.2441-4.913-12.2701 3.0116-24.6757 13.9645-25.3752 1.1483-.073 2.3456-.058 3.5483.1157 26.9494 3.8925 18.1033 50.8646-5.626 51.9411-2.7072.1229-5.17.019-7.5259-.2999-22.7152-3.0757-27.7419-30.1274-19.1252-50.7377 8.9774-21.473 23.9804-35.5489 55.5337-35.5489-33.5483 0-43.1756 23.864-48.1356 40.5857z" fill="#c09f02"/><path d="m690.1342 702.679-18.329 6.1688" fill="none"/><path d="m681.1844 748.6019c-13.4594-18.227-14.3731-31.0751-14.3731-39.5736 0-12.3741 5.4576-22.9986 15.9903-26.5942 2.8646-.9778 5.9971-1.3882 9.4927-1.3157 16.7315.3469 27.2056 19.8142 27.2056 36.2576 0 12.212-4.3811 23.3824-14.7698 25.8002-.9833.2288-1.984.3698-3.077.4354-17.2591 1.0369-22.6048-28.1945-15.6163-37.9106 1.2469-1.7335 2.6732-2.6557 4.0974-3.022 4.582-1.1785 9.1165 3.6996 7.3715 8.3464-3.4868 9.2845-.3802 19.211 3.2538 19.1163 9.4284-.246 7.7708-34.7246-8.6097-35.5261-16.5156-.8078-23.7886 23.3283-4.4389 51.9929 6.3972 9.4769 31.7891 32.1276 31.7891 74.761 0-35.6498-26.8378-57.2243-38.3155-72.7676z" fill="#c09f02"/></g><g><path d="m38.3156 1272.6442 12.4482 12.1156c2.9887 5.2595 4.8299 18.0486.4958 27.9217-3.2363 7.0508-23.7987 6.8176-33.7508 6.8176 8.1298-15.815 15.8711-31.0399 20.8068-46.8549z" fill="#eac102"/><path d="m51.2596 1312.6815c.1817-.415.2398-.8782.2632-1.3541.6728-13.3873-45.3976-7.6553-40.6848-22.4796.1629-.5126.289-.7855.5314-1.2238 5.1092-9.0681 13.5757-18.7636 22.205-24.3578l34.1417 17.1763c-6.5802 11.7766-11.9844 22.3581-16.4565 32.239z" fill="#eac102"/><path d="m681.6841 1272.6442-12.4482 12.1156c-2.9887 5.2595-4.8299 18.0486-.4958 27.9217 3.2363 7.0508 23.7987 6.8176 33.7508 6.8176-8.1298-15.815-15.8711-31.0399-20.8068-46.8549z" fill="#eac102"/><path d="m668.7401 1312.6815c-.1817-.415-.2398-.8782-.2632-1.3541-.6728-13.3873 45.3976-7.6553 40.6848-22.4796-.1629-.5126-.289-.7855-.5314-1.2238-5.1092-9.0681-13.5757-18.7636-22.205-24.3578l-34.1417 17.1763c6.5802 11.7766 11.9844 22.3581 16.4565 32.239z" fill="#eac102"/><path d="m11.3694 1287.624c14.5173-28.9501 28.0622-57.7614 36.1765-85.0955 6.5502-22.0656 81.8682 25.8811 312.4539 25.8811 230.5858 0 305.9038-47.9467 312.454-25.8811 8.1143 27.3341 21.6592 56.1454 36.1765 85.0955-10.5068-20.7501-96.7273 31.876-348.6305 31.876-251.9031 0-338.1236-52.6261-348.6304-31.876z" fill="#eac102"/><path d="m125.3734 1226.9357 2.9174.647.9679 19.9827-4.0019.2179c-1.0617-4.7983-1.9545-8.0571-2.6785-9.7765-1.1958-2.7875-2.9277-5.1697-5.1959-7.1465-2.2684-1.9766-4.9558-3.3094-8.0622-3.9983-3.6468-.8086-7.2203-.5737-10.7206.7048-3.5003 1.2787-6.6219 3.5977-9.3649 6.9572-2.7431 3.3595-4.6387 7.403-5.687 12.1303-1.0782 4.8623-1.0739 9.4121.013 13.6492 1.0869 4.2372 3.0504 7.7476 5.8908 10.5313 2.8403 2.7838 6.1649 4.598 9.9739 5.4426 3.5926.7967 7.494.5849 11.7041-.6355 4.21-1.2204 8.1031-3.3754 11.6791-6.4652l2.7473 2.9473c-2.2259 2.1139-4.503 3.8196-6.8312 5.1171-3.6965 2.0995-7.3529 3.4426-10.969 4.0295s-7.4097.44-11.3805-.4406c-8.7793-1.9467-15.1889-6.7831-19.2289-14.5093-3.3403-6.409-4.1837-13.3412-2.5304-20.7969 1.2159-5.4836 3.5728-10.1687 7.0703-14.0554 3.4976-3.8864 7.7452-6.6501 12.7429-8.2912 4.9977-1.6408 10.0492-1.8951 15.1548-.763 2.7283.605 5.1784 1.538 7.3503 2.7989 2.1719 1.2611 4.2772 2.9821 6.316 5.1629z"/><path d="m163.0119 1232.3078 6.7949.853 11.8039 50.255c.5753 2.5262 1.2599 4.2365 2.0539 5.131.794.8944 1.9461 1.4363 3.4561 1.6259l.906.1137-.4343 3.4592-20.4668-2.5691.4342-3.4591c.6658.028 1.3144.081 1.9459.1606 1.3177.1653 2.1997.1366 2.646-.086.8616-.4217 1.3424-1.0306 1.4423-1.8268.072-.5765-.1345-2.0386-.6206-4.3863l-2.3929-11.5944-20.8374-2.6157-6.0087 11.8783c-.6287 1.2318-.974 2.0948-1.036 2.589-.069.549.015 1.0476.2514 1.4955.2366.448.5891.806 1.0574 1.0739.4683.268 1.2516.4708 2.3497.6087.7412.093 1.3434.1826 1.8067.2686l-.4342 3.4592-17.1723-2.1556.4342-3.4591c1.5923.1998 2.7583.1858 3.498-.042.7398-.2279 1.4143-.6592 2.0239-1.2937.6094-.6346 1.481-2.0241 2.6146-4.1685zm-11.2386 31.2164 17.7489 2.2279-5.7935-25.8249z"/><path d="m202.9269 1238.129 22.8065 1.6846c6.9261.5116 11.6672 1.3057 14.2235 2.3823 3.2062 1.2911 5.7848 3.285 7.7359 5.9816 1.951 2.6966 2.7818 6.0041 2.4924 9.9224-.2466 3.3389-1.2736 6.1624-3.081 8.4704-2.1753 2.7803-4.7086 4.681-7.6001 5.702-2.8915 1.0211-7.345 1.3095-13.3605.8651l-10.5547-.7795-1.0945 14.818c-.1631 2.2075-.1418 3.6102.064 4.208.272.8247.6861 1.4171 1.2421 1.7772.556.3602 1.7171.6055 3.4831.7359l1.9868.1467-.2568 3.4769-22.3512-1.6509.2568-3.4768 1.3659.1008c1.904.1407 3.2126.078 3.9259-.1886.7133-.2664 1.2536-.7259 1.6208-1.3785.3673-.6526.6202-1.9171.7588-3.7935l2.9166-39.4872c.1345-1.8211.08-3.0529-.1641-3.6952-.2438-.6422-.6931-1.1332-1.3478-1.4729-.6546-.3396-1.9753-.5828-3.9621-.7296l-1.3659-.1009zm14.7745 5.6276-1.7885 24.2138 8.8991.6573c4.4978.3322 7.68.165 9.5466-.5018 1.8664-.6667 3.4658-1.9427 4.7982-3.8281 1.3322-1.8853 2.0961-4.1525 2.2919-6.8016.2139-2.8973-.2971-5.3696-1.5331-7.417-1.236-2.0472-3.0151-3.5034-5.3372-4.3686-1.621-.5913-4.8322-1.0643-9.6336-1.419z"/><path d="m260.5275 1246.0648.1272-3.5255 20.6555.7451c9.4567.3411 16.0301 1.1735 19.7201 2.4971 5.4398 1.9406 9.7882 5.3507 13.0455 10.2303 3.5987 5.3905 5.2748 11.5006 5.0285 18.3304-.1676 4.6455-1.2567 8.9323-3.2672 12.8606-2.0106 3.9283-4.5806 7.0542-7.71 9.3778-2.5901 1.9554-5.67 3.291-9.2398 4.0067s-7.152 1.0087-10.7467.879l-29.573-1.0667.1257-3.484 2.4056.087.7866.07c1.0231.037 1.867-.1403 2.5318-.5316.6647-.3913 1.1479-.9277 1.4493-1.609.2125-.5184.3532-1.7315.422-3.6395l1.3959-38.6979c.079-2.1844-.01-3.5996-.2622-4.2457-.3562-.8711-.9569-1.488-1.8021-1.8508-.4918-.1838-2.1893-.3281-5.0927-.4329zm13.2993 50.3999 12.526.4518c1.2443.045 3.3192-.1017 6.2247-.4399s4.9919-.8029 6.2592-1.394c1.8588-.8743 3.6831-2.3244 5.4729-4.3502 1.7896-2.0258 3.2002-4.4806 4.2318-7.3644 1.0315-2.8838 1.6151-6.206 1.7508-9.9666.1346-3.7329-.2119-6.9848-1.0394-9.7557-.8276-2.7709-2.1352-5.2822-3.9228-7.534-1.7878-2.2518-3.8015-3.9925-6.0413-5.2224-2.2399-1.2298-4.7645-2.0476-7.574-2.4536-1.5158-.193-4.0572-.3539-7.6242-.4827l-8.5028-.3067z"/><path d="m330.0268 1245.3885 47.0655.024 5.4294 15.2347-3.6531 1.3678c-.9118-2.4907-1.907-4.4488-2.9853-5.8743-1.0784-1.4255-2.3714-2.6367-3.8788-3.6336-1.5075-.9968-3.029-1.6616-4.5644-1.9944-1.5356-.3328-4.3093-.5002-8.3213-.5022l-14.0283-.01-.011 21.2085h6.9726c2.5732 0 4.5172-.4335 5.832-1.3044 1.3147-.8709 2.2214-1.9565 2.7201-3.2567.3878-.9682.5824-2.6559.5836-5.0632l.0005-.9546h4.0674l-.013 25.4004h-4.0674v-2.1997c.0009-1.9368-.1436-3.3342-.4337-4.1921s-.8224-1.6675-1.5967-2.4288c-.7744-.7613-1.6111-1.2805-2.5102-1.5577-.8992-.2771-2.4278-.4162-4.586-.4173h-6.9726l-.01 18.8428c-.001 1.9645.088 3.1613.2679 3.5902.1797.429.4769.7404.8919.9343.4149.1939 1.5493.2913 3.4032.2922h8.6743c4.8421 0 8.6261-.5768 11.3522-1.7375 2.7259-1.1608 5.1271-2.9442 7.2036-5.3504 1.6334-1.8807 3.198-4.5362 4.6939-7.9664l3.7762 1.33-6.4837 18.1339-48.8501-.024v-3.4864l1.6601.0009c1.9369.0009 3.1405-.123 3.6111-.3718.7195-.3593 1.2732-.9401 1.661-1.7423.2769-.5533.4159-1.7568.4168-3.6106l.02-39.8438c.0009-1.7984-.1783-3.0021-.5377-3.6111-.3594-.6089-.9818-1.0795-1.867-1.4121-.4703-.1938-2.1166-.2915-4.9388-.293z"/><path d="m392.6089 1244.2769 22.858-.696c6.9418-.2113 11.7398.086 14.3942.8905 3.323.9508 6.095 2.6658 8.3159 5.1449 2.2208 2.4791 3.391 5.6823 3.5106 9.6095.1018 3.3465-.626 6.2614-2.1836 8.7448-1.8744 2.9914-4.1964 5.1452-6.966 6.4613-2.7697 1.3162-7.1691 2.0661-13.1982 2.2496l-10.5786.3221.4522 14.8515c.067 2.2125.2343 3.6054.5009 4.1786.3563.7919.8297 1.3381 1.4201 1.6384.5905.3004 1.7707.4237 3.5408.3698l1.9912-.061.1061 3.4848-22.4017.682-.1061-3.4847 1.369-.042c1.9083-.058 3.2033-.2567 3.885-.5958.6818-.3391 1.1713-.8523 1.4688-1.5396.2974-.6872.4174-1.9712.3602-3.8518l-1.2049-39.5764c-.056-1.8253-.2381-3.0447-.5474-3.6581s-.8072-1.055-1.4936-1.3248c-.6865-.2697-2.0253-.3743-4.0166-.3137l-1.369.042zm15.2796 4.0608.7388 24.2685 8.9192-.2715c4.508-.1372 7.6555-.6345 9.4427-1.4917 1.787-.8571 3.2451-2.2926 4.3741-4.3062s1.6531-4.348 1.5723-7.003c-.088-2.9039-.8537-5.3097-2.2959-7.2174s-3.3631-3.171-5.7625-3.7901c-1.6738-.4195-4.9167-.5561-9.7289-.4096z"/><path d="m449.3211 1243.0569 46.9652-3.07 6.419 14.8449-3.5553 1.6049c-1.0736-2.4253-2.1952-4.3138-3.3649-5.6654-1.1698-1.3514-2.5396-2.475-4.1093-3.3707-1.5698-.8955-3.1316-1.4589-4.6856-1.6901-1.5541-.2311-4.3329-.2159-8.3363.046l-13.9985.915 1.3834 21.1634 6.9578-.4549c2.5678-.1678 4.479-.7294 5.7336-1.6849 1.2546-.9554 2.088-2.0982 2.5002-3.4285.3234-.9915.4065-2.6884.2496-5.0905l-.062-.9526 4.0587-.2653 1.6568 25.3463-4.0587.2653-.1435-2.195c-.1263-1.9327-.3624-3.3176-.7083-4.1546-.3458-.8369-.9301-1.6098-1.7528-2.3186-.8228-.7087-1.6918-1.1718-2.6072-1.3892-.9154-.2175-2.4499-.2558-4.6035-.115l-6.9578.4548 1.2291 18.8026c.1281 1.9604.2959 3.1486.5034 3.5649.2074.4162.5245.7074.9513.8736s1.5651.1888 3.4151.068l8.6558-.5658c4.8318-.3158 8.5696-1.1425 11.2134-2.4799s4.9226-3.2748 6.8364-5.8123c1.5062-1.984 2.893-4.7365 4.1602-8.2577l3.8554 1.079-5.2777 18.5209-48.7461 3.1864-.2274-3.4789 1.6566-.1083c1.9327-.1263 3.1256-.3291 3.5788-.6083.6944-.4058 1.2087-1.0217 1.5429-1.8477.24-.5703.2995-1.7803.1786-3.6302l-2.5989-39.7589c-.1173-1.7947-.3753-2.984-.774-3.568-.3986-.5839-1.0505-1.0127-1.9557-1.2863-.482-.1625-2.1311-.1518-4.9474.032z"/><path d="m515.5323 1237.5637 29.6354-3.8377c5.6252-.7283 9.9539-.696 12.9862.097 3.0321.7931 5.4665 2.1937 7.303 4.2018 1.8364 2.0082 2.9428 4.4666 3.3196 7.3752.3873 2.9911-.024 5.7436-1.2324 8.2577-1.209 2.5142-3.1473 4.6205-5.815 6.3192-2.6678 1.6986-6.3442 2.8791-11.0293 3.5417l17.5455 16.5606c1.4338 1.3767 2.3659 2.2186 2.7963 2.5255 1.0705.7263 2.1624 1.2405 3.2757 1.5428 1.1133.3022 2.3285.3681 3.6457.1975l1.029-.1333.4478 3.4575-13.089 1.695-24.624-24.6837-7.3677.9541 2.2921 17.6989c.2558 1.9758.4843 3.2016.6855 3.6778.4226.8938.995 1.4894 1.717 1.7865s2.0572.3195 4.0054.067l1.4818-.1919.4477 3.4574-22.0207 2.8517-.4477-3.4575 1.9757-.2559c1.4817-.1918 2.464-.4166 2.9468-.6745.4827-.2578.892-.6526 1.2277-1.1843s.5378-1.1787.6065-1.9409c.015-.3089-.1229-1.7-.4148-4.1732l-4.8718-37.6204c-.2132-1.6463-.5306-2.805-.9522-3.4758-.4218-.6707-.948-1.1257-1.5788-1.365-.6308-.2391-1.6734-.2645-3.1277-.076l-2.3463.3039zm15.5222 2.5517 2.7983 21.6091 11.813-1.5298c4.0063-.5188 6.7869-1.1299 8.3419-1.8336 2.2196-.957 3.8812-2.3997 4.9847-4.3282 1.1034-1.9285 1.4792-4.251 1.1274-6.9677-.2985-2.3049-1.0301-4.1841-2.1948-5.6376-1.1647-1.4534-2.6278-2.4636-4.3892-3.0307-1.7615-.5671-4.2885-.6374-7.5813-.211z"/><path d="m603.9922 1224.3428 6.7296-1.2687 26.625 44.2267c1.3211 2.2288 2.4966 3.6473 3.5264 4.2557s2.2924.7715 3.7878.4896l.8973-.1691.6459 3.4259-20.2705 3.8213-.6458-3.426c.6423-.1773 1.2762-.3251 1.9016-.4429 1.305-.2461 2.1359-.5434 2.4925-.8922.6911-.6653.9624-1.3922.8138-2.1808-.1073-.5709-.7523-1.8994-1.9339-3.9855l-5.8283-10.3048-20.6373 3.8905-2.083 13.1476c-.2213 1.365-.2859 2.2923-.1935 2.7816.1023.5439.3349.9928.6973 1.3468.3624.3541.8074.587 1.3354.6986.5279.1116 1.3355.065 2.4232-.1397.7341-.1384 1.3348-.2376 1.8023-.2976l.6458 3.426-17.0076 3.2062-.6458-3.426c1.577-.2973 2.6827-.6677 3.3172-1.1111.6344-.4433 1.1445-1.0604 1.5304-1.8512.386-.7907.7902-2.3803 1.2128-4.7688zm-1.1404 33.1582 17.5786-3.3138-13.4229-22.8106z"/></g><g><path d="m359.9998 261.8123c106.0397 0 135.8165 11.2493 135.8165 16.7814 0 5.532-29.7767 16.7814-135.8165 16.7814s-135.8165-11.2493-135.8165-16.7814 29.7767-16.7814 135.8165-16.7814z" fill="#ed1c24"/><g fill="none"><path d="m240.6765 271.4215v14.3435" stroke-width="4.3013"/><path d="m245.7106 270.257v16.6725" stroke-width="4.1058"/><path d="m250.7446 269.493v18.2006" stroke-width="3.9102"/><path d="m255.7786 268.5475v20.0924" stroke-width="3.7147"/><path d="m260.8135 267.7107v21.766" stroke-width="3.5192"/><path d="m265.8475 266.9826v23.2214" stroke-width="3.3237"/><path d="m270.8815 266.2553v24.676" stroke-width="3.1282"/><path d="m275.9156 265.6367v25.9132" stroke-width="2.9327"/><path d="m280.9504 265.2363v26.714" stroke-width="2.7372"/><path d="m285.9844 264.7639v27.6595" stroke-width="2.5417"/><path d="m291.0185 264.0359v29.1149" stroke-width="2.3461"/><path d="m296.0533 263.6354v29.9157" stroke-width="2.1506"/><path d="m301.0874 263.454v30.2793" stroke-width="1.9551"/><path d="m306.1214 263.0168v31.1521" stroke-width="1.7596"/><path d="m311.1554 262.6532v31.8802" stroke-width="1.5641"/><path d="m316.1903 262.435v32.3166" stroke-width="1.3686"/><path d="m321.2243 262.1081v32.9711" stroke-width="1.1731"/><path d="m326.2584 261.8891v33.4083" stroke-width=".9776"/><path d="m331.2924 261.2346v34.7182" stroke-width=".782"/><path d="m336.3272 261.2346v34.7182" stroke-width=".5865"/><path d="m341.3613 261.2346v34.7182" stroke-width=".391"/><path d="m346.3953 261.2346v34.7182" stroke-width=".1955"/><path d="m230.6076 274.8774v7.431" stroke-width="4.6923"/><path d="m235.6417 273.0224v11.1426" stroke-width="4.4968"/><path d="m479.3239 271.4215v14.3435" stroke-width="4.3013"/><path d="m474.2899 270.257v16.6725" stroke-width="4.1058"/><path d="m469.255 269.493v18.2006" stroke-width="3.9102"/><path d="m464.221 268.5475v20.0924" stroke-width="3.7147"/><path d="m459.1869 267.7107v21.766" stroke-width="3.5192"/><path d="m454.1529 266.9826v23.2214" stroke-width="3.3237"/><path d="m449.1181 266.2553v24.676" stroke-width="3.1282"/><path d="m444.084 265.6367v25.9132" stroke-width="2.9327"/><path d="m439.05 265.2363v26.714" stroke-width="2.7372"/><path d="m434.0152 264.7639v27.6595" stroke-width="2.5417"/><path d="m428.9811 264.0359v29.1149" stroke-width="2.3461"/><path d="m423.9471 263.6354v29.9157" stroke-width="2.1506"/><path d="m418.913 263.454v30.2793" stroke-width="1.9551"/><path d="m413.8782 263.0168v31.1521" stroke-width="1.7596"/><path d="m408.8442 262.6532v31.8802" stroke-width="1.5641"/><path d="m403.8101 262.435v32.3166" stroke-width="1.3686"/><path d="m398.7761 262.1081v32.9711" stroke-width="1.1731"/><path d="m393.7413 261.8891v33.4083" stroke-width=".9776"/><path d="m388.7072 261.2346v34.7182" stroke-width=".782"/><path d="m383.6732 261.2346v34.7182" stroke-width=".5865"/><path d="m378.6391 261.2346v34.7182" stroke-width=".391"/><path d="m373.6043 261.2346v34.7182" stroke-width=".1955"/><path d="m489.392 274.8774v7.431" stroke-width="4.6923"/><path d="m484.3579 273.0224v11.1426" stroke-width="4.4968"/></g><g><path d="m557.9854 165.1778-39.4899 58.5257-36.6543 24.4453-121.8414-9.2658-121.8414 9.2658-36.6544-24.4453-39.4899-58.5257c13.0666-21.2586 45.1822-38.4943 82.26-36.8526 38.8964 1.7223 58.3084-18.9542 115.7257-18.9542 57.4172 0 76.8293 20.6765 115.7256 18.9542 37.0778-1.6418 69.1934 15.594 82.26 36.8526z" fill="#ed1c24"/><path d="m545.0603 165.7878 11.5933-29.2205-15.168-32.934c27.0346 22.1874 29.5296 46.9351 12.8938 75.257z" fill="#eac102"/><path d="m367.5171 77.2703c25.3305 7.8156 52.9453 16.6103 77.9624 12.8466 49.7108-7.4787 79.6901.1476 96.0062 13.5165 21.8974 17.9421 19.1874 46.2001 6.556 61.9074l6.3378 13.3494-5.9589 1.9355-7.6053-15.6352c25.5743-27.4753 13.8872-85.5268-94.4254-69.2145-26.0807 3.9278-54.7815-5.0447-80.7411-13.0545z" fill="#eac102"/><path d="m548.0417 165.5408-7.2265-.3502" fill="none"/><path d="m464.231 160.1028-11.2612-14.7586 12.8489-32.9298-6.507-25.8084-32.8767-19.9026c71.8043 10.4932 51.1094 59.5341 51.4 83.9777z" fill="#eac102"/><path d="m440.7924 83.7036c0 3.4242 2.7758 6.2 6.2 6.2s6.2-2.7758 6.2-6.2-2.7758-6.2-6.2-6.2-6.2 2.7758-6.2 6.2z" fill="#e5e5e5" fill-rule="evenodd"/><path d="m395.2747 80.3858c0 3.4242 2.7758 6.2 6.2 6.2s6.2-2.7758 6.2-6.2-2.7758-6.2-6.2-6.2-6.2 2.7758-6.2 6.2z" fill="#e5e5e5" fill-rule="evenodd"/><path d="m380.4277 76.5483c0 3.4242 2.7758 6.2 6.2 6.2s6.2-2.7758 6.2-6.2-2.7758-6.2-6.2-6.2-6.2 2.7758-6.2 6.2z" fill="#e5e5e5" fill-rule="evenodd"/><path d="m464.231 160.1028-5.6576.925-11.9354-15.771c29.3339-33.0979 13.0458-67.6235-21.1476-71.7936-24.5437-2.9932-40.5839 10.9327-65.4909 8.404v-6.777c19.2745 2.9061 44.7703-11.5058 66.4352-8.3867 45.8929 6.6074 50.9504 50.0004 26.5351 78.6406z" fill="#eac102"/><path d="m452.9697 145.3442-6.3317-.0874" fill="none"/><path d="m174.9394 165.7878-11.5933-29.2205 15.1679-32.934c-27.0345 22.1874-29.5296 46.9351-12.8937 75.257z" fill="#eac102"/><path d="m324.7251 80.3858c0 3.4242-2.7758 6.2-6.2 6.2s-6.2-2.7758-6.2-6.2 2.7758-6.2 6.2-6.2 6.2 2.7758 6.2 6.2z" fill="#e5e5e5" fill-rule="evenodd"/><path d="m352.4825 77.2703c-25.3305 7.8156-52.9453 16.6103-77.9624 12.8466-49.7108-7.4787-79.6901.1476-96.0062 13.5165-21.8974 17.9421-19.1873 46.2001-6.556 61.9074l-6.3377 13.3494 5.9589 1.9355 7.6054-15.6352c-25.5743-27.4753-13.8872-85.5268 94.4253-69.2145 26.0807 3.9278 54.7815-5.0447 80.7411-13.0545z" fill="#eac102"/><path d="m171.9579 165.5408 7.2266-.3502" fill="none"/><path d="m279.2074 83.7036c0 3.4242-2.7758 6.2-6.2 6.2s-6.2-2.7758-6.2-6.2 2.7758-6.2 6.2-6.2 6.2 2.7758 6.2 6.2z" fill="#e5e5e5" fill-rule="evenodd"/><path d="m339.5721 76.5483c0 3.4242-2.7758 6.2-6.2 6.2s-6.2-2.7758-6.2-6.2 2.7758-6.2 6.2-6.2 6.2 2.7758 6.2 6.2z" fill="#e5e5e5" fill-rule="evenodd"/><path d="m166.5233 170.1293c0 3.4242-2.7758 6.2-6.2 6.2s-6.2-2.7758-6.2-6.2 2.7758-6.2 6.2-6.2 6.2 2.7758 6.2 6.2z" fill="#e5e5e5" fill-rule="evenodd"/><path d="m160.6638 156.0564c0 3.4242-2.7758 6.2-6.2 6.2s-6.2-2.7758-6.2-6.2 2.7758-6.2 6.2-6.2 6.2 2.7758 6.2 6.2z" fill="#e5e5e5" fill-rule="evenodd"/><path d="m157.8999 141.3454c0 3.4242-2.7758 6.2-6.2 6.2s-6.2-2.7758-6.2-6.2 2.7758-6.2 6.2-6.2 6.2 2.7758 6.2 6.2z" fill="#e5e5e5" fill-rule="evenodd"/><path d="m160.4317 126.5549c0 3.4242-2.7758 6.2-6.2 6.2s-6.2-2.7758-6.2-6.2 2.7758-6.2 6.2-6.2 6.2 2.7758 6.2 6.2z" fill="#e5e5e5" fill-rule="evenodd"/><path d="m167.8553 113.3638c0 3.4242-2.7758 6.2-6.2 6.2s-6.2-2.7758-6.2-6.2 2.7758-6.2 6.2-6.2 6.2 2.7758 6.2 6.2z" fill="#e5e5e5" fill-rule="evenodd"/><path d="m177.6231 101.5716c0 3.4242-2.7758 6.2-6.2 6.2s-6.2-2.7758-6.2-6.2 2.7758-6.2 6.2-6.2 6.2 2.7758 6.2 6.2z" fill="#e5e5e5" fill-rule="evenodd"/><path d="m189.7351 92.7775c0 3.4242-2.7758 6.2-6.2 6.2s-6.2-2.7758-6.2-6.2 2.7758-6.2 6.2-6.2 6.2 2.7758 6.2 6.2z" fill="#e5e5e5" fill-rule="evenodd"/><path d="m203.6053 86.3818c0 3.4242-2.7758 6.2-6.2 6.2s-6.2-2.7758-6.2-6.2 2.7758-6.2 6.2-6.2 6.2 2.7758 6.2 6.2z" fill="#e5e5e5" fill-rule="evenodd"/><path d="m218.4522 82.7842c0 3.4242-2.7758 6.2-6.2 6.2s-6.2-2.7758-6.2-6.2 2.7758-6.2 6.2-6.2 6.2 2.7758 6.2 6.2z" fill="#e5e5e5" fill-rule="evenodd"/><path d="m233.6896 81.1853c0 3.4242-2.7758 6.2-6.2 6.2s-6.2-2.7758-6.2-6.2 2.7758-6.2 6.2-6.2 6.2 2.7758 6.2 6.2z" fill="#e5e5e5" fill-rule="evenodd"/><path d="m248.9273 80.9854c0 3.4242-2.7758 6.2-6.2 6.2s-6.2-2.7758-6.2-6.2 2.7758-6.2 6.2-6.2 6.2 2.7758 6.2 6.2z" fill="#e5e5e5" fill-rule="evenodd"/><path d="m294.4451 84.7828c0 3.4242-2.7758 6.2-6.2 6.2s-6.2-2.7758-6.2-6.2 2.7758-6.2 6.2-6.2 6.2 2.7758 6.2 6.2z" fill="#e5e5e5" fill-rule="evenodd"/><path d="m309.6828 83.3837c0 3.4242-2.7758 6.2-6.2 6.2s-6.2-2.7758-6.2-6.2 2.7758-6.2 6.2-6.2 6.2 2.7758 6.2 6.2z" fill="#e5e5e5" fill-rule="evenodd"/><path d="m255.7687 160.1028 11.2612-14.7586-12.8489-32.9298 6.507-25.8084 32.8767-19.9026c-71.8043 10.4932-51.1094 59.5341-51.4 83.9777z" fill="#eac102"/><path d="m255.7687 160.1028 5.6576.925 11.9354-15.771c-29.3339-33.0979-13.0458-67.6235 21.1476-71.7936 24.5437-2.9932 40.5839 10.9327 65.4909 8.404v-6.777c-19.2745 2.9061-44.7703-11.5058-66.4353-8.3867-45.8929 6.6074-50.9504 50.0004-26.5351 78.6406z" fill="#eac102"/><path d="m267.0299 145.3442 6.3317-.0874" fill="none"/><path d="m358.5811 69.1491c0 3.4242-2.7758 6.2-6.2 6.2s-6.2-2.7758-6.2-6.2 2.7758-6.2 6.2-6.2 6.2 2.7758 6.2 6.2z" fill="#e5e5e5" fill-rule="evenodd"/><path d="m351.0354 68.5048c0 3.4242-2.7758 6.2-6.2 6.2s-6.2-2.7758-6.2-6.2 2.7758-6.2 6.2-6.2 6.2 2.7758 6.2 6.2z" fill="#e5e5e5" fill-rule="evenodd"/><path d="m344.7344 67.1145c0 3.4242-2.7758 6.2-6.2 6.2s-6.2-2.7758-6.2-6.2 2.7758-6.2 6.2-6.2 6.2 2.7758 6.2 6.2z" fill="#e5e5e5" fill-rule="evenodd"/><path d="m338.4111 65.335c0 3.4242-2.7758 6.2-6.2 6.2s-6.2-2.7758-6.2-6.2 2.7758-6.2 6.2-6.2 6.2 2.7758 6.2 6.2z" fill="#e5e5e5" fill-rule="evenodd"/><path d="m259.4892 146.5263c0 3.4242-2.7758 6.2-6.2 6.2s-6.2-2.7758-6.2-6.2 2.7758-6.2 6.2-6.2 6.2 2.7758 6.2 6.2z" fill="#e5e5e5" fill-rule="evenodd"/><path d="m253.4528 132.1136c0 3.4242-2.7758 6.2-6.2 6.2s-6.2-2.7758-6.2-6.2 2.7758-6.2 6.2-6.2 6.2 2.7758 6.2 6.2z" fill="#e5e5e5" fill-rule="evenodd"/><path d="m250.1567 117.0037c0 3.4242-2.7758 6.2-6.2 6.2s-6.2-2.7758-6.2-6.2 2.7758-6.2 6.2-6.2 6.2 2.7758 6.2 6.2z" fill="#e5e5e5" fill-rule="evenodd"/><path d="m250.6068 102.0321c0 3.4242-2.7758 6.2-6.2 6.2s-6.2-2.7758-6.2-6.2 2.7758-6.2 6.2-6.2 6.2 2.7758 6.2 6.2z" fill="#e5e5e5" fill-rule="evenodd"/><path d="m331.828 63.8296c0 3.4242-2.7758 6.2-6.2 6.2s-6.2-2.7758-6.2-6.2 2.7758-6.2 6.2-6.2 6.2 2.7758 6.2 6.2z" fill="#e5e5e5" fill-rule="evenodd"/><path d="m325.0293 62.2787c0 3.4242-2.7758 6.2-6.2 6.2s-6.2-2.7758-6.2-6.2 2.7758-6.2 6.2-6.2 6.2 2.7758 6.2 6.2z" fill="#e5e5e5" fill-rule="evenodd"/><path d="m317.8152 61.0397c0 3.4242-2.7758 6.2-6.2 6.2s-6.2-2.7758-6.2-6.2 2.7758-6.2 6.2-6.2 6.2 2.7758 6.2 6.2z" fill="#e5e5e5" fill-rule="evenodd"/><path d="m310.4187 60.1779c0 3.4242-2.7758 6.2-6.2 6.2s-6.2-2.7758-6.2-6.2 2.7758-6.2 6.2-6.2 6.2 2.7758 6.2 6.2z" fill="#e5e5e5" fill-rule="evenodd"/><path d="m302.061 60.2027c0 3.4242-2.7758 6.2-6.2 6.2s-6.2-2.7758-6.2-6.2 2.7758-6.2 6.2-6.2 6.2 2.7758 6.2 6.2z" fill="#e5e5e5" fill-rule="evenodd"/><path d="m292.7347 61.7064c0 3.4242-2.7758 6.2-6.2 6.2s-6.2-2.7758-6.2-6.2 2.7758-6.2 6.2-6.2 6.2 2.7758 6.2 6.2z" fill="#e5e5e5" fill-rule="evenodd"/><path d="m282.7224 64.5706c0 3.4242-2.7758 6.2-6.2 6.2s-6.2-2.7758-6.2-6.2 2.7758-6.2 6.2-6.2 6.2 2.7758 6.2 6.2z" fill="#e5e5e5" fill-rule="evenodd"/><path d="m271.9967 69.4466c0 3.4242-2.7758 6.2-6.2 6.2s-6.2-2.7758-6.2-6.2 2.7758-6.2 6.2-6.2 6.2 2.7758 6.2 6.2z" fill="#e5e5e5" fill-rule="evenodd"/><path d="m262.3219 77.6836c0 3.4242-2.7758 6.2-6.2 6.2s-6.2-2.7758-6.2-6.2 2.7758-6.2 6.2-6.2 6.2 2.7758 6.2 6.2z" fill="#e5e5e5" fill-rule="evenodd"/><path d="m254.9683 88.8042c0 3.4242-2.7758 6.2-6.2 6.2s-6.2-2.7758-6.2-6.2 2.7758-6.2 6.2-6.2 6.2 2.7758 6.2 6.2z" fill="#e5e5e5" fill-rule="evenodd"/><path d="m356.9136 36.8501v-21.2142h-9.5263v-6.2927h9.5263v-8.8432h6.1725v8.8432h9.5263v6.2927h-9.5263v21.2142z" fill="#eac102"/><path d="m342.8999 46.3551c0 9.4441 7.6559 17.1 17.1 17.1s17.1-7.6559 17.1-17.1-7.6559-17.1-17.1-17.1-17.1 7.6559-17.1 17.1z" fill="#0071bc" fill-rule="evenodd"/><path d="m361.4187 69.1491c0 3.4242 2.7758 6.2 6.2 6.2s6.2-2.7758 6.2-6.2-2.7758-6.2-6.2-6.2-6.2 2.7758-6.2 6.2z" fill="#e5e5e5" fill-rule="evenodd"/><path d="m368.9644 68.5048c0 3.4242 2.7758 6.2 6.2 6.2s6.2-2.7758 6.2-6.2-2.7758-6.2-6.2-6.2-6.2 2.7758-6.2 6.2z" fill="#e5e5e5" fill-rule="evenodd"/><path d="m370.44 71.8419c4.7233 17.8104 2.0833 51.0466 9.2935 70.588l-19.7337 20.7613-19.7337-20.7613c7.2102-19.5413 4.5701-52.7776 9.2934-70.588 1.9086-7.1971 6.7738-10.6077 10.4403-10.6077 3.6664 0 8.5316 3.4106 10.4402 10.6077z" fill="#eac102"/><path d="m375.2632 141.2802c-6.8851-22.1948-3.5177-46.0141-8.0485-67.4796-.7946-3.7647-3.6626-8.5443-7.2149-8.5443s-6.4203 4.7796-7.2149 8.5443c-4.5308 21.4657-1.1634 45.2849-8.0485 67.4796l15.2634 16.4146z" fill="none"/><path d="m340.2661 142.4298 4.4704-1.1496" fill="none"/><path d="m379.7335 142.4298-4.4704-1.1496" fill="none"/><path d="m366.1998 57.849c0 3.4242-2.7758 6.2-6.2 6.2s-6.2-2.7758-6.2-6.2 2.7758-6.2 6.2-6.2 6.2 2.7758 6.2 6.2z" fill="#e5e5e5" fill-rule="evenodd"/><path d="m366.1998 59.8652c0 3.4242-2.7758 6.2-6.2 6.2s-6.2-2.7758-6.2-6.2 2.7758-6.2 6.2-6.2 6.2 2.7758 6.2 6.2z" fill="#e5e5e5" fill-rule="evenodd"/><path d="m366.1998 62.8611c0 3.4242-2.7758 6.2-6.2 6.2s-6.2-2.7758-6.2-6.2 2.7758-6.2 6.2-6.2 6.2 2.7758 6.2 6.2z" fill="#e5e5e5" fill-rule="evenodd"/><path d="m366.1998 68.2626c0 3.4242-2.7758 6.2-6.2 6.2s-6.2-2.7758-6.2-6.2 2.7758-6.2 6.2-6.2 6.2 2.7758 6.2 6.2z" fill="#e5e5e5" fill-rule="evenodd"/><path d="m366.1998 141.7647c0 3.4242-2.7758 6.2-6.2 6.2s-6.2-2.7758-6.2-6.2 2.7758-6.2 6.2-6.2 6.2 2.7758 6.2 6.2z" fill="#e5e5e5" fill-rule="evenodd"/><path d="m366.1998 127.9684c0 3.4242-2.7758 6.2-6.2 6.2s-6.2-2.7758-6.2-6.2 2.7758-6.2 6.2-6.2 6.2 2.7758 6.2 6.2z" fill="#e5e5e5" fill-rule="evenodd"/><path d="m366.1998 113.4437c0 3.4242-2.7758 6.2-6.2 6.2s-6.2-2.7758-6.2-6.2 2.7758-6.2 6.2-6.2 6.2 2.7758 6.2 6.2z" fill="#e5e5e5" fill-rule="evenodd"/><path d="m366.1998 75.1469c0 3.4242-2.7758 6.2-6.2 6.2s-6.2-2.7758-6.2-6.2 2.7758-6.2 6.2-6.2 6.2 2.7758 6.2 6.2z" fill="#e5e5e5" fill-rule="evenodd"/><path d="m366.1998 84.9603c0 3.4242-2.7758 6.2-6.2 6.2s-6.2-2.7758-6.2-6.2 2.7758-6.2 6.2-6.2 6.2 2.7758 6.2 6.2z" fill="#e5e5e5" fill-rule="evenodd"/><path d="m366.1998 98.6679c0 3.4242-2.7758 6.2-6.2 6.2s-6.2-2.7758-6.2-6.2 2.7758-6.2 6.2-6.2 6.2 2.7758 6.2 6.2z" fill="#e5e5e5" fill-rule="evenodd"/><path d="m333.1441 168.0218c9.4307 3.9765 13.3561 1.8529 17.327 5.6689l4.6542 4.4727v9.9203l-4.6542 4.4735c-3.9702 3.816-7.8963 1.6916-17.327 5.6689-.3866-3.0041-.218-5.4889 1.8183-7.7006-6.1102-.3719-10.9793-3.5672-14.9505-7.4019 3.9713-3.834 8.8404-7.0301 14.9505-7.402-2.0362-2.2117-2.2048-4.6958-1.8183-7.6998z" fill="#eac102"/><path d="m352.8539 183.1235h-27.1967" fill="none"/><path d="m354.0339 186.2876c-7.9739 5.0206-11.2537 3.5408-17.1474 7.7252" fill="none"/><path d="m354.0339 179.9593c-7.9739-5.0206-11.2537-3.5409-17.1474-7.7252" fill="none"/><path d="m364.8831 178.1722 4.4041-4.7276c3.7568-4.0327 1.6654-8.0199 5.581-17.5993-2.9574-.3927-5.4038-.2215-7.5811 1.8469-.3662-6.2065-3.512-11.1523-7.2872-15.1869-3.7752 4.0346-6.9211 8.9804-7.2872 15.1869-2.1774-2.0683-4.6236-2.2395-7.5811-1.8469 3.9156 9.5794 1.8242 13.5666 5.581 17.5993l4.4041 4.7276z" fill="#eac102"/><path d="m359.9998 175.8657v-27.6254" fill="none"/><path d="m356.8847 177.0635c-4.9435-8.0996-3.486-11.431-7.6054-17.4169" fill="none"/><path d="m223.3245 238.9752c-6.2554-2.6997-16.9842-15.8831-21.9968-22.7307l-6.2514 4.7335c8.1083 10.8718 14.614 17.7147 19.5549 21.7199 2.4704 2.0026 4.6266 3.3443 6.8863 4.0186z" fill="#eac102"/><path d="m496.6752 238.9752c6.2554-2.6997 16.9842-15.8831 21.9968-22.7307l6.2514 4.7335c-8.1083 10.8718-14.614 17.7147-19.5548 21.7199-2.4704 2.0026-4.6266 3.3443-6.8863 4.0186z" fill="#eac102"/><path d="m356.0927 198.5867c0 26.3778-39.9965 27.2029-42.6607-.1746-.1934-1.9872-2.3613-3.4518-4.3034-3.2141s-3.6729 2.1789-3.4375 4.1615c3.2318 27.2145-32.5024 28.7541-37.6547 1.9696l-2.3931-12.4406c-.3863-2.0082-2.5876-3.4216-4.5554-3.0313s-3.4979 2.5438-3.1124 4.5521l2.393 12.4655c5.4814 28.5522-22.3812 27.0341-35.4326 4.3629-1.0389-1.8047-3.6143-2.4485-5.3724-1.3715s-2.3604 3.6678-1.3429 5.485c15.1067 26.9798-4.456 21.9053-16.5808 5.2854-2.9222-4.0056-7.6778-10.5243-8.7666-12.0167-1.2252-1.6794-3.8393-2.0639-5.4825-.8106-1.6431 1.2532-2.0207 3.9197-.7934 5.5974 2.9303 4.0056 1.6528 2.2593 8.791 12.0167 15.2103 20.7915 34.9644 21.899 35.9698 4.6497 13.2466 9.7556 31.147 8.2975 36.2628-7.8906 12.9612 15.0874 36.6396 13.023 43.7596-4.0888 13.5916 17.9831 38.9287 15.2034 48.6193-.8581 9.6906 16.0615 35.0277 18.8412 48.6193.8581 7.12 17.1118 30.7984 19.1762 43.7596 4.0888 5.1158 16.1881 23.0162 17.6462 36.2628 7.8906 1.0054 17.2493 20.7595 16.1418 35.9698-4.6497 7.1382-9.7574 5.8607-8.0111 8.791-12.0167 1.2273-1.6777.8497-4.3442-.7934-5.5974-1.6432-1.2533-4.2573-.8688-5.4825.8106-1.0888 1.4924-5.8444 8.0111-8.7666 12.0167-12.1248 16.6199-31.6875 21.6944-16.5808-5.2854 1.0175-1.8172.4152-4.408-1.3429-5.485s-4.3335-.4332-5.3724 1.3715c-13.0514 22.6712-40.914 24.1893-35.4326-4.3629l2.393-12.4655c.3855-2.0083-1.1446-4.1618-3.1124-4.5521s-4.1691 1.0231-4.5554 3.0313l-2.3931 12.4406c-5.1523 26.7845-40.8865 25.2449-37.6547-1.9696.2354-1.9826-1.4954-3.9238-3.4375-4.1615s-4.11 1.2269-4.3034 3.2141c-2.6642 27.3775-42.6607 26.5524-42.6607.1746v-13.1386c0-2.0973-1.8367-4.0638-3.9071-4.0638s-3.9071 1.9665-3.9071 4.0638z" fill="#eac102"/><path d="m359.9999 262.1934c-109.255 0-142.6634-12.5356-142.6634-14.4091s33.4084-14.4092 142.6634-14.4092 142.6634 12.5357 142.6634 14.4092-33.4085 14.4091-142.6634 14.4091zm-107.7468 2.4925c-25.4398-3.3711-44.2395-8.6735-44.2395-16.9016 0-19.1227 101.5413-22.4427 151.9863-22.4427s151.9863 3.32 151.9863 22.4427c0 8.2281-18.7998 13.5305-44.2396 16.9016z" fill="#eac102" fill-rule="evenodd"/><path d="m279.1201 264.6862-53.964 11.522c-2.0184-9.7248-3.9243-18.561-8.5412-27.6545-2.4543-4.834 46.7089-15.8071 143.3849-15.8071 96.6761 0 145.8392 10.9731 143.3849 15.8071-4.6169 9.0936-6.5228 17.9297-8.5412 27.6545l-53.964-11.522z" fill="#eac102"/><path d="m216.2044 261.7522 3.1248-7.0382 10.1589 1.7614-6.7716 9.0457z" fill="#ed1c24"/><path d="m216.2044 261.7522 13.2837-5.2768" fill="none"/><path d="m264.4917 244.8919 28.0082-2.6522c2.8016-.2653 5.2686 1.7982 5.5314 4.6267s-1.7811 5.3191-4.5827 5.5844l-28.0082 2.6522c-2.8016.2653-5.2686-1.7982-5.5314-4.6267s1.7811-5.3191 4.5827-5.5844z" fill="#008f4c" fill-rule="evenodd"/><path d="m249.7288 252.9629c0 3.4242-2.7758 6.2-6.2 6.2s-6.2-2.7758-6.2-6.2 2.7758-6.2 6.2-6.2 6.2 2.7758 6.2 6.2z" fill="#e5e5e5" fill-rule="evenodd"/><path d="m323.6708 246.2356c0 3.4242-2.7758 6.2-6.2 6.2s-6.2-2.7758-6.2-6.2 2.7758-6.2 6.2-6.2 6.2 2.7758 6.2 6.2z" fill="#e5e5e5" fill-rule="evenodd"/><path d="m491.6608 278.5937c0 1.7452-30.832 13.4227-131.661 13.4227s-131.661-11.6775-131.661-13.4227c0-1.7453 30.832-13.4228 131.661-13.4228s131.661 11.6774 131.661 13.4228zm8.604 0c0 17.8136-93.7103 20.9063-140.265 20.9063s-140.265-3.0927-140.265-20.9063 93.7103-20.9063 140.265-20.9063 140.265 3.0928 140.265 20.9063z" fill="#eac102" fill-rule="evenodd"/><path d="m289.8938 200.3493c-8.4914-2.8934-12.6568-.4167-17.2768-3.9328l-5.2407-3.9885-2.0237-9.8804 3.4248-4.8796c2.9085-4.144 8.718-3.11 14.9647-7.3558.9715 2.9476 1.3196 5.4332-.1246 7.8304 5.7613-.2302 10.9471 2.4896 15.4233 5.9103-2.9153 4.2003-6.7963 7.8535-12.4056 8.8228 2.3443 1.9983 3.0077 4.4504 3.2586 7.4736z" fill="#eac102"/><path d="m240.0391 197.7904c-1.4442 2.3972-1.0961 4.8829-.1239 7.8296 7.7528-4.7021 12.0812-3.195 14.9685-7.3334l3.4201-4.902-2.0237-9.8803-5.236-3.9662c-4.5089-3.4154-9.0677-1.1293-17.2815-3.9542.2517 3.0224.9142 5.4754 3.2594 7.4728-5.61.9693-9.4864 4.6448-12.4015 8.845 4.4763 3.4207 9.6573 6.1181 15.4186 5.8887z" fill="#eac102"/><path d="m255.2131 188.8362c-11.8064-.1434-15.1442 1.3946-25.5416 2.5526" fill="none"/><path d="m254.8469 184.9632c-7.4965-4.7356-12.7677-2.7476-17.5481-6.1301" fill="none"/><path d="m256.2371 192.9299c-5.1121 5.0565-9.0246 3.2813-13.46 7.5596" fill="none"/><path d="m242.4266 162.3337c5.3003 8.2381 4.1457 13.0321 8.7761 16.9319l5.0619 4.2632 9.1132-.9613 3.1174-5.1258c2.6362-4.3345-.0706-9.2019 1.6364-18.0294-2.8337-.1003-5.076.3098-6.6825 2.578-1.6034-6.1285-6.0874-11.251-11.2443-14.0274-1.5328 5.3138-3.8795 10.1178-1.6043 16.1914-2.4479-1.8406-5.5003-2.5006-8.1739-1.8206z" fill="#eac102"/><path d="m263.6088 180.7191c2.3914-5.7414.2651-11.2829 3.3229-17.714" fill="none"/><path d="m257.3489 181.9033c-6.071-6.2288-5.7213-11.9017-10.2069-16.4899" fill="none"/><path d="m260.3519 180.7573c-3.8498-10.4061-2.923-18.3495-6.4631-27.4916" fill="none"/><path d="m266.3836 183.9176c5.0847-5.6849 9.5075-4.108 14.6141-8.826" fill="none"/><path d="m267.6326 190.6545c7.2996 2.9435 9.7091 1.1548 17.5207 5.829" fill="none"/><path d="m268.5115 187.4337c11.0444-3.0671 15.5982-.9613 25.6773-2.8178" fill="none"/><path d="m269.4741 187.9538c0 4.3631-3.537 7.9-7.9 7.9s-7.9-3.537-7.9-7.9c0-4.3631 3.537-7.9 7.9-7.9s7.9 3.5369 7.9 7.9z" fill="#ed1c24" fill-rule="evenodd"/><path d="m179.6808 198.7042c-5.3973-7.7754-9.8663-12.7678-26.3668-14.2101 5.6451-8.6204 17.4017-11.1156 25.0484-3.2494.7234-2.1527 1.1694-2.8544 3.1913-4.8431 1.8028 5.614 9.8312 9.8557 6.6461 19.9081l-3.1301 9.8788z" fill="#eac102"/><path d="m182.8667 203.1598c-.4809-4.1111.9129-7.8201.6643-11.1204-.4548-6.0385-2.4029-8.028-2.1454-11.1905" fill="none"/><path d="m207.358 213.6908s-8.2484-.674-11.8396.1593c-4.1011.9516-7.2157-.8273-7.8891-1.4988l-3.8952-7.7684c2.9769-5.3934 3.5629-8.3553 5.7935-11.2909 2.227-2.9308 5.8692-5.5056 8.5142-7.8073 1.1607 2.7039 1.8241 5.066 1.2705 7.6512 3.8209-1.2169 7.7663.5399 11.3572 3.1012-1.2275 4.5946-3.196 8.8227-6.7877 10.7335 1.9168 1.5428 2.7851 3.8182 3.4762 6.7203z" fill="#eac102"/><path d="m185.7663 208.1214c6.4181-5.2715 12.2939-6.2336 20.02-10.6864" fill="none"/><path d="m184.6561 205.2018c2.8072-4.7952 8.584-7.4681 11.7019-14.9273" fill="none"/><path d="m186.6639 210.8333c5.521.767 8.8691-2.4833 15.474-.0478" fill="none"/><path d="m187.6292 212.3514c-1.0333.5014-2.1666.7935-3.3896.7935-4.3588 0-7.8923-3.5674-7.8923-7.9681 0-2.683 1.3204-5.0287 3.3335-6.4726 3.9656 2.5445 7.3342 8.7096 7.9485 13.6472z" fill="#ed1c24" fill-rule="evenodd"/><path d="m430.1058 200.3493c8.4914-2.8934 12.6568-.4167 17.2768-3.9328l5.2407-3.9885 2.0237-9.8804-3.4248-4.8796c-2.9085-4.144-8.718-3.11-14.9647-7.3558-.9715 2.9476-1.3196 5.4332.1246 7.8304-5.7613-.2302-10.9471 2.4896-15.4233 5.9103 2.9152 4.2003 6.7963 7.8535 12.4055 8.8228-2.3442 1.9983-3.0076 4.4504-3.2585 7.4736z" fill="#eac102"/><path d="m479.9605 197.7904c1.4442 2.3972 1.0961 4.8829.1239 7.8296-7.7528-4.7021-12.0812-3.1949-14.9685-7.3334l-3.42-4.902 2.0236-9.8803 5.236-3.9662c4.5089-3.4154 9.0677-1.1293 17.2815-3.9542-.2517 3.0224-.9142 5.4754-3.2594 7.4728 5.61.9693 9.4864 4.6448 12.4015 8.845-4.4763 3.4207-9.6573 6.1181-15.4186 5.8887z" fill="#eac102"/><path d="m464.7865 188.8362c11.8064-.1434 15.1442 1.3946 25.5416 2.5526" fill="none"/><path d="m465.1527 184.9632c7.4965-4.7356 12.7677-2.7476 17.5481-6.1301" fill="none"/><path d="m463.7626 192.9299c5.1121 5.0565 9.0246 3.2813 13.46 7.5596" fill="none"/><path d="m460.5106 146.5263c0 3.4242 2.7758 6.2 6.2 6.2s6.2-2.7758 6.2-6.2-2.7758-6.2-6.2-6.2-6.2 2.7758-6.2 6.2z" fill="#e5e5e5" fill-rule="evenodd"/><path d="m477.573 162.3337c-5.3003 8.2381-4.1457 13.0321-8.7761 16.9319l-5.0619 4.2632-9.1132-.9613-3.1174-5.1258c-2.6362-4.3345.0704-9.2019-1.6364-18.0294 2.8337-.1003 5.076.3098 6.6826 2.578 1.6034-6.1285 6.0874-11.251 11.2443-14.0274 1.5328 5.3138 3.8795 10.1178 1.6043 16.1914 2.4479-1.8406 5.5003-2.5006 8.1739-1.8206z" fill="#eac102"/><path d="m456.3908 180.7191c-2.3914-5.7414-.2651-11.2829-3.3229-17.714" fill="none"/><path d="m462.6507 181.9033c6.071-6.2288 5.7213-11.9017 10.2069-16.4899" fill="none"/><path d="m459.6478 180.7573c3.8498-10.4061 2.923-18.3495 6.4631-27.4916" fill="none"/><path d="m453.616 183.9176c-5.0847-5.6849-9.5076-4.108-14.6141-8.826" fill="none"/><path d="m452.367 190.6545c-7.2996 2.9435-9.7091 1.1548-17.5207 5.829" fill="none"/><path d="m451.4881 187.4337c-11.0444-3.0671-15.5982-.9613-25.6773-2.8178" fill="none"/><path d="m540.3189 198.7042c5.3973-7.7754 9.8663-12.7678 26.3668-14.2101-5.6452-8.6204-17.4018-11.1156-25.0485-3.2494-.7233-2.1527-1.1693-2.8544-3.1913-4.8431-1.8028 5.614-9.831 9.8556-6.646 19.9081l3.13 9.8788z" fill="#eac102"/><path d="m512.6416 213.6908s8.2484-.674 11.8396.1593c4.1011.9516 7.2157-.8273 7.8891-1.4988l3.8952-7.7684c-2.9769-5.3934-3.5629-8.3553-5.7936-11.2909-2.227-2.9308-5.8692-5.5056-8.5142-7.8073-1.1607 2.7039-1.8241 5.066-1.2705 7.6512-3.8209-1.2169-7.7664.5399-11.3572 3.1012 1.2275 4.5946 3.196 8.8227 6.7877 10.7335-1.9167 1.5428-2.7851 3.8182-3.4761 6.7203z" fill="#eac102"/><path d="m537.133 203.1598c.4809-4.1111-.9129-7.8201-.6643-11.1204.4548-6.0385 2.4029-8.028 2.1454-11.1905" fill="none"/><path d="m534.2333 208.1214c-6.4181-5.2715-12.2939-6.2336-20.02-10.6864" fill="none"/><path d="m535.3436 205.2018c-2.8072-4.7952-8.584-7.4681-11.7019-14.9273" fill="none"/><path d="m533.3357 210.8333c-5.521.767-8.869-2.4833-15.474-.0478" fill="none"/><path d="m532.3704 212.3514c1.0333.5014 2.1667.7935 3.3897.7935 4.3589 0 7.8923-3.5674 7.8923-7.9681 0-2.683-1.3204-5.0287-3.3335-6.4726-3.9656 2.5445-7.3342 8.7096-7.9485 13.6472z" fill="#ed1c24" fill-rule="evenodd"/><path d="m386.8555 168.0218c-9.4307 3.9765-13.3561 1.8529-17.327 5.6689l-4.6542 4.4727v9.9203l4.6542 4.4735c3.9702 3.816 7.8963 1.6916 17.327 5.6689.3866-3.0041.218-5.4889-1.8183-7.7006 6.1102-.3719 10.9793-3.5672 14.9505-7.4019-3.9713-3.834-8.8404-7.0301-14.9505-7.402 2.0362-2.2117 2.2048-4.6958 1.8183-7.6998z" fill="#eac102"/><path d="m367.1457 183.1235h27.1967" fill="none"/><path d="m365.9657 186.2876c7.9739 5.0206 11.2537 3.5408 17.1474 7.7252" fill="none"/><path d="m365.9657 179.9593c7.9739-5.0206 11.2537-3.5409 17.1474-7.7252" fill="none"/><path d="m363.1149 177.0635c4.9435-8.0996 3.486-11.431 7.6054-17.4169" fill="none"/><path d="m367.8998 183.1235c0 4.3631-3.537 7.9-7.9 7.9s-7.9-3.537-7.9-7.9c0-4.3631 3.537-7.9 7.9-7.9s7.9 3.5369 7.9 7.9z" fill="#ed1c24" fill-rule="evenodd"/><path d="m315.5216 196.6977c0 3.4242-2.7758 6.2-6.2 6.2s-6.2-2.7758-6.2-6.2 2.7758-6.2 6.2-6.2 6.2 2.7758 6.2 6.2z" fill="#e5e5e5" fill-rule="evenodd"/><path d="m226.9921 207.0598c0 3.4242-2.7758 6.2-6.2 6.2s-6.2-2.7758-6.2-6.2 2.7758-6.2 6.2-6.2 6.2 2.7758 6.2 6.2z" fill="#e5e5e5" fill-rule="evenodd"/><path d="m377.3048 49.8543c.6665-1.6958.2508-6.6494 0-6.8877 0-1.1286-6.1096-2.0529-13.9512-2.2654v-11.8988c-1.1221-.1938-2.2372-.2975-3.3539-.2975s-2.2318.1037-3.3539.2975v11.8988c-7.8416.2125-13.951 1.1368-13.951 2.2654-.2508.2383-.6666 5.1919 0 6.8877 0-1.2852 7.8544-2.334 17.305-2.334s17.1054 1.0489 17.1054 2.334z" fill="#eac102"/><path d="m503.7952 261.7522-3.1247-7.0382-10.1589 1.7614 6.7716 9.0457z" fill="#ed1c24"/><path d="m503.7952 261.7522-13.2837-5.2768" fill="none"/><path d="m344.8316 240.1327-7.8813 5.3048 7.8813 5.3041h30.3366l7.8813-5.3041-7.8813-5.3048z" fill="#ed1c24"/><path d="m344.8316 240.1327 7.285 4.7477-7.285 5.8611" fill="none"/><path d="m336.9502 245.4374 15.1663-.5571h15.7668l15.1662.5571" fill="none"/><path d="m375.1682 240.1327-7.285 4.7477 7.285 5.8611" fill="none"/><path d="m455.5081 244.8919-28.0082-2.6522c-2.8016-.2653-5.2686 1.7982-5.5314 4.6267s1.7811 5.3191 4.5827 5.5844l28.0082 2.6522c2.8016.2653 5.2686-1.7982 5.5314-4.6267s-1.7811-5.3191-4.5827-5.5844z" fill="#008f4c" fill-rule="evenodd"/><path d="m450.5257 187.9538c0 4.3631 3.537 7.9 7.9 7.9s7.9-3.537 7.9-7.9c0-4.3631-3.537-7.9-7.9-7.9s-7.9 3.5369-7.9 7.9z" fill="#ed1c24" fill-rule="evenodd"/><path d="m404.4782 196.6977c0 3.4242 2.7758 6.2 6.2 6.2s6.2-2.7758 6.2-6.2-2.7758-6.2-6.2-6.2-6.2 2.7758-6.2 6.2z" fill="#e5e5e5" fill-rule="evenodd"/><path d="m493.0077 207.0598c0 3.4242 2.7758 6.2 6.2 6.2s6.2-2.7758 6.2-6.2-2.7758-6.2-6.2-6.2-6.2 2.7758-6.2 6.2z" fill="#e5e5e5" fill-rule="evenodd"/><path d="m470.271 252.9629c0 3.4242 2.7758 6.2 6.2 6.2s6.2-2.7758 6.2-6.2-2.7758-6.2-6.2-6.2-6.2 2.7758-6.2 6.2z" fill="#e5e5e5" fill-rule="evenodd"/><path d="m396.329 246.2356c0 3.4242 2.7758 6.2 6.2 6.2s6.2-2.7758 6.2-6.2-2.7758-6.2-6.2-6.2-6.2 2.7758-6.2 6.2z" fill="#e5e5e5" fill-rule="evenodd"/><path d="m553.4765 170.1293c0 3.4242 2.7758 6.2 6.2 6.2s6.2-2.7758 6.2-6.2-2.7758-6.2-6.2-6.2-6.2 2.7758-6.2 6.2z" fill="#e5e5e5" fill-rule="evenodd"/><path d="m559.336 156.0564c0 3.4242 2.7758 6.2 6.2 6.2s6.2-2.7758 6.2-6.2-2.7758-6.2-6.2-6.2-6.2 2.7758-6.2 6.2z" fill="#e5e5e5" fill-rule="evenodd"/><path d="m562.0999 141.3454c0 3.4242 2.7758 6.2 6.2 6.2s6.2-2.7758 6.2-6.2-2.7758-6.2-6.2-6.2-6.2 2.7758-6.2 6.2z" fill="#e5e5e5" fill-rule="evenodd"/><path d="m559.5681 126.5549c0 3.4242 2.7758 6.2 6.2 6.2s6.2-2.7758 6.2-6.2-2.7758-6.2-6.2-6.2-6.2 2.7758-6.2 6.2z" fill="#e5e5e5" fill-rule="evenodd"/><path d="m552.1445 113.3638c0 3.4242 2.7758 6.2 6.2 6.2s6.2-2.7758 6.2-6.2-2.7758-6.2-6.2-6.2-6.2 2.7758-6.2 6.2z" fill="#e5e5e5" fill-rule="evenodd"/><path d="m542.3767 101.5716c0 3.4242 2.7758 6.2 6.2 6.2s6.2-2.7758 6.2-6.2-2.7758-6.2-6.2-6.2-6.2 2.7758-6.2 6.2z" fill="#e5e5e5" fill-rule="evenodd"/><path d="m530.2647 92.7775c0 3.4242 2.7758 6.2 6.2 6.2s6.2-2.7758 6.2-6.2-2.7758-6.2-6.2-6.2-6.2 2.7758-6.2 6.2z" fill="#e5e5e5" fill-rule="evenodd"/><path d="m516.3945 86.3818c0 3.4242 2.7758 6.2 6.2 6.2s6.2-2.7758 6.2-6.2-2.7758-6.2-6.2-6.2-6.2 2.7758-6.2 6.2z" fill="#e5e5e5" fill-rule="evenodd"/><path d="m501.5476 82.7842c0 3.4242 2.7758 6.2 6.2 6.2s6.2-2.7758 6.2-6.2-2.7758-6.2-6.2-6.2-6.2 2.7758-6.2 6.2z" fill="#e5e5e5" fill-rule="evenodd"/><path d="m486.3102 81.1853c0 3.4242 2.7758 6.2 6.2 6.2s6.2-2.7758 6.2-6.2-2.7758-6.2-6.2-6.2-6.2 2.7758-6.2 6.2z" fill="#e5e5e5" fill-rule="evenodd"/><path d="m471.0725 80.9854c0 3.4242 2.7758 6.2 6.2 6.2s6.2-2.7758 6.2-6.2-2.7758-6.2-6.2-6.2-6.2 2.7758-6.2 6.2z" fill="#e5e5e5" fill-rule="evenodd"/><path d="m425.5547 84.7828c0 3.4242 2.7758 6.2 6.2 6.2s6.2-2.7758 6.2-6.2-2.7758-6.2-6.2-6.2-6.2 2.7758-6.2 6.2z" fill="#e5e5e5" fill-rule="evenodd"/><path d="m410.317 83.3837c0 3.4242 2.7758 6.2 6.2 6.2s6.2-2.7758 6.2-6.2-2.7758-6.2-6.2-6.2-6.2 2.7758-6.2 6.2z" fill="#e5e5e5" fill-rule="evenodd"/><path d="m375.2654 67.1145c0 3.4242 2.7758 6.2 6.2 6.2s6.2-2.7758 6.2-6.2-2.7758-6.2-6.2-6.2-6.2 2.7758-6.2 6.2z" fill="#e5e5e5" fill-rule="evenodd"/><path d="m381.5887 65.335c0 3.4242 2.7758 6.2 6.2 6.2s6.2-2.7758 6.2-6.2-2.7758-6.2-6.2-6.2-6.2 2.7758-6.2 6.2z" fill="#e5e5e5" fill-rule="evenodd"/><path d="m466.547 132.1136c0 3.4242 2.7758 6.2 6.2 6.2s6.2-2.7758 6.2-6.2-2.7758-6.2-6.2-6.2-6.2 2.7758-6.2 6.2z" fill="#e5e5e5" fill-rule="evenodd"/><path d="m469.8431 117.0037c0 3.4242 2.7758 6.2 6.2 6.2s6.2-2.7758 6.2-6.2-2.7758-6.2-6.2-6.2-6.2 2.7758-6.2 6.2z" fill="#e5e5e5" fill-rule="evenodd"/><path d="m469.393 102.0321c0 3.4242 2.7758 6.2 6.2 6.2s6.2-2.7758 6.2-6.2-2.7758-6.2-6.2-6.2-6.2 2.7758-6.2 6.2z" fill="#e5e5e5" fill-rule="evenodd"/><path d="m388.1718 63.8296c0 3.4242 2.7758 6.2 6.2 6.2s6.2-2.7758 6.2-6.2-2.7758-6.2-6.2-6.2-6.2 2.7758-6.2 6.2z" fill="#e5e5e5" fill-rule="evenodd"/><path d="m394.9705 62.2787c0 3.4242 2.7758 6.2 6.2 6.2s6.2-2.7758 6.2-6.2-2.7758-6.2-6.2-6.2-6.2 2.7758-6.2 6.2z" fill="#e5e5e5" fill-rule="evenodd"/><path d="m402.1846 61.0397c0 3.4242 2.7758 6.2 6.2 6.2s6.2-2.7758 6.2-6.2-2.7758-6.2-6.2-6.2-6.2 2.7758-6.2 6.2z" fill="#e5e5e5" fill-rule="evenodd"/><path d="m409.5811 60.1779c0 3.4242 2.7758 6.2 6.2 6.2s6.2-2.7758 6.2-6.2-2.7758-6.2-6.2-6.2-6.2 2.7758-6.2 6.2z" fill="#e5e5e5" fill-rule="evenodd"/><path d="m417.9388 60.2027c0 3.4242 2.7758 6.2 6.2 6.2s6.2-2.7758 6.2-6.2-2.7758-6.2-6.2-6.2-6.2 2.7758-6.2 6.2z" fill="#e5e5e5" fill-rule="evenodd"/><path d="m427.2651 61.7064c0 3.4242 2.7758 6.2 6.2 6.2s6.2-2.7758 6.2-6.2-2.7758-6.2-6.2-6.2-6.2 2.7758-6.2 6.2z" fill="#e5e5e5" fill-rule="evenodd"/><path d="m437.2774 64.5706c0 3.4242 2.7758 6.2 6.2 6.2s6.2-2.7758 6.2-6.2-2.7758-6.2-6.2-6.2-6.2 2.7758-6.2 6.2z" fill="#e5e5e5" fill-rule="evenodd"/><path d="m448.0031 69.4466c0 3.4242 2.7758 6.2 6.2 6.2s6.2-2.7758 6.2-6.2-2.7758-6.2-6.2-6.2-6.2 2.7758-6.2 6.2z" fill="#e5e5e5" fill-rule="evenodd"/><path d="m457.6779 77.6836c0 3.4242 2.7758 6.2 6.2 6.2s6.2-2.7758 6.2-6.2-2.7758-6.2-6.2-6.2-6.2 2.7758-6.2 6.2z" fill="#e5e5e5" fill-rule="evenodd"/><path d="m465.0315 88.8042c0 3.4242 2.7758 6.2 6.2 6.2s6.2-2.7758 6.2-6.2-2.7758-6.2-6.2-6.2-6.2 2.7758-6.2 6.2z" fill="#e5e5e5" fill-rule="evenodd"/></g></g></g><path d="m110.4999 460.5v474.25c0 68.898 55.852 124.75 124.75 124.75h62.375c27.289 0 50.92 17.163 62.375 40 11.455-22.837 35.086-40 62.375-40h62.375c68.898 0 124.75-55.852 124.75-124.75v-474.25z" fill="#0071bc" stroke="#000" stroke-linecap="round" stroke-linejoin="round"/><g stroke="#000" stroke-linecap="round" stroke-linejoin="round"><g><path d="m331.6682 705.455h-12.888v-15.6347h-18.888v15.6347h-18.888v-15.8347h-18.888v15.8347h-24.888v154.1283h245.5436v-154.1283h-24.888v-15.6347h-18.888v15.6347h-18.888v-15.6347h-12.888v15.6347h-18.888v-15.6347h-18.888v15.6347h-18.888v-15.6347h-18.888z" fill="#eac102"/><path d="m237.2283 721.5231h245.5436" fill="none"/><path d="m237.2283 765.1205h245.5436" fill="none"/><path d="m237.2283 749.3765h245.5436" fill="none"/><path d="m237.2283 733.633h245.5436" fill="none"/><path d="m237.2283 780.8643h245.5436" fill="none"/><path d="m237.2283 796.6083h245.5436" fill="none"/><path d="m237.2283 812.3521h245.5436" fill="none"/><path d="m237.2283 828.0958h245.5436" fill="none"/><path d="m283.2678 733.633v15.7436" fill="none"/><path d="m298.6138 749.3765v15.744" fill="none"/><path d="m298.6138 828.0958v-15.7437" fill="none"/><path d="m298.6138 796.6083v-15.744" fill="none"/><path d="m421.3857 749.3765v15.744" fill="none"/><path d="m421.3857 828.0958v-15.7437" fill="none"/><path d="m421.3857 796.6083v-15.744" fill="none"/><path d="m436.7322 733.633v15.7436" fill="none"/><path d="m436.7322 765.1205v15.7438" fill="none"/><path d="m436.7322 796.6084v15.7437" fill="none"/><path d="m436.7322 828.096v15.7436" fill="none"/><path d="m283.2678 765.1205v15.7438" fill="none"/><path d="m283.2678 796.6084v15.7437" fill="none"/><path d="m283.2678 828.096v15.7436" fill="none"/><path d="m237.2283 843.8394h245.5436" fill="none"/><path d="m298.6138 859.5833v-15.744" fill="none"/><path d="m421.3857 859.5833v-15.744" fill="none"/><path d="m267.8797 859.5833v-180.109l11.5694-11.7663v-35.2694h-23.7746v17.6204h-23.7745v-17.6204h-23.7746v17.6204h-23.7745v-17.6204h-23.7747v35.2694l11.5701 11.7663v180.109z" fill="#eac102"/><path d="m160.5 667.708h119" fill="none"/><path d="m172.1461 769.5285h95.7336" fill="none"/><path d="m172.1461 715.4959h95.7336" fill="none"/><path d="m172.1461 697.4851h95.7336" fill="none"/><path d="m243.9271 679.4745v18.0106" fill="none"/><path d="m220 679.4745v18.0106" fill="none"/><path d="m196.0728 679.4745v18.0106" fill="none"/><path d="m172.1461 679.4745h95.7336" fill="none"/><path d="m255.9034 697.4393v18.0566" fill="none"/><path d="m231.9762 697.4393v18.0566" fill="none"/><path d="m184.0966 697.4393v18.0566" fill="none"/><path d="m208.0492 697.4393v18.0566" fill="none"/><path d="m255.9034 733.5068v18.0278" fill="none"/><path d="m231.9762 733.5068v18.0278" fill="none"/><path d="m184.0966 733.5068v18.0278" fill="none"/><path d="m208.0492 733.5068v18.0278" fill="none"/><path d="m255.9034 769.5285v18.0104" fill="none"/><path d="m231.9762 769.5285v18.0104" fill="none"/><path d="m184.0966 769.5285v18.0104" fill="none"/><path d="m208.0492 769.5285v18.0104" fill="none"/><path d="m243.9271 715.4959v18.0572" fill="none"/><path d="m196.0728 715.4959v18.0572" fill="none"/><path d="m243.9271 751.5176v18.0572" fill="none"/><path d="m196.0728 751.5176v18.0572" fill="none"/><path d="m172.1461 805.5502h95.7336" fill="none"/><path d="m172.1461 787.5389h95.7336" fill="none"/><path d="m172.1461 823.5609h95.7336" fill="none"/><path d="m172.1461 841.5718h95.7336" fill="none"/><path d="m255.9034 805.5502v18.0107" fill="none"/><path d="m231.9762 805.5502v18.0107" fill="none"/><path d="m184.0966 805.5502v18.0107" fill="none"/><path d="m208.0492 805.5502v18.0107" fill="none"/><path d="m255.9034 841.5718v18.0112" fill="none"/><path d="m231.9762 841.5718v18.0112" fill="none"/><path d="m184.0966 841.5718v18.0115" fill="none"/><path d="m208.0492 841.5718v18.0112" fill="none"/><path d="m243.9271 787.5389v18.0278" fill="none"/><path d="m220 787.5389v18.0278" fill="none"/><path d="m196.0728 787.5389v18.0278" fill="none"/><path d="m243.9271 823.5609v18.0279" fill="none"/><path d="m220 823.5609v18.0279" fill="none"/><path d="m196.0728 823.5609v18.0279" fill="none"/><path d="m220.0126 715.4959v18.0572" fill="none"/><path d="m220.0126 751.5176v18.0572" fill="none"/><path d="m172.1461 733.5068h95.7336" fill="none"/><path d="m172.1461 751.5176h95.7336" fill="none"/><path d="m202.6987 696.2957-.0004 26.9089-13.2513.0004.0002-26.9094c0-3.6396 2.9535-6.5653 6.6255-6.5653 3.6719 0 6.6261 2.9257 6.6261 6.5653z"/><path d="m250.553 696.2957-.0004 26.9089-13.2513.0004.0002-26.9094c0-3.6396 2.9535-6.5653 6.6255-6.5653 3.6719 0 6.6261 2.9257 6.6261 6.5653z"/><path d="m407.8797 859.5833v-251.9643l11.5694-11.7663v-35.2694h-23.7746v17.6203h-23.7745v-17.6203h-23.7746v17.6203h-23.7745v-17.6203h-23.7747v35.2694l11.5701 11.7663v251.9643z" fill="#eac102"/><path d="m300.4999 595.8527h119" fill="none"/><path d="m312.1461 697.6732h95.7336" fill="none"/><path d="m312.1461 643.6406h95.7336" fill="none"/><path d="m312.1461 625.6297h95.7336" fill="none"/><path d="m383.9271 607.6192v18.0105" fill="none"/><path d="m360 607.6192v18.0105" fill="none"/><path d="m336.0728 607.6192v18.0105" fill="none"/><path d="m312.1461 607.6192h95.7336" fill="none"/><path d="m395.9034 625.5839v18.0567" fill="none"/><path d="m371.9762 625.5839v18.0567" fill="none"/><path d="m324.0966 625.5839v18.0567" fill="none"/><path d="m348.0492 625.5839v18.0567" fill="none"/><path d="m395.9034 661.6515v18.0278" fill="none"/><path d="m371.9762 661.6515v18.0278" fill="none"/><path d="m324.0966 661.6515v18.0278" fill="none"/><path d="m348.0492 661.6515v18.0278" fill="none"/><path d="m395.9034 697.6732v18.0104" fill="none"/><path d="m371.9762 697.6732v18.0104" fill="none"/><path d="m324.0966 697.6732v18.0104" fill="none"/><path d="m348.0492 697.6732v18.0104" fill="none"/><path d="m383.9271 643.6406v18.0572" fill="none"/><path d="m336.0728 643.6406v18.0572" fill="none"/><path d="m383.9271 679.6623v18.0571" fill="none"/><path d="m336.0728 679.6623v18.0571" fill="none"/><path d="m312.1461 787.7277h95.7336" fill="none"/><path d="m312.1461 733.6949h95.7336" fill="none"/><path d="m312.1461 715.6836h95.7336" fill="none"/><path d="m312.1461 751.7056h95.7336" fill="none"/><path d="m312.1461 805.7382h95.7336" fill="none"/><path d="m312.1461 823.7488h95.7336" fill="none"/><path d="m312.1461 769.7165h95.7336" fill="none"/><path d="m395.9034 733.6949v18.0107" fill="none"/><path d="m371.9762 733.6949v18.0107" fill="none"/><path d="m324.0966 733.6949v18.0107" fill="none"/><path d="m348.0492 733.6949v18.0107" fill="none"/><path d="m395.9034 769.7165v18.0112" fill="none"/><path d="m371.9762 769.7165v18.0112" fill="none"/><path d="m324.0966 769.7165v18.0112" fill="none"/><path d="m348.0492 769.7165v18.0112" fill="none"/><path d="m395.9034 805.7382v18.0106" fill="none"/><path d="m371.9762 805.7382v18.0106" fill="none"/><path d="m324.0966 805.7382v18.0106" fill="none"/><path d="m348.0492 805.7382v18.0106" fill="none"/><path d="m383.9271 715.6836v18.0278" fill="none"/><path d="m360 715.6836v18.0278" fill="none"/><path d="m336.0728 715.6836v18.0278" fill="none"/><path d="m383.9271 751.7056v18.0279" fill="none"/><path d="m360 751.7056v18.0279" fill="none"/><path d="m336.0728 751.7056v18.0279" fill="none"/><path d="m383.9271 787.7277v18.0279" fill="none"/><path d="m360 787.7277v18.0279" fill="none"/><path d="m336.0728 787.7277v18.0279" fill="none"/><path d="m383.9463 823.7488v17.824" fill="none"/><path d="m360.0129 823.7488v17.824" fill="none"/><path d="m336.0794 823.7488v17.824" fill="none"/><path d="m360.0125 643.6406v18.0572" fill="none"/><path d="m360.0125 679.6623v18.0571" fill="none"/><path d="m312.1461 661.6515h95.7336" fill="none"/><path d="m312.1461 679.6623h95.7336" fill="none"/><path d="m312.1461 841.5727h95.7336" fill="none"/><path d="m395.9034 841.5727v18.0106" fill="none"/><path d="m371.9762 841.5727v18.0106" fill="none"/><path d="m324.0966 841.5727v18.0106" fill="none"/><path d="m348.0492 841.5727v18.0106" fill="none"/><path d="m366.6258 624.4404-.0004 26.9088-13.2513.0004.0002-26.9093c0-3.6397 2.9535-6.5654 6.6255-6.5654 3.6719 0 6.6261 2.9257 6.6261 6.5654z"/><path d="m547.8797 859.5833v-180.109l11.5694-11.7663v-35.2694h-23.7746v17.6204h-23.7745v-17.6204h-23.7746v17.6204h-23.7745v-17.6204h-23.7747v35.2694l11.5701 11.7663v180.109z" fill="#eac102"/><path d="m440.4999 667.708h119" fill="none"/><path d="m452.1461 769.5285h95.7336" fill="none"/><path d="m452.1461 715.4959h95.7336" fill="none"/><path d="m452.1461 697.4851h95.7336" fill="none"/><path d="m523.9271 679.4745v18.0106" fill="none"/><path d="m500 679.4745v18.0106" fill="none"/><path d="m476.0728 679.4745v18.0106" fill="none"/><path d="m452.1461 679.4745h95.7336" fill="none"/><path d="m535.9034 697.4393v18.0566" fill="none"/><path d="m511.9762 697.4393v18.0566" fill="none"/><path d="m464.0966 697.4393v18.0566" fill="none"/><path d="m488.0492 697.4393v18.0566" fill="none"/><path d="m535.9034 733.5068v18.0278" fill="none"/><path d="m511.9762 733.5068v18.0278" fill="none"/><path d="m464.0966 733.5068v18.0278" fill="none"/><path d="m488.0492 733.5068v18.0278" fill="none"/><path d="m535.9034 769.5285v18.0104" fill="none"/><path d="m511.9762 769.5285v18.0104" fill="none"/><path d="m464.0966 769.5285v18.0104" fill="none"/><path d="m488.0492 769.5285v18.0104" fill="none"/><path d="m523.9271 715.4959v18.0572" fill="none"/><path d="m476.0728 715.4959v18.0572" fill="none"/><path d="m523.9271 751.5176v18.0572" fill="none"/><path d="m476.0728 751.5176v18.0572" fill="none"/><path d="m452.1461 805.5502h95.7336" fill="none"/><path d="m452.1461 787.5389h95.7336" fill="none"/><path d="m452.1461 823.5609h95.7336" fill="none"/><path d="m452.1461 841.5718h95.7336" fill="none"/><path d="m535.9034 805.5502v18.0107" fill="none"/><path d="m511.9762 805.5502v18.0107" fill="none"/><path d="m464.0966 805.5502v18.0107" fill="none"/><path d="m488.0492 805.5502v18.0107" fill="none"/><path d="m535.9034 841.5718v18.0112" fill="none"/><path d="m511.9762 841.5718v18.0112" fill="none"/><path d="m464.0966 841.5718v18.0115" fill="none"/><path d="m488.0492 841.5718v18.0112" fill="none"/><path d="m523.9271 787.5389v18.0278" fill="none"/><path d="m500 787.5389v18.0278" fill="none"/><path d="m476.0728 787.5389v18.0278" fill="none"/><path d="m523.9271 823.5609v18.0279" fill="none"/><path d="m500 823.5609v18.0279" fill="none"/><path d="m476.0728 823.5609v18.0279" fill="none"/><path d="m500.0125 715.4959v18.0572" fill="none"/><path d="m500.0125 751.5176v18.0572" fill="none"/><path d="m452.1461 733.5068h95.7336" fill="none"/><path d="m452.1461 751.5176h95.7336" fill="none"/><path d="m482.6987 696.2957-.0004 26.9089-13.2513.0004.0002-26.9094c0-3.6396 2.9535-6.5653 6.6255-6.5653 3.6719 0 6.6261 2.9257 6.6261 6.5653z"/><path d="m530.553 696.2957-.0004 26.9089-13.2513.0004.0002-26.9094c0-3.6396 2.9535-6.5653 6.6255-6.5653 3.6719 0 6.6261 2.9257 6.6261 6.5653z"/><path d="m321.2001 859.5833v-63.2509c0-21.5601 17.2793-38.9314 38.7791-38.9314 21.4997 0 38.8206 17.3712 38.8206 38.9314v63.2509z"/></g><g><path d="m200.6369 968.5c-2.7126-24.7418 35.5923-28.1223 51.3857-55.7211 7.9137-13.829 39.2282-34.8024 47.1626-40.8348 2.2579-17.9289 11.6514-57.0505 24.0361-62.3727 1.2653-17.1367 11.7068-40.0714 36.8472-40.0714 23.4571 0 38.5008 25.3238 40.3575 47.1416 8.4152 15.0686 19.0322 37.6558 23.3727 59.7133 33.1228-14.8676 28.9265 19.7672 43.159 17.3263 23.5023-4.0306 30.5054 57.0727 52.5423 74.8188z" fill="#c87137"/><path d="m423.7986 876.355c-13.5756 5.771-38.663 28.6844-75.1983 32.0425" fill="none"/><path d="m299.1851 871.9442c14.8352-11.6651 26.5848-9.3656 32.4365 4.5424" fill="none"/><path d="m323.2212 809.5715c6.9416-2.6839 14.6965 2.6513 18.6272 7.9589" fill="none"/><path d="m400.4259 816.6417c-3.8086-7.4313-13.0559-16.0193-19.1609-19.2973" fill="none"/><path d="m280.4449 942.0383c28.2196-16.6787 47.8731-18.7934 57.7331-4.257" fill="none"/><path d="m394.8516 857.4298c-9.4055-23.7537-23.2149-41.14-33.3687-28.2028" fill="none"/><path d="m415.5084 914.3676c22.3648-.4012 41.4335 14.3751 49.7881 28.2028" fill="none"/></g><g fill="#e5e5e5"><path d="m178.5312 988.2813c-8.8586 0-16.8518 2.6743-22.6563 7s-13.8295 7-22.6875 7c-.9793 0-1.9493-.03-2.9063-.094 3.824 5.9411 8.1271 11.5263 12.875 16.7188 4.8468-1.1801 9.1957-3.187 12.7188-5.8125 5.8041-4.3255 13.7977-7 22.6563-7s16.883 2.6743 22.6875 7 13.829 7 22.6875 7 16.883-2.6743 22.6875-7 13.8295-7 22.6875-7 16.883 2.6743 22.6875 7 13.7983 7 22.6563 7 16.883-2.6743 22.6875-7 13.8295-7 22.6875-7 16.8835 2.6743 22.6875 7 13.8295 7 22.6875 7 16.8513-2.6743 22.6563-7 13.829-7 22.6875-7 16.883 2.6743 22.6875 7 13.8295 7 22.6875 7 16.8825-2.6743 22.6875-7 13.829-7 22.6875-7 16.8521 2.6745 22.6563 7c3.5231 2.6255 7.8719 4.6324 12.7188 5.8125 4.7479-5.1925 9.051-10.7777 12.875-16.7188-.957.064-1.927.094-2.9063.094-8.858 0-16.883-2.6742-22.6875-7s-13.7977-7-22.6563-7c-8.8585 0-16.8825 2.6743-22.6875 7s-13.8295 7-22.6875 7-16.883-2.6742-22.6875-7-13.829-7-22.6875-7-16.8825 2.6743-22.6875 7-13.7983 7-22.6563 7-16.8835-2.6742-22.6875-7-13.8295-7-22.6875-7-16.883 2.6743-22.6875 7-13.8295 7-22.6875 7-16.8518-2.6742-22.6563-7-13.8295-7-22.6875-7-16.883 2.6743-22.6875 7-13.829 7-22.6875 7-16.883-2.6742-22.6875-7-13.8289-7-22.6875-7z"/><path d="m359.9999 1059.5c-8.858 0-16.8826 2.6742-22.6875 7-1.4866 1.1078-3.1209 2.0947-4.875 2.9688 4.8015 2.9325 9.2586 6.4085 13.25 10.3437 4.3102-1.6046 9.1664-2.5 14.3125-2.5s10.0023.8954 14.3125 2.5c3.9915-3.9352 8.4485-7.4112 13.25-10.3437-1.7542-.8741-3.3884-1.8609-4.875-2.9688-5.804-4.3257-13.8295-7-22.6875-7z"/><path d="m541.4687 1023.875c-8.8591 0-16.8825 2.6743-22.6875 7s-13.8295 7-22.6875 7-16.883-2.6743-22.6875-7-13.829-7-22.6875-7-16.8825 2.6743-22.6875 7-13.7983 7-22.6563 7-16.8835-2.6743-22.6875-7-13.8295-7-22.6875-7-16.883 2.6743-22.6875 7-13.8295 7-22.6875 7-16.8518-2.6743-22.6563-7-13.8295-7-22.6875-7-16.883 2.6743-22.6875 7-13.829 7-22.6875 7-16.883-2.6743-22.6875-7-13.8285-7-22.6875-7c-8.8582 0-16.8835 2.6899-22.6875 7.0156 5.0411 4.1693 10.3695 7.9822 16.0313 11.3281 2.1557-.3403 4.3644-.5312 6.6563-.5312 8.859 0 16.883 2.6743 22.6875 7 5.8045 4.3256 13.829 7 22.6875 7s16.883-2.6744 22.6875-7c5.8045-4.3257 13.8295-7 22.6875-7s16.883 2.6743 22.6875 7c5.8045 4.3256 13.7983 7 22.6563 7s16.883-2.6744 22.6875-7c5.8045-4.3257 13.8295-7 22.6875-7s16.8835 2.6743 22.6875 7c5.804 4.3256 13.8295 7 22.6875 7s16.8513-2.6744 22.6563-7c5.805-4.3257 13.829-7 22.6875-7s16.883 2.6743 22.6875 7c5.8045 4.3256 13.8295 7 22.6875 7s16.8825-2.6744 22.6875-7c5.805-4.3257 13.8285-7 22.6875-7 2.2918 0 4.5006.1909 6.6563.5312 5.6617-3.3459 10.9901-7.1588 16.0313-11.3281-5.804-4.3257-13.8295-7.0156-22.6875-7.0156z"/><path d="m178.5312 952.6563c-8.8582 0-16.8521 2.6745-22.6563 7-5.8048 4.3259-13.8295 7-22.6875 7-7.4793 0-14.3576-1.8963-19.8125-5.0938 1.572 7.1815 3.7807 14.1214 6.5313 20.7813 4.0458 1.3723 8.5459 2.125 13.2813 2.125 8.858 0 16.8827-2.6741 22.6875-7 5.8042-4.3255 13.7981-7 22.6563-7 8.859 0 16.8833 2.6745 22.6875 7 5.8048 4.3259 13.8285 7 22.6875 7 8.858 0 16.8827-2.6741 22.6875-7 5.8042-4.3255 13.8295-7 22.6875-7s16.8827 2.6741 22.6875 7c5.8042 4.3255 13.7983 7 22.6563 7s16.8833-2.6745 22.6875-7c5.8048-4.3259 13.8295-7 22.6875-7s16.8835 2.6743 22.6875 7 13.8295 7 22.6875 7 16.8513-2.6743 22.6563-7 13.8295-7 22.6875-7c8.859 0 16.8833 2.6745 22.6875 7 5.8048 4.3259 13.8295 7 22.6875 7s16.8825-2.6743 22.6875-7 13.8285-7 22.6875-7c8.858 0 16.8521 2.6745 22.6563 7 5.8048 4.3259 13.8295 7 22.6875 7 4.7353 0 9.2354-.7528 13.2813-2.125 2.7506-6.6598 4.9593-13.5998 6.5313-20.7813-5.4549 3.1975-12.3332 5.0938-19.8125 5.0938-8.858 0-16.8827-2.6741-22.6875-7-5.8042-4.3255-13.7983-7-22.6563-7-8.8591 0-16.8825 2.6743-22.6875 7s-13.8295 7-22.6875 7-16.8827-2.6741-22.6875-7c-5.8042-4.3255-13.8285-7-22.6875-7-8.858 0-16.8825 2.6743-22.6875 7s-13.7983 7-22.6563 7-16.8835-2.6743-22.6875-7-13.8295-7-22.6875-7-16.8827 2.6741-22.6875 7c-5.8042 4.3255-13.8295 7-22.6875 7s-16.8521-2.6745-22.6563-7c-5.8048-4.3259-13.8295-7-22.6875-7s-16.8833 2.6745-22.6875 7c-5.8048 4.3259-13.8295 7-22.6875 7-8.859 0-16.8827-2.6741-22.6875-7-5.8042-4.3255-13.8285-7-22.6875-7z"/></g></g><path d="m111.4999 461.5v473.25c0 68.35 55.4 123.75 123.75 123.75h62.375c27.18 0 50.966 17.254 62.375 40 11.409-22.746 35.195-40 62.375-40h62.375c68.35 0 123.75-55.4 123.75-123.75v-473.25z" fill="none" stroke="#000" stroke-linecap="round" stroke-linejoin="round" stroke-width="3"/></svg>